<svg width="877" height="498" viewBox="0 0 877 498" fill="none" xmlns="http://www.w3.org/2000/svg">
<rect width="877" height="498" fill="#FFFDFB"/>
<path d="M199.761 103.545C199.761 107.307 199.057 110.528 197.648 113.21C196.25 115.881 194.341 117.926 191.92 119.347C189.511 120.767 186.778 121.477 183.722 121.477C180.665 121.477 177.926 120.767 175.506 119.347C173.097 117.915 171.188 115.864 169.778 113.193C168.381 110.511 167.682 107.295 167.682 103.545C167.682 99.7841 168.381 96.5682 169.778 93.8977C171.188 91.2159 173.097 89.1648 175.506 87.7443C177.926 86.3239 180.665 85.6136 183.722 85.6136C186.778 85.6136 189.511 86.3239 191.92 87.7443C194.341 89.1648 196.25 91.2159 197.648 93.8977C199.057 96.5682 199.761 99.7841 199.761 103.545ZM193.403 103.545C193.403 100.898 192.989 98.6648 192.159 96.8466C191.341 95.017 190.205 93.6364 188.75 92.7045C187.295 91.7614 185.619 91.2898 183.722 91.2898C181.824 91.2898 180.148 91.7614 178.693 92.7045C177.239 93.6364 176.097 95.017 175.267 96.8466C174.449 98.6648 174.04 100.898 174.04 103.545C174.04 106.193 174.449 108.432 175.267 110.261C176.097 112.08 177.239 113.46 178.693 114.403C180.148 115.335 181.824 115.801 183.722 115.801C185.619 115.801 187.295 115.335 188.75 114.403C190.205 113.46 191.341 112.08 192.159 110.261C192.989 108.432 193.403 106.193 193.403 103.545ZM205.467 130.818V94.8182H211.536V99.1477H211.893C212.212 98.5114 212.661 97.8352 213.24 97.1193C213.82 96.392 214.604 95.7727 215.592 95.2614C216.581 94.7386 217.842 94.4773 219.376 94.4773C221.399 94.4773 223.223 94.9943 224.848 96.0284C226.484 97.0511 227.78 98.5682 228.734 100.58C229.7 102.58 230.183 105.034 230.183 107.943C230.183 110.818 229.712 113.261 228.768 115.273C227.825 117.284 226.541 118.818 224.916 119.875C223.291 120.932 221.45 121.46 219.393 121.46C217.893 121.46 216.649 121.21 215.661 120.71C214.672 120.21 213.876 119.608 213.274 118.903C212.683 118.187 212.223 117.511 211.893 116.875H211.638V130.818H205.467ZM211.518 107.909C211.518 109.602 211.757 111.085 212.234 112.358C212.723 113.631 213.422 114.625 214.331 115.341C215.251 116.045 216.365 116.398 217.672 116.398C219.036 116.398 220.178 116.034 221.098 115.307C222.018 114.568 222.712 113.562 223.178 112.29C223.655 111.006 223.893 109.545 223.893 107.909C223.893 106.284 223.661 104.841 223.195 103.58C222.729 102.318 222.036 101.33 221.115 100.614C220.195 99.8977 219.047 99.5398 217.672 99.5398C216.354 99.5398 215.234 99.8864 214.314 100.58C213.393 101.273 212.695 102.244 212.217 103.494C211.751 104.744 211.518 106.216 211.518 107.909ZM247.058 121.511C244.433 121.511 242.166 120.966 240.257 119.875C238.359 118.773 236.899 117.216 235.876 115.205C234.854 113.182 234.342 110.801 234.342 108.062C234.342 105.369 234.854 103.006 235.876 100.972C236.911 98.9261 238.354 97.3352 240.206 96.1989C242.058 95.0511 244.234 94.4773 246.734 94.4773C248.348 94.4773 249.871 94.7386 251.303 95.2614C252.746 95.7727 254.018 96.5682 255.121 97.6477C256.234 98.7273 257.109 100.102 257.746 101.773C258.382 103.432 258.7 105.409 258.7 107.705V109.597H237.24V105.438H252.786C252.774 104.256 252.518 103.205 252.018 102.284C251.518 101.352 250.82 100.619 249.922 100.085C249.036 99.5511 248.001 99.2841 246.82 99.2841C245.558 99.2841 244.45 99.5909 243.496 100.205C242.541 100.807 241.797 101.602 241.263 102.591C240.74 103.568 240.473 104.642 240.462 105.812V109.443C240.462 110.966 240.74 112.273 241.297 113.364C241.854 114.443 242.632 115.273 243.632 115.852C244.632 116.42 245.803 116.705 247.143 116.705C248.041 116.705 248.854 116.58 249.581 116.33C250.308 116.068 250.939 115.688 251.473 115.188C252.007 114.688 252.411 114.068 252.683 113.33L258.445 113.977C258.081 115.5 257.388 116.83 256.365 117.966C255.354 119.091 254.058 119.966 252.479 120.591C250.899 121.205 249.092 121.511 247.058 121.511ZM263.92 121V94.8182H269.903V99.1818H270.176C270.653 97.6705 271.472 96.5057 272.631 95.6875C273.801 94.858 275.136 94.4432 276.636 94.4432C276.977 94.4432 277.358 94.4602 277.778 94.4943C278.21 94.517 278.568 94.5568 278.852 94.6136V100.29C278.591 100.199 278.176 100.119 277.608 100.051C277.051 99.9716 276.511 99.9318 275.989 99.9318C274.864 99.9318 273.852 100.176 272.955 100.665C272.068 101.142 271.369 101.807 270.858 102.659C270.347 103.511 270.091 104.494 270.091 105.608V121H263.92ZM290.017 121.528C288.358 121.528 286.864 121.233 285.534 120.642C284.216 120.04 283.17 119.153 282.398 117.983C281.636 116.812 281.256 115.369 281.256 113.653C281.256 112.176 281.528 110.955 282.074 109.989C282.619 109.023 283.364 108.25 284.307 107.67C285.25 107.091 286.313 106.653 287.494 106.358C288.688 106.051 289.92 105.83 291.193 105.693C292.727 105.534 293.972 105.392 294.926 105.267C295.881 105.131 296.574 104.926 297.006 104.653C297.449 104.369 297.67 103.932 297.67 103.341V103.239C297.67 101.955 297.29 100.96 296.528 100.256C295.767 99.5511 294.67 99.1989 293.239 99.1989C291.727 99.1989 290.528 99.5284 289.642 100.188C288.767 100.847 288.176 101.625 287.869 102.523L282.108 101.705C282.563 100.114 283.313 98.7841 284.358 97.7159C285.403 96.6364 286.682 95.8295 288.193 95.2955C289.705 94.75 291.375 94.4773 293.205 94.4773C294.466 94.4773 295.722 94.625 296.972 94.9205C298.222 95.2159 299.364 95.7045 300.398 96.3864C301.432 97.0568 302.261 97.9716 302.886 99.1307C303.523 100.29 303.841 101.739 303.841 103.477V121H297.909V117.403H297.705C297.33 118.131 296.801 118.812 296.119 119.449C295.449 120.074 294.602 120.58 293.58 120.966C292.568 121.341 291.381 121.528 290.017 121.528ZM291.619 116.994C292.858 116.994 293.932 116.75 294.841 116.261C295.75 115.761 296.449 115.102 296.938 114.284C297.438 113.466 297.688 112.574 297.688 111.608V108.523C297.494 108.682 297.165 108.83 296.699 108.966C296.244 109.102 295.733 109.222 295.165 109.324C294.597 109.426 294.034 109.517 293.477 109.597C292.92 109.676 292.438 109.744 292.028 109.801C291.108 109.926 290.284 110.131 289.557 110.415C288.83 110.699 288.256 111.097 287.835 111.608C287.415 112.108 287.205 112.756 287.205 113.551C287.205 114.688 287.619 115.545 288.449 116.125C289.278 116.705 290.335 116.994 291.619 116.994ZM321.466 121.511C318.852 121.511 316.608 120.938 314.733 119.79C312.869 118.642 311.432 117.057 310.42 115.034C309.42 113 308.92 110.659 308.92 108.011C308.92 105.352 309.432 103.006 310.455 100.972C311.477 98.9261 312.92 97.3352 314.784 96.1989C316.659 95.0511 318.875 94.4773 321.432 94.4773C323.557 94.4773 325.438 94.8693 327.074 95.6534C328.722 96.4261 330.034 97.5227 331.011 98.9432C331.989 100.352 332.545 102 332.682 103.886H326.784C326.545 102.625 325.977 101.574 325.08 100.733C324.193 99.8807 323.006 99.4545 321.517 99.4545C320.256 99.4545 319.148 99.7955 318.193 100.477C317.239 101.148 316.494 102.114 315.96 103.375C315.438 104.636 315.176 106.148 315.176 107.909C315.176 109.693 315.438 111.227 315.96 112.511C316.483 113.784 317.216 114.767 318.159 115.46C319.114 116.142 320.233 116.483 321.517 116.483C322.426 116.483 323.239 116.312 323.955 115.972C324.682 115.619 325.29 115.114 325.778 114.455C326.267 113.795 326.602 112.994 326.784 112.051H332.682C332.534 113.903 331.989 115.545 331.045 116.977C330.102 118.398 328.818 119.511 327.193 120.318C325.568 121.114 323.659 121.511 321.466 121.511ZM337.749 121V94.8182H343.919V121H337.749ZM340.851 91.1023C339.874 91.1023 339.033 90.7784 338.328 90.1307C337.624 89.4716 337.271 88.6818 337.271 87.7614C337.271 86.8295 337.624 86.0398 338.328 85.392C339.033 84.733 339.874 84.4034 340.851 84.4034C341.839 84.4034 342.68 84.733 343.374 85.392C344.078 86.0398 344.43 86.8295 344.43 87.7614C344.43 88.6818 344.078 89.4716 343.374 90.1307C342.68 90.7784 341.839 91.1023 340.851 91.1023ZM361.685 121.511C359.128 121.511 356.912 120.949 355.037 119.824C353.162 118.699 351.707 117.125 350.673 115.102C349.651 113.08 349.139 110.716 349.139 108.011C349.139 105.307 349.651 102.937 350.673 100.903C351.707 98.8693 353.162 97.2898 355.037 96.1648C356.912 95.0398 359.128 94.4773 361.685 94.4773C364.241 94.4773 366.457 95.0398 368.332 96.1648C370.207 97.2898 371.656 98.8693 372.679 100.903C373.713 102.937 374.23 105.307 374.23 108.011C374.23 110.716 373.713 113.08 372.679 115.102C371.656 117.125 370.207 118.699 368.332 119.824C366.457 120.949 364.241 121.511 361.685 121.511ZM361.719 116.568C363.105 116.568 364.264 116.187 365.196 115.426C366.128 114.653 366.821 113.619 367.276 112.324C367.741 111.028 367.974 109.585 367.974 107.994C367.974 106.392 367.741 104.943 367.276 103.648C366.821 102.341 366.128 101.301 365.196 100.528C364.264 99.7557 363.105 99.3693 361.719 99.3693C360.298 99.3693 359.116 99.7557 358.173 100.528C357.241 101.301 356.543 102.341 356.077 103.648C355.622 104.943 355.395 106.392 355.395 107.994C355.395 109.585 355.622 111.028 356.077 112.324C356.543 113.619 357.241 114.653 358.173 115.426C359.116 116.187 360.298 116.568 361.719 116.568ZM359.315 91.375L363.134 83.5852H369.168L363.935 91.375H359.315ZM385.638 105.659V121H379.467V94.8182H385.365V99.267H385.672C386.274 97.8011 387.234 96.6364 388.553 95.7727C389.882 94.9091 391.524 94.4773 393.479 94.4773C395.286 94.4773 396.859 94.8636 398.2 95.6364C399.553 96.4091 400.598 97.5284 401.337 98.9943C402.087 100.46 402.456 102.239 402.445 104.33V121H396.274V105.284C396.274 103.534 395.82 102.165 394.911 101.176C394.013 100.187 392.768 99.6932 391.178 99.6932C390.098 99.6932 389.138 99.9318 388.297 100.409C387.467 100.875 386.814 101.551 386.337 102.438C385.871 103.324 385.638 104.398 385.638 105.659ZM462.683 97.8693H456.308C456.126 96.8239 455.791 95.8977 455.303 95.0909C454.814 94.2727 454.206 93.5795 453.479 93.0114C452.751 92.4432 451.922 92.017 450.99 91.733C450.07 91.4375 449.075 91.2898 448.007 91.2898C446.109 91.2898 444.428 91.767 442.962 92.7216C441.496 93.6648 440.348 95.0511 439.518 96.8807C438.689 98.6989 438.274 100.92 438.274 103.545C438.274 106.216 438.689 108.466 439.518 110.295C440.359 112.114 441.507 113.489 442.962 114.42C444.428 115.341 446.104 115.801 447.99 115.801C449.036 115.801 450.013 115.665 450.922 115.392C451.842 115.108 452.666 114.693 453.393 114.148C454.132 113.602 454.751 112.932 455.251 112.136C455.763 111.341 456.115 110.432 456.308 109.409L462.683 109.443C462.445 111.102 461.928 112.659 461.132 114.114C460.348 115.568 459.32 116.852 458.047 117.966C456.774 119.068 455.286 119.932 453.581 120.557C451.876 121.17 449.984 121.477 447.905 121.477C444.837 121.477 442.098 120.767 439.689 119.347C437.28 117.926 435.382 115.875 433.996 113.193C432.609 110.511 431.916 107.295 431.916 103.545C431.916 99.7841 432.615 96.5682 434.013 93.8977C435.411 91.2159 437.314 89.1648 439.723 87.7443C442.132 86.3239 444.859 85.6136 447.905 85.6136C449.848 85.6136 451.655 85.8864 453.325 86.4318C454.996 86.9773 456.484 87.7784 457.791 88.8352C459.098 89.8807 460.172 91.1648 461.013 92.6875C461.865 94.1989 462.422 95.9261 462.683 97.8693ZM479.622 121.511C477.065 121.511 474.849 120.949 472.974 119.824C471.099 118.699 469.645 117.125 468.611 115.102C467.588 113.08 467.077 110.716 467.077 108.011C467.077 105.307 467.588 102.937 468.611 100.903C469.645 98.8693 471.099 97.2898 472.974 96.1648C474.849 95.0398 477.065 94.4773 479.622 94.4773C482.179 94.4773 484.395 95.0398 486.27 96.1648C488.145 97.2898 489.594 98.8693 490.616 100.903C491.651 102.937 492.168 105.307 492.168 108.011C492.168 110.716 491.651 113.08 490.616 115.102C489.594 117.125 488.145 118.699 486.27 119.824C484.395 120.949 482.179 121.511 479.622 121.511ZM479.656 116.568C481.043 116.568 482.202 116.187 483.134 115.426C484.065 114.653 484.759 113.619 485.213 112.324C485.679 111.028 485.912 109.585 485.912 107.994C485.912 106.392 485.679 104.943 485.213 103.648C484.759 102.341 484.065 101.301 483.134 100.528C482.202 99.7557 481.043 99.3693 479.656 99.3693C478.236 99.3693 477.054 99.7557 476.111 100.528C475.179 101.301 474.48 102.341 474.014 103.648C473.56 104.943 473.332 106.392 473.332 107.994C473.332 109.585 473.56 111.028 474.014 112.324C474.48 113.619 475.179 114.653 476.111 115.426C477.054 116.187 478.236 116.568 479.656 116.568ZM497.405 121V94.8182H503.303V99.267H503.609C504.155 97.767 505.058 96.5966 506.32 95.7557C507.581 94.9034 509.087 94.4773 510.837 94.4773C512.609 94.4773 514.104 94.9091 515.32 95.7727C516.547 96.625 517.411 97.7898 517.911 99.267H518.183C518.763 97.8125 519.74 96.6534 521.115 95.7898C522.501 94.9148 524.143 94.4773 526.041 94.4773C528.45 94.4773 530.416 95.2386 531.939 96.7614C533.462 98.2841 534.223 100.506 534.223 103.426V121H528.036V104.381C528.036 102.756 527.604 101.568 526.74 100.818C525.876 100.057 524.82 99.6761 523.57 99.6761C522.081 99.6761 520.916 100.142 520.075 101.074C519.246 101.994 518.831 103.193 518.831 104.67V121H512.78V104.125C512.78 102.773 512.371 101.693 511.553 100.886C510.746 100.08 509.689 99.6761 508.382 99.6761C507.496 99.6761 506.689 99.9034 505.962 100.358C505.234 100.801 504.655 101.432 504.223 102.25C503.791 103.057 503.575 104 503.575 105.08V121H497.405ZM540.483 130.818V94.8182H546.551V99.1477H546.909C547.227 98.5114 547.676 97.8352 548.256 97.1193C548.835 96.392 549.619 95.7727 550.608 95.2614C551.597 94.7386 552.858 94.4773 554.392 94.4773C556.415 94.4773 558.239 94.9943 559.864 96.0284C561.5 97.0511 562.795 98.5682 563.75 100.58C564.716 102.58 565.199 105.034 565.199 107.943C565.199 110.818 564.727 113.261 563.784 115.273C562.841 117.284 561.557 118.818 559.932 119.875C558.307 120.932 556.466 121.46 554.409 121.46C552.909 121.46 551.665 121.21 550.676 120.71C549.688 120.21 548.892 119.608 548.29 118.903C547.699 118.187 547.239 117.511 546.909 116.875H546.653V130.818H540.483ZM546.534 107.909C546.534 109.602 546.773 111.085 547.25 112.358C547.739 113.631 548.438 114.625 549.347 115.341C550.267 116.045 551.381 116.398 552.688 116.398C554.051 116.398 555.193 116.034 556.114 115.307C557.034 114.568 557.727 113.562 558.193 112.29C558.67 111.006 558.909 109.545 558.909 107.909C558.909 106.284 558.676 104.841 558.21 103.58C557.744 102.318 557.051 101.33 556.131 100.614C555.21 99.8977 554.062 99.5398 552.688 99.5398C551.369 99.5398 550.25 99.8864 549.33 100.58C548.409 101.273 547.71 102.244 547.233 103.494C546.767 104.744 546.534 106.216 546.534 107.909ZM576.653 86.0909V121H570.483V86.0909H576.653ZM594.589 121.511C591.964 121.511 589.697 120.966 587.788 119.875C585.891 118.773 584.43 117.216 583.408 115.205C582.385 113.182 581.874 110.801 581.874 108.062C581.874 105.369 582.385 103.006 583.408 100.972C584.442 98.9261 585.885 97.3352 587.737 96.1989C589.589 95.0511 591.766 94.4773 594.266 94.4773C595.879 94.4773 597.402 94.7386 598.834 95.2614C600.277 95.7727 601.55 96.5682 602.652 97.6477C603.766 98.7273 604.641 100.102 605.277 101.773C605.913 103.432 606.232 105.409 606.232 107.705V109.597H584.771V105.438H600.317C600.305 104.256 600.05 103.205 599.55 102.284C599.05 101.352 598.351 100.619 597.453 100.085C596.567 99.5511 595.533 99.2841 594.351 99.2841C593.089 99.2841 591.982 99.5909 591.027 100.205C590.072 100.807 589.328 101.602 588.794 102.591C588.271 103.568 588.004 104.642 587.993 105.812V109.443C587.993 110.966 588.271 112.273 588.828 113.364C589.385 114.443 590.163 115.273 591.163 115.852C592.163 116.42 593.334 116.705 594.675 116.705C595.572 116.705 596.385 116.58 597.112 116.33C597.839 116.068 598.47 115.688 599.004 115.188C599.538 114.688 599.942 114.068 600.214 113.33L605.976 113.977C605.612 115.5 604.919 116.83 603.896 117.966C602.885 119.091 601.589 119.966 600.01 120.591C598.43 121.205 596.624 121.511 594.589 121.511ZM624.526 94.8182V99.5909H609.474V94.8182H624.526ZM613.19 88.5455H619.361V113.125C619.361 113.955 619.486 114.591 619.736 115.034C619.997 115.466 620.338 115.761 620.759 115.92C621.179 116.08 621.645 116.159 622.156 116.159C622.543 116.159 622.895 116.131 623.213 116.074C623.543 116.017 623.793 115.966 623.963 115.92L625.003 120.744C624.673 120.858 624.202 120.983 623.588 121.119C622.986 121.256 622.247 121.335 621.372 121.358C619.827 121.403 618.435 121.17 617.196 120.659C615.957 120.136 614.974 119.33 614.247 118.239C613.531 117.148 613.179 115.784 613.19 114.148V88.5455ZM637.22 121.528C635.561 121.528 634.067 121.233 632.737 120.642C631.419 120.04 630.374 119.153 629.601 117.983C628.839 116.812 628.459 115.369 628.459 113.653C628.459 112.176 628.732 110.955 629.277 109.989C629.822 109.023 630.567 108.25 631.51 107.67C632.453 107.091 633.516 106.653 634.697 106.358C635.891 106.051 637.124 105.83 638.396 105.693C639.93 105.534 641.175 105.392 642.129 105.267C643.084 105.131 643.777 104.926 644.209 104.653C644.652 104.369 644.874 103.932 644.874 103.341V103.239C644.874 101.955 644.493 100.96 643.732 100.256C642.97 99.5511 641.874 99.1989 640.442 99.1989C638.93 99.1989 637.732 99.5284 636.845 100.188C635.97 100.847 635.379 101.625 635.072 102.523L629.311 101.705C629.766 100.114 630.516 98.7841 631.561 97.7159C632.607 96.6364 633.885 95.8295 635.396 95.2955C636.908 94.75 638.578 94.4773 640.408 94.4773C641.669 94.4773 642.925 94.625 644.175 94.9205C645.425 95.2159 646.567 95.7045 647.601 96.3864C648.635 97.0568 649.464 97.9716 650.089 99.1307C650.726 100.29 651.044 101.739 651.044 103.477V121H645.112V117.403H644.908C644.533 118.131 644.004 118.812 643.322 119.449C642.652 120.074 641.805 120.58 640.783 120.966C639.771 121.341 638.584 121.528 637.22 121.528ZM638.822 116.994C640.061 116.994 641.135 116.75 642.044 116.261C642.953 115.761 643.652 115.102 644.141 114.284C644.641 113.466 644.891 112.574 644.891 111.608V108.523C644.697 108.682 644.368 108.83 643.902 108.966C643.447 109.102 642.936 109.222 642.368 109.324C641.8 109.426 641.237 109.517 640.68 109.597C640.124 109.676 639.641 109.744 639.232 109.801C638.311 109.926 637.487 110.131 636.76 110.415C636.033 110.699 635.459 111.097 635.038 111.608C634.618 112.108 634.408 112.756 634.408 113.551C634.408 114.688 634.822 115.545 635.652 116.125C636.482 116.705 637.538 116.994 638.822 116.994ZM666.964 121.46C664.908 121.46 663.067 120.932 661.442 119.875C659.817 118.818 658.533 117.284 657.589 115.273C656.646 113.261 656.175 110.818 656.175 107.943C656.175 105.034 656.652 102.58 657.607 100.58C658.572 98.5682 659.874 97.0511 661.51 96.0284C663.146 94.9943 664.97 94.4773 666.982 94.4773C668.516 94.4773 669.777 94.7386 670.766 95.2614C671.754 95.7727 672.538 96.392 673.118 97.1193C673.697 97.8352 674.146 98.5114 674.464 99.1477H674.72V86.0909H680.908V121H674.839V116.875H674.464C674.146 117.511 673.686 118.187 673.084 118.903C672.482 119.608 671.686 120.21 670.697 120.71C669.709 121.21 668.464 121.46 666.964 121.46ZM668.686 116.398C669.993 116.398 671.107 116.045 672.027 115.341C672.947 114.625 673.646 113.631 674.124 112.358C674.601 111.085 674.839 109.602 674.839 107.909C674.839 106.216 674.601 104.744 674.124 103.494C673.658 102.244 672.964 101.273 672.044 100.58C671.135 99.8864 670.016 99.5398 668.686 99.5398C667.311 99.5398 666.163 99.8977 665.243 100.614C664.322 101.33 663.629 102.318 663.163 103.58C662.697 104.841 662.464 106.284 662.464 107.909C662.464 109.545 662.697 111.006 663.163 112.29C663.641 113.562 664.339 114.568 665.26 115.307C666.192 116.034 667.334 116.398 668.686 116.398ZM695.017 121.528C693.358 121.528 691.864 121.233 690.534 120.642C689.216 120.04 688.17 119.153 687.398 117.983C686.636 116.812 686.256 115.369 686.256 113.653C686.256 112.176 686.528 110.955 687.074 109.989C687.619 109.023 688.364 108.25 689.307 107.67C690.25 107.091 691.313 106.653 692.494 106.358C693.688 106.051 694.92 105.83 696.193 105.693C697.727 105.534 698.972 105.392 699.926 105.267C700.881 105.131 701.574 104.926 702.006 104.653C702.449 104.369 702.67 103.932 702.67 103.341V103.239C702.67 101.955 702.29 100.96 701.528 100.256C700.767 99.5511 699.67 99.1989 698.239 99.1989C696.727 99.1989 695.528 99.5284 694.642 100.188C693.767 100.847 693.176 101.625 692.869 102.523L687.108 101.705C687.563 100.114 688.313 98.7841 689.358 97.7159C690.403 96.6364 691.682 95.8295 693.193 95.2955C694.705 94.75 696.375 94.4773 698.205 94.4773C699.466 94.4773 700.722 94.625 701.972 94.9205C703.222 95.2159 704.364 95.7045 705.398 96.3864C706.432 97.0568 707.261 97.9716 707.886 99.1307C708.523 100.29 708.841 101.739 708.841 103.477V121H702.909V117.403H702.705C702.33 118.131 701.801 118.812 701.119 119.449C700.449 120.074 699.602 120.58 698.58 120.966C697.568 121.341 696.381 121.528 695.017 121.528ZM696.619 116.994C697.858 116.994 698.932 116.75 699.841 116.261C700.75 115.761 701.449 115.102 701.938 114.284C702.438 113.466 702.688 112.574 702.688 111.608V108.523C702.494 108.682 702.165 108.83 701.699 108.966C701.244 109.102 700.733 109.222 700.165 109.324C699.597 109.426 699.034 109.517 698.477 109.597C697.92 109.676 697.438 109.744 697.028 109.801C696.108 109.926 695.284 110.131 694.557 110.415C693.83 110.699 693.256 111.097 692.835 111.608C692.415 112.108 692.205 112.756 692.205 113.551C692.205 114.688 692.619 115.545 693.449 116.125C694.278 116.705 695.335 116.994 696.619 116.994Z" fill="#F39200"/>
<rect x="602" y="363" width="90" height="40" rx="8" fill="#F39200"/>
<path d="M629.529 377.364V389H627.421V377.364H629.529ZM633.778 383.886V389H631.721V380.273H633.687V381.756H633.789C633.99 381.267 634.31 380.879 634.749 380.591C635.192 380.303 635.74 380.159 636.391 380.159C636.994 380.159 637.518 380.288 637.965 380.545C638.416 380.803 638.764 381.176 639.011 381.665C639.261 382.153 639.384 382.746 639.38 383.443V389H637.323V383.761C637.323 383.178 637.172 382.722 636.869 382.392C636.569 382.062 636.155 381.898 635.624 381.898C635.264 381.898 634.944 381.977 634.664 382.136C634.388 382.292 634.17 382.517 634.011 382.812C633.855 383.108 633.778 383.466 633.778 383.886ZM641.471 389V380.273H643.528V389H641.471ZM642.505 379.034C642.179 379.034 641.899 378.926 641.664 378.71C641.429 378.491 641.312 378.227 641.312 377.92C641.312 377.61 641.429 377.347 641.664 377.131C641.899 376.911 642.179 376.801 642.505 376.801C642.835 376.801 643.115 376.911 643.346 377.131C643.581 377.347 643.698 377.61 643.698 377.92C643.698 378.227 643.581 378.491 643.346 378.71C643.115 378.926 642.835 379.034 642.505 379.034ZM649.45 389.17C648.578 389.17 647.83 388.979 647.205 388.597C646.584 388.214 646.105 387.686 645.768 387.011C645.434 386.333 645.268 385.553 645.268 384.67C645.268 383.784 645.438 383.002 645.779 382.324C646.12 381.642 646.601 381.112 647.222 380.733C647.847 380.35 648.586 380.159 649.438 380.159C650.147 380.159 650.773 380.29 651.319 380.551C651.868 380.809 652.306 381.174 652.631 381.648C652.957 382.117 653.143 382.667 653.188 383.295H651.222C651.143 382.875 650.953 382.525 650.654 382.244C650.359 381.96 649.963 381.818 649.467 381.818C649.046 381.818 648.677 381.932 648.359 382.159C648.04 382.383 647.792 382.705 647.614 383.125C647.44 383.545 647.353 384.049 647.353 384.636C647.353 385.231 647.44 385.742 647.614 386.17C647.789 386.595 648.033 386.922 648.347 387.153C648.665 387.381 649.039 387.494 649.467 387.494C649.77 387.494 650.04 387.437 650.279 387.324C650.522 387.206 650.724 387.038 650.887 386.818C651.05 386.598 651.162 386.331 651.222 386.017H653.188C653.139 386.634 652.957 387.182 652.643 387.659C652.328 388.133 651.9 388.504 651.359 388.773C650.817 389.038 650.181 389.17 649.45 389.17ZM654.877 389V380.273H656.934V389H654.877ZM655.911 379.034C655.585 379.034 655.305 378.926 655.07 378.71C654.835 378.491 654.718 378.227 654.718 377.92C654.718 377.61 654.835 377.347 655.07 377.131C655.305 376.911 655.585 376.801 655.911 376.801C656.241 376.801 656.521 376.911 656.752 377.131C656.987 377.347 657.104 377.61 657.104 377.92C657.104 378.227 656.987 378.491 656.752 378.71C656.521 378.926 656.241 379.034 655.911 379.034ZM662.856 389.17C662.004 389.17 661.265 388.983 660.64 388.608C660.015 388.233 659.53 387.708 659.185 387.034C658.844 386.36 658.674 385.572 658.674 384.67C658.674 383.769 658.844 382.979 659.185 382.301C659.53 381.623 660.015 381.097 660.64 380.722C661.265 380.347 662.004 380.159 662.856 380.159C663.708 380.159 664.447 380.347 665.072 380.722C665.697 381.097 666.18 381.623 666.521 382.301C666.865 382.979 667.038 383.769 667.038 384.67C667.038 385.572 666.865 386.36 666.521 387.034C666.18 387.708 665.697 388.233 665.072 388.608C664.447 388.983 663.708 389.17 662.856 389.17ZM662.867 387.523C663.329 387.523 663.716 387.396 664.026 387.142C664.337 386.884 664.568 386.54 664.719 386.108C664.875 385.676 664.952 385.195 664.952 384.665C664.952 384.131 664.875 383.648 664.719 383.216C664.568 382.78 664.337 382.434 664.026 382.176C663.716 381.919 663.329 381.79 662.867 381.79C662.394 381.79 662 381.919 661.685 382.176C661.375 382.434 661.142 382.78 660.987 383.216C660.835 383.648 660.759 384.131 660.759 384.665C660.759 385.195 660.835 385.676 660.987 386.108C661.142 386.54 661.375 386.884 661.685 387.142C662 387.396 662.394 387.523 662.867 387.523Z" fill="white"/>
<rect x="400.5" y="363.5" width="117" height="39" rx="7.5" fill="#FFFDFB"/>
<rect x="400.5" y="363.5" width="117" height="39" rx="7.5" stroke="#BBBBBB"/>
<path d="M425.374 389V377.364H429.738C430.632 377.364 431.382 377.519 431.988 377.83C432.598 378.14 433.058 378.576 433.369 379.136C433.683 379.693 433.84 380.343 433.84 381.085C433.84 381.831 433.681 382.479 433.363 383.028C433.049 383.574 432.585 383.996 431.971 384.295C431.357 384.591 430.603 384.739 429.71 384.739H426.602V382.989H429.425C429.948 382.989 430.376 382.917 430.71 382.773C431.043 382.625 431.289 382.411 431.448 382.131C431.611 381.847 431.692 381.498 431.692 381.085C431.692 380.672 431.611 380.32 431.448 380.028C431.285 379.733 431.037 379.509 430.704 379.358C430.371 379.203 429.941 379.125 429.414 379.125H427.482V389H425.374ZM431.386 383.727L434.266 389H431.914L429.085 383.727H431.386ZM439.428 389.17C438.553 389.17 437.798 388.989 437.161 388.625C436.529 388.258 436.042 387.739 435.701 387.068C435.36 386.394 435.19 385.6 435.19 384.688C435.19 383.79 435.36 383.002 435.701 382.324C436.046 381.642 436.527 381.112 437.144 380.733C437.762 380.35 438.487 380.159 439.32 380.159C439.858 380.159 440.366 380.246 440.843 380.42C441.324 380.591 441.748 380.856 442.116 381.216C442.487 381.576 442.779 382.034 442.991 382.591C443.203 383.144 443.309 383.803 443.309 384.568V385.199H436.156V383.812H441.337C441.334 383.419 441.248 383.068 441.082 382.761C440.915 382.451 440.682 382.206 440.383 382.028C440.087 381.85 439.743 381.761 439.349 381.761C438.928 381.761 438.559 381.864 438.241 382.068C437.923 382.269 437.674 382.534 437.496 382.864C437.322 383.189 437.233 383.547 437.229 383.938V385.148C437.229 385.655 437.322 386.091 437.508 386.455C437.693 386.814 437.953 387.091 438.286 387.284C438.62 387.473 439.01 387.568 439.457 387.568C439.756 387.568 440.027 387.527 440.269 387.443C440.512 387.356 440.722 387.229 440.9 387.062C441.078 386.896 441.212 386.689 441.303 386.443L443.224 386.659C443.103 387.167 442.871 387.61 442.531 387.989C442.193 388.364 441.762 388.655 441.235 388.864C440.709 389.068 440.106 389.17 439.428 389.17ZM448.844 392.455C448.106 392.455 447.471 392.354 446.941 392.153C446.411 391.956 445.985 391.691 445.663 391.358C445.341 391.025 445.117 390.655 444.992 390.25L446.844 389.801C446.928 389.972 447.049 390.14 447.208 390.307C447.367 390.477 447.581 390.617 447.85 390.727C448.123 390.841 448.466 390.898 448.879 390.898C449.462 390.898 449.945 390.756 450.327 390.472C450.71 390.191 450.901 389.729 450.901 389.085V387.432H450.799C450.693 387.644 450.538 387.862 450.333 388.085C450.132 388.309 449.865 388.496 449.532 388.648C449.202 388.799 448.788 388.875 448.288 388.875C447.617 388.875 447.009 388.718 446.464 388.403C445.922 388.085 445.49 387.612 445.168 386.983C444.85 386.35 444.691 385.559 444.691 384.608C444.691 383.65 444.85 382.841 445.168 382.182C445.49 381.519 445.924 381.017 446.469 380.676C447.015 380.331 447.623 380.159 448.293 380.159C448.805 380.159 449.225 380.246 449.555 380.42C449.888 380.591 450.153 380.797 450.35 381.04C450.547 381.278 450.697 381.504 450.799 381.716H450.913V380.273H452.941V389.142C452.941 389.888 452.763 390.506 452.407 390.994C452.051 391.483 451.564 391.848 450.947 392.091C450.329 392.333 449.629 392.455 448.844 392.455ZM448.862 387.261C449.297 387.261 449.668 387.155 449.975 386.943C450.282 386.731 450.515 386.426 450.674 386.028C450.833 385.631 450.913 385.153 450.913 384.597C450.913 384.047 450.833 383.566 450.674 383.153C450.519 382.741 450.288 382.42 449.981 382.193C449.678 381.962 449.305 381.847 448.862 381.847C448.403 381.847 448.021 381.966 447.714 382.205C447.407 382.443 447.176 382.771 447.021 383.188C446.865 383.6 446.788 384.07 446.788 384.597C446.788 385.131 446.865 385.598 447.021 386C447.18 386.398 447.413 386.708 447.719 386.932C448.03 387.152 448.411 387.261 448.862 387.261ZM455.049 389V380.273H457.043V381.727H457.134C457.293 381.223 457.566 380.835 457.952 380.562C458.343 380.286 458.788 380.148 459.288 380.148C459.401 380.148 459.528 380.153 459.668 380.165C459.812 380.172 459.932 380.186 460.026 380.205V382.097C459.939 382.066 459.801 382.04 459.612 382.017C459.426 381.991 459.246 381.977 459.072 381.977C458.697 381.977 458.36 382.059 458.06 382.222C457.765 382.381 457.532 382.602 457.362 382.886C457.191 383.17 457.106 383.498 457.106 383.869V389H455.049ZM464.897 389.17C464.022 389.17 463.266 388.989 462.63 388.625C461.997 388.258 461.511 387.739 461.17 387.068C460.829 386.394 460.658 385.6 460.658 384.688C460.658 383.79 460.829 383.002 461.17 382.324C461.514 381.642 461.996 381.112 462.613 380.733C463.23 380.35 463.956 380.159 464.789 380.159C465.327 380.159 465.835 380.246 466.312 380.42C466.793 380.591 467.217 380.856 467.585 381.216C467.956 381.576 468.247 382.034 468.46 382.591C468.672 383.144 468.778 383.803 468.778 384.568V385.199H461.624V383.812H466.806C466.802 383.419 466.717 383.068 466.55 382.761C466.384 382.451 466.151 382.206 465.852 382.028C465.556 381.85 465.211 381.761 464.817 381.761C464.397 381.761 464.028 381.864 463.71 382.068C463.391 382.269 463.143 382.534 462.965 382.864C462.791 383.189 462.702 383.547 462.698 383.938V385.148C462.698 385.655 462.791 386.091 462.977 386.455C463.162 386.814 463.422 387.091 463.755 387.284C464.088 387.473 464.478 387.568 464.925 387.568C465.225 387.568 465.496 387.527 465.738 387.443C465.98 387.356 466.191 387.229 466.369 387.062C466.547 386.896 466.681 386.689 466.772 386.443L468.692 386.659C468.571 387.167 468.34 387.61 467.999 387.989C467.662 388.364 467.23 388.655 466.704 388.864C466.177 389.068 465.575 389.17 464.897 389.17ZM477.415 382.58L475.54 382.784C475.487 382.595 475.395 382.417 475.262 382.25C475.133 382.083 474.959 381.949 474.739 381.847C474.52 381.744 474.251 381.693 473.933 381.693C473.504 381.693 473.145 381.786 472.853 381.972C472.565 382.157 472.423 382.398 472.427 382.693C472.423 382.947 472.516 383.153 472.705 383.312C472.898 383.472 473.217 383.602 473.66 383.705L475.148 384.023C475.974 384.201 476.588 384.483 476.989 384.869C477.395 385.256 477.599 385.761 477.603 386.386C477.599 386.936 477.438 387.42 477.12 387.841C476.806 388.258 476.368 388.583 475.808 388.818C475.247 389.053 474.603 389.17 473.876 389.17C472.808 389.17 471.948 388.947 471.296 388.5C470.645 388.049 470.256 387.422 470.131 386.619L472.137 386.426C472.228 386.82 472.421 387.117 472.717 387.318C473.012 387.519 473.397 387.619 473.87 387.619C474.359 387.619 474.751 387.519 475.046 387.318C475.345 387.117 475.495 386.869 475.495 386.574C475.495 386.324 475.398 386.117 475.205 385.955C475.016 385.792 474.72 385.667 474.319 385.58L472.83 385.267C471.993 385.093 471.374 384.799 470.972 384.386C470.571 383.97 470.372 383.443 470.376 382.807C470.372 382.269 470.518 381.803 470.813 381.409C471.112 381.011 471.527 380.705 472.058 380.489C472.592 380.269 473.207 380.159 473.904 380.159C474.927 380.159 475.732 380.377 476.319 380.812C476.91 381.248 477.275 381.837 477.415 382.58ZM481.81 389.176C481.257 389.176 480.759 389.078 480.316 388.881C479.877 388.68 479.528 388.384 479.271 387.994C479.017 387.604 478.89 387.123 478.89 386.551C478.89 386.059 478.981 385.652 479.163 385.33C479.344 385.008 479.593 384.75 479.907 384.557C480.221 384.364 480.576 384.218 480.969 384.119C481.367 384.017 481.778 383.943 482.202 383.898C482.714 383.845 483.129 383.797 483.447 383.756C483.765 383.71 483.996 383.642 484.14 383.551C484.288 383.456 484.362 383.311 484.362 383.114V383.08C484.362 382.652 484.235 382.32 483.981 382.085C483.727 381.85 483.362 381.733 482.884 381.733C482.38 381.733 481.981 381.843 481.685 382.062C481.394 382.282 481.197 382.542 481.094 382.841L479.174 382.568C479.326 382.038 479.576 381.595 479.924 381.239C480.272 380.879 480.699 380.61 481.202 380.432C481.706 380.25 482.263 380.159 482.873 380.159C483.293 380.159 483.712 380.208 484.129 380.307C484.545 380.405 484.926 380.568 485.271 380.795C485.615 381.019 485.892 381.324 486.1 381.71C486.312 382.097 486.418 382.58 486.418 383.159V389H484.441V387.801H484.373C484.248 388.044 484.072 388.271 483.844 388.483C483.621 388.691 483.339 388.86 482.998 388.989C482.661 389.114 482.265 389.176 481.81 389.176ZM482.344 387.665C482.757 387.665 483.115 387.583 483.418 387.42C483.721 387.254 483.954 387.034 484.117 386.761C484.284 386.489 484.367 386.191 484.367 385.869V384.841C484.303 384.894 484.193 384.943 484.038 384.989C483.886 385.034 483.716 385.074 483.526 385.108C483.337 385.142 483.149 385.172 482.964 385.199C482.778 385.225 482.617 385.248 482.481 385.267C482.174 385.309 481.899 385.377 481.657 385.472C481.415 385.566 481.223 385.699 481.083 385.869C480.943 386.036 480.873 386.252 480.873 386.517C480.873 386.896 481.011 387.182 481.288 387.375C481.564 387.568 481.916 387.665 482.344 387.665ZM488.487 389V380.273H490.481V381.727H490.572C490.731 381.223 491.004 380.835 491.39 380.562C491.78 380.286 492.225 380.148 492.725 380.148C492.839 380.148 492.966 380.153 493.106 380.165C493.25 380.172 493.369 380.186 493.464 380.205V382.097C493.377 382.066 493.238 382.04 493.049 382.017C492.863 381.991 492.683 381.977 492.509 381.977C492.134 381.977 491.797 382.059 491.498 382.222C491.202 382.381 490.969 382.602 490.799 382.886C490.629 383.17 490.543 383.498 490.543 383.869V389H488.487Z" fill="#F39200"/>
<path fill-rule="evenodd" clip-rule="evenodd" d="M267 284C267 299.913 260.679 315.174 249.426 326.426C238.174 337.679 222.913 344 207 344C191.087 344 175.826 337.679 164.574 326.426C153.321 315.174 147 299.913 147 284C147 268.087 153.321 252.826 164.574 241.574C175.826 230.321 191.087 224 207 224C222.913 224 238.174 230.321 249.426 241.574C260.679 252.826 267 268.087 267 284ZM237.225 261.275C236.689 260.741 236.051 260.321 235.349 260.039C234.648 259.757 233.896 259.62 233.14 259.636C232.384 259.651 231.638 259.819 230.949 260.129C230.259 260.439 229.639 260.885 229.125 261.44L203.078 294.628L187.38 278.923C186.314 277.929 184.903 277.388 183.446 277.414C181.989 277.439 180.598 278.03 179.568 279.06C178.537 280.091 177.947 281.481 177.921 282.939C177.895 284.396 178.436 285.806 179.43 286.873L199.275 306.725C199.81 307.259 200.446 307.679 201.147 307.961C201.848 308.244 202.598 308.382 203.353 308.368C204.108 308.354 204.853 308.188 205.543 307.88C206.232 307.572 206.853 307.128 207.368 306.575L237.308 269.15C238.328 268.089 238.892 266.67 238.878 265.197C238.864 263.725 238.273 262.317 237.232 261.275H237.225Z" fill="#26A512"/>
</svg>
