<svg width="32" height="20" viewBox="0 0 32 20" fill="none" xmlns="http://www.w3.org/2000/svg">
<g clip-path="url(#clip0_862_5581)">
<mask id="mask0_862_5581" style="mask-type:luminance" maskUnits="userSpaceOnUse" x="0" y="0" width="32" height="20">
<path d="M0 0H31.4442V20H0V0Z" fill="white"/>
</mask>
<g mask="url(#mask0_862_5581)">
<path d="M0 20H31.4446V0H0V20Z" fill="black"/>
</g>
<path d="M0.367188 19.6414H31.1127V0.364014H0.367188V19.6414Z" fill="white"/>
<path d="M7.14543 11.0426L7.74048 11.7254L8.35504 11.047H8.84733V11.2566L8.0768 12.11L8.84733 13.0219V11.047H10.2377C10.5005 11.047 10.8864 11.1689 10.8864 11.7148C10.8864 12.4809 10.3786 12.4898 10.1012 12.4898H9.37902V13.2319H8.34975L7.72139 12.5048L7.07759 13.2266H5.03125V11.0417H7.14543" fill="#00ACEC"/>
<path d="M13.4453 11.0425H15.1988V11.5132H13.9823V11.9219H15.1651V12.3366H13.9823V12.7692H15.1988V13.2265H13.4453" fill="#00ACEC"/>
<path d="M11.6776 13.2322H11.1406V11.0474H12.5359C12.7995 11.0474 13.1793 11.1643 13.1793 11.6323C13.1793 11.8963 13.1013 12.0904 12.8084 12.2375C13.0619 12.2663 13.1602 12.4324 13.1602 12.783L13.1793 13.2322H12.6573L12.6427 12.8313C12.6382 12.6469 12.5647 12.4613 12.3803 12.4613H11.6776" fill="#00ACEC"/>
<path d="M18.5672 11.8939C19.2273 11.9268 19.2817 12.2566 19.2817 12.6072C19.2817 13.017 18.9454 13.2364 18.594 13.2364H17.4677V12.7688H18.3454C18.4945 12.7688 18.7163 12.7688 18.7163 12.5584C18.7163 12.4585 18.6773 12.3952 18.5185 12.3781C18.4478 12.3679 18.187 12.3533 18.1484 12.3525C17.5526 12.3371 17.4141 12.0406 17.4141 11.6803C17.4141 11.2708 17.702 11.0466 18.0534 11.0466H19.1797V11.515H18.3556C18.1679 11.5174 17.9653 11.4926 17.9653 11.7055C17.9653 11.8391 18.0656 11.8659 18.1919 11.8785C18.2358 11.8789 18.5282 11.8939 18.5672 11.8939Z" fill="#00ACEC"/>
<path d="M16.559 11.8939C17.2186 11.9268 17.2735 12.2566 17.2735 12.6072C17.2735 13.017 16.9367 13.2364 16.5858 13.2364H15.4591V12.7688H16.3368C16.4855 12.7688 16.7081 12.7688 16.7081 12.5584C16.7081 12.4585 16.6691 12.3952 16.5103 12.3781C16.4392 12.3679 16.1784 12.3533 16.1402 12.3525C15.5444 12.3371 15.4062 12.0406 15.4062 11.6803C15.4062 11.2708 15.6938 11.0466 16.0444 11.0466H17.1715V11.515H16.3474C16.1593 11.5174 15.957 11.4926 15.957 11.7055C15.957 11.8391 16.057 11.8659 16.1845 11.8785C16.2275 11.8789 16.5204 11.8939 16.559 11.8939Z" fill="#00ACEC"/>
<path d="M9.48969 9.4766H8.95312V7.29175H10.348C10.6116 7.29175 10.9926 7.40913 10.9926 7.87665C10.9926 8.14067 10.9142 8.33564 10.6217 8.48186C10.8752 8.51111 10.9731 8.67723 10.9731 9.02777L10.9926 9.4766H10.4706L10.456 9.07651C10.4507 8.89129 10.378 8.70648 10.1924 8.70648H9.4901V9.4766" fill="#00ACEC"/>
<path d="M11.2656 9.4766H11.8018V7.28931H11.2656V9.4766Z" fill="#00ACEC"/>
<path d="M6.89062 7.29175H8.64371V7.76251H7.42841V8.17235H8.60999V8.58706H7.42841V9.01843H8.64371V9.4766H6.89062" fill="#00ACEC"/>
<path d="M2.97259 9.4766H4.05263V7.85553L4.76913 9.4766H5.25736L5.99052 7.88234V9.4766H6.52668V7.29175H5.67126L5.01284 8.75725L4.35686 7.29175H3.51566V9.39618L2.579 7.29175H1.87021L0.914062 9.4766H1.47987L1.68906 8.98918H2.75935" fill="#00ACEC"/>
<path d="M14.8878 8.9904H13.8179L13.6084 9.47782H12.9012C12.3061 9.47782 12.0425 8.97943 12.0551 8.37463C12.0734 7.47737 12.6035 7.29053 12.848 7.29053H13.5474V7.76617H13.2164C12.8598 7.76617 12.5823 7.80353 12.5823 8.31532V8.47333C12.5844 8.8588 12.7867 8.94978 12.9162 8.97659C12.9475 8.98431 13.0064 8.98715 13.0275 8.98552L13.2599 8.98431L13.9987 7.29175H14.7083L15.6226 9.34256V7.29053H16.4147L17.3196 8.80355V7.29053H17.8558V9.47782H17.1243L16.1588 7.87787V9.47782H15.1007" fill="#00ACEC"/>
<path d="M19.1806 10.7062V0.981445H0.960938V8.50149L1.64373 6.96085H2.8046L3.18519 7.87719V6.96085H4.5987L5.02804 7.86826L5.44762 6.96085H10.4315C10.6268 6.96085 10.8901 7.02949 11.0074 7.24355V6.96085H12.0513V7.29229C12.1874 7.10748 12.3921 6.96085 12.7922 6.96085H14.9182L15.3085 7.84795V6.96085H16.5673L17.0153 7.73178V6.96085H18.166V9.80818H16.9279L16.4105 8.96982V9.80818H14.8406L14.5871 9.25212H14.0891L13.8548 9.80818H12.8698C12.6553 9.78909 12.1581 9.70095 12.0513 9.36991V9.80818H10.1589V9.18429C10.1589 9.09614 10.0809 8.98891 9.9737 8.98891H9.76899V9.80818H5.74048V9.16479L5.43787 9.80818H4.6186L4.30666 9.15463V9.80818H2.69736L2.48249 9.30127H1.96543L1.74121 9.80818H0.960938V19.0062H19.1806V13.3688C19.0831 13.4764 18.9272 13.5637 18.6932 13.5637H17.1708V13.3489C17.0539 13.4764 16.8885 13.5637 16.6245 13.5637H12.3336V12.9695C12.3239 12.8907 12.3633 12.725 12.1484 12.725H11.9729V13.5637H10.832V12.5978C10.7146 12.7936 10.4611 12.803 10.2954 12.8127H9.69019V13.5637H8.16904L7.72955 13.0272L7.26163 13.5637H4.6775V10.7062H7.30062L7.7588 11.2229L8.22753 10.7062H10.3051C10.4514 10.7152 10.7292 10.7838 10.832 10.9402V10.7062H12.607C12.763 10.7062 13.0652 10.7741 13.1923 10.9788V10.7062H15.4157V10.9597C15.5327 10.8037 15.7187 10.7062 16.0006 10.7062H17.4247V10.9504C17.5319 10.794 17.8154 10.7062 17.9812 10.7062" fill="#00ACEC"/>
<path d="M24.195 10.4579C24.195 10.823 22.8047 10.4201 22.8047 11.3084C22.8047 11.7138 23.1325 11.8978 23.5013 11.8978C23.7925 11.8978 24.0159 11.8377 24.2365 11.6326L24.3157 11.8413H25.0168C24.9769 11.7654 24.9709 11.6663 24.9709 11.555V10.6411C24.9709 10.1744 24.9144 9.83154 23.9899 9.83154C23.2182 9.83154 22.9237 10.074 22.9237 10.4875H23.669C23.6877 10.3202 23.8335 10.2982 23.9416 10.2982C24.0245 10.2982 24.195 10.3169 24.195 10.4579Z" fill="#00ACEC"/>
<path d="M28.23 11.5779V11.8395H28.927V9.15381H28.1525V10.0823C27.9875 9.88859 27.8161 9.82929 27.5704 9.82929C27.1041 9.82929 26.7422 10.2501 26.7422 10.9C26.7422 11.4512 27.0407 11.8951 27.6297 11.8951C27.8803 11.8951 28.0481 11.8175 28.23 11.5779Z" fill="#00ACEC"/>
<path d="M26.5459 10.5013V9.84007C26.5126 9.83641 26.4789 9.8291 26.4448 9.8291C26.1438 9.8291 25.9533 9.97451 25.8448 10.2804H25.8375V9.88515H25.1328V11.8389H25.9078V11.0692C25.9078 10.648 26.0682 10.4985 26.3855 10.4985" fill="#00ACEC"/>
<path d="M21.9159 10.1751C21.8895 9.8965 21.7144 9.73565 21.4382 9.73565C21.1291 9.73565 20.9423 10.0009 20.9423 10.5188C20.9423 10.8957 21.0243 11.2495 21.4715 11.2495C21.7555 11.2495 21.8895 11.0525 21.9232 10.795H22.7697C22.6921 11.4879 22.1954 11.9051 21.4878 11.9051C20.6003 11.9051 20.0625 11.362 20.0625 10.4887C20.0625 9.61989 20.6515 9.07886 21.4017 9.07886C22.2222 9.07886 22.6807 9.48545 22.7518 10.1747H21.9159" fill="#00ACEC"/>
<path d="M9.38281 12.042H10.0514C10.2703 12.042 10.3483 11.9145 10.3483 11.7687C10.3483 11.6614 10.2776 11.5181 10.053 11.5181H9.38281" fill="white"/>
<path d="M6.78642 11.5132H5.57031V11.9222H6.7519V12.3365H5.57031V12.7691H6.80592L7.39651 12.1099L6.87416 11.5152" fill="white"/>
<path d="M11.6797 12.0132H12.3479C12.5668 12.0132 12.6448 11.9157 12.6448 11.7687C12.6448 11.6614 12.5745 11.5181 12.3499 11.5181H11.6797" fill="white"/>
<path d="M9.48438 8.25759H10.1525C10.3723 8.25759 10.4499 8.1601 10.4499 8.01388C10.4499 7.90705 10.3792 7.76245 10.1546 7.76245H9.48438" fill="white"/>
<path d="M2.55158 8.51891H1.89844L2.21891 7.75488" fill="white"/>
<path d="M14.3427 7.75635L14.0234 8.51997H14.6786" fill="white"/>
<path d="M30.3682 12.438L23.8047 19.0011H24.7365L30.3682 13.3698V12.438Z" fill="#3B4095"/>
<path d="M30.3748 14.2744L25.6484 19.0012H26.5798L30.3748 15.2062V14.2744Z" fill="#00ACEC"/>
<path d="M30.3752 16.1108L27.4844 19.0012H28.4174L30.3752 17.043V16.1108Z" fill="#6CB35E"/>
<path d="M19.8516 17.9671C19.8516 17.3964 20.3158 16.9321 20.8914 16.9321C21.4653 16.9321 21.9267 17.3964 21.9267 17.9671C21.9267 18.543 21.4653 19.0077 20.8914 19.0077C20.3158 19.0077 19.8516 18.543 19.8516 17.9671Z" fill="#00ACEC"/>
<path d="M21.7995 17.967C21.7995 17.4645 21.3929 17.0571 20.8893 17.0571C20.3844 17.0571 19.9766 17.4645 19.9766 17.967C19.9766 18.4747 20.3844 18.8825 20.8893 18.8825C21.3925 18.8825 21.7995 18.4747 21.7995 17.967Z" fill="white"/>
<path d="M21.4017 18.5488H21.234L20.9013 18.0139H20.6414V18.5488H20.5V17.3879H21.0053C21.1032 17.3879 21.2011 17.394 21.288 17.4456C21.3753 17.4944 21.418 17.5975 21.418 17.695C21.418 17.9241 21.2583 18.0078 21.0516 18.0139" fill="#00ACEC"/>
<path d="M20.8662 17.9019C21.0286 17.9019 21.2817 17.9292 21.2817 17.6919C21.2817 17.5132 21.1237 17.4917 20.9795 17.4917H20.6484V17.9019" fill="white"/>
<path d="M24.1991 10.9763C24.2015 11.3423 24.089 11.4576 23.8169 11.4576C23.6641 11.4576 23.5703 11.3902 23.5703 11.2935C23.5707 11.0393 23.946 11.0994 24.1991 10.9763Z" fill="white"/>
<path d="M28.1823 10.8809C28.1823 11.1079 28.097 11.335 27.8285 11.335C27.5754 11.335 27.5234 11.0974 27.5234 10.8918C27.5234 10.6766 27.5941 10.4292 27.8512 10.4292C28.1083 10.4292 28.1823 10.6644 28.1823 10.8809Z" fill="white"/>
</g>
<defs>
<clipPath id="clip0_862_5581">
<rect width="31.4443" height="20" fill="white"/>
</clipPath>
</defs>
</svg>
