<svg width="498" height="96" viewBox="0 0 498 96" fill="none" xmlns="http://www.w3.org/2000/svg">
<path d="M0.244318 94V0.909088H35.8807C42.608 0.909088 48.1989 1.96969 52.6534 4.0909C57.1383 6.18182 60.4867 9.04545 62.6989 12.6818C64.9413 16.3182 66.0625 20.4394 66.0625 25.0455C66.0625 28.8333 65.3352 32.0758 63.8807 34.7727C62.4261 37.4394 60.4716 39.6061 58.017 41.2727C55.5625 42.9394 52.8201 44.1364 49.7898 44.8636V45.7727C53.0928 45.9545 56.2595 46.9697 59.2898 48.8182C62.3504 50.6364 64.8504 53.2121 66.7898 56.5455C68.7292 59.8788 69.6989 63.9091 69.6989 68.6364C69.6989 73.4545 68.5322 77.7879 66.1989 81.6364C63.8655 85.4545 60.3504 88.4697 55.6534 90.6818C50.9564 92.8939 45.0473 94 37.9261 94H0.244318ZM17.108 79.9091H35.2443C41.3655 79.9091 45.7746 78.7424 48.4716 76.4091C51.1989 74.0455 52.5625 71.0152 52.5625 67.3182C52.5625 64.5606 51.8807 62.0758 50.517 59.8636C49.1534 57.6212 47.214 55.8636 44.6989 54.5909C42.1837 53.2879 39.1837 52.6364 35.6989 52.6364H17.108V79.9091ZM17.108 40.5H33.7898C36.6989 40.5 39.3201 39.9697 41.6534 38.9091C43.9867 37.8182 45.8201 36.2879 47.1534 34.3182C48.517 32.3182 49.1989 29.9545 49.1989 27.2273C49.1989 23.6212 47.9261 20.6515 45.3807 18.3182C42.8655 15.9848 39.1231 14.8182 34.1534 14.8182H17.108V40.5ZM114.097 95.3636C107.278 95.3636 101.369 93.8636 96.3693 90.8636C91.3693 87.8636 87.4905 83.6667 84.733 78.2727C82.0057 72.8788 80.642 66.5758 80.642 59.3636C80.642 52.1515 82.0057 45.8333 84.733 40.4091C87.4905 34.9848 91.3693 30.7727 96.3693 27.7727C101.369 24.7727 107.278 23.2727 114.097 23.2727C120.915 23.2727 126.824 24.7727 131.824 27.7727C136.824 30.7727 140.688 34.9848 143.415 40.4091C146.172 45.8333 147.551 52.1515 147.551 59.3636C147.551 66.5758 146.172 72.8788 143.415 78.2727C140.688 83.6667 136.824 87.8636 131.824 90.8636C126.824 93.8636 120.915 95.3636 114.097 95.3636ZM114.188 82.1818C117.884 82.1818 120.975 81.1667 123.46 79.1364C125.945 77.0758 127.794 74.3182 129.006 70.8636C130.248 67.4091 130.869 63.5606 130.869 59.3182C130.869 55.0455 130.248 51.1818 129.006 47.7273C127.794 44.2424 125.945 41.4697 123.46 39.4091C120.975 37.3485 117.884 36.3182 114.188 36.3182C110.4 36.3182 107.248 37.3485 104.733 39.4091C102.248 41.4697 100.384 44.2424 99.142 47.7273C97.9299 51.1818 97.3239 55.0455 97.3239 59.3182C97.3239 63.5606 97.9299 67.4091 99.142 70.8636C100.384 74.3182 102.248 77.0758 104.733 79.1364C107.248 81.1667 110.4 82.1818 114.188 82.1818ZM196.381 24.1818V36.9091H156.244V24.1818H196.381ZM166.153 7.45454H182.608V73C182.608 75.2121 182.941 76.9091 183.608 78.0909C184.305 79.2424 185.214 80.0303 186.335 80.4545C187.456 80.8788 188.699 81.0909 190.062 81.0909C191.093 81.0909 192.032 81.0152 192.881 80.8636C193.759 80.7121 194.426 80.5758 194.881 80.4545L197.653 93.3182C196.775 93.6212 195.517 93.9545 193.881 94.3182C192.275 94.6818 190.305 94.8939 187.972 94.9545C183.85 95.0758 180.138 94.4545 176.835 93.0909C173.532 91.697 170.911 89.5455 168.972 86.6364C167.063 83.7273 166.123 80.0909 166.153 75.7273V7.45454ZM239.847 95.3636C233.028 95.3636 227.119 93.8636 222.119 90.8636C217.119 87.8636 213.241 83.6667 210.483 78.2727C207.756 72.8788 206.392 66.5758 206.392 59.3636C206.392 52.1515 207.756 45.8333 210.483 40.4091C213.241 34.9848 217.119 30.7727 222.119 27.7727C227.119 24.7727 233.028 23.2727 239.847 23.2727C246.665 23.2727 252.574 24.7727 257.574 27.7727C262.574 30.7727 266.438 34.9848 269.165 40.4091C271.922 45.8333 273.301 52.1515 273.301 59.3636C273.301 66.5758 271.922 72.8788 269.165 78.2727C266.438 83.6667 262.574 87.8636 257.574 90.8636C252.574 93.8636 246.665 95.3636 239.847 95.3636ZM239.938 82.1818C243.634 82.1818 246.725 81.1667 249.21 79.1364C251.695 77.0758 253.544 74.3182 254.756 70.8636C255.998 67.4091 256.619 63.5606 256.619 59.3182C256.619 55.0455 255.998 51.1818 254.756 47.7273C253.544 44.2424 251.695 41.4697 249.21 39.4091C246.725 37.3485 243.634 36.3182 239.938 36.3182C236.15 36.3182 232.998 37.3485 230.483 39.4091C227.998 41.4697 226.134 44.2424 224.892 47.7273C223.68 51.1818 223.074 55.0455 223.074 59.3182C223.074 63.5606 223.68 67.4091 224.892 70.8636C226.134 74.3182 227.998 77.0758 230.483 79.1364C232.998 81.1667 236.15 82.1818 239.938 82.1818ZM303.722 53.0909V94H287.267V24.1818H302.994V36.0455H303.812C305.419 32.1364 307.979 29.0303 311.494 26.7273C315.04 24.4242 319.419 23.2727 324.631 23.2727C329.449 23.2727 333.646 24.303 337.222 26.3636C340.828 28.4242 343.616 31.4091 345.585 35.3182C347.585 39.2273 348.57 43.9697 348.54 49.5455V94H332.085V52.0909C332.085 47.4242 330.873 43.7727 328.449 41.1364C326.055 38.5 322.737 37.1818 318.494 37.1818C315.616 37.1818 313.055 37.8182 310.812 39.0909C308.6 40.3333 306.858 42.1364 305.585 44.5C304.343 46.8636 303.722 49.7273 303.722 53.0909ZM396.176 95.3636C389.176 95.3636 383.131 93.9091 378.04 91C372.979 88.0606 369.085 83.9091 366.358 78.5455C363.631 73.1515 362.267 66.803 362.267 59.5C362.267 52.3182 363.631 46.0152 366.358 40.5909C369.116 35.1364 372.964 30.8939 377.903 27.8636C382.843 24.803 388.646 23.2727 395.312 23.2727C399.616 23.2727 403.676 23.9697 407.494 25.3636C411.343 26.7273 414.737 28.8485 417.676 31.7273C420.646 34.6061 422.979 38.2727 424.676 42.7273C426.373 47.1515 427.222 52.4242 427.222 58.5455V63.5909H369.994V52.5H411.449C411.419 49.3485 410.737 46.5455 409.403 44.0909C408.07 41.6061 406.206 39.6515 403.812 38.2273C401.449 36.803 398.691 36.0909 395.54 36.0909C392.176 36.0909 389.222 36.9091 386.676 38.5455C384.131 40.1515 382.146 42.2727 380.722 44.9091C379.328 47.5151 378.616 50.3788 378.585 53.5V63.1818C378.585 67.2424 379.328 70.7273 380.812 73.6364C382.297 76.5152 384.373 78.7273 387.04 80.2727C389.706 81.7879 392.828 82.5455 396.403 82.5455C398.797 82.5455 400.964 82.2121 402.903 81.5455C404.843 80.8485 406.525 79.8333 407.949 78.5C409.373 77.1667 410.449 75.5152 411.176 73.5455L426.54 75.2727C425.57 79.3333 423.722 82.8788 420.994 85.9091C418.297 88.9091 414.843 91.2424 410.631 92.9091C406.419 94.5455 401.6 95.3636 396.176 95.3636ZM496.324 42.6364L481.324 44.2727C480.9 42.7576 480.157 41.3333 479.097 40C478.066 38.6667 476.672 37.5909 474.915 36.7727C473.157 35.9545 471.006 35.5455 468.46 35.5455C465.036 35.5455 462.157 36.2879 459.824 37.7727C457.521 39.2576 456.384 41.1818 456.415 43.5455C456.384 45.5758 457.127 47.2273 458.642 48.5C460.188 49.7727 462.733 50.8182 466.278 51.6364L478.188 54.1818C484.794 55.6061 489.703 57.8636 492.915 60.9545C496.157 64.0455 497.794 68.0909 497.824 73.0909C497.794 77.4848 496.506 81.3636 493.96 84.7273C491.445 88.0606 487.945 90.6667 483.46 92.5455C478.975 94.4242 473.824 95.3636 468.006 95.3636C459.46 95.3636 452.581 93.5758 447.369 90C442.157 86.3939 439.051 81.3788 438.051 74.9545L454.097 73.4091C454.824 76.5606 456.369 78.9394 458.733 80.5455C461.097 82.1515 464.172 82.9545 467.96 82.9545C471.869 82.9545 475.006 82.1515 477.369 80.5455C479.763 78.9394 480.96 76.9545 480.96 74.5909C480.96 72.5909 480.188 70.9394 478.642 69.6364C477.127 68.3333 474.763 67.3333 471.551 66.6364L459.642 64.1364C452.945 62.7424 447.991 60.3939 444.778 57.0909C441.566 53.7576 439.975 49.5455 440.006 44.4545C439.975 40.1515 441.142 36.4242 443.506 33.2727C445.9 30.0909 449.218 27.6364 453.46 25.9091C457.733 24.1515 462.657 23.2727 468.233 23.2727C476.415 23.2727 482.854 25.0152 487.551 28.5C492.278 31.9848 495.203 36.697 496.324 42.6364Z" fill="white"/>
</svg>
