<svg width="480" height="48" viewBox="0 0 480 48" fill="none" xmlns="http://www.w3.org/2000/svg">
<g filter="url(#filter0_d_894_4653)">
<rect x="4" width="472" height="40" rx="8" fill="#F39200" shape-rendering="crispEdges"/>
<path d="M175.907 27V12.4545H181.362C182.479 12.4545 183.417 12.6487 184.174 13.0369C184.937 13.4252 185.512 13.9697 185.9 14.6705C186.293 15.3665 186.49 16.1785 186.49 17.1065C186.49 18.0393 186.291 18.849 185.893 19.5355C185.5 20.2173 184.92 20.7453 184.153 21.1193C183.386 21.4886 182.444 21.6733 181.326 21.6733H177.441V19.4858H180.971C181.625 19.4858 182.16 19.3958 182.576 19.2159C182.993 19.0312 183.301 18.7637 183.5 18.4134C183.703 18.0582 183.805 17.6226 183.805 17.1065C183.805 16.5904 183.703 16.1501 183.5 15.7855C183.296 15.4162 182.986 15.1368 182.569 14.9474C182.153 14.7533 181.615 14.6562 180.957 14.6562H178.542V27H175.907ZM183.422 20.4091L187.022 27H184.082L180.545 20.4091H183.422ZM193.475 27.2131C192.381 27.2131 191.436 26.9858 190.641 26.5312C189.85 26.072 189.242 25.4233 188.816 24.5852C188.39 23.7424 188.176 22.7505 188.176 21.6094C188.176 20.4872 188.39 19.5024 188.816 18.6548C189.247 17.8026 189.848 17.1397 190.62 16.6662C191.391 16.188 192.298 15.9489 193.34 15.9489C194.012 15.9489 194.647 16.0578 195.243 16.2756C195.845 16.4886 196.375 16.8201 196.834 17.2699C197.298 17.7197 197.663 18.2926 197.928 18.9886C198.193 19.6799 198.326 20.5038 198.326 21.4602V22.2486H189.384V20.5156H195.861C195.856 20.0232 195.75 19.5852 195.542 19.2017C195.333 18.8134 195.042 18.508 194.668 18.2855C194.299 18.063 193.868 17.9517 193.375 17.9517C192.85 17.9517 192.388 18.0795 191.99 18.3352C191.593 18.5862 191.283 18.9176 191.06 19.3295C190.842 19.7367 190.731 20.1842 190.726 20.6719V22.1847C190.726 22.8191 190.842 23.3636 191.074 23.8182C191.306 24.268 191.631 24.6136 192.047 24.8551C192.464 25.0919 192.952 25.2102 193.51 25.2102C193.884 25.2102 194.223 25.1581 194.526 25.054C194.829 24.9451 195.092 24.7865 195.314 24.5781C195.537 24.3698 195.705 24.1117 195.819 23.804L198.219 24.0739C198.068 24.7083 197.779 25.2623 197.353 25.7358C196.931 26.2045 196.391 26.5691 195.733 26.8295C195.075 27.0852 194.322 27.2131 193.475 27.2131ZM203.64 27.2202C202.949 27.2202 202.326 27.0971 201.772 26.8509C201.223 26.5999 200.787 26.2306 200.465 25.7429C200.148 25.2552 199.989 24.6539 199.989 23.9389C199.989 23.3234 200.103 22.8144 200.33 22.4119C200.558 22.0095 200.868 21.6875 201.261 21.446C201.654 21.2045 202.096 21.0223 202.589 20.8991C203.086 20.7713 203.6 20.679 204.13 20.6222C204.769 20.5559 205.288 20.4967 205.685 20.4446C206.083 20.3878 206.372 20.3026 206.552 20.1889C206.737 20.0705 206.829 19.8883 206.829 19.642V19.5994C206.829 19.0644 206.67 18.6501 206.353 18.3565C206.036 18.063 205.579 17.9162 204.982 17.9162C204.353 17.9162 203.853 18.0535 203.484 18.3281C203.119 18.6027 202.873 18.9271 202.745 19.3011L200.344 18.9602C200.534 18.2973 200.846 17.7434 201.282 17.2983C201.718 16.8485 202.25 16.5123 202.88 16.2898C203.51 16.0625 204.206 15.9489 204.968 15.9489C205.494 15.9489 206.017 16.0104 206.538 16.1335C207.058 16.2566 207.534 16.4602 207.965 16.7443C208.396 17.0237 208.742 17.4048 209.002 17.8878C209.267 18.3707 209.4 18.9744 209.4 19.6989V27H206.928V25.5014H206.843C206.687 25.8045 206.467 26.0885 206.183 26.3537C205.903 26.6141 205.55 26.8248 205.124 26.9858C204.703 27.142 204.208 27.2202 203.64 27.2202ZM204.308 25.331C204.824 25.331 205.271 25.2292 205.65 25.0256C206.029 24.8172 206.32 24.5426 206.523 24.2017C206.732 23.8608 206.836 23.4891 206.836 23.0866V21.8011C206.755 21.8674 206.618 21.929 206.424 21.9858C206.235 22.0426 206.022 22.0923 205.785 22.1349C205.548 22.1776 205.314 22.2154 205.082 22.2486C204.85 22.2817 204.648 22.3101 204.478 22.3338C204.094 22.3859 203.751 22.4711 203.448 22.5895C203.145 22.7079 202.906 22.8736 202.731 23.0866C202.556 23.295 202.468 23.5649 202.468 23.8963C202.468 24.3698 202.641 24.7273 202.987 24.9688C203.332 25.2102 203.772 25.331 204.308 25.331ZM214.556 12.4545V27H211.985V12.4545H214.556ZM217.2 27V16.0909H219.771V27H217.2ZM218.493 14.5426C218.085 14.5426 217.735 14.4077 217.441 14.1378C217.148 13.8632 217.001 13.5341 217.001 13.1506C217.001 12.7623 217.148 12.4332 217.441 12.1634C217.735 11.8887 218.085 11.7514 218.493 11.7514C218.904 11.7514 219.255 11.8887 219.544 12.1634C219.837 12.4332 219.984 12.7623 219.984 13.1506C219.984 13.5341 219.837 13.8632 219.544 14.1378C219.255 14.4077 218.904 14.5426 218.493 14.5426ZM222.273 27V25.3665L227.898 18.3139V18.2216H222.457V16.0909H231.044V17.8452L225.689 24.777V24.8693H231.229V27H222.273ZM236.784 27.2202C236.093 27.2202 235.471 27.0971 234.917 26.8509C234.367 26.5999 233.932 26.2306 233.61 25.7429C233.292 25.2552 233.134 24.6539 233.134 23.9389C233.134 23.3234 233.248 22.8144 233.475 22.4119C233.702 22.0095 234.012 21.6875 234.405 21.446C234.798 21.2045 235.241 21.0223 235.733 20.8991C236.23 20.7713 236.744 20.679 237.275 20.6222C237.914 20.5559 238.432 20.4967 238.83 20.4446C239.228 20.3878 239.516 20.3026 239.696 20.1889C239.881 20.0705 239.973 19.8883 239.973 19.642V19.5994C239.973 19.0644 239.815 18.6501 239.498 18.3565C239.18 18.063 238.723 17.9162 238.127 17.9162C237.497 17.9162 236.998 18.0535 236.628 18.3281C236.264 18.6027 236.017 18.9271 235.89 19.3011L233.489 18.9602C233.678 18.2973 233.991 17.7434 234.426 17.2983C234.862 16.8485 235.395 16.5123 236.025 16.2898C236.654 16.0625 237.35 15.9489 238.113 15.9489C238.638 15.9489 239.161 16.0104 239.682 16.1335C240.203 16.2566 240.679 16.4602 241.11 16.7443C241.541 17.0237 241.886 17.4048 242.147 17.8878C242.412 18.3707 242.544 18.9744 242.544 19.6989V27H240.073V25.5014H239.988C239.831 25.8045 239.611 26.0885 239.327 26.3537C239.048 26.6141 238.695 26.8248 238.269 26.9858C237.847 27.142 237.353 27.2202 236.784 27.2202ZM237.452 25.331C237.968 25.331 238.416 25.2292 238.794 25.0256C239.173 24.8172 239.464 24.5426 239.668 24.2017C239.876 23.8608 239.98 23.4891 239.98 23.0866V21.8011C239.9 21.8674 239.763 21.929 239.569 21.9858C239.379 22.0426 239.166 22.0923 238.929 22.1349C238.693 22.1776 238.458 22.2154 238.226 22.2486C237.994 22.2817 237.793 22.3101 237.623 22.3338C237.239 22.3859 236.896 22.4711 236.593 22.5895C236.29 22.7079 236.051 22.8736 235.875 23.0866C235.7 23.295 235.613 23.5649 235.613 23.8963C235.613 24.3698 235.785 24.7273 236.131 24.9688C236.477 25.2102 236.917 25.331 237.452 25.331ZM245.13 27V16.0909H247.623V17.9091H247.736C247.935 17.2794 248.276 16.794 248.759 16.4531C249.247 16.1075 249.803 15.9347 250.428 15.9347C250.57 15.9347 250.729 15.9418 250.904 15.956C251.084 15.9654 251.233 15.982 251.351 16.0057V18.3707C251.242 18.3329 251.069 18.2997 250.833 18.2713C250.601 18.2382 250.376 18.2216 250.158 18.2216C249.689 18.2216 249.268 18.3234 248.894 18.527C248.525 18.7259 248.233 19.0028 248.02 19.358C247.807 19.7131 247.701 20.1226 247.701 20.5866V27H245.13ZM258.134 27V12.4545H263.588C264.706 12.4545 265.643 12.6629 266.401 13.0795C267.163 13.4962 267.739 14.0691 268.127 14.7983C268.52 15.5227 268.716 16.3466 268.716 17.2699C268.716 18.2027 268.52 19.0312 268.127 19.7557C267.734 20.4801 267.154 21.0507 266.387 21.4673C265.62 21.8793 264.675 22.0852 263.553 22.0852H259.938V19.919H263.198C263.851 19.919 264.386 19.8054 264.803 19.5781C265.22 19.3509 265.527 19.0384 265.726 18.6406C265.93 18.2429 266.032 17.786 266.032 17.2699C266.032 16.7538 265.93 16.2992 265.726 15.9062C265.527 15.5133 265.217 15.2079 264.796 14.9901C264.379 14.7675 263.842 14.6562 263.184 14.6562H260.769V27H258.134ZM273.835 27.2202C273.144 27.2202 272.521 27.0971 271.967 26.8509C271.418 26.5999 270.982 26.2306 270.661 25.7429C270.343 25.2552 270.185 24.6539 270.185 23.9389C270.185 23.3234 270.298 22.8144 270.526 22.4119C270.753 22.0095 271.063 21.6875 271.456 21.446C271.849 21.2045 272.292 21.0223 272.784 20.8991C273.281 20.7713 273.795 20.679 274.325 20.6222C274.964 20.5559 275.483 20.4967 275.881 20.4446C276.278 20.3878 276.567 20.3026 276.747 20.1889C276.932 20.0705 277.024 19.8883 277.024 19.642V19.5994C277.024 19.0644 276.866 18.6501 276.548 18.3565C276.231 18.063 275.774 17.9162 275.178 17.9162C274.548 17.9162 274.048 18.0535 273.679 18.3281C273.314 18.6027 273.068 18.9271 272.94 19.3011L270.54 18.9602C270.729 18.2973 271.042 17.7434 271.477 17.2983C271.913 16.8485 272.446 16.5123 273.075 16.2898C273.705 16.0625 274.401 15.9489 275.163 15.9489C275.689 15.9489 276.212 16.0104 276.733 16.1335C277.254 16.2566 277.73 16.4602 278.161 16.7443C278.591 17.0237 278.937 17.4048 279.197 17.8878C279.463 18.3707 279.595 18.9744 279.595 19.6989V27H277.124V25.5014H277.038C276.882 25.8045 276.662 26.0885 276.378 26.3537C276.098 26.6141 275.746 26.8248 275.32 26.9858C274.898 27.142 274.403 27.2202 273.835 27.2202ZM274.503 25.331C275.019 25.331 275.466 25.2292 275.845 25.0256C276.224 24.8172 276.515 24.5426 276.719 24.2017C276.927 23.8608 277.031 23.4891 277.031 23.0866V21.8011C276.951 21.8674 276.813 21.929 276.619 21.9858C276.43 22.0426 276.217 22.0923 275.98 22.1349C275.743 22.1776 275.509 22.2154 275.277 22.2486C275.045 22.2817 274.844 22.3101 274.673 22.3338C274.29 22.3859 273.946 22.4711 273.643 22.5895C273.34 22.7079 273.101 22.8736 272.926 23.0866C272.751 23.295 272.663 23.5649 272.663 23.8963C272.663 24.3698 272.836 24.7273 273.182 24.9688C273.527 25.2102 273.968 25.331 274.503 25.331ZM286.925 31.3182C286.001 31.3182 285.208 31.1927 284.545 30.9418C283.883 30.6955 283.35 30.3641 282.947 29.9474C282.545 29.5308 282.266 29.0691 282.109 28.5625L284.425 28.0014C284.529 28.2145 284.68 28.4252 284.879 28.6335C285.078 28.8466 285.346 29.0218 285.682 29.1591C286.023 29.3011 286.451 29.3722 286.967 29.3722C287.696 29.3722 288.3 29.1946 288.778 28.8395C289.257 28.4891 289.496 27.9115 289.496 27.1065V25.0398H289.368C289.235 25.3049 289.041 25.5772 288.786 25.8565C288.535 26.1359 288.201 26.3703 287.784 26.5597C287.372 26.7491 286.854 26.8438 286.229 26.8438C285.391 26.8438 284.631 26.6473 283.949 26.2543C283.272 25.8565 282.732 25.2647 282.33 24.4787C281.932 23.688 281.733 22.6984 281.733 21.5099C281.733 20.312 281.932 19.3011 282.33 18.4773C282.732 17.6487 283.274 17.0213 283.956 16.5952C284.638 16.1643 285.398 15.9489 286.236 15.9489C286.875 15.9489 287.401 16.0578 287.812 16.2756C288.229 16.4886 288.561 16.7467 288.807 17.0497C289.053 17.348 289.24 17.6297 289.368 17.8949H289.51V16.0909H292.045V27.1776C292.045 28.1103 291.823 28.8821 291.378 29.4929C290.933 30.1037 290.324 30.5606 289.553 30.8636C288.781 31.1667 287.905 31.3182 286.925 31.3182ZM286.946 24.8267C287.491 24.8267 287.955 24.6941 288.338 24.429C288.722 24.1638 289.013 23.7827 289.212 23.2855C289.411 22.7884 289.51 22.1918 289.51 21.4957C289.51 20.8092 289.411 20.2079 289.212 19.6918C289.018 19.1757 288.729 18.7756 288.345 18.4915C287.966 18.2027 287.5 18.0582 286.946 18.0582C286.373 18.0582 285.895 18.2074 285.511 18.5057C285.128 18.804 284.839 19.2135 284.645 19.7344C284.451 20.2505 284.354 20.8376 284.354 21.4957C284.354 22.1634 284.451 22.7481 284.645 23.25C284.844 23.7472 285.135 24.1354 285.518 24.4148C285.907 24.6894 286.383 24.8267 286.946 24.8267ZM299.439 27.2131C298.374 27.2131 297.45 26.9787 296.669 26.5099C295.888 26.0412 295.282 25.3854 294.851 24.5426C294.425 23.6998 294.212 22.715 294.212 21.5881C294.212 20.4612 294.425 19.474 294.851 18.6264C295.282 17.7789 295.888 17.1207 296.669 16.652C297.45 16.1832 298.374 15.9489 299.439 15.9489C300.504 15.9489 301.428 16.1832 302.209 16.652C302.99 17.1207 303.594 17.7789 304.02 18.6264C304.451 19.474 304.666 20.4612 304.666 21.5881C304.666 22.715 304.451 23.6998 304.02 24.5426C303.594 25.3854 302.99 26.0412 302.209 26.5099C301.428 26.9787 300.504 27.2131 299.439 27.2131ZM299.453 25.1534C300.031 25.1534 300.514 24.9948 300.902 24.6776C301.29 24.3556 301.579 23.9247 301.768 23.3849C301.963 22.8452 302.06 22.2438 302.06 21.581C302.06 20.9134 301.963 20.3097 301.768 19.7699C301.579 19.2254 301.29 18.7921 300.902 18.4702C300.514 18.1482 300.031 17.9872 299.453 17.9872C298.861 17.9872 298.369 18.1482 297.976 18.4702C297.588 18.7921 297.296 19.2254 297.102 19.7699C296.913 20.3097 296.818 20.9134 296.818 21.581C296.818 22.2438 296.913 22.8452 297.102 23.3849C297.296 23.9247 297.588 24.3556 297.976 24.6776C298.369 24.9948 298.861 25.1534 299.453 25.1534Z" fill="white"/>
</g>
<defs>
<filter id="filter0_d_894_4653" x="0" y="0" width="480" height="48" filterUnits="userSpaceOnUse" color-interpolation-filters="sRGB">
<feFlood flood-opacity="0" result="BackgroundImageFix"/>
<feColorMatrix in="SourceAlpha" type="matrix" values="0 0 0 0 0 0 0 0 0 0 0 0 0 0 0 0 0 0 127 0" result="hardAlpha"/>
<feOffset dy="4"/>
<feGaussianBlur stdDeviation="2"/>
<feComposite in2="hardAlpha" operator="out"/>
<feColorMatrix type="matrix" values="0 0 0 0 0 0 0 0 0 0 0 0 0 0 0 0 0 0 0.25 0"/>
<feBlend mode="normal" in2="BackgroundImageFix" result="effect1_dropShadow_894_4653"/>
<feBlend mode="normal" in="SourceGraphic" in2="effect1_dropShadow_894_4653" result="shape"/>
</filter>
</defs>
</svg>
