<svg width="48" height="48" viewBox="0 0 48 48" fill="none" xmlns="http://www.w3.org/2000/svg">
<rect width="48" height="48" rx="24" transform="matrix(-1 0 0 1 48 0)" fill="#F39200"/>
<path d="M25.527 24.1524L19.824 29.8554C19.5559 30.1235 19.4219 30.4647 19.4219 30.879C19.4219 31.2933 19.5559 31.6345 19.824 31.9026C20.0921 32.1707 20.4333 32.3047 20.8476 32.3047C21.2619 32.3047 21.6032 32.1707 21.8712 31.9026L28.5979 25.176C28.7441 25.0298 28.8477 24.8713 28.9086 24.7007C28.9695 24.5301 29 24.3473 29 24.1524C29 23.9574 28.9695 23.7746 28.9086 23.604C28.8477 23.4334 28.7441 23.275 28.5979 23.1288L21.8712 16.4021C21.6032 16.134 21.2619 16 20.8476 16C20.4333 16 20.0921 16.134 19.824 16.4021C19.5559 16.6702 19.4219 17.0114 19.4219 17.4258C19.4219 17.8401 19.5559 18.1813 19.824 18.4494L25.527 24.1524Z" fill="white"/>
</svg>
