<svg width="127" height="40" viewBox="0 0 127 40" fill="none" xmlns="http://www.w3.org/2000/svg">
<rect width="127" height="40" rx="8" fill="#FFECD1"/>
<path d="M26.5 19.5C25.8 19.5 25.2083 19.2583 24.725 18.775C24.2417 18.2917 24 17.7 24 17C24 16.3 24.2417 15.7083 24.725 15.225C25.2083 14.7417 25.8 14.5 26.5 14.5C27.2 14.5 27.7917 14.7417 28.275 15.225C28.7583 15.7083 29 16.3 29 17C29 17.7 28.7583 18.2917 28.275 18.775C27.7917 19.2583 27.2 19.5 26.5 19.5ZM31 15.5C30.3 15.5 29.7083 15.2583 29.225 14.775C28.7417 14.2917 28.5 13.7 28.5 13C28.5 12.3 28.7417 11.7083 29.225 11.225C29.7083 10.7417 30.3 10.5 31 10.5C31.7 10.5 32.2917 10.7417 32.775 11.225C33.2583 11.7083 33.5 12.3 33.5 13C33.5 13.7 33.2583 14.2917 32.775 14.775C32.2917 15.2583 31.7 15.5 31 15.5ZM37 15.5C36.3 15.5 35.7083 15.2583 35.225 14.775C34.7417 14.2917 34.5 13.7 34.5 13C34.5 12.3 34.7417 11.7083 35.225 11.225C35.7083 10.7417 36.3 10.5 37 10.5C37.7 10.5 38.2917 10.7417 38.775 11.225C39.2583 11.7083 39.5 12.3 39.5 13C39.5 13.7 39.2583 14.2917 38.775 14.775C38.2917 15.2583 37.7 15.5 37 15.5ZM41.5 19.5C40.8 19.5 40.2083 19.2583 39.725 18.775C39.2417 18.2917 39 17.7 39 17C39 16.3 39.2417 15.7083 39.725 15.225C40.2083 14.7417 40.8 14.5 41.5 14.5C42.2 14.5 42.7917 14.7417 43.275 15.225C43.7583 15.7083 44 16.3 44 17C44 17.7 43.7583 18.2917 43.275 18.775C42.7917 19.2583 42.2 19.5 41.5 19.5ZM28.65 29.5C27.9 29.5 27.2708 29.2125 26.7625 28.6375C26.2542 28.0625 26 27.3833 26 26.6C26 25.7333 26.2958 24.975 26.8875 24.325C27.4792 23.675 28.0667 23.0333 28.65 22.4C29.1333 21.8833 29.55 21.3208 29.9 20.7125C30.25 20.1042 30.6667 19.5333 31.15 19C31.5167 18.5667 31.9417 18.2083 32.425 17.925C32.9083 17.6417 33.4333 17.5 34 17.5C34.5667 17.5 35.0917 17.6333 35.575 17.9C36.0583 18.1667 36.4833 18.5167 36.85 18.95C37.3167 19.4833 37.7292 20.0583 38.0875 20.675C38.4458 21.2917 38.8667 21.8667 39.35 22.4C39.9333 23.0333 40.5208 23.675 41.1125 24.325C41.7042 24.975 42 25.7333 42 26.6C42 27.3833 41.7458 28.0625 41.2375 28.6375C40.7292 29.2125 40.1 29.5 39.35 29.5C38.45 29.5 37.5583 29.425 36.675 29.275C35.7917 29.125 34.9 29.05 34 29.05C33.1 29.05 32.2083 29.125 31.325 29.275C30.4417 29.425 29.55 29.5 28.65 29.5Z" fill="#E28C0B"/>
<path d="M61.2862 26H57.343V14.3636H61.3658C62.5211 14.3636 63.5135 14.5966 64.343 15.0625C65.1764 15.5246 65.8165 16.1894 66.2635 17.0568C66.7105 17.9242 66.9339 18.9621 66.9339 20.1705C66.9339 21.3826 66.7086 22.4242 66.2578 23.2955C65.8108 24.1667 65.165 24.8352 64.3203 25.3011C63.4794 25.767 62.468 26 61.2862 26ZM59.451 24.1761H61.1839C61.9946 24.1761 62.6707 24.0284 63.2124 23.733C63.754 23.4337 64.1612 22.9886 64.4339 22.3977C64.7067 21.803 64.843 21.0606 64.843 20.1705C64.843 19.2803 64.7067 18.5417 64.4339 17.9545C64.1612 17.3636 63.7578 16.9223 63.2237 16.6307C62.6934 16.3352 62.0343 16.1875 61.2464 16.1875H59.451V24.1761ZM72.6527 26.1705C71.8004 26.1705 71.0618 25.983 70.4368 25.608C69.8118 25.233 69.3269 24.7083 68.9822 24.0341C68.6413 23.3598 68.4709 22.572 68.4709 21.6705C68.4709 20.7689 68.6413 19.9792 68.9822 19.3011C69.3269 18.6231 69.8118 18.0966 70.4368 17.7216C71.0618 17.3466 71.8004 17.1591 72.6527 17.1591C73.505 17.1591 74.2436 17.3466 74.8686 17.7216C75.4936 18.0966 75.9766 18.6231 76.3175 19.3011C76.6622 19.9792 76.8345 20.7689 76.8345 21.6705C76.8345 22.572 76.6622 23.3598 76.3175 24.0341C75.9766 24.7083 75.4936 25.233 74.8686 25.608C74.2436 25.983 73.505 26.1705 72.6527 26.1705ZM72.6641 24.5227C73.1262 24.5227 73.5125 24.3958 73.8232 24.142C74.1338 23.8845 74.3648 23.5398 74.5163 23.108C74.6716 22.6761 74.7493 22.1951 74.7493 21.6648C74.7493 21.1307 74.6716 20.6477 74.5163 20.2159C74.3648 19.7803 74.1338 19.4337 73.8232 19.1761C73.5125 18.9186 73.1262 18.7898 72.6641 18.7898C72.1906 18.7898 71.7966 18.9186 71.4822 19.1761C71.1716 19.4337 70.9387 19.7803 70.7834 20.2159C70.6319 20.6477 70.5561 21.1307 70.5561 21.6648C70.5561 22.1951 70.6319 22.6761 70.7834 23.108C70.9387 23.5398 71.1716 23.8845 71.4822 24.142C71.7966 24.3958 72.1906 24.5227 72.6641 24.5227ZM80.6371 20.8864V26H78.5803V17.2727H80.5462V18.7557H80.6484C80.8492 18.267 81.1693 17.8788 81.6087 17.5909C82.0518 17.303 82.5992 17.1591 83.2507 17.1591C83.853 17.1591 84.3776 17.2879 84.8246 17.5455C85.2753 17.803 85.6238 18.1761 85.87 18.6648C86.12 19.1534 86.2431 19.7462 86.2393 20.4432V26H84.1825V20.7614C84.1825 20.178 84.031 19.7216 83.728 19.392C83.4287 19.0625 83.014 18.8977 82.4837 18.8977C82.1238 18.8977 81.8037 18.9773 81.5234 19.1364C81.2469 19.2917 81.0291 19.517 80.87 19.8125C80.7147 20.108 80.6371 20.4659 80.6371 20.8864ZM90.8416 26.1761C90.2886 26.1761 89.7905 26.0777 89.3473 25.8807C88.9079 25.6799 88.5594 25.3845 88.3018 24.9943C88.0481 24.6042 87.9212 24.1231 87.9212 23.5511C87.9212 23.0587 88.0121 22.6515 88.1939 22.3295C88.3757 22.0076 88.6238 21.75 88.9382 21.5568C89.2526 21.3636 89.6068 21.2178 90.0007 21.1193C90.3984 21.017 90.8094 20.9432 91.2337 20.8977C91.745 20.8447 92.1598 20.7973 92.478 20.7557C92.7962 20.7102 93.0272 20.642 93.1712 20.5511C93.3189 20.4564 93.3928 20.3106 93.3928 20.1136V20.0795C93.3928 19.6515 93.2659 19.3201 93.0121 19.0852C92.7583 18.8504 92.3928 18.733 91.9155 18.733C91.4117 18.733 91.0121 18.8428 90.7166 19.0625C90.425 19.2822 90.228 19.5417 90.1257 19.8409L88.2053 19.5682C88.3568 19.0379 88.6068 18.5947 88.9553 18.2386C89.3037 17.8788 89.7299 17.6098 90.2337 17.4318C90.7375 17.25 91.2943 17.1591 91.9041 17.1591C92.3246 17.1591 92.7431 17.2083 93.1598 17.3068C93.5765 17.4053 93.9571 17.5682 94.3018 17.7955C94.6465 18.0189 94.9231 18.3239 95.1314 18.7102C95.3435 19.0966 95.4496 19.5795 95.4496 20.1591V26H93.4723V24.8011H93.4041C93.2791 25.0436 93.103 25.2708 92.8757 25.483C92.6522 25.6913 92.37 25.8598 92.0291 25.9886C91.692 26.1136 91.2962 26.1761 90.8416 26.1761ZM91.3757 24.6648C91.7886 24.6648 92.1465 24.5833 92.4496 24.4205C92.7526 24.2538 92.9856 24.0341 93.1484 23.7614C93.3151 23.4886 93.3984 23.1913 93.3984 22.8693V21.8409C93.334 21.8939 93.2242 21.9432 93.0689 21.9886C92.9174 22.0341 92.7469 22.0739 92.5575 22.108C92.3681 22.142 92.1806 22.1723 91.995 22.1989C91.8094 22.2254 91.6484 22.2481 91.5121 22.267C91.2053 22.3087 90.9306 22.3769 90.6882 22.4716C90.4458 22.5663 90.2545 22.6989 90.1143 22.8693C89.9742 23.036 89.9041 23.2519 89.9041 23.517C89.9041 23.8958 90.0424 24.1818 90.3189 24.375C90.5954 24.5682 90.9477 24.6648 91.3757 24.6648ZM97.5178 26V17.2727H99.5121V18.7273H99.603C99.7621 18.2235 100.035 17.8352 100.421 17.5625C100.811 17.286 101.256 17.1477 101.756 17.1477C101.87 17.1477 101.997 17.1534 102.137 17.1648C102.281 17.1723 102.4 17.1856 102.495 17.2045V19.0966C102.408 19.0663 102.27 19.0398 102.08 19.017C101.895 18.9905 101.715 18.9773 101.54 18.9773C101.165 18.9773 100.828 19.0587 100.529 19.2216C100.234 19.3807 100.001 19.6023 99.8303 19.8864C99.6598 20.1705 99.5746 20.4981 99.5746 20.8693V26H97.5178Z" fill="#E28C0B"/>
</svg>
