<svg width="48" height="48" viewBox="0 0 48 48" fill="none" xmlns="http://www.w3.org/2000/svg">
<rect width="48" height="48" rx="24" fill="#F39200"/>
<path d="M22.473 24.1524L28.176 29.8554C28.4441 30.1235 28.5781 30.4647 28.5781 30.879C28.5781 31.2933 28.4441 31.6345 28.176 31.9026C27.9079 32.1707 27.5667 32.3047 27.1524 32.3047C26.7381 32.3047 26.3968 32.1707 26.1288 31.9026L19.4021 25.176C19.2559 25.0298 19.1523 24.8713 19.0914 24.7007C19.0305 24.5301 19 24.3473 19 24.1524C19 23.9574 19.0305 23.7746 19.0914 23.604C19.1523 23.4334 19.2559 23.275 19.4021 23.1288L26.1288 16.4021C26.3968 16.134 26.7381 16 27.1524 16C27.5667 16 27.9079 16.134 28.176 16.4021C28.4441 16.6702 28.5781 17.0114 28.5781 17.4258C28.5781 17.8401 28.4441 18.1813 28.176 18.4494L22.473 24.1524Z" fill="white"/>
</svg>
