<svg width="282" height="40" viewBox="0 0 282 40" fill="none" xmlns="http://www.w3.org/2000/svg">
<rect width="282" height="40" rx="8" fill="#D84E2E"/>
<path d="M118.109 26V14.3636H125.677V16.1307H120.217V19.2898H125.285V21.0568H120.217V24.233H125.722V26H118.109ZM129.793 20.8864V26H127.737V17.2727H129.702V18.7557H129.805C130.005 18.267 130.326 17.8788 130.765 17.5909C131.208 17.303 131.755 17.1591 132.407 17.1591C133.009 17.1591 133.534 17.2879 133.981 17.5455C134.432 17.803 134.78 18.1761 135.026 18.6648C135.276 19.1534 135.399 19.7462 135.396 20.4432V26H133.339V20.7614C133.339 20.178 133.187 19.7216 132.884 19.392C132.585 19.0625 132.17 18.8977 131.64 18.8977C131.28 18.8977 130.96 18.9773 130.68 19.1364C130.403 19.2917 130.185 19.517 130.026 19.8125C129.871 20.108 129.793 20.4659 129.793 20.8864ZM144.969 17.2727L141.862 26H139.589L136.481 17.2727H138.674L140.68 23.7557H140.771L142.782 17.2727H144.969ZM146.393 26V17.2727H148.45V26H146.393ZM147.427 16.0341C147.101 16.0341 146.821 15.9261 146.586 15.7102C146.351 15.4905 146.234 15.2273 146.234 14.9205C146.234 14.6098 146.351 14.3466 146.586 14.1307C146.821 13.911 147.101 13.8011 147.427 13.8011C147.756 13.8011 148.037 13.911 148.268 14.1307C148.503 14.3466 148.62 14.6098 148.62 14.9205C148.62 15.2273 148.503 15.4905 148.268 15.7102C148.037 15.9261 147.756 16.0341 147.427 16.0341ZM153.076 26.1761C152.523 26.1761 152.025 26.0777 151.582 25.8807C151.142 25.6799 150.794 25.3845 150.536 24.9943C150.282 24.6042 150.156 24.1231 150.156 23.5511C150.156 23.0587 150.246 22.6515 150.428 22.3295C150.61 22.0076 150.858 21.75 151.173 21.5568C151.487 21.3636 151.841 21.2178 152.235 21.1193C152.633 21.017 153.044 20.9432 153.468 20.8977C153.979 20.8447 154.394 20.7973 154.712 20.7557C155.031 20.7102 155.262 20.642 155.406 20.5511C155.553 20.4564 155.627 20.3106 155.627 20.1136V20.0795C155.627 19.6515 155.5 19.3201 155.246 19.0852C154.993 18.8504 154.627 18.733 154.15 18.733C153.646 18.733 153.246 18.8428 152.951 19.0625C152.659 19.2822 152.462 19.5417 152.36 19.8409L150.44 19.5682C150.591 19.0379 150.841 18.5947 151.19 18.2386C151.538 17.8788 151.964 17.6098 152.468 17.4318C152.972 17.25 153.529 17.1591 154.138 17.1591C154.559 17.1591 154.978 17.2083 155.394 17.3068C155.811 17.4053 156.192 17.5682 156.536 17.7955C156.881 18.0189 157.157 18.3239 157.366 18.7102C157.578 19.0966 157.684 19.5795 157.684 20.1591V26H155.707V24.8011H155.638C155.513 25.0436 155.337 25.2708 155.11 25.483C154.887 25.6913 154.604 25.8598 154.263 25.9886C153.926 26.1136 153.531 26.1761 153.076 26.1761ZM153.61 24.6648C154.023 24.6648 154.381 24.5833 154.684 24.4205C154.987 24.2538 155.22 24.0341 155.383 23.7614C155.549 23.4886 155.633 23.1913 155.633 22.8693V21.8409C155.568 21.8939 155.459 21.9432 155.303 21.9886C155.152 22.0341 154.981 22.0739 154.792 22.108C154.603 22.142 154.415 22.1723 154.229 22.1989C154.044 22.2254 153.883 22.2481 153.746 22.267C153.44 22.3087 153.165 22.3769 152.923 22.4716C152.68 22.5663 152.489 22.6989 152.349 22.8693C152.209 23.036 152.138 23.2519 152.138 23.517C152.138 23.8958 152.277 24.1818 152.553 24.375C152.83 24.5682 153.182 24.6648 153.61 24.6648ZM159.752 26V17.2727H161.746V18.7273H161.837C161.996 18.2235 162.269 17.8352 162.656 17.5625C163.046 17.286 163.491 17.1477 163.991 17.1477C164.104 17.1477 164.231 17.1534 164.371 17.1648C164.515 17.1723 164.635 17.1856 164.729 17.2045V19.0966C164.642 19.0663 164.504 19.0398 164.315 19.017C164.129 18.9905 163.949 18.9773 163.775 18.9773C163.4 18.9773 163.063 19.0587 162.763 19.2216C162.468 19.3807 162.235 19.6023 162.065 19.8864C161.894 20.1705 161.809 20.4981 161.809 20.8693V26H159.752Z" fill="white"/>
</svg>
