<svg width="131" height="50" viewBox="0 0 131 50" fill="none" xmlns="http://www.w3.org/2000/svg">
<rect width="131" height="50" rx="8" fill="#FFECD1"/>
<path d="M28.5 25.125C27.8 25.125 27.2083 24.8833 26.725 24.4C26.2417 23.9167 26 23.325 26 22.625C26 21.925 26.2417 21.3333 26.725 20.85C27.2083 20.3667 27.8 20.125 28.5 20.125C29.2 20.125 29.7917 20.3667 30.275 20.85C30.7583 21.3333 31 21.925 31 22.625C31 23.325 30.7583 23.9167 30.275 24.4C29.7917 24.8833 29.2 25.125 28.5 25.125ZM33 21.125C32.3 21.125 31.7083 20.8833 31.225 20.4C30.7417 19.9167 30.5 19.325 30.5 18.625C30.5 17.925 30.7417 17.3333 31.225 16.85C31.7083 16.3667 32.3 16.125 33 16.125C33.7 16.125 34.2917 16.3667 34.775 16.85C35.2583 17.3333 35.5 17.925 35.5 18.625C35.5 19.325 35.2583 19.9167 34.775 20.4C34.2917 20.8833 33.7 21.125 33 21.125ZM39 21.125C38.3 21.125 37.7083 20.8833 37.225 20.4C36.7417 19.9167 36.5 19.325 36.5 18.625C36.5 17.925 36.7417 17.3333 37.225 16.85C37.7083 16.3667 38.3 16.125 39 16.125C39.7 16.125 40.2917 16.3667 40.775 16.85C41.2583 17.3333 41.5 17.925 41.5 18.625C41.5 19.325 41.2583 19.9167 40.775 20.4C40.2917 20.8833 39.7 21.125 39 21.125ZM43.5 25.125C42.8 25.125 42.2083 24.8833 41.725 24.4C41.2417 23.9167 41 23.325 41 22.625C41 21.925 41.2417 21.3333 41.725 20.85C42.2083 20.3667 42.8 20.125 43.5 20.125C44.2 20.125 44.7917 20.3667 45.275 20.85C45.7583 21.3333 46 21.925 46 22.625C46 23.325 45.7583 23.9167 45.275 24.4C44.7917 24.8833 44.2 25.125 43.5 25.125ZM30.65 35.125C29.9 35.125 29.2708 34.8375 28.7625 34.2625C28.2542 33.6875 28 33.0083 28 32.225C28 31.3583 28.2958 30.6 28.8875 29.95C29.4792 29.3 30.0667 28.6583 30.65 28.025C31.1333 27.5083 31.55 26.9458 31.9 26.3375C32.25 25.7292 32.6667 25.1583 33.15 24.625C33.5167 24.1917 33.9417 23.8333 34.425 23.55C34.9083 23.2667 35.4333 23.125 36 23.125C36.5667 23.125 37.0917 23.2583 37.575 23.525C38.0583 23.7917 38.4833 24.1417 38.85 24.575C39.3167 25.1083 39.7292 25.6833 40.0875 26.3C40.4458 26.9167 40.8667 27.4917 41.35 28.025C41.9333 28.6583 42.5208 29.3 43.1125 29.95C43.7042 30.6 44 31.3583 44 32.225C44 33.0083 43.7458 33.6875 43.2375 34.2625C42.7292 34.8375 42.1 35.125 41.35 35.125C40.45 35.125 39.5583 35.05 38.675 34.9C37.7917 34.75 36.9 34.675 36 34.675C35.1 34.675 34.2083 34.75 33.325 34.9C32.4417 35.05 31.55 35.125 30.65 35.125Z" fill="#E28C0B"/>
<path d="M65.2862 31H61.343V19.3636H65.3658C66.5211 19.3636 67.5135 19.5966 68.343 20.0625C69.1764 20.5246 69.8165 21.1894 70.2635 22.0568C70.7105 22.9242 70.9339 23.9621 70.9339 25.1705C70.9339 26.3826 70.7086 27.4242 70.2578 28.2955C69.8108 29.1667 69.165 29.8352 68.3203 30.3011C67.4794 30.767 66.468 31 65.2862 31ZM63.451 29.1761H65.1839C65.9946 29.1761 66.6707 29.0284 67.2124 28.733C67.754 28.4337 68.1612 27.9886 68.4339 27.3977C68.7067 26.803 68.843 26.0606 68.843 25.1705C68.843 24.2803 68.7067 23.5417 68.4339 22.9545C68.1612 22.3636 67.7578 21.9223 67.2237 21.6307C66.6934 21.3352 66.0343 21.1875 65.2464 21.1875H63.451V29.1761ZM76.6527 31.1705C75.8004 31.1705 75.0618 30.983 74.4368 30.608C73.8118 30.233 73.3269 29.7083 72.9822 29.0341C72.6413 28.3598 72.4709 27.572 72.4709 26.6705C72.4709 25.7689 72.6413 24.9792 72.9822 24.3011C73.3269 23.6231 73.8118 23.0966 74.4368 22.7216C75.0618 22.3466 75.8004 22.1591 76.6527 22.1591C77.505 22.1591 78.2436 22.3466 78.8686 22.7216C79.4936 23.0966 79.9766 23.6231 80.3175 24.3011C80.6622 24.9792 80.8345 25.7689 80.8345 26.6705C80.8345 27.572 80.6622 28.3598 80.3175 29.0341C79.9766 29.7083 79.4936 30.233 78.8686 30.608C78.2436 30.983 77.505 31.1705 76.6527 31.1705ZM76.6641 29.5227C77.1262 29.5227 77.5125 29.3958 77.8232 29.142C78.1338 28.8845 78.3648 28.5398 78.5163 28.108C78.6716 27.6761 78.7493 27.1951 78.7493 26.6648C78.7493 26.1307 78.6716 25.6477 78.5163 25.2159C78.3648 24.7803 78.1338 24.4337 77.8232 24.1761C77.5125 23.9186 77.1262 23.7898 76.6641 23.7898C76.1906 23.7898 75.7966 23.9186 75.4822 24.1761C75.1716 24.4337 74.9387 24.7803 74.7834 25.2159C74.6319 25.6477 74.5561 26.1307 74.5561 26.6648C74.5561 27.1951 74.6319 27.6761 74.7834 28.108C74.9387 28.5398 75.1716 28.8845 75.4822 29.142C75.7966 29.3958 76.1906 29.5227 76.6641 29.5227ZM84.6371 25.8864V31H82.5803V22.2727H84.5462V23.7557H84.6484C84.8492 23.267 85.1693 22.8788 85.6087 22.5909C86.0518 22.303 86.5992 22.1591 87.2507 22.1591C87.853 22.1591 88.3776 22.2879 88.8246 22.5455C89.2753 22.803 89.6238 23.1761 89.87 23.6648C90.12 24.1534 90.2431 24.7462 90.2393 25.4432V31H88.1825V25.7614C88.1825 25.178 88.031 24.7216 87.728 24.392C87.4287 24.0625 87.014 23.8977 86.4837 23.8977C86.1238 23.8977 85.8037 23.9773 85.5234 24.1364C85.2469 24.2917 85.0291 24.517 84.87 24.8125C84.7147 25.108 84.6371 25.4659 84.6371 25.8864ZM94.8416 31.1761C94.2886 31.1761 93.7905 31.0777 93.3473 30.8807C92.9079 30.6799 92.5594 30.3845 92.3018 29.9943C92.0481 29.6042 91.9212 29.1231 91.9212 28.5511C91.9212 28.0587 92.0121 27.6515 92.1939 27.3295C92.3757 27.0076 92.6238 26.75 92.9382 26.5568C93.2526 26.3636 93.6068 26.2178 94.0007 26.1193C94.3984 26.017 94.8094 25.9432 95.2337 25.8977C95.745 25.8447 96.1598 25.7973 96.478 25.7557C96.7962 25.7102 97.0272 25.642 97.1712 25.5511C97.3189 25.4564 97.3928 25.3106 97.3928 25.1136V25.0795C97.3928 24.6515 97.2659 24.3201 97.0121 24.0852C96.7583 23.8504 96.3928 23.733 95.9155 23.733C95.4117 23.733 95.0121 23.8428 94.7166 24.0625C94.425 24.2822 94.228 24.5417 94.1257 24.8409L92.2053 24.5682C92.3568 24.0379 92.6068 23.5947 92.9553 23.2386C93.3037 22.8788 93.7299 22.6098 94.2337 22.4318C94.7375 22.25 95.2943 22.1591 95.9041 22.1591C96.3246 22.1591 96.7431 22.2083 97.1598 22.3068C97.5765 22.4053 97.9571 22.5682 98.3018 22.7955C98.6465 23.0189 98.9231 23.3239 99.1314 23.7102C99.3435 24.0966 99.4496 24.5795 99.4496 25.1591V31H97.4723V29.8011H97.4041C97.2791 30.0436 97.103 30.2708 96.8757 30.483C96.6522 30.6913 96.37 30.8598 96.0291 30.9886C95.692 31.1136 95.2962 31.1761 94.8416 31.1761ZM95.3757 29.6648C95.7886 29.6648 96.1465 29.5833 96.4496 29.4205C96.7526 29.2538 96.9856 29.0341 97.1484 28.7614C97.3151 28.4886 97.3984 28.1913 97.3984 27.8693V26.8409C97.334 26.8939 97.2242 26.9432 97.0689 26.9886C96.9174 27.0341 96.7469 27.0739 96.5575 27.108C96.3681 27.142 96.1806 27.1723 95.995 27.1989C95.8094 27.2254 95.6484 27.2481 95.5121 27.267C95.2053 27.3087 94.9306 27.3769 94.6882 27.4716C94.4458 27.5663 94.2545 27.6989 94.1143 27.8693C93.9742 28.036 93.9041 28.2519 93.9041 28.517C93.9041 28.8958 94.0424 29.1818 94.3189 29.375C94.5954 29.5682 94.9477 29.6648 95.3757 29.6648ZM101.518 31V22.2727H103.512V23.7273H103.603C103.762 23.2235 104.035 22.8352 104.421 22.5625C104.811 22.286 105.256 22.1477 105.756 22.1477C105.87 22.1477 105.997 22.1534 106.137 22.1648C106.281 22.1723 106.4 22.1856 106.495 22.2045V24.0966C106.408 24.0663 106.27 24.0398 106.08 24.017C105.895 23.9905 105.715 23.9773 105.54 23.9773C105.165 23.9773 104.828 24.0587 104.529 24.2216C104.234 24.3807 104.001 24.6023 103.83 24.8864C103.66 25.1705 103.575 25.4981 103.575 25.8693V31H101.518Z" fill="#E28C0B"/>
</svg>
