<svg width="158" height="28" viewBox="0 0 158 28" fill="none" xmlns="http://www.w3.org/2000/svg">
<path d="M23.4499 9.65199H18.6687C18.5323 8.8679 18.2809 8.17329 17.9144 7.56818C17.5479 6.95454 17.092 6.43466 16.5465 6.00852C16.0011 5.58239 15.3789 5.26278 14.68 5.04972C13.9897 4.82813 13.244 4.71733 12.4428 4.71733C11.0195 4.71733 9.75817 5.07528 8.65874 5.79119C7.5593 6.49858 6.69851 7.53835 6.07635 8.91051C5.45419 10.2741 5.14311 11.9403 5.14311 13.9091C5.14311 15.9119 5.45419 17.5994 6.07635 18.9716C6.70703 20.3352 7.56783 21.3665 8.65874 22.0653C9.75817 22.7557 11.0153 23.1009 12.43 23.1009C13.2141 23.1009 13.9471 22.9986 14.6289 22.794C15.3192 22.581 15.9371 22.2699 16.4826 21.8608C17.0366 21.4517 17.5011 20.9489 17.8761 20.3523C18.2596 19.7557 18.5238 19.0739 18.6687 18.3068L23.4499 18.3324C23.271 19.5767 22.8832 20.7443 22.2866 21.8352C21.6985 22.9261 20.9272 23.8892 19.9727 24.7244C19.0181 25.5511 17.9016 26.1989 16.6232 26.6676C15.3448 27.1278 13.9258 27.358 12.3661 27.358C10.065 27.358 8.01101 26.8253 6.20419 25.7599C4.39737 24.6946 2.97408 23.1562 1.9343 21.1449C0.894531 19.1335 0.374645 16.7216 0.374645 13.9091C0.374645 11.0881 0.898793 8.67614 1.94709 6.6733C2.99538 4.66193 4.42294 3.12358 6.22976 2.05824C8.03658 0.992897 10.082 0.460226 12.3661 0.460226C13.8235 0.460226 15.1786 0.664772 16.4315 1.07386C17.6843 1.48295 18.8008 2.08381 19.7809 2.87642C20.761 3.66051 21.5664 4.62358 22.1971 5.76562C22.8363 6.89915 23.2539 8.1946 23.4499 9.65199ZM36.1541 27.3835C34.2365 27.3835 32.5746 26.9616 31.1683 26.1179C29.7621 25.2741 28.6712 24.0937 27.8956 22.5767C27.1286 21.0597 26.745 19.2869 26.745 17.2585C26.745 15.2301 27.1286 13.4531 27.8956 11.9276C28.6712 10.402 29.7621 9.21733 31.1683 8.37358C32.5746 7.52983 34.2365 7.10795 36.1541 7.10795C38.0717 7.10795 39.7337 7.52983 41.1399 8.37358C42.5462 9.21733 43.6328 10.402 44.3999 11.9276C45.1754 13.4531 45.5632 15.2301 45.5632 17.2585C45.5632 19.2869 45.1754 21.0597 44.3999 22.5767C43.6328 24.0937 42.5462 25.2741 41.1399 26.1179C39.7337 26.9616 38.0717 27.3835 36.1541 27.3835ZM36.1797 23.6761C37.2195 23.6761 38.0888 23.3906 38.7876 22.8196C39.4865 22.2401 40.0064 21.4645 40.3473 20.4929C40.6967 19.5213 40.8714 18.4389 40.8714 17.2457C40.8714 16.044 40.6967 14.9574 40.3473 13.9858C40.0064 13.0057 39.4865 12.2259 38.7876 11.6463C38.0888 11.0668 37.2195 10.777 36.1797 10.777C35.1143 10.777 34.228 11.0668 33.5206 11.6463C32.8217 12.2259 32.2976 13.0057 31.9482 13.9858C31.6072 14.9574 31.4368 16.044 31.4368 17.2457C31.4368 18.4389 31.6072 19.5213 31.9482 20.4929C32.2976 21.4645 32.8217 22.2401 33.5206 22.8196C34.228 23.3906 35.1143 23.6761 36.1797 23.6761ZM54.119 15.4943V27H49.4911V7.36364H53.9144V10.7003H54.1445C54.5962 9.60085 55.3164 8.72727 56.305 8.07955C57.3022 7.43182 58.5337 7.10795 59.9996 7.10795C61.3548 7.10795 62.5352 7.39773 63.5408 7.97727C64.555 8.55682 65.3391 9.39631 65.8931 10.4957C66.4556 11.5952 66.7326 12.929 66.7241 14.4972V27H62.0962V15.2131C62.0962 13.9006 61.7553 12.8736 61.0735 12.1321C60.4002 11.3906 59.467 11.0199 58.2738 11.0199C57.4641 11.0199 56.744 11.1989 56.1133 11.5568C55.4911 11.9062 55.0011 12.4134 54.6431 13.0781C54.2937 13.7429 54.119 14.5483 54.119 15.4943ZM81.234 7.36364V10.9432H69.9457V7.36364H81.234ZM72.7326 2.65909H77.3604V21.0938C77.3604 21.7159 77.4542 22.1932 77.6417 22.5256C77.8377 22.8494 78.0934 23.071 78.4087 23.1903C78.7241 23.3097 79.0735 23.3693 79.457 23.3693C79.7468 23.3693 80.011 23.348 80.2496 23.3054C80.4968 23.2628 80.6843 23.2244 80.8121 23.1903L81.592 26.8082C81.3448 26.8935 80.9911 26.9872 80.5309 27.0895C80.0792 27.1918 79.5252 27.2514 78.869 27.2685C77.7099 27.3026 76.6658 27.1278 75.7369 26.7443C74.8079 26.3523 74.0707 25.7472 73.5252 24.929C72.9883 24.1108 72.7241 23.0881 72.7326 21.8608V2.65909ZM90.755 27.3963C89.5107 27.3963 88.3899 27.1747 87.3928 26.7315C86.4041 26.2798 85.62 25.6151 85.0405 24.7372C84.4695 23.8594 84.1839 22.777 84.1839 21.4901C84.1839 20.3821 84.3885 19.4659 84.7976 18.7415C85.2067 18.017 85.7649 17.4375 86.4723 17.0028C87.1797 16.5682 87.9766 16.2401 88.8629 16.0185C89.7578 15.7884 90.6825 15.6222 91.6371 15.5199C92.7876 15.4006 93.7209 15.294 94.4368 15.2003C95.1527 15.098 95.6726 14.9446 95.9964 14.7401C96.3288 14.527 96.495 14.1989 96.495 13.7557V13.679C96.495 12.7159 96.2095 11.9702 95.6385 11.4418C95.0675 10.9134 94.245 10.6491 93.1712 10.6491C92.0376 10.6491 91.1385 10.8963 90.4737 11.3906C89.8175 11.8849 89.3743 12.4687 89.1442 13.142L84.8232 12.5284C85.1641 11.3352 85.7266 10.3381 86.5107 9.53693C87.2947 8.72727 88.2536 8.12216 89.3871 7.72159C90.5206 7.3125 91.7734 7.10795 93.1456 7.10795C94.0916 7.10795 95.0334 7.21875 95.9709 7.44034C96.9084 7.66193 97.7649 8.02841 98.5405 8.53977C99.3161 9.04261 99.9382 9.72869 100.407 10.598C100.884 11.4673 101.123 12.554 101.123 13.858V27H96.674V24.3026H96.5206C96.2393 24.848 95.843 25.3594 95.3317 25.8366C94.8288 26.3054 94.1939 26.6847 93.4268 26.9744C92.6683 27.2557 91.7777 27.3963 90.755 27.3963ZM91.9567 23.9957C92.8857 23.9957 93.6911 23.8125 94.3729 23.446C95.0547 23.071 95.5788 22.5767 95.9453 21.9631C96.3203 21.3494 96.5078 20.6804 96.5078 19.956V17.642C96.3629 17.7614 96.1158 17.8722 95.7663 17.9744C95.4254 18.0767 95.0419 18.1662 94.6158 18.2429C94.1896 18.3196 93.7678 18.3878 93.3501 18.4474C92.9325 18.5071 92.5703 18.5582 92.2635 18.6009C91.5732 18.6946 90.9553 18.848 90.4098 19.0611C89.8643 19.2741 89.4339 19.5724 89.1186 19.956C88.8033 20.331 88.6456 20.8168 88.6456 21.4134C88.6456 22.2656 88.9567 22.9091 89.5788 23.3438C90.201 23.7784 90.9936 23.9957 91.9567 23.9957ZM114.342 27.3835C112.381 27.3835 110.698 26.9531 109.292 26.0923C107.894 25.2315 106.816 24.0426 106.058 22.5256C105.308 21 104.933 19.2443 104.933 17.2585C104.933 15.2642 105.316 13.5043 106.083 11.9787C106.85 10.4446 107.933 9.25142 109.33 8.39915C110.737 7.53835 112.398 7.10795 114.316 7.10795C115.91 7.10795 117.32 7.40199 118.548 7.99006C119.783 8.5696 120.768 9.39205 121.501 10.4574C122.234 11.5142 122.651 12.75 122.754 14.1648H118.33C118.151 13.2187 117.725 12.4304 117.052 11.7997C116.387 11.1605 115.496 10.8409 114.38 10.8409C113.434 10.8409 112.603 11.0966 111.887 11.608C111.171 12.1108 110.613 12.8352 110.212 13.7812C109.82 14.7273 109.624 15.8608 109.624 17.1818C109.624 18.5199 109.82 19.6705 110.212 20.6335C110.604 21.5881 111.154 22.3253 111.862 22.8452C112.577 23.3565 113.417 23.6122 114.38 23.6122C115.062 23.6122 115.671 23.4844 116.208 23.2287C116.754 22.9645 117.21 22.5852 117.576 22.0909C117.942 21.5966 118.194 20.9957 118.33 20.2884H122.754C122.643 21.6776 122.234 22.9091 121.526 23.983C120.819 25.0483 119.856 25.8835 118.637 26.4886C117.418 27.0852 115.987 27.3835 114.342 27.3835ZM136.359 7.36364V10.9432H125.071V7.36364H136.359ZM127.858 2.65909H132.485V21.0938C132.485 21.7159 132.579 22.1932 132.767 22.5256C132.963 22.8494 133.218 23.071 133.534 23.1903C133.849 23.3097 134.199 23.3693 134.582 23.3693C134.872 23.3693 135.136 23.348 135.375 23.3054C135.622 23.2628 135.809 23.2244 135.937 23.1903L136.717 26.8082C136.47 26.8935 136.116 26.9872 135.656 27.0895C135.204 27.1918 134.65 27.2514 133.994 27.2685C132.835 27.3026 131.791 27.1278 130.862 26.7443C129.933 26.3523 129.196 25.7472 128.65 24.929C128.113 24.1108 127.849 23.0881 127.858 21.8608V2.65909ZM148.584 27.3835C146.666 27.3835 145.004 26.9616 143.598 26.1179C142.192 25.2741 141.101 24.0937 140.325 22.5767C139.558 21.0597 139.175 19.2869 139.175 17.2585C139.175 15.2301 139.558 13.4531 140.325 11.9276C141.101 10.402 142.192 9.21733 143.598 8.37358C145.004 7.52983 146.666 7.10795 148.584 7.10795C150.501 7.10795 152.163 7.52983 153.57 8.37358C154.976 9.21733 156.063 10.402 156.83 11.9276C157.605 13.4531 157.993 15.2301 157.993 17.2585C157.993 19.2869 157.605 21.0597 156.83 22.5767C156.063 24.0937 154.976 25.2741 153.57 26.1179C152.163 26.9616 150.501 27.3835 148.584 27.3835ZM148.609 23.6761C149.649 23.6761 150.518 23.3906 151.217 22.8196C151.916 22.2401 152.436 21.4645 152.777 20.4929C153.126 19.5213 153.301 18.4389 153.301 17.2457C153.301 16.044 153.126 14.9574 152.777 13.9858C152.436 13.0057 151.916 12.2259 151.217 11.6463C150.518 11.0668 149.649 10.777 148.609 10.777C147.544 10.777 146.658 11.0668 145.95 11.6463C145.251 12.2259 144.727 13.0057 144.378 13.9858C144.037 14.9574 143.866 16.044 143.866 17.2457C143.866 18.4389 144.037 19.5213 144.378 20.4929C144.727 21.4645 145.251 22.2401 145.95 22.8196C146.658 23.3906 147.544 23.6761 148.609 23.6761Z" fill="white"/>
</svg>
