<svg width="472" height="250" viewBox="0 0 472 250" fill="none" xmlns="http://www.w3.org/2000/svg">
<path d="M1 8C1 4.13401 4.13401 1 8 1H462C466.971 1 471 5.02944 471 10V30C471 34.9706 466.971 39 462 39H9.99999C5.02943 39 1 34.9706 1 30V8Z" fill="#FFFDFB" stroke="#B9A78E" stroke-width="2"/>
<path d="M16.3714 20.8864V26H14.3146V17.2727H16.2805V18.7557H16.3828C16.5836 18.267 16.9036 17.8788 17.343 17.5909C17.7862 17.303 18.3336 17.1591 18.9851 17.1591C19.5874 17.1591 20.112 17.2879 20.5589 17.5455C21.0097 17.803 21.3582 18.1761 21.6044 18.6648C21.8544 19.1534 21.9775 19.7462 21.9737 20.4432V26H19.9169V20.7614C19.9169 20.178 19.7654 19.7216 19.4624 19.392C19.1631 19.0625 18.7483 18.8977 18.218 18.8977C17.8582 18.8977 17.5381 18.9773 17.2578 19.1364C16.9813 19.2917 16.7635 19.517 16.6044 19.8125C16.4491 20.108 16.3714 20.4659 16.3714 20.8864ZM29.6271 22.3295V17.2727H31.6839V26H29.6896V24.4489H29.5987C29.4018 24.9375 29.0779 25.3371 28.6271 25.6477C28.1802 25.9583 27.629 26.1136 26.9737 26.1136C26.4018 26.1136 25.8961 25.9867 25.4567 25.733C25.0211 25.4754 24.6802 25.1023 24.4339 24.6136C24.1877 24.1212 24.0646 23.5265 24.0646 22.8295V17.2727H26.1214V22.5114C26.1214 23.0644 26.273 23.5038 26.576 23.8295C26.879 24.1553 27.2768 24.3182 27.7692 24.3182C28.0722 24.3182 28.3658 24.2443 28.6499 24.0966C28.9339 23.9489 29.1669 23.7292 29.3487 23.4375C29.5343 23.142 29.6271 22.7727 29.6271 22.3295ZM33.799 26V17.2727H35.7649V18.7557H35.8672C36.049 18.2557 36.3501 17.8655 36.7706 17.5852C37.1911 17.3011 37.6929 17.1591 38.2763 17.1591C38.8672 17.1591 39.3653 17.303 39.7706 17.5909C40.1797 17.875 40.4676 18.2633 40.6342 18.7557H40.7251C40.9183 18.2708 41.2441 17.8845 41.7024 17.5966C42.1645 17.3049 42.7119 17.1591 43.3445 17.1591C44.1475 17.1591 44.8028 17.4129 45.3104 17.9205C45.8179 18.428 46.0717 19.1686 46.0717 20.142V26H44.0092V20.4602C44.0092 19.9186 43.8653 19.5227 43.5774 19.2727C43.2895 19.0189 42.9373 18.892 42.5206 18.892C42.0244 18.892 41.6361 19.0473 41.3558 19.358C41.0793 19.6648 40.9411 20.0644 40.9411 20.5568V26H38.924V20.375C38.924 19.9242 38.7876 19.5644 38.5149 19.2955C38.246 19.0265 37.8937 18.892 37.4581 18.892C37.1626 18.892 36.8937 18.9678 36.6513 19.1193C36.4089 19.267 36.2157 19.4773 36.0717 19.75C35.9278 20.0189 35.8558 20.3333 35.8558 20.6932V26H33.799ZM52.022 26.1705C51.147 26.1705 50.3913 25.9886 49.755 25.625C49.1224 25.2576 48.6357 24.7386 48.2947 24.0682C47.9538 23.3939 47.7834 22.6004 47.7834 21.6875C47.7834 20.7898 47.9538 20.0019 48.2947 19.3239C48.6394 18.642 49.1205 18.1117 49.7379 17.733C50.3554 17.3504 51.0807 17.1591 51.9141 17.1591C52.4519 17.1591 52.9595 17.2462 53.4368 17.4205C53.9179 17.5909 54.3421 17.8561 54.7095 18.2159C55.0807 18.5758 55.3724 19.0341 55.5845 19.5909C55.7966 20.1439 55.9027 20.803 55.9027 21.5682V22.1989H48.7493V20.8125H53.9311C53.9273 20.4186 53.8421 20.0682 53.6754 19.7614C53.5088 19.4508 53.2758 19.2064 52.9766 19.0284C52.6811 18.8504 52.3364 18.7614 51.9425 18.7614C51.522 18.7614 51.1527 18.8636 50.8345 19.0682C50.5163 19.2689 50.2682 19.5341 50.0902 19.8636C49.916 20.1894 49.8269 20.5473 49.8232 20.9375V22.1477C49.8232 22.6553 49.916 23.0909 50.1016 23.4545C50.2872 23.8144 50.5466 24.0909 50.88 24.2841C51.2133 24.4735 51.6035 24.5682 52.0504 24.5682C52.3497 24.5682 52.6205 24.5265 52.8629 24.4432C53.1054 24.3561 53.3156 24.2292 53.4936 24.0625C53.6716 23.8958 53.8061 23.6894 53.897 23.4432L55.8175 23.6591C55.6963 24.1667 55.4652 24.6098 55.1243 24.9886C54.7872 25.3636 54.3554 25.6553 53.8288 25.8636C53.3023 26.0682 52.7 26.1705 52.022 26.1705ZM57.6428 26V17.2727H59.6371V18.7273H59.728C59.8871 18.2235 60.1598 17.8352 60.5462 17.5625C60.9363 17.286 61.3814 17.1477 61.8814 17.1477C61.995 17.1477 62.1219 17.1534 62.2621 17.1648C62.406 17.1723 62.5253 17.1856 62.62 17.2045V19.0966C62.5329 19.0663 62.3946 19.0398 62.2053 19.017C62.0196 18.9905 61.8397 18.9773 61.6655 18.9773C61.2905 18.9773 60.9534 19.0587 60.6541 19.2216C60.3587 19.3807 60.1257 19.6023 59.9553 19.8864C59.7848 20.1705 59.6996 20.4981 59.6996 20.8693V26H57.6428ZM67.4339 26.1705C66.5817 26.1705 65.843 25.983 65.218 25.608C64.593 25.233 64.1082 24.7083 63.7635 24.0341C63.4226 23.3598 63.2521 22.572 63.2521 21.6705C63.2521 20.7689 63.4226 19.9792 63.7635 19.3011C64.1082 18.6231 64.593 18.0966 65.218 17.7216C65.843 17.3466 66.5817 17.1591 67.4339 17.1591C68.2862 17.1591 69.0249 17.3466 69.6499 17.7216C70.2749 18.0966 70.7578 18.6231 71.0987 19.3011C71.4434 19.9792 71.6158 20.7689 71.6158 21.6705C71.6158 22.572 71.4434 23.3598 71.0987 24.0341C70.7578 24.7083 70.2749 25.233 69.6499 25.608C69.0249 25.983 68.2862 26.1705 67.4339 26.1705ZM67.4453 24.5227C67.9074 24.5227 68.2938 24.3958 68.6044 24.142C68.915 23.8845 69.1461 23.5398 69.2976 23.108C69.4529 22.6761 69.5305 22.1951 69.5305 21.6648C69.5305 21.1307 69.4529 20.6477 69.2976 20.2159C69.1461 19.7803 68.915 19.4337 68.6044 19.1761C68.2938 18.9186 67.9074 18.7898 67.4453 18.7898C66.9718 18.7898 66.5779 18.9186 66.2635 19.1761C65.9529 19.4337 65.7199 19.7803 65.5646 20.2159C65.4131 20.6477 65.3374 21.1307 65.3374 21.6648C65.3374 22.1951 65.4131 22.6761 65.5646 23.108C65.7199 23.5398 65.9529 23.8845 66.2635 24.142C66.5779 24.3958 66.9718 24.5227 67.4453 24.5227ZM80.5689 26.1534C79.8833 26.1534 79.2696 25.9773 78.728 25.625C78.1863 25.2727 77.7583 24.7614 77.4439 24.0909C77.1295 23.4205 76.9723 22.6061 76.9723 21.6477C76.9723 20.678 77.1314 19.8598 77.4496 19.1932C77.7715 18.5227 78.2053 18.017 78.7507 17.6761C79.2962 17.3314 79.9041 17.1591 80.5746 17.1591C81.0859 17.1591 81.5064 17.2462 81.8359 17.4205C82.1655 17.5909 82.4268 17.7973 82.62 18.0398C82.8132 18.2784 82.9628 18.5038 83.0689 18.7159H83.1541V14.3636H85.2166V26H83.1939V24.625H83.0689C82.9628 24.8371 82.8094 25.0625 82.6087 25.3011C82.4079 25.536 82.1428 25.7367 81.8132 25.9034C81.4837 26.0701 81.0689 26.1534 80.5689 26.1534ZM81.1428 24.4659C81.5784 24.4659 81.9496 24.3485 82.2564 24.1136C82.5632 23.875 82.7962 23.5436 82.9553 23.1193C83.1143 22.6951 83.1939 22.2008 83.1939 21.6364C83.1939 21.072 83.1143 20.5814 82.9553 20.1648C82.8 19.7481 82.5689 19.4242 82.2621 19.1932C81.959 18.9621 81.5859 18.8466 81.1428 18.8466C80.6844 18.8466 80.3018 18.9659 79.995 19.2045C79.6882 19.4432 79.4571 19.7727 79.3018 20.1932C79.1465 20.6136 79.0689 21.0947 79.0689 21.6364C79.0689 22.1818 79.1465 22.6686 79.3018 23.0966C79.4609 23.5208 79.6939 23.8561 80.0007 24.1023C80.3113 24.3447 80.692 24.4659 81.1428 24.4659ZM91.272 26.1705C90.397 26.1705 89.6413 25.9886 89.005 25.625C88.3724 25.2576 87.8857 24.7386 87.5447 24.0682C87.2038 23.3939 87.0334 22.6004 87.0334 21.6875C87.0334 20.7898 87.2038 20.0019 87.5447 19.3239C87.8894 18.642 88.3705 18.1117 88.9879 17.733C89.6054 17.3504 90.3307 17.1591 91.1641 17.1591C91.7019 17.1591 92.2095 17.2462 92.6868 17.4205C93.1679 17.5909 93.5921 17.8561 93.9595 18.2159C94.3307 18.5758 94.6224 19.0341 94.8345 19.5909C95.0466 20.1439 95.1527 20.803 95.1527 21.5682V22.1989H87.9993V20.8125H93.1811C93.1773 20.4186 93.0921 20.0682 92.9254 19.7614C92.7588 19.4508 92.5258 19.2064 92.2266 19.0284C91.9311 18.8504 91.5864 18.7614 91.1925 18.7614C90.772 18.7614 90.4027 18.8636 90.0845 19.0682C89.7663 19.2689 89.5182 19.5341 89.3402 19.8636C89.166 20.1894 89.0769 20.5473 89.0732 20.9375V22.1477C89.0732 22.6553 89.166 23.0909 89.3516 23.4545C89.5372 23.8144 89.7966 24.0909 90.13 24.2841C90.4633 24.4735 90.8535 24.5682 91.3004 24.5682C91.5997 24.5682 91.8705 24.5265 92.1129 24.4432C92.3554 24.3561 92.5656 24.2292 92.7436 24.0625C92.9216 23.8958 93.0561 23.6894 93.147 23.4432L95.0675 23.6591C94.9463 24.1667 94.7152 24.6098 94.3743 24.9886C94.0372 25.3636 93.6054 25.6553 93.0788 25.8636C92.5523 26.0682 91.95 26.1705 91.272 26.1705ZM105.219 17.2727V18.8636H100.202V17.2727H105.219ZM101.441 15.1818H103.498V23.375C103.498 23.6515 103.54 23.8636 103.623 24.0114C103.71 24.1553 103.824 24.2538 103.964 24.3068C104.104 24.3598 104.259 24.3864 104.43 24.3864C104.558 24.3864 104.676 24.3769 104.782 24.358C104.892 24.339 104.975 24.322 105.032 24.3068L105.379 25.9148C105.269 25.9527 105.112 25.9943 104.907 26.0398C104.706 26.0852 104.46 26.1117 104.168 26.1193C103.653 26.1345 103.189 26.0568 102.776 25.8864C102.363 25.7121 102.036 25.4432 101.793 25.0795C101.555 24.7159 101.437 24.2614 101.441 23.7159V15.1818ZM109.451 26.1761C108.898 26.1761 108.4 26.0777 107.957 25.8807C107.517 25.6799 107.169 25.3845 106.911 24.9943C106.657 24.6042 106.531 24.1231 106.531 23.5511C106.531 23.0587 106.621 22.6515 106.803 22.3295C106.985 22.0076 107.233 21.75 107.548 21.5568C107.862 21.3636 108.216 21.2178 108.61 21.1193C109.008 21.017 109.419 20.9432 109.843 20.8977C110.354 20.8447 110.769 20.7973 111.087 20.7557C111.406 20.7102 111.637 20.642 111.781 20.5511C111.928 20.4564 112.002 20.3106 112.002 20.1136V20.0795C112.002 19.6515 111.875 19.3201 111.621 19.0852C111.368 18.8504 111.002 18.733 110.525 18.733C110.021 18.733 109.621 18.8428 109.326 19.0625C109.034 19.2822 108.837 19.5417 108.735 19.8409L106.815 19.5682C106.966 19.0379 107.216 18.5947 107.565 18.2386C107.913 17.8788 108.339 17.6098 108.843 17.4318C109.347 17.25 109.904 17.1591 110.513 17.1591C110.934 17.1591 111.353 17.2083 111.769 17.3068C112.186 17.4053 112.567 17.5682 112.911 17.7955C113.256 18.0189 113.532 18.3239 113.741 18.7102C113.953 19.0966 114.059 19.5795 114.059 20.1591V26H112.082V24.8011H112.013C111.888 25.0436 111.712 25.2708 111.485 25.483C111.262 25.6913 110.979 25.8598 110.638 25.9886C110.301 26.1136 109.906 26.1761 109.451 26.1761ZM109.985 24.6648C110.398 24.6648 110.756 24.5833 111.059 24.4205C111.362 24.2538 111.595 24.0341 111.758 23.7614C111.924 23.4886 112.008 23.1913 112.008 22.8693V21.8409C111.943 21.8939 111.834 21.9432 111.678 21.9886C111.527 22.0341 111.356 22.0739 111.167 22.108C110.978 22.142 110.79 22.1723 110.604 22.1989C110.419 22.2254 110.258 22.2481 110.121 22.267C109.815 22.3087 109.54 22.3769 109.298 22.4716C109.055 22.5663 108.864 22.6989 108.724 22.8693C108.584 23.036 108.513 23.2519 108.513 23.517C108.513 23.8958 108.652 24.1818 108.928 24.375C109.205 24.5682 109.557 24.6648 109.985 24.6648ZM116.127 26V17.2727H118.121V18.7273H118.212C118.371 18.2235 118.644 17.8352 119.031 17.5625C119.421 17.286 119.866 17.1477 120.366 17.1477C120.479 17.1477 120.606 17.1534 120.746 17.1648C120.89 17.1723 121.01 17.1856 121.104 17.2045V19.0966C121.017 19.0663 120.879 19.0398 120.69 19.017C120.504 18.9905 120.324 18.9773 120.15 18.9773C119.775 18.9773 119.438 19.0587 119.138 19.2216C118.843 19.3807 118.61 19.6023 118.44 19.8864C118.269 20.1705 118.184 20.4981 118.184 20.8693V26H116.127ZM122.471 17.2727H124.528V26.5C124.528 27.1288 124.408 27.6477 124.17 28.0568C123.931 28.4659 123.586 28.7708 123.136 28.9716C122.685 29.1723 122.138 29.2727 121.494 29.2727C121.418 29.2727 121.348 29.2708 121.283 29.267C121.219 29.267 121.149 29.2652 121.073 29.2614V27.5852C121.13 27.589 121.181 27.5909 121.227 27.5909C121.272 27.5947 121.319 27.5966 121.369 27.5966C121.763 27.5966 122.045 27.5 122.215 27.3068C122.386 27.1174 122.471 26.839 122.471 26.4716V17.2727ZM123.494 16.0341C123.164 16.0341 122.882 15.9261 122.647 15.7102C122.416 15.4905 122.3 15.2273 122.3 14.9205C122.3 14.6098 122.416 14.3466 122.647 14.1307C122.882 13.911 123.164 13.8011 123.494 13.8011C123.819 13.8011 124.098 13.911 124.329 14.1307C124.564 14.3466 124.681 14.6098 124.681 14.9205C124.681 15.2273 124.564 15.4905 124.329 15.7102C124.098 15.9261 123.819 16.0341 123.494 16.0341ZM130.506 26.1705C129.631 26.1705 128.876 25.9886 128.239 25.625C127.607 25.2576 127.12 24.7386 126.779 24.0682C126.438 23.3939 126.268 22.6004 126.268 21.6875C126.268 20.7898 126.438 20.0019 126.779 19.3239C127.124 18.642 127.605 18.1117 128.222 17.733C128.84 17.3504 129.565 17.1591 130.398 17.1591C130.936 17.1591 131.444 17.2462 131.921 17.4205C132.402 17.5909 132.826 17.8561 133.194 18.2159C133.565 18.5758 133.857 19.0341 134.069 19.5909C134.281 20.1439 134.387 20.803 134.387 21.5682V22.1989H127.234V20.8125H132.415C132.412 20.4186 132.326 20.0682 132.16 19.7614C131.993 19.4508 131.76 19.2064 131.461 19.0284C131.165 18.8504 130.821 18.7614 130.427 18.7614C130.006 18.7614 129.637 18.8636 129.319 19.0682C129.001 19.2689 128.753 19.5341 128.575 19.8636C128.4 20.1894 128.311 20.5473 128.308 20.9375V22.1477C128.308 22.6553 128.4 23.0909 128.586 23.4545C128.772 23.8144 129.031 24.0909 129.364 24.2841C129.698 24.4735 130.088 24.5682 130.535 24.5682C130.834 24.5682 131.105 24.5265 131.347 24.4432C131.59 24.3561 131.8 24.2292 131.978 24.0625C132.156 23.8958 132.29 23.6894 132.381 23.4432L134.302 23.6591C134.181 24.1667 133.95 24.6098 133.609 24.9886C133.272 25.3636 132.84 25.6553 132.313 25.8636C131.787 26.0682 131.184 26.1705 130.506 26.1705ZM140.485 17.2727V18.8636H135.468V17.2727H140.485ZM136.707 15.1818H138.763V23.375C138.763 23.6515 138.805 23.8636 138.888 24.0114C138.976 24.1553 139.089 24.2538 139.229 24.3068C139.37 24.3598 139.525 24.3864 139.695 24.3864C139.824 24.3864 139.942 24.3769 140.048 24.358C140.157 24.339 140.241 24.322 140.298 24.3068L140.644 25.9148C140.534 25.9527 140.377 25.9943 140.173 26.0398C139.972 26.0852 139.726 26.1117 139.434 26.1193C138.919 26.1345 138.455 26.0568 138.042 25.8864C137.629 25.7121 137.301 25.4432 137.059 25.0795C136.82 24.7159 136.703 24.2614 136.707 23.7159V15.1818ZM144.717 26.1761C144.164 26.1761 143.665 26.0777 143.222 25.8807C142.783 25.6799 142.434 25.3845 142.177 24.9943C141.923 24.6042 141.796 24.1231 141.796 23.5511C141.796 23.0587 141.887 22.6515 142.069 22.3295C142.251 22.0076 142.499 21.75 142.813 21.5568C143.128 21.3636 143.482 21.2178 143.876 21.1193C144.273 21.017 144.684 20.9432 145.109 20.8977C145.62 20.8447 146.035 20.7973 146.353 20.7557C146.671 20.7102 146.902 20.642 147.046 20.5511C147.194 20.4564 147.268 20.3106 147.268 20.1136V20.0795C147.268 19.6515 147.141 19.3201 146.887 19.0852C146.633 18.8504 146.268 18.733 145.79 18.733C145.287 18.733 144.887 18.8428 144.592 19.0625C144.3 19.2822 144.103 19.5417 144.001 19.8409L142.08 19.5682C142.232 19.0379 142.482 18.5947 142.83 18.2386C143.179 17.8788 143.605 17.6098 144.109 17.4318C144.612 17.25 145.169 17.1591 145.779 17.1591C146.2 17.1591 146.618 17.2083 147.035 17.3068C147.451 17.4053 147.832 17.5682 148.177 17.7955C148.522 18.0189 148.798 18.3239 149.006 18.7102C149.219 19.0966 149.325 19.5795 149.325 20.1591V26H147.347V24.8011H147.279C147.154 25.0436 146.978 25.2708 146.751 25.483C146.527 25.6913 146.245 25.8598 145.904 25.9886C145.567 26.1136 145.171 26.1761 144.717 26.1761ZM145.251 24.6648C145.664 24.6648 146.022 24.5833 146.325 24.4205C146.628 24.2538 146.861 24.0341 147.023 23.7614C147.19 23.4886 147.273 23.1913 147.273 22.8693V21.8409C147.209 21.8939 147.099 21.9432 146.944 21.9886C146.792 22.0341 146.622 22.0739 146.433 22.108C146.243 22.142 146.056 22.1723 145.87 22.1989C145.684 22.2254 145.523 22.2481 145.387 22.267C145.08 22.3087 144.806 22.3769 144.563 22.4716C144.321 22.5663 144.129 22.6989 143.989 22.8693C143.849 23.036 143.779 23.2519 143.779 23.517C143.779 23.8958 143.917 24.1818 144.194 24.375C144.47 24.5682 144.823 24.6648 145.251 24.6648Z" fill="#4B4B4B"/>
<path d="M1 128C1 124.134 4.13401 121 8 121H218C222.971 121 227 125.029 227 130V150C227 154.971 222.971 159 218 159H10C5.02944 159 1 154.971 1 150V128Z" fill="#FFFDFB" stroke="#B9A78E" stroke-width="2"/>
<path d="M18.8217 134.364L21.8501 143.523H21.9695L24.9922 134.364H27.3104L23.2081 146H20.6058L16.5092 134.364H18.8217ZM31.6783 146.17C30.8033 146.17 30.0476 145.989 29.4112 145.625C28.7786 145.258 28.2919 144.739 27.951 144.068C27.6101 143.394 27.4396 142.6 27.4396 141.688C27.4396 140.79 27.6101 140.002 27.951 139.324C28.2957 138.642 28.7768 138.112 29.3942 137.733C30.0116 137.35 30.737 137.159 31.5703 137.159C32.1082 137.159 32.6158 137.246 33.093 137.42C33.5741 137.591 33.9983 137.856 34.3658 138.216C34.737 138.576 35.0286 139.034 35.2408 139.591C35.4529 140.144 35.5589 140.803 35.5589 141.568V142.199H28.4055V140.812H33.5874C33.5836 140.419 33.4983 140.068 33.3317 139.761C33.165 139.451 32.9321 139.206 32.6328 139.028C32.3374 138.85 31.9927 138.761 31.5987 138.761C31.1783 138.761 30.8089 138.864 30.4908 139.068C30.1726 139.269 29.9245 139.534 29.7464 139.864C29.5722 140.189 29.4832 140.547 29.4794 140.938V142.148C29.4794 142.655 29.5722 143.091 29.7578 143.455C29.9434 143.814 30.2029 144.091 30.5362 144.284C30.8696 144.473 31.2597 144.568 31.7067 144.568C32.0059 144.568 32.2768 144.527 32.5192 144.443C32.7616 144.356 32.9718 144.229 33.1499 144.062C33.3279 143.896 33.4624 143.689 33.5533 143.443L35.4737 143.659C35.3525 144.167 35.1214 144.61 34.7805 144.989C34.4434 145.364 34.0116 145.655 33.4851 145.864C32.9586 146.068 32.3563 146.17 31.6783 146.17ZM39.3558 140.886V146H37.299V137.273H39.2649V138.756H39.3672C39.5679 138.267 39.888 137.879 40.3274 137.591C40.7706 137.303 41.3179 137.159 41.9695 137.159C42.5717 137.159 43.0964 137.288 43.5433 137.545C43.9941 137.803 44.3426 138.176 44.5888 138.665C44.8388 139.153 44.9619 139.746 44.9581 140.443V146H42.9013V140.761C42.9013 140.178 42.7498 139.722 42.4467 139.392C42.1475 139.062 41.7327 138.898 41.2024 138.898C40.8426 138.898 40.5225 138.977 40.2422 139.136C39.9657 139.292 39.7479 139.517 39.5888 139.812C39.4335 140.108 39.3558 140.466 39.3558 140.886ZM50.8558 146.17C49.9846 146.17 49.2365 145.979 48.6115 145.597C47.9903 145.214 47.5111 144.686 47.174 144.011C46.8407 143.333 46.674 142.553 46.674 141.67C46.674 140.784 46.8445 140.002 47.1854 139.324C47.5263 138.642 48.0073 138.112 48.6286 137.733C49.2536 137.35 49.9922 137.159 50.8445 137.159C51.5528 137.159 52.1797 137.29 52.7251 137.551C53.2744 137.809 53.7119 138.174 54.0376 138.648C54.3634 139.117 54.549 139.667 54.5945 140.295H52.6286C52.549 139.875 52.3596 139.525 52.0604 139.244C51.7649 138.96 51.3691 138.818 50.8729 138.818C50.4524 138.818 50.0831 138.932 49.7649 139.159C49.4467 139.383 49.1986 139.705 49.0206 140.125C48.8464 140.545 48.7592 141.049 48.7592 141.636C48.7592 142.231 48.8464 142.742 49.0206 143.17C49.1948 143.595 49.4392 143.922 49.7536 144.153C50.0717 144.381 50.4448 144.494 50.8729 144.494C51.1759 144.494 51.4467 144.437 51.6854 144.324C51.9278 144.206 52.1304 144.038 52.2933 143.818C52.4562 143.598 52.5679 143.331 52.6286 143.017H54.5945C54.5452 143.634 54.3634 144.182 54.049 144.659C53.7346 145.133 53.3066 145.504 52.7649 145.773C52.2232 146.038 51.5869 146.17 50.8558 146.17ZM56.2834 146V137.273H58.3402V146H56.2834ZM57.3175 136.034C56.9917 136.034 56.7114 135.926 56.4766 135.71C56.2417 135.491 56.1243 135.227 56.1243 134.92C56.1243 134.61 56.2417 134.347 56.4766 134.131C56.7114 133.911 56.9917 133.801 57.3175 133.801C57.647 133.801 57.9273 133.911 58.1584 134.131C58.3932 134.347 58.5107 134.61 58.5107 134.92C58.5107 135.227 58.3932 135.491 58.1584 135.71C57.9273 135.926 57.647 136.034 57.3175 136.034ZM60.4553 146V137.273H62.4212V138.756H62.5234C62.7053 138.256 63.0064 137.866 63.4268 137.585C63.8473 137.301 64.3492 137.159 64.9325 137.159C65.5234 137.159 66.0215 137.303 66.4268 137.591C66.8359 137.875 67.1238 138.263 67.2905 138.756H67.3814C67.5746 138.271 67.9003 137.884 68.3587 137.597C68.8208 137.305 69.3681 137.159 70.0007 137.159C70.8037 137.159 71.459 137.413 71.9666 137.92C72.4742 138.428 72.728 139.169 72.728 140.142V146H70.6655V140.46C70.6655 139.919 70.5215 139.523 70.2337 139.273C69.9458 139.019 69.5935 138.892 69.1768 138.892C68.6806 138.892 68.2924 139.047 68.0121 139.358C67.7356 139.665 67.5973 140.064 67.5973 140.557V146H65.5803V140.375C65.5803 139.924 65.4439 139.564 65.1712 139.295C64.9022 139.027 64.55 138.892 64.1143 138.892C63.8189 138.892 63.55 138.968 63.3075 139.119C63.0651 139.267 62.8719 139.477 62.728 139.75C62.584 140.019 62.5121 140.333 62.5121 140.693V146H60.4553ZM74.8146 146V137.273H76.8714V146H74.8146ZM75.8487 136.034C75.523 136.034 75.2427 135.926 75.0078 135.71C74.773 135.491 74.6555 135.227 74.6555 134.92C74.6555 134.61 74.773 134.347 75.0078 134.131C75.2427 133.911 75.523 133.801 75.8487 133.801C76.1783 133.801 76.4586 133.911 76.6896 134.131C76.9245 134.347 77.0419 134.61 77.0419 134.92C77.0419 135.227 76.9245 135.491 76.6896 135.71C76.4586 135.926 76.1783 136.034 75.8487 136.034ZM82.8501 146.17C81.9751 146.17 81.2195 145.989 80.5831 145.625C79.9505 145.258 79.4638 144.739 79.1229 144.068C78.782 143.394 78.6115 142.6 78.6115 141.688C78.6115 140.79 78.782 140.002 79.1229 139.324C79.4676 138.642 79.9486 138.112 80.5661 137.733C81.1835 137.35 81.9089 137.159 82.7422 137.159C83.2801 137.159 83.7876 137.246 84.2649 137.42C84.746 137.591 85.1702 137.856 85.5376 138.216C85.9089 138.576 86.2005 139.034 86.4126 139.591C86.6248 140.144 86.7308 140.803 86.7308 141.568V142.199H79.5774V140.812H84.7592C84.7554 140.419 84.6702 140.068 84.5036 139.761C84.3369 139.451 84.1039 139.206 83.8047 139.028C83.5092 138.85 83.1645 138.761 82.7706 138.761C82.3501 138.761 81.9808 138.864 81.6626 139.068C81.3445 139.269 81.0964 139.534 80.9183 139.864C80.7441 140.189 80.6551 140.547 80.6513 140.938V142.148C80.6513 142.655 80.7441 143.091 80.9297 143.455C81.1153 143.814 81.3748 144.091 81.7081 144.284C82.0414 144.473 82.4316 144.568 82.8786 144.568C83.1778 144.568 83.4486 144.527 83.6911 144.443C83.9335 144.356 84.1437 144.229 84.3217 144.062C84.4998 143.896 84.6342 143.689 84.7251 143.443L86.6456 143.659C86.5244 144.167 86.2933 144.61 85.9524 144.989C85.6153 145.364 85.1835 145.655 84.657 145.864C84.1304 146.068 83.5282 146.17 82.8501 146.17ZM90.5277 140.886V146H88.4709V137.273H90.4368V138.756H90.5391C90.7398 138.267 91.0599 137.879 91.4993 137.591C91.9425 137.303 92.4898 137.159 93.1413 137.159C93.7436 137.159 94.2682 137.288 94.7152 137.545C95.166 137.803 95.5144 138.176 95.7607 138.665C96.0107 139.153 96.1338 139.746 96.13 140.443V146H94.0732V140.761C94.0732 140.178 93.9216 139.722 93.6186 139.392C93.3194 139.062 92.9046 138.898 92.3743 138.898C92.0144 138.898 91.6944 138.977 91.4141 139.136C91.1375 139.292 90.9197 139.517 90.7607 139.812C90.6054 140.108 90.5277 140.466 90.5277 140.886ZM102.579 137.273V138.864H97.5618V137.273H102.579ZM98.8004 135.182H100.857V143.375C100.857 143.652 100.899 143.864 100.982 144.011C101.069 144.155 101.183 144.254 101.323 144.307C101.463 144.36 101.619 144.386 101.789 144.386C101.918 144.386 102.035 144.377 102.141 144.358C102.251 144.339 102.335 144.322 102.391 144.307L102.738 145.915C102.628 145.953 102.471 145.994 102.266 146.04C102.066 146.085 101.819 146.112 101.528 146.119C101.013 146.134 100.549 146.057 100.136 145.886C99.7228 145.712 99.3951 145.443 99.1527 145.08C98.9141 144.716 98.7966 144.261 98.8004 143.716V135.182ZM108.012 146.17C107.16 146.17 106.421 145.983 105.796 145.608C105.171 145.233 104.686 144.708 104.342 144.034C104.001 143.36 103.83 142.572 103.83 141.67C103.83 140.769 104.001 139.979 104.342 139.301C104.686 138.623 105.171 138.097 105.796 137.722C106.421 137.347 107.16 137.159 108.012 137.159C108.864 137.159 109.603 137.347 110.228 137.722C110.853 138.097 111.336 138.623 111.677 139.301C112.022 139.979 112.194 140.769 112.194 141.67C112.194 142.572 112.022 143.36 111.677 144.034C111.336 144.708 110.853 145.233 110.228 145.608C109.603 145.983 108.864 146.17 108.012 146.17ZM108.023 144.523C108.486 144.523 108.872 144.396 109.183 144.142C109.493 143.884 109.724 143.54 109.876 143.108C110.031 142.676 110.109 142.195 110.109 141.665C110.109 141.131 110.031 140.648 109.876 140.216C109.724 139.78 109.493 139.434 109.183 139.176C108.872 138.919 108.486 138.79 108.023 138.79C107.55 138.79 107.156 138.919 106.842 139.176C106.531 139.434 106.298 139.78 106.143 140.216C105.991 140.648 105.915 141.131 105.915 141.665C105.915 142.195 105.991 142.676 106.143 143.108C106.298 143.54 106.531 143.884 106.842 144.142C107.156 144.396 107.55 144.523 108.023 144.523Z" fill="#4B4B4B"/>
<path d="M366 128C366 124.134 369.134 121 373 121H462C466.971 121 471 125.029 471 130V150C471 154.971 466.971 159 462 159H375C370.029 159 366 154.971 366 150V128Z" fill="#FFFDFB" stroke="#B9A78E" stroke-width="2"/>
<path d="M386.028 146.17C385.156 146.17 384.408 145.979 383.783 145.597C383.162 145.214 382.683 144.686 382.346 144.011C382.013 143.333 381.846 142.553 381.846 141.67C381.846 140.784 382.016 140.002 382.357 139.324C382.698 138.642 383.179 138.112 383.8 137.733C384.425 137.35 385.164 137.159 386.016 137.159C386.725 137.159 387.352 137.29 387.897 137.551C388.446 137.809 388.884 138.174 389.21 138.648C389.535 139.117 389.721 139.667 389.766 140.295H387.8C387.721 139.875 387.531 139.525 387.232 139.244C386.937 138.96 386.541 138.818 386.045 138.818C385.624 138.818 385.255 138.932 384.937 139.159C384.619 139.383 384.371 139.705 384.192 140.125C384.018 140.545 383.931 141.049 383.931 141.636C383.931 142.231 384.018 142.742 384.192 143.17C384.367 143.595 384.611 143.922 384.925 144.153C385.244 144.381 385.617 144.494 386.045 144.494C386.348 144.494 386.619 144.437 386.857 144.324C387.1 144.206 387.302 144.038 387.465 143.818C387.628 143.598 387.74 143.331 387.8 143.017H389.766C389.717 143.634 389.535 144.182 389.221 144.659C388.906 145.133 388.478 145.504 387.937 145.773C387.395 146.038 386.759 146.17 386.028 146.17ZM399.251 137.273L396.143 146H393.87L390.762 137.273H392.955L394.961 143.756H395.052L397.063 137.273H399.251ZM408.469 137.273L405.362 146H403.089L399.981 137.273H402.174L404.18 143.756H404.271L406.282 137.273H408.469Z" fill="#4B4B4B"/>
<path d="M89.3963 236.08C89.3016 235.773 89.1709 235.498 89.0043 235.256C88.8414 235.009 88.6444 234.799 88.4134 234.625C88.1861 234.451 87.9247 234.32 87.6293 234.233C87.3338 234.142 87.0118 234.097 86.6634 234.097C86.0384 234.097 85.4815 234.254 84.9929 234.568C84.5043 234.883 84.1198 235.345 83.8395 235.955C83.563 236.561 83.4247 237.299 83.4247 238.17C83.4247 239.049 83.563 239.794 83.8395 240.403C84.116 241.013 84.5005 241.477 84.9929 241.795C85.4853 242.11 86.0573 242.267 86.7088 242.267C87.2997 242.267 87.8111 242.153 88.2429 241.926C88.6785 241.699 89.0137 241.377 89.2486 240.96C89.4834 240.54 89.6009 240.047 89.6009 239.483L90.0781 239.557H86.919V237.909H91.6406V239.307C91.6406 240.303 91.4285 241.165 91.0043 241.892C90.58 242.619 89.9967 243.18 89.2543 243.574C88.5118 243.964 87.6596 244.159 86.6974 244.159C85.6255 244.159 84.6842 243.919 83.8736 243.438C83.0668 242.953 82.4361 242.265 81.9815 241.375C81.5308 240.481 81.3054 239.42 81.3054 238.193C81.3054 237.254 81.438 236.415 81.7031 235.676C81.9721 234.938 82.3471 234.311 82.8281 233.795C83.3092 233.277 83.8736 232.883 84.5213 232.614C85.169 232.341 85.8736 232.205 86.6349 232.205C87.2789 232.205 87.8793 232.299 88.4361 232.489C88.9929 232.674 89.4872 232.939 89.919 233.284C90.3546 233.629 90.7126 234.038 90.9929 234.511C91.2732 234.985 91.4569 235.508 91.544 236.08H89.3963ZM99.1506 240.33V235.273H101.207V244H99.2131V242.449H99.1222C98.9252 242.937 98.6013 243.337 98.1506 243.648C97.7036 243.958 97.1525 244.114 96.4972 244.114C95.9252 244.114 95.4195 243.987 94.9801 243.733C94.5445 243.475 94.2036 243.102 93.9574 242.614C93.7112 242.121 93.5881 241.527 93.5881 240.83V235.273H95.6449V240.511C95.6449 241.064 95.7964 241.504 96.0994 241.83C96.4025 242.155 96.8002 242.318 97.2926 242.318C97.5956 242.318 97.8892 242.244 98.1733 242.097C98.4574 241.949 98.6903 241.729 98.8722 241.438C99.0578 241.142 99.1506 240.773 99.1506 240.33ZM105.834 244.176C105.281 244.176 104.783 244.078 104.339 243.881C103.9 243.68 103.552 243.384 103.294 242.994C103.04 242.604 102.913 242.123 102.913 241.551C102.913 241.059 103.004 240.652 103.186 240.33C103.368 240.008 103.616 239.75 103.93 239.557C104.245 239.364 104.599 239.218 104.993 239.119C105.391 239.017 105.802 238.943 106.226 238.898C106.737 238.845 107.152 238.797 107.47 238.756C107.788 238.71 108.019 238.642 108.163 238.551C108.311 238.456 108.385 238.311 108.385 238.114V238.08C108.385 237.652 108.258 237.32 108.004 237.085C107.75 236.85 107.385 236.733 106.908 236.733C106.404 236.733 106.004 236.843 105.709 237.062C105.417 237.282 105.22 237.542 105.118 237.841L103.197 237.568C103.349 237.038 103.599 236.595 103.947 236.239C104.296 235.879 104.722 235.61 105.226 235.432C105.73 235.25 106.286 235.159 106.896 235.159C107.317 235.159 107.735 235.208 108.152 235.307C108.569 235.405 108.949 235.568 109.294 235.795C109.639 236.019 109.915 236.324 110.124 236.71C110.336 237.097 110.442 237.58 110.442 238.159V244H108.464V242.801H108.396C108.271 243.044 108.095 243.271 107.868 243.483C107.644 243.691 107.362 243.86 107.021 243.989C106.684 244.114 106.288 244.176 105.834 244.176ZM106.368 242.665C106.781 242.665 107.139 242.583 107.442 242.42C107.745 242.254 107.978 242.034 108.141 241.761C108.307 241.489 108.391 241.191 108.391 240.869V239.841C108.326 239.894 108.216 239.943 108.061 239.989C107.91 240.034 107.739 240.074 107.55 240.108C107.36 240.142 107.173 240.172 106.987 240.199C106.802 240.225 106.641 240.248 106.504 240.267C106.197 240.309 105.923 240.377 105.68 240.472C105.438 240.566 105.247 240.699 105.107 240.869C104.966 241.036 104.896 241.252 104.896 241.517C104.896 241.896 105.035 242.182 105.311 242.375C105.588 242.568 105.94 242.665 106.368 242.665ZM112.51 244V235.273H114.504V236.727H114.595C114.754 236.223 115.027 235.835 115.413 235.562C115.804 235.286 116.249 235.148 116.749 235.148C116.862 235.148 116.989 235.153 117.129 235.165C117.273 235.172 117.393 235.186 117.487 235.205V237.097C117.4 237.066 117.262 237.04 117.072 237.017C116.887 236.991 116.707 236.977 116.533 236.977C116.158 236.977 115.821 237.059 115.521 237.222C115.226 237.381 114.993 237.602 114.822 237.886C114.652 238.17 114.567 238.498 114.567 238.869V244H112.51ZM121.733 244.153C121.047 244.153 120.434 243.977 119.892 243.625C119.35 243.273 118.922 242.761 118.608 242.091C118.294 241.42 118.136 240.606 118.136 239.648C118.136 238.678 118.295 237.86 118.614 237.193C118.936 236.523 119.369 236.017 119.915 235.676C120.46 235.331 121.068 235.159 121.739 235.159C122.25 235.159 122.67 235.246 123 235.42C123.33 235.591 123.591 235.797 123.784 236.04C123.977 236.278 124.127 236.504 124.233 236.716H124.318V232.364H126.381V244H124.358V242.625H124.233C124.127 242.837 123.973 243.062 123.773 243.301C123.572 243.536 123.307 243.737 122.977 243.903C122.648 244.07 122.233 244.153 121.733 244.153ZM122.307 242.466C122.742 242.466 123.114 242.348 123.42 242.114C123.727 241.875 123.96 241.544 124.119 241.119C124.278 240.695 124.358 240.201 124.358 239.636C124.358 239.072 124.278 238.581 124.119 238.165C123.964 237.748 123.733 237.424 123.426 237.193C123.123 236.962 122.75 236.847 122.307 236.847C121.848 236.847 121.466 236.966 121.159 237.205C120.852 237.443 120.621 237.773 120.466 238.193C120.311 238.614 120.233 239.095 120.233 239.636C120.233 240.182 120.311 240.669 120.466 241.097C120.625 241.521 120.858 241.856 121.165 242.102C121.475 242.345 121.856 242.466 122.307 242.466ZM131.084 244.176C130.531 244.176 130.033 244.078 129.589 243.881C129.15 243.68 128.802 243.384 128.544 242.994C128.29 242.604 128.163 242.123 128.163 241.551C128.163 241.059 128.254 240.652 128.436 240.33C128.618 240.008 128.866 239.75 129.18 239.557C129.495 239.364 129.849 239.218 130.243 239.119C130.641 239.017 131.052 238.943 131.476 238.898C131.987 238.845 132.402 238.797 132.72 238.756C133.038 238.71 133.269 238.642 133.413 238.551C133.561 238.456 133.635 238.311 133.635 238.114V238.08C133.635 237.652 133.508 237.32 133.254 237.085C133 236.85 132.635 236.733 132.158 236.733C131.654 236.733 131.254 236.843 130.959 237.062C130.667 237.282 130.47 237.542 130.368 237.841L128.447 237.568C128.599 237.038 128.849 236.595 129.197 236.239C129.546 235.879 129.972 235.61 130.476 235.432C130.98 235.25 131.536 235.159 132.146 235.159C132.567 235.159 132.985 235.208 133.402 235.307C133.819 235.405 134.199 235.568 134.544 235.795C134.889 236.019 135.165 236.324 135.374 236.71C135.586 237.097 135.692 237.58 135.692 238.159V244H133.714V242.801H133.646C133.521 243.044 133.345 243.271 133.118 243.483C132.894 243.691 132.612 243.86 132.271 243.989C131.934 244.114 131.538 244.176 131.084 244.176ZM131.618 242.665C132.031 242.665 132.389 242.583 132.692 242.42C132.995 242.254 133.228 242.034 133.391 241.761C133.557 241.489 133.641 241.191 133.641 240.869V239.841C133.576 239.894 133.466 239.943 133.311 239.989C133.16 240.034 132.989 240.074 132.8 240.108C132.61 240.142 132.423 240.172 132.237 240.199C132.052 240.225 131.891 240.248 131.754 240.267C131.447 240.309 131.173 240.377 130.93 240.472C130.688 240.566 130.497 240.699 130.357 240.869C130.216 241.036 130.146 241.252 130.146 241.517C130.146 241.896 130.285 242.182 130.561 242.375C130.838 242.568 131.19 242.665 131.618 242.665ZM137.76 244V235.273H139.754V236.727H139.845C140.004 236.223 140.277 235.835 140.663 235.562C141.054 235.286 141.499 235.148 141.999 235.148C142.112 235.148 142.239 235.153 142.379 235.165C142.523 235.172 142.643 235.186 142.737 235.205V237.097C142.65 237.066 142.512 237.04 142.322 237.017C142.137 236.991 141.957 236.977 141.783 236.977C141.408 236.977 141.071 237.059 140.771 237.222C140.476 237.381 140.243 237.602 140.072 237.886C139.902 238.17 139.817 238.498 139.817 238.869V244H137.76ZM152.43 235.273V236.864H147.413V235.273H152.43ZM148.652 233.182H150.709V241.375C150.709 241.652 150.75 241.864 150.834 242.011C150.921 242.155 151.035 242.254 151.175 242.307C151.315 242.36 151.47 242.386 151.641 242.386C151.769 242.386 151.887 242.377 151.993 242.358C152.103 242.339 152.186 242.322 152.243 242.307L152.589 243.915C152.48 243.953 152.322 243.994 152.118 244.04C151.917 244.085 151.671 244.112 151.379 244.119C150.864 244.134 150.4 244.057 149.987 243.886C149.574 243.712 149.247 243.443 149.004 243.08C148.766 242.716 148.648 242.261 148.652 241.716V233.182ZM156.662 244.176C156.109 244.176 155.611 244.078 155.168 243.881C154.728 243.68 154.38 243.384 154.122 242.994C153.868 242.604 153.741 242.123 153.741 241.551C153.741 241.059 153.832 240.652 154.014 240.33C154.196 240.008 154.444 239.75 154.759 239.557C155.073 239.364 155.427 239.218 155.821 239.119C156.219 239.017 156.63 238.943 157.054 238.898C157.565 238.845 157.98 238.797 158.298 238.756C158.616 238.71 158.848 238.642 158.991 238.551C159.139 238.456 159.213 238.311 159.213 238.114V238.08C159.213 237.652 159.086 237.32 158.832 237.085C158.579 236.85 158.213 236.733 157.736 236.733C157.232 236.733 156.832 236.843 156.537 237.062C156.245 237.282 156.048 237.542 155.946 237.841L154.026 237.568C154.177 237.038 154.427 236.595 154.776 236.239C155.124 235.879 155.55 235.61 156.054 235.432C156.558 235.25 157.115 235.159 157.724 235.159C158.145 235.159 158.563 235.208 158.98 235.307C159.397 235.405 159.777 235.568 160.122 235.795C160.467 236.019 160.743 236.324 160.952 236.71C161.164 237.097 161.27 237.58 161.27 238.159V244H159.293V242.801H159.224C159.099 243.044 158.923 243.271 158.696 243.483C158.473 243.691 158.19 243.86 157.849 243.989C157.512 244.114 157.116 244.176 156.662 244.176ZM157.196 242.665C157.609 242.665 157.967 242.583 158.27 242.42C158.573 242.254 158.806 242.034 158.969 241.761C159.135 241.489 159.219 241.191 159.219 240.869V239.841C159.154 239.894 159.045 239.943 158.889 239.989C158.738 240.034 158.567 240.074 158.378 240.108C158.188 240.142 158.001 240.172 157.815 240.199C157.63 240.225 157.469 240.248 157.332 240.267C157.026 240.309 156.751 240.377 156.509 240.472C156.266 240.566 156.075 240.699 155.935 240.869C155.795 241.036 155.724 241.252 155.724 241.517C155.724 241.896 155.863 242.182 156.139 242.375C156.416 242.568 156.768 242.665 157.196 242.665ZM163.338 244V235.273H165.332V236.727H165.423C165.582 236.223 165.855 235.835 166.241 235.562C166.632 235.286 167.077 235.148 167.577 235.148C167.69 235.148 167.817 235.153 167.957 235.165C168.101 235.172 168.221 235.186 168.315 235.205V237.097C168.228 237.066 168.09 237.04 167.901 237.017C167.715 236.991 167.535 236.977 167.361 236.977C166.986 236.977 166.649 237.059 166.349 237.222C166.054 237.381 165.821 237.602 165.651 237.886C165.48 238.17 165.395 238.498 165.395 238.869V244H163.338ZM169.682 235.273H171.739V244.5C171.739 245.129 171.619 245.648 171.381 246.057C171.142 246.466 170.797 246.771 170.347 246.972C169.896 247.172 169.348 247.273 168.705 247.273C168.629 247.273 168.559 247.271 168.494 247.267C168.43 247.267 168.36 247.265 168.284 247.261V245.585C168.341 245.589 168.392 245.591 168.438 245.591C168.483 245.595 168.53 245.597 168.58 245.597C168.973 245.597 169.256 245.5 169.426 245.307C169.597 245.117 169.682 244.839 169.682 244.472V235.273ZM170.705 234.034C170.375 234.034 170.093 233.926 169.858 233.71C169.627 233.491 169.511 233.227 169.511 232.92C169.511 232.61 169.627 232.347 169.858 232.131C170.093 231.911 170.375 231.801 170.705 231.801C171.03 231.801 171.309 231.911 171.54 232.131C171.775 232.347 171.892 232.61 171.892 232.92C171.892 233.227 171.775 233.491 171.54 233.71C171.309 233.926 171.03 234.034 170.705 234.034ZM177.717 244.17C176.842 244.17 176.087 243.989 175.45 243.625C174.818 243.258 174.331 242.739 173.99 242.068C173.649 241.394 173.479 240.6 173.479 239.688C173.479 238.79 173.649 238.002 173.99 237.324C174.335 236.642 174.816 236.112 175.433 235.733C176.051 235.35 176.776 235.159 177.609 235.159C178.147 235.159 178.655 235.246 179.132 235.42C179.613 235.591 180.037 235.856 180.405 236.216C180.776 236.576 181.068 237.034 181.28 237.591C181.492 238.144 181.598 238.803 181.598 239.568V240.199H174.445V238.812H179.626C179.623 238.419 179.537 238.068 179.371 237.761C179.204 237.451 178.971 237.206 178.672 237.028C178.376 236.85 178.032 236.761 177.638 236.761C177.217 236.761 176.848 236.864 176.53 237.068C176.212 237.269 175.964 237.534 175.786 237.864C175.611 238.189 175.522 238.547 175.518 238.938V240.148C175.518 240.655 175.611 241.091 175.797 241.455C175.982 241.814 176.242 242.091 176.575 242.284C176.909 242.473 177.299 242.568 177.746 242.568C178.045 242.568 178.316 242.527 178.558 242.443C178.801 242.356 179.011 242.229 179.189 242.062C179.367 241.896 179.501 241.689 179.592 241.443L181.513 241.659C181.392 242.167 181.161 242.61 180.82 242.989C180.482 243.364 180.051 243.655 179.524 243.864C178.998 244.068 178.395 244.17 177.717 244.17ZM187.696 235.273V236.864H182.679V235.273H187.696ZM183.918 233.182H185.974V241.375C185.974 241.652 186.016 241.864 186.099 242.011C186.187 242.155 186.3 242.254 186.44 242.307C186.58 242.36 186.736 242.386 186.906 242.386C187.035 242.386 187.152 242.377 187.259 242.358C187.368 242.339 187.452 242.322 187.509 242.307L187.855 243.915C187.745 243.953 187.588 243.994 187.384 244.04C187.183 244.085 186.937 244.112 186.645 244.119C186.13 244.134 185.666 244.057 185.253 243.886C184.84 243.712 184.512 243.443 184.27 243.08C184.031 242.716 183.914 242.261 183.918 241.716V233.182ZM191.928 244.176C191.375 244.176 190.876 244.078 190.433 243.881C189.994 243.68 189.645 243.384 189.388 242.994C189.134 242.604 189.007 242.123 189.007 241.551C189.007 241.059 189.098 240.652 189.28 240.33C189.462 240.008 189.71 239.75 190.024 239.557C190.339 239.364 190.693 239.218 191.087 239.119C191.484 239.017 191.895 238.943 192.32 238.898C192.831 238.845 193.246 238.797 193.564 238.756C193.882 238.71 194.113 238.642 194.257 238.551C194.405 238.456 194.479 238.311 194.479 238.114V238.08C194.479 237.652 194.352 237.32 194.098 237.085C193.844 236.85 193.479 236.733 193.001 236.733C192.498 236.733 192.098 236.843 191.803 237.062C191.511 237.282 191.314 237.542 191.212 237.841L189.291 237.568C189.443 237.038 189.693 236.595 190.041 236.239C190.39 235.879 190.816 235.61 191.32 235.432C191.823 235.25 192.38 235.159 192.99 235.159C193.411 235.159 193.829 235.208 194.246 235.307C194.662 235.405 195.043 235.568 195.388 235.795C195.732 236.019 196.009 236.324 196.217 236.71C196.429 237.097 196.536 237.58 196.536 238.159V244H194.558V242.801H194.49C194.365 243.044 194.189 243.271 193.962 243.483C193.738 243.691 193.456 243.86 193.115 243.989C192.778 244.114 192.382 244.176 191.928 244.176ZM192.462 242.665C192.875 242.665 193.232 242.583 193.536 242.42C193.839 242.254 194.071 242.034 194.234 241.761C194.401 241.489 194.484 241.191 194.484 240.869V239.841C194.42 239.894 194.31 239.943 194.155 239.989C194.003 240.034 193.833 240.074 193.643 240.108C193.454 240.142 193.267 240.172 193.081 240.199C192.895 240.225 192.734 240.248 192.598 240.267C192.291 240.309 192.017 240.377 191.774 240.472C191.532 240.566 191.34 240.699 191.2 240.869C191.06 241.036 190.99 241.252 190.99 241.517C190.99 241.896 191.128 242.182 191.405 242.375C191.681 242.568 192.034 242.665 192.462 242.665Z" fill="#4B4B4B"/>
<path d="M31 238C31 241.866 27.866 245 24 245C20.134 245 17 241.866 17 238C17 234.134 20.134 231 24 231C27.866 231 31 234.134 31 238Z" fill="#187AB0" stroke="black" stroke-width="2"/>
<circle cx="56" cy="238" r="7" stroke="black" stroke-width="2"/>
</svg>
