<svg width="550" height="103" viewBox="0 0 550 103" fill="none" xmlns="http://www.w3.org/2000/svg">
<rect width="549.831" height="103" fill="white"/>
<g filter="url(#filter0_d_890_6376)">
<path d="M55.6993 34.1016C50.8948 34.1016 47 30.2067 47 25.4022C47 20.5977 50.8948 16.7029 55.6993 16.7029L517.963 16.7029C522.767 16.7029 526.662 20.5977 526.662 25.4022C526.662 30.2067 522.767 34.1016 517.963 34.1016L55.6993 34.1016Z" fill="url(#paint0_linear_890_6376)"/>
<path d="M55.6993 33.1016C51.4471 33.1016 48 29.6545 48 25.4022C48 21.15 51.4471 17.7029 55.6993 17.7029L517.963 17.7029C522.215 17.7029 525.662 21.15 525.662 25.4022C525.662 29.6545 522.215 33.1016 517.963 33.1016L55.6993 33.1016Z" stroke="black" stroke-width="2"/>
</g>
<path d="M47.9205 58.668H46.0739L51.4148 44.1225H53.233L58.5739 58.668H56.7273L52.3807 46.4237H52.267L47.9205 58.668ZM48.6023 52.9862H56.0455V54.5487H48.6023V52.9862ZM60.8395 58.668V44.1225H65.7543C66.8954 44.1225 67.8281 44.3285 68.5526 44.7404C69.2817 45.1476 69.8215 45.6992 70.1719 46.3952C70.5223 47.0913 70.6974 47.8678 70.6974 48.7248C70.6974 49.5818 70.5223 50.3607 70.1719 51.0614C69.8262 51.7622 69.2912 52.3209 68.5668 52.7376C67.8423 53.1495 66.9143 53.3555 65.7827 53.3555H62.2599V51.793H65.7259C66.5071 51.793 67.1345 51.658 67.608 51.3881C68.0814 51.1183 68.4247 50.7537 68.6378 50.2944C68.8556 49.8304 68.9645 49.3072 68.9645 48.7248C68.9645 48.1424 68.8556 47.6216 68.6378 47.1623C68.4247 46.703 68.0791 46.3432 67.6009 46.0827C67.1226 45.8176 66.4882 45.685 65.6974 45.685H62.6009V58.668H60.8395ZM85.8075 51.3952C85.8075 52.9293 85.5305 54.2551 84.9766 55.3725C84.4226 56.4899 83.6626 57.3517 82.6967 57.9577C81.7308 58.5638 80.6276 58.8668 79.3871 58.8668C78.1465 58.8668 77.0433 58.5638 76.0774 57.9577C75.1115 57.3517 74.3516 56.4899 73.7976 55.3725C73.2436 54.2551 72.9666 52.9293 72.9666 51.3952C72.9666 49.8612 73.2436 48.5354 73.7976 47.418C74.3516 46.3005 75.1115 45.4388 76.0774 44.8327C77.0433 44.2267 78.1465 43.9237 79.3871 43.9237C80.6276 43.9237 81.7308 44.2267 82.6967 44.8327C83.6626 45.4388 84.4226 46.3005 84.9766 47.418C85.5305 48.5354 85.8075 49.8612 85.8075 51.3952ZM84.103 51.3952C84.103 50.1358 83.8923 49.0728 83.4709 48.2063C83.0542 47.3398 82.4884 46.6841 81.7734 46.239C81.0632 45.7939 80.2678 45.5714 79.3871 45.5714C78.5064 45.5714 77.7086 45.7939 76.9936 46.239C76.2834 46.6841 75.7176 47.3398 75.2962 48.2063C74.8795 49.0728 74.6712 50.1358 74.6712 51.3952C74.6712 52.6547 74.8795 53.7177 75.2962 54.5842C75.7176 55.4506 76.2834 56.1064 76.9936 56.5515C77.7086 56.9966 78.5064 57.2191 79.3871 57.2191C80.2678 57.2191 81.0632 56.9966 81.7734 56.5515C82.4884 56.1064 83.0542 55.4506 83.4709 54.5842C83.8923 53.7177 84.103 52.6547 84.103 51.3952ZM88.7692 58.668V44.1225H93.6839C94.8203 44.1225 95.7531 44.3166 96.4822 44.7049C97.2114 45.0884 97.7512 45.6164 98.1016 46.2887C98.4519 46.9611 98.6271 47.7257 98.6271 48.5827C98.6271 49.4397 98.4519 50.1997 98.1016 50.8626C97.7512 51.5254 97.2138 52.0463 96.4893 52.4251C95.7649 52.7991 94.8393 52.9862 93.7124 52.9862H89.7351V51.3952H93.6555C94.4321 51.3952 95.0571 51.2816 95.5305 51.0543C96.0088 50.8271 96.3544 50.5051 96.5675 50.0884C96.7853 49.667 96.8942 49.1651 96.8942 48.5827C96.8942 48.0004 96.7853 47.4914 96.5675 47.0558C96.3497 46.6201 96.0017 46.284 95.5234 46.0472C95.0452 45.8058 94.4131 45.685 93.6271 45.685H90.5305V58.668H88.7692ZM95.6158 52.1339L99.1953 58.668H97.1499L93.6271 52.1339H95.6158ZM100.767 45.685V44.1225H111.676V45.685H107.102V58.668H105.341V45.685H100.767ZM113.292 58.668H111.445L116.786 44.1225H118.604L123.945 58.668H122.098L117.752 46.4237H117.638L113.292 58.668ZM113.973 52.9862H121.417V54.5487H113.973V52.9862ZM130.699 58.668H126.211V44.1225H130.898C132.309 44.1225 133.516 44.4137 134.52 44.9961C135.524 45.5737 136.293 46.4047 136.828 47.489C137.364 48.5685 137.631 49.8612 137.631 51.3668C137.631 52.882 137.361 54.1864 136.821 55.2802C136.282 56.3692 135.496 57.2073 134.463 57.7944C133.431 58.3768 132.176 58.668 130.699 58.668ZM127.972 57.1055H130.586C131.788 57.1055 132.785 56.8735 133.576 56.4094C134.366 55.9454 134.956 55.2849 135.344 54.4279C135.732 53.5709 135.926 52.5505 135.926 51.3668C135.926 50.1926 135.735 49.1817 135.351 48.3342C134.968 47.4819 134.395 46.8285 133.632 46.3739C132.87 45.9147 131.921 45.685 130.784 45.685H127.972V57.1055ZM152.858 51.3952C152.858 52.9293 152.581 54.2551 152.027 55.3725C151.473 56.4899 150.713 57.3517 149.748 57.9577C148.782 58.5638 147.678 58.8668 146.438 58.8668C145.197 58.8668 144.094 58.5638 143.128 57.9577C142.162 57.3517 141.402 56.4899 140.848 55.3725C140.294 54.2551 140.017 52.9293 140.017 51.3952C140.017 49.8612 140.294 48.5354 140.848 47.418C141.402 46.3005 142.162 45.4388 143.128 44.8327C144.094 44.2267 145.197 43.9237 146.438 43.9237C147.678 43.9237 148.782 44.2267 149.748 44.8327C150.713 45.4388 151.473 46.3005 152.027 47.418C152.581 48.5354 152.858 49.8612 152.858 51.3952ZM151.154 51.3952C151.154 50.1358 150.943 49.0728 150.522 48.2063C150.105 47.3398 149.539 46.6841 148.824 46.239C148.114 45.7939 147.319 45.5714 146.438 45.5714C145.557 45.5714 144.759 45.7939 144.044 46.239C143.334 46.6841 142.768 47.3398 142.347 48.2063C141.93 49.0728 141.722 50.1358 141.722 51.3952C141.722 52.6547 141.93 53.7177 142.347 54.5842C142.768 55.4506 143.334 56.1064 144.044 56.5515C144.759 56.9966 145.557 57.2191 146.438 57.2191C147.319 57.2191 148.114 56.9966 148.824 56.5515C149.539 56.1064 150.105 55.4506 150.522 54.5842C150.943 53.7177 151.154 52.6547 151.154 51.3952Z" fill="black"/>
<path d="M438.202 90.4119V72.2301H439.366V90.4119H438.202ZM442.122 77.6847C442.037 76.965 441.691 76.4062 441.085 76.0085C440.479 75.6108 439.736 75.4119 438.855 75.4119C438.211 75.4119 437.648 75.5161 437.165 75.7244C436.687 75.9328 436.313 76.2192 436.043 76.5838C435.777 76.9484 435.645 77.3627 435.645 77.8267C435.645 78.215 435.737 78.5488 435.922 78.8281C436.111 79.1027 436.353 79.3324 436.646 79.517C436.94 79.697 437.248 79.8461 437.57 79.9645C437.892 80.0781 438.188 80.1705 438.457 80.2415L439.935 80.6392C440.313 80.7386 440.735 80.8759 441.199 81.0511C441.668 81.2263 442.115 81.4654 442.541 81.7685C442.972 82.0668 443.327 82.4503 443.607 82.919C443.886 83.3878 444.026 83.9631 444.026 84.6449C444.026 85.4309 443.82 86.1411 443.408 86.7756C443 87.41 442.404 87.9143 441.618 88.2884C440.837 88.6624 439.887 88.8494 438.77 88.8494C437.728 88.8494 436.826 88.6813 436.064 88.3452C435.306 88.009 434.71 87.5402 434.274 86.9389C433.843 86.3376 433.599 85.6392 433.543 84.8438H435.361C435.408 85.393 435.593 85.8475 435.915 86.2074C436.241 86.5625 436.653 86.8277 437.151 87.0028C437.652 87.1733 438.192 87.2585 438.77 87.2585C439.442 87.2585 440.046 87.1496 440.581 86.9318C441.116 86.7093 441.54 86.4015 441.852 86.0085C442.165 85.6108 442.321 85.1468 442.321 84.6165C442.321 84.1335 442.186 83.7405 441.916 83.4375C441.646 83.1345 441.291 82.8883 440.851 82.6989C440.411 82.5095 439.935 82.3437 439.423 82.2017L437.634 81.6903C436.497 81.3636 435.598 80.8973 434.935 80.2912C434.272 79.6851 433.94 78.892 433.94 77.9119C433.94 77.0975 434.161 76.3873 434.601 75.7812C435.046 75.1705 435.643 74.697 436.391 74.3608C437.143 74.0199 437.984 73.8494 438.912 73.8494C439.849 73.8494 440.683 74.0175 441.412 74.3537C442.141 74.6851 442.719 75.1397 443.145 75.7173C443.576 76.295 443.803 76.9508 443.827 77.6847H442.122ZM446.325 85.6108V84.1619L452.717 74.0483H453.768V76.2926H453.058L448.228 83.9347V84.0483H456.836V85.6108H446.325ZM453.172 88.5938V85.1705V84.4957V74.0483H454.848V88.5938H453.172ZM464.043 88.7926C463.21 88.7926 462.46 88.6269 461.792 88.2955C461.124 87.964 460.589 87.5095 460.187 86.9318C459.784 86.3542 459.564 85.696 459.526 84.9574H461.231C461.297 85.6155 461.595 86.16 462.126 86.5909C462.661 87.017 463.3 87.2301 464.043 87.2301C464.64 87.2301 465.17 87.0904 465.634 86.8111C466.103 86.5317 466.47 86.1482 466.735 85.6605C467.005 85.1681 467.14 84.6117 467.14 83.9915C467.14 83.357 467 82.7912 466.721 82.294C466.446 81.7921 466.067 81.3968 465.585 81.108C465.102 80.8191 464.55 80.6723 463.93 80.6676C463.485 80.6629 463.028 80.7315 462.559 80.8736C462.09 81.0109 461.704 81.1884 461.401 81.4062L459.754 81.2074L460.634 74.0483H468.191V75.6108H462.112L461.6 79.9006H461.685C461.984 79.6638 462.358 79.4673 462.808 79.3111C463.257 79.1548 463.726 79.0767 464.214 79.0767C465.104 79.0767 465.897 79.2898 466.593 79.7159C467.294 80.1373 467.843 80.715 468.241 81.4489C468.643 82.1828 468.844 83.0208 468.844 83.9631C468.844 84.8911 468.636 85.7197 468.219 86.4489C467.808 87.1733 467.239 87.7462 466.515 88.1676C465.79 88.5843 464.967 88.7926 464.043 88.7926ZM473.647 86.6051L473.534 87.3722C473.453 87.9119 473.33 88.4896 473.164 89.1051C473.003 89.7206 472.835 90.3007 472.66 90.8452C472.485 91.3897 472.341 91.8229 472.227 92.1449H470.949C471.01 91.8419 471.091 91.4418 471.19 90.9446C471.289 90.4474 471.389 89.8911 471.488 89.2756C471.592 88.6648 471.678 88.0398 471.744 87.4006L471.829 86.6051H473.647ZM480.961 88.7926C479.891 88.7926 478.979 88.5014 478.227 87.919C477.474 87.3319 476.898 86.482 476.501 85.3693C476.103 84.2519 475.904 82.9025 475.904 81.321C475.904 79.7491 476.103 78.4067 476.501 77.294C476.903 76.1766 477.481 75.3243 478.234 74.7372C478.991 74.1454 479.9 73.8494 480.961 73.8494C482.022 73.8494 482.928 74.1454 483.681 74.7372C484.439 75.3243 485.016 76.1766 485.414 77.294C485.817 78.4067 486.018 79.7491 486.018 81.321C486.018 82.9025 485.819 84.2519 485.421 85.3693C485.023 86.482 484.448 87.3319 483.695 87.919C482.942 88.5014 482.031 88.7926 480.961 88.7926ZM480.961 87.2301C482.022 87.2301 482.845 86.7187 483.433 85.696C484.02 84.6733 484.313 83.215 484.313 81.321C484.313 80.0616 484.178 78.9891 483.908 78.1037C483.643 77.2183 483.26 76.5436 482.758 76.0795C482.261 75.6155 481.662 75.3835 480.961 75.3835C479.91 75.3835 479.088 75.902 478.496 76.9389C477.905 77.9711 477.609 79.4318 477.609 81.321C477.609 82.5805 477.741 83.6506 478.006 84.5312C478.272 85.4119 478.653 86.0819 479.15 86.5412C479.652 87.0005 480.255 87.2301 480.961 87.2301ZM493.461 88.7926C492.391 88.7926 491.479 88.5014 490.727 87.919C489.974 87.3319 489.398 86.482 489.001 85.3693C488.603 84.2519 488.404 82.9025 488.404 81.321C488.404 79.7491 488.603 78.4067 489.001 77.294C489.403 76.1766 489.981 75.3243 490.734 74.7372C491.491 74.1454 492.4 73.8494 493.461 73.8494C494.522 73.8494 495.428 74.1454 496.181 74.7372C496.939 75.3243 497.516 76.1766 497.914 77.294C498.317 78.4067 498.518 79.7491 498.518 81.321C498.518 82.9025 498.319 84.2519 497.921 85.3693C497.523 86.482 496.948 87.3319 496.195 87.919C495.442 88.5014 494.531 88.7926 493.461 88.7926ZM493.461 87.2301C494.522 87.2301 495.345 86.7187 495.933 85.696C496.52 84.6733 496.813 83.215 496.813 81.321C496.813 80.0616 496.678 78.9891 496.408 78.1037C496.143 77.2183 495.76 76.5436 495.258 76.0795C494.761 75.6155 494.162 75.3835 493.461 75.3835C492.41 75.3835 491.588 75.902 490.996 76.9389C490.405 77.9711 490.109 79.4318 490.109 81.321C490.109 82.5805 490.241 83.6506 490.506 84.5312C490.772 85.4119 491.153 86.0819 491.65 86.5412C492.152 87.0005 492.755 87.2301 493.461 87.2301ZM505.961 88.7926C504.891 88.7926 503.979 88.5014 503.227 87.919C502.474 87.3319 501.898 86.482 501.501 85.3693C501.103 84.2519 500.904 82.9025 500.904 81.321C500.904 79.7491 501.103 78.4067 501.501 77.294C501.903 76.1766 502.481 75.3243 503.234 74.7372C503.991 74.1454 504.9 73.8494 505.961 73.8494C507.022 73.8494 507.928 74.1454 508.681 74.7372C509.439 75.3243 510.016 76.1766 510.414 77.294C510.817 78.4067 511.018 79.7491 511.018 81.321C511.018 82.9025 510.819 84.2519 510.421 85.3693C510.023 86.482 509.448 87.3319 508.695 87.919C507.942 88.5014 507.031 88.7926 505.961 88.7926ZM505.961 87.2301C507.022 87.2301 507.845 86.7187 508.433 85.696C509.02 84.6733 509.313 83.215 509.313 81.321C509.313 80.0616 509.178 78.9891 508.908 78.1037C508.643 77.2183 508.26 76.5436 507.758 76.0795C507.261 75.6155 506.662 75.3835 505.961 75.3835C504.91 75.3835 504.088 75.902 503.496 76.9389C502.905 77.9711 502.609 79.4318 502.609 81.321C502.609 82.5805 502.741 83.6506 503.006 84.5312C503.272 85.4119 503.653 86.0819 504.15 86.5412C504.652 87.0005 505.255 87.2301 505.961 87.2301Z" fill="black"/>
<path d="M279.07 88.7926C278.473 88.7831 277.876 88.6695 277.28 88.4517C276.683 88.2339 276.139 87.867 275.646 87.3509C275.154 86.83 274.759 86.1269 274.46 85.2415C274.162 84.3513 274.013 83.2339 274.013 81.8892C274.013 80.6013 274.134 79.4602 274.375 78.4659C274.616 77.4669 274.967 76.6264 275.426 75.9446C275.885 75.258 276.439 74.7372 277.088 74.3821C277.741 74.027 278.478 73.8494 279.297 73.8494C280.111 73.8494 280.836 74.0128 281.47 74.3395C282.109 74.6615 282.63 75.1113 283.033 75.6889C283.435 76.2666 283.696 76.9318 283.814 77.6847H282.081C281.92 77.0312 281.607 76.4891 281.143 76.0582C280.679 75.6274 280.064 75.4119 279.297 75.4119C278.17 75.4119 277.282 75.902 276.634 76.8821C275.99 77.8622 275.665 79.2377 275.661 81.0085H275.774C276.039 80.6061 276.354 80.2628 276.719 79.9787C277.088 79.6899 277.495 79.4673 277.94 79.3111C278.385 79.1548 278.857 79.0767 279.354 79.0767C280.187 79.0767 280.949 79.285 281.641 79.7017C282.332 80.1136 282.886 80.6842 283.303 81.4134C283.719 82.1378 283.928 82.9688 283.928 83.9062C283.928 84.8059 283.726 85.6297 283.324 86.3778C282.921 87.1212 282.356 87.7131 281.626 88.1534C280.902 88.589 280.05 88.8021 279.07 88.7926ZM279.07 87.2301C279.666 87.2301 280.201 87.081 280.675 86.7827C281.153 86.4844 281.529 86.0843 281.804 85.5824C282.083 85.0805 282.223 84.5218 282.223 83.9062C282.223 83.3049 282.088 82.758 281.818 82.2656C281.553 81.7685 281.186 81.3731 280.717 81.0795C280.253 80.786 279.723 80.6392 279.126 80.6392C278.677 80.6392 278.258 80.7292 277.869 80.9091C277.481 81.0843 277.14 81.3258 276.847 81.6335C276.558 81.9413 276.33 82.294 276.165 82.6918C275.999 83.0848 275.916 83.4991 275.916 83.9347C275.916 84.5123 276.051 85.0521 276.321 85.554C276.596 86.0559 276.97 86.4607 277.443 86.7685C277.921 87.0762 278.464 87.2301 279.07 87.2301ZM291.38 88.7926C290.404 88.7926 289.542 88.6198 288.794 88.2741C288.051 87.9238 287.471 87.4432 287.054 86.8324C286.638 86.2169 286.432 85.5161 286.436 84.7301C286.432 84.1146 286.552 83.5464 286.799 83.0256C287.045 82.5 287.381 82.062 287.807 81.7116C288.238 81.3565 288.719 81.1316 289.249 81.0369V80.9517C288.553 80.7718 287.999 80.3812 287.587 79.7798C287.175 79.1738 286.971 78.4848 286.976 77.7131C286.971 76.9744 287.158 76.3139 287.537 75.7315C287.916 75.1491 288.437 74.6899 289.1 74.3537C289.767 74.0175 290.527 73.8494 291.38 73.8494C292.222 73.8494 292.975 74.0175 293.638 74.3537C294.301 74.6899 294.822 75.1491 295.201 75.7315C295.584 76.3139 295.778 76.9744 295.783 77.7131C295.778 78.4848 295.568 79.1738 295.151 79.7798C294.739 80.3812 294.192 80.7718 293.51 80.9517V81.0369C294.036 81.1316 294.509 81.3565 294.931 81.7116C295.352 82.062 295.688 82.5 295.939 83.0256C296.19 83.5464 296.318 84.1146 296.323 84.7301C296.318 85.5161 296.105 86.2169 295.684 86.8324C295.267 87.4432 294.687 87.9238 293.944 88.2741C293.205 88.6198 292.35 88.7926 291.38 88.7926ZM291.38 87.2301C292.038 87.2301 292.606 87.1236 293.084 86.9105C293.562 86.6974 293.932 86.3968 294.192 86.0085C294.453 85.6203 294.585 85.1657 294.59 84.6449C294.585 84.0956 294.443 83.6103 294.164 83.1889C293.884 82.7675 293.503 82.4361 293.02 82.1946C292.542 81.9531 291.995 81.8324 291.38 81.8324C290.759 81.8324 290.205 81.9531 289.718 82.1946C289.235 82.4361 288.854 82.7675 288.574 83.1889C288.3 83.6103 288.165 84.0956 288.169 84.6449C288.165 85.1657 288.29 85.6203 288.546 86.0085C288.806 86.3968 289.178 86.6974 289.661 86.9105C290.144 87.1236 290.717 87.2301 291.38 87.2301ZM291.38 80.3267C291.9 80.3267 292.362 80.2225 292.765 80.0142C293.172 79.8059 293.491 79.5147 293.723 79.1406C293.955 78.7666 294.074 78.3286 294.078 77.8267C294.074 77.3343 293.958 76.9058 293.73 76.5412C293.503 76.1719 293.188 75.8878 292.786 75.6889C292.383 75.4853 291.915 75.3835 291.38 75.3835C290.835 75.3835 290.359 75.4853 289.952 75.6889C289.545 75.8878 289.23 76.1719 289.007 76.5412C288.785 76.9058 288.676 77.3343 288.681 77.8267C288.676 78.3286 288.787 78.7666 289.015 79.1406C289.247 79.5147 289.566 79.8059 289.973 80.0142C290.381 80.2225 290.849 80.3267 291.38 80.3267ZM303.96 88.7926C303.022 88.7926 302.186 88.6316 301.452 88.3097C300.723 87.9877 300.143 87.5402 299.712 86.9673C299.286 86.3897 299.054 85.7197 299.016 84.9574H300.806C300.844 85.4261 301.005 85.831 301.289 86.1719C301.573 86.508 301.945 86.7685 302.404 86.9531C302.863 87.1378 303.372 87.2301 303.931 87.2301C304.556 87.2301 305.11 87.1212 305.593 86.9034C306.076 86.6856 306.455 86.3826 306.729 85.9943C307.004 85.6061 307.141 85.1562 307.141 84.6449C307.141 84.1098 307.009 83.6387 306.744 83.2315C306.478 82.8196 306.09 82.4976 305.579 82.2656C305.067 82.0336 304.442 81.9176 303.704 81.9176H302.539V80.3551H303.704C304.281 80.3551 304.788 80.2509 305.224 80.0426C305.664 79.8343 306.007 79.5407 306.254 79.1619C306.504 78.7831 306.63 78.3381 306.63 77.8267C306.63 77.3343 306.521 76.9058 306.303 76.5412C306.085 76.1766 305.778 75.8925 305.38 75.6889C304.987 75.4853 304.523 75.3835 303.988 75.3835C303.486 75.3835 303.013 75.4759 302.567 75.6605C302.127 75.8404 301.767 76.1032 301.488 76.4489C301.209 76.7898 301.057 77.2017 301.033 77.6847H299.329C299.357 76.9223 299.587 76.2547 300.018 75.6818C300.449 75.1042 301.012 74.6544 301.708 74.3324C302.409 74.0104 303.178 73.8494 304.016 73.8494C304.916 73.8494 305.688 74.0317 306.332 74.3963C306.976 74.7562 307.47 75.232 307.816 75.8239C308.162 76.4157 308.335 77.0549 308.335 77.7415C308.335 78.5606 308.119 79.259 307.688 79.8366C307.262 80.4143 306.682 80.8144 305.948 81.0369V81.1506C306.867 81.3021 307.584 81.6927 308.1 82.3224C308.616 82.9474 308.874 83.7216 308.874 84.6449C308.874 85.4356 308.659 86.1458 308.228 86.7756C307.802 87.4006 307.219 87.893 306.481 88.2528C305.742 88.6127 304.902 88.7926 303.96 88.7926ZM311.438 85.6108V84.1619L317.83 74.0483H318.881V76.2926H318.171L313.342 83.9347V84.0483H321.95V85.6108H311.438ZM318.285 88.5938V85.1705V84.4957V74.0483H319.961V88.5938H318.285Z" fill="black"/>
<path d="M56.5923 90.4119V72.2301H57.7571V90.4119H56.5923ZM60.5128 77.6847C60.4276 76.965 60.0819 76.4062 59.4759 76.0085C58.8698 75.6108 58.1264 75.4119 57.2457 75.4119C56.6018 75.4119 56.0384 75.5161 55.5554 75.7244C55.0772 75.9328 54.7031 76.2192 54.4332 76.5838C54.1681 76.9484 54.0355 77.3627 54.0355 77.8267C54.0355 78.215 54.1278 78.5488 54.3125 78.8281C54.5019 79.1027 54.7434 79.3324 55.0369 79.517C55.3305 79.697 55.6383 79.8461 55.9602 79.9645C56.2822 80.0781 56.5781 80.1705 56.848 80.2415L58.3253 80.6392C58.7041 80.7386 59.1255 80.8759 59.5895 81.0511C60.0582 81.2263 60.5057 81.4654 60.9318 81.7685C61.3627 82.0668 61.7178 82.4503 61.9972 82.919C62.2765 83.3878 62.4162 83.9631 62.4162 84.6449C62.4162 85.4309 62.2102 86.1411 61.7983 86.7756C61.3911 87.41 60.7945 87.9143 60.0085 88.2884C59.2273 88.6624 58.2779 88.8494 57.1605 88.8494C56.1188 88.8494 55.2169 88.6813 54.4545 88.3452C53.697 88.009 53.1004 87.5402 52.6648 86.9389C52.2339 86.3376 51.9901 85.6392 51.9332 84.8438H53.7514C53.7988 85.393 53.9834 85.8475 54.3054 86.2074C54.6321 86.5625 55.044 86.8277 55.5412 87.0028C56.0431 87.1733 56.5829 87.2585 57.1605 87.2585C57.8329 87.2585 58.4366 87.1496 58.9716 86.9318C59.5066 86.7093 59.9304 86.4015 60.2429 86.0085C60.5554 85.6108 60.7116 85.1468 60.7116 84.6165C60.7116 84.1335 60.5767 83.7405 60.3068 83.4375C60.0369 83.1345 59.6818 82.8883 59.2415 82.6989C58.8011 82.5095 58.3253 82.3437 57.8139 82.2017L56.0241 81.6903C54.8878 81.3636 53.9882 80.8973 53.3253 80.2912C52.6624 79.6851 52.331 78.892 52.331 77.9119C52.331 77.0975 52.5511 76.3873 52.9915 75.7812C53.4366 75.1705 54.0331 74.697 54.7812 74.3608C55.5341 74.0199 56.3745 73.8494 57.3026 73.8494C58.2401 73.8494 59.0734 74.0175 59.8026 74.3537C60.5317 74.6851 61.1094 75.1397 61.5355 75.7173C61.9664 76.295 62.1937 76.9508 62.2173 77.6847H60.5128ZM65.0565 88.5938V87.3153L69.8576 82.0597C70.421 81.4441 70.8851 80.9091 71.2496 80.4545C71.6142 79.9953 71.8841 79.5644 72.0593 79.1619C72.2392 78.7547 72.3292 78.3286 72.3292 77.8835C72.3292 77.3722 72.2061 76.9295 71.9599 76.5554C71.7184 76.1813 71.387 75.8925 70.9656 75.6889C70.5442 75.4853 70.0707 75.3835 69.5451 75.3835C68.9864 75.3835 68.4987 75.4995 68.082 75.7315C67.6701 75.9588 67.3505 76.2784 67.1232 76.6903C66.9007 77.1023 66.7894 77.5852 66.7894 78.1392H65.1133C65.1133 77.2869 65.3098 76.5388 65.7028 75.8949C66.0958 75.2509 66.6308 74.7491 67.3079 74.3892C67.9897 74.0294 68.7544 73.8494 69.6019 73.8494C70.4542 73.8494 71.2094 74.0294 71.8675 74.3892C72.5257 74.7491 73.0418 75.2344 73.4158 75.8452C73.7899 76.456 73.9769 77.1354 73.9769 77.8835C73.9769 78.4186 73.8799 78.9418 73.6857 79.4531C73.4963 79.9598 73.1649 80.5256 72.6914 81.1506C72.2227 81.7708 71.5716 82.5284 70.7383 83.4233L67.4712 86.9176V87.0312H74.2326V88.5938H65.0565ZM81.9102 88.7926C80.8401 88.7926 79.9286 88.5014 79.1758 87.919C78.4229 87.3319 77.8477 86.482 77.4499 85.3693C77.0522 84.2519 76.8533 82.9025 76.8533 81.321C76.8533 79.7491 77.0522 78.4067 77.4499 77.294C77.8524 76.1766 78.43 75.3243 79.1829 74.7372C79.9405 74.1454 80.8496 73.8494 81.9102 73.8494C82.9708 73.8494 83.8775 74.1454 84.6303 74.7372C85.3879 75.3243 85.9656 76.1766 86.3633 77.294C86.7657 78.4067 86.967 79.7491 86.967 81.321C86.967 82.9025 86.7681 84.2519 86.3704 85.3693C85.9727 86.482 85.3974 87.3319 84.6445 87.919C83.8917 88.5014 82.9802 88.7926 81.9102 88.7926ZM81.9102 87.2301C82.9708 87.2301 83.7946 86.7187 84.3817 85.696C84.9689 84.6733 85.2624 83.215 85.2624 81.321C85.2624 80.0616 85.1275 78.9891 84.8576 78.1037C84.5924 77.2183 84.2089 76.5436 83.707 76.0795C83.2099 75.6155 82.6109 75.3835 81.9102 75.3835C80.859 75.3835 80.0375 75.902 79.4457 76.9389C78.8538 77.9711 78.5579 79.4318 78.5579 81.321C78.5579 82.5805 78.6905 83.6506 78.9556 84.5312C79.2208 85.4119 79.6019 86.0819 80.0991 86.5412C80.601 87.0005 81.2047 87.2301 81.9102 87.2301ZM91.6864 86.6051L91.5728 87.3722C91.4923 87.9119 91.3692 88.4896 91.2035 89.1051C91.0425 89.7206 90.8744 90.3007 90.6992 90.8452C90.524 91.3897 90.3796 91.8229 90.266 92.1449H88.9876C89.0491 91.8419 89.1296 91.4418 89.229 90.9446C89.3285 90.4474 89.4279 89.8911 89.5273 89.2756C89.6315 88.6648 89.7167 88.0398 89.783 87.4006L89.8683 86.6051H91.6864ZM105.133 88.7926C104.063 88.7926 103.151 88.5014 102.398 87.919C101.646 87.3319 101.07 86.482 100.673 85.3693C100.275 84.2519 100.076 82.9025 100.076 81.321C100.076 79.7491 100.275 78.4067 100.673 77.294C101.075 76.1766 101.653 75.3243 102.406 74.7372C103.163 74.1454 104.072 73.8494 105.133 73.8494C106.193 73.8494 107.1 74.1454 107.853 74.7372C108.611 75.3243 109.188 76.1766 109.586 77.294C109.988 78.4067 110.19 79.7491 110.19 81.321C110.19 82.9025 109.991 84.2519 109.593 85.3693C109.195 86.482 108.62 87.3319 107.867 87.919C107.114 88.5014 106.203 88.7926 105.133 88.7926ZM105.133 87.2301C106.193 87.2301 107.017 86.7187 107.604 85.696C108.192 84.6733 108.485 83.215 108.485 81.321C108.485 80.0616 108.35 78.9891 108.08 78.1037C107.815 77.2183 107.432 76.5436 106.93 76.0795C106.433 75.6155 105.834 75.3835 105.133 75.3835C104.082 75.3835 103.26 75.902 102.668 76.9389C102.076 77.9711 101.781 79.4318 101.781 81.321C101.781 82.5805 101.913 83.6506 102.178 84.5312C102.443 85.4119 102.825 86.0819 103.322 86.5412C103.824 87.0005 104.427 87.2301 105.133 87.2301ZM117.633 88.7926C116.563 88.7926 115.651 88.5014 114.898 87.919C114.146 87.3319 113.57 86.482 113.173 85.3693C112.775 84.2519 112.576 82.9025 112.576 81.321C112.576 79.7491 112.775 78.4067 113.173 77.294C113.575 76.1766 114.153 75.3243 114.906 74.7372C115.663 74.1454 116.572 73.8494 117.633 73.8494C118.693 73.8494 119.6 74.1454 120.353 74.7372C121.111 75.3243 121.688 76.1766 122.086 77.294C122.488 78.4067 122.69 79.7491 122.69 81.321C122.69 82.9025 122.491 84.2519 122.093 85.3693C121.695 86.482 121.12 87.3319 120.367 87.919C119.614 88.5014 118.703 88.7926 117.633 88.7926ZM117.633 87.2301C118.693 87.2301 119.517 86.7187 120.104 85.696C120.692 84.6733 120.985 83.215 120.985 81.321C120.985 80.0616 120.85 78.9891 120.58 78.1037C120.315 77.2183 119.932 76.5436 119.43 76.0795C118.933 75.6155 118.334 75.3835 117.633 75.3835C116.582 75.3835 115.76 75.902 115.168 76.9389C114.576 77.9711 114.281 79.4318 114.281 81.321C114.281 82.5805 114.413 83.6506 114.678 84.5312C114.943 85.4119 115.325 86.0819 115.822 86.5412C116.324 87.0005 116.927 87.2301 117.633 87.2301ZM130.133 88.7926C129.063 88.7926 128.151 88.5014 127.398 87.919C126.646 87.3319 126.07 86.482 125.673 85.3693C125.275 84.2519 125.076 82.9025 125.076 81.321C125.076 79.7491 125.275 78.4067 125.673 77.294C126.075 76.1766 126.653 75.3243 127.406 74.7372C128.163 74.1454 129.072 73.8494 130.133 73.8494C131.193 73.8494 132.1 74.1454 132.853 74.7372C133.611 75.3243 134.188 76.1766 134.586 77.294C134.988 78.4067 135.19 79.7491 135.19 81.321C135.19 82.9025 134.991 84.2519 134.593 85.3693C134.195 86.482 133.62 87.3319 132.867 87.919C132.114 88.5014 131.203 88.7926 130.133 88.7926ZM130.133 87.2301C131.193 87.2301 132.017 86.7187 132.604 85.696C133.192 84.6733 133.485 83.215 133.485 81.321C133.485 80.0616 133.35 78.9891 133.08 78.1037C132.815 77.2183 132.432 76.5436 131.93 76.0795C131.433 75.6155 130.834 75.3835 130.133 75.3835C129.082 75.3835 128.26 75.902 127.668 76.9389C127.076 77.9711 126.781 79.4318 126.781 81.321C126.781 82.5805 126.913 83.6506 127.178 84.5312C127.443 85.4119 127.825 86.0819 128.322 86.5412C128.824 87.0005 129.427 87.2301 130.133 87.2301Z" fill="black"/>
<path d="M460.777 42.7317H462.879L467.822 54.8056H467.993L472.936 42.7317H475.038V57.2772H473.391V46.226H473.249L468.703 57.2772H467.112L462.567 46.226H462.425V57.2772H460.777V42.7317ZM478.57 57.2772V42.7317H487.348V44.2942H480.331V49.209H486.894V50.7715H480.331V55.7147H487.462V57.2772H478.57ZM489.728 44.2942V42.7317H500.637V44.2942H496.063V57.2772H494.301V44.2942H489.728ZM502.252 57.2772H500.406L505.747 42.7317H507.565L512.906 57.2772H511.059L506.713 45.0328H506.599L502.252 57.2772ZM502.934 51.5953H510.377V53.1578H502.934V51.5953Z" fill="black"/>
<path d="M216.719 57.2773H212.23V42.7319H216.918C218.329 42.7319 219.536 43.0231 220.54 43.6055C221.544 44.1831 222.313 45.0141 222.848 46.0984C223.383 47.1779 223.651 48.4705 223.651 49.9762C223.651 51.4914 223.381 52.7958 222.841 53.8896C222.301 54.9786 221.515 55.8166 220.483 56.4038C219.451 56.9862 218.196 57.2773 216.719 57.2773ZM213.991 55.7148H216.605C217.808 55.7148 218.804 55.4828 219.595 55.0188C220.386 54.5548 220.975 53.8943 221.364 53.0373C221.752 52.1803 221.946 51.1599 221.946 49.9762C221.946 48.802 221.754 47.7911 221.371 46.9435C220.987 46.0913 220.414 45.4379 219.652 44.9833C218.89 44.524 217.94 44.2944 216.804 44.2944H213.991V55.7148ZM238.878 50.0046C238.878 51.5387 238.601 52.8645 238.047 53.9819C237.493 55.0993 236.733 55.9611 235.767 56.5671C234.801 57.1732 233.698 57.4762 232.457 57.4762C231.217 57.4762 230.114 57.1732 229.148 56.5671C228.182 55.9611 227.422 55.0993 226.868 53.9819C226.314 52.8645 226.037 51.5387 226.037 50.0046C226.037 48.4705 226.314 47.1448 226.868 46.0273C227.422 44.9099 228.182 44.0482 229.148 43.4421C230.114 42.8361 231.217 42.533 232.457 42.533C233.698 42.533 234.801 42.8361 235.767 43.4421C236.733 44.0482 237.493 44.9099 238.047 46.0273C238.601 47.1448 238.878 48.4705 238.878 50.0046ZM237.173 50.0046C237.173 48.7451 236.963 47.6822 236.541 46.8157C236.125 45.9492 235.559 45.2934 234.844 44.8484C234.134 44.4033 233.338 44.1808 232.457 44.1808C231.577 44.1808 230.779 44.4033 230.064 44.8484C229.354 45.2934 228.788 45.9492 228.366 46.8157C227.95 47.6822 227.741 48.7451 227.741 50.0046C227.741 51.2641 227.95 52.3271 228.366 53.1935C228.788 54.06 229.354 54.7158 230.064 55.1609C230.779 55.6059 231.577 55.8285 232.457 55.8285C233.338 55.8285 234.134 55.6059 234.844 55.1609C235.559 54.7158 236.125 54.06 236.541 53.1935C236.963 52.3271 237.173 51.2641 237.173 50.0046ZM253.374 42.7319V57.2773H251.669L243.743 45.8569H243.601V57.2773H241.839V42.7319H243.544L251.499 54.1808H251.641V42.7319H253.374ZM257.495 57.2773H255.648L260.989 42.7319H262.807L268.148 57.2773H266.301L261.955 45.033H261.841L257.495 57.2773ZM258.176 51.5955H265.62V53.158H258.176V51.5955ZM281.435 47.2773H279.673C279.569 46.7707 279.387 46.3256 279.126 45.9421C278.871 45.5586 278.558 45.2366 278.189 44.9762C277.824 44.7111 277.42 44.5122 276.974 44.3796C276.529 44.247 276.065 44.1808 275.582 44.1808C274.702 44.1808 273.904 44.4033 273.189 44.8484C272.479 45.2934 271.913 45.9492 271.491 46.8157C271.075 47.6822 270.866 48.7451 270.866 50.0046C270.866 51.2641 271.075 52.3271 271.491 53.1935C271.913 54.06 272.479 54.7158 273.189 55.1609C273.904 55.6059 274.702 55.8285 275.582 55.8285C276.065 55.8285 276.529 55.7622 276.974 55.6296C277.42 55.497 277.824 55.3005 278.189 55.0401C278.558 54.775 278.871 54.4506 279.126 54.0671C279.387 53.6789 279.569 53.2338 279.673 52.7319H281.435C281.302 53.4753 281.061 54.1405 280.71 54.7276C280.36 55.3147 279.924 55.8143 279.403 56.2262C278.883 56.6334 278.298 56.9435 277.649 57.1566C277.005 57.3697 276.316 57.4762 275.582 57.4762C274.342 57.4762 273.239 57.1732 272.273 56.5671C271.307 55.9611 270.547 55.0993 269.993 53.9819C269.439 52.8645 269.162 51.5387 269.162 50.0046C269.162 48.4705 269.439 47.1448 269.993 46.0273C270.547 44.9099 271.307 44.0482 272.273 43.4421C273.239 42.8361 274.342 42.533 275.582 42.533C276.316 42.533 277.005 42.6396 277.649 42.8526C278.298 43.0657 278.883 43.3782 279.403 43.7901C279.924 44.1973 280.36 44.6945 280.71 45.2816C281.061 45.864 281.302 46.5292 281.435 47.2773ZM286.042 42.7319V57.2773H284.281V42.7319H286.042ZM301.847 50.0046C301.847 51.5387 301.57 52.8645 301.016 53.9819C300.462 55.0993 299.702 55.9611 298.736 56.5671C297.77 57.1732 296.667 57.4762 295.426 57.4762C294.186 57.4762 293.082 57.1732 292.116 56.5671C291.151 55.9611 290.391 55.0993 289.837 53.9819C289.283 52.8645 289.006 51.5387 289.006 50.0046C289.006 48.4705 289.283 47.1448 289.837 46.0273C290.391 44.9099 291.151 44.0482 292.116 43.4421C293.082 42.8361 294.186 42.533 295.426 42.533C296.667 42.533 297.77 42.8361 298.736 43.4421C299.702 44.0482 300.462 44.9099 301.016 46.0273C301.57 47.1448 301.847 48.4705 301.847 50.0046ZM300.142 50.0046C300.142 48.7451 299.931 47.6822 299.51 46.8157C299.093 45.9492 298.527 45.2934 297.812 44.8484C297.102 44.4033 296.307 44.1808 295.426 44.1808C294.545 44.1808 293.748 44.4033 293.033 44.8484C292.322 45.2934 291.757 45.9492 291.335 46.8157C290.919 47.6822 290.71 48.7451 290.71 50.0046C290.71 51.2641 290.919 52.3271 291.335 53.1935C291.757 54.06 292.322 54.7158 293.033 55.1609C293.748 55.6059 294.545 55.8285 295.426 55.8285C296.307 55.8285 297.102 55.6059 297.812 55.1609C298.527 54.7158 299.093 54.06 299.51 53.1935C299.931 52.3271 300.142 51.2641 300.142 50.0046ZM316.342 42.7319V57.2773H314.638L306.712 45.8569H306.57V57.2773H304.808V42.7319H306.513L314.467 54.1808H314.609V42.7319H316.342ZM319.867 57.2773V42.7319H328.645V44.2944H321.628V49.2092H328.191V50.7717H321.628V55.7148H328.759V57.2773H319.867ZM339.775 46.3683C339.689 45.6486 339.344 45.0898 338.738 44.6921C338.132 44.2944 337.388 44.0955 336.507 44.0955C335.864 44.0955 335.3 44.1997 334.817 44.408C334.339 44.6164 333.965 44.9028 333.695 45.2674C333.43 45.632 333.297 46.0463 333.297 46.5103C333.297 46.8986 333.39 47.2324 333.574 47.5117C333.764 47.7863 334.005 48.016 334.299 48.2006C334.592 48.3806 334.9 48.5297 335.222 48.6481C335.544 48.7617 335.84 48.854 336.11 48.9251L337.587 49.3228C337.966 49.4222 338.387 49.5595 338.851 49.7347C339.32 49.9099 339.767 50.149 340.194 50.4521C340.624 50.7504 340.98 51.1339 341.259 51.6026C341.538 52.0714 341.678 52.6467 341.678 53.3285C341.678 54.1145 341.472 54.8247 341.06 55.4592C340.653 56.0936 340.056 56.5979 339.27 56.9719C338.489 57.346 337.54 57.533 336.422 57.533C335.381 57.533 334.479 57.3649 333.716 57.0288C332.959 56.6926 332.362 56.2238 331.926 55.6225C331.496 55.0212 331.252 54.3228 331.195 53.5273H333.013C333.06 54.0766 333.245 54.5311 333.567 54.891C333.894 55.2461 334.306 55.5112 334.803 55.6864C335.305 55.8569 335.845 55.9421 336.422 55.9421C337.095 55.9421 337.698 55.8332 338.233 55.6154C338.768 55.3929 339.192 55.0851 339.505 54.6921C339.817 54.2944 339.973 53.8304 339.973 53.3001C339.973 52.8171 339.838 52.4241 339.569 52.1211C339.299 51.8181 338.944 51.5719 338.503 51.3825C338.063 51.1931 337.587 51.0273 337.076 50.8853L335.286 50.3739C334.15 50.0472 333.25 49.5808 332.587 48.9748C331.924 48.3687 331.593 47.5756 331.593 46.5955C331.593 45.7811 331.813 45.0709 332.253 44.4648C332.698 43.854 333.295 43.3806 334.043 43.0444C334.796 42.7035 335.636 42.533 336.564 42.533C337.502 42.533 338.335 42.7011 339.064 43.0373C339.793 43.3687 340.371 43.8233 340.797 44.4009C341.228 44.9786 341.455 45.6344 341.479 46.3683H339.775Z" fill="black"/>
<defs>
<filter id="filter0_d_890_6376" x="37" y="10.7029" width="499.664" height="37.3987" filterUnits="userSpaceOnUse" color-interpolation-filters="sRGB">
<feFlood flood-opacity="0" result="BackgroundImageFix"/>
<feColorMatrix in="SourceAlpha" type="matrix" values="0 0 0 0 0 0 0 0 0 0 0 0 0 0 0 0 0 0 127 0" result="hardAlpha"/>
<feOffset dy="4"/>
<feGaussianBlur stdDeviation="5"/>
<feComposite in2="hardAlpha" operator="out"/>
<feColorMatrix type="matrix" values="0 0 0 0 0 0 0 0 0 0 0 0 0 0 0 0 0 0 0.5 0"/>
<feBlend mode="normal" in2="BackgroundImageFix" result="effect1_dropShadow_890_6376"/>
<feBlend mode="normal" in="SourceGraphic" in2="effect1_dropShadow_890_6376" result="shape"/>
</filter>
<linearGradient id="paint0_linear_890_6376" x1="47" y1="25.4022" x2="526.662" y2="25.4022" gradientUnits="userSpaceOnUse">
<stop offset="0.489583" stop-color="#F39200"/>
<stop offset="0.588542" stop-color="#FFECD1"/>
</linearGradient>
</defs>
</svg>
