<svg width="111" height="28" viewBox="0 0 111 28" fill="none" xmlns="http://www.w3.org/2000/svg">
<path d="M0.814808 27V0.818181H17.5875V4.79403H5.55771V11.902H16.437V15.8778H5.55771V27H0.814808ZM28.8279 27.3835C26.9103 27.3835 25.2484 26.9616 23.8422 26.1179C22.4359 25.2741 21.345 24.0937 20.5694 22.5767C19.8024 21.0597 19.4189 19.2869 19.4189 17.2585C19.4189 15.2301 19.8024 13.4531 20.5694 11.9276C21.345 10.402 22.4359 9.21733 23.8422 8.37358C25.2484 7.52983 26.9103 7.10795 28.8279 7.10795C30.7456 7.10795 32.4075 7.52983 33.8137 8.37358C35.22 9.21733 36.3066 10.402 37.0737 11.9276C37.8493 13.4531 38.237 15.2301 38.237 17.2585C38.237 19.2869 37.8493 21.0597 37.0737 22.5767C36.3066 24.0937 35.22 25.2741 33.8137 26.1179C32.4075 26.9616 30.7456 27.3835 28.8279 27.3835ZM28.8535 23.6761C29.8933 23.6761 30.7626 23.3906 31.4615 22.8196C32.1603 22.2401 32.6802 21.4645 33.0211 20.4929C33.3706 19.5213 33.5453 18.4389 33.5453 17.2457C33.5453 16.044 33.3706 14.9574 33.0211 13.9858C32.6802 13.0057 32.1603 12.2259 31.4615 11.6463C30.7626 11.0668 29.8933 10.777 28.8535 10.777C27.7882 10.777 26.9018 11.0668 26.1944 11.6463C25.4956 12.2259 24.9714 13.0057 24.622 13.9858C24.2811 14.9574 24.1106 16.044 24.1106 17.2457C24.1106 18.4389 24.2811 19.5213 24.622 20.4929C24.9714 21.4645 25.4956 22.2401 26.1944 22.8196C26.9018 23.3906 27.7882 23.6761 28.8535 23.6761ZM50.7303 27.3835C48.8127 27.3835 47.1507 26.9616 45.7445 26.1179C44.3382 25.2741 43.2473 24.0937 42.4718 22.5767C41.7047 21.0597 41.3212 19.2869 41.3212 17.2585C41.3212 15.2301 41.7047 13.4531 42.4718 11.9276C43.2473 10.402 44.3382 9.21733 45.7445 8.37358C47.1507 7.52983 48.8127 7.10795 50.7303 7.10795C52.6479 7.10795 54.3098 7.52983 55.7161 8.37358C57.1223 9.21733 58.209 10.402 58.976 11.9276C59.7516 13.4531 60.1394 15.2301 60.1394 17.2585C60.1394 19.2869 59.7516 21.0597 58.976 22.5767C58.209 24.0937 57.1223 25.2741 55.7161 26.1179C54.3098 26.9616 52.6479 27.3835 50.7303 27.3835ZM50.7559 23.6761C51.7956 23.6761 52.665 23.3906 53.3638 22.8196C54.0627 22.2401 54.5826 21.4645 54.9235 20.4929C55.2729 19.5213 55.4476 18.4389 55.4476 17.2457C55.4476 16.044 55.2729 14.9574 54.9235 13.9858C54.5826 13.0057 54.0627 12.2259 53.3638 11.6463C52.665 11.0668 51.7956 10.777 50.7559 10.777C49.6905 10.777 48.8042 11.0668 48.0968 11.6463C47.3979 12.2259 46.8738 13.0057 46.5243 13.9858C46.1834 14.9574 46.013 16.044 46.013 17.2457C46.013 18.4389 46.1834 19.5213 46.5243 20.4929C46.8738 21.4645 47.3979 22.2401 48.0968 22.8196C48.8042 23.3906 49.6905 23.6761 50.7559 23.6761ZM73.8727 7.36364V10.9432H62.5843V7.36364H73.8727ZM65.3713 2.65909H69.9991V21.0938C69.9991 21.7159 70.0929 22.1932 70.2804 22.5256C70.4764 22.8494 70.7321 23.071 71.0474 23.1903C71.3627 23.3097 71.7122 23.3693 72.0957 23.3693C72.3855 23.3693 72.6497 23.348 72.8883 23.3054C73.1355 23.2628 73.323 23.2244 73.4508 23.1903L74.2306 26.8082C73.9835 26.8935 73.6298 26.9872 73.1696 27.0895C72.7179 27.1918 72.1639 27.2514 71.5076 27.2685C70.3485 27.3026 69.3045 27.1278 68.3755 26.7443C67.4466 26.3523 66.7093 25.7472 66.1639 24.929C65.627 24.1108 65.3627 23.0881 65.3713 21.8608V2.65909ZM86.2253 27.3835C84.2566 27.3835 82.5563 26.9744 81.1245 26.1562C79.7012 25.3295 78.606 24.1619 77.839 22.6534C77.0719 21.1364 76.6884 19.3509 76.6884 17.2969C76.6884 15.277 77.0719 13.5043 77.839 11.9787C78.6145 10.4446 79.6969 9.25142 81.0861 8.39915C82.4753 7.53835 84.1074 7.10795 85.9824 7.10795C87.1926 7.10795 88.3347 7.30398 89.4086 7.69602C90.4909 8.07954 91.4455 8.67614 92.2722 9.4858C93.1074 10.2955 93.7637 11.3267 94.2409 12.5795C94.7182 13.8239 94.9569 15.3068 94.9569 17.0284V18.4474H78.8617V15.3281H90.5208C90.5123 14.4418 90.3205 13.6534 89.9455 12.9631C89.5705 12.2642 89.0463 11.7145 88.373 11.3139C87.7083 10.9134 86.9327 10.7131 86.0463 10.7131C85.1003 10.7131 84.2694 10.9432 83.5534 11.4034C82.8375 11.8551 82.2793 12.4517 81.8787 13.1932C81.4867 13.9261 81.2864 14.7315 81.2779 15.6094V18.3324C81.2779 19.4744 81.4867 20.4545 81.9043 21.2727C82.3219 22.0824 82.9057 22.7045 83.6557 23.1392C84.4057 23.5653 85.2836 23.7784 86.2892 23.7784C86.9625 23.7784 87.5719 23.6847 88.1174 23.4972C88.6628 23.3011 89.1358 23.0156 89.5364 22.6406C89.937 22.2656 90.2395 21.8011 90.4441 21.2472L94.7651 21.733C94.4924 22.875 93.9725 23.8722 93.2054 24.7244C92.4469 25.5682 91.4753 26.2244 90.2907 26.6932C89.106 27.1534 87.7509 27.3835 86.2253 27.3835ZM98.872 27V7.36364H103.359V10.6364H103.564C103.922 9.50284 104.535 8.62926 105.405 8.01562C106.282 7.39347 107.284 7.08239 108.409 7.08239C108.665 7.08239 108.95 7.09517 109.265 7.12074C109.589 7.13778 109.858 7.16761 110.071 7.21023V11.4673C109.875 11.3991 109.564 11.3395 109.138 11.2884C108.72 11.2287 108.315 11.1989 107.923 11.1989C107.079 11.1989 106.321 11.3821 105.648 11.7486C104.983 12.1065 104.459 12.6051 104.075 13.2443C103.692 13.8835 103.5 14.6207 103.5 15.456V27H98.872Z" fill="white"/>
</svg>
