<svg width="368" height="48" viewBox="0 0 368 48" fill="none" xmlns="http://www.w3.org/2000/svg">
<g filter="url(#filter0_d_890_6375)">
<rect x="4" width="360" height="40" rx="8" fill="#FFFDFB" shape-rendering="crispEdges"/>
<path d="M161.233 27H156.304V12.4545H161.332C162.776 12.4545 164.017 12.7457 165.054 13.3281C166.095 13.9058 166.896 14.7367 167.454 15.821C168.013 16.9053 168.292 18.2027 168.292 19.7131C168.292 21.2282 168.011 22.5303 167.447 23.6193C166.889 24.7083 166.081 25.544 165.025 26.1264C163.974 26.7088 162.71 27 161.233 27ZM158.939 24.7202H161.105C162.118 24.7202 162.963 24.5355 163.64 24.1662C164.318 23.7921 164.827 23.2358 165.167 22.4972C165.508 21.7538 165.679 20.8258 165.679 19.7131C165.679 18.6004 165.508 17.6771 165.167 16.9432C164.827 16.2045 164.322 15.6529 163.655 15.2884C162.992 14.919 162.168 14.7344 161.183 14.7344H158.939V24.7202ZM175.441 27.2131C174.376 27.2131 173.452 26.9787 172.671 26.5099C171.89 26.0412 171.284 25.3854 170.853 24.5426C170.427 23.6998 170.214 22.715 170.214 21.5881C170.214 20.4612 170.427 19.474 170.853 18.6264C171.284 17.7789 171.89 17.1207 172.671 16.652C173.452 16.1832 174.376 15.9489 175.441 15.9489C176.506 15.9489 177.43 16.1832 178.211 16.652C178.992 17.1207 179.596 17.7789 180.022 18.6264C180.453 19.474 180.668 20.4612 180.668 21.5881C180.668 22.715 180.453 23.6998 180.022 24.5426C179.596 25.3854 178.992 26.0412 178.211 26.5099C177.43 26.9787 176.506 27.2131 175.441 27.2131ZM175.455 25.1534C176.033 25.1534 176.516 24.9948 176.904 24.6776C177.292 24.3556 177.581 23.9247 177.77 23.3849C177.965 22.8452 178.062 22.2438 178.062 21.581C178.062 20.9134 177.965 20.3097 177.77 19.7699C177.581 19.2254 177.292 18.7921 176.904 18.4702C176.516 18.1482 176.033 17.9872 175.455 17.9872C174.863 17.9872 174.371 18.1482 173.978 18.4702C173.59 18.7921 173.298 19.2254 173.104 19.7699C172.915 20.3097 172.82 20.9134 172.82 21.581C172.82 22.2438 172.915 22.8452 173.104 23.3849C173.298 23.9247 173.59 24.3556 173.978 24.6776C174.371 24.9948 174.863 25.1534 175.455 25.1534ZM185.421 20.608V27H182.85V16.0909H185.308V17.9446H185.436C185.686 17.3338 186.087 16.8485 186.636 16.4886C187.19 16.1288 187.874 15.9489 188.688 15.9489C189.441 15.9489 190.097 16.1098 190.656 16.4318C191.219 16.7538 191.655 17.2202 191.963 17.831C192.275 18.4418 192.429 19.1828 192.424 20.054V27H189.853V20.4517C189.853 19.7225 189.664 19.152 189.285 18.7401C188.911 18.3281 188.392 18.1222 187.73 18.1222C187.28 18.1222 186.88 18.2216 186.529 18.4205C186.184 18.6146 185.911 18.8963 185.713 19.2656C185.518 19.6349 185.421 20.0824 185.421 20.608ZM198.177 27.2202C197.486 27.2202 196.863 27.0971 196.309 26.8509C195.76 26.5999 195.324 26.2306 195.002 25.7429C194.685 25.2552 194.526 24.6539 194.526 23.9389C194.526 23.3234 194.64 22.8144 194.867 22.4119C195.095 22.0095 195.405 21.6875 195.798 21.446C196.191 21.2045 196.633 21.0223 197.126 20.8991C197.623 20.7713 198.137 20.679 198.667 20.6222C199.306 20.5559 199.825 20.4967 200.222 20.4446C200.62 20.3878 200.909 20.3026 201.089 20.1889C201.274 20.0705 201.366 19.8883 201.366 19.642V19.5994C201.366 19.0644 201.207 18.6501 200.89 18.3565C200.573 18.063 200.116 17.9162 199.519 17.9162C198.89 17.9162 198.39 18.0535 198.021 18.3281C197.656 18.6027 197.41 18.9271 197.282 19.3011L194.882 18.9602C195.071 18.2973 195.383 17.7434 195.819 17.2983C196.255 16.8485 196.787 16.5123 197.417 16.2898C198.047 16.0625 198.743 15.9489 199.505 15.9489C200.031 15.9489 200.554 16.0104 201.075 16.1335C201.596 16.2566 202.071 16.4602 202.502 16.7443C202.933 17.0237 203.279 17.4048 203.539 17.8878C203.804 18.3707 203.937 18.9744 203.937 19.6989V27H201.465V25.5014H201.38C201.224 25.8045 201.004 26.0885 200.72 26.3537C200.44 26.6141 200.088 26.8248 199.661 26.9858C199.24 27.142 198.745 27.2202 198.177 27.2202ZM198.845 25.331C199.361 25.331 199.808 25.2292 200.187 25.0256C200.566 24.8172 200.857 24.5426 201.061 24.2017C201.269 23.8608 201.373 23.4891 201.373 23.0866V21.8011C201.293 21.8674 201.155 21.929 200.961 21.9858C200.772 22.0426 200.559 22.0923 200.322 22.1349C200.085 22.1776 199.851 22.2154 199.619 22.2486C199.387 22.2817 199.186 22.3101 199.015 22.3338C198.632 22.3859 198.288 22.4711 197.985 22.5895C197.682 22.7079 197.443 22.8736 197.268 23.0866C197.093 23.295 197.005 23.5649 197.005 23.8963C197.005 24.3698 197.178 24.7273 197.524 24.9688C197.869 25.2102 198.31 25.331 198.845 25.331ZM206.522 27V16.0909H209.015V17.9091H209.129C209.328 17.2794 209.669 16.794 210.151 16.4531C210.639 16.1075 211.195 15.9347 211.82 15.9347C211.963 15.9347 212.121 15.9418 212.296 15.956C212.476 15.9654 212.625 15.982 212.744 16.0057V18.3707C212.635 18.3329 212.462 18.2997 212.225 18.2713C211.993 18.2382 211.768 18.2216 211.551 18.2216C211.082 18.2216 210.66 18.3234 210.286 18.527C209.917 18.7259 209.626 19.0028 209.413 19.358C209.2 19.7131 209.093 20.1226 209.093 20.5866V27H206.522Z" fill="#F39200"/>
</g>
<defs>
<filter id="filter0_d_890_6375" x="0" y="0" width="368" height="48" filterUnits="userSpaceOnUse" color-interpolation-filters="sRGB">
<feFlood flood-opacity="0" result="BackgroundImageFix"/>
<feColorMatrix in="SourceAlpha" type="matrix" values="0 0 0 0 0 0 0 0 0 0 0 0 0 0 0 0 0 0 127 0" result="hardAlpha"/>
<feOffset dy="4"/>
<feGaussianBlur stdDeviation="2"/>
<feComposite in2="hardAlpha" operator="out"/>
<feColorMatrix type="matrix" values="0 0 0 0 0 0 0 0 0 0 0 0 0 0 0 0 0 0 0.25 0"/>
<feBlend mode="normal" in2="BackgroundImageFix" result="effect1_dropShadow_890_6375"/>
<feBlend mode="normal" in="SourceGraphic" in2="effect1_dropShadow_890_6375" result="shape"/>
</filter>
</defs>
</svg>
