<svg width="128" height="48" viewBox="0 0 128 48" fill="none" xmlns="http://www.w3.org/2000/svg">
<g filter="url(#filter0_d_890_6373)">
<rect x="4" width="120" height="40" rx="8" fill="#FBFAFA" shape-rendering="crispEdges"/>
<path d="M38.6332 31.1818V9.36364H40.0309V31.1818H38.6332ZM42.6644 16.3438C42.5849 15.5994 42.2496 15.0199 41.6587 14.6051C41.0735 14.1903 40.3121 13.983 39.3746 13.983C38.7156 13.983 38.1502 14.0824 37.6786 14.2812C37.207 14.4801 36.8462 14.75 36.5962 15.0909C36.3462 15.4318 36.2184 15.821 36.2127 16.2585C36.2127 16.6222 36.2951 16.9375 36.4599 17.2045C36.6303 17.4716 36.8604 17.6989 37.1502 17.8864C37.44 18.0682 37.761 18.2216 38.1133 18.3466C38.4656 18.4716 38.8207 18.5767 39.1786 18.6619L40.815 19.071C41.4741 19.2244 42.1076 19.4318 42.7156 19.6932C43.3292 19.9545 43.8775 20.2841 44.3604 20.6818C44.8491 21.0795 45.2354 21.5597 45.5195 22.1222C45.8036 22.6847 45.9457 23.3437 45.9457 24.0994C45.9457 25.1222 45.6843 26.0227 45.1616 26.8011C44.6389 27.5739 43.8832 28.179 42.8945 28.6165C41.9116 29.0483 40.7212 29.2642 39.3235 29.2642C37.9656 29.2642 36.7866 29.054 35.7866 28.6335C34.7923 28.2131 34.0138 27.5994 33.4513 26.7926C32.8945 25.9858 32.5934 25.0028 32.5479 23.8438H35.6587C35.7042 24.4517 35.8917 24.9574 36.2212 25.3608C36.5508 25.7642 36.9798 26.0653 37.5082 26.2642C38.0423 26.4631 38.6388 26.5625 39.2979 26.5625C39.9854 26.5625 40.5877 26.4602 41.1048 26.2557C41.6275 26.0455 42.0366 25.7557 42.332 25.3864C42.6275 25.0114 42.7781 24.5739 42.7837 24.0739C42.7781 23.6193 42.6445 23.2443 42.3832 22.9489C42.1218 22.6477 41.7553 22.3977 41.2837 22.1989C40.8178 21.9943 40.2724 21.8125 39.6474 21.6534L37.6616 21.142C36.2241 20.7727 35.0877 20.2131 34.2525 19.4631C33.4229 18.7074 33.0082 17.7045 33.0082 16.4545C33.0082 15.4261 33.2866 14.5256 33.8434 13.7528C34.4059 12.9801 35.1701 12.3807 36.136 11.9545C37.1019 11.5227 38.1957 11.3068 39.4173 11.3068C40.6559 11.3068 41.7411 11.5227 42.6729 11.9545C43.6104 12.3807 44.3462 12.9744 44.8803 13.7358C45.4144 14.4915 45.69 15.3608 45.707 16.3438H42.6644ZM61.6467 11.5455V29H58.4847V14.6222H58.3825L54.3001 17.2301V14.3324L58.6381 11.5455H61.6467ZM72.5302 29.3324C71.1268 29.3324 69.9222 28.9773 68.9165 28.267C67.9165 27.5511 67.1467 26.5199 66.6069 25.1733C66.0728 23.821 65.8058 22.1932 65.8058 20.2898C65.8114 18.3864 66.0813 16.767 66.6154 15.4318C67.1552 14.0909 67.9251 13.0682 68.9251 12.3636C69.9308 11.6591 71.1325 11.3068 72.5302 11.3068C73.9279 11.3068 75.1296 11.6591 76.1353 12.3636C77.141 13.0682 77.9109 14.0909 78.445 15.4318C78.9847 16.7727 79.2546 18.392 79.2546 20.2898C79.2546 22.1989 78.9847 23.8295 78.445 25.1818C77.9109 26.5284 77.141 27.5568 76.1353 28.267C75.1353 28.9773 73.9336 29.3324 72.5302 29.3324ZM72.5302 26.6648C73.6211 26.6648 74.4819 26.1278 75.1126 25.054C75.7489 23.9744 76.0671 22.3864 76.0671 20.2898C76.0671 18.9034 75.9222 17.7386 75.6325 16.7955C75.3427 15.8523 74.9336 15.142 74.4052 14.6648C73.8768 14.1818 73.2518 13.9403 72.5302 13.9403C71.445 13.9403 70.587 14.4801 69.9563 15.5597C69.3256 16.6335 69.0075 18.2102 69.0018 20.2898C68.9961 21.6818 69.1353 22.8523 69.4194 23.8011C69.7092 24.75 70.1183 25.4659 70.6467 25.9489C71.1751 26.4261 71.8029 26.6648 72.5302 26.6648ZM88.538 29.3324C87.1346 29.3324 85.93 28.9773 84.9244 28.267C83.9244 27.5511 83.1545 26.5199 82.6147 25.1733C82.0806 23.821 81.8136 22.1932 81.8136 20.2898C81.8192 18.3864 82.0891 16.767 82.6232 15.4318C83.163 14.0909 83.9329 13.0682 84.9329 12.3636C85.9386 11.6591 87.1403 11.3068 88.538 11.3068C89.9357 11.3068 91.1374 11.6591 92.1431 12.3636C93.1488 13.0682 93.9187 14.0909 94.4528 15.4318C94.9925 16.7727 95.2624 18.392 95.2624 20.2898C95.2624 22.1989 94.9925 23.8295 94.4528 25.1818C93.9187 26.5284 93.1488 27.5568 92.1431 28.267C91.1431 28.9773 89.9414 29.3324 88.538 29.3324ZM88.538 26.6648C89.6289 26.6648 90.4897 26.1278 91.1204 25.054C91.7567 23.9744 92.0749 22.3864 92.0749 20.2898C92.0749 18.9034 91.93 17.7386 91.6403 16.7955C91.3505 15.8523 90.9414 15.142 90.413 14.6648C89.8846 14.1818 89.2596 13.9403 88.538 13.9403C87.4528 13.9403 86.5948 14.4801 85.9641 15.5597C85.3335 16.6335 85.0153 18.2102 85.0096 20.2898C85.0039 21.6818 85.1431 22.8523 85.4272 23.8011C85.717 24.75 86.1261 25.4659 86.6545 25.9489C87.1829 26.4261 87.8107 26.6648 88.538 26.6648Z" fill="#F39200"/>
</g>
<defs>
<filter id="filter0_d_890_6373" x="0" y="0" width="128" height="48" filterUnits="userSpaceOnUse" color-interpolation-filters="sRGB">
<feFlood flood-opacity="0" result="BackgroundImageFix"/>
<feColorMatrix in="SourceAlpha" type="matrix" values="0 0 0 0 0 0 0 0 0 0 0 0 0 0 0 0 0 0 127 0" result="hardAlpha"/>
<feOffset dy="4"/>
<feGaussianBlur stdDeviation="2"/>
<feComposite in2="hardAlpha" operator="out"/>
<feColorMatrix type="matrix" values="0 0 0 0 0 0 0 0 0 0 0 0 0 0 0 0 0 0 0.25 0"/>
<feBlend mode="normal" in2="BackgroundImageFix" result="effect1_dropShadow_890_6373"/>
<feBlend mode="normal" in="SourceGraphic" in2="effect1_dropShadow_890_6373" result="shape"/>
</filter>
</defs>
</svg>
