<svg width="480" height="628" viewBox="0 0 480 628" fill="none" xmlns="http://www.w3.org/2000/svg">
<g filter="url(#filter0_d_890_6367)">
<rect x="12" y="12" width="416" height="564" fill="url(#paint0_linear_890_6367)"/>
</g>
<g filter="url(#filter1_d_890_6367)">
<rect x="40" y="476" width="360" height="40" rx="8" fill="#FFFDFB" shape-rendering="crispEdges"/>
<path d="M197.233 503H192.304V488.455H197.332C198.776 488.455 200.017 488.746 201.054 489.328C202.095 489.906 202.896 490.737 203.454 491.821C204.013 492.905 204.292 494.203 204.292 495.713C204.292 497.228 204.011 498.53 203.447 499.619C202.889 500.708 202.081 501.544 201.025 502.126C199.974 502.709 198.71 503 197.233 503ZM194.939 500.72H197.105C198.118 500.72 198.963 500.536 199.64 500.166C200.318 499.792 200.827 499.236 201.167 498.497C201.508 497.754 201.679 496.826 201.679 495.713C201.679 494.6 201.508 493.677 201.167 492.943C200.827 492.205 200.322 491.653 199.655 491.288C198.992 490.919 198.168 490.734 197.183 490.734H194.939V500.72ZM211.441 503.213C210.376 503.213 209.452 502.979 208.671 502.51C207.89 502.041 207.284 501.385 206.853 500.543C206.427 499.7 206.214 498.715 206.214 497.588C206.214 496.461 206.427 495.474 206.853 494.626C207.284 493.779 207.89 493.121 208.671 492.652C209.452 492.183 210.376 491.949 211.441 491.949C212.506 491.949 213.43 492.183 214.211 492.652C214.992 493.121 215.596 493.779 216.022 494.626C216.453 495.474 216.668 496.461 216.668 497.588C216.668 498.715 216.453 499.7 216.022 500.543C215.596 501.385 214.992 502.041 214.211 502.51C213.43 502.979 212.506 503.213 211.441 503.213ZM211.455 501.153C212.033 501.153 212.516 500.995 212.904 500.678C213.292 500.356 213.581 499.925 213.77 499.385C213.965 498.845 214.062 498.244 214.062 497.581C214.062 496.913 213.965 496.31 213.77 495.77C213.581 495.225 213.292 494.792 212.904 494.47C212.516 494.148 212.033 493.987 211.455 493.987C210.863 493.987 210.371 494.148 209.978 494.47C209.59 494.792 209.298 495.225 209.104 495.77C208.915 496.31 208.82 496.913 208.82 497.581C208.82 498.244 208.915 498.845 209.104 499.385C209.298 499.925 209.59 500.356 209.978 500.678C210.371 500.995 210.863 501.153 211.455 501.153ZM221.421 496.608V503H218.85V492.091H221.308V493.945H221.436C221.686 493.334 222.087 492.848 222.636 492.489C223.19 492.129 223.874 491.949 224.688 491.949C225.441 491.949 226.097 492.11 226.656 492.432C227.219 492.754 227.655 493.22 227.963 493.831C228.275 494.442 228.429 495.183 228.424 496.054V503H225.853V496.452C225.853 495.723 225.664 495.152 225.285 494.74C224.911 494.328 224.392 494.122 223.73 494.122C223.28 494.122 222.88 494.222 222.529 494.42C222.184 494.615 221.911 494.896 221.713 495.266C221.518 495.635 221.421 496.082 221.421 496.608ZM234.177 503.22C233.486 503.22 232.863 503.097 232.309 502.851C231.76 502.6 231.324 502.231 231.002 501.743C230.685 501.255 230.526 500.654 230.526 499.939C230.526 499.323 230.64 498.814 230.867 498.412C231.095 498.009 231.405 497.688 231.798 497.446C232.191 497.205 232.633 497.022 233.126 496.899C233.623 496.771 234.137 496.679 234.667 496.622C235.306 496.556 235.825 496.497 236.222 496.445C236.62 496.388 236.909 496.303 237.089 496.189C237.274 496.071 237.366 495.888 237.366 495.642V495.599C237.366 495.064 237.207 494.65 236.89 494.357C236.573 494.063 236.116 493.916 235.519 493.916C234.89 493.916 234.39 494.054 234.021 494.328C233.656 494.603 233.41 494.927 233.282 495.301L230.882 494.96C231.071 494.297 231.383 493.743 231.819 493.298C232.255 492.848 232.787 492.512 233.417 492.29C234.047 492.062 234.743 491.949 235.505 491.949C236.031 491.949 236.554 492.01 237.075 492.134C237.596 492.257 238.071 492.46 238.502 492.744C238.933 493.024 239.279 493.405 239.539 493.888C239.804 494.371 239.937 494.974 239.937 495.699V503H237.465V501.501H237.38C237.224 501.804 237.004 502.089 236.72 502.354C236.44 502.614 236.088 502.825 235.661 502.986C235.24 503.142 234.745 503.22 234.177 503.22ZM234.845 501.331C235.361 501.331 235.808 501.229 236.187 501.026C236.566 500.817 236.857 500.543 237.061 500.202C237.269 499.861 237.373 499.489 237.373 499.087V497.801C237.293 497.867 237.155 497.929 236.961 497.986C236.772 498.043 236.559 498.092 236.322 498.135C236.085 498.178 235.851 498.215 235.619 498.249C235.387 498.282 235.186 498.31 235.015 498.334C234.632 498.386 234.288 498.471 233.985 498.589C233.682 498.708 233.443 498.874 233.268 499.087C233.093 499.295 233.005 499.565 233.005 499.896C233.005 500.37 233.178 500.727 233.524 500.969C233.869 501.21 234.31 501.331 234.845 501.331ZM242.522 503V492.091H245.015V493.909H245.129C245.328 493.279 245.669 492.794 246.151 492.453C246.639 492.107 247.195 491.935 247.82 491.935C247.963 491.935 248.121 491.942 248.296 491.956C248.476 491.965 248.625 491.982 248.744 492.006V494.371C248.635 494.333 248.462 494.3 248.225 494.271C247.993 494.238 247.768 494.222 247.551 494.222C247.082 494.222 246.66 494.323 246.286 494.527C245.917 494.726 245.626 495.003 245.413 495.358C245.2 495.713 245.093 496.123 245.093 496.587V503H242.522Z" fill="#F39200"/>
</g>
<path d="M41 384C41 380.134 44.134 377 48 377H390C394.971 377 399 381.029 399 386V406C399 410.971 394.971 415 390 415H50C45.0294 415 41 410.971 41 406V384Z" fill="#FFFDFB" stroke="#B9A78E" stroke-width="2"/>
<path d="M375 392L367 400" stroke="black" stroke-width="1.6" stroke-linecap="square"/>
<path d="M367 392L375 400" stroke="black" stroke-width="1.6" stroke-linecap="square"/>
<path d="M68.7564 396.182C68.7564 397.436 68.5215 398.509 68.0518 399.403C67.5859 400.294 66.9496 400.975 66.1428 401.449C65.3397 401.922 64.4287 402.159 63.4098 402.159C62.3909 402.159 61.478 401.922 60.6712 401.449C59.8681 400.972 59.2318 400.288 58.7621 399.398C58.2962 398.504 58.0632 397.432 58.0632 396.182C58.0632 394.928 58.2962 393.856 58.7621 392.966C59.2318 392.072 59.8681 391.388 60.6712 390.915C61.478 390.441 62.3909 390.205 63.4098 390.205C64.4287 390.205 65.3397 390.441 66.1428 390.915C66.9496 391.388 67.5859 392.072 68.0518 392.966C68.5215 393.856 68.7564 394.928 68.7564 396.182ZM66.6371 396.182C66.6371 395.299 66.4988 394.555 66.2223 393.949C65.9496 393.339 65.5708 392.879 65.0859 392.568C64.6011 392.254 64.0424 392.097 63.4098 392.097C62.7772 392.097 62.2185 392.254 61.7337 392.568C61.2488 392.879 60.8681 393.339 60.5916 393.949C60.3189 394.555 60.1825 395.299 60.1825 396.182C60.1825 397.064 60.3189 397.811 60.5916 398.42C60.8681 399.027 61.2488 399.487 61.7337 399.801C62.2185 400.112 62.7772 400.267 63.4098 400.267C64.0424 400.267 64.6011 400.112 65.0859 399.801C65.5708 399.487 65.9496 399.027 66.2223 398.42C66.4988 397.811 66.6371 397.064 66.6371 396.182ZM75.0163 393.273V394.864H69.9993V393.273H75.0163ZM71.2379 391.182H73.2947V399.375C73.2947 399.652 73.3364 399.864 73.4197 400.011C73.5069 400.155 73.6205 400.254 73.7607 400.307C73.9008 400.36 74.0561 400.386 74.2266 400.386C74.3554 400.386 74.4728 400.377 74.5788 400.358C74.6887 400.339 74.772 400.322 74.8288 400.307L75.1754 401.915C75.0656 401.953 74.9084 401.994 74.7038 402.04C74.5031 402.085 74.2569 402.112 73.9652 402.119C73.45 402.134 72.986 402.057 72.5732 401.886C72.1603 401.712 71.8326 401.443 71.5902 401.08C71.3516 400.716 71.2341 400.261 71.2379 399.716V391.182ZM76.7365 402V393.273H78.7308V394.727H78.8217C78.9808 394.223 79.2536 393.835 79.6399 393.562C80.0301 393.286 80.4751 393.148 80.9751 393.148C81.0888 393.148 81.2157 393.153 81.3558 393.165C81.4998 393.172 81.6191 393.186 81.7138 393.205V395.097C81.6267 395.066 81.4884 395.04 81.299 395.017C81.1134 394.991 80.9335 394.977 80.7592 394.977C80.3842 394.977 80.0471 395.059 79.7479 395.222C79.4524 395.381 79.2195 395.602 79.049 395.886C78.8786 396.17 78.7933 396.498 78.7933 396.869V402H76.7365ZM85.4354 402.176C84.8823 402.176 84.3842 402.078 83.9411 401.881C83.5017 401.68 83.1532 401.384 82.8956 400.994C82.6418 400.604 82.5149 400.123 82.5149 399.551C82.5149 399.059 82.6058 398.652 82.7876 398.33C82.9695 398.008 83.2176 397.75 83.532 397.557C83.8464 397.364 84.2005 397.218 84.5945 397.119C84.9922 397.017 85.4032 396.943 85.8274 396.898C86.3388 396.845 86.7536 396.797 87.0717 396.756C87.3899 396.71 87.621 396.642 87.7649 396.551C87.9126 396.456 87.9865 396.311 87.9865 396.114V396.08C87.9865 395.652 87.8596 395.32 87.6058 395.085C87.352 394.85 86.9865 394.733 86.5092 394.733C86.0054 394.733 85.6058 394.843 85.3104 395.062C85.0187 395.282 84.8217 395.542 84.7195 395.841L82.799 395.568C82.9505 395.038 83.2005 394.595 83.549 394.239C83.8975 393.879 84.3236 393.61 84.8274 393.432C85.3312 393.25 85.888 393.159 86.4979 393.159C86.9183 393.159 87.3369 393.208 87.7536 393.307C88.1702 393.405 88.5509 393.568 88.8956 393.795C89.2403 394.019 89.5168 394.324 89.7251 394.71C89.9373 395.097 90.0433 395.58 90.0433 396.159V402H88.0661V400.801H87.9979C87.8729 401.044 87.6967 401.271 87.4695 401.483C87.246 401.691 86.9638 401.86 86.6229 401.989C86.2857 402.114 85.8899 402.176 85.4354 402.176ZM85.9695 400.665C86.3823 400.665 86.7403 400.583 87.0433 400.42C87.3464 400.254 87.5793 400.034 87.7422 399.761C87.9089 399.489 87.9922 399.191 87.9922 398.869V397.841C87.9278 397.894 87.8179 397.943 87.6626 397.989C87.5111 398.034 87.3407 398.074 87.1513 398.108C86.9619 398.142 86.7744 398.172 86.5888 398.199C86.4032 398.225 86.2422 398.248 86.1058 398.267C85.799 398.309 85.5244 398.377 85.282 398.472C85.0395 398.566 84.8482 398.699 84.7081 398.869C84.5679 399.036 84.4979 399.252 84.4979 399.517C84.4979 399.896 84.6361 400.182 84.9126 400.375C85.1892 400.568 85.5414 400.665 85.9695 400.665ZM99.8871 402.17C99.0159 402.17 98.2678 401.979 97.6428 401.597C97.0215 401.214 96.5424 400.686 96.2053 400.011C95.8719 399.333 95.7053 398.553 95.7053 397.67C95.7053 396.784 95.8757 396.002 96.2166 395.324C96.5575 394.642 97.0386 394.112 97.6598 393.733C98.2848 393.35 99.0234 393.159 99.8757 393.159C100.584 393.159 101.211 393.29 101.756 393.551C102.306 393.809 102.743 394.174 103.069 394.648C103.395 395.117 103.58 395.667 103.626 396.295H101.66C101.58 395.875 101.391 395.525 101.092 395.244C100.796 394.96 100.4 394.818 99.9041 394.818C99.4837 394.818 99.1143 394.932 98.7962 395.159C98.478 395.383 98.2299 395.705 98.0518 396.125C97.8776 396.545 97.7905 397.049 97.7905 397.636C97.7905 398.231 97.8776 398.742 98.0518 399.17C98.2261 399.595 98.4704 399.922 98.7848 400.153C99.103 400.381 99.4761 400.494 99.9041 400.494C100.207 400.494 100.478 400.437 100.717 400.324C100.959 400.206 101.162 400.038 101.325 399.818C101.487 399.598 101.599 399.331 101.66 399.017H103.626C103.576 399.634 103.395 400.182 103.08 400.659C102.766 401.133 102.338 401.504 101.796 401.773C101.254 402.038 100.618 402.17 99.8871 402.17ZM107.826 402.176C107.273 402.176 106.775 402.078 106.332 401.881C105.892 401.68 105.544 401.384 105.286 400.994C105.032 400.604 104.906 400.123 104.906 399.551C104.906 399.059 104.996 398.652 105.178 398.33C105.36 398.008 105.608 397.75 105.923 397.557C106.237 397.364 106.591 397.218 106.985 397.119C107.383 397.017 107.794 396.943 108.218 396.898C108.729 396.845 109.144 396.797 109.462 396.756C109.781 396.71 110.012 396.642 110.156 396.551C110.303 396.456 110.377 396.311 110.377 396.114V396.08C110.377 395.652 110.25 395.32 109.996 395.085C109.743 394.85 109.377 394.733 108.9 394.733C108.396 394.733 107.996 394.843 107.701 395.062C107.409 395.282 107.212 395.542 107.11 395.841L105.19 395.568C105.341 395.038 105.591 394.595 105.94 394.239C106.288 393.879 106.714 393.61 107.218 393.432C107.722 393.25 108.279 393.159 108.888 393.159C109.309 393.159 109.728 393.208 110.144 393.307C110.561 393.405 110.942 393.568 111.286 393.795C111.631 394.019 111.907 394.324 112.116 394.71C112.328 395.097 112.434 395.58 112.434 396.159V402H110.457V400.801H110.388C110.263 401.044 110.087 401.271 109.86 401.483C109.637 401.691 109.354 401.86 109.013 401.989C108.676 402.114 108.281 402.176 107.826 402.176ZM108.36 400.665C108.773 400.665 109.131 400.583 109.434 400.42C109.737 400.254 109.97 400.034 110.133 399.761C110.299 399.489 110.383 399.191 110.383 398.869V397.841C110.318 397.894 110.209 397.943 110.053 397.989C109.902 398.034 109.731 398.074 109.542 398.108C109.353 398.142 109.165 398.172 108.979 398.199C108.794 398.225 108.633 398.248 108.496 398.267C108.19 398.309 107.915 398.377 107.673 398.472C107.43 398.566 107.239 398.699 107.099 398.869C106.959 399.036 106.888 399.252 106.888 399.517C106.888 399.896 107.027 400.182 107.303 400.375C107.58 400.568 107.932 400.665 108.36 400.665ZM116.559 396.886V402H114.502V393.273H116.468V394.756H116.57C116.771 394.267 117.091 393.879 117.531 393.591C117.974 393.303 118.521 393.159 119.173 393.159C119.775 393.159 120.299 393.288 120.746 393.545C121.197 393.803 121.546 394.176 121.792 394.665C122.042 395.153 122.165 395.746 122.161 396.443V402H120.104V396.761C120.104 396.178 119.953 395.722 119.65 395.392C119.351 395.062 118.936 394.898 118.406 394.898C118.046 394.898 117.726 394.977 117.445 395.136C117.169 395.292 116.951 395.517 116.792 395.812C116.637 396.108 116.559 396.466 116.559 396.886ZM128.61 393.273V394.864H123.593V393.273H128.61ZM124.832 391.182H126.888V399.375C126.888 399.652 126.93 399.864 127.013 400.011C127.101 400.155 127.214 400.254 127.354 400.307C127.495 400.36 127.65 400.386 127.82 400.386C127.949 400.386 128.067 400.377 128.173 400.358C128.282 400.339 128.366 400.322 128.423 400.307L128.769 401.915C128.659 401.953 128.502 401.994 128.298 402.04C128.097 402.085 127.851 402.112 127.559 402.119C127.044 402.134 126.58 402.057 126.167 401.886C125.754 401.712 125.426 401.443 125.184 401.08C124.945 400.716 124.828 400.261 124.832 399.716V391.182ZM130.33 402V393.273H132.387V402H130.33ZM131.364 392.034C131.039 392.034 130.758 391.926 130.523 391.71C130.289 391.491 130.171 391.227 130.171 390.92C130.171 390.61 130.289 390.347 130.523 390.131C130.758 389.911 131.039 389.801 131.364 389.801C131.694 389.801 131.974 389.911 132.205 390.131C132.44 390.347 132.558 390.61 132.558 390.92C132.558 391.227 132.44 391.491 132.205 391.71C131.974 391.926 131.694 392.034 131.364 392.034ZM137.741 402.153C137.055 402.153 136.442 401.977 135.9 401.625C135.358 401.273 134.93 400.761 134.616 400.091C134.301 399.42 134.144 398.606 134.144 397.648C134.144 396.678 134.303 395.86 134.621 395.193C134.943 394.523 135.377 394.017 135.923 393.676C136.468 393.331 137.076 393.159 137.746 393.159C138.258 393.159 138.678 393.246 139.008 393.42C139.337 393.591 139.599 393.797 139.792 394.04C139.985 394.278 140.135 394.504 140.241 394.716H140.326V390.364H142.388V402H140.366V400.625H140.241C140.135 400.837 139.981 401.062 139.781 401.301C139.58 401.536 139.315 401.737 138.985 401.903C138.656 402.07 138.241 402.153 137.741 402.153ZM138.315 400.466C138.75 400.466 139.121 400.348 139.428 400.114C139.735 399.875 139.968 399.544 140.127 399.119C140.286 398.695 140.366 398.201 140.366 397.636C140.366 397.072 140.286 396.581 140.127 396.165C139.972 395.748 139.741 395.424 139.434 395.193C139.131 394.962 138.758 394.847 138.315 394.847C137.856 394.847 137.474 394.966 137.167 395.205C136.86 395.443 136.629 395.773 136.474 396.193C136.318 396.614 136.241 397.095 136.241 397.636C136.241 398.182 136.318 398.669 136.474 399.097C136.633 399.521 136.866 399.856 137.173 400.102C137.483 400.345 137.864 400.466 138.315 400.466ZM147.092 402.176C146.539 402.176 146.04 402.078 145.597 401.881C145.158 401.68 144.809 401.384 144.552 400.994C144.298 400.604 144.171 400.123 144.171 399.551C144.171 399.059 144.262 398.652 144.444 398.33C144.626 398.008 144.874 397.75 145.188 397.557C145.503 397.364 145.857 397.218 146.251 397.119C146.648 397.017 147.059 396.943 147.484 396.898C147.995 396.845 148.41 396.797 148.728 396.756C149.046 396.71 149.277 396.642 149.421 396.551C149.569 396.456 149.643 396.311 149.643 396.114V396.08C149.643 395.652 149.516 395.32 149.262 395.085C149.008 394.85 148.643 394.733 148.165 394.733C147.662 394.733 147.262 394.843 146.967 395.062C146.675 395.282 146.478 395.542 146.376 395.841L144.455 395.568C144.607 395.038 144.857 394.595 145.205 394.239C145.554 393.879 145.98 393.61 146.484 393.432C146.987 393.25 147.544 393.159 148.154 393.159C148.575 393.159 148.993 393.208 149.41 393.307C149.826 393.405 150.207 393.568 150.552 393.795C150.897 394.019 151.173 394.324 151.381 394.71C151.594 395.097 151.7 395.58 151.7 396.159V402H149.722V400.801H149.654C149.529 401.044 149.353 401.271 149.126 401.483C148.902 401.691 148.62 401.86 148.279 401.989C147.942 402.114 147.546 402.176 147.092 402.176ZM147.626 400.665C148.039 400.665 148.397 400.583 148.7 400.42C149.003 400.254 149.236 400.034 149.398 399.761C149.565 399.489 149.648 399.191 149.648 398.869V397.841C149.584 397.894 149.474 397.943 149.319 397.989C149.167 398.034 148.997 398.074 148.808 398.108C148.618 398.142 148.431 398.172 148.245 398.199C148.059 398.225 147.898 398.248 147.762 398.267C147.455 398.309 147.181 398.377 146.938 398.472C146.696 398.566 146.504 398.699 146.364 398.869C146.224 399.036 146.154 399.252 146.154 399.517C146.154 399.896 146.292 400.182 146.569 400.375C146.845 400.568 147.198 400.665 147.626 400.665ZM157.006 402.153C156.321 402.153 155.707 401.977 155.165 401.625C154.624 401.273 154.196 400.761 153.881 400.091C153.567 399.42 153.41 398.606 153.41 397.648C153.41 396.678 153.569 395.86 153.887 395.193C154.209 394.523 154.643 394.017 155.188 393.676C155.734 393.331 156.342 393.159 157.012 393.159C157.523 393.159 157.944 393.246 158.273 393.42C158.603 393.591 158.864 393.797 159.058 394.04C159.251 394.278 159.4 394.504 159.506 394.716H159.592V390.364H161.654V402H159.631V400.625H159.506C159.4 400.837 159.247 401.062 159.046 401.301C158.845 401.536 158.58 401.737 158.251 401.903C157.921 402.07 157.506 402.153 157.006 402.153ZM157.58 400.466C158.016 400.466 158.387 400.348 158.694 400.114C159.001 399.875 159.234 399.544 159.393 399.119C159.552 398.695 159.631 398.201 159.631 397.636C159.631 397.072 159.552 396.581 159.393 396.165C159.237 395.748 159.006 395.424 158.7 395.193C158.397 394.962 158.023 394.847 157.58 394.847C157.122 394.847 156.739 394.966 156.433 395.205C156.126 395.443 155.895 395.773 155.739 396.193C155.584 396.614 155.506 397.095 155.506 397.636C155.506 398.182 155.584 398.669 155.739 399.097C155.898 399.521 156.131 399.856 156.438 400.102C156.749 400.345 157.129 400.466 157.58 400.466Z" fill="#4B4B4B"/>
<g filter="url(#filter2_d_890_6367)">
<rect x="40" y="176" width="120" height="40" rx="8" fill="#FBFAFA" shape-rendering="crispEdges"/>
<path d="M82.6371 207.182V185.364H84.0348V207.182H82.6371ZM86.6683 192.344C86.5888 191.599 86.2536 191.02 85.6626 190.605C85.0774 190.19 84.3161 189.983 83.3786 189.983C82.7195 189.983 82.1541 190.082 81.6825 190.281C81.2109 190.48 80.8501 190.75 80.6001 191.091C80.3501 191.432 80.2223 191.821 80.2166 192.259C80.2166 192.622 80.299 192.937 80.4638 193.205C80.6342 193.472 80.8643 193.699 81.1541 193.886C81.4439 194.068 81.7649 194.222 82.1172 194.347C82.4695 194.472 82.8246 194.577 83.1825 194.662L84.8189 195.071C85.478 195.224 86.1115 195.432 86.7195 195.693C87.3331 195.955 87.8814 196.284 88.3643 196.682C88.853 197.08 89.2393 197.56 89.5234 198.122C89.8075 198.685 89.9496 199.344 89.9496 200.099C89.9496 201.122 89.6882 202.023 89.1655 202.801C88.6428 203.574 87.8871 204.179 86.8984 204.616C85.9155 205.048 84.7251 205.264 83.3274 205.264C81.9695 205.264 80.7905 205.054 79.7905 204.634C78.7962 204.213 78.0178 203.599 77.4553 202.793C76.8984 201.986 76.5973 201.003 76.5518 199.844H79.6626C79.7081 200.452 79.8956 200.957 80.2251 201.361C80.5547 201.764 80.9837 202.065 81.5121 202.264C82.0462 202.463 82.6428 202.562 83.3018 202.562C83.9893 202.562 84.5916 202.46 85.1087 202.256C85.6314 202.045 86.0405 201.756 86.3359 201.386C86.6314 201.011 86.782 200.574 86.7876 200.074C86.782 199.619 86.6484 199.244 86.3871 198.949C86.1257 198.648 85.7592 198.398 85.2876 198.199C84.8217 197.994 84.2763 197.812 83.6513 197.653L81.6655 197.142C80.228 196.773 79.0916 196.213 78.2564 195.463C77.4268 194.707 77.0121 193.705 77.0121 192.455C77.0121 191.426 77.2905 190.526 77.8473 189.753C78.4098 188.98 79.174 188.381 80.1399 187.955C81.1058 187.523 82.1996 187.307 83.4212 187.307C84.6598 187.307 85.745 187.523 86.6768 187.955C87.6143 188.381 88.3501 188.974 88.8842 189.736C89.4183 190.491 89.6939 191.361 89.7109 192.344H86.6683ZM105.651 187.545V205H102.489V190.622H102.386L98.304 193.23V190.332L102.642 187.545H105.651ZM116.534 205.332C115.131 205.332 113.926 204.977 112.92 204.267C111.92 203.551 111.151 202.52 110.611 201.173C110.077 199.821 109.81 198.193 109.81 196.29C109.815 194.386 110.085 192.767 110.619 191.432C111.159 190.091 111.929 189.068 112.929 188.364C113.935 187.659 115.136 187.307 116.534 187.307C117.932 187.307 119.134 187.659 120.139 188.364C121.145 189.068 121.915 190.091 122.449 191.432C122.989 192.773 123.259 194.392 123.259 196.29C123.259 198.199 122.989 199.83 122.449 201.182C121.915 202.528 121.145 203.557 120.139 204.267C119.139 204.977 117.938 205.332 116.534 205.332ZM116.534 202.665C117.625 202.665 118.486 202.128 119.116 201.054C119.753 199.974 120.071 198.386 120.071 196.29C120.071 194.903 119.926 193.739 119.636 192.795C119.347 191.852 118.938 191.142 118.409 190.665C117.881 190.182 117.256 189.94 116.534 189.94C115.449 189.94 114.591 190.48 113.96 191.56C113.33 192.634 113.011 194.21 113.006 196.29C113 197.682 113.139 198.852 113.423 199.801C113.713 200.75 114.122 201.466 114.651 201.949C115.179 202.426 115.807 202.665 116.534 202.665Z" fill="#F39200"/>
</g>
<g filter="url(#filter3_d_890_6367)">
<rect x="280" y="176" width="120" height="40" rx="8" fill="#FBFAFA" shape-rendering="crispEdges"/>
<path d="M320.95 207.182V185.364H322.347V207.182H320.95ZM324.981 192.344C324.901 191.599 324.566 191.02 323.975 190.605C323.39 190.19 322.629 189.983 321.691 189.983C321.032 189.983 320.467 190.082 319.995 190.281C319.523 190.48 319.163 190.75 318.913 191.091C318.663 191.432 318.535 191.821 318.529 192.259C318.529 192.622 318.612 192.937 318.776 193.205C318.947 193.472 319.177 193.699 319.467 193.886C319.756 194.068 320.077 194.222 320.43 194.347C320.782 194.472 321.137 194.577 321.495 194.662L323.131 195.071C323.79 195.224 324.424 195.432 325.032 195.693C325.646 195.955 326.194 196.284 326.677 196.682C327.165 197.08 327.552 197.56 327.836 198.122C328.12 198.685 328.262 199.344 328.262 200.099C328.262 201.122 328.001 202.023 327.478 202.801C326.955 203.574 326.2 204.179 325.211 204.616C324.228 205.048 323.038 205.264 321.64 205.264C320.282 205.264 319.103 205.054 318.103 204.634C317.109 204.213 316.33 203.599 315.768 202.793C315.211 201.986 314.91 201.003 314.864 199.844H317.975C318.021 200.452 318.208 200.957 318.538 201.361C318.867 201.764 319.296 202.065 319.825 202.264C320.359 202.463 320.955 202.562 321.614 202.562C322.302 202.562 322.904 202.46 323.421 202.256C323.944 202.045 324.353 201.756 324.648 201.386C324.944 201.011 325.094 200.574 325.1 200.074C325.094 199.619 324.961 199.244 324.7 198.949C324.438 198.648 324.072 198.398 323.6 198.199C323.134 197.994 322.589 197.812 321.964 197.653L319.978 197.142C318.54 196.773 317.404 196.213 316.569 195.463C315.739 194.707 315.325 193.705 315.325 192.455C315.325 191.426 315.603 190.526 316.16 189.753C316.722 188.98 317.487 188.381 318.452 187.955C319.418 187.523 320.512 187.307 321.734 187.307C322.972 187.307 324.058 187.523 324.989 187.955C325.927 188.381 326.663 188.974 327.197 189.736C327.731 190.491 328.006 191.361 328.023 192.344H324.981ZM336.864 205V202.716L342.923 196.776C343.503 196.19 343.986 195.67 344.372 195.216C344.759 194.761 345.048 194.321 345.241 193.895C345.435 193.469 345.531 193.014 345.531 192.531C345.531 191.98 345.406 191.509 345.156 191.116C344.906 190.719 344.562 190.412 344.125 190.196C343.688 189.98 343.19 189.872 342.634 189.872C342.06 189.872 341.557 189.991 341.125 190.23C340.693 190.463 340.358 190.795 340.119 191.227C339.886 191.659 339.77 192.173 339.77 192.77H336.761C336.761 191.662 337.014 190.699 337.52 189.881C338.026 189.062 338.722 188.429 339.608 187.98C340.5 187.531 341.523 187.307 342.676 187.307C343.847 187.307 344.875 187.526 345.761 187.963C346.648 188.401 347.335 189 347.824 189.761C348.318 190.523 348.565 191.392 348.565 192.369C348.565 193.023 348.44 193.665 348.19 194.295C347.94 194.926 347.5 195.625 346.869 196.392C346.244 197.159 345.366 198.088 344.236 199.179L341.227 202.239V202.358H348.83V205H336.864ZM358.222 205.332C356.818 205.332 355.614 204.977 354.608 204.267C353.608 203.551 352.838 202.52 352.298 201.173C351.764 199.821 351.497 198.193 351.497 196.29C351.503 194.386 351.773 192.767 352.307 191.432C352.847 190.091 353.616 189.068 354.616 188.364C355.622 187.659 356.824 187.307 358.222 187.307C359.619 187.307 360.821 187.659 361.827 188.364C362.832 189.068 363.602 190.091 364.136 191.432C364.676 192.773 364.946 194.392 364.946 196.29C364.946 198.199 364.676 199.83 364.136 201.182C363.602 202.528 362.832 203.557 361.827 204.267C360.827 204.977 359.625 205.332 358.222 205.332ZM358.222 202.665C359.313 202.665 360.173 202.128 360.804 201.054C361.44 199.974 361.759 198.386 361.759 196.29C361.759 194.903 361.614 193.739 361.324 192.795C361.034 191.852 360.625 191.142 360.097 190.665C359.568 190.182 358.943 189.94 358.222 189.94C357.136 189.94 356.278 190.48 355.648 191.56C355.017 192.634 354.699 194.21 354.693 196.29C354.688 197.682 354.827 198.852 355.111 199.801C355.401 200.75 355.81 201.466 356.338 201.949C356.866 202.426 357.494 202.665 358.222 202.665Z" fill="#F39200"/>
</g>
<g filter="url(#filter4_d_890_6367)">
<rect x="40" y="276" width="120" height="40" rx="8" fill="#FBFAFA" shape-rendering="crispEdges"/>
<path d="M80.8089 307.182V285.364H82.2067V307.182H80.8089ZM84.8402 292.344C84.7607 291.599 84.4254 291.02 83.8345 290.605C83.2493 290.19 82.4879 289.983 81.5504 289.983C80.8913 289.983 80.326 290.082 79.8544 290.281C79.3828 290.48 79.022 290.75 78.772 291.091C78.522 291.432 78.3942 291.821 78.3885 292.259C78.3885 292.622 78.4709 292.937 78.6357 293.205C78.8061 293.472 79.0362 293.699 79.326 293.886C79.6158 294.068 79.9368 294.222 80.2891 294.347C80.6413 294.472 80.9964 294.577 81.3544 294.662L82.9908 295.071C83.6499 295.224 84.2834 295.432 84.8913 295.693C85.505 295.955 86.0533 296.284 86.5362 296.682C87.0249 297.08 87.4112 297.56 87.6953 298.122C87.9794 298.685 88.1214 299.344 88.1214 300.099C88.1214 301.122 87.8601 302.023 87.3374 302.801C86.8146 303.574 86.0589 304.179 85.0703 304.616C84.0874 305.048 82.897 305.264 81.4993 305.264C80.1413 305.264 78.9624 305.054 77.9624 304.634C76.968 304.213 76.1896 303.599 75.6271 302.793C75.0703 301.986 74.7692 301.003 74.7237 299.844H77.8345C77.88 300.452 78.0675 300.957 78.397 301.361C78.7266 301.764 79.1555 302.065 79.6839 302.264C80.218 302.463 80.8146 302.562 81.4737 302.562C82.1612 302.562 82.7635 302.46 83.2805 302.256C83.8033 302.045 84.2124 301.756 84.5078 301.386C84.8033 301.011 84.9538 300.574 84.9595 300.074C84.9538 299.619 84.8203 299.244 84.5589 298.949C84.2976 298.648 83.9311 298.398 83.4595 298.199C82.9936 297.994 82.4482 297.812 81.8232 297.653L79.8374 297.142C78.3999 296.773 77.2635 296.213 76.4283 295.463C75.5987 294.707 75.1839 293.705 75.1839 292.455C75.1839 291.426 75.4624 290.526 76.0192 289.753C76.5817 288.98 77.3459 288.381 78.3118 287.955C79.2777 287.523 80.3714 287.307 81.593 287.307C82.8317 287.307 83.9169 287.523 84.8487 287.955C85.7862 288.381 86.522 288.974 87.0561 289.736C87.5902 290.491 87.8658 291.361 87.8828 292.344H84.8402ZM102.791 305.239C101.655 305.239 100.638 305.026 99.7401 304.599C98.8423 304.168 98.1293 303.577 97.6009 302.827C97.0781 302.077 96.7997 301.219 96.7656 300.253H99.8338C99.8906 300.969 100.2 301.554 100.763 302.009C101.325 302.457 102.001 302.682 102.791 302.682C103.411 302.682 103.962 302.54 104.445 302.256C104.928 301.972 105.308 301.577 105.587 301.071C105.865 300.565 106.001 299.989 105.996 299.341C106.001 298.682 105.862 298.097 105.578 297.585C105.294 297.074 104.905 296.673 104.411 296.384C103.916 296.088 103.348 295.94 102.706 295.94C102.183 295.935 101.669 296.031 101.163 296.23C100.658 296.429 100.257 296.69 99.9616 297.014L97.1065 296.545L98.0185 287.545H108.143V290.188H100.635L100.132 294.815H100.234C100.558 294.435 101.016 294.119 101.607 293.869C102.197 293.614 102.845 293.486 103.55 293.486C104.607 293.486 105.55 293.736 106.379 294.236C107.209 294.73 107.862 295.412 108.339 296.281C108.817 297.151 109.055 298.145 109.055 299.264C109.055 300.418 108.788 301.446 108.254 302.349C107.726 303.247 106.99 303.955 106.047 304.472C105.109 304.983 104.024 305.239 102.791 305.239ZM118.362 305.332C116.959 305.332 115.754 304.977 114.749 304.267C113.749 303.551 112.979 302.52 112.439 301.173C111.905 299.821 111.638 298.193 111.638 296.29C111.643 294.386 111.913 292.767 112.447 291.432C112.987 290.091 113.757 289.068 114.757 288.364C115.763 287.659 116.964 287.307 118.362 287.307C119.76 287.307 120.962 287.659 121.967 288.364C122.973 289.068 123.743 290.091 124.277 291.432C124.817 292.773 125.087 294.392 125.087 296.29C125.087 298.199 124.817 299.83 124.277 301.182C123.743 302.528 122.973 303.557 121.967 304.267C120.967 304.977 119.766 305.332 118.362 305.332ZM118.362 302.665C119.453 302.665 120.314 302.128 120.945 301.054C121.581 299.974 121.899 298.386 121.899 296.29C121.899 294.903 121.754 293.739 121.464 292.795C121.175 291.852 120.766 291.142 120.237 290.665C119.709 290.182 119.084 289.94 118.362 289.94C117.277 289.94 116.419 290.48 115.788 291.56C115.158 292.634 114.839 294.21 114.834 296.29C114.828 297.682 114.967 298.852 115.251 299.801C115.541 300.75 115.95 301.466 116.479 301.949C117.007 302.426 117.635 302.665 118.362 302.665Z" fill="#F39200"/>
</g>
<g filter="url(#filter5_d_890_6367)">
<rect x="280" y="276" width="120" height="40" rx="8" fill="#FBFAFA" shape-rendering="crispEdges"/>
<path d="M314.633 307.182V285.364H316.031V307.182H314.633ZM318.664 292.344C318.585 291.599 318.25 291.02 317.659 290.605C317.074 290.19 316.312 289.983 315.375 289.983C314.716 289.983 314.15 290.082 313.679 290.281C313.207 290.48 312.846 290.75 312.596 291.091C312.346 291.432 312.218 291.821 312.213 292.259C312.213 292.622 312.295 292.937 312.46 293.205C312.63 293.472 312.86 293.699 313.15 293.886C313.44 294.068 313.761 294.222 314.113 294.347C314.466 294.472 314.821 294.577 315.179 294.662L316.815 295.071C317.474 295.224 318.108 295.432 318.716 295.693C319.329 295.955 319.877 296.284 320.36 296.682C320.849 297.08 321.235 297.56 321.52 298.122C321.804 298.685 321.946 299.344 321.946 300.099C321.946 301.122 321.684 302.023 321.162 302.801C320.639 303.574 319.883 304.179 318.895 304.616C317.912 305.048 316.721 305.264 315.324 305.264C313.966 305.264 312.787 305.054 311.787 304.634C310.792 304.213 310.014 303.599 309.451 302.793C308.895 301.986 308.593 301.003 308.548 299.844H311.659C311.704 300.452 311.892 300.957 312.221 301.361C312.551 301.764 312.98 302.065 313.508 302.264C314.042 302.463 314.639 302.562 315.298 302.562C315.985 302.562 316.588 302.46 317.105 302.256C317.627 302.045 318.037 301.756 318.332 301.386C318.627 301.011 318.778 300.574 318.784 300.074C318.778 299.619 318.645 299.244 318.383 298.949C318.122 298.648 317.755 298.398 317.284 298.199C316.818 297.994 316.272 297.812 315.647 297.653L313.662 297.142C312.224 296.773 311.088 296.213 310.252 295.463C309.423 294.707 309.008 293.705 309.008 292.455C309.008 291.426 309.287 290.526 309.843 289.753C310.406 288.98 311.17 288.381 312.136 287.955C313.102 287.523 314.196 287.307 315.417 287.307C316.656 287.307 317.741 287.523 318.673 287.955C319.61 288.381 320.346 288.974 320.88 289.736C321.414 290.491 321.69 291.361 321.707 292.344H318.664ZM337.647 287.545V305H334.485V290.622H334.382L330.3 293.23V290.332L334.638 287.545H337.647ZM348.53 305.332C347.127 305.332 345.922 304.977 344.917 304.267C343.917 303.551 343.147 302.52 342.607 301.173C342.073 299.821 341.806 298.193 341.806 296.29C341.811 294.386 342.081 292.767 342.615 291.432C343.155 290.091 343.925 289.068 344.925 288.364C345.931 287.659 347.132 287.307 348.53 287.307C349.928 287.307 351.13 287.659 352.135 288.364C353.141 289.068 353.911 290.091 354.445 291.432C354.985 292.773 355.255 294.392 355.255 296.29C355.255 298.199 354.985 299.83 354.445 301.182C353.911 302.528 353.141 303.557 352.135 304.267C351.135 304.977 349.934 305.332 348.53 305.332ZM348.53 302.665C349.621 302.665 350.482 302.128 351.113 301.054C351.749 299.974 352.067 298.386 352.067 296.29C352.067 294.903 351.922 293.739 351.632 292.795C351.343 291.852 350.934 291.142 350.405 290.665C349.877 290.182 349.252 289.94 348.53 289.94C347.445 289.94 346.587 290.48 345.956 291.56C345.326 292.634 345.007 294.21 345.002 296.29C344.996 297.682 345.135 298.852 345.419 299.801C345.709 300.75 346.118 301.466 346.647 301.949C347.175 302.426 347.803 302.665 348.53 302.665ZM364.538 305.332C363.135 305.332 361.93 304.977 360.924 304.267C359.924 303.551 359.154 302.52 358.615 301.173C358.081 299.821 357.814 298.193 357.814 296.29C357.819 294.386 358.089 292.767 358.623 291.432C359.163 290.091 359.933 289.068 360.933 288.364C361.939 287.659 363.14 287.307 364.538 287.307C365.936 287.307 367.137 287.659 368.143 288.364C369.149 289.068 369.919 290.091 370.453 291.432C370.993 292.773 371.262 294.392 371.262 296.29C371.262 298.199 370.993 299.83 370.453 301.182C369.919 302.528 369.149 303.557 368.143 304.267C367.143 304.977 365.941 305.332 364.538 305.332ZM364.538 302.665C365.629 302.665 366.49 302.128 367.12 301.054C367.757 299.974 368.075 298.386 368.075 296.29C368.075 294.903 367.93 293.739 367.64 292.795C367.35 291.852 366.941 291.142 366.413 290.665C365.885 290.182 365.26 289.94 364.538 289.94C363.453 289.94 362.595 290.48 361.964 291.56C361.333 292.634 361.015 294.21 361.01 296.29C361.004 297.682 361.143 298.852 361.427 299.801C361.717 300.75 362.126 301.466 362.654 301.949C363.183 302.426 363.811 302.665 364.538 302.665Z" fill="#F39200"/>
</g>
<rect x="40" y="76" width="363.495" height="40" rx="5" fill="url(#paint1_linear_890_6367)"/>
<path d="M124.457 87.5455V105H120.767V87.5455H124.457ZM142.093 87.5455V105H138.906L131.312 94.0142H131.184V105H127.494V87.5455H130.732L138.266 98.5227H138.42V87.5455H142.093ZM156.716 93.1875C156.597 92.7727 156.429 92.4062 156.213 92.0881C155.997 91.7642 155.733 91.4915 155.42 91.2699C155.114 91.0426 154.761 90.8693 154.364 90.75C153.972 90.6307 153.537 90.571 153.06 90.571C152.168 90.571 151.384 90.7926 150.707 91.2358C150.037 91.679 149.514 92.3239 149.139 93.1705C148.764 94.0114 148.577 95.0398 148.577 96.2557C148.577 97.4716 148.761 98.5057 149.131 99.358C149.5 100.21 150.023 100.861 150.699 101.31C151.375 101.753 152.173 101.974 153.094 101.974C153.929 101.974 154.642 101.827 155.233 101.531C155.83 101.23 156.284 100.807 156.597 100.261C156.915 99.7159 157.074 99.071 157.074 98.3267L157.824 98.4375H153.324V95.6591H160.628V97.858C160.628 99.392 160.304 100.71 159.656 101.812C159.009 102.909 158.116 103.756 156.98 104.352C155.844 104.943 154.543 105.239 153.077 105.239C151.44 105.239 150.003 104.878 148.764 104.156C147.526 103.429 146.56 102.398 145.866 101.062C145.179 99.7216 144.835 98.1307 144.835 96.2898C144.835 94.875 145.04 93.6136 145.449 92.5057C145.864 91.392 146.443 90.4489 147.188 89.6761C147.932 88.9034 148.798 88.3153 149.787 87.9119C150.776 87.5085 151.847 87.3068 153 87.3068C153.989 87.3068 154.909 87.4517 155.761 87.7415C156.614 88.0256 157.369 88.429 158.028 88.9517C158.693 89.4744 159.236 90.0966 159.656 90.8182C160.077 91.5341 160.347 92.3239 160.466 93.1875H156.716ZM163.4 105V87.5455H170.286C171.604 87.5455 172.729 87.7812 173.661 88.2528C174.599 88.7187 175.312 89.3807 175.8 90.2386C176.295 91.0909 176.542 92.0937 176.542 93.2472C176.542 94.4062 176.292 95.4034 175.792 96.2386C175.292 97.0682 174.567 97.7045 173.619 98.1477C172.675 98.5909 171.533 98.8125 170.192 98.8125H165.582V95.8466H169.596C170.3 95.8466 170.886 95.75 171.352 95.5568C171.817 95.3636 172.164 95.0739 172.391 94.6875C172.624 94.3011 172.741 93.821 172.741 93.2472C172.741 92.6676 172.624 92.179 172.391 91.7812C172.164 91.3835 171.815 91.0824 171.343 90.8778C170.877 90.6676 170.289 90.5625 169.579 90.5625H167.09V105H163.4ZM172.826 97.0568L177.164 105H173.09L168.846 97.0568H172.826ZM179.15 105V87.5455H190.911V90.5881H182.84V94.7472H190.306V97.7898H182.84V101.957H190.945V105H179.15ZM203.314 92.5653C203.246 91.8778 202.953 91.3437 202.436 90.9631C201.919 90.5824 201.217 90.392 200.331 90.392C199.729 90.392 199.22 90.4773 198.805 90.6477C198.391 90.8125 198.072 91.0426 197.851 91.3381C197.635 91.6335 197.527 91.9688 197.527 92.3438C197.516 92.6562 197.581 92.929 197.723 93.1619C197.871 93.3949 198.072 93.5966 198.328 93.767C198.584 93.9318 198.879 94.0767 199.214 94.2017C199.55 94.321 199.908 94.4233 200.288 94.5085L201.857 94.8835C202.618 95.054 203.317 95.2812 203.953 95.5653C204.589 95.8494 205.141 96.1989 205.607 96.6136C206.072 97.0284 206.433 97.517 206.689 98.0795C206.95 98.642 207.084 99.2869 207.089 100.014C207.084 101.082 206.811 102.009 206.271 102.793C205.737 103.571 204.964 104.176 203.953 104.608C202.947 105.034 201.734 105.247 200.314 105.247C198.905 105.247 197.678 105.031 196.632 104.599C195.592 104.168 194.78 103.528 194.195 102.682C193.615 101.83 193.311 100.776 193.283 99.5199H196.854C196.893 100.105 197.061 100.594 197.357 100.986C197.658 101.372 198.058 101.665 198.558 101.864C199.064 102.057 199.635 102.153 200.271 102.153C200.896 102.153 201.439 102.062 201.899 101.881C202.365 101.699 202.726 101.446 202.982 101.122C203.237 100.798 203.365 100.426 203.365 100.006C203.365 99.6136 203.249 99.2841 203.016 99.017C202.788 98.75 202.453 98.5227 202.01 98.3352C201.572 98.1477 201.036 97.9773 200.399 97.8239L198.499 97.3466C197.027 96.9886 195.865 96.429 195.013 95.6676C194.161 94.9062 193.737 93.8807 193.743 92.5909C193.737 91.5341 194.018 90.6108 194.587 89.821C195.161 89.0312 195.947 88.4148 196.947 87.9716C197.947 87.5284 199.084 87.3068 200.357 87.3068C201.652 87.3068 202.783 87.5284 203.749 87.9716C204.72 88.4148 205.476 89.0312 206.016 89.821C206.555 90.6108 206.834 91.5256 206.851 92.5653H203.314ZM212.182 105H208.227L214.253 87.5455H219.009L225.026 105H221.071L216.699 91.5341H216.562L212.182 105ZM211.935 98.1392H221.276V101.02H211.935V98.1392ZM232.681 87.5455H237.232L242.039 99.2727H242.244L247.05 87.5455H251.602V105H248.022V93.6392H247.877L243.36 104.915H240.923L236.406 93.5966H236.261V105H232.681V87.5455ZM270.682 96.2727C270.682 98.1761 270.321 99.7955 269.599 101.131C268.884 102.466 267.906 103.486 266.668 104.19C265.435 104.889 264.048 105.239 262.509 105.239C260.957 105.239 259.565 104.886 258.332 104.182C257.099 103.477 256.125 102.457 255.409 101.122C254.693 99.7869 254.335 98.1705 254.335 96.2727C254.335 94.3693 254.693 92.75 255.409 91.4148C256.125 90.0795 257.099 89.0625 258.332 88.3636C259.565 87.6591 260.957 87.3068 262.509 87.3068C264.048 87.3068 265.435 87.6591 266.668 88.3636C267.906 89.0625 268.884 90.0795 269.599 91.4148C270.321 92.75 270.682 94.3693 270.682 96.2727ZM266.94 96.2727C266.94 95.0398 266.756 94 266.386 93.1534C266.023 92.3068 265.509 91.6648 264.844 91.2273C264.179 90.7898 263.401 90.571 262.509 90.571C261.616 90.571 260.838 90.7898 260.173 91.2273C259.509 91.6648 258.991 92.3068 258.622 93.1534C258.259 94 258.077 95.0398 258.077 96.2727C258.077 97.5057 258.259 98.5455 258.622 99.392C258.991 100.239 259.509 100.881 260.173 101.318C260.838 101.756 261.616 101.974 262.509 101.974C263.401 101.974 264.179 101.756 264.844 101.318C265.509 100.881 266.023 100.239 266.386 99.392C266.756 98.5455 266.94 97.5057 266.94 96.2727ZM288.015 87.5455V105H284.827L277.234 94.0142H277.106V105H273.415V87.5455H276.654L284.188 98.5227H284.342V87.5455H288.015ZM290.399 90.5881V87.5455H304.734V90.5881H299.391V105H295.743V90.5881H290.399ZM322.338 96.2727C322.338 98.1761 321.977 99.7955 321.256 101.131C320.54 102.466 319.563 103.486 318.324 104.19C317.091 104.889 315.705 105.239 314.165 105.239C312.614 105.239 311.222 104.886 309.989 104.182C308.756 103.477 307.781 102.457 307.065 101.122C306.349 99.7869 305.991 98.1705 305.991 96.2727C305.991 94.3693 306.349 92.75 307.065 91.4148C307.781 90.0795 308.756 89.0625 309.989 88.3636C311.222 87.6591 312.614 87.3068 314.165 87.3068C315.705 87.3068 317.091 87.6591 318.324 88.3636C319.563 89.0625 320.54 90.0795 321.256 91.4148C321.977 92.75 322.338 94.3693 322.338 96.2727ZM318.597 96.2727C318.597 95.0398 318.412 94 318.043 93.1534C317.679 92.3068 317.165 91.6648 316.5 91.2273C315.835 90.7898 315.057 90.571 314.165 90.571C313.273 90.571 312.494 90.7898 311.83 91.2273C311.165 91.6648 310.648 92.3068 310.278 93.1534C309.915 94 309.733 95.0398 309.733 96.2727C309.733 97.5057 309.915 98.5455 310.278 99.392C310.648 100.239 311.165 100.881 311.83 101.318C312.494 101.756 313.273 101.974 314.165 101.974C315.057 101.974 315.835 101.756 316.5 101.318C317.165 100.881 317.679 100.239 318.043 99.392C318.412 98.5455 318.597 97.5057 318.597 96.2727Z" fill="#F39200"/>
<defs>
<filter id="filter0_d_890_6367" x="0" y="0" width="480" height="628" filterUnits="userSpaceOnUse" color-interpolation-filters="sRGB">
<feFlood flood-opacity="0" result="BackgroundImageFix"/>
<feColorMatrix in="SourceAlpha" type="matrix" values="0 0 0 0 0 0 0 0 0 0 0 0 0 0 0 0 0 0 127 0" result="hardAlpha"/>
<feOffset dx="20" dy="20"/>
<feGaussianBlur stdDeviation="16"/>
<feComposite in2="hardAlpha" operator="out"/>
<feColorMatrix type="matrix" values="0 0 0 0 0.129412 0 0 0 0 0.129412 0 0 0 0 0.129412 0 0 0 0.16 0"/>
<feBlend mode="normal" in2="BackgroundImageFix" result="effect1_dropShadow_890_6367"/>
<feBlend mode="normal" in="SourceGraphic" in2="effect1_dropShadow_890_6367" result="shape"/>
</filter>
<filter id="filter1_d_890_6367" x="36" y="476" width="368" height="48" filterUnits="userSpaceOnUse" color-interpolation-filters="sRGB">
<feFlood flood-opacity="0" result="BackgroundImageFix"/>
<feColorMatrix in="SourceAlpha" type="matrix" values="0 0 0 0 0 0 0 0 0 0 0 0 0 0 0 0 0 0 127 0" result="hardAlpha"/>
<feOffset dy="4"/>
<feGaussianBlur stdDeviation="2"/>
<feComposite in2="hardAlpha" operator="out"/>
<feColorMatrix type="matrix" values="0 0 0 0 0 0 0 0 0 0 0 0 0 0 0 0 0 0 0.25 0"/>
<feBlend mode="normal" in2="BackgroundImageFix" result="effect1_dropShadow_890_6367"/>
<feBlend mode="normal" in="SourceGraphic" in2="effect1_dropShadow_890_6367" result="shape"/>
</filter>
<filter id="filter2_d_890_6367" x="36" y="176" width="128" height="48" filterUnits="userSpaceOnUse" color-interpolation-filters="sRGB">
<feFlood flood-opacity="0" result="BackgroundImageFix"/>
<feColorMatrix in="SourceAlpha" type="matrix" values="0 0 0 0 0 0 0 0 0 0 0 0 0 0 0 0 0 0 127 0" result="hardAlpha"/>
<feOffset dy="4"/>
<feGaussianBlur stdDeviation="2"/>
<feComposite in2="hardAlpha" operator="out"/>
<feColorMatrix type="matrix" values="0 0 0 0 0 0 0 0 0 0 0 0 0 0 0 0 0 0 0.25 0"/>
<feBlend mode="normal" in2="BackgroundImageFix" result="effect1_dropShadow_890_6367"/>
<feBlend mode="normal" in="SourceGraphic" in2="effect1_dropShadow_890_6367" result="shape"/>
</filter>
<filter id="filter3_d_890_6367" x="276" y="176" width="128" height="48" filterUnits="userSpaceOnUse" color-interpolation-filters="sRGB">
<feFlood flood-opacity="0" result="BackgroundImageFix"/>
<feColorMatrix in="SourceAlpha" type="matrix" values="0 0 0 0 0 0 0 0 0 0 0 0 0 0 0 0 0 0 127 0" result="hardAlpha"/>
<feOffset dy="4"/>
<feGaussianBlur stdDeviation="2"/>
<feComposite in2="hardAlpha" operator="out"/>
<feColorMatrix type="matrix" values="0 0 0 0 0 0 0 0 0 0 0 0 0 0 0 0 0 0 0.25 0"/>
<feBlend mode="normal" in2="BackgroundImageFix" result="effect1_dropShadow_890_6367"/>
<feBlend mode="normal" in="SourceGraphic" in2="effect1_dropShadow_890_6367" result="shape"/>
</filter>
<filter id="filter4_d_890_6367" x="36" y="276" width="128" height="48" filterUnits="userSpaceOnUse" color-interpolation-filters="sRGB">
<feFlood flood-opacity="0" result="BackgroundImageFix"/>
<feColorMatrix in="SourceAlpha" type="matrix" values="0 0 0 0 0 0 0 0 0 0 0 0 0 0 0 0 0 0 127 0" result="hardAlpha"/>
<feOffset dy="4"/>
<feGaussianBlur stdDeviation="2"/>
<feComposite in2="hardAlpha" operator="out"/>
<feColorMatrix type="matrix" values="0 0 0 0 0 0 0 0 0 0 0 0 0 0 0 0 0 0 0.25 0"/>
<feBlend mode="normal" in2="BackgroundImageFix" result="effect1_dropShadow_890_6367"/>
<feBlend mode="normal" in="SourceGraphic" in2="effect1_dropShadow_890_6367" result="shape"/>
</filter>
<filter id="filter5_d_890_6367" x="276" y="276" width="128" height="48" filterUnits="userSpaceOnUse" color-interpolation-filters="sRGB">
<feFlood flood-opacity="0" result="BackgroundImageFix"/>
<feColorMatrix in="SourceAlpha" type="matrix" values="0 0 0 0 0 0 0 0 0 0 0 0 0 0 0 0 0 0 127 0" result="hardAlpha"/>
<feOffset dy="4"/>
<feGaussianBlur stdDeviation="2"/>
<feComposite in2="hardAlpha" operator="out"/>
<feColorMatrix type="matrix" values="0 0 0 0 0 0 0 0 0 0 0 0 0 0 0 0 0 0 0.25 0"/>
<feBlend mode="normal" in2="BackgroundImageFix" result="effect1_dropShadow_890_6367"/>
<feBlend mode="normal" in="SourceGraphic" in2="effect1_dropShadow_890_6367" result="shape"/>
</filter>
<linearGradient id="paint0_linear_890_6367" x1="220" y1="12" x2="220" y2="576" gradientUnits="userSpaceOnUse">
<stop offset="0.286458" stop-color="white"/>
<stop offset="0.401042" stop-color="white" stop-opacity="0.83"/>
</linearGradient>
<linearGradient id="paint1_linear_890_6367" x1="221.748" y1="76" x2="221.748" y2="116" gradientUnits="userSpaceOnUse">
<stop offset="0.286458" stop-color="white"/>
<stop offset="0.401042" stop-color="white" stop-opacity="0.83"/>
</linearGradient>
</defs>
</svg>
