<svg width="360" height="40" viewBox="0 0 360 40" fill="none" xmlns="http://www.w3.org/2000/svg">
<path d="M1 8C1 4.13401 4.13401 1 8 1H350C354.971 1 359 5.02944 359 10V30C359 34.9706 354.971 39 350 39H10C5.02944 39 1 34.9706 1 30V8Z" fill="#FFFDFB" stroke="#B9A78E" stroke-width="2"/>
<path d="M335 16L327 24" stroke="black" stroke-width="1.6" stroke-linecap="square"/>
<path d="M327 16L335 24" stroke="black" stroke-width="1.6" stroke-linecap="square"/>
<path d="M28.7564 20.1818C28.7564 21.4356 28.5215 22.5095 28.0518 23.4034C27.5859 24.2936 26.9496 24.9754 26.1428 25.4489C25.3397 25.9223 24.4287 26.1591 23.4098 26.1591C22.3909 26.1591 21.478 25.9223 20.6712 25.4489C19.8681 24.9716 19.2318 24.2879 18.7621 23.3977C18.2962 22.5038 18.0632 21.4318 18.0632 20.1818C18.0632 18.928 18.2962 17.8561 18.7621 16.9659C19.2318 16.072 19.8681 15.3883 20.6712 14.9148C21.478 14.4413 22.3909 14.2045 23.4098 14.2045C24.4287 14.2045 25.3397 14.4413 26.1428 14.9148C26.9496 15.3883 27.5859 16.072 28.0518 16.9659C28.5215 17.8561 28.7564 18.928 28.7564 20.1818ZM26.6371 20.1818C26.6371 19.2992 26.4988 18.5549 26.2223 17.9489C25.9496 17.339 25.5708 16.8788 25.0859 16.5682C24.6011 16.2538 24.0424 16.0966 23.4098 16.0966C22.7772 16.0966 22.2185 16.2538 21.7337 16.5682C21.2488 16.8788 20.8681 17.339 20.5916 17.9489C20.3189 18.5549 20.1825 19.2992 20.1825 20.1818C20.1825 21.0644 20.3189 21.8106 20.5916 22.4205C20.8681 23.0265 21.2488 23.4867 21.7337 23.8011C22.2185 24.1117 22.7772 24.267 23.4098 24.267C24.0424 24.267 24.6011 24.1117 25.0859 23.8011C25.5708 23.4867 25.9496 23.0265 26.2223 22.4205C26.4988 21.8106 26.6371 21.0644 26.6371 20.1818ZM35.0163 17.2727V18.8636H29.9993V17.2727H35.0163ZM31.2379 15.1818H33.2947V23.375C33.2947 23.6515 33.3364 23.8636 33.4197 24.0114C33.5069 24.1553 33.6205 24.2538 33.7607 24.3068C33.9008 24.3598 34.0561 24.3864 34.2266 24.3864C34.3554 24.3864 34.4728 24.3769 34.5788 24.358C34.6887 24.339 34.772 24.322 34.8288 24.3068L35.1754 25.9148C35.0656 25.9527 34.9084 25.9943 34.7038 26.0398C34.5031 26.0852 34.2569 26.1117 33.9652 26.1193C33.45 26.1345 32.986 26.0568 32.5732 25.8864C32.1603 25.7121 31.8326 25.4432 31.5902 25.0795C31.3516 24.7159 31.2341 24.2614 31.2379 23.7159V15.1818ZM36.7365 26V17.2727H38.7308V18.7273H38.8217C38.9808 18.2235 39.2536 17.8352 39.6399 17.5625C40.0301 17.286 40.4751 17.1477 40.9751 17.1477C41.0888 17.1477 41.2157 17.1534 41.3558 17.1648C41.4998 17.1723 41.6191 17.1856 41.7138 17.2045V19.0966C41.6267 19.0663 41.4884 19.0398 41.299 19.017C41.1134 18.9905 40.9335 18.9773 40.7592 18.9773C40.3842 18.9773 40.0471 19.0587 39.7479 19.2216C39.4524 19.3807 39.2195 19.6023 39.049 19.8864C38.8786 20.1705 38.7933 20.4981 38.7933 20.8693V26H36.7365ZM45.4354 26.1761C44.8823 26.1761 44.3842 26.0777 43.9411 25.8807C43.5017 25.6799 43.1532 25.3845 42.8956 24.9943C42.6418 24.6042 42.5149 24.1231 42.5149 23.5511C42.5149 23.0587 42.6058 22.6515 42.7876 22.3295C42.9695 22.0076 43.2176 21.75 43.532 21.5568C43.8464 21.3636 44.2005 21.2178 44.5945 21.1193C44.9922 21.017 45.4032 20.9432 45.8274 20.8977C46.3388 20.8447 46.7536 20.7973 47.0717 20.7557C47.3899 20.7102 47.621 20.642 47.7649 20.5511C47.9126 20.4564 47.9865 20.3106 47.9865 20.1136V20.0795C47.9865 19.6515 47.8596 19.3201 47.6058 19.0852C47.352 18.8504 46.9865 18.733 46.5092 18.733C46.0054 18.733 45.6058 18.8428 45.3104 19.0625C45.0187 19.2822 44.8217 19.5417 44.7195 19.8409L42.799 19.5682C42.9505 19.0379 43.2005 18.5947 43.549 18.2386C43.8975 17.8788 44.3236 17.6098 44.8274 17.4318C45.3312 17.25 45.888 17.1591 46.4979 17.1591C46.9183 17.1591 47.3369 17.2083 47.7536 17.3068C48.1702 17.4053 48.5509 17.5682 48.8956 17.7955C49.2403 18.0189 49.5168 18.3239 49.7251 18.7102C49.9373 19.0966 50.0433 19.5795 50.0433 20.1591V26H48.0661V24.8011H47.9979C47.8729 25.0436 47.6967 25.2708 47.4695 25.483C47.246 25.6913 46.9638 25.8598 46.6229 25.9886C46.2857 26.1136 45.8899 26.1761 45.4354 26.1761ZM45.9695 24.6648C46.3823 24.6648 46.7403 24.5833 47.0433 24.4205C47.3464 24.2538 47.5793 24.0341 47.7422 23.7614C47.9089 23.4886 47.9922 23.1913 47.9922 22.8693V21.8409C47.9278 21.8939 47.8179 21.9432 47.6626 21.9886C47.5111 22.0341 47.3407 22.0739 47.1513 22.108C46.9619 22.142 46.7744 22.1723 46.5888 22.1989C46.4032 22.2254 46.2422 22.2481 46.1058 22.267C45.799 22.3087 45.5244 22.3769 45.282 22.4716C45.0395 22.5663 44.8482 22.6989 44.7081 22.8693C44.5679 23.036 44.4979 23.2519 44.4979 23.517C44.4979 23.8958 44.6361 24.1818 44.9126 24.375C45.1892 24.5682 45.5414 24.6648 45.9695 24.6648ZM59.8871 26.1705C59.0159 26.1705 58.2678 25.9792 57.6428 25.5966C57.0215 25.214 56.5424 24.6856 56.2053 24.0114C55.8719 23.3333 55.7053 22.553 55.7053 21.6705C55.7053 20.7841 55.8757 20.0019 56.2166 19.3239C56.5575 18.642 57.0386 18.1117 57.6598 17.733C58.2848 17.3504 59.0234 17.1591 59.8757 17.1591C60.584 17.1591 61.2109 17.2898 61.7564 17.5511C62.3056 17.8087 62.7431 18.1742 63.0689 18.6477C63.3946 19.1174 63.5803 19.6667 63.6257 20.2955H61.6598C61.5803 19.875 61.3909 19.5246 61.0916 19.2443C60.7962 18.9602 60.4003 18.8182 59.9041 18.8182C59.4837 18.8182 59.1143 18.9318 58.7962 19.1591C58.478 19.3826 58.2299 19.7045 58.0518 20.125C57.8776 20.5455 57.7905 21.0492 57.7905 21.6364C57.7905 22.2311 57.8776 22.7424 58.0518 23.1705C58.2261 23.5947 58.4704 23.9223 58.7848 24.1534C59.103 24.3807 59.4761 24.4943 59.9041 24.4943C60.2071 24.4943 60.478 24.4375 60.7166 24.3239C60.959 24.2064 61.1617 24.0379 61.3246 23.8182C61.4875 23.5985 61.5992 23.3314 61.6598 23.017H63.6257C63.5765 23.6345 63.3946 24.1818 63.0803 24.6591C62.7659 25.1326 62.3378 25.5038 61.7962 25.7727C61.2545 26.0379 60.6181 26.1705 59.8871 26.1705ZM67.826 26.1761C67.273 26.1761 66.7749 26.0777 66.3317 25.8807C65.8923 25.6799 65.5438 25.3845 65.2862 24.9943C65.0324 24.6042 64.9055 24.1231 64.9055 23.5511C64.9055 23.0587 64.9964 22.6515 65.1783 22.3295C65.3601 22.0076 65.6082 21.75 65.9226 21.5568C66.237 21.3636 66.5911 21.2178 66.9851 21.1193C67.3828 21.017 67.7938 20.9432 68.218 20.8977C68.7294 20.8447 69.1442 20.7973 69.4624 20.7557C69.7805 20.7102 70.0116 20.642 70.1555 20.5511C70.3033 20.4564 70.3771 20.3106 70.3771 20.1136V20.0795C70.3771 19.6515 70.2502 19.3201 69.9964 19.0852C69.7427 18.8504 69.3771 18.733 68.8999 18.733C68.3961 18.733 67.9964 18.8428 67.701 19.0625C67.4093 19.2822 67.2124 19.5417 67.1101 19.8409L65.1896 19.5682C65.3411 19.0379 65.5911 18.5947 65.9396 18.2386C66.2881 17.8788 66.7143 17.6098 67.218 17.4318C67.7218 17.25 68.2786 17.1591 68.8885 17.1591C69.3089 17.1591 69.7275 17.2083 70.1442 17.3068C70.5608 17.4053 70.9415 17.5682 71.2862 17.7955C71.6309 18.0189 71.9074 18.3239 72.1158 18.7102C72.3279 19.0966 72.4339 19.5795 72.4339 20.1591V26H70.4567V24.8011H70.3885C70.2635 25.0436 70.0874 25.2708 69.8601 25.483C69.6366 25.6913 69.3544 25.8598 69.0135 25.9886C68.6764 26.1136 68.2805 26.1761 67.826 26.1761ZM68.3601 24.6648C68.773 24.6648 69.1309 24.5833 69.4339 24.4205C69.737 24.2538 69.9699 24.0341 70.1328 23.7614C70.2995 23.4886 70.3828 23.1913 70.3828 22.8693V21.8409C70.3184 21.8939 70.2086 21.9432 70.0533 21.9886C69.9018 22.0341 69.7313 22.0739 69.5419 22.108C69.3525 22.142 69.165 22.1723 68.9794 22.1989C68.7938 22.2254 68.6328 22.2481 68.4964 22.267C68.1896 22.3087 67.915 22.3769 67.6726 22.4716C67.4302 22.5663 67.2389 22.6989 67.0987 22.8693C66.9586 23.036 66.8885 23.2519 66.8885 23.517C66.8885 23.8958 67.0268 24.1818 67.3033 24.375C67.5798 24.5682 67.9321 24.6648 68.3601 24.6648ZM76.5589 20.8864V26H74.5021V17.2727H76.468V18.7557H76.5703C76.7711 18.267 77.0911 17.8788 77.5305 17.5909C77.9737 17.303 78.5211 17.1591 79.1726 17.1591C79.7749 17.1591 80.2995 17.2879 80.7464 17.5455C81.1972 17.803 81.5457 18.1761 81.7919 18.6648C82.0419 19.1534 82.165 19.7462 82.1612 20.4432V26H80.1044V20.7614C80.1044 20.178 79.9529 19.7216 79.6499 19.392C79.3506 19.0625 78.9358 18.8977 78.4055 18.8977C78.0457 18.8977 77.7256 18.9773 77.4453 19.1364C77.1688 19.2917 76.951 19.517 76.7919 19.8125C76.6366 20.108 76.5589 20.4659 76.5589 20.8864ZM88.6101 17.2727V18.8636H83.593V17.2727H88.6101ZM84.8317 15.1818H86.8885V23.375C86.8885 23.6515 86.9302 23.8636 87.0135 24.0114C87.1006 24.1553 87.2143 24.2538 87.3544 24.3068C87.4946 24.3598 87.6499 24.3864 87.8203 24.3864C87.9491 24.3864 88.0665 24.3769 88.1726 24.358C88.2824 24.339 88.3658 24.322 88.4226 24.3068L88.7692 25.9148C88.6593 25.9527 88.5021 25.9943 88.2976 26.0398C88.0968 26.0852 87.8506 26.1117 87.5589 26.1193C87.0438 26.1345 86.5798 26.0568 86.1669 25.8864C85.754 25.7121 85.4264 25.4432 85.1839 25.0795C84.9453 24.7159 84.8279 24.2614 84.8317 23.7159V15.1818ZM90.3303 26V17.2727H92.3871V26H90.3303ZM91.3643 16.0341C91.0386 16.0341 90.7583 15.9261 90.5234 15.7102C90.2886 15.4905 90.1712 15.2273 90.1712 14.9205C90.1712 14.6098 90.2886 14.3466 90.5234 14.1307C90.7583 13.911 91.0386 13.8011 91.3643 13.8011C91.6939 13.8011 91.9742 13.911 92.2053 14.1307C92.4401 14.3466 92.5575 14.6098 92.5575 14.9205C92.5575 15.2273 92.4401 15.4905 92.2053 15.7102C91.9742 15.9261 91.6939 16.0341 91.3643 16.0341ZM97.7408 26.1534C97.0552 26.1534 96.4415 25.9773 95.8999 25.625C95.3582 25.2727 94.9302 24.7614 94.6158 24.0909C94.3014 23.4205 94.1442 22.6061 94.1442 21.6477C94.1442 20.678 94.3033 19.8598 94.6214 19.1932C94.9434 18.5227 95.3771 18.017 95.9226 17.6761C96.468 17.3314 97.076 17.1591 97.7464 17.1591C98.2578 17.1591 98.6783 17.2462 99.0078 17.4205C99.3374 17.5909 99.5987 17.7973 99.7919 18.0398C99.9851 18.2784 100.135 18.5038 100.241 18.7159H100.326V14.3636H102.388V26H100.366V24.625H100.241C100.135 24.8371 99.9813 25.0625 99.7805 25.3011C99.5798 25.536 99.3146 25.7367 98.9851 25.9034C98.6555 26.0701 98.2408 26.1534 97.7408 26.1534ZM98.3146 24.4659C98.7502 24.4659 99.1214 24.3485 99.4283 24.1136C99.7351 23.875 99.968 23.5436 100.127 23.1193C100.286 22.6951 100.366 22.2008 100.366 21.6364C100.366 21.072 100.286 20.5814 100.127 20.1648C99.9718 19.7481 99.7408 19.4242 99.4339 19.1932C99.1309 18.9621 98.7578 18.8466 98.3146 18.8466C97.8563 18.8466 97.4737 18.9659 97.1669 19.2045C96.8601 19.4432 96.629 19.7727 96.4737 20.1932C96.3184 20.6136 96.2408 21.0947 96.2408 21.6364C96.2408 22.1818 96.3184 22.6686 96.4737 23.0966C96.6328 23.5208 96.8658 23.8561 97.1726 24.1023C97.4832 24.3447 97.8639 24.4659 98.3146 24.4659ZM107.092 26.1761C106.539 26.1761 106.04 26.0777 105.597 25.8807C105.158 25.6799 104.809 25.3845 104.552 24.9943C104.298 24.6042 104.171 24.1231 104.171 23.5511C104.171 23.0587 104.262 22.6515 104.444 22.3295C104.626 22.0076 104.874 21.75 105.188 21.5568C105.503 21.3636 105.857 21.2178 106.251 21.1193C106.648 21.017 107.059 20.9432 107.484 20.8977C107.995 20.8447 108.41 20.7973 108.728 20.7557C109.046 20.7102 109.277 20.642 109.421 20.5511C109.569 20.4564 109.643 20.3106 109.643 20.1136V20.0795C109.643 19.6515 109.516 19.3201 109.262 19.0852C109.008 18.8504 108.643 18.733 108.165 18.733C107.662 18.733 107.262 18.8428 106.967 19.0625C106.675 19.2822 106.478 19.5417 106.376 19.8409L104.455 19.5682C104.607 19.0379 104.857 18.5947 105.205 18.2386C105.554 17.8788 105.98 17.6098 106.484 17.4318C106.987 17.25 107.544 17.1591 108.154 17.1591C108.575 17.1591 108.993 17.2083 109.41 17.3068C109.826 17.4053 110.207 17.5682 110.552 17.7955C110.897 18.0189 111.173 18.3239 111.381 18.7102C111.594 19.0966 111.7 19.5795 111.7 20.1591V26H109.722V24.8011H109.654C109.529 25.0436 109.353 25.2708 109.126 25.483C108.902 25.6913 108.62 25.8598 108.279 25.9886C107.942 26.1136 107.546 26.1761 107.092 26.1761ZM107.626 24.6648C108.039 24.6648 108.397 24.5833 108.7 24.4205C109.003 24.2538 109.236 24.0341 109.398 23.7614C109.565 23.4886 109.648 23.1913 109.648 22.8693V21.8409C109.584 21.8939 109.474 21.9432 109.319 21.9886C109.167 22.0341 108.997 22.0739 108.808 22.108C108.618 22.142 108.431 22.1723 108.245 22.1989C108.059 22.2254 107.898 22.2481 107.762 22.267C107.455 22.3087 107.181 22.3769 106.938 22.4716C106.696 22.5663 106.504 22.6989 106.364 22.8693C106.224 23.036 106.154 23.2519 106.154 23.517C106.154 23.8958 106.292 24.1818 106.569 24.375C106.845 24.5682 107.198 24.6648 107.626 24.6648ZM117.006 26.1534C116.321 26.1534 115.707 25.9773 115.165 25.625C114.624 25.2727 114.196 24.7614 113.881 24.0909C113.567 23.4205 113.41 22.6061 113.41 21.6477C113.41 20.678 113.569 19.8598 113.887 19.1932C114.209 18.5227 114.643 18.017 115.188 17.6761C115.734 17.3314 116.342 17.1591 117.012 17.1591C117.523 17.1591 117.944 17.2462 118.273 17.4205C118.603 17.5909 118.864 17.7973 119.058 18.0398C119.251 18.2784 119.4 18.5038 119.506 18.7159H119.592V14.3636H121.654V26H119.631V24.625H119.506C119.4 24.8371 119.247 25.0625 119.046 25.3011C118.845 25.536 118.58 25.7367 118.251 25.9034C117.921 26.0701 117.506 26.1534 117.006 26.1534ZM117.58 24.4659C118.016 24.4659 118.387 24.3485 118.694 24.1136C119.001 23.875 119.234 23.5436 119.393 23.1193C119.552 22.6951 119.631 22.2008 119.631 21.6364C119.631 21.072 119.552 20.5814 119.393 20.1648C119.237 19.7481 119.006 19.4242 118.7 19.1932C118.397 18.9621 118.023 18.8466 117.58 18.8466C117.122 18.8466 116.739 18.9659 116.433 19.2045C116.126 19.4432 115.895 19.7727 115.739 20.1932C115.584 20.6136 115.506 21.0947 115.506 21.6364C115.506 22.1818 115.584 22.6686 115.739 23.0966C115.898 23.5208 116.131 23.8561 116.438 24.1023C116.749 24.3447 117.129 24.4659 117.58 24.4659Z" fill="#4B4B4B"/>
</svg>
