<svg width="128" height="48" viewBox="0 0 128 48" fill="none" xmlns="http://www.w3.org/2000/svg">
<g filter="url(#filter0_d_890_6370)">
<rect x="4" width="120" height="40" rx="8" fill="#FBFAFA" shape-rendering="crispEdges"/>
<path d="M46.6371 31.1818V9.36364H48.0348V31.1818H46.6371ZM50.6683 16.3438C50.5888 15.5994 50.2536 15.0199 49.6626 14.6051C49.0774 14.1903 48.3161 13.983 47.3786 13.983C46.7195 13.983 46.1541 14.0824 45.6825 14.2812C45.2109 14.4801 44.8501 14.75 44.6001 15.0909C44.3501 15.4318 44.2223 15.821 44.2166 16.2585C44.2166 16.6222 44.299 16.9375 44.4638 17.2045C44.6342 17.4716 44.8643 17.6989 45.1541 17.8864C45.4439 18.0682 45.7649 18.2216 46.1172 18.3466C46.4695 18.4716 46.8246 18.5767 47.1825 18.6619L48.8189 19.071C49.478 19.2244 50.1115 19.4318 50.7195 19.6932C51.3331 19.9545 51.8814 20.2841 52.3643 20.6818C52.853 21.0795 53.2393 21.5597 53.5234 22.1222C53.8075 22.6847 53.9496 23.3437 53.9496 24.0994C53.9496 25.1222 53.6882 26.0227 53.1655 26.8011C52.6428 27.5739 51.8871 28.179 50.8984 28.6165C49.9155 29.0483 48.7251 29.2642 47.3274 29.2642C45.9695 29.2642 44.7905 29.054 43.7905 28.6335C42.7962 28.2131 42.0178 27.5994 41.4553 26.7926C40.8984 25.9858 40.5973 25.0028 40.5518 23.8438H43.6626C43.7081 24.4517 43.8956 24.9574 44.2251 25.3608C44.5547 25.7642 44.9837 26.0653 45.5121 26.2642C46.0462 26.4631 46.6428 26.5625 47.3018 26.5625C47.9893 26.5625 48.5916 26.4602 49.1087 26.2557C49.6314 26.0455 50.0405 25.7557 50.3359 25.3864C50.6314 25.0114 50.782 24.5739 50.7876 24.0739C50.782 23.6193 50.6484 23.2443 50.3871 22.9489C50.1257 22.6477 49.7592 22.3977 49.2876 22.1989C48.8217 21.9943 48.2763 21.8125 47.6513 21.6534L45.6655 21.142C44.228 20.7727 43.0916 20.2131 42.2564 19.4631C41.4268 18.7074 41.0121 17.7045 41.0121 16.4545C41.0121 15.4261 41.2905 14.5256 41.8473 13.7528C42.4098 12.9801 43.174 12.3807 44.1399 11.9545C45.1058 11.5227 46.1996 11.3068 47.4212 11.3068C48.6598 11.3068 49.745 11.5227 50.6768 11.9545C51.6143 12.3807 52.3501 12.9744 52.8842 13.7358C53.4183 14.4915 53.6939 15.3608 53.7109 16.3438H50.6683ZM69.6506 11.5455V29H66.4886V14.6222H66.3864L62.304 17.2301V14.3324L66.642 11.5455H69.6506ZM80.5341 29.3324C79.1307 29.3324 77.9261 28.9773 76.9205 28.267C75.9205 27.5511 75.1506 26.5199 74.6108 25.1733C74.0767 23.821 73.8097 22.1932 73.8097 20.2898C73.8153 18.3864 74.0852 16.767 74.6193 15.4318C75.1591 14.0909 75.929 13.0682 76.929 12.3636C77.9347 11.6591 79.1364 11.3068 80.5341 11.3068C81.9318 11.3068 83.1335 11.6591 84.1392 12.3636C85.1449 13.0682 85.9148 14.0909 86.4489 15.4318C86.9886 16.7727 87.2585 18.392 87.2585 20.2898C87.2585 22.1989 86.9886 23.8295 86.4489 25.1818C85.9148 26.5284 85.1449 27.5568 84.1392 28.267C83.1392 28.9773 81.9375 29.3324 80.5341 29.3324ZM80.5341 26.6648C81.625 26.6648 82.4858 26.1278 83.1165 25.054C83.7528 23.9744 84.071 22.3864 84.071 20.2898C84.071 18.9034 83.9261 17.7386 83.6364 16.7955C83.3466 15.8523 82.9375 15.142 82.4091 14.6648C81.8807 14.1818 81.2557 13.9403 80.5341 13.9403C79.4489 13.9403 78.5909 14.4801 77.9602 15.5597C77.3295 16.6335 77.0114 18.2102 77.0057 20.2898C77 21.6818 77.1392 22.8523 77.4233 23.8011C77.7131 24.75 78.1222 25.4659 78.6506 25.9489C79.179 26.4261 79.8068 26.6648 80.5341 26.6648Z" fill="#F39200"/>
</g>
<defs>
<filter id="filter0_d_890_6370" x="0" y="0" width="128" height="48" filterUnits="userSpaceOnUse" color-interpolation-filters="sRGB">
<feFlood flood-opacity="0" result="BackgroundImageFix"/>
<feColorMatrix in="SourceAlpha" type="matrix" values="0 0 0 0 0 0 0 0 0 0 0 0 0 0 0 0 0 0 127 0" result="hardAlpha"/>
<feOffset dy="4"/>
<feGaussianBlur stdDeviation="2"/>
<feComposite in2="hardAlpha" operator="out"/>
<feColorMatrix type="matrix" values="0 0 0 0 0 0 0 0 0 0 0 0 0 0 0 0 0 0 0.25 0"/>
<feBlend mode="normal" in2="BackgroundImageFix" result="effect1_dropShadow_890_6370"/>
<feBlend mode="normal" in="SourceGraphic" in2="effect1_dropShadow_890_6370" result="shape"/>
</filter>
</defs>
</svg>
