<svg width="282" height="417" viewBox="0 0 282 417" fill="none" xmlns="http://www.w3.org/2000/svg">
<rect y="377" width="282" height="40" rx="8" fill="#D84E2E"/>
<path d="M118.109 403V391.364H125.677V393.131H120.217V396.29H125.285V398.057H120.217V401.233H125.722V403H118.109ZM129.793 397.886V403H127.737V394.273H129.702V395.756H129.805C130.005 395.267 130.326 394.879 130.765 394.591C131.208 394.303 131.755 394.159 132.407 394.159C133.009 394.159 133.534 394.288 133.981 394.545C134.432 394.803 134.78 395.176 135.026 395.665C135.276 396.153 135.399 396.746 135.396 397.443V403H133.339V397.761C133.339 397.178 133.187 396.722 132.884 396.392C132.585 396.062 132.17 395.898 131.64 395.898C131.28 395.898 130.96 395.977 130.68 396.136C130.403 396.292 130.185 396.517 130.026 396.812C129.871 397.108 129.793 397.466 129.793 397.886ZM144.969 394.273L141.862 403H139.589L136.481 394.273H138.674L140.68 400.756H140.771L142.782 394.273H144.969ZM146.393 403V394.273H148.45V403H146.393ZM147.427 393.034C147.101 393.034 146.821 392.926 146.586 392.71C146.351 392.491 146.234 392.227 146.234 391.92C146.234 391.61 146.351 391.347 146.586 391.131C146.821 390.911 147.101 390.801 147.427 390.801C147.756 390.801 148.037 390.911 148.268 391.131C148.503 391.347 148.62 391.61 148.62 391.92C148.62 392.227 148.503 392.491 148.268 392.71C148.037 392.926 147.756 393.034 147.427 393.034ZM153.076 403.176C152.523 403.176 152.025 403.078 151.582 402.881C151.142 402.68 150.794 402.384 150.536 401.994C150.282 401.604 150.156 401.123 150.156 400.551C150.156 400.059 150.246 399.652 150.428 399.33C150.61 399.008 150.858 398.75 151.173 398.557C151.487 398.364 151.841 398.218 152.235 398.119C152.633 398.017 153.044 397.943 153.468 397.898C153.979 397.845 154.394 397.797 154.712 397.756C155.031 397.71 155.262 397.642 155.406 397.551C155.553 397.456 155.627 397.311 155.627 397.114V397.08C155.627 396.652 155.5 396.32 155.246 396.085C154.993 395.85 154.627 395.733 154.15 395.733C153.646 395.733 153.246 395.843 152.951 396.062C152.659 396.282 152.462 396.542 152.36 396.841L150.44 396.568C150.591 396.038 150.841 395.595 151.19 395.239C151.538 394.879 151.964 394.61 152.468 394.432C152.972 394.25 153.529 394.159 154.138 394.159C154.559 394.159 154.978 394.208 155.394 394.307C155.811 394.405 156.192 394.568 156.536 394.795C156.881 395.019 157.157 395.324 157.366 395.71C157.578 396.097 157.684 396.58 157.684 397.159V403H155.707V401.801H155.638C155.513 402.044 155.337 402.271 155.11 402.483C154.887 402.691 154.604 402.86 154.263 402.989C153.926 403.114 153.531 403.176 153.076 403.176ZM153.61 401.665C154.023 401.665 154.381 401.583 154.684 401.42C154.987 401.254 155.22 401.034 155.383 400.761C155.549 400.489 155.633 400.191 155.633 399.869V398.841C155.568 398.894 155.459 398.943 155.303 398.989C155.152 399.034 154.981 399.074 154.792 399.108C154.603 399.142 154.415 399.172 154.229 399.199C154.044 399.225 153.883 399.248 153.746 399.267C153.44 399.309 153.165 399.377 152.923 399.472C152.68 399.566 152.489 399.699 152.349 399.869C152.209 400.036 152.138 400.252 152.138 400.517C152.138 400.896 152.277 401.182 152.553 401.375C152.83 401.568 153.182 401.665 153.61 401.665ZM159.752 403V394.273H161.746V395.727H161.837C161.996 395.223 162.269 394.835 162.656 394.562C163.046 394.286 163.491 394.148 163.991 394.148C164.104 394.148 164.231 394.153 164.371 394.165C164.515 394.172 164.635 394.186 164.729 394.205V396.097C164.642 396.066 164.504 396.04 164.315 396.017C164.129 395.991 163.949 395.977 163.775 395.977C163.4 395.977 163.063 396.059 162.763 396.222C162.468 396.381 162.235 396.602 162.065 396.886C161.894 397.17 161.809 397.498 161.809 397.869V403H159.752Z" fill="white"/>
<path d="M2 8C2 4.13401 5.13401 1 9 1H271C275.971 1 280 5.02944 280 10V30C280 34.9706 275.971 39 271 39H11C6.02943 39 2 34.9706 2 30V8Z" fill="#FFFDFB" stroke="#B9A78E" stroke-width="2"/>
<path d="M27.9602 14.3636V26H26.0852L20.6023 18.0739H20.5057V26H18.3977V14.3636H20.2841L25.7614 22.2955H25.8636V14.3636H27.9602ZM33.973 26.1705C33.1207 26.1705 32.3821 25.983 31.7571 25.608C31.1321 25.233 30.6473 24.7083 30.3026 24.0341C29.9616 23.3598 29.7912 22.572 29.7912 21.6705C29.7912 20.7689 29.9616 19.9792 30.3026 19.3011C30.6473 18.6231 31.1321 18.0966 31.7571 17.7216C32.3821 17.3466 33.1207 17.1591 33.973 17.1591C34.8253 17.1591 35.5639 17.3466 36.1889 17.7216C36.8139 18.0966 37.2969 18.6231 37.6378 19.3011C37.9825 19.9792 38.1548 20.7689 38.1548 21.6705C38.1548 22.572 37.9825 23.3598 37.6378 24.0341C37.2969 24.7083 36.8139 25.233 36.1889 25.608C35.5639 25.983 34.8253 26.1705 33.973 26.1705ZM33.9844 24.5227C34.4465 24.5227 34.8329 24.3958 35.1435 24.142C35.4541 23.8845 35.6851 23.5398 35.8366 23.108C35.992 22.6761 36.0696 22.1951 36.0696 21.6648C36.0696 21.1307 35.992 20.6477 35.8366 20.2159C35.6851 19.7803 35.4541 19.4337 35.1435 19.1761C34.8329 18.9186 34.4465 18.7898 33.9844 18.7898C33.5109 18.7898 33.117 18.9186 32.8026 19.1761C32.492 19.4337 32.259 19.7803 32.1037 20.2159C31.9522 20.6477 31.8764 21.1307 31.8764 21.6648C31.8764 22.1951 31.9522 22.6761 32.1037 23.108C32.259 23.5398 32.492 23.8845 32.8026 24.142C33.117 24.3958 33.5109 24.5227 33.9844 24.5227ZM39.9006 26V17.2727H41.8665V18.7557H41.9688C42.1506 18.2557 42.4517 17.8655 42.8722 17.5852C43.2926 17.3011 43.7945 17.1591 44.3778 17.1591C44.9688 17.1591 45.4669 17.303 45.8722 17.5909C46.2813 17.875 46.5691 18.2633 46.7358 18.7557H46.8267C47.0199 18.2708 47.3456 17.8845 47.804 17.5966C48.2661 17.3049 48.8134 17.1591 49.446 17.1591C50.2491 17.1591 50.9044 17.4129 51.4119 17.9205C51.9195 18.428 52.1733 19.1686 52.1733 20.142V26H50.1108V20.4602C50.1108 19.9186 49.9669 19.5227 49.679 19.2727C49.3911 19.0189 49.0388 18.892 48.6222 18.892C48.1259 18.892 47.7377 19.0473 47.4574 19.358C47.1809 19.6648 47.0426 20.0644 47.0426 20.5568V26H45.0256V20.375C45.0256 19.9242 44.8892 19.5644 44.6165 19.2955C44.3475 19.0265 43.9953 18.892 43.5597 18.892C43.2642 18.892 42.9953 18.9678 42.7528 19.1193C42.5104 19.267 42.3172 19.4773 42.1733 19.75C42.0294 20.0189 41.9574 20.3333 41.9574 20.6932V26H39.9006ZM54.3509 26V14.3636H56.4077V18.7159H56.4929C56.599 18.5038 56.7486 18.2784 56.9418 18.0398C57.1349 17.7973 57.3963 17.5909 57.7259 17.4205C58.0554 17.2462 58.4759 17.1591 58.9872 17.1591C59.6615 17.1591 60.2694 17.3314 60.8111 17.6761C61.3565 18.017 61.7884 18.5227 62.1065 19.1932C62.4285 19.8598 62.5895 20.678 62.5895 21.6477C62.5895 22.6061 62.4323 23.4205 62.1179 24.0909C61.8035 24.7614 61.3755 25.2727 60.8338 25.625C60.2921 25.9773 59.6785 26.1534 58.9929 26.1534C58.4929 26.1534 58.0781 26.0701 57.7486 25.9034C57.419 25.7367 57.1539 25.536 56.9531 25.3011C56.7562 25.0625 56.6027 24.8371 56.4929 24.625H56.3736V26H54.3509ZM56.3679 21.6364C56.3679 22.2008 56.4474 22.6951 56.6065 23.1193C56.7694 23.5436 57.0024 23.875 57.3054 24.1136C57.6122 24.3485 57.9834 24.4659 58.419 24.4659C58.8736 24.4659 59.2543 24.3447 59.5611 24.1023C59.8679 23.8561 60.099 23.5208 60.2543 23.0966C60.4134 22.6686 60.4929 22.1818 60.4929 21.6364C60.4929 21.0947 60.4152 20.6136 60.2599 20.1932C60.1046 19.7727 59.8736 19.4432 59.5668 19.2045C59.2599 18.9659 58.8774 18.8466 58.419 18.8466C57.9796 18.8466 57.6065 18.9621 57.2997 19.1932C56.9929 19.4242 56.7599 19.7481 56.6009 20.1648C56.4455 20.5814 56.3679 21.072 56.3679 21.6364ZM64.3381 26V17.2727H66.3324V18.7273H66.4233C66.5824 18.2235 66.8551 17.8352 67.2415 17.5625C67.6316 17.286 68.0767 17.1477 68.5767 17.1477C68.6903 17.1477 68.8172 17.1534 68.9574 17.1648C69.1013 17.1723 69.2206 17.1856 69.3153 17.2045V19.0966C69.2282 19.0663 69.09 19.0398 68.9006 19.017C68.715 18.9905 68.535 18.9773 68.3608 18.9773C67.9858 18.9773 67.6487 19.0587 67.3494 19.2216C67.054 19.3807 66.821 19.6023 66.6506 19.8864C66.4801 20.1705 66.3949 20.4981 66.3949 20.8693V26H64.3381ZM74.1861 26.1705C73.3111 26.1705 72.5554 25.9886 71.919 25.625C71.2865 25.2576 70.7997 24.7386 70.4588 24.0682C70.1179 23.3939 69.9474 22.6004 69.9474 21.6875C69.9474 20.7898 70.1179 20.0019 70.4588 19.3239C70.8035 18.642 71.2846 18.1117 71.902 17.733C72.5194 17.3504 73.2448 17.1591 74.0781 17.1591C74.616 17.1591 75.1236 17.2462 75.6009 17.4205C76.0819 17.5909 76.5062 17.8561 76.8736 18.2159C77.2448 18.5758 77.5365 19.0341 77.7486 19.5909C77.9607 20.1439 78.0668 20.803 78.0668 21.5682V22.1989H70.9134V20.8125H76.0952C76.0914 20.4186 76.0062 20.0682 75.8395 19.7614C75.6728 19.4508 75.4399 19.2064 75.1406 19.0284C74.8452 18.8504 74.5005 18.7614 74.1065 18.7614C73.6861 18.7614 73.3168 18.8636 72.9986 19.0682C72.6804 19.2689 72.4323 19.5341 72.2543 19.8636C72.08 20.1894 71.991 20.5473 71.9872 20.9375V22.1477C71.9872 22.6553 72.08 23.0909 72.2656 23.4545C72.4512 23.8144 72.7107 24.0909 73.044 24.2841C73.3774 24.4735 73.7675 24.5682 74.2145 24.5682C74.5137 24.5682 74.7846 24.5265 75.027 24.4432C75.2694 24.3561 75.4796 24.2292 75.6577 24.0625C75.8357 23.8958 75.9702 23.6894 76.0611 23.4432L77.9815 23.6591C77.8603 24.1667 77.6293 24.6098 77.2884 24.9886C76.9512 25.3636 76.5194 25.6553 75.9929 25.8636C75.4664 26.0682 74.8641 26.1705 74.1861 26.1705Z" fill="#4B4B4B"/>
<path d="M2 108C2 104.134 5.13401 101 9 101H271C275.971 101 280 105.029 280 110V130C280 134.971 275.971 139 271 139H11C6.02943 139 2 134.971 2 130V108Z" fill="#FFFDFB" stroke="#B9A78E" stroke-width="2"/>
<path d="M2 208C2 204.134 5.13401 201 9 201H271C275.971 201 280 205.029 280 210V290C280 294.971 275.971 299 271 299H11C6.02943 299 2 294.971 2 290V208Z" fill="#FFFDFB" stroke="#B9A78E" stroke-width="2"/>
<path d="M28.522 118.29H26.397C26.3364 117.941 26.2247 117.633 26.0618 117.364C25.8989 117.091 25.6963 116.86 25.4538 116.67C25.2114 116.481 24.9349 116.339 24.6243 116.244C24.3175 116.146 23.986 116.097 23.63 116.097C22.9974 116.097 22.4368 116.256 21.9482 116.574C21.4595 116.888 21.0769 117.35 20.8004 117.96C20.5239 118.566 20.3857 119.307 20.3857 120.182C20.3857 121.072 20.5239 121.822 20.8004 122.432C21.0807 123.038 21.4633 123.496 21.9482 123.807C22.4368 124.114 22.9955 124.267 23.6243 124.267C23.9728 124.267 24.2985 124.222 24.6016 124.131C24.9084 124.036 25.183 123.898 25.4254 123.716C25.6716 123.534 25.8781 123.311 26.0447 123.045C26.2152 122.78 26.3326 122.477 26.397 122.136L28.522 122.148C28.4425 122.701 28.2701 123.22 28.005 123.705C27.7436 124.189 27.4008 124.617 26.9766 124.989C26.5523 125.356 26.0561 125.644 25.4879 125.852C24.9197 126.057 24.2891 126.159 23.5959 126.159C22.5732 126.159 21.6603 125.922 20.8572 125.449C20.0542 124.975 19.4216 124.292 18.9595 123.398C18.4974 122.504 18.2663 121.432 18.2663 120.182C18.2663 118.928 18.4993 117.856 18.9652 116.966C19.4311 116.072 20.0656 115.388 20.8686 114.915C21.6716 114.441 22.5807 114.205 23.5959 114.205C24.2436 114.205 24.8459 114.295 25.4027 114.477C25.9595 114.659 26.4557 114.926 26.8913 115.278C27.3269 115.627 27.6849 116.055 27.9652 116.562C28.2493 117.066 28.4349 117.642 28.522 118.29ZM34.1683 126.17C33.3161 126.17 32.5774 125.983 31.9524 125.608C31.3274 125.233 30.8426 124.708 30.4979 124.034C30.157 123.36 29.9865 122.572 29.9865 121.67C29.9865 120.769 30.157 119.979 30.4979 119.301C30.8426 118.623 31.3274 118.097 31.9524 117.722C32.5774 117.347 33.3161 117.159 34.1683 117.159C35.0206 117.159 35.7592 117.347 36.3842 117.722C37.0092 118.097 37.4922 118.623 37.8331 119.301C38.1778 119.979 38.3501 120.769 38.3501 121.67C38.3501 122.572 38.1778 123.36 37.8331 124.034C37.4922 124.708 37.0092 125.233 36.3842 125.608C35.7592 125.983 35.0206 126.17 34.1683 126.17ZM34.1797 124.523C34.6418 124.523 35.0282 124.396 35.3388 124.142C35.6494 123.884 35.8804 123.54 36.032 123.108C36.1873 122.676 36.2649 122.195 36.2649 121.665C36.2649 121.131 36.1873 120.648 36.032 120.216C35.8804 119.78 35.6494 119.434 35.3388 119.176C35.0282 118.919 34.6418 118.79 34.1797 118.79C33.7062 118.79 33.3123 118.919 32.9979 119.176C32.6873 119.434 32.4543 119.78 32.299 120.216C32.1475 120.648 32.0717 121.131 32.0717 121.665C32.0717 122.195 32.1475 122.676 32.299 123.108C32.4543 123.54 32.6873 123.884 32.9979 124.142C33.3123 124.396 33.7062 124.523 34.1797 124.523ZM40.0959 126V117.273H42.0902V118.727H42.1811C42.3402 118.223 42.6129 117.835 42.9993 117.562C43.3894 117.286 43.8345 117.148 44.3345 117.148C44.4482 117.148 44.575 117.153 44.7152 117.165C44.8591 117.172 44.9785 117.186 45.0732 117.205V119.097C44.986 119.066 44.8478 119.04 44.6584 119.017C44.4728 118.991 44.2929 118.977 44.1186 118.977C43.7436 118.977 43.4065 119.059 43.1072 119.222C42.8118 119.381 42.5788 119.602 42.4084 119.886C42.2379 120.17 42.1527 120.498 42.1527 120.869V126H40.0959ZM46.4396 126V117.273H48.4339V118.727H48.5249C48.6839 118.223 48.9567 117.835 49.343 117.562C49.7332 117.286 50.1783 117.148 50.6783 117.148C50.7919 117.148 50.9188 117.153 51.0589 117.165C51.2029 117.172 51.3222 117.186 51.4169 117.205V119.097C51.3298 119.066 51.1915 119.04 51.0021 119.017C50.8165 118.991 50.6366 118.977 50.4624 118.977C50.0874 118.977 49.7502 119.059 49.451 119.222C49.1555 119.381 48.9226 119.602 48.7521 119.886C48.5817 120.17 48.4964 120.498 48.4964 120.869V126H46.4396ZM56.2876 126.17C55.4126 126.17 54.657 125.989 54.0206 125.625C53.388 125.258 52.9013 124.739 52.5604 124.068C52.2195 123.394 52.049 122.6 52.049 121.688C52.049 120.79 52.2195 120.002 52.5604 119.324C52.9051 118.642 53.3861 118.112 54.0036 117.733C54.621 117.35 55.3464 117.159 56.1797 117.159C56.7176 117.159 57.2251 117.246 57.7024 117.42C58.1835 117.591 58.6077 117.856 58.9751 118.216C59.3464 118.576 59.638 119.034 59.8501 119.591C60.0623 120.144 60.1683 120.803 60.1683 121.568V122.199H53.0149V120.812H58.1967C58.1929 120.419 58.1077 120.068 57.9411 119.761C57.7744 119.451 57.5414 119.206 57.2422 119.028C56.9467 118.85 56.602 118.761 56.2081 118.761C55.7876 118.761 55.4183 118.864 55.1001 119.068C54.782 119.269 54.5339 119.534 54.3558 119.864C54.1816 120.189 54.0926 120.547 54.0888 120.938V122.148C54.0888 122.655 54.1816 123.091 54.3672 123.455C54.5528 123.814 54.8123 124.091 55.1456 124.284C55.4789 124.473 55.8691 124.568 56.3161 124.568C56.6153 124.568 56.8861 124.527 57.1286 124.443C57.371 124.356 57.5812 124.229 57.7592 124.062C57.9373 123.896 58.0717 123.689 58.1626 123.443L60.0831 123.659C59.9619 124.167 59.7308 124.61 59.3899 124.989C59.0528 125.364 58.621 125.655 58.0945 125.864C57.5679 126.068 56.9657 126.17 56.2876 126.17ZM65.7152 126.17C64.8629 126.17 64.1243 125.983 63.4993 125.608C62.8743 125.233 62.3894 124.708 62.0447 124.034C61.7038 123.36 61.5334 122.572 61.5334 121.67C61.5334 120.769 61.7038 119.979 62.0447 119.301C62.3894 118.623 62.8743 118.097 63.4993 117.722C64.1243 117.347 64.8629 117.159 65.7152 117.159C66.5675 117.159 67.3061 117.347 67.9311 117.722C68.5561 118.097 69.0391 118.623 69.38 119.301C69.7247 119.979 69.897 120.769 69.897 121.67C69.897 122.572 69.7247 123.36 69.38 124.034C69.0391 124.708 68.5561 125.233 67.9311 125.608C67.3061 125.983 66.5675 126.17 65.7152 126.17ZM65.7266 124.523C66.1887 124.523 66.575 124.396 66.8857 124.142C67.1963 123.884 67.4273 123.54 67.5788 123.108C67.7341 122.676 67.8118 122.195 67.8118 121.665C67.8118 121.131 67.7341 120.648 67.5788 120.216C67.4273 119.78 67.1963 119.434 66.8857 119.176C66.575 118.919 66.1887 118.79 65.7266 118.79C65.2531 118.79 64.8591 118.919 64.5447 119.176C64.2341 119.434 64.0012 119.78 63.8459 120.216C63.6944 120.648 63.6186 121.131 63.6186 121.665C63.6186 122.195 63.6944 122.676 63.8459 123.108C64.0012 123.54 64.2341 123.884 64.5447 124.142C64.8591 124.396 65.2531 124.523 65.7266 124.523Z" fill="#4B4B4B"/>
<path d="M18.468 214.364H21.0476L24.5021 222.795H24.6385L28.093 214.364H30.6726V226H28.6499V218.006H28.5419L25.326 225.966H23.8146L20.5987 217.989H20.4908V226H18.468V214.364ZM36.7408 226.17C35.8658 226.17 35.1101 225.989 34.4737 225.625C33.8411 225.258 33.3544 224.739 33.0135 224.068C32.6726 223.394 32.5021 222.6 32.5021 221.688C32.5021 220.79 32.6726 220.002 33.0135 219.324C33.3582 218.642 33.8393 218.112 34.4567 217.733C35.0741 217.35 35.7995 217.159 36.6328 217.159C37.1707 217.159 37.6783 217.246 38.1555 217.42C38.6366 217.591 39.0608 217.856 39.4283 218.216C39.7995 218.576 40.0911 219.034 40.3033 219.591C40.5154 220.144 40.6214 220.803 40.6214 221.568V222.199H33.468V220.812H38.6499C38.6461 220.419 38.5608 220.068 38.3942 219.761C38.2275 219.451 37.9946 219.206 37.6953 219.028C37.3999 218.85 37.0552 218.761 36.6612 218.761C36.2408 218.761 35.8714 218.864 35.5533 219.068C35.2351 219.269 34.987 219.534 34.8089 219.864C34.6347 220.189 34.5457 220.547 34.5419 220.938V222.148C34.5419 222.655 34.6347 223.091 34.8203 223.455C35.0059 223.814 35.2654 224.091 35.5987 224.284C35.9321 224.473 36.3222 224.568 36.7692 224.568C37.0684 224.568 37.3393 224.527 37.5817 224.443C37.8241 224.356 38.0343 224.229 38.2124 224.062C38.3904 223.896 38.5249 223.689 38.6158 223.443L40.5362 223.659C40.415 224.167 40.1839 224.61 39.843 224.989C39.5059 225.364 39.0741 225.655 38.5476 225.864C38.0211 226.068 37.4188 226.17 36.7408 226.17ZM44.4183 220.886V226H42.3615V217.273H44.3274V218.756H44.4297C44.6304 218.267 44.9505 217.879 45.3899 217.591C45.8331 217.303 46.3804 217.159 47.032 217.159C47.6342 217.159 48.1589 217.288 48.6058 217.545C49.0566 217.803 49.4051 218.176 49.6513 218.665C49.9013 219.153 50.0244 219.746 50.0206 220.443V226H47.9638V220.761C47.9638 220.178 47.8123 219.722 47.5092 219.392C47.21 219.062 46.7952 218.898 46.2649 218.898C45.9051 218.898 45.585 218.977 45.3047 219.136C45.0282 219.292 44.8104 219.517 44.6513 219.812C44.496 220.108 44.4183 220.466 44.4183 220.886ZM59.0092 219.58L57.1342 219.784C57.0812 219.595 56.9884 219.417 56.8558 219.25C56.727 219.083 56.5528 218.949 56.3331 218.847C56.1134 218.744 55.8445 218.693 55.5263 218.693C55.0982 218.693 54.7384 218.786 54.4467 218.972C54.1589 219.157 54.0168 219.398 54.0206 219.693C54.0168 219.947 54.1096 220.153 54.299 220.312C54.4922 220.472 54.8104 220.602 55.2536 220.705L56.7422 221.023C57.5679 221.201 58.1816 221.483 58.5831 221.869C58.9884 222.256 59.1929 222.761 59.1967 223.386C59.1929 223.936 59.032 224.42 58.7138 224.841C58.3994 225.258 57.9619 225.583 57.4013 225.818C56.8407 226.053 56.1967 226.17 55.4695 226.17C54.4013 226.17 53.5414 225.947 52.8899 225.5C52.2384 225.049 51.8501 224.422 51.7251 223.619L53.7308 223.426C53.8217 223.82 54.0149 224.117 54.3104 224.318C54.6058 224.519 54.9903 224.619 55.4638 224.619C55.9524 224.619 56.3445 224.519 56.6399 224.318C56.9392 224.117 57.0888 223.869 57.0888 223.574C57.0888 223.324 56.9922 223.117 56.799 222.955C56.6096 222.792 56.3142 222.667 55.9126 222.58L54.424 222.267C53.5869 222.093 52.9676 221.799 52.5661 221.386C52.1645 220.97 51.9657 220.443 51.9695 219.807C51.9657 219.269 52.1115 218.803 52.407 218.409C52.7062 218.011 53.121 217.705 53.6513 217.489C54.1854 217.269 54.8009 217.159 55.4979 217.159C56.5206 217.159 57.3255 217.377 57.9126 217.812C58.5036 218.248 58.8691 218.837 59.0092 219.58ZM63.4041 226.176C62.8511 226.176 62.353 226.078 61.9098 225.881C61.4704 225.68 61.1219 225.384 60.8643 224.994C60.6106 224.604 60.4837 224.123 60.4837 223.551C60.4837 223.059 60.5746 222.652 60.7564 222.33C60.9382 222.008 61.1863 221.75 61.5007 221.557C61.8151 221.364 62.1693 221.218 62.5632 221.119C62.9609 221.017 63.3719 220.943 63.7962 220.898C64.3075 220.845 64.7223 220.797 65.0405 220.756C65.3587 220.71 65.5897 220.642 65.7337 220.551C65.8814 220.456 65.9553 220.311 65.9553 220.114V220.08C65.9553 219.652 65.8284 219.32 65.5746 219.085C65.3208 218.85 64.9553 218.733 64.478 218.733C63.9742 218.733 63.5746 218.843 63.2791 219.062C62.9875 219.282 62.7905 219.542 62.6882 219.841L60.7678 219.568C60.9193 219.038 61.1693 218.595 61.5178 218.239C61.8662 217.879 62.2924 217.61 62.7962 217.432C63.3 217.25 63.8568 217.159 64.4666 217.159C64.8871 217.159 65.3056 217.208 65.7223 217.307C66.139 217.405 66.5196 217.568 66.8643 217.795C67.209 218.019 67.4856 218.324 67.6939 218.71C67.906 219.097 68.0121 219.58 68.0121 220.159V226H66.0348V224.801H65.9666C65.8416 225.044 65.6655 225.271 65.4382 225.483C65.2147 225.691 64.9325 225.86 64.5916 225.989C64.2545 226.114 63.8587 226.176 63.4041 226.176ZM63.9382 224.665C64.3511 224.665 64.709 224.583 65.0121 224.42C65.3151 224.254 65.5481 224.034 65.7109 223.761C65.8776 223.489 65.9609 223.191 65.9609 222.869V221.841C65.8965 221.894 65.7867 221.943 65.6314 221.989C65.4799 222.034 65.3094 222.074 65.12 222.108C64.9306 222.142 64.7431 222.172 64.5575 222.199C64.3719 222.225 64.2109 222.248 64.0746 222.267C63.7678 222.309 63.4931 222.377 63.2507 222.472C63.0083 222.566 62.817 222.699 62.6768 222.869C62.5367 223.036 62.4666 223.252 62.4666 223.517C62.4666 223.896 62.6049 224.182 62.8814 224.375C63.1579 224.568 63.5102 224.665 63.9382 224.665ZM70.0803 217.273H72.1371V226.5C72.1371 227.129 72.0178 227.648 71.7791 228.057C71.5405 228.466 71.1958 228.771 70.745 228.972C70.2943 229.172 69.7469 229.273 69.103 229.273C69.0272 229.273 68.9571 229.271 68.8928 229.267C68.8284 229.267 68.7583 229.265 68.6825 229.261V227.585C68.7393 227.589 68.7905 227.591 68.8359 227.591C68.8814 227.595 68.9287 227.597 68.978 227.597C69.3719 227.597 69.6541 227.5 69.8246 227.307C69.995 227.117 70.0803 226.839 70.0803 226.472V217.273ZM71.103 216.034C70.7734 216.034 70.4912 215.926 70.2564 215.71C70.0253 215.491 69.9098 215.227 69.9098 214.92C69.9098 214.61 70.0253 214.347 70.2564 214.131C70.4912 213.911 70.7734 213.801 71.103 213.801C71.4287 213.801 71.7071 213.911 71.9382 214.131C72.1731 214.347 72.2905 214.61 72.2905 214.92C72.2905 215.227 72.1731 215.491 71.9382 215.71C71.7071 215.926 71.4287 216.034 71.103 216.034ZM78.1158 226.17C77.2408 226.17 76.4851 225.989 75.8487 225.625C75.2161 225.258 74.7294 224.739 74.3885 224.068C74.0476 223.394 73.8771 222.6 73.8771 221.688C73.8771 220.79 74.0476 220.002 74.3885 219.324C74.7332 218.642 75.2143 218.112 75.8317 217.733C76.4491 217.35 77.1745 217.159 78.0078 217.159C78.5457 217.159 79.0533 217.246 79.5305 217.42C80.0116 217.591 80.4358 217.856 80.8033 218.216C81.1745 218.576 81.4661 219.034 81.6783 219.591C81.8904 220.144 81.9964 220.803 81.9964 221.568V222.199H74.843V220.812H80.0249C80.0211 220.419 79.9358 220.068 79.7692 219.761C79.6025 219.451 79.3696 219.206 79.0703 219.028C78.7749 218.85 78.4302 218.761 78.0362 218.761C77.6158 218.761 77.2464 218.864 76.9283 219.068C76.6101 219.269 76.362 219.534 76.1839 219.864C76.0097 220.189 75.9207 220.547 75.9169 220.938V222.148C75.9169 222.655 76.0097 223.091 76.1953 223.455C76.3809 223.814 76.6404 224.091 76.9737 224.284C77.3071 224.473 77.6972 224.568 78.1442 224.568C78.4434 224.568 78.7143 224.527 78.9567 224.443C79.1991 224.356 79.4093 224.229 79.5874 224.062C79.7654 223.896 79.8999 223.689 79.9908 223.443L81.9112 223.659C81.79 224.167 81.5589 224.61 81.218 224.989C80.8809 225.364 80.4491 225.655 79.9226 225.864C79.3961 226.068 78.7938 226.17 78.1158 226.17Z" fill="#4B4B4B"/>
</svg>
