<svg width="128" height="48" viewBox="0 0 128 48" fill="none" xmlns="http://www.w3.org/2000/svg">
<g filter="url(#filter0_d_890_6372)">
<rect x="4" width="120" height="40" rx="8" fill="#FBFAFA" shape-rendering="crispEdges"/>
<path d="M44.8089 31.1818V9.36364H46.2067V31.1818H44.8089ZM48.8402 16.3438C48.7607 15.5994 48.4254 15.0199 47.8345 14.6051C47.2493 14.1903 46.4879 13.983 45.5504 13.983C44.8913 13.983 44.326 14.0824 43.8544 14.2812C43.3828 14.4801 43.022 14.75 42.772 15.0909C42.522 15.4318 42.3942 15.821 42.3885 16.2585C42.3885 16.6222 42.4709 16.9375 42.6357 17.2045C42.8061 17.4716 43.0362 17.6989 43.326 17.8864C43.6158 18.0682 43.9368 18.2216 44.2891 18.3466C44.6413 18.4716 44.9964 18.5767 45.3544 18.6619L46.9908 19.071C47.6499 19.2244 48.2834 19.4318 48.8913 19.6932C49.505 19.9545 50.0533 20.2841 50.5362 20.6818C51.0249 21.0795 51.4112 21.5597 51.6953 22.1222C51.9794 22.6847 52.1214 23.3437 52.1214 24.0994C52.1214 25.1222 51.8601 26.0227 51.3374 26.8011C50.8146 27.5739 50.0589 28.179 49.0703 28.6165C48.0874 29.0483 46.897 29.2642 45.4993 29.2642C44.1413 29.2642 42.9624 29.054 41.9624 28.6335C40.968 28.2131 40.1896 27.5994 39.6271 26.7926C39.0703 25.9858 38.7692 25.0028 38.7237 23.8438H41.8345C41.88 24.4517 42.0675 24.9574 42.397 25.3608C42.7266 25.7642 43.1555 26.0653 43.6839 26.2642C44.218 26.4631 44.8146 26.5625 45.4737 26.5625C46.1612 26.5625 46.7635 26.4602 47.2805 26.2557C47.8033 26.0455 48.2124 25.7557 48.5078 25.3864C48.8033 25.0114 48.9538 24.5739 48.9595 24.0739C48.9538 23.6193 48.8203 23.2443 48.5589 22.9489C48.2976 22.6477 47.9311 22.3977 47.4595 22.1989C46.9936 21.9943 46.4482 21.8125 45.8232 21.6534L43.8374 21.142C42.3999 20.7727 41.2635 20.2131 40.4283 19.4631C39.5987 18.7074 39.1839 17.7045 39.1839 16.4545C39.1839 15.4261 39.4624 14.5256 40.0192 13.7528C40.5817 12.9801 41.3459 12.3807 42.3118 11.9545C43.2777 11.5227 44.3714 11.3068 45.593 11.3068C46.8317 11.3068 47.9169 11.5227 48.8487 11.9545C49.7862 12.3807 50.522 12.9744 51.0561 13.7358C51.5902 14.4915 51.8658 15.3608 51.8828 16.3438H48.8402ZM66.7912 29.2386C65.6548 29.2386 64.6378 29.0256 63.7401 28.5994C62.8423 28.1676 62.1293 27.5767 61.6009 26.8267C61.0781 26.0767 60.7997 25.2187 60.7656 24.2528H63.8338C63.8906 24.9687 64.2003 25.554 64.7628 26.0085C65.3253 26.4574 66.0014 26.6818 66.7912 26.6818C67.4105 26.6818 67.9616 26.5398 68.4446 26.2557C68.9276 25.9716 69.3082 25.5767 69.5866 25.071C69.8651 24.5653 70.0014 23.9886 69.9957 23.3409C70.0014 22.6818 69.8622 22.0966 69.5781 21.5852C69.294 21.0739 68.9048 20.6733 68.4105 20.3835C67.9162 20.0881 67.348 19.9403 66.706 19.9403C66.1832 19.9347 65.669 20.0312 65.1634 20.2301C64.6577 20.429 64.2571 20.6903 63.9616 21.0142L61.1065 20.5455L62.0185 11.5455H72.1435V14.1875H64.6349L64.1321 18.8153H64.2344C64.5582 18.4347 65.0156 18.1193 65.6065 17.8693C66.1974 17.6136 66.8452 17.4858 67.5497 17.4858C68.6065 17.4858 69.5497 17.7358 70.3793 18.2358C71.2088 18.7301 71.8622 19.4119 72.3395 20.2812C72.8168 21.1506 73.0554 22.1449 73.0554 23.2642C73.0554 24.4176 72.7884 25.446 72.2543 26.3494C71.7259 27.2472 70.9901 27.9545 70.0469 28.4716C69.1094 28.983 68.0241 29.2386 66.7912 29.2386ZM82.3622 29.3324C80.9588 29.3324 79.7543 28.9773 78.7486 28.267C77.7486 27.5511 76.9787 26.5199 76.4389 25.1733C75.9048 23.821 75.6378 22.1932 75.6378 20.2898C75.6435 18.3864 75.9134 16.767 76.4474 15.4318C76.9872 14.0909 77.7571 13.0682 78.7571 12.3636C79.7628 11.6591 80.9645 11.3068 82.3622 11.3068C83.7599 11.3068 84.9616 11.6591 85.9673 12.3636C86.973 13.0682 87.7429 14.0909 88.277 15.4318C88.8168 16.7727 89.0866 18.392 89.0866 20.2898C89.0866 22.1989 88.8168 23.8295 88.277 25.1818C87.7429 26.5284 86.973 27.5568 85.9673 28.267C84.9673 28.9773 83.7656 29.3324 82.3622 29.3324ZM82.3622 26.6648C83.4531 26.6648 84.3139 26.1278 84.9446 25.054C85.581 23.9744 85.8991 22.3864 85.8991 20.2898C85.8991 18.9034 85.7543 17.7386 85.4645 16.7955C85.1747 15.8523 84.7656 15.142 84.2372 14.6648C83.7088 14.1818 83.0838 13.9403 82.3622 13.9403C81.277 13.9403 80.419 14.4801 79.7884 15.5597C79.1577 16.6335 78.8395 18.2102 78.8338 20.2898C78.8281 21.6818 78.9673 22.8523 79.2514 23.8011C79.5412 24.75 79.9503 25.4659 80.4787 25.9489C81.0071 26.4261 81.6349 26.6648 82.3622 26.6648Z" fill="#F39200"/>
</g>
<defs>
<filter id="filter0_d_890_6372" x="0" y="0" width="128" height="48" filterUnits="userSpaceOnUse" color-interpolation-filters="sRGB">
<feFlood flood-opacity="0" result="BackgroundImageFix"/>
<feColorMatrix in="SourceAlpha" type="matrix" values="0 0 0 0 0 0 0 0 0 0 0 0 0 0 0 0 0 0 127 0" result="hardAlpha"/>
<feOffset dy="4"/>
<feGaussianBlur stdDeviation="2"/>
<feComposite in2="hardAlpha" operator="out"/>
<feColorMatrix type="matrix" values="0 0 0 0 0 0 0 0 0 0 0 0 0 0 0 0 0 0 0.25 0"/>
<feBlend mode="normal" in2="BackgroundImageFix" result="effect1_dropShadow_890_6372"/>
<feBlend mode="normal" in="SourceGraphic" in2="effect1_dropShadow_890_6372" result="shape"/>
</filter>
</defs>
</svg>
