<svg width="50" height="54" viewBox="0 0 50 54" fill="none" xmlns="http://www.w3.org/2000/svg">
<path d="M8.54485 30.149C8.42847 29.7677 8.29598 29.3917 8.1438 29.0228C7.64249 27.8153 6.93888 26.7014 6.23705 25.5964C5.57222 24.5466 4.90679 23.4968 4.24077 22.4471C3.65174 21.5168 2.93021 20.62 2.67598 19.5379C1.70918 15.4495 4.89247 13.3223 5.14491 12.136C5.39736 10.9498 2.80847 11.1192 0.946473 14.8087C-0.448233 17.5714 -0.253083 20.3746 1.21324 23.1461C2.32148 25.2398 3.89881 27.0704 5.02854 29.134C6.02578 30.954 5.98281 33.143 5.77513 35.2013C5.62474 36.6771 5.40452 38.1846 5.7429 39.6304C5.95058 40.513 6.60765 42.0259 7.60848 42.2783C8.77222 42.5837 9.52955 41.3957 9.50091 40.4053C9.46084 39.9178 9.3939 39.4328 9.30039 38.9525C9.21443 38.1393 9.19109 37.3208 9.23056 36.5041C9.26279 34.3751 9.16074 32.1915 8.54485 30.149Z" fill="#37474F"/>
<path d="M29.4005 30.1227C29.6957 30.2833 29.9756 30.47 30.2366 30.6805C30.6728 31.0423 31.0603 31.4575 31.3896 31.9162C32.8219 33.8581 33.3769 36.5431 32.3492 38.7197C31.2607 41.0145 28.559 42.3473 25.988 42.2061C27.1124 42.7127 28.4784 42.3208 29.6637 42.6827C30.2617 42.8593 30.711 43.5054 30.8256 44.1126C30.9402 44.7199 30.7522 45.3483 29.9734 45.3483C29.9734 45.6466 29.4005 46.1904 28.3853 45.9167C28.3334 46.1356 28.2063 46.5328 26.5126 46.2521C24.8189 45.9715 19.8631 43.9908 17.8472 42.8575C17.0468 42.441 16.2977 41.9352 15.6146 41.3499C14.3774 40.2908 13.5592 38.7585 13.1868 37.1697C12.7177 35.1608 12.8806 33.0619 13.1617 31.0195C13.6147 27.7307 14.415 23.8771 18.1999 22.9857C18.6326 22.868 19.0865 22.8475 19.5283 22.9256C20.2302 23.0757 20.8049 23.5894 21.197 24.1843C22.0922 25.5506 22.1297 27.2859 22.0331 28.9117C21.9543 30.2445 22.9569 29.5878 23.8234 29.4413C24.7061 29.2885 25.6041 29.2411 26.4983 29.3001C27.5138 29.3687 28.503 29.6491 29.4005 30.1227Z" fill="#37474F"/>
<path d="M29.968 45.3428C30.0879 44.6367 30.0432 43.7911 29.3646 43.5016C28.686 43.2121 27.4453 43.2792 27.4453 43.2792C27.4453 43.2792 29.0942 43.0338 29.703 43.4134C30.3117 43.7929 30.1649 44.8009 29.968 45.3428Z" fill="#263238"/>
<path d="M28.382 45.906C28.502 45.1999 28.4572 44.3544 27.7787 44.0649C27.1001 43.7753 25.8594 43.8424 25.8594 43.8424C25.8594 43.8424 27.5083 43.5988 28.117 43.9766C28.7258 44.3544 28.5772 45.3659 28.382 45.906Z" fill="#263238"/>
<path d="M24.7742 40.1372C24.4358 40.1725 24.058 40.0083 23.9435 39.6888C24.2389 40.4214 23.7644 41.2899 23.0662 41.6712C22.3679 42.0525 21.5157 42.0419 20.7279 41.913C17.9153 41.4523 15.3568 39.4293 14.5404 36.7337C14.1071 35.2985 14.1626 33.7539 14.4634 32.2852C14.9223 30.1001 15.8935 28.0513 17.2994 26.3026C18.3736 24.9557 19.7737 23.7606 21.4674 23.3634C23.1611 22.9662 25.1699 23.554 26.0167 25.0545C26.2887 25.5742 26.4627 26.1383 26.5306 26.7192C26.8403 28.8517 26.4213 31.0089 26.6845 33.1431C26.8528 34.5006 27.1948 35.8934 26.928 37.2615C26.7042 38.3701 26.1331 39.9942 24.7742 40.1372Z" fill="#F0F0F0"/>
<path d="M17.1921 34.1474C17.9763 33.7767 18.8876 33.7449 19.747 33.872C20.3736 33.9656 21.0343 34.1704 21.4067 34.6752C21.489 34.2604 22.0924 34.1456 22.4505 34.3716C22.8085 34.5976 22.9786 35.0248 23.1236 35.4219C23.2221 34.827 23.3815 34.1492 23.9275 33.8738C24.4736 33.5984 25.2327 33.9744 25.6105 34.4034C25.9054 34.7591 26.1192 35.1734 26.2371 35.6179C26.332 35.4237 26.6113 35.4272 26.8172 35.4926C26.8783 35.5117 26.9381 35.5347 26.9962 35.5614C27.0488 36.1299 27.0241 36.7028 26.9228 37.2649C26.708 38.3735 26.1368 39.9976 24.7744 40.1406C24.436 40.1759 24.0582 40.0117 23.9436 39.6922C24.239 40.4248 23.7646 41.2933 23.0663 41.6746C22.3681 42.0559 21.5159 42.0453 20.7281 41.9164C19.911 41.7799 19.1204 41.5191 18.3845 41.1432C17.4684 40.1447 16.719 39.009 16.1644 37.7786C15.9209 37.2596 15.6989 36.7053 15.7294 36.1334C15.7759 35.2684 16.4061 34.5181 17.1921 34.1474Z" fill="#E0E0E0"/>
<path d="M33.2236 17.6492C33.2791 17.7462 33.3329 17.8416 33.3866 17.9404C34.2585 19.5292 34.8189 21.4233 34.2352 23.208C33.6211 25.074 31.9077 26.6274 30.2964 27.6831C29.4173 28.2585 26.8266 29.6619 26.0478 28.2356C25.8365 27.849 25.8491 27.3882 25.8365 26.9487C25.8186 26.3909 25.7399 25.803 25.3997 25.3599C25.0595 24.9168 24.3845 24.6732 23.9047 24.9698C23.5198 25.2081 23.3819 25.6936 23.3372 26.1384C23.2924 26.5833 23.3085 27.0528 23.1134 27.4553C23.0708 27.5599 22.9955 27.6483 22.8985 27.7078C22.7571 27.7801 22.5852 27.7413 22.4312 27.7784C21.4447 28.0114 21.7348 30.6505 21.835 31.3513C21.8798 31.662 21.8726 32.068 21.5754 32.181C21.366 32.2604 21.1404 32.1351 20.9452 32.0274C20.4932 31.7799 20.0044 31.6042 19.4968 31.5067C19.3178 31.4731 19.0976 31.4767 19.0331 31.6373C18.9686 31.7979 19.1047 31.9321 19.2121 32.0557C19.3834 32.2697 19.489 32.5276 19.5165 32.7989C19.524 32.8353 19.524 32.8729 19.5163 32.9093C19.5086 32.9457 19.4934 32.9802 19.4717 33.0107C19.417 33.0568 19.3468 33.0813 19.2748 33.0795C18.8773 33.1113 18.4763 33.0601 18.077 33.0707C17.0135 33.0937 16.0378 34.0628 16.0879 35.1184C18.6983 34.0346 21.1887 35.8069 22.6085 37.8635C23.4003 38.989 23.7792 40.3471 23.6827 41.7136C23.6195 42.7962 23.2416 43.838 22.5942 44.7145C21.8315 45.802 19.7296 47.0659 18.496 47.0306C19.0694 47.2054 19.6553 47.3376 20.2488 47.426C22.0821 47.7332 22.6568 47.5443 23.5717 47.825C24.1715 48.0015 24.6209 48.6476 24.7355 49.2549C24.85 49.8621 24.6621 50.4906 23.8832 50.4906C23.8743 50.7889 23.3103 51.3344 22.2952 51.059C22.2432 51.2796 22.1161 51.6751 20.4224 51.3944C18.7287 51.1137 13.7622 49.1189 11.7516 47.9874C10.9525 47.5698 10.2041 47.064 9.5208 46.4798C8.28365 45.4207 7.46545 43.8884 7.09305 42.2996C6.62397 40.289 6.78689 38.1918 7.06798 36.1476C8.24247 27.6248 12.9655 23.4269 14.7398 21.6581C16.1273 20.2759 17.7333 19.2238 19.4431 18.2723C21.0437 17.3808 21.6256 17.0189 22.8914 15.7532C23.4625 15.1848 24.4186 13.7955 24.9306 13.1742C25.3854 12.6234 26.3164 11.716 26.9 10.791C26.9 10.791 28.7101 12.4327 29.3045 12.9358C30.8782 14.271 32.2043 15.8659 33.2236 17.6492Z" fill="#455A64"/>
<path d="M23.8664 50.4835C23.9864 49.7774 23.9398 48.9318 23.263 48.6423C22.5863 48.3528 21.3438 48.4199 21.3438 48.4199C21.3438 48.4199 22.9927 48.1745 23.6014 48.5523C24.2102 48.9301 24.0633 49.9416 23.8664 50.4835Z" fill="#263238"/>
<path d="M22.2805 51.0467C22.4004 50.3406 22.3557 49.495 21.6771 49.2055C20.9985 48.916 19.7578 48.9831 19.7578 48.9831C19.7578 48.9831 21.4068 48.7377 22.0155 49.1172C22.6242 49.4968 22.4774 50.5047 22.2805 51.0467Z" fill="#263238"/>
<path d="M41.847 27.2241C42.0364 27.9235 42.0869 28.6525 41.9956 29.3707C41.891 29.9662 41.7105 30.5463 41.4585 31.0972C40.7842 32.6795 39.9037 34.1684 38.8392 35.5263C38.7353 35.6605 39.2098 35.8034 39.0397 35.8229C38.8696 35.8423 38.5366 36.0206 38.3862 35.9253C37.491 35.3657 36.7176 33.355 36.0694 32.6171C35.7364 32.2393 35.0955 32.2287 34.6282 32.4282C34.0951 32.6583 33.5465 32.8518 32.9864 33.0072C32.0644 33.2809 31.7224 33.2738 31.0618 33.3603C30.6482 35.1362 30.4047 37.4575 30.2382 39.8142C30.0717 42.1708 29.0315 43.8549 29.2033 45.1312C29.3752 46.4075 29.7405 48.5576 30.9937 49.9522C32.1736 51.2638 33.221 51.105 33.0885 52.5243C33.0616 52.6584 32.8915 53.2057 32.2935 53.1809C32.0984 53.7705 31.2909 53.6664 31.2909 53.6664C31.2909 53.6664 31.0098 54.4113 28.6609 53.6752C27.4183 53.2851 27.1892 51.7511 26.951 50.9884C26.5983 49.8772 26.1798 48.7874 25.6978 47.7244C25.3714 47.0141 25.1849 46.2491 25.1481 45.4702C24.8366 45.306 24.1992 45.6555 24.1992 45.6555C24.1992 45.6555 24.1777 44.8505 24.867 44.4745C23.9468 43.9926 24.3066 43.1912 24.3066 43.1912C24.3066 43.1912 24.799 43.8214 25.252 43.2071C25.7049 42.5927 25.5581 40.169 25.252 36.5325C24.9458 32.896 24.6576 31.4432 24.0793 29.512C22.536 24.3662 27.66 11.6543 31.1656 11.8379C33.6041 11.9933 38.0066 12.4611 38.5384 16.6342C38.7317 18.1435 39.2885 19.5628 39.7487 21.0033C39.9689 21.697 40.0441 22.4155 40.2858 23.111C40.5436 23.8701 40.882 24.6009 41.1917 25.3388C41.4592 25.9496 41.6783 26.58 41.847 27.2241Z" fill="#455A64"/>
<path d="M31.3036 53.6697C31.4199 53.3643 31.5256 52.8594 31.0762 52.6441C30.6268 52.4287 30.1094 52.1462 30.1094 52.1462C30.1094 52.1462 31.1138 52.4728 31.3376 52.6229C31.5614 52.7729 31.6348 53.2036 31.3036 53.6697Z" fill="#37474F"/>
<path d="M32.3036 53.186C32.4199 52.8789 32.5256 52.374 32.0762 52.1604C31.6268 51.9468 31.1094 51.6626 31.1094 51.6626C31.1094 51.6626 32.1138 51.9892 32.3376 52.1392C32.5614 52.2893 32.6348 52.7182 32.3036 53.186Z" fill="#37474F"/>
<path d="M34.6232 19.5256C34.4393 19.9926 34.1988 20.4359 33.9071 20.8461C33.37 21.5857 32.6538 22.1718 32.0236 22.8444C31.3934 23.5169 30.867 24.3413 30.8438 25.2522C30.8438 25.1904 31.6709 24.9168 31.7622 24.885C31.6208 25.2381 31.3164 25.5417 31.175 25.9248C31.0169 26.3516 30.9499 26.8059 30.978 27.2593C31.252 26.8743 31.6007 26.5467 32.0039 26.2955C31.8446 26.3944 31.7658 27.0175 31.73 27.1923C31.6641 27.5125 31.6293 27.8382 31.6261 28.1649C31.6261 28.6945 31.6369 29.2241 31.6261 29.7643C31.5868 30.9876 31.4668 32.1933 31.0783 33.3637C31.6199 33.3413 32.1574 33.2596 32.6807 33.1201C33.6117 32.8807 34.5125 32.5391 35.3663 32.1015C36.7986 31.3813 37.4914 30.7264 38.3956 29.4218C40.9164 25.7871 39.4805 20.7066 36.4136 17.8627C36.2668 17.7114 36.0901 17.5912 35.8944 17.5097C35.7957 17.4707 35.688 17.4593 35.5831 17.4767C35.4782 17.4941 35.3803 17.5397 35.3 17.6085C35.2002 17.728 35.1352 17.872 35.112 18.0251C34.9844 18.5358 34.821 19.0372 34.6232 19.5256Z" fill="#F0F0F0"/>
<path d="M40.8208 0.119804C41.5226 0.27868 42.4322 0.508168 42.9353 1.03069C43.2006 1.3275 43.3952 1.67917 43.5046 2.05985C43.6803 2.62319 43.8108 3.19928 43.8949 3.78278C44.1653 5.42449 44.3264 7.17919 43.6138 8.68498C43.3256 9.29753 42.8815 9.19338 42.3301 8.97449C41.1807 8.51728 40.4466 7.38573 39.9937 6.25771C39.4324 4.89183 38.9447 3.49766 38.5327 2.08104C38.4629 1.82684 38.4575 1.51968 38.3716 1.2796C38.2713 1.00245 38.0135 0.727063 37.8434 0.483453C37.7772 0.382832 37.7127 0.239844 37.8004 0.156875C37.8516 0.11839 37.9154 0.100131 37.9795 0.105682C38.9015 0.0491926 39.8612 -0.100857 40.7743 0.105682L40.8208 0.119804Z" fill="black"/>
<path d="M38.8118 13.1793C38.5665 13.6683 38.4125 15.0682 38.5397 16.5669C37.888 16.8599 34.0476 17.273 31.4104 16.1132C28.1877 14.6886 26.7554 13.2499 25.8047 12.1766C27.9854 8.63368 27.8583 4.54175 27.8583 4.54175L38.8118 13.1793Z" fill="#455A64"/>
<path d="M35.6914 0.107401C38.198 -0.0832497 38.8318 0.605212 39.7878 1.31133C40.7439 2.01744 41.2971 2.91068 41.6856 3.6062C42.0741 4.30172 41.7143 5.68218 41.8647 6.17116C42.0151 6.66015 43.2307 7.75992 43.5602 8.62491C43.8896 9.48991 43.5709 10.2437 43.288 11.3999C43.0051 12.5562 42.0974 12.701 42.0974 12.701C41.6891 13.3305 41.058 13.788 40.3267 13.9843C39.1469 14.2685 37.5123 13.5148 37.5123 13.5148C37.5123 13.5148 36.8051 14.2721 35.1525 13.7619C32.7284 13.0099 32.4795 13.3682 31.1886 12.8581C28.9363 11.9666 28.7788 10.9074 27.9158 8.85793C27.0529 6.80843 27.1173 4.77482 29.6024 2.39875C31.5521 0.532836 33.6021 0.266277 35.6914 0.107401Z" fill="#455A64"/>
<path d="M38.0002 11.1723C38.0097 11.1918 38.0131 11.2136 38.01 11.235C38.0069 11.2564 37.9974 11.2765 37.9828 11.2926C37.9681 11.3087 37.949 11.3201 37.9278 11.3255C37.9065 11.3309 37.8842 11.33 37.8635 11.3229C37.8428 11.3157 37.8247 11.3027 37.8114 11.2855C37.7982 11.2682 37.7905 11.2475 37.7892 11.2259C37.788 11.2043 37.7932 11.1828 37.8043 11.1642C37.8154 11.1455 37.8319 11.1305 37.8516 11.1211C37.8647 11.1148 37.879 11.1111 37.8936 11.1103C37.9082 11.1095 37.9229 11.1115 37.9367 11.1162C37.9505 11.121 37.9632 11.1284 37.9741 11.138C37.985 11.1476 37.9939 11.1593 38.0002 11.1723Z" fill="#37474F"/>
<path d="M38.9921 10.9994C39.0045 11.0257 39.0061 11.0557 38.9964 11.0831C38.9867 11.1104 38.9665 11.133 38.9402 11.1459C38.9204 11.1552 38.8983 11.1586 38.8766 11.1555C38.8549 11.1525 38.8345 11.1432 38.8182 11.1287C38.8019 11.1143 38.7902 11.0954 38.7848 11.0745C38.7793 11.0536 38.7802 11.0315 38.7875 11.0111C38.7947 10.9907 38.8079 10.9728 38.8254 10.9598C38.8429 10.9468 38.8639 10.9392 38.8858 10.9379C38.9077 10.9367 38.9295 10.9418 38.9484 10.9528C38.9673 10.9637 38.9825 10.9799 38.9921 10.9994Z" fill="#37474F"/>
<path d="M38.7346 11.852C38.744 11.8715 38.7474 11.8933 38.7443 11.9147C38.7412 11.9361 38.7318 11.9561 38.7171 11.9722C38.7025 11.9884 38.6834 11.9998 38.6621 12.0052C38.6409 12.0106 38.6185 12.0097 38.5978 12.0026C38.5771 11.9954 38.559 11.9824 38.5458 11.9652C38.5326 11.9479 38.5249 11.9272 38.5236 11.9056C38.5224 11.884 38.5276 11.8625 38.5387 11.8439C38.5498 11.8252 38.5662 11.8102 38.586 11.8008C38.5991 11.7945 38.6134 11.7908 38.628 11.79C38.6426 11.7891 38.6572 11.7912 38.6711 11.7959C38.6849 11.8007 38.6976 11.8081 38.7085 11.8177C38.7194 11.8273 38.7282 11.839 38.7346 11.852Z" fill="#37474F"/>
<path d="M40.5701 12.1327C40.6728 12.0446 40.7865 11.9698 40.9085 11.9102C41.0169 11.8486 41.1204 11.7789 41.2182 11.7019C41.2453 11.6801 41.2783 11.6666 41.3131 11.6631C41.3607 11.6658 41.4058 11.6852 41.4402 11.7178C41.6639 11.8927 41.8589 12.1005 42.0185 12.3339C42.0248 12.3419 42.028 12.352 42.0274 12.3621C42.0274 12.3621 42.0185 12.3727 42.0113 12.378C41.7937 12.532 41.542 12.6327 41.277 12.6717C41.012 12.7107 40.7415 12.6868 40.4877 12.6022C40.3857 12.5669 40.1977 12.5016 40.2908 12.3816C40.3747 12.2891 40.4683 12.2057 40.5701 12.1327Z" fill="black"/>
<path opacity="0.1" d="M36.9361 5.10313C36.775 4.82245 36.6103 4.51882 36.3238 4.36348C35.9013 4.13575 35.3731 4.30522 34.956 4.54001C34.392 4.86305 33.8817 5.33615 33.6758 5.95223C33.6493 6.01652 33.6418 6.08694 33.6544 6.15524C33.6754 6.21838 33.7162 6.27335 33.7707 6.31235C34.0612 6.51965 34.4153 6.62189 34.7734 6.60186C35.1315 6.58052 35.4908 6.58879 35.8476 6.62657C36.4635 6.73602 36.9522 7.13674 37.4589 7.47215C37.6469 7.59572 37.996 7.8817 38.2252 7.87993C38.5045 7.87993 38.5188 7.63279 38.4132 7.42272C37.9942 6.60186 37.3891 5.90281 36.9361 5.10313Z" fill="black"/>
<path opacity="0.1" d="M41.8602 6.17298C41.7366 5.75284 41.8691 5.25856 41.8709 4.83136C41.8727 4.40416 41.2998 4.1429 40.9489 4.01757C40.7179 3.93283 40.4476 3.87281 40.2327 3.99638C40.1307 4.07036 40.0508 4.17004 40.0014 4.28496C39.9519 4.39989 39.9347 4.52582 39.9516 4.64954C39.9964 5.39449 40.7072 5.82346 41.3034 6.16063C41.4162 6.22418 41.529 6.28596 41.6435 6.33715C41.8011 6.42189 41.9569 6.51368 42.1144 6.59665C42.0011 6.47414 41.9145 6.32992 41.8602 6.17298Z" fill="black"/>
<path d="M39.6922 8.58246C39.5502 8.72196 39.4413 8.89078 39.3735 9.07675C39.3255 9.21121 39.3055 9.35384 39.3147 9.49611C39.3239 9.63837 39.3622 9.77733 39.4272 9.90467C39.5901 10.2171 39.8855 10.3425 40.2132 10.4343C40.2224 10.4378 40.2326 10.4378 40.2418 10.4343C40.2525 10.4292 40.2608 10.4204 40.2651 10.4095C40.2864 10.3679 40.2982 10.3221 40.2998 10.2755C40.3013 10.2288 40.2925 10.1824 40.274 10.1394C40.234 10.0789 40.205 10.012 40.1881 9.94173C40.1868 9.90222 40.2003 9.86363 40.2261 9.83334C40.2519 9.80305 40.2881 9.78319 40.3277 9.77756C40.6303 9.74579 40.5856 10.1306 40.582 10.3072C40.576 10.3554 40.584 10.4044 40.6053 10.4484C40.6307 10.4852 40.6652 10.5149 40.7055 10.5349L41.2426 10.8597C41.2875 10.8937 41.3405 10.9156 41.3966 10.9232C41.4463 10.9249 41.4958 10.9159 41.5416 10.8968C41.7099 10.8431 41.8612 10.7472 41.9804 10.6184C42.0997 10.4897 42.183 10.3325 42.222 10.1624C42.2452 10.03 42.2327 9.89231 42.2578 9.75815C42.2595 9.73901 42.2654 9.72047 42.275 9.70373C42.2845 9.687 42.2976 9.67245 42.3133 9.66105C42.3885 9.61692 42.5013 9.69106 42.5317 9.75638C42.5621 9.82169 42.5317 10.0494 42.6284 9.92232C42.6958 9.79238 42.7342 9.64973 42.7412 9.50394C42.811 8.97436 42.6087 8.33885 42.0447 8.17468C41.832 8.12143 41.6119 8.10235 41.393 8.11819C41.0874 8.12924 40.7831 8.16526 40.4835 8.22588C40.2967 8.25876 40.1158 8.31822 39.9464 8.4024C39.8541 8.45139 39.7687 8.51191 39.6922 8.58246Z" fill="#263238"/>
<path d="M42.0549 12.0726C41.9175 11.9864 41.786 11.8914 41.661 11.7884C41.5713 11.6647 41.5192 11.5184 41.5106 11.3665C41.4927 11.2112 41.4963 11.0541 41.4856 10.8987C41.4856 10.8599 41.4748 10.8122 41.439 10.7963C41.4188 10.7907 41.3972 10.7928 41.3786 10.8023C41.36 10.8118 41.3457 10.828 41.3388 10.8475C41.3277 10.8865 41.3246 10.9273 41.3298 10.9676C41.338 11.1436 41.2945 11.3183 41.2045 11.4707C41.1091 11.5953 40.9818 11.6928 40.8357 11.7531C40.1786 12.1168 39.7292 12.7117 38.9432 12.8493C38.5569 12.9035 38.163 12.8512 37.8049 12.6982C37.4469 12.5452 37.1388 12.2975 36.9147 11.9826C36.7572 11.7619 36.6283 11.5236 36.4779 11.2994C36.4618 11.2765 36.4367 11.25 36.4116 11.2624C36.4035 11.2687 36.3973 11.2773 36.3938 11.2869C36.3903 11.2966 36.3897 11.3071 36.3919 11.3171C36.4045 11.6225 36.6122 11.9049 36.7679 12.1591C36.9702 12.5197 37.276 12.8132 37.647 13.0029C38.168 13.243 38.7749 13.3895 39.3138 13.1918C39.6426 13.0412 39.9448 12.8398 40.209 12.5951C40.397 12.4451 40.5922 12.3039 40.7945 12.1697C40.9763 12.0813 41.1475 11.9729 41.3047 11.8467C41.3231 11.827 41.3404 11.8063 41.3567 11.7849C41.4458 11.9376 41.5681 12.069 41.7147 12.1697C41.8287 12.2476 41.9251 12.348 41.9976 12.4645C42.0396 12.5394 42.0709 12.6195 42.0907 12.7028C42.2015 12.684 42.307 12.6425 42.4005 12.581C42.3291 12.3863 42.2105 12.2117 42.0549 12.0726Z" fill="#263238"/>
<path d="M31.9922 0.693644C31.5554 0.141109 30.8213 0.29822 30.2645 0.497697C29.4302 0.797796 28.5225 0.864877 27.6828 1.16498C26.8073 1.47743 25.9622 2.02467 25.5827 2.86142C25.3123 3.45279 25.3034 4.1236 25.3159 4.77322C25.3168 5.89833 25.449 7.01959 25.7098 8.11491C25.9497 9.03992 26.2899 10.1997 27.1063 10.7628C27.425 10.9853 27.8224 11.1636 28.2002 11.0488C28.6227 10.9164 28.8429 10.4698 28.9915 10.0603C29.8115 7.82364 29.9691 5.34871 31.1149 3.25508C31.3316 2.85789 31.6234 2.45011 32.0656 2.33889C32.2339 2.29653 32.4362 2.28946 32.5365 2.14824C32.5714 2.08103 32.5896 2.00661 32.5896 1.93111C32.5896 1.85561 32.5714 1.78119 32.5365 1.71398C32.4041 1.35054 32.2209 1.00711 31.9922 0.693644Z" fill="black"/>
<path d="M35.5596 12.8882C35.078 12.5775 34.4997 12.4257 33.9482 12.2721C33.3987 12.1347 32.8601 11.9577 32.3369 11.7426C31.8752 11.5487 31.4617 11.2584 31.1248 10.8917C30.9809 10.7303 30.8571 10.5525 30.756 10.3621C30.6506 10.12 30.5679 9.86883 30.5089 9.61186C30.4928 9.5589 30.3693 9.45475 30.3406 9.55537C30.2117 9.99139 30.4534 10.5104 30.6897 10.8705C30.9931 11.3063 31.4041 11.6587 31.8839 11.8944C32.403 12.1526 32.951 12.3499 33.5167 12.4822C33.8336 12.5634 34.1541 12.634 34.4728 12.7135C34.8309 12.8017 35.1764 12.9253 35.5363 12.9994C35.5972 13.0118 35.6025 12.9129 35.5596 12.8882Z" fill="#263238"/>
<path d="M34.2686 2.90722C33.8282 3.14553 33.3466 3.52507 33.1639 4.00346C33.1102 4.14469 33.0207 4.39889 33.2015 4.48539C33.3824 4.57189 33.6778 4.35829 33.8246 4.2506C34.1363 4.05007 34.4584 3.86564 34.7896 3.69807C34.9376 3.62355 35.0715 3.52442 35.1853 3.40503C35.6382 2.87545 34.8272 2.6389 34.4226 2.82955C34.3707 2.85426 34.3187 2.87898 34.2686 2.90722Z" fill="#37474F"/>
<path d="M40.3102 2.08095C40.799 2.19923 41.3629 2.4446 41.6637 2.85945C41.7532 2.98302 41.9054 3.2125 41.7532 3.33431C41.6011 3.45611 41.2609 3.33431 41.0908 3.26723C40.7382 3.15209 40.3796 3.05545 40.0166 2.97772C39.8546 2.94539 39.6995 2.88566 39.5582 2.80119C38.9817 2.40047 39.7015 1.97151 40.1455 2.05271C40.1992 2.05271 40.2547 2.06507 40.3102 2.08095Z" fill="#37474F"/>
<path d="M36.6877 5.71573C36.523 5.51029 36.2948 5.36341 36.0378 5.29736C35.774 5.24417 35.5005 5.26247 35.2464 5.35032C35.0664 5.40854 34.9052 5.51269 34.7791 5.65218C34.6771 5.76692 34.5231 5.99465 34.55 6.15882C34.5947 6.4342 35.1104 6.05996 35.2267 6.00524C35.4253 5.9112 35.6421 5.86061 35.8623 5.85695C36.085 5.87261 36.3056 5.90925 36.5212 5.9664C36.7307 6.00171 36.8166 5.88696 36.6877 5.71573Z" fill="#263238"/>
<path d="M42.2616 5.12094C42.1172 4.94096 41.9173 4.8121 41.6922 4.75376C41.4618 4.70671 41.2227 4.72321 41.0011 4.80142C40.843 4.85118 40.7014 4.94204 40.5911 5.06445C40.4716 5.18298 40.4002 5.34062 40.3906 5.50753C40.4318 5.74938 40.8812 5.42103 40.9832 5.37337C41.157 5.29035 41.347 5.24576 41.5401 5.24274C41.7349 5.25687 41.928 5.28938 42.1166 5.33983C42.2992 5.37161 42.3672 5.27098 42.2616 5.12094Z" fill="#263238"/>
<path d="M26.3864 10.9075C27.7883 12.7698 31.7737 14.6005 35.059 14.6005C38.3443 14.6005 38.6398 14.1715 38.6398 14.1715L38.5484 16.5687C38.5484 16.5687 37.1734 17.0348 34.9516 17.0207C32.7297 17.0065 28.0515 16.1027 25.4375 12.5969L26.3864 10.9075Z" fill="#BA68C8"/>
<path d="M37.8817 35.1961C37.8228 34.9926 37.7974 34.781 37.8065 34.5695C37.8924 32.294 38.383 29.9797 39.5557 27.992C40.7678 25.946 42.2735 24.2002 42.6226 21.7588C42.7336 20.9874 42.7318 20.17 43.0738 19.4745C43.2277 19.162 43.4426 18.8814 43.5876 18.5654C43.8275 18.0358 43.8526 17.4374 43.9779 16.8689C44.0567 16.4362 44.2599 16.0348 44.5634 15.7127C44.6913 15.5857 44.8437 15.4851 45.0115 15.4169C45.1794 15.3487 45.3594 15.3142 45.5409 15.3155C45.6036 14.5317 46.4254 14.0127 47.1039 14.3004C47.2558 14.1074 47.4648 13.9655 47.7019 13.8944C47.9186 13.8296 48.151 13.8377 48.3626 13.9174C48.8531 14.078 49.1396 14.6941 49.0375 15.1725C49.0202 15.2298 49.0117 15.2893 49.0125 15.349C49.0271 15.4164 49.0545 15.4805 49.093 15.5379C49.4941 16.244 49.6069 17.2767 49.0107 17.8999C48.8316 18.0905 48.5953 18.2317 48.427 18.4295C48.0403 18.899 48.085 19.5804 47.8541 20.1418C47.6536 20.6308 47.2507 21.0068 46.8962 21.4022C45.5123 22.9486 45.0539 24.7898 44.635 26.7775C44.4094 27.8508 44.1784 29.0918 44.0173 30.1774C43.8535 31.3684 43.5747 32.5411 43.1848 33.6798C42.6065 35.3038 41.3657 36.4089 39.5413 36.2871C39.1952 36.2748 38.8563 36.1861 38.5495 36.0276C38.2248 35.8477 37.9849 35.549 37.8817 35.1961Z" fill="#455A64"/>
<path d="M42.8801 34.3593C42.6248 34.8971 42.2331 35.3607 41.7429 35.7055C41.2527 36.0503 40.6805 36.2646 40.0818 36.3276C39.2009 36.4283 38.0855 36.1741 37.8151 35.2226C37.7335 34.9321 37.708 34.6291 37.7399 34.3293C37.7834 33.1503 37.96 31.9798 38.2663 30.8394C38.8231 28.5004 40.3933 26.6486 41.5373 24.5955C42.1109 23.5764 42.4673 22.4525 42.5847 21.2927C42.6509 20.7137 42.6993 20.1099 42.9428 19.5521C43.1863 18.9943 43.5891 18.5759 43.6947 17.9792C43.829 17.4196 43.8505 16.8124 44.1101 16.2616C44.2219 15.9777 44.4163 15.7327 44.669 15.5575C44.9216 15.3822 45.2211 15.2845 45.5299 15.2766L45.4887 15.3154C45.5158 15.039 45.6365 14.7796 45.8314 14.5791C46.0263 14.3787 46.284 14.2487 46.5629 14.2104C46.7458 14.188 46.9314 14.2149 47.1 14.288H47.0803C47.2246 14.1009 47.4256 13.9639 47.6542 13.8969C47.8827 13.83 48.127 13.8365 48.3515 13.9156C48.1293 13.837 47.8863 13.837 47.664 13.9156C47.4399 13.9957 47.2437 14.1371 47.0983 14.3233C46.9312 14.2565 46.7495 14.2329 46.5705 14.2548C46.3916 14.2767 46.2213 14.3435 46.0759 14.4487C45.9264 14.5517 45.8029 14.6873 45.7151 14.845C45.6272 15.0026 45.5773 15.1781 45.5693 15.3578C44.137 15.4002 44.0188 16.9148 43.829 18.0057C43.7377 18.5971 43.3313 19.0878 43.0914 19.6121C42.6653 20.696 42.8192 21.9441 42.4021 23.0474C41.865 24.7438 40.7657 26.1949 39.8401 27.6883C38.5653 29.669 38.0121 32.0097 37.8706 34.3329C37.7399 35.2579 38.2036 36.0523 39.1866 36.1952C39.9191 36.3209 40.6731 36.2101 41.3367 35.8793C42.0002 35.5485 42.5377 35.0155 42.8694 34.3593H42.8801Z" fill="#37474F"/>
<path d="M47.781 17.6827C47.4945 17.1531 47.8634 16.6236 48.2913 16.3252C48.5258 16.1593 48.8642 16.0904 49.0665 16.3376C49.1665 16.4725 49.2244 16.6332 49.233 16.8001C49.2706 17.078 49.2072 17.36 49.054 17.5962C48.9601 17.7209 48.842 17.8259 48.7066 17.9052C48.6223 17.9603 48.5281 17.9992 48.4291 18.0199C48.299 18.0363 48.167 18.0127 48.051 17.9523C47.935 17.892 47.8407 17.7978 47.781 17.6827Z" fill="#37474F"/>
<path d="M47.784 17.6825C47.5476 17.2748 47.7446 16.7769 48.0597 16.4645C48.3855 16.0779 49.0265 15.8943 49.2539 16.491C49.3367 16.7117 49.3515 16.9516 49.2964 17.1806C49.2412 17.4096 49.1187 17.6174 48.9441 17.7779C48.5771 18.1097 48.0489 18.1521 47.784 17.6825ZM47.784 17.6825C48.0615 18.1468 48.5538 18.0762 48.885 17.7161C49.193 17.4125 49.2198 16.927 49.0945 16.551C48.9334 16.0744 48.4034 16.2474 48.1188 16.5245C47.7822 16.7964 47.5494 17.2748 47.784 17.6825Z" fill="#263238"/>
<path d="M47.9005 14.6146C47.8477 14.6337 47.7977 14.6599 47.7519 14.6923C47.6159 14.8036 47.5085 14.9452 47.4386 15.1054C47.2822 15.4222 47.1852 15.7643 47.1522 16.1151C47.1271 16.2975 47.143 16.4831 47.1987 16.6588C47.3992 17.2078 48.2156 16.9889 48.4735 16.5953C48.5416 16.4854 48.5935 16.3665 48.6274 16.2422C48.736 15.8241 48.7046 15.3826 48.5379 14.9836C48.491 14.8318 48.389 14.7023 48.2514 14.6199C48.1963 14.5959 48.1368 14.583 48.0765 14.5821C48.0162 14.5812 47.9564 14.5922 47.9005 14.6146Z" fill="#37474F"/>
<path d="M47.8962 14.6146C47.3161 14.8406 47.0314 16.191 47.291 16.6941C47.5506 17.1213 48.29 16.8389 48.4655 16.4523C48.7752 16.0163 48.7162 14.3481 47.8962 14.6146ZM47.8962 14.6146C47.9598 14.593 48.0273 14.5845 48.0944 14.5896C48.1615 14.5948 48.2268 14.6135 48.2862 14.6447C48.3457 14.6758 48.398 14.7187 48.4399 14.7706C48.4819 14.8225 48.5125 14.8824 48.53 14.9465C48.7931 15.5343 48.888 16.3887 48.3312 16.8512C48.0036 17.1107 47.3805 17.2043 47.1621 16.7612C46.9079 16.2228 47.325 14.8317 47.8962 14.6146Z" fill="#263238"/>
<path d="M46.192 15.0735C46.0038 15.2867 45.8651 15.538 45.7856 15.8096C45.7069 16.0621 45.7069 16.3321 45.7856 16.5846C45.8322 16.724 45.8769 16.9041 46.0219 16.9729C46.2448 17.0485 46.4887 17.0358 46.7023 16.9376C46.806 16.9059 46.9035 16.8569 46.9905 16.7929C47.3074 16.5422 47.3593 15.9914 47.3952 15.6225C47.4345 15.2094 47.2251 14.6339 46.6969 14.7398C46.496 14.7933 46.3186 14.9106 46.192 15.0735Z" fill="#37474F"/>
<path d="M46.2006 15.0736C45.8658 15.4585 45.6634 16.0181 45.8103 16.5141C45.8433 16.6343 45.8953 16.7487 45.9642 16.853C46.1307 17.0207 46.4297 16.9466 46.6392 16.8742C47.0367 16.7754 47.1942 16.44 47.2676 16.0569C47.3325 15.8093 47.3548 15.5527 47.3339 15.2978C47.2282 14.6182 46.5998 14.5917 46.2006 15.0736ZM46.2006 15.0736C46.6088 14.5705 47.2569 14.5935 47.418 15.2802C47.4663 15.5452 47.4663 15.8166 47.418 16.0816C47.3733 16.4912 47.1566 16.9272 46.7019 17.026C46.1862 17.1849 45.8335 17.1055 45.7369 16.5371C45.6294 16.0075 45.8693 15.4779 46.2095 15.0736H46.2006Z" fill="#263238"/>
<path d="M48.2162 17.9827C48.2131 17.8498 48.192 17.718 48.1535 17.5908C47.9476 16.9252 47.2673 16.7381 46.6388 16.9182C45.9577 17.1307 45.389 17.5995 45.0561 18.2227C44.8771 18.5546 44.7983 18.9765 45.0096 19.2819C45.0703 19.3677 45.1505 19.4383 45.2437 19.4882C45.3369 19.5382 45.4407 19.566 45.5467 19.5696C45.8708 19.5696 46.1715 19.349 46.4956 19.379C46.9307 19.4196 47.3514 19.7956 47.7614 19.4161C47.9302 19.2375 48.0454 19.0163 48.0944 18.777C48.1755 18.5198 48.2165 18.252 48.2162 17.9827Z" fill="#263238"/>
<path d="M44.9384 17.9263C45.2571 18.0763 45.8211 17.7656 45.9769 17.4867C46.0099 17.4226 46.0357 17.3551 46.0539 17.2855C46.1426 16.9389 46.1117 16.5731 45.9661 16.2457C45.9266 16.1561 45.8628 16.0789 45.7816 16.0228C45.7003 15.9667 45.605 15.9339 45.506 15.928C45.2571 15.928 45.0584 16.1292 44.9277 16.3375C44.7021 16.6941 44.3906 17.665 44.9384 17.9263Z" fill="#37474F"/>
<path d="M44.9379 17.9263C45.3533 18.0728 45.9244 17.7056 46.0122 17.2961C46.0999 16.8865 46.0534 16.3481 45.7293 16.0869C45.0131 15.6067 44.2164 17.6227 44.9433 17.9263H44.9379ZM44.9379 17.9263C44.2719 17.5997 44.7446 15.9439 45.4321 15.8538C46.1751 15.8079 46.2646 16.7983 46.0874 17.319C45.971 17.7286 45.3497 18.0781 44.9379 17.9263Z" fill="#263238"/>
<path d="M44.2266 21.6385C44.177 21.6873 44.1414 21.748 44.1232 21.8146C44.1049 21.8812 44.1048 21.9514 44.1227 22.0181C44.189 22.1946 44.4146 22.2564 44.6079 22.2882L44.7476 22.3129C44.8774 22.3413 45.0108 22.3496 45.1432 22.3376C45.6213 22.2687 45.8433 21.6721 45.4136 21.379C45.0949 21.1601 44.59 21.3243 44.3179 21.5556C44.2847 21.5802 44.2541 21.608 44.2266 21.6385Z" fill="#37474F"/>
<path d="M45.6971 15.2131C45.7156 15.1439 45.7252 15.0727 45.7257 15.0012C45.7246 14.9695 45.7149 14.9387 45.6976 14.912C45.6803 14.8853 45.656 14.8637 45.6272 14.8494C45.5727 14.8342 45.5142 14.8405 45.4643 14.8671C45.372 14.8973 45.287 14.9458 45.2144 15.0095C45.1417 15.0733 45.083 15.1509 45.0418 15.2378C45.0233 15.2914 45.0187 15.3487 45.0284 15.4045C45.0382 15.4603 45.0619 15.5128 45.0975 15.5572C45.1331 15.6016 45.1795 15.6365 45.2323 15.6587C45.2851 15.6809 45.3427 15.6898 45.3998 15.6844C45.5413 15.6738 45.6487 15.4196 45.6971 15.2131Z" fill="#E0E0E0"/>
<path d="M43.2176 19.9317C43.2858 19.8815 43.3499 19.826 43.4092 19.7658C43.6061 19.5893 43.4199 19.2856 43.3322 19.0844C43.3031 18.9805 43.2591 18.8812 43.2015 18.7896C43.1334 18.719 43.0887 18.7719 43.0224 18.839C42.9619 18.9121 42.919 18.9978 42.8971 19.0897C42.8459 19.2693 42.823 19.4557 42.8291 19.6422C42.8282 19.7228 42.846 19.8025 42.881 19.8752C42.9001 19.9108 42.9287 19.9405 42.9638 19.961C42.9988 19.9816 43.039 19.9922 43.0797 19.9917C43.1298 19.9826 43.177 19.962 43.2176 19.9317Z" fill="#E0E0E0"/>
<path d="M46.7755 14.5686C46.8138 14.5896 46.857 14.6005 46.9008 14.6004C47.0924 14.5898 47.1336 14.2473 47.2141 14.1114C47.2412 14.0742 47.2606 14.0323 47.2714 13.9878C47.3287 13.7283 46.9903 13.7742 46.8525 13.8378C46.6883 13.9095 46.5498 14.0282 46.455 14.1785C46.344 14.3815 46.6251 14.5068 46.7755 14.5686Z" fill="#E0E0E0"/>
<path d="M48.5254 14.3638C48.5544 14.3646 48.5829 14.3573 48.6078 14.3426C48.6372 14.3199 48.661 14.2909 48.6776 14.2579C48.7135 14.1773 48.7542 14.0989 48.7993 14.0231C48.8799 13.9066 49.1306 13.693 48.8978 13.5959C48.8138 13.5634 48.7204 13.5634 48.6364 13.5959C48.5082 13.6516 48.3879 13.7234 48.2783 13.8095C48.1835 13.8748 48.0295 14.0513 48.1226 14.1731C48.2281 14.2839 48.3718 14.3519 48.5254 14.3638Z" fill="#E0E0E0"/>
<path d="M49.5865 15.5449C49.5913 15.5784 49.587 15.6125 49.574 15.6437C49.552 15.7181 49.5257 15.7912 49.4952 15.8626C49.4748 15.9228 49.4376 15.9761 49.3878 16.0162C49.1783 16.1574 48.8668 15.9085 49.0154 15.6879C49.0959 15.5678 49.5346 15.2695 49.5865 15.5449Z" fill="#E0E0E0"/>
</svg>
