<svg width="152" height="24" viewBox="0 0 152 24" fill="none" xmlns="http://www.w3.org/2000/svg">
<path d="M18.2663 21.0713C18.1348 21.0718 18.0066 21.0307 17.8998 20.9537L12.8805 17.2994L7.86122 20.9537C7.75399 21.0318 7.6248 21.0737 7.49233 21.0732C7.35986 21.0727 7.23097 21.0299 7.12431 20.951C7.01764 20.8721 6.93872 20.7612 6.89896 20.6343C6.85919 20.5074 6.86065 20.3711 6.9031 20.2451L8.86071 14.4222L3.78717 10.9281C3.67728 10.8525 3.59433 10.7436 3.55046 10.6173C3.50659 10.491 3.50409 10.3539 3.54333 10.2261C3.58256 10.0982 3.66148 9.98635 3.76854 9.90676C3.87561 9.82717 4.00521 9.78405 4.13842 9.7837H10.3976L12.2865 3.94589C12.3272 3.81985 12.4066 3.71 12.5133 3.63209C12.62 3.55417 12.7486 3.51221 12.8805 3.51221C13.0124 3.51221 13.141 3.55417 13.2477 3.63209C13.3544 3.71 13.4338 3.81985 13.4745 3.94589L15.3634 9.78566H21.6226C21.756 9.78559 21.8859 9.82841 21.9932 9.90785C22.1006 9.98729 22.1799 10.0992 22.2193 10.2271C22.2588 10.355 22.2565 10.4923 22.2127 10.6188C22.1688 10.7453 22.0858 10.8544 21.9758 10.9301L16.9003 14.4222L18.8567 20.2435C18.8884 20.3378 18.8973 20.4383 18.8827 20.5367C18.8681 20.635 18.8304 20.7285 18.7728 20.8094C18.7151 20.8903 18.639 20.9562 18.551 21.0017C18.4629 21.0473 18.3653 21.0711 18.2663 21.0713Z" fill="#FF9500"/>
<path d="M50.2663 21.0713C50.1348 21.0718 50.0066 21.0307 49.8998 20.9537L44.8805 17.2994L39.8612 20.9537C39.754 21.0318 39.6248 21.0737 39.4923 21.0732C39.3599 21.0727 39.231 21.0299 39.1243 20.951C39.0176 20.8721 38.9387 20.7612 38.899 20.6343C38.8592 20.5074 38.8606 20.3711 38.9031 20.2451L40.8607 14.4222L35.7872 10.9281C35.6773 10.8525 35.5943 10.7436 35.5505 10.6173C35.5066 10.491 35.5041 10.3539 35.5433 10.2261C35.5826 10.0982 35.6615 9.98635 35.7685 9.90676C35.8756 9.82717 36.0052 9.78405 36.1384 9.7837H42.3976L44.2865 3.94589C44.3272 3.81985 44.4066 3.71 44.5133 3.63209C44.62 3.55417 44.7486 3.51221 44.8805 3.51221C45.0124 3.51221 45.141 3.55417 45.2477 3.63209C45.3544 3.71 45.4338 3.81985 45.4745 3.94589L47.3634 9.78566H53.6226C53.756 9.78559 53.8859 9.82841 53.9932 9.90785C54.1006 9.98729 54.1799 10.0992 54.2193 10.2271C54.2588 10.355 54.2565 10.4923 54.2127 10.6188C54.1688 10.7453 54.0858 10.8544 53.9758 10.9301L48.9003 14.4222L50.8567 20.2435C50.8884 20.3378 50.8973 20.4383 50.8827 20.5367C50.8681 20.635 50.8304 20.7285 50.7728 20.8094C50.7151 20.8903 50.639 20.9562 50.551 21.0017C50.4629 21.0473 50.3653 21.0711 50.2663 21.0713Z" fill="#FF9500"/>
<path d="M82.2663 21.0713C82.1348 21.0718 82.0066 21.0307 81.8998 20.9537L76.8805 17.2994L71.8612 20.9537C71.754 21.0318 71.6248 21.0737 71.4923 21.0732C71.3599 21.0727 71.231 21.0299 71.1243 20.951C71.0176 20.8721 70.9387 20.7612 70.899 20.6343C70.8592 20.5074 70.8606 20.3711 70.9031 20.2451L72.8607 14.4222L67.7872 10.9281C67.6773 10.8525 67.5943 10.7436 67.5505 10.6173C67.5066 10.491 67.5041 10.3539 67.5433 10.2261C67.5826 10.0982 67.6615 9.98635 67.7685 9.90676C67.8756 9.82717 68.0052 9.78405 68.1384 9.7837H74.3976L76.2865 3.94589C76.3272 3.81985 76.4066 3.71 76.5133 3.63209C76.62 3.55417 76.7486 3.51221 76.8805 3.51221C77.0124 3.51221 77.141 3.55417 77.2477 3.63209C77.3544 3.71 77.4338 3.81985 77.4745 3.94589L79.3634 9.78566H85.6226C85.756 9.78559 85.8859 9.82841 85.9932 9.90785C86.1006 9.98729 86.1799 10.0992 86.2193 10.2271C86.2588 10.355 86.2565 10.4923 86.2127 10.6188C86.1688 10.7453 86.0858 10.8544 85.9758 10.9301L80.9003 14.4222L82.8567 20.2435C82.8884 20.3378 82.8973 20.4383 82.8827 20.5367C82.8681 20.635 82.8304 20.7285 82.7728 20.8094C82.7151 20.8903 82.639 20.9562 82.551 21.0017C82.4629 21.0473 82.3653 21.0711 82.2663 21.0713Z" fill="#FF9500"/>
<path d="M114.266 21.0713C114.135 21.0718 114.007 21.0307 113.9 20.9537L108.881 17.2994L103.861 20.9537C103.754 21.0318 103.625 21.0737 103.492 21.0732C103.36 21.0727 103.231 21.0299 103.124 20.951C103.018 20.8721 102.939 20.7612 102.899 20.6343C102.859 20.5074 102.861 20.3711 102.903 20.2451L104.861 14.4222L99.7872 10.9281C99.6773 10.8525 99.5943 10.7436 99.5505 10.6173C99.5066 10.491 99.5041 10.3539 99.5433 10.2261C99.5826 10.0982 99.6615 9.98635 99.7685 9.90676C99.8756 9.82717 100.005 9.78405 100.138 9.7837H106.398L108.287 3.94589C108.327 3.81985 108.407 3.71 108.513 3.63209C108.62 3.55417 108.749 3.51221 108.881 3.51221C109.012 3.51221 109.141 3.55417 109.248 3.63209C109.354 3.71 109.434 3.81985 109.474 3.94589L111.363 9.78566H117.623C117.756 9.78559 117.886 9.82841 117.993 9.90785C118.101 9.98729 118.18 10.0992 118.219 10.2271C118.259 10.355 118.256 10.4923 118.213 10.6188C118.169 10.7453 118.086 10.8544 117.976 10.9301L112.9 14.4222L114.857 20.2435C114.888 20.3378 114.897 20.4383 114.883 20.5367C114.868 20.635 114.83 20.7285 114.773 20.8094C114.715 20.8903 114.639 20.9562 114.551 21.0017C114.463 21.0473 114.365 21.0711 114.266 21.0713Z" fill="#FF9500"/>
<path d="M146.266 21.0713C146.135 21.0718 146.007 21.0307 145.9 20.9537L140.881 17.2994L135.861 20.9537C135.754 21.0318 135.625 21.0737 135.492 21.0732C135.36 21.0727 135.231 21.0299 135.124 20.951C135.018 20.8721 134.939 20.7612 134.899 20.6343C134.859 20.5074 134.861 20.3711 134.903 20.2451L136.861 14.4222L131.787 10.9281C131.677 10.8525 131.594 10.7436 131.55 10.6173C131.507 10.491 131.504 10.3539 131.543 10.2261C131.583 10.0982 131.661 9.98635 131.769 9.90676C131.876 9.82717 132.005 9.78405 132.138 9.7837H138.398L140.287 3.94589C140.327 3.81985 140.407 3.71 140.513 3.63209C140.62 3.55417 140.749 3.51221 140.881 3.51221C141.012 3.51221 141.141 3.55417 141.248 3.63209C141.354 3.71 141.434 3.81985 141.474 3.94589L143.363 9.78566H149.623C149.756 9.78559 149.886 9.82841 149.993 9.90785C150.101 9.98729 150.18 10.0992 150.219 10.2271C150.259 10.355 150.256 10.4923 150.213 10.6188C150.169 10.7453 150.086 10.8544 149.976 10.9301L144.9 14.4222L146.857 20.2435C146.888 20.3378 146.897 20.4383 146.883 20.5367C146.868 20.635 146.83 20.7285 146.773 20.8094C146.715 20.8903 146.639 20.9562 146.551 21.0017C146.463 21.0473 146.365 21.0711 146.266 21.0713Z" fill="#FF9500"/>
</svg>
