<svg width="280" height="40" viewBox="0 0 280 40" fill="none" xmlns="http://www.w3.org/2000/svg">
<g clip-path="url(#clip0_854_4845)">
<path d="M20 40C31.0457 40 40 31.0457 40 20C40 8.9543 31.0457 0 20 0C8.9543 0 0 8.9543 0 20C0 31.0457 8.9543 40 20 40Z" fill="#F39200"/>
<path d="M26.5023 6.13916H22.0718C19.4426 6.13916 16.5182 7.24497 16.5182 11.0561C16.531 12.384 16.5182 13.6558 16.5182 15.0871H13.4766V19.9273H16.6123V33.8612H22.3744V19.8353H26.1776L26.5217 15.0736H22.2751C22.2751 15.0736 22.2846 12.9553 22.2751 12.3402C22.2751 10.8341 23.8423 10.9203 23.9365 10.9203C24.6823 10.9203 26.1323 10.9225 26.5045 10.9203V6.13916H26.5023Z" fill="white"/>
</g>
<g clip-path="url(#clip1_854_4845)">
<path d="M100 39.9877C96.0896 39.9883 92.265 38.8404 89.0013 36.6864L81.3163 39.1414L83.8075 31.7164C81.3271 28.3141 79.9936 24.2107 80 20.0002C80 8.9777 88.9663 0.0126953 99.9875 0.0126953C111.009 0.0126953 119.975 8.9777 119.975 20.0002C119.975 31.0227 111.013 39.9877 99.9875 39.9877H100Z" fill="#FEFEFE"/>
<path d="M100.004 0.0112305C88.9812 0.0112305 80.0156 8.97718 80.0156 19.9993C80.0156 24.3704 81.4258 28.4247 83.8229 31.7153L81.3313 39.1424L89.0131 36.6866C92.1736 38.7782 95.9461 39.9884 100.012 39.9884C111.034 39.9884 120 31.0221 120 20.0003C120 8.97851 111.034 0.0122248 100.012 0.0122248H100L100.004 0.0112305Z" fill="#F39200"/>
<path d="M94.4194 10.1651C94.0444 9.23639 93.7381 9.20264 93.1506 9.16514L92.4806 9.14014C91.7181 9.14014 90.9181 9.36514 90.4356 9.85639C89.8481 10.4564 88.3906 11.8539 88.3906 14.7214C88.3906 17.5889 90.4819 20.3614 90.7656 20.7501C91.0594 21.1251 94.8431 27.1076 100.719 29.5401C105.314 31.4439 106.677 31.2676 107.723 31.0439C109.251 30.7151 111.166 29.5864 111.648 28.2239C112.131 26.8614 112.131 25.6989 111.988 25.4489C111.846 25.1989 111.459 25.0739 110.872 24.7676C110.284 24.4614 107.429 23.0639 106.888 22.8751C106.359 22.6751 105.854 22.7464 105.454 23.3101C104.892 24.0976 104.338 24.8976 103.892 25.3776C103.539 25.7526 102.963 25.8026 102.482 25.6026C101.836 25.3326 100.026 24.6976 97.7944 22.7114C96.0669 21.1739 94.8919 19.2564 94.5506 18.6814C94.2094 18.0939 94.5156 17.7526 94.7856 17.4351C95.0794 17.0701 95.3606 16.8126 95.6556 16.4726C95.9506 16.1326 96.1144 15.9551 96.3019 15.5564C96.5019 15.1814 96.3606 14.7689 96.2194 14.4751C96.0781 14.1814 94.9031 11.3126 94.4219 10.1501L94.4194 10.1651Z" fill="#FEFEFE"/>
</g>
<g clip-path="url(#clip2_854_4845)">
<path d="M180.006 0C171.657 0 169.215 0.00859375 168.74 0.0476563C167.026 0.190625 165.96 0.460156 164.798 1.03906C163.903 1.48359 163.197 1.99922 162.501 2.72187C161.231 4.03906 160.462 5.66016 160.184 7.58672C160.049 8.52188 160.009 8.71328 160.001 13.4914C159.998 15.0844 160.001 17.1805 160.001 19.9922C160.001 28.3375 160.011 30.7773 160.051 31.2516C160.189 32.9195 160.451 33.9688 161.005 35.1164C162.063 37.3133 164.084 38.9625 166.465 39.5781C167.289 39.7906 168.2 39.907 169.369 39.9625C169.864 39.9844 174.912 39.9992 179.964 39.9992C185.015 39.9992 190.066 39.993 190.55 39.9688C191.904 39.9047 192.69 39.7992 193.558 39.575C195.955 38.9562 197.939 37.332 199.019 35.1039C199.562 33.9836 199.837 32.8945 199.962 31.3141C199.989 30.9695 200 25.4742 200 19.9867C200 14.4984 199.987 9.01328 199.961 8.66875C199.835 7.0625 199.559 5.98203 198.999 4.84062C198.539 3.90625 198.029 3.20781 197.287 2.49453C195.964 1.23047 194.346 0.460938 192.418 0.182812C191.483 0.0484375 191.297 0.00859375 186.516 0H180.006Z" fill="#F39200"/>
<path d="M180.006 0C171.657 0 169.215 0.00859375 168.74 0.0476563C167.026 0.190625 165.96 0.460156 164.798 1.03906C163.903 1.48359 163.197 1.99922 162.501 2.72187C161.231 4.03906 160.462 5.66016 160.184 7.58672C160.049 8.52188 160.009 8.71328 160.001 13.4914C159.998 15.0844 160.001 17.1805 160.001 19.9922C160.001 28.3375 160.011 30.7773 160.051 31.2516C160.189 32.9195 160.451 33.9688 161.005 35.1164C162.063 37.3133 164.084 38.9625 166.465 39.5781C167.289 39.7906 168.2 39.907 169.369 39.9625C169.864 39.9844 174.912 39.9992 179.964 39.9992C185.015 39.9992 190.066 39.993 190.55 39.9688C191.904 39.9047 192.69 39.7992 193.558 39.575C195.955 38.9562 197.939 37.332 199.019 35.1039C199.562 33.9836 199.837 32.8945 199.962 31.3141C199.989 30.9695 200 25.4742 200 19.9867C200 14.4984 199.987 9.01328 199.961 8.66875C199.835 7.0625 199.559 5.98203 198.999 4.84062C198.539 3.90625 198.029 3.20781 197.287 2.49453C195.964 1.23047 194.346 0.460938 192.418 0.182812C191.483 0.0484375 191.297 0.00859375 186.516 0H180.006Z" fill="url(#paint0_radial_854_4845)"/>
<path d="M180.006 0C171.657 0 169.215 0.00859375 168.74 0.0476563C167.026 0.190625 165.96 0.460156 164.798 1.03906C163.903 1.48359 163.197 1.99922 162.501 2.72187C161.231 4.03906 160.462 5.66016 160.184 7.58672C160.049 8.52188 160.009 8.71328 160.001 13.4914C159.998 15.0844 160.001 17.1805 160.001 19.9922C160.001 28.3375 160.011 30.7773 160.051 31.2516C160.189 32.9195 160.451 33.9688 161.005 35.1164C162.063 37.3133 164.084 38.9625 166.465 39.5781C167.289 39.7906 168.2 39.907 169.369 39.9625C169.864 39.9844 174.912 39.9992 179.964 39.9992C185.015 39.9992 190.066 39.993 190.55 39.9688C191.904 39.9047 192.69 39.7992 193.558 39.575C195.955 38.9562 197.939 37.332 199.019 35.1039C199.562 33.9836 199.837 32.8945 199.962 31.3141C199.989 30.9695 200 25.4742 200 19.9867C200 14.4984 199.987 9.01328 199.961 8.66875C199.835 7.0625 199.559 5.98203 198.999 4.84062C198.539 3.90625 198.029 3.20781 197.287 2.49453C195.964 1.23047 194.346 0.460938 192.418 0.182812C191.483 0.0484375 191.297 0.00859375 186.516 0H180.006Z" fill="#F39200"/>
<path d="M180.006 0C171.657 0 169.215 0.00859375 168.74 0.0476563C167.026 0.190625 165.96 0.460156 164.798 1.03906C163.903 1.48359 163.197 1.99922 162.501 2.72187C161.231 4.03906 160.462 5.66016 160.184 7.58672C160.049 8.52188 160.009 8.71328 160.001 13.4914C159.998 15.0844 160.001 17.1805 160.001 19.9922C160.001 28.3375 160.011 30.7773 160.051 31.2516C160.189 32.9195 160.451 33.9688 161.005 35.1164C162.063 37.3133 164.084 38.9625 166.465 39.5781C167.289 39.7906 168.2 39.907 169.369 39.9625C169.864 39.9844 174.912 39.9992 179.964 39.9992C185.015 39.9992 190.066 39.993 190.55 39.9688C191.904 39.9047 192.69 39.7992 193.558 39.575C195.955 38.9562 197.939 37.332 199.019 35.1039C199.562 33.9836 199.837 32.8945 199.962 31.3141C199.989 30.9695 200 25.4742 200 19.9867C200 14.4984 199.987 9.01328 199.961 8.66875C199.835 7.0625 199.559 5.98203 198.999 4.84062C198.539 3.90625 198.029 3.20781 197.287 2.49453C195.964 1.23047 194.346 0.460938 192.418 0.182812C191.483 0.0484375 191.297 0.00859375 186.516 0H180.006Z" fill="#F39200"/>
<path d="M180.005 5.13574C175.966 5.13574 175.459 5.15371 173.873 5.22559C172.29 5.29824 171.209 5.54824 170.264 5.91621C169.286 6.2959 168.456 6.80371 167.63 7.62949C166.802 8.45527 166.295 9.28496 165.913 10.2615C165.545 11.2068 165.294 12.2873 165.223 13.8686C165.152 15.4537 165.133 15.9607 165.133 19.9967C165.133 24.0326 165.151 24.5381 165.223 26.1232C165.295 27.7053 165.546 28.785 165.913 29.7303C166.294 30.7076 166.802 31.5365 167.629 32.3631C168.455 33.1896 169.285 33.699 170.262 34.0787C171.209 34.4459 172.29 34.6967 173.873 34.7693C175.459 34.8412 175.966 34.8592 180.005 34.8592C184.044 34.8592 184.549 34.8412 186.136 34.7693C187.72 34.6967 188.802 34.4467 189.748 34.0787C190.726 33.699 191.554 33.1904 192.38 32.3639C193.208 31.5381 193.716 30.7084 194.097 29.7318C194.462 28.7865 194.713 27.7061 194.787 26.1248C194.859 24.5396 194.877 24.0342 194.877 19.9982C194.877 15.9623 194.859 15.4553 194.787 13.8701C194.713 12.2881 194.462 11.2084 194.097 10.2631C193.716 9.28574 193.208 8.45684 192.38 7.63027C191.553 6.80371 190.726 6.2959 189.747 5.91621C188.798 5.54902 187.717 5.29824 186.134 5.22559C184.548 5.15371 184.043 5.13574 180.002 5.13574H180.005ZM178.672 7.81387C179.068 7.81309 179.509 7.81387 180.006 7.81387C183.977 7.81387 184.448 7.82793 186.016 7.89902C187.466 7.96543 188.252 8.20762 188.777 8.41074C189.47 8.68027 189.966 9.00215 190.486 9.52246C191.006 10.0428 191.329 10.5381 191.599 11.2318C191.803 11.7553 192.045 12.5412 192.112 13.9904C192.183 15.5568 192.198 16.0279 192.198 19.9936C192.198 23.96 192.183 24.4303 192.112 25.9967C192.045 27.4459 191.803 28.2318 191.599 28.7553C191.33 29.449 191.007 29.9428 190.486 30.4623C189.966 30.9826 189.471 31.3045 188.777 31.574C188.253 31.7787 187.466 32.0201 186.016 32.0857C184.448 32.1568 183.977 32.1725 180.006 32.1725C176.035 32.1725 175.564 32.1568 173.997 32.0857C172.547 32.0186 171.76 31.7772 171.235 31.5732C170.541 31.3037 170.045 30.9818 169.525 30.4615C169.005 29.9412 168.682 29.4475 168.412 28.7537C168.208 28.2303 167.966 27.4443 167.899 25.9951C167.828 24.4287 167.814 23.9576 167.814 19.9896C167.814 16.0209 167.828 15.5529 167.899 13.9865C167.966 12.5373 168.208 11.7514 168.412 11.2271C168.681 10.5334 169.004 10.0381 169.525 9.51777C170.045 8.99746 170.541 8.67559 171.235 8.40527C171.759 8.20059 172.547 7.95918 173.997 7.89277C175.369 7.83105 175.901 7.8123 178.673 7.80918L178.672 7.81387ZM187.945 10.2818C186.959 10.2818 186.16 11.0795 186.16 12.0646C186.16 13.049 186.959 13.8482 187.945 13.8482C188.93 13.8482 189.729 13.0498 189.729 12.0646C189.729 11.0795 188.93 10.2811 187.945 10.2818ZM180.005 12.3654C175.787 12.3654 172.368 15.7826 172.368 19.9975C172.368 24.2123 175.787 27.6279 180.005 27.6279C184.223 27.6279 187.641 24.2123 187.641 19.9975C187.641 15.7826 184.223 12.3654 180.005 12.3654ZM180.005 15.0436C182.743 15.0436 184.963 17.2615 184.963 19.9975C184.963 22.7334 182.744 24.9514 180.005 24.9514C177.267 24.9514 175.048 22.7334 175.048 19.9975C175.048 17.2607 177.268 15.0436 180.005 15.0436Z" fill="white"/>
</g>
<g clip-path="url(#clip3_854_4845)">
<path d="M280 20C280 31.05 271.05 40 260 40C248.95 40 240 31.05 240 20C240 8.95 248.95 0 260 0C271.05 0 280 8.95 280 20Z" fill="#F39200"/>
<path d="M256.331 29.1665C255.681 29.1665 255.797 28.9165 255.564 28.2998L253.664 22.0332L265.464 14.6665L266.847 15.0332L265.697 18.1665L256.331 29.1665Z" fill="#C8DAEA"/>
<path d="M256.336 29.1667C256.836 29.1667 257.053 28.9333 257.336 28.6667C257.769 28.25 263.336 22.8333 263.336 22.8333L259.919 22L256.753 24L256.336 29V29.1667Z" fill="#A9C9DD"/>
<path d="M256.669 24.0666L264.735 30.0166C265.652 30.5166 266.319 30.2666 266.552 29.1666L269.835 13.6999C270.169 12.3499 269.319 11.7499 268.435 12.1499L249.169 19.5832C247.852 20.1166 247.869 20.8499 248.935 21.1666L253.885 22.7166L265.335 15.4999C265.869 15.1666 266.369 15.3499 265.969 15.7166L256.669 24.0666Z" fill="url(#paint1_linear_854_4845)"/>
</g>
<defs>
<radialGradient id="paint0_radial_854_4845" cx="0" cy="0" r="1" gradientUnits="userSpaceOnUse" gradientTransform="translate(170.625 43.0809) rotate(-90) scale(31.9288 33.8759)">
<stop stop-color="#FFCC00"/>
<stop offset="0.1242" stop-color="#FFCC00"/>
<stop offset="0.5672" stop-color="#FE4A05"/>
<stop offset="0.6942" stop-color="#FF0F3F"/>
<stop offset="1" stop-color="#FE0657" stop-opacity="0"/>
</radialGradient>
<linearGradient id="paint1_linear_854_4845" x1="261.5" y1="20.6257" x2="265.667" y2="27.2924" gradientUnits="userSpaceOnUse">
<stop stop-color="#EFF7FC"/>
<stop offset="1" stop-color="white"/>
</linearGradient>
<clipPath id="clip0_854_4845">
<rect width="40" height="40" fill="white"/>
</clipPath>
<clipPath id="clip1_854_4845">
<rect width="40" height="40" fill="white" transform="translate(80)"/>
</clipPath>
<clipPath id="clip2_854_4845">
<rect width="40" height="40" fill="white" transform="translate(160)"/>
</clipPath>
<clipPath id="clip3_854_4845">
<rect width="40" height="40" fill="white" transform="translate(240)"/>
</clipPath>
</defs>
</svg>
