<svg width="24" height="24" viewBox="0 0 24 24" fill="none" xmlns="http://www.w3.org/2000/svg">
<g clip-path="url(#clip0_879_5930)">
<path fill-rule="evenodd" clip-rule="evenodd" d="M8.5 11C8.5 11.552 8.051 12 7.5 12C6.949 12 6.5 11.552 6.5 11C6.5 10.448 6.949 10 7.5 10C8.051 10 8.5 10.448 8.5 11ZM17.5 11C17.5 11.552 17.052 12 16.5 12C15.948 12 15.5 11.552 15.5 11C15.5 10.448 15.948 10 16.5 10C17.052 10 17.5 10.448 17.5 11ZM21.139 15.526L17.668 16.526C17.033 16.713 16.755 15.748 17.391 15.565L20.861 14.565C21.498 14.38 21.772 15.344 21.139 15.526ZM19.662 18.972L17.378 18.244C16.748 18.044 17.048 17.096 17.681 17.291L19.965 18.019C20.602 18.222 20.281 19.166 19.662 18.972ZM14.5 11C14.5 9.896 15.396 9 16.5 9C17.604 9 18.5 9.896 18.5 11C18.5 12.104 17.604 13 16.5 13C15.396 13 14.5 12.104 14.5 11ZM15.456 18.351C14.908 19.565 12.985 20.182 12 18.894C11.013 20.183 9.09 19.564 8.544 18.351C8.273 17.75 9.183 17.336 9.456 17.94C9.792 18.687 11.489 19.242 11.5 17.144V16.639C10.885 16.421 10.438 15.841 10.438 15.326C10.438 14.68 11.138 14.391 12 14.391C12.861 14.391 13.562 14.68 13.562 15.326C13.562 15.841 13.115 16.42 12.5 16.639V17.144C12.509 19.263 14.213 18.676 14.544 17.94C14.814 17.338 15.728 17.748 15.456 18.351ZM5.5 11C5.5 9.896 6.396 9 7.5 9C8.604 9 9.5 9.896 9.5 11C9.5 12.104 8.604 13 7.5 13C6.396 13 5.5 12.104 5.5 11ZM6.623 18.244L4.338 18.972C3.713 19.164 3.401 18.221 4.034 18.019L6.319 17.291C6.955 17.094 7.249 18.044 6.623 18.244ZM3.139 14.565L6.609 15.565C7.247 15.749 6.965 16.713 6.332 16.526L2.861 15.526C2.223 15.343 2.507 14.379 3.139 14.565ZM18.728 0C16.646 1.814 15.646 3.044 14.182 5.261C12.969 4.963 10.976 4.968 9.818 5.261C8.417 3.151 7.413 1.917 5.272 0C2.204 4.042 0 8.939 0 13.565C0 19.324 3.397 24 12 24C20.603 24 24 19.324 24 13.565C24 8.987 21.793 4.063 18.728 0Z" fill="#F39200"/>
</g>
<defs>
<clipPath id="clip0_879_5930">
<rect width="24" height="24" fill="white"/>
</clipPath>
</defs>
</svg>
