<svg width="24" height="24" viewBox="0 0 24 24" fill="none" xmlns="http://www.w3.org/2000/svg">
<g clip-path="url(#clip0_890_6465)">
<path d="M12 2C17.514 2 22 6.486 22 12C22 17.514 17.514 22 12 22C6.486 22 2 17.514 2 12C2 6.486 6.486 2 12 2ZM12 0C5.373 0 0 5.373 0 12C0 18.627 5.373 24 12 24C18.627 24 24 18.627 24 12C24 5.373 18.627 0 12 0ZM5.627 16.199C9.436 16.514 8.073 12.469 11.597 12.43L13.123 13.704C13.504 18.304 7.879 19.33 5.627 16.199ZM18.812 8.812L15.638 6C14.225 7.322 12.828 9.33 12.371 11.51L13.92 12.803C15.977 11.958 17.771 10.448 18.812 8.812Z" fill="#F39200"/>
</g>
<defs>
<clipPath id="clip0_890_6465">
<rect width="24" height="24" fill="white"/>
</clipPath>
</defs>
</svg>
