<svg width="24" height="24" viewBox="0 0 24 24" fill="none" xmlns="http://www.w3.org/2000/svg">
<path d="M0 2V22H24V2H0ZM21 17H15V15H21V17ZM21 13H15V11H21V13ZM21 9H15V7H21V9Z" fill="#F39200"/>
<path fill-rule="evenodd" clip-rule="evenodd" d="M9.436 14.8555C9.291 15.1255 8.935 15.3145 8.5715 15.3145C8.348 15.3145 8.147 15.241 7.9965 15.1065C7.846 15.241 7.6445 15.3145 7.422 15.3145C7.0575 15.3145 6.702 15.1255 6.557 14.8555C6.4025 14.5675 6.825 14.2855 7.027 14.6435C7.078 14.734 7.243 14.831 7.4075 14.831C7.7535 14.831 7.723 14.462 7.723 14.181C7.5115 14.0755 7.3645 13.866 7.3645 13.678C7.3645 13.4145 7.6495 13.297 8 13.297C8.3505 13.297 8.6355 13.4145 8.6355 13.678C8.6355 13.868 8.486 14.0805 8.2705 14.185C8.2705 14.4785 8.2425 14.812 8.57 14.812C8.7405 14.812 8.9345 14.708 9.0015 14.6155C9.2265 14.3035 9.594 14.5625 9.436 14.8555ZM9.5 11.75C9.2705 11.75 9.0835 11.937 9.0835 12.167C9.0835 12.3965 9.2705 12.5835 9.5 12.5835C9.7295 12.5835 9.9165 12.3965 9.9165 12.167C9.9165 11.937 9.7295 11.75 9.5 11.75ZM9.5 13.0835C8.9945 13.0835 8.5835 12.6725 8.5835 12.167C8.5835 11.661 8.9945 11.25 9.5 11.25C10.0055 11.25 10.4165 11.661 10.4165 12.167C10.4165 12.6725 10.0055 13.0835 9.5 13.0835ZM6.5 11.75C6.27 11.75 6.083 11.937 6.083 12.167C6.083 12.3965 6.27 12.5835 6.5 12.5835C6.7295 12.5835 6.9165 12.3965 6.9165 12.167C6.9165 11.937 6.7295 11.75 6.5 11.75ZM6.5 13.0835C5.9945 13.0835 5.583 12.6725 5.583 12.167C5.583 11.661 5.9945 11.25 6.5 11.25C7.0055 11.25 7.4165 11.661 7.4165 12.167C7.4165 12.6725 7.0055 13.0835 6.5 13.0835ZM12.5565 15.0765C12.1665 11.2715 11.3255 9.432 10.2725 8.142C9.6675 8.6695 9.2505 9.0265 8.612 9.9755C8.242 9.915 7.7275 9.916 7.369 9.9785C6.6 9.0595 6.082 8.6405 5.4625 8.1515C4.444 9.3935 3.711 11.22 3.404 15.013C2.834 14.147 2.5 13.1125 2.5 12C2.5 8.9675 4.967 6.5 8 6.5C11.0325 6.5 13.5 8.9675 13.5 12C13.5 13.1385 13.152 14.198 12.5565 15.0765ZM8 17.5C6.351 17.5 4.873 16.767 3.864 15.614C4.016 13.3535 4.411 10.4335 5.5425 8.8555C6.4065 9.566 6.901 10.1965 7.1805 10.535C7.5545 10.44 8.092 10.356 8.8385 10.5385C9.3185 9.8125 9.5925 9.4275 10.2085 8.865C11.203 10.2235 11.8385 12.4985 12.1085 15.644C11.1 16.7795 9.634 17.5 8 17.5ZM8 6C4.6885 6 2 8.6885 2 12C2 15.3135 4.7 18 8 18C11.2795 18 14 15.335 14 12C14 8.6885 11.3115 6 8 6Z" fill="white"/>
</svg>
