<svg width="24" height="24" viewBox="0 0 24 24" fill="none" xmlns="http://www.w3.org/2000/svg">
<g clip-path="url(#clip0_890_6459)">
<path fill-rule="evenodd" clip-rule="evenodd" d="M9 23H3V13L11.991 4.995L21 13V23H15V20C15 18.346 13.645 16.979 11.991 16.979C10.336 16.979 9 18.346 9 20V23ZM11.252 11.985C11.346 11.983 12.637 11.983 12.729 11.985C13.899 12.001 13.993 10.987 14.988 10.987C15.631 10.987 15.983 11.511 15.987 11.986C15.992 12.46 15.707 12.811 15.365 12.981C15.692 13.158 15.984 13.508 15.987 13.983C15.99 14.458 15.64 14.982 14.988 14.982C13.993 14.982 13.899 13.967 12.729 13.984H11.252C10.082 13.967 9.988 14.982 8.993 14.982C8.341 14.982 7.991 14.458 7.994 13.983C7.997 13.508 8.289 13.158 8.616 12.981C8.274 12.811 7.989 12.46 7.994 11.986C7.998 11.511 8.35 10.987 8.993 10.987C9.988 10.987 10.082 12.001 11.252 11.985ZM12 1L24 11.632L22.672 13.125L12 3.644L1.328 13.125L0 11.644L12 1Z" fill="#F39200"/>
</g>
<defs>
<clipPath id="clip0_890_6459">
<rect width="24" height="24" fill="white"/>
</clipPath>
</defs>
</svg>
