<svg width="282" height="40" viewBox="0 0 282 40" fill="none" xmlns="http://www.w3.org/2000/svg">
<rect width="282" height="40" rx="8" fill="#F39200"/>
<path d="M112.295 14.3636V26H110.187V14.3636H112.295ZM116.543 20.8864V26H114.487V17.2727H116.452V18.7557H116.555C116.755 18.267 117.076 17.8788 117.515 17.5909C117.958 17.303 118.505 17.1591 119.157 17.1591C119.759 17.1591 120.284 17.2879 120.731 17.5455C121.182 17.803 121.53 18.1761 121.776 18.6648C122.026 19.1534 122.149 19.7462 122.146 20.4432V26H120.089V20.7614C120.089 20.178 119.937 19.7216 119.634 19.392C119.335 19.0625 118.92 18.8977 118.39 18.8977C118.03 18.8977 117.71 18.9773 117.43 19.1364C117.153 19.2917 116.935 19.517 116.776 19.8125C116.621 20.108 116.543 20.4659 116.543 20.8864ZM128.032 29.4545C127.293 29.4545 126.659 29.3542 126.129 29.1534C125.598 28.9564 125.172 28.6913 124.85 28.358C124.528 28.0246 124.305 27.6553 124.18 27.25L126.032 26.8011C126.115 26.9716 126.237 27.1402 126.396 27.3068C126.555 27.4773 126.769 27.6174 127.038 27.7273C127.31 27.8409 127.653 27.8977 128.066 27.8977C128.649 27.8977 129.132 27.7557 129.515 27.4716C129.897 27.1913 130.089 26.7292 130.089 26.0852V24.4318H129.987C129.88 24.6439 129.725 24.8617 129.521 25.0852C129.32 25.3087 129.053 25.4962 128.719 25.6477C128.39 25.7992 127.975 25.875 127.475 25.875C126.805 25.875 126.197 25.7178 125.651 25.4034C125.11 25.0852 124.678 24.6117 124.356 23.983C124.038 23.3504 123.879 22.5587 123.879 21.608C123.879 20.6496 124.038 19.8409 124.356 19.1818C124.678 18.5189 125.112 18.017 125.657 17.6761C126.202 17.3314 126.81 17.1591 127.481 17.1591C127.992 17.1591 128.413 17.2462 128.742 17.4205C129.076 17.5909 129.341 17.7973 129.538 18.0398C129.735 18.2784 129.884 18.5038 129.987 18.7159H130.1V17.2727H132.129V26.142C132.129 26.8883 131.951 27.5057 131.594 27.9943C131.238 28.483 130.752 28.8485 130.134 29.0909C129.517 29.3333 128.816 29.4545 128.032 29.4545ZM128.049 24.2614C128.485 24.2614 128.856 24.1553 129.163 23.9432C129.469 23.7311 129.702 23.4261 129.862 23.0284C130.021 22.6307 130.1 22.1534 130.1 21.5966C130.1 21.0473 130.021 20.5663 129.862 20.1534C129.706 19.7405 129.475 19.4205 129.168 19.1932C128.865 18.9621 128.492 18.8466 128.049 18.8466C127.591 18.8466 127.208 18.9659 126.901 19.2045C126.594 19.4432 126.363 19.7708 126.208 20.1875C126.053 20.6004 125.975 21.0701 125.975 21.5966C125.975 22.1307 126.053 22.5985 126.208 23C126.367 23.3977 126.6 23.7083 126.907 23.9318C127.218 24.1515 127.598 24.2614 128.049 24.2614ZM134.237 26V17.2727H136.231V18.7273H136.322C136.481 18.2235 136.754 17.8352 137.14 17.5625C137.53 17.286 137.975 17.1477 138.475 17.1477C138.589 17.1477 138.716 17.1534 138.856 17.1648C139 17.1723 139.119 17.1856 139.214 17.2045V19.0966C139.127 19.0663 138.988 19.0398 138.799 19.017C138.613 18.9905 138.433 18.9773 138.259 18.9773C137.884 18.9773 137.547 19.0587 137.248 19.2216C136.952 19.3807 136.719 19.6023 136.549 19.8864C136.379 20.1705 136.293 20.4981 136.293 20.8693V26H134.237ZM144.085 26.1705C143.21 26.1705 142.454 25.9886 141.817 25.625C141.185 25.2576 140.698 24.7386 140.357 24.0682C140.016 23.3939 139.846 22.6004 139.846 21.6875C139.846 20.7898 140.016 20.0019 140.357 19.3239C140.702 18.642 141.183 18.1117 141.8 17.733C142.418 17.3504 143.143 17.1591 143.977 17.1591C144.514 17.1591 145.022 17.2462 145.499 17.4205C145.98 17.5909 146.405 17.8561 146.772 18.2159C147.143 18.5758 147.435 19.0341 147.647 19.5909C147.859 20.1439 147.965 20.803 147.965 21.5682V22.1989H140.812V20.8125H145.994C145.99 20.4186 145.905 20.0682 145.738 19.7614C145.571 19.4508 145.338 19.2064 145.039 19.0284C144.744 18.8504 144.399 18.7614 144.005 18.7614C143.585 18.7614 143.215 18.8636 142.897 19.0682C142.579 19.2689 142.331 19.5341 142.153 19.8636C141.978 20.1894 141.889 20.5473 141.886 20.9375V22.1477C141.886 22.6553 141.978 23.0909 142.164 23.4545C142.35 23.8144 142.609 24.0909 142.942 24.2841C143.276 24.4735 143.666 24.5682 144.113 24.5682C144.412 24.5682 144.683 24.5265 144.925 24.4432C145.168 24.3561 145.378 24.2292 145.556 24.0625C145.734 23.8958 145.869 23.6894 145.96 23.4432L147.88 23.6591C147.759 24.1667 147.528 24.6098 147.187 24.9886C146.85 25.3636 146.418 25.6553 145.891 25.8636C145.365 26.0682 144.763 26.1705 144.085 26.1705ZM156.603 19.5795L154.728 19.7841C154.675 19.5947 154.582 19.4167 154.45 19.25C154.321 19.0833 154.147 18.9489 153.927 18.8466C153.707 18.7443 153.438 18.6932 153.12 18.6932C152.692 18.6932 152.332 18.786 152.04 18.9716C151.753 19.1572 151.611 19.3977 151.614 19.6932C151.611 19.947 151.703 20.1534 151.893 20.3125C152.086 20.4716 152.404 20.6023 152.847 20.7045L154.336 21.0227C155.162 21.2008 155.775 21.483 156.177 21.8693C156.582 22.2557 156.787 22.7614 156.79 23.3864C156.787 23.9356 156.626 24.4205 156.308 24.8409C155.993 25.2576 155.556 25.5833 154.995 25.8182C154.434 26.053 153.79 26.1705 153.063 26.1705C151.995 26.1705 151.135 25.947 150.484 25.5C149.832 25.0492 149.444 24.4223 149.319 23.6193L151.325 23.4261C151.415 23.8201 151.609 24.1174 151.904 24.3182C152.2 24.5189 152.584 24.6193 153.058 24.6193C153.546 24.6193 153.938 24.5189 154.234 24.3182C154.533 24.1174 154.683 23.8693 154.683 23.5739C154.683 23.3239 154.586 23.1174 154.393 22.9545C154.203 22.7917 153.908 22.6667 153.506 22.5795L152.018 22.267C151.181 22.0928 150.561 21.7992 150.16 21.3864C149.758 20.9697 149.559 20.4432 149.563 19.8068C149.559 19.2689 149.705 18.803 150.001 18.4091C150.3 18.0114 150.715 17.7045 151.245 17.4886C151.779 17.2689 152.395 17.1591 153.092 17.1591C154.114 17.1591 154.919 17.3769 155.506 17.8125C156.097 18.2481 156.463 18.8371 156.603 19.5795ZM160.998 26.1761C160.445 26.1761 159.947 26.0777 159.504 25.8807C159.064 25.6799 158.716 25.3845 158.458 24.9943C158.204 24.6042 158.077 24.1231 158.077 23.5511C158.077 23.0587 158.168 22.6515 158.35 22.3295C158.532 22.0076 158.78 21.75 159.094 21.5568C159.409 21.3636 159.763 21.2178 160.157 21.1193C160.555 21.017 160.966 20.9432 161.39 20.8977C161.901 20.8447 162.316 20.7973 162.634 20.7557C162.952 20.7102 163.183 20.642 163.327 20.5511C163.475 20.4564 163.549 20.3106 163.549 20.1136V20.0795C163.549 19.6515 163.422 19.3201 163.168 19.0852C162.915 18.8504 162.549 18.733 162.072 18.733C161.568 18.733 161.168 18.8428 160.873 19.0625C160.581 19.2822 160.384 19.5417 160.282 19.8409L158.362 19.5682C158.513 19.0379 158.763 18.5947 159.112 18.2386C159.46 17.8788 159.886 17.6098 160.39 17.4318C160.894 17.25 161.451 17.1591 162.06 17.1591C162.481 17.1591 162.899 17.2083 163.316 17.3068C163.733 17.4053 164.113 17.5682 164.458 17.7955C164.803 18.0189 165.079 18.3239 165.288 18.7102C165.5 19.0966 165.606 19.5795 165.606 20.1591V26H163.629V24.8011H163.56C163.435 25.0436 163.259 25.2708 163.032 25.483C162.808 25.6913 162.526 25.8598 162.185 25.9886C161.848 26.1136 161.452 26.1761 160.998 26.1761ZM161.532 24.6648C161.945 24.6648 162.303 24.5833 162.606 24.4205C162.909 24.2538 163.142 24.0341 163.305 23.7614C163.471 23.4886 163.555 23.1913 163.555 22.8693V21.8409C163.49 21.8939 163.38 21.9432 163.225 21.9886C163.074 22.0341 162.903 22.0739 162.714 22.108C162.524 22.142 162.337 22.1723 162.151 22.1989C161.966 22.2254 161.805 22.2481 161.668 22.267C161.362 22.3087 161.087 22.3769 160.844 22.4716C160.602 22.5663 160.411 22.6989 160.271 22.8693C160.13 23.036 160.06 23.2519 160.06 23.517C160.06 23.8958 160.199 24.1818 160.475 24.375C160.752 24.5682 161.104 24.6648 161.532 24.6648ZM167.674 26V17.2727H169.668V18.7273H169.759C169.918 18.2235 170.191 17.8352 170.577 17.5625C170.968 17.286 171.413 17.1477 171.913 17.1477C172.026 17.1477 172.153 17.1534 172.293 17.1648C172.437 17.1723 172.557 17.1856 172.651 17.2045V19.0966C172.564 19.0663 172.426 19.0398 172.237 19.017C172.051 18.9905 171.871 18.9773 171.697 18.9773C171.322 18.9773 170.985 19.0587 170.685 19.2216C170.39 19.3807 170.157 19.6023 169.987 19.8864C169.816 20.1705 169.731 20.4981 169.731 20.8693V26H167.674Z" fill="white"/>
</svg>
