<svg width="350" height="245" viewBox="0 0 350 245" fill="none" xmlns="http://www.w3.org/2000/svg">
<g clip-path="url(#clip0_807_6565)">
<path fill-rule="evenodd" clip-rule="evenodd" d="M154.228 227.708C210.636 232.563 225.677 169.821 272.387 165.476C297.956 163.098 350.332 165.757 333.292 76.9388C322.084 19.6373 266.482 15.3484 217.572 55.1494C202.726 64.4795 189.691 64.9487 174.752 61.3356C159.814 57.7226 136.826 33.2654 102.404 33.8919C-1.18328 35.7775 -57.0154 209.529 154.228 227.708Z" fill="#FFAD34"/>
<path d="M217.606 234.532C217.607 236.635 216.973 238.69 215.789 240.429C214.604 242.167 212.923 243.508 210.965 244.276C209.007 245.045 206.863 245.206 204.812 244.737C202.761 244.269 200.899 243.193 199.469 241.651L198.78 240.815C197.171 238.67 196.448 235.989 196.758 233.326C197.068 230.663 198.389 228.221 200.447 226.503C202.505 224.786 205.145 223.923 207.82 224.095C210.496 224.266 213.003 225.458 214.826 227.424L215.538 228.283C216.88 230.09 217.605 232.281 217.606 234.532Z" fill="#455A64"/>
<path d="M217.618 234.532C217.619 236.635 216.986 238.69 215.801 240.429C214.617 242.167 212.936 243.508 210.978 244.276C209.02 245.045 206.875 245.206 204.825 244.737C202.774 244.269 200.912 243.193 199.482 241.651L198.792 240.815L155.219 188.19L173.582 177.59L214.838 227.401L215.55 228.26C216.897 230.074 217.622 232.273 217.618 234.532Z" fill="#455A64"/>
<path d="M181.562 220.011C183.392 221.93 185.882 223.083 188.53 223.237C191.177 223.39 193.784 222.533 195.824 220.838C197.863 219.143 199.183 216.737 199.516 214.106C199.85 211.475 199.172 208.816 197.62 206.666L192.229 200.168C193.84 202.314 194.566 204.997 194.255 207.662C193.944 210.328 192.621 212.772 190.56 214.49C188.498 216.207 185.855 217.067 183.178 216.892C180.5 216.717 177.992 215.519 176.172 213.547L181.562 220.011Z" fill="#FFAC82"/>
<path d="M172.871 94.8619C176.161 95.228 179.341 96.2624 182.216 97.9016L168.961 90.1949C160.068 84.0815 147.265 84.4431 133.038 92.6471C106.177 108.162 84.3906 145.893 84.3906 176.924C84.3906 192.168 89.5774 203.061 98.1316 208.236L98.3124 208.349L112.46 216.497C109.951 214.864 107.764 212.785 106.008 210.361C109.494 210.742 113.019 210.54 116.438 209.762C117.681 209.491 118.935 209.163 120.212 208.756C120.045 208.706 119.883 208.642 119.726 208.564C119.046 208.246 118.396 207.868 117.783 207.434C116.67 206.659 115.68 205.722 114.845 204.654C113.702 203.192 112.774 201.575 112.087 199.852C111.167 199.985 110.238 200.053 109.308 200.055C107.108 200.099 104.926 199.663 102.912 198.778C102.441 198.563 101.984 198.317 101.544 198.044C101.149 197.795 100.753 197.501 100.414 197.207C99.5969 193.382 99.1991 189.48 99.2277 185.568C99.2277 154.549 121.014 116.807 147.898 101.292C151.33 99.2894 154.967 97.6605 158.746 96.4326C159.764 96.8487 160.722 97.3998 161.593 98.0711C162.516 98.7791 163.347 99.599 164.068 100.512C165.214 101.978 166.146 103.598 166.837 105.326C167.761 105.196 168.694 105.132 169.628 105.134C172.183 105.065 174.71 105.677 176.95 106.908C177.517 107.217 178.058 107.572 178.566 107.97C178.363 107.066 178.148 106.173 177.888 105.326C176.867 101.561 175.167 98.015 172.871 94.8619Z" fill="#263238"/>
<path d="M182.219 97.9018L181.451 97.4837C178.779 96.0846 175.871 95.1956 172.874 94.862C169.658 94.5034 166.405 94.6521 163.235 95.3027C161.708 95.5922 160.198 95.9695 158.715 96.4327C154.936 97.6606 151.299 99.2896 147.867 101.292C120.983 116.807 99.1968 154.549 99.1968 185.568C99.1681 189.48 99.566 193.383 100.383 197.208C100.53 197.897 100.7 198.552 100.869 199.208C101.876 203.207 103.624 206.983 106.022 210.338C107.093 211.815 108.325 213.168 109.695 214.373C110.568 215.141 111.497 215.843 112.474 216.474C121.345 222.204 133.945 221.706 147.844 213.661C174.727 198.146 196.514 160.414 196.514 129.384C196.502 113.869 191.044 102.964 182.219 97.9018ZM176.908 106.942C177.475 107.251 178.015 107.606 178.524 108.004C179.376 108.696 180.153 109.476 180.84 110.332C184.23 114.581 186.027 121.191 186.027 129.418C186.027 156.538 166.139 191.026 142.601 204.621C136.668 208.011 130.962 209.864 126.114 209.864C124.092 209.888 122.085 209.503 120.215 208.734C120.048 208.683 119.885 208.619 119.729 208.542C119.049 208.223 118.399 207.845 117.786 207.412C117.023 206.876 116.318 206.263 115.684 205.581C115.401 205.287 115.13 204.96 114.859 204.632C113.717 203.17 112.788 201.553 112.102 199.829C110.38 195.269 109.559 190.418 109.683 185.546C109.683 185.184 109.683 184.834 109.683 184.416C110.181 157.408 129.854 123.7 153.087 110.298C153.618 109.993 154.161 109.688 154.703 109.405C158.45 107.312 162.541 105.908 166.783 105.258C167.708 105.129 168.64 105.064 169.574 105.066C171.585 105.049 173.579 105.433 175.439 106.196C175.949 106.399 176.44 106.644 176.908 106.931V106.942Z" fill="#455A64"/>
<path d="M186.024 129.406C186.024 156.527 166.135 191.015 142.597 204.609C141.169 205.44 139.698 206.194 138.19 206.869C134.425 208.685 130.322 209.694 126.144 209.83C124.122 209.853 122.116 209.469 120.245 208.7C120.078 208.649 119.916 208.585 119.76 208.508C119.08 208.189 118.429 207.811 117.816 207.377C116.704 206.602 115.713 205.665 114.878 204.598C114.584 204.202 114.279 203.818 114.008 203.377C114.539 203.377 115.138 203.456 115.658 203.456C120.505 203.456 126.212 201.637 132.145 198.213C155.649 184.698 175.548 150.255 175.548 123.044C175.548 115.575 174.068 109.484 171.254 105.201C173.24 105.332 175.171 105.907 176.905 106.885C177.472 107.194 178.012 107.549 178.52 107.947C179.373 108.639 180.149 109.42 180.837 110.275C183.82 114.016 185.572 119.575 185.933 126.457C185.99 127.451 186.024 128.423 186.024 129.406Z" fill="#37474F"/>
<path opacity="0.6" d="M181.478 126.276C181.478 153.397 161.589 187.885 138.051 201.479C132.118 204.869 126.423 206.722 121.564 206.722C119.546 206.746 117.543 206.362 115.677 205.592C115.394 205.298 115.123 204.971 114.852 204.643C113.71 203.181 112.781 201.564 112.095 199.84C110.373 195.28 109.552 190.43 109.676 185.557C109.676 185.195 109.676 184.845 109.676 184.427C110.174 157.42 129.847 123.711 153.08 110.309C153.611 110.004 154.154 109.699 154.696 109.416C158.443 107.324 162.534 105.919 166.776 105.269C167.701 105.14 168.633 105.076 169.567 105.077C171.578 105.06 173.572 105.444 175.432 106.207C175.737 106.512 176.02 106.84 176.291 107.168C179.681 111.439 181.478 118.05 181.478 126.276Z" fill="white"/>
</g>
<defs>
<clipPath id="clip0_807_6565">
<rect width="350" height="245" fill="white"/>
</clipPath>
</defs>
</svg>
