<svg width="134" height="159" viewBox="0 0 134 159" fill="none" xmlns="http://www.w3.org/2000/svg">
<path d="M133.215 148.532C133.216 150.635 132.583 152.69 131.398 154.429C130.214 156.167 128.533 157.508 126.574 158.276C124.616 159.045 122.472 159.206 120.421 158.737C118.371 158.269 116.509 157.193 115.078 155.651L114.389 154.815C112.781 152.67 112.057 149.989 112.367 147.326C112.677 144.663 113.998 142.221 116.056 140.503C118.115 138.786 120.754 137.923 123.43 138.095C126.105 138.266 128.613 139.458 130.435 141.424L131.147 142.283C132.489 144.09 133.214 146.281 133.215 148.532Z" fill="#455A64"/>
<path d="M133.228 148.532C133.228 150.635 132.595 152.69 131.411 154.429C130.226 156.167 128.545 157.508 126.587 158.276C124.629 159.045 122.485 159.206 120.434 158.737C118.383 158.269 116.521 157.193 115.091 155.651L114.402 154.815L70.8281 102.19L89.1909 91.5903L130.448 141.401L131.16 142.26C132.506 144.074 133.232 146.273 133.228 148.532Z" fill="#455A64"/>
<path d="M97.1715 134.011C99.0014 135.93 101.492 137.083 104.139 137.237C106.787 137.39 109.394 136.533 111.433 134.838C113.473 133.143 114.792 130.737 115.126 128.106C115.459 125.475 114.781 122.816 113.229 120.666L107.839 114.168C109.45 116.314 110.175 118.997 109.864 121.662C109.553 124.328 108.23 126.772 106.169 128.49C104.107 130.207 101.465 131.067 98.787 130.892C96.1093 130.717 93.6012 129.519 91.7812 127.547L97.1715 134.011Z" fill="#FFAC82"/>
<path d="M88.4803 8.86189C91.7699 9.22798 94.95 10.2624 97.8255 11.9016L84.5704 4.19493C75.6772 -1.91846 62.8741 -1.55686 48.6472 6.64706C21.7867 22.1622 0 59.8934 0 90.9237C0 106.168 5.18678 117.061 13.741 122.236L13.9218 122.349L28.0696 130.497C25.5608 128.864 23.3736 126.785 21.6172 124.361C25.103 124.742 28.6281 124.54 32.0473 123.762C33.2903 123.491 34.5446 123.163 35.8215 122.756C35.6545 122.706 35.4919 122.642 35.3356 122.564C34.6556 122.246 34.0052 121.868 33.392 121.434C32.2797 120.659 31.2894 119.722 30.454 118.654C29.3118 117.192 28.3834 115.575 27.6967 113.852C26.776 113.985 25.8471 114.053 24.9169 114.055C22.7175 114.099 20.5349 113.663 18.521 112.778C18.0501 112.563 17.5934 112.317 17.1537 112.044C16.7582 111.795 16.3627 111.501 16.0237 111.207C15.2063 107.382 14.8084 103.48 14.8371 99.5683C14.8371 68.5494 36.6238 30.8068 63.5069 15.2917C66.9392 13.2894 70.576 11.6605 74.3551 10.4326C75.3735 10.8487 76.3312 11.3998 77.2027 12.0711C78.1256 12.7791 78.9569 13.599 79.6775 14.512C80.8234 15.9775 81.7555 17.5983 82.446 19.3259C83.3707 19.1963 84.3034 19.1321 85.2372 19.1337C87.7921 19.0651 90.3194 19.6775 92.5596 20.9079C93.1266 21.2168 93.6671 21.5721 94.1756 21.9701C93.9722 21.0661 93.7575 20.1734 93.4976 19.3259C92.4768 15.5613 90.7764 12.015 88.4803 8.86189Z" fill="#263238"/>
<path d="M97.8284 11.9017L97.06 11.4836C94.3888 10.0846 91.4802 9.1955 88.4832 8.86196C85.2669 8.5033 82.0143 8.65201 78.8442 9.30267C77.317 9.5921 75.8078 9.96939 74.3241 10.4327C70.545 11.6605 66.9082 13.2895 63.4759 15.2918C36.5929 30.8069 14.8061 68.5494 14.8061 99.5684C14.7775 103.48 15.1753 107.382 15.9927 111.208C16.1396 111.897 16.3091 112.552 16.4786 113.208C17.4855 117.207 19.2333 120.983 21.6314 124.338C22.7023 125.815 23.934 127.168 25.304 128.372C26.1776 129.141 27.1067 129.843 28.0838 130.474C36.9545 136.203 49.5542 135.706 63.4534 127.661C90.3364 112.145 112.123 74.4142 112.123 43.384C112.112 27.8688 106.654 16.9642 97.8284 11.9017ZM92.5174 20.9418C93.0844 21.2508 93.6248 21.6061 94.1333 22.0041C94.9854 22.6961 95.7619 23.4764 96.4498 24.3319C99.8399 28.5807 101.637 35.1913 101.637 43.4179C101.637 70.5382 81.7483 105.026 58.2101 118.62C52.2775 122.01 46.5709 123.864 41.7231 123.864C39.7009 123.887 37.6947 123.503 35.8244 122.734C35.6574 122.683 35.4948 122.619 35.3385 122.542C34.6585 122.223 34.0081 121.845 33.3949 121.412C32.6323 120.876 31.9279 120.263 31.2931 119.581C31.0106 119.287 30.7394 118.959 30.4682 118.632C29.326 117.17 28.3976 115.553 27.7109 113.829C25.9896 109.269 25.1683 104.418 25.2927 99.5458C25.2927 99.1842 25.2927 98.8339 25.2927 98.4157C25.7899 71.4084 45.4635 37.7 68.6966 24.298C69.2277 23.9929 69.7701 23.6878 70.3125 23.4053C74.0591 21.3124 78.1504 19.9079 82.3924 19.2581C83.3171 19.1286 84.2498 19.0644 85.1835 19.066C87.1942 19.0487 89.1881 19.4328 91.0483 20.196C91.5581 20.3985 92.0496 20.6443 92.5174 20.9305V20.9418Z" fill="#455A64"/>
<path d="M101.633 43.4064C101.633 70.5268 81.7448 105.015 58.2066 118.609C56.7787 119.44 55.3076 120.194 53.7995 120.869C50.0347 122.685 45.9315 123.694 41.7536 123.83C39.7313 123.853 37.7251 123.469 35.8549 122.7C35.6878 122.649 35.5253 122.585 35.369 122.508C34.6889 122.189 34.0385 121.811 33.4253 121.377C32.3131 120.602 31.3228 119.665 30.4873 118.598C30.1935 118.202 29.8884 117.818 29.6172 117.377C30.1483 117.377 30.7472 117.456 31.267 117.456C36.1148 117.456 41.8214 115.637 47.7539 112.213C71.2583 98.6981 91.1579 64.2552 91.1579 37.0444C91.1579 29.575 89.6776 23.4842 86.8638 19.2014C88.8496 19.3318 90.7807 19.9072 92.5139 20.8851C93.0809 21.1941 93.6214 21.5494 94.1298 21.9473C94.9819 22.6394 95.7584 23.4197 96.4463 24.2752C99.4296 28.0155 101.181 33.5752 101.543 40.457C101.599 41.4514 101.633 42.4233 101.633 43.4064Z" fill="#37474F"/>
<path opacity="0.6" d="M97.087 40.2764C97.087 67.3968 77.1987 101.885 53.6604 115.479C47.7279 118.869 42.0326 120.722 37.1735 120.722C35.155 120.746 33.1524 120.362 31.2861 119.592C31.0036 119.298 30.7324 118.971 30.4612 118.643C29.319 117.181 28.3906 115.564 27.704 113.84C25.9826 109.28 25.1614 104.43 25.2857 99.557C25.2857 99.1954 25.2857 98.8451 25.2857 98.427C25.7829 71.4196 45.4565 37.7112 68.6897 24.3092C69.2208 24.0041 69.7632 23.699 70.3056 23.4165C74.0522 21.3237 78.1434 19.9191 82.3854 19.2694C83.3102 19.1399 84.2428 19.0757 85.1766 19.0773C87.1872 19.0599 89.1811 19.4441 91.0414 20.2073C91.3465 20.5124 91.629 20.8401 91.9002 21.1678C95.2902 25.4393 97.087 32.0499 97.087 40.2764Z" fill="white"/>
</svg>
