<svg width="526" height="360" viewBox="0 0 526 360" fill="none" xmlns="http://www.w3.org/2000/svg">
<path d="M469.619 105.973C469.624 104.151 469.777 102.334 470.078 100.537C470.835 95.2502 473.752 92.3669 478.676 90.322C482.724 88.7928 487.003 87.9674 491.329 87.8817C494.579 87.6099 497.85 87.8551 501.022 88.6081C502.059 88.875 503.024 89.3664 503.85 90.0475C504.676 90.7287 505.342 91.5829 505.801 92.5498C506.206 94.0241 506.274 95.5707 505.999 97.0747C505.725 98.5787 505.115 100.002 504.216 101.238C501.877 105.346 498.883 109.043 495.351 112.184C492.558 114.861 489.156 116.819 485.44 117.892C483.581 118.412 481.628 118.501 479.729 118.152C477.83 117.803 476.037 117.025 474.484 115.878C471.789 113.605 470.089 110.369 469.748 106.86C469.65 106.629 469.635 106.301 469.619 105.973Z" fill="#FFBF5F"/>
<path d="M499.162 68.2749C504.034 62.6368 506.987 55.6681 503.79 48.5997C500.039 40.3545 488.83 42.2552 482.351 45.8463C475.873 49.4374 468.825 55.7208 466.134 63.0991C462.634 72.693 469.484 79.9033 479.145 79.3774C486.942 79.0042 494.275 73.9577 499.162 68.2749Z" fill="#FFBF5F"/>
<path d="M413.225 60.3326C415.037 60.1148 416.825 59.7345 418.568 59.1964C423.724 57.7996 426.215 54.5518 427.644 49.4126C428.651 45.2067 428.94 40.8608 428.498 36.5586C428.332 33.3137 427.656 30.1152 426.497 27.0799C426.101 26.0952 425.499 25.2073 424.729 24.4768C423.96 23.7463 423.042 23.1903 422.038 22.8468C420.537 22.6484 419.01 22.7857 417.568 23.2488C416.127 23.7119 414.806 24.4892 413.701 25.5246C409.877 28.3148 406.536 31.7137 403.813 35.5859C401.508 38.6951 399.986 42.3138 399.376 46.1358C399.097 48.0455 399.255 49.9935 399.837 51.8335C400.419 53.6736 401.41 55.3579 402.737 56.76C405.324 59.1438 408.739 60.4259 412.256 60.3345L413.225 60.3326Z" fill="#FFBF5F"/>
<path d="M446.552 23.8343C451.596 18.3524 458.179 14.5971 465.564 16.9682C474.157 19.8139 473.576 31.0944 470.726 37.8243C467.713 44.8975 462.45 52.4672 455.464 55.94C446.319 60.5353 438.368 54.5497 437.767 44.8893C437.17 37.1672 441.359 29.3164 446.552 23.8343Z" fill="#FFBF5F"/>
<path d="M469 160.001C469 115.818 433.183 80.0007 389 80.0007H0V280.001C0 324.184 35.8172 360.001 80 360.001H337C409.902 360.001 469 300.902 469 228.001V160.001Z" fill="#FFBF5F"/>
</svg>
