<svg width="32" height="32" viewBox="0 0 32 32" fill="none" xmlns="http://www.w3.org/2000/svg">
<g clip-path="url(#clip0_807_6575)">
<path d="M11.9402 15.542C11.4625 16.5923 11.4926 17.8022 11.1643 18.91C10.6676 20.574 9.37083 21.9324 8.91587 23.5921C8.64242 24.6907 8.70258 25.8459 9.08866 26.9102C9.47474 27.9745 10.1692 28.8996 11.0835 29.5673C12.015 30.2081 13.0971 30.5959 14.2236 30.6927C15.3501 30.7895 16.4824 30.5921 17.5096 30.1197C18.941 29.4632 20.2082 28.5094 21.644 27.8508C22.9476 27.2578 24.3471 27.0567 25.5765 26.237C26.7224 25.4812 27.5522 24.3323 27.9095 23.0069C28.1221 22.2003 28.0819 21.3479 27.7944 20.5649C27.3356 19.255 26.4646 17.4249 25.206 16.6938C24.0483 16.0223 22.7153 16.0256 21.4535 15.708C20.1916 15.3904 18.997 14.556 17.7666 13.9701C15.6397 12.9729 13.015 13.1733 11.9402 15.542Z" fill="#FFAD34"/>
<path d="M7.97943 20.1676C8.07619 19.7765 8.13898 19.3778 8.16709 18.9759C8.27558 17.7795 7.79133 17.004 6.83618 16.2978C6.03503 15.7561 5.14689 15.3559 4.21041 15.1146C3.50138 14.8888 2.75981 14.7822 2.01588 14.7991C1.77616 14.8042 1.54051 14.8622 1.32579 14.9689C1.11107 15.0756 0.922567 15.2284 0.773757 15.4164C0.372075 15.9676 0.475785 16.7399 0.661157 17.4003C0.956653 18.4146 1.41653 19.3735 2.02248 20.239C2.50753 20.96 3.16159 21.5513 3.92763 21.9616C4.30491 22.1722 4.72531 22.294 5.15679 22.3175C5.58826 22.3411 6.01941 22.2658 6.41736 22.0974C7.11802 21.7381 7.65412 21.1237 7.91512 20.3809L7.97943 20.1676Z" fill="#FFAD34"/>
<path d="M3.47661 10.4392C2.73454 8.94603 2.42839 7.29111 3.49198 5.91669C4.73211 4.31172 7.07455 5.31166 8.27288 6.42982C9.4712 7.54797 10.7098 9.27774 10.9124 11.0226C11.162 13.3043 9.32011 14.5162 7.24069 13.9019C5.58991 13.4095 4.25168 11.9325 3.47661 10.4392Z" fill="#FFAD34"/>
<path d="M22.6131 13.1461C22.2318 13.0034 21.8635 12.828 21.5123 12.6221C20.4622 12.0455 20.0881 11.2153 20.0426 10.0185C20.038 9.05124 20.1996 8.09033 20.5202 7.1777C20.7225 6.47917 21.0353 5.81752 21.4467 5.21782C21.5831 5.02109 21.7612 4.85687 21.9683 4.73684C22.1754 4.61682 22.4065 4.54395 22.645 4.52342C23.3292 4.49649 23.9021 4.9972 24.3473 5.53941C25.0242 6.35157 25.565 7.26809 25.9487 8.25332C26.2938 9.05209 26.4382 9.92318 26.3693 10.7906C26.333 11.2211 26.1995 11.6378 25.9787 12.0091C25.758 12.3805 25.4557 12.6969 25.0948 12.9344C24.4056 13.3168 23.5961 13.4203 22.8328 13.2237L22.6131 13.1461Z" fill="#FFAD34"/>
<path d="M17.2586 3.47643C16.4416 2.02045 15.2038 0.867005 13.4723 0.996985C11.4482 1.15705 10.9956 3.6614 11.271 5.27665C11.5617 6.96672 12.3071 8.87567 13.655 10.0074C15.409 11.481 17.4503 10.5929 18.0778 8.51792C18.5723 6.87154 18.0755 4.94341 17.2586 3.47643Z" fill="#FFAD34"/>
<rect x="8" y="8" width="24" height="24" rx="12" fill="#FFAC82" fill-opacity="0.7"/>
<path d="M14.7192 22V11.76L15.8392 12.88H12.4792V10.8H17.3112V22H14.7192Z" fill="white"/>
</g>
<defs>
<clipPath id="clip0_807_6575">
<rect width="32" height="32" fill="white"/>
</clipPath>
</defs>
</svg>
