<svg width="136" height="36" viewBox="0 0 136 36" fill="none" xmlns="http://www.w3.org/2000/svg">
<path d="M0.832386 28V1.81818H5.57528V24.0241H17.1065V28H0.832386ZM26.669 28.3963C25.4247 28.3963 24.304 28.1747 23.3068 27.7315C22.3182 27.2798 21.5341 26.6151 20.9545 25.7372C20.3835 24.8594 20.098 23.777 20.098 22.4901C20.098 21.3821 20.3026 20.4659 20.7116 19.7415C21.1207 19.017 21.679 18.4375 22.3864 18.0028C23.0938 17.5682 23.8906 17.2401 24.777 17.0185C25.6719 16.7884 26.5966 16.6222 27.5511 16.5199C28.7017 16.4006 29.6349 16.294 30.3509 16.2003C31.0668 16.098 31.5866 15.9446 31.9105 15.7401C32.2429 15.527 32.4091 15.1989 32.4091 14.7557V14.679C32.4091 13.7159 32.1236 12.9702 31.5526 12.4418C30.9815 11.9134 30.1591 11.6491 29.0852 11.6491C27.9517 11.6491 27.0526 11.8963 26.3878 12.3906C25.7315 12.8849 25.2884 13.4687 25.0582 14.142L20.7372 13.5284C21.0781 12.3352 21.6406 11.3381 22.4247 10.5369C23.2088 9.72727 24.1676 9.12216 25.3011 8.72159C26.4347 8.3125 27.6875 8.10795 29.0597 8.10795C30.0057 8.10795 30.9474 8.21875 31.8849 8.44034C32.8224 8.66193 33.679 9.02841 34.4545 9.53977C35.2301 10.0426 35.8523 10.7287 36.321 11.598C36.7983 12.4673 37.0369 13.554 37.0369 14.858V28H32.5881V25.3026H32.4347C32.1534 25.848 31.7571 26.3594 31.2457 26.8366C30.7429 27.3054 30.108 27.6847 29.3409 27.9744C28.5824 28.2557 27.6918 28.3963 26.669 28.3963ZM27.8707 24.9957C28.7997 24.9957 29.6051 24.8125 30.2869 24.446C30.9688 24.071 31.4929 23.5767 31.8594 22.9631C32.2344 22.3494 32.4219 21.6804 32.4219 20.956V18.642C32.277 18.7614 32.0298 18.8722 31.6804 18.9744C31.3395 19.0767 30.956 19.1662 30.5298 19.2429C30.1037 19.3196 29.6818 19.3878 29.2642 19.4474C28.8466 19.5071 28.4844 19.5582 28.1776 19.6009C27.4872 19.6946 26.8693 19.848 26.3239 20.0611C25.7784 20.2741 25.348 20.5724 25.0327 20.956C24.7173 21.331 24.5597 21.8168 24.5597 22.4134C24.5597 23.2656 24.8707 23.9091 25.4929 24.3438C26.1151 24.7784 26.9077 24.9957 27.8707 24.9957ZM46.3182 16.4943V28H41.6903V8.36364H46.1136V11.7003H46.3438C46.7955 10.6009 47.5156 9.72727 48.5043 9.07955C49.5014 8.43182 50.733 8.10795 52.1989 8.10795C53.554 8.10795 54.7344 8.39773 55.7401 8.97727C56.7543 9.55682 57.5384 10.3963 58.0923 11.4957C58.6548 12.5952 58.9318 13.929 58.9233 15.4972V28H54.2955V16.2131C54.2955 14.9006 53.9545 13.8736 53.2727 13.1321C52.5994 12.3906 51.6662 12.0199 50.473 12.0199C49.6634 12.0199 48.9432 12.1989 48.3125 12.5568C47.6903 12.9062 47.2003 13.4134 46.8423 14.0781C46.4929 14.7429 46.3182 15.5483 46.3182 16.4943ZM70.9148 28.3452C69.3722 28.3452 67.9915 27.9489 66.7727 27.1562C65.554 26.3636 64.5909 25.2131 63.8835 23.7045C63.1761 22.196 62.8224 20.3636 62.8224 18.2074C62.8224 16.0256 63.1804 14.1847 63.8963 12.6847C64.6207 11.1761 65.5966 10.0384 66.8239 9.27131C68.0511 8.49574 69.419 8.10795 70.9276 8.10795C72.0781 8.10795 73.0241 8.30398 73.7656 8.69602C74.5071 9.07954 75.0952 9.54403 75.5298 10.0895C75.9645 10.6264 76.3011 11.1335 76.5398 11.6108H76.7315V1.81818H81.3722V28H76.821V24.9062H76.5398C76.3011 25.3835 75.956 25.8906 75.5043 26.4276C75.0526 26.956 74.456 27.4077 73.7145 27.7827C72.973 28.1577 72.0398 28.3452 70.9148 28.3452ZM72.206 24.5483C73.1861 24.5483 74.0213 24.2841 74.7116 23.7557C75.402 23.2187 75.9261 22.473 76.2841 21.5185C76.642 20.5639 76.821 19.4517 76.821 18.1818C76.821 16.9119 76.642 15.8082 76.2841 14.8707C75.9347 13.9332 75.4148 13.2045 74.7244 12.6847C74.0426 12.1648 73.2031 11.9048 72.206 11.9048C71.1747 11.9048 70.3139 12.1733 69.6236 12.7102C68.9332 13.2472 68.4134 13.9886 68.0639 14.9347C67.7145 15.8807 67.5398 16.9631 67.5398 18.1818C67.5398 19.4091 67.7145 20.5043 68.0639 21.4673C68.4219 22.4219 68.946 23.1761 69.6364 23.7301C70.3352 24.2756 71.1918 24.5483 72.206 24.5483ZM86.3036 28V8.36364H90.9315V28H86.3036ZM88.6303 5.5767C87.8974 5.5767 87.2667 5.33381 86.7383 4.84801C86.2099 4.35369 85.9457 3.76136 85.9457 3.07102C85.9457 2.37216 86.2099 1.77983 86.7383 1.29403C87.2667 0.799715 87.8974 0.552556 88.6303 0.552556C89.3718 0.552556 90.0025 0.799715 90.5224 1.29403C91.0508 1.77983 91.315 2.37216 91.315 3.07102C91.315 3.76136 91.0508 4.35369 90.5224 4.84801C90.0025 5.33381 89.3718 5.5767 88.6303 5.5767ZM100.318 16.4943V28H95.6903V8.36364H100.114V11.7003H100.344C100.795 10.6009 101.516 9.72727 102.504 9.07955C103.501 8.43182 104.733 8.10795 106.199 8.10795C107.554 8.10795 108.734 8.39773 109.74 8.97727C110.754 9.55682 111.538 10.3963 112.092 11.4957C112.655 12.5952 112.932 13.929 112.923 15.4972V28H108.295V16.2131C108.295 14.9006 107.955 13.8736 107.273 13.1321C106.599 12.3906 105.666 12.0199 104.473 12.0199C103.663 12.0199 102.943 12.1989 102.312 12.5568C101.69 12.9062 101.2 13.4134 100.842 14.0781C100.493 14.7429 100.318 15.5483 100.318 16.4943ZM126.168 35.7727C124.506 35.7727 123.078 35.5469 121.885 35.0952C120.692 34.652 119.733 34.0554 119.009 33.3054C118.284 32.5554 117.781 31.7244 117.5 30.8125L121.668 29.8026C121.855 30.1861 122.128 30.5653 122.486 30.9403C122.844 31.3239 123.325 31.6392 123.93 31.8864C124.544 32.142 125.315 32.2699 126.244 32.2699C127.557 32.2699 128.643 31.9503 129.504 31.3111C130.365 30.6804 130.795 29.6406 130.795 28.1918V24.4716H130.565C130.327 24.9489 129.977 25.4389 129.517 25.9418C129.065 26.4446 128.464 26.8665 127.714 27.2074C126.973 27.5483 126.04 27.7188 124.915 27.7188C123.406 27.7188 122.038 27.3651 120.811 26.6577C119.592 25.9418 118.621 24.8764 117.896 23.4616C117.18 22.0384 116.822 20.2571 116.822 18.1179C116.822 15.9616 117.18 14.142 117.896 12.6591C118.621 11.1676 119.597 10.0384 120.824 9.27131C122.051 8.49574 123.419 8.10795 124.928 8.10795C126.078 8.10795 127.024 8.30398 127.766 8.69602C128.516 9.07954 129.112 9.54403 129.555 10.0895C129.999 10.6264 130.335 11.1335 130.565 11.6108H130.821V8.36364H135.385V28.3196C135.385 29.9986 134.984 31.3878 134.183 32.4872C133.382 33.5866 132.287 34.4091 130.898 34.9545C129.509 35.5 127.932 35.7727 126.168 35.7727ZM126.206 24.0881C127.186 24.0881 128.021 23.8494 128.712 23.3722C129.402 22.8949 129.926 22.2088 130.284 21.3139C130.642 20.419 130.821 19.3452 130.821 18.0923C130.821 16.8565 130.642 15.7741 130.284 14.8452C129.935 13.9162 129.415 13.196 128.724 12.6847C128.043 12.1648 127.203 11.9048 126.206 11.9048C125.175 11.9048 124.314 12.1733 123.624 12.7102C122.933 13.2472 122.413 13.9844 122.064 14.9219C121.714 15.8509 121.54 16.9077 121.54 18.0923C121.54 19.294 121.714 20.3466 122.064 21.25C122.422 22.1449 122.946 22.8437 123.636 23.3466C124.335 23.8409 125.192 24.0881 126.206 24.0881Z" fill="white"/>
</svg>
