<svg width="32" height="20" viewBox="0 0 32 20" fill="none" xmlns="http://www.w3.org/2000/svg">
<g clip-path="url(#clip0_862_5563)">
<path d="M2.04531 0H30.0453C30.929 0 31.6453 0.71636 31.6453 1.6V18.4C31.6453 19.2837 30.929 20 30.0453 20H2.04531C1.16167 20 0.445312 19.2837 0.445312 18.4V1.6C0.445312 0.71636 1.16167 0 2.04531 0Z" fill="#16366F"/>
<path d="M18.4073 10.0001C18.4073 13.9658 15.1925 17.1801 11.2269 17.1801C7.26128 17.1801 4.04688 13.9656 4.04688 10.0001C4.04688 6.03475 7.26136 2.82007 11.2269 2.82007C15.1924 2.82007 18.4073 6.03487 18.4073 10.0001Z" fill="#D9222A"/>
<path d="M20.8624 2.81982C19.0072 2.81982 17.3167 3.52366 16.0424 4.67846C15.7828 4.91402 15.5405 5.16794 15.3174 5.4383H16.7681C16.9667 5.67978 17.1495 5.93382 17.3155 6.19882H14.7701C14.617 6.44366 14.4789 6.69758 14.3564 6.95914H17.7289C17.8446 7.20654 17.9462 7.46034 18.0329 7.7193H14.0524C13.9688 7.9687 13.8991 8.22254 13.8438 8.47966H18.2414C18.3489 8.97926 18.4031 9.4889 18.403 9.99998C18.403 10.7973 18.2728 11.5645 18.0328 12.2808H14.0523C14.1389 12.5399 14.2403 12.7938 14.3561 13.0412H17.7288C17.6063 13.3028 17.468 13.5567 17.3149 13.8017H14.7699C14.9361 14.0669 15.1191 14.3209 15.3173 14.5615H16.7677C16.5449 14.8324 16.3025 15.0866 16.0425 15.322C17.3169 16.4767 19.0072 17.1802 20.8625 17.1802C24.828 17.1801 28.0429 13.9657 28.0429 10.0002C28.0429 6.03498 24.8281 2.82018 20.8625 2.82018" fill="#EE9F2D"/>
<path d="M27.0848 14.0025C27.0848 13.8745 27.1885 13.7705 27.3166 13.7705C27.4448 13.7705 27.5485 13.8745 27.5485 14.0025C27.5485 14.1305 27.4448 14.2345 27.3166 14.2345C27.1886 14.2344 27.0848 14.1306 27.0848 14.0025ZM27.3166 14.1788C27.414 14.1788 27.4929 14.0998 27.493 14.0025C27.493 13.9052 27.4141 13.8264 27.3168 13.8264H27.3166C27.2195 13.8262 27.1406 13.9049 27.1405 14.002V14.0026C27.1404 14.0998 27.2192 14.1788 27.3164 14.1789C27.3165 14.1788 27.3166 14.1788 27.3166 14.1788ZM27.2853 14.1044H27.2378V13.9007H27.3238C27.3418 13.9007 27.3601 13.9007 27.376 13.9108C27.3925 13.922 27.4018 13.9416 27.4018 13.9619C27.4018 13.9847 27.3883 14.0061 27.3665 14.0144L27.404 14.1044H27.3514L27.3202 14.0238H27.2854L27.2853 14.1044ZM27.2853 13.9888H27.3116C27.3215 13.9888 27.3318 13.9896 27.3406 13.9848C27.3485 13.9798 27.3525 13.9705 27.3525 13.9615C27.3525 13.9537 27.3477 13.9447 27.341 13.9408C27.3327 13.9356 27.3195 13.9368 27.3106 13.9368H27.2853V13.9888ZM9.54532 10.7863C9.46352 10.7768 9.42752 10.7743 9.37132 10.7743C8.92952 10.7743 8.70584 10.9258 8.70584 11.225C8.70584 11.4094 8.81504 11.5268 8.98532 11.5268C9.30284 11.5268 9.53168 11.2244 9.54532 10.7863ZM10.1122 12.1062H9.46632L9.48116 11.7991C9.28416 12.0418 9.02132 12.1571 8.66416 12.1571C8.24168 12.1571 7.952 11.8271 7.952 11.348C7.952 10.627 8.45584 10.2064 9.32068 10.2064C9.409 10.2064 9.52232 10.2144 9.63832 10.2291C9.66252 10.1315 9.66884 10.0897 9.66884 10.0371C9.66884 9.84079 9.533 9.76759 9.16884 9.76759C8.78752 9.76327 8.473 9.85843 8.34384 9.90095C8.352 9.85175 8.45184 9.23463 8.45184 9.23463C8.84032 9.12079 9.09652 9.07795 9.38484 9.07795C10.0542 9.07795 10.4087 9.37843 10.408 9.94643C10.4093 10.0986 10.3842 10.2864 10.3448 10.5333C10.2772 10.9625 10.132 11.882 10.1122 12.1062ZM7.62584 12.1062H6.84632L7.29284 9.30627L6.29584 12.1062H5.76464L5.69904 9.32227L5.22968 12.1062H4.5L5.10952 8.46399H6.23032L6.29832 10.5026L6.982 8.46399H8.22868L7.62584 12.1062ZM21.825 10.7863C21.7436 10.7768 21.7074 10.7743 21.6514 10.7743C21.2097 10.7743 20.986 10.9258 20.986 11.225C20.986 11.4094 21.095 11.5268 21.2653 11.5268C21.5829 11.5268 21.8119 11.2244 21.825 10.7863ZM22.3924 12.1062H21.7466L21.7612 11.7991C21.5642 12.0418 21.3012 12.1571 20.9444 12.1571C20.5217 12.1571 20.2324 11.8271 20.2324 11.348C20.2324 10.627 20.7358 10.2064 21.6008 10.2064C21.6892 10.2064 21.8023 10.2144 21.9182 10.2291C21.9424 10.1315 21.9487 10.0897 21.9487 10.0371C21.9487 9.84079 21.813 9.76759 21.4489 9.76759C21.0676 9.76327 20.7534 9.85843 20.6237 9.90095C20.6319 9.85175 20.732 9.23463 20.732 9.23463C21.1206 9.12079 21.3766 9.07795 21.6645 9.07795C22.3342 9.07795 22.6887 9.37843 22.688 9.94643C22.6893 10.0986 22.6642 10.2864 22.6248 10.5333C22.5576 10.9625 22.412 11.882 22.3924 12.1062ZM13.5768 12.0612C13.3634 12.1284 13.1971 12.1571 13.0168 12.1571C12.6182 12.1571 12.4008 11.9281 12.4008 11.5064C12.3951 11.3756 12.4581 11.0313 12.5076 10.7169C12.5526 10.4403 12.8456 8.69575 12.8456 8.69575H13.6204L13.5299 9.14411H13.9979L13.8922 9.85595H13.4225C13.3325 10.4193 13.2044 11.121 13.2029 11.214C13.2029 11.3666 13.2844 11.4333 13.4697 11.4333C13.5585 11.4333 13.6273 11.4242 13.6799 11.4053L13.5768 12.0612ZM15.9524 12.0372C15.6862 12.1185 15.4294 12.1578 15.1572 12.1572C14.2899 12.1563 13.8378 11.7033 13.8378 10.8359C13.8378 9.82335 14.413 9.07799 15.1938 9.07799C15.8326 9.07799 16.2406 9.49531 16.2406 10.1498C16.2406 10.367 16.2126 10.579 16.1451 10.8783H14.6021C14.5499 11.308 14.8249 11.487 15.2756 11.487C15.553 11.487 15.8031 11.4298 16.0812 11.3005L15.9524 12.0372ZM15.5169 10.2812C15.5212 10.2194 15.5991 9.75247 15.1564 9.75247C14.9096 9.75247 14.7331 9.94063 14.6612 10.2812H15.5169ZM10.5801 10.0805C10.5801 10.4552 10.7618 10.7135 11.1738 10.9075C11.4894 11.0559 11.5383 11.0999 11.5383 11.2343C11.5383 11.419 11.3991 11.5023 11.0906 11.5023C10.8581 11.5023 10.6418 11.466 10.3923 11.3855C10.3923 11.3855 10.2898 12.0383 10.2851 12.0696C10.4623 12.1082 10.6203 12.144 11.0963 12.1572C11.9188 12.1572 12.2986 11.844 12.2986 11.1672C12.2986 10.7602 12.1396 10.5213 11.7491 10.3418C11.4223 10.1918 11.3848 10.1583 11.3848 10.02C11.3848 9.85983 11.5143 9.77815 11.7663 9.77815C11.9193 9.77815 12.1283 9.79447 12.3263 9.82267L12.4373 9.13567C12.2354 9.10367 11.9294 9.07799 11.7513 9.07799C10.8793 9.07799 10.5774 9.53347 10.5801 10.0805ZM19.7437 9.15583C19.9602 9.15583 20.1621 9.21263 20.4402 9.35263L20.5677 8.56215C20.4536 8.51735 20.0516 8.25415 19.7111 8.25415C19.1894 8.25415 18.7484 8.51295 18.4383 8.94015C17.9859 8.79031 17.7999 9.09315 17.5719 9.39483L17.3694 9.44199C17.3848 9.34267 17.3986 9.24399 17.394 9.14415H16.6781C16.5803 10.0608 16.407 10.9894 16.2713 11.9072L16.2359 12.1062H17.0158C17.1459 11.2605 17.2173 10.719 17.2606 10.3525L17.5543 10.1892C17.5981 10.026 17.7354 9.97083 18.0109 9.97747C17.9739 10.1778 17.9554 10.3811 17.9556 10.5848C17.9556 11.5538 18.4784 12.1572 19.3176 12.1572C19.5338 12.1572 19.7193 12.1287 20.0064 12.0509L20.1437 11.2205C19.8853 11.3477 19.6732 11.4075 19.4812 11.4075C19.0281 11.4075 18.7539 11.073 18.7539 10.5202C18.7539 9.71815 19.1617 9.15583 19.7437 9.15583Z" fill="black"/>
<path d="M7.8524 11.8895H7.07276L7.51956 9.08996L6.52256 11.8895H5.99128L5.9256 9.10596L5.45628 11.8895H4.72656L5.33608 8.2478H6.45688L6.4884 10.5023L7.24456 8.2478H8.45524L7.8524 11.8895Z" fill="white"/>
<path d="M26.3467 8.46411L26.174 9.51643C25.9608 9.23595 25.7318 9.03295 25.4295 9.03295C25.0361 9.03295 24.6781 9.33111 24.4438 9.76995C24.1175 9.70227 23.7799 9.58743 23.7799 9.58743L23.7798 9.59011C23.8061 9.34479 23.8166 9.19511 23.8143 9.14427H23.0982C23.0008 10.061 22.8275 10.9895 22.692 11.9073L22.6562 12.1063H23.4359C23.5413 11.4224 23.6219 10.8546 23.6813 10.4043C23.9476 10.1636 24.0809 9.95359 24.3501 9.96759C24.2309 10.2558 24.1611 10.5878 24.1611 10.9283C24.1611 11.6688 24.5358 12.1573 25.1025 12.1573C25.3881 12.1573 25.6073 12.0588 25.8211 11.8305L25.7846 12.1058H26.5219L27.1156 8.46411H26.3467ZM25.3719 11.4218C25.1066 11.4218 24.9726 11.2254 24.9726 10.8379C24.9726 10.2558 25.2234 9.84291 25.5771 9.84291C25.8449 9.84291 25.9899 10.0471 25.9899 10.4232C25.9899 11.0105 25.7351 11.4218 25.3719 11.4218Z" fill="black"/>
<path d="M9.77269 10.5705C9.69101 10.5611 9.65485 10.5585 9.59885 10.5585C9.15701 10.5585 8.93349 10.71 8.93349 11.0092C8.93349 11.1933 9.04269 11.3111 9.21269 11.3111C9.53049 11.311 9.75933 11.0087 9.77269 10.5705ZM10.3398 11.8899H9.69401L9.70869 11.5833C9.51185 11.8255 9.24869 11.9413 8.89185 11.9413C8.46917 11.9413 8.17969 11.6113 8.17969 11.1322C8.17969 10.4109 8.68333 9.9905 9.54833 9.9905C9.63669 9.9905 9.75001 9.9985 9.86585 10.0133C9.89001 9.91566 9.89633 9.87386 9.89633 9.82102C9.89633 9.6247 9.76069 9.55182 9.39649 9.55182C9.01501 9.5475 8.70069 9.6427 8.57133 9.6847C8.57949 9.63566 8.67933 9.01918 8.67933 9.01918C9.06769 8.90486 9.32417 8.86198 9.61217 8.86198C10.2817 8.86198 10.6363 9.1627 10.6357 9.73018C10.6368 9.88298 10.6115 10.0707 10.5723 10.3172C10.5048 10.7462 10.3595 11.6662 10.3398 11.8899ZM20.795 8.34618L20.6674 9.13686C20.3894 8.99702 20.1874 8.94002 19.9711 8.94002C19.389 8.94002 18.9811 9.50234 18.9811 10.3043C18.9811 10.8571 19.2554 11.1915 19.7084 11.1915C19.9004 11.1915 20.1122 11.1319 20.3706 11.0045L20.2338 11.8345C19.9464 11.9128 19.7611 11.9413 19.5447 11.9413C18.7057 11.9413 18.1827 11.338 18.1827 10.369C18.1827 9.06698 18.9051 8.15698 19.9382 8.15698C20.2785 8.15702 20.6807 8.30134 20.795 8.34618ZM22.0527 10.5705C21.9711 10.5611 21.9351 10.5585 21.8789 10.5585C21.4372 10.5585 21.2135 10.71 21.2135 11.0092C21.2135 11.1933 21.3227 11.3111 21.4929 11.3111C21.8104 11.311 22.0394 11.0087 22.0527 10.5705ZM22.6199 11.8899H21.9739L21.9887 11.5833C21.7917 11.8255 21.5287 11.9413 21.1719 11.9413C20.7494 11.9413 20.4597 11.6113 20.4597 11.1322C20.4597 10.4109 20.9635 9.9905 21.8282 9.9905C21.9167 9.9905 22.0299 9.9985 22.1458 10.0133C22.1699 9.91566 22.1764 9.87386 22.1764 9.82102C22.1764 9.6247 22.0407 9.55182 21.6765 9.55182C21.2952 9.5475 20.9807 9.6427 20.8514 9.6847C20.8595 9.63566 20.9595 9.01918 20.9595 9.01918C21.3479 8.90486 21.6042 8.86198 21.8922 8.86198C22.5618 8.86198 22.9163 9.1627 22.9155 9.73018C22.9168 9.88298 22.8917 10.0707 22.8523 10.3172C22.785 10.7462 22.6394 11.6662 22.6199 11.8899ZM13.8043 11.845C13.5908 11.9122 13.4244 11.9413 13.2443 11.9413C12.8458 11.9413 12.6283 11.7123 12.6283 11.2907C12.6228 11.1595 12.6858 10.8155 12.7353 10.5012C12.7801 10.2241 13.0731 8.47986 13.0731 8.47986H13.8478L13.7574 8.92834H14.1551L14.0493 9.63986H13.6503C13.5603 10.2035 13.4318 10.9046 13.4304 10.9978C13.4304 11.151 13.5121 11.2171 13.6973 11.2171C13.7861 11.2171 13.8548 11.2085 13.9074 11.1895L13.8043 11.845ZM16.18 11.8213C15.914 11.9027 15.6568 11.9419 15.3848 11.9413C14.5174 11.9405 14.0653 11.4875 14.0653 10.62C14.0653 9.60718 14.6405 8.86202 15.4213 8.86202C16.0601 8.86202 16.4681 9.27918 16.4681 9.93402C16.4681 10.1513 16.4401 10.3633 16.3728 10.6625H14.8298C14.7776 11.0921 15.0526 11.2713 15.5033 11.2713C15.7805 11.2713 16.0308 11.214 16.3088 11.0843L16.18 11.8213ZM15.7443 10.0649C15.749 10.0033 15.8266 9.53618 15.3838 9.53618C15.1371 9.53618 14.9606 9.72486 14.8888 10.0649H15.7443ZM10.8075 9.8647C10.8075 10.2393 10.9892 10.4973 11.4012 10.6917C11.7168 10.84 11.7656 10.8842 11.7656 11.0185C11.7656 11.2032 11.6263 11.2865 11.3182 11.2865C11.0855 11.2865 10.8692 11.2502 10.6195 11.1697C10.6195 11.1697 10.5173 11.8225 10.5127 11.8537C10.6895 11.8924 10.8476 11.9277 11.3236 11.9413C12.1463 11.9413 12.526 11.6282 12.526 10.9515C12.526 10.5443 12.3672 10.3055 11.9765 10.126C11.6498 9.9757 11.612 9.9427 11.612 9.80418C11.612 9.64418 11.7418 9.56186 11.9936 9.56186C12.1465 9.56186 12.3555 9.57866 12.5538 9.60686L12.6646 8.91966C12.463 8.88766 12.157 8.86202 11.9788 8.86202C11.1066 8.86202 10.805 9.31718 10.8075 9.8647ZM26.7455 11.8899H26.008L26.0447 11.6141C25.8308 11.8428 25.6117 11.9413 25.326 11.9413C24.7593 11.9413 24.3848 11.4528 24.3848 10.7123C24.3848 9.72714 24.9656 8.89662 25.6532 8.89662C25.9555 8.89662 26.1844 9.02014 26.3973 9.30046L26.5703 8.24814H27.3392L26.7455 11.8899ZM25.5957 11.2055C25.9587 11.2055 26.2137 10.7942 26.2137 10.2074C26.2137 9.83118 26.0685 9.62702 25.8007 9.62702C25.4472 9.62702 25.196 10.0397 25.196 10.622C25.196 11.0095 25.3303 11.2055 25.5957 11.2055ZM23.322 8.92834C23.2244 9.84502 23.051 10.7735 22.9155 11.6909L22.8798 11.8899H23.6595C23.9383 10.0789 24.0058 9.72518 24.443 9.7695C24.5127 9.39886 24.6423 9.07418 24.739 8.91034C24.4124 8.84234 24.2301 9.02686 23.9914 9.37734C24.0103 9.22586 24.0448 9.0787 24.038 8.92834H23.322ZM16.9052 8.92834C16.8073 9.84502 16.634 10.7735 16.4985 11.6909L16.463 11.8899H17.243C17.5215 10.0789 17.5888 9.72518 18.0258 9.7695C18.0958 9.39886 18.2254 9.07418 18.3218 8.91034C17.9956 8.84234 17.8131 9.02686 17.5746 9.37734C17.5934 9.22586 17.6276 9.0787 17.6211 8.92834H16.9052ZM27.088 11.658C27.088 11.5295 27.1918 11.426 27.3198 11.426C27.4477 11.4259 27.5515 11.5295 27.5516 11.6574V11.658C27.5516 11.786 27.4478 11.8898 27.3198 11.8899C27.1918 11.8898 27.088 11.786 27.088 11.658ZM27.3198 11.8342C27.4171 11.8342 27.4959 11.7554 27.4959 11.6581V11.6581C27.496 11.5607 27.4172 11.4818 27.32 11.4817H27.3198C27.2224 11.4818 27.1435 11.5607 27.1434 11.6581C27.1436 11.7553 27.2225 11.8342 27.3198 11.8342ZM27.2884 11.7594H27.2409V11.556H27.3271C27.3449 11.556 27.3634 11.5563 27.3789 11.5662C27.3956 11.5775 27.4051 11.5969 27.4051 11.6171C27.4051 11.6401 27.3916 11.6617 27.3696 11.6698L27.4072 11.7593H27.3544L27.3232 11.6789H27.2884V11.7593V11.7594ZM27.2884 11.6442H27.3146C27.3244 11.6442 27.3351 11.6449 27.3438 11.6402C27.3516 11.6352 27.3556 11.6257 27.3556 11.6167C27.3552 11.6083 27.351 11.6005 27.3441 11.5957C27.3359 11.5911 27.3224 11.5923 27.3136 11.5923H27.2884L27.2884 11.6442Z" fill="white"/>
</g>
<defs>
<clipPath id="clip0_862_5563">
<rect width="31.2" height="20" fill="white" transform="translate(0.445312)"/>
</clipPath>
</defs>
</svg>
