<svg width="112" height="40" viewBox="0 0 112 40" fill="none" xmlns="http://www.w3.org/2000/svg">
<rect width="112" height="40" rx="8" fill="#F39200"/>
<path d="M27.2947 14.3636V26H25.1868V14.3636H27.2947ZM31.5433 20.8864V26H29.4865V17.2727H31.4524V18.7557H31.5547C31.7554 18.267 32.0755 17.8788 32.5149 17.5909C32.9581 17.303 33.5054 17.1591 34.157 17.1591C34.7592 17.1591 35.2839 17.2879 35.7308 17.5455C36.1816 17.803 36.5301 18.1761 36.7763 18.6648C37.0263 19.1534 37.1494 19.7462 37.1456 20.4432V26H35.0888V20.7614C35.0888 20.178 34.9373 19.7216 34.6342 19.392C34.335 19.0625 33.9202 18.8977 33.3899 18.8977C33.0301 18.8977 32.71 18.9773 32.4297 19.1364C32.1532 19.2917 31.9354 19.517 31.7763 19.8125C31.621 20.108 31.5433 20.4659 31.5433 20.8864ZM43.032 29.4545C42.2933 29.4545 41.6589 29.3542 41.1286 29.1534C40.5982 28.9564 40.1721 28.6913 39.8501 28.358C39.5282 28.0246 39.3047 27.6553 39.1797 27.25L41.032 26.8011C41.1153 26.9716 41.2365 27.1402 41.3956 27.3068C41.5547 27.4773 41.7687 27.6174 42.0376 27.7273C42.3104 27.8409 42.6532 27.8977 43.0661 27.8977C43.6494 27.8977 44.1323 27.7557 44.5149 27.4716C44.8975 27.1913 45.0888 26.7292 45.0888 26.0852V24.4318H44.9865C44.8804 24.6439 44.7251 24.8617 44.5206 25.0852C44.3198 25.3087 44.0528 25.4962 43.7195 25.6477C43.3899 25.7992 42.9751 25.875 42.4751 25.875C41.8047 25.875 41.1967 25.7178 40.6513 25.4034C40.1096 25.0852 39.6778 24.6117 39.3558 23.983C39.0376 23.3504 38.8786 22.5587 38.8786 21.608C38.8786 20.6496 39.0376 19.8409 39.3558 19.1818C39.6778 18.5189 40.1115 18.017 40.657 17.6761C41.2024 17.3314 41.8104 17.1591 42.4808 17.1591C42.9922 17.1591 43.4126 17.2462 43.7422 17.4205C44.0755 17.5909 44.3407 17.7973 44.5376 18.0398C44.7346 18.2784 44.8842 18.5038 44.9865 18.7159H45.1001V17.2727H47.1286V26.142C47.1286 26.8883 46.9505 27.5057 46.5945 27.9943C46.2384 28.483 45.7517 28.8485 45.1342 29.0909C44.5168 29.3333 43.8161 29.4545 43.032 29.4545ZM43.049 24.2614C43.4846 24.2614 43.8558 24.1553 44.1626 23.9432C44.4695 23.7311 44.7024 23.4261 44.8615 23.0284C45.0206 22.6307 45.1001 22.1534 45.1001 21.5966C45.1001 21.0473 45.0206 20.5663 44.8615 20.1534C44.7062 19.7405 44.4751 19.4205 44.1683 19.1932C43.8653 18.9621 43.4922 18.8466 43.049 18.8466C42.5907 18.8466 42.2081 18.9659 41.9013 19.2045C41.5945 19.4432 41.3634 19.7708 41.2081 20.1875C41.0528 20.6004 40.9751 21.0701 40.9751 21.5966C40.9751 22.1307 41.0528 22.5985 41.2081 23C41.3672 23.3977 41.6001 23.7083 41.907 23.9318C42.2176 24.1515 42.5982 24.2614 43.049 24.2614ZM49.2365 26V17.2727H51.2308V18.7273H51.3217C51.4808 18.2235 51.7536 17.8352 52.1399 17.5625C52.5301 17.286 52.9751 17.1477 53.4751 17.1477C53.5888 17.1477 53.7157 17.1534 53.8558 17.1648C53.9998 17.1723 54.1191 17.1856 54.2138 17.2045V19.0966C54.1267 19.0663 53.9884 19.0398 53.799 19.017C53.6134 18.9905 53.4335 18.9773 53.2592 18.9773C52.8842 18.9773 52.5471 19.0587 52.2479 19.2216C51.9524 19.3807 51.7195 19.6023 51.549 19.8864C51.3786 20.1705 51.2933 20.4981 51.2933 20.8693V26H49.2365ZM59.0845 26.1705C58.2095 26.1705 57.4538 25.9886 56.8175 25.625C56.1849 25.2576 55.6982 24.7386 55.3572 24.0682C55.0163 23.3939 54.8459 22.6004 54.8459 21.6875C54.8459 20.7898 55.0163 20.0019 55.3572 19.3239C55.7019 18.642 56.183 18.1117 56.8004 17.733C57.4179 17.3504 58.1432 17.1591 58.9766 17.1591C59.5144 17.1591 60.022 17.2462 60.4993 17.4205C60.9804 17.5909 61.4046 17.8561 61.772 18.2159C62.1432 18.5758 62.4349 19.0341 62.647 19.5909C62.8591 20.1439 62.9652 20.803 62.9652 21.5682V22.1989H55.8118V20.8125H60.9936C60.9898 20.4186 60.9046 20.0682 60.7379 19.7614C60.5713 19.4508 60.3383 19.2064 60.0391 19.0284C59.7436 18.8504 59.3989 18.7614 59.005 18.7614C58.5845 18.7614 58.2152 18.8636 57.897 19.0682C57.5788 19.2689 57.3307 19.5341 57.1527 19.8636C56.9785 20.1894 56.8894 20.5473 56.8857 20.9375V22.1477C56.8857 22.6553 56.9785 23.0909 57.1641 23.4545C57.3497 23.8144 57.6091 24.0909 57.9425 24.2841C58.2758 24.4735 58.666 24.5682 59.1129 24.5682C59.4122 24.5682 59.683 24.5265 59.9254 24.4432C60.1679 24.3561 60.3781 24.2292 60.5561 24.0625C60.7341 23.8958 60.8686 23.6894 60.9595 23.4432L62.88 23.6591C62.7588 24.1667 62.5277 24.6098 62.1868 24.9886C61.8497 25.3636 61.4179 25.6553 60.8913 25.8636C60.3648 26.0682 59.7625 26.1705 59.0845 26.1705ZM71.603 19.5795L69.728 19.7841C69.675 19.5947 69.5821 19.4167 69.4496 19.25C69.3208 19.0833 69.1465 18.9489 68.9268 18.8466C68.7071 18.7443 68.4382 18.6932 68.12 18.6932C67.692 18.6932 67.3321 18.786 67.0405 18.9716C66.7526 19.1572 66.6106 19.3977 66.6143 19.6932C66.6106 19.947 66.7034 20.1534 66.8928 20.3125C67.0859 20.4716 67.4041 20.6023 67.8473 20.7045L69.3359 21.0227C70.1617 21.2008 70.7753 21.483 71.1768 21.8693C71.5821 22.2557 71.7867 22.7614 71.7905 23.3864C71.7867 23.9356 71.6257 24.4205 71.3075 24.8409C70.9931 25.2576 70.5556 25.5833 69.995 25.8182C69.4344 26.053 68.7905 26.1705 68.0632 26.1705C66.995 26.1705 66.1352 25.947 65.4837 25.5C64.8321 25.0492 64.4439 24.4223 64.3189 23.6193L66.3246 23.4261C66.4155 23.8201 66.6087 24.1174 66.9041 24.3182C67.1996 24.5189 67.584 24.6193 68.0575 24.6193C68.5462 24.6193 68.9382 24.5189 69.2337 24.3182C69.5329 24.1174 69.6825 23.8693 69.6825 23.5739C69.6825 23.3239 69.5859 23.1174 69.3928 22.9545C69.2034 22.7917 68.9079 22.6667 68.5064 22.5795L67.0178 22.267C66.1806 22.0928 65.5613 21.7992 65.1598 21.3864C64.7583 20.9697 64.5594 20.4432 64.5632 19.8068C64.5594 19.2689 64.7053 18.803 65.0007 18.4091C65.3 18.0114 65.7147 17.7045 66.245 17.4886C66.7791 17.2689 67.3946 17.1591 68.0916 17.1591C69.1143 17.1591 69.9193 17.3769 70.5064 17.8125C71.0973 18.2481 71.4628 18.8371 71.603 19.5795ZM75.9979 26.1761C75.4448 26.1761 74.9467 26.0777 74.5036 25.8807C74.0642 25.6799 73.7157 25.3845 73.4581 24.9943C73.2043 24.6042 73.0774 24.1231 73.0774 23.5511C73.0774 23.0587 73.1683 22.6515 73.3501 22.3295C73.532 22.0076 73.7801 21.75 74.0945 21.5568C74.4089 21.3636 74.763 21.2178 75.157 21.1193C75.5547 21.017 75.9657 20.9432 76.3899 20.8977C76.9013 20.8447 77.3161 20.7973 77.6342 20.7557C77.9524 20.7102 78.1835 20.642 78.3274 20.5511C78.4751 20.4564 78.549 20.3106 78.549 20.1136V20.0795C78.549 19.6515 78.4221 19.3201 78.1683 19.0852C77.9145 18.8504 77.549 18.733 77.0717 18.733C76.5679 18.733 76.1683 18.8428 75.8729 19.0625C75.5812 19.2822 75.3842 19.5417 75.282 19.8409L73.3615 19.5682C73.513 19.0379 73.763 18.5947 74.1115 18.2386C74.46 17.8788 74.8861 17.6098 75.3899 17.4318C75.8937 17.25 76.4505 17.1591 77.0604 17.1591C77.4808 17.1591 77.8994 17.2083 78.3161 17.3068C78.7327 17.4053 79.1134 17.5682 79.4581 17.7955C79.8028 18.0189 80.0793 18.3239 80.2876 18.7102C80.4998 19.0966 80.6058 19.5795 80.6058 20.1591V26H78.6286V24.8011H78.5604C78.4354 25.0436 78.2592 25.2708 78.032 25.483C77.8085 25.6913 77.5263 25.8598 77.1854 25.9886C76.8482 26.1136 76.4524 26.1761 75.9979 26.1761ZM76.532 24.6648C76.9448 24.6648 77.3028 24.5833 77.6058 24.4205C77.9089 24.2538 78.1418 24.0341 78.3047 23.7614C78.4714 23.4886 78.5547 23.1913 78.5547 22.8693V21.8409C78.4903 21.8939 78.3804 21.9432 78.2251 21.9886C78.0736 22.0341 77.9032 22.0739 77.7138 22.108C77.5244 22.142 77.3369 22.1723 77.1513 22.1989C76.9657 22.2254 76.8047 22.2481 76.6683 22.267C76.3615 22.3087 76.0869 22.3769 75.8445 22.4716C75.602 22.5663 75.4107 22.6989 75.2706 22.8693C75.1304 23.036 75.0604 23.2519 75.0604 23.517C75.0604 23.8958 75.1986 24.1818 75.4751 24.375C75.7517 24.5682 76.1039 24.6648 76.532 24.6648ZM82.674 26V17.2727H84.6683V18.7273H84.7592C84.9183 18.2235 85.1911 17.8352 85.5774 17.5625C85.9676 17.286 86.4126 17.1477 86.9126 17.1477C87.0263 17.1477 87.1532 17.1534 87.2933 17.1648C87.4373 17.1723 87.5566 17.1856 87.6513 17.2045V19.0966C87.5642 19.0663 87.4259 19.0398 87.2365 19.017C87.0509 18.9905 86.871 18.9773 86.6967 18.9773C86.3217 18.9773 85.9846 19.0587 85.6854 19.2216C85.3899 19.3807 85.157 19.6023 84.9865 19.8864C84.8161 20.1705 84.7308 20.4981 84.7308 20.8693V26H82.674Z" fill="white"/>
</svg>
