<svg width="1256" height="919" viewBox="0 0 1256 919" fill="none" xmlns="http://www.w3.org/2000/svg">
<path d="M0 30C0 13.4315 13.4315 0 30 0H1047.01V611C1047.01 627.569 1033.58 641 1017.01 641H0V30Z" fill="#F39200"/>
<path d="M219.953 322.594C219.953 306.025 233.385 292.594 249.953 292.594H1256V888C1256 904.569 1242.57 918 1226 918H239.953C228.907 918 219.953 909.046 219.953 898V322.594Z" fill="#F39200"/>
<ellipse cx="293.608" cy="715" rx="30.5844" ry="30" fill="#F39200"/>
<path d="M1238.01 20.1451C1238.64 19.4356 1239.36 18.8174 1240.05 18.1604C1241.87 16.7645 1243.68 15.3563 1245.78 14.5026C1246.36 14.2536 1246.97 14.0708 1247.59 13.9572C1249.51 13.6473 1250.88 14.5367 1251.6 16.5066C1252.1 17.9653 1252.3 19.5122 1252.17 21.0332C1251.97 24.3645 1251.21 27.5206 1249.1 29.9701C1248.11 31.2034 1246.86 32.1589 1245.44 32.7588C1244.02 33.3588 1242.47 33.5861 1240.92 33.4223C1237.22 33.0514 1234.87 29.8912 1235.28 25.984C1235.56 23.7467 1236.51 21.6975 1238.01 20.1451Z" fill="#F39200"/>
<path d="M1223.79 11.5273C1224.35 7.70292 1226.33 4.93534 1229.75 3.50053C1232.92 2.15694 1236.48 2.0879 1239.77 3.30626C1240.36 3.52411 1240.93 3.82664 1241.45 4.20517C1242.1 4.60611 1242.61 5.24009 1242.86 5.98889C1243.12 6.73769 1243.12 7.55018 1242.85 8.27484C1242.3 9.91582 1241.41 11.3936 1240.24 12.5982C1239.4 13.5473 1238.48 14.44 1237.6 15.3617C1235.89 16.9596 1234 18.2407 1231.68 18.6497C1230.22 18.9607 1228.69 18.8016 1227.28 18.1927C1226.07 17.6556 1225.06 16.6965 1224.42 15.4802C1223.78 14.2639 1223.56 12.8663 1223.79 11.5273Z" fill="#F39200"/>
<path d="M1208.3 15.0566C1207.28 11.3401 1208.16 8.10554 1210.6 5.37577C1210.89 5.0894 1211.2 4.82068 1211.52 4.57085C1213.37 2.9044 1215.67 1.86308 1218.13 1.57777C1218.36 1.55368 1218.6 1.54514 1218.84 1.55219C1221.22 1.62847 1222.54 2.96476 1222.68 5.45448C1222.72 7.26423 1222.42 9.05434 1221.8 10.7223C1221.05 12.9345 1220.22 15.0986 1218.57 16.7908C1217.61 17.8311 1216.4 18.5861 1215.06 18.9833C1212.04 19.8577 1209.19 18.2461 1208.3 15.0566Z" fill="#F39200"/>
<path d="M1228.08 51.1678C1227.85 51.4285 1227.59 51.6603 1227.26 51.9868C1224.59 54.1202 1221.6 54.1774 1218.51 52.5499C1215.25 50.8277 1213.11 47.9866 1211.76 44.5111C1210.92 42.2693 1209.4 40.3568 1207.45 39.0696C1204.47 37.0779 1202.24 34.4077 1201.16 30.8344C1200.26 27.8411 1200.52 25.0101 1202.48 22.6078C1203.21 21.7157 1204.12 20.9981 1205.15 20.4994C1206.17 20.0008 1207.29 19.7317 1208.43 19.7088C1209.73 19.6478 1211.03 19.7452 1212.31 19.9991C1215.11 20.5749 1217.95 20.6697 1220.74 20.2799C1222.08 20.0703 1223.45 20.1519 1224.77 20.5199C1226.1 20.8878 1227.34 21.5342 1228.43 22.4191C1229.53 23.304 1230.44 24.4086 1231.12 25.6647C1231.8 26.9207 1232.23 28.3016 1232.39 29.7219C1232.61 31.557 1232.36 33.4051 1231.65 35.0694C1230.72 37.271 1230.35 39.7047 1230.58 42.1384C1230.94 45.1251 1230.23 48.1105 1228.61 50.5197C1228.45 50.7477 1228.27 50.9642 1228.08 51.1678Z" fill="#F39200"/>
<path d="M1245.65 46.8324C1242.6 49.3616 1239.48 49.995 1236.07 48.7346C1232.65 47.4741 1231.24 43.8798 1232.99 40.6694C1233.61 39.5466 1234.49 38.6014 1235.54 37.9153C1238.02 36.2622 1240.85 35.817 1243.73 35.6553C1244.76 35.6052 1245.8 35.7041 1246.81 35.949C1248.9 36.4407 1249.86 37.9576 1249.55 40.1567C1249.22 42.009 1248.42 43.7255 1247.22 45.1256C1246.64 45.8173 1246 46.4308 1245.65 46.8324Z" fill="#F39200"/>
<path d="M1170.01 24.0045C1170.64 23.295 1171.36 22.6768 1172.05 22.0198C1173.87 20.6238 1175.68 19.2157 1177.78 18.362C1178.36 18.113 1178.97 17.9302 1179.59 17.8165C1181.51 17.5067 1182.88 18.3961 1183.6 20.366C1184.1 21.8247 1184.3 23.3716 1184.17 24.8926C1183.97 28.2239 1183.21 31.38 1181.1 33.8295C1180.11 35.0627 1178.86 36.0183 1177.44 36.6182C1176.02 37.2181 1174.47 37.4455 1172.92 37.2817C1169.22 36.9108 1166.87 33.7506 1167.28 29.8434C1167.56 27.6061 1168.51 25.5569 1170.01 24.0045Z" fill="#F39200"/>
<path d="M1155.79 15.3866C1156.35 11.5623 1158.33 8.79471 1161.75 7.35991C1164.92 6.01631 1168.48 5.94727 1171.77 7.16563C1172.36 7.38349 1172.93 7.68601 1173.45 8.06455C1174.1 8.46549 1174.61 9.09947 1174.86 9.84827C1175.12 10.5971 1175.12 11.4096 1174.85 12.1342C1174.3 13.7752 1173.41 15.253 1172.24 16.4576C1171.4 17.4066 1170.48 18.2994 1169.6 19.2211C1167.89 20.819 1166 22.1001 1163.68 22.5091C1162.22 22.8201 1160.69 22.661 1159.28 22.0521C1158.07 21.5149 1157.06 20.5559 1156.42 19.3396C1155.78 18.1233 1155.56 16.7257 1155.79 15.3866Z" fill="#F39200"/>
<path d="M1140.3 18.916C1139.28 15.1995 1140.16 11.9649 1142.6 9.23514C1142.89 8.94877 1143.2 8.68005 1143.52 8.43023C1145.37 6.76377 1147.67 5.72245 1150.13 5.43714C1150.36 5.41306 1150.6 5.40452 1150.84 5.41157C1153.22 5.48784 1154.54 6.82414 1154.68 9.31385C1154.72 11.1236 1154.42 12.9137 1153.8 14.5817C1153.05 16.7938 1152.22 18.9579 1150.57 20.6502C1149.61 21.6905 1148.4 22.4455 1147.06 22.8426C1144.04 23.717 1141.19 22.1054 1140.3 18.916Z" fill="#F39200"/>
<path d="M1160.08 55.0272C1159.85 55.2879 1159.59 55.5197 1159.26 55.8461C1156.59 57.9796 1153.6 58.0368 1150.51 56.4093C1147.25 54.6871 1145.11 51.846 1143.76 48.3705C1142.92 46.1287 1141.4 44.2162 1139.45 42.929C1136.47 40.9373 1134.24 38.2671 1133.16 34.6937C1132.26 31.7005 1132.52 28.8695 1134.48 26.4671C1135.21 25.5751 1136.12 24.8575 1137.15 24.3588C1138.17 23.8601 1139.29 23.591 1140.43 23.5682C1141.73 23.5071 1143.03 23.6046 1144.31 23.8585C1147.11 24.4343 1149.95 24.5291 1152.74 24.1393C1154.08 23.9296 1155.45 24.0113 1156.77 24.3793C1158.1 24.7472 1159.34 25.3936 1160.43 26.2785C1161.53 27.1634 1162.44 28.268 1163.12 29.524C1163.8 30.7801 1164.23 32.1609 1164.39 33.5812C1164.61 35.4164 1164.36 37.2644 1163.65 38.9288C1162.72 41.1304 1162.35 43.5641 1162.58 45.9978C1162.94 48.9845 1162.23 51.9699 1160.61 54.3791C1160.45 54.6071 1160.27 54.8236 1160.08 55.0272Z" fill="#F39200"/>
<path d="M1177.65 50.6917C1174.6 53.221 1171.48 53.8544 1168.07 52.594C1164.65 51.3335 1163.24 47.7392 1164.99 44.5288C1165.61 43.4059 1166.49 42.4608 1167.54 41.7747C1170.02 40.1216 1172.85 39.6764 1175.73 39.5146C1176.76 39.4646 1177.8 39.5635 1178.81 39.8084C1180.9 40.3001 1181.86 41.817 1181.55 44.016C1181.22 45.8684 1180.42 47.5849 1179.22 48.9849C1178.64 49.6766 1178 50.2902 1177.65 50.6917Z" fill="#F39200"/>
<path d="M1101.09 22.0045C1101.72 21.295 1102.44 20.6768 1103.13 20.0198C1104.95 18.6238 1106.75 17.2157 1108.86 16.362C1109.44 16.113 1110.04 15.9302 1110.66 15.8165C1112.58 15.5067 1113.96 16.3961 1114.68 18.366C1115.18 19.8247 1115.38 21.3716 1115.25 22.8926C1115.05 26.2239 1114.28 29.38 1112.17 31.8295C1111.19 33.0627 1109.94 34.0183 1108.52 34.6182C1107.1 35.2181 1105.55 35.4455 1104 35.2817C1100.3 34.9108 1097.94 31.7506 1098.36 27.8434C1098.64 25.6061 1099.59 23.5569 1101.09 22.0045Z" fill="#F39200"/>
<path d="M1086.87 13.3866C1087.43 9.56229 1089.41 6.79471 1092.83 5.35991C1096 4.01631 1099.55 3.94727 1102.85 5.16563C1103.44 5.38349 1104 5.68601 1104.52 6.06455C1105.18 6.46549 1105.69 7.09947 1105.94 7.84827C1106.2 8.59706 1106.19 9.40955 1105.92 10.1342C1105.38 11.7752 1104.49 13.253 1103.31 14.4576C1102.48 15.4066 1101.56 16.2994 1100.68 17.2211C1098.96 18.819 1097.07 20.1001 1094.76 20.5091C1093.3 20.8201 1091.77 20.661 1090.36 20.0521C1089.15 19.5149 1088.14 18.5559 1087.5 17.3396C1086.86 16.1233 1086.64 14.7257 1086.87 13.3866Z" fill="#F39200"/>
<path d="M1071.38 16.916C1070.36 13.1995 1071.24 9.96491 1073.68 7.23514C1073.97 6.94877 1074.28 6.68005 1074.6 6.43023C1076.45 4.76377 1078.75 3.72245 1081.21 3.43714C1081.44 3.41306 1081.68 3.40452 1081.92 3.41157C1084.3 3.48784 1085.62 4.82414 1085.75 7.31385C1085.8 9.12361 1085.5 10.9137 1084.87 12.5817C1084.13 14.7938 1083.29 16.9579 1081.65 18.6502C1080.69 19.6905 1079.48 20.4455 1078.13 20.8426C1075.12 21.717 1072.27 20.1054 1071.38 16.916Z" fill="#F39200"/>
<path d="M1091.16 53.0272C1090.93 53.2879 1090.67 53.5197 1090.34 53.8461C1087.67 55.9796 1084.68 56.0368 1081.59 54.4093C1078.33 52.6871 1076.19 49.846 1074.83 46.3705C1073.99 44.1287 1072.48 42.2162 1070.53 40.929C1067.55 38.9373 1065.32 36.2671 1064.24 32.6937C1063.33 29.7005 1063.59 26.8695 1065.56 24.4671C1066.29 23.5751 1067.2 22.8575 1068.23 22.3588C1069.25 21.8601 1070.37 21.591 1071.51 21.5682C1072.81 21.5071 1074.11 21.6046 1075.39 21.8585C1078.18 22.4343 1081.03 22.5291 1083.82 22.1393C1085.16 21.9296 1086.53 22.0113 1087.85 22.3793C1089.18 22.7472 1090.42 23.3936 1091.51 24.2785C1092.6 25.1634 1093.52 26.268 1094.2 27.524C1094.88 28.7801 1095.31 30.1609 1095.47 31.5812C1095.69 33.4164 1095.43 35.2644 1094.73 36.9288C1093.8 39.1304 1093.43 41.5641 1093.65 43.9978C1094.01 46.9845 1093.31 49.9699 1091.68 52.3791C1091.52 52.6071 1091.35 52.8236 1091.16 53.0272Z" fill="#F39200"/>
<path d="M1108.72 48.6917C1105.68 51.221 1102.55 51.8544 1099.14 50.594C1095.73 49.3335 1094.32 45.7392 1096.07 42.5288C1096.69 41.4059 1097.56 40.4608 1098.62 39.7747C1101.1 38.1216 1103.93 37.6764 1106.81 37.5146C1107.84 37.4646 1108.88 37.5635 1109.89 37.8084C1111.98 38.3001 1112.94 39.817 1112.63 42.016C1112.3 43.8684 1111.5 45.5849 1110.29 46.9849C1109.71 47.6766 1109.08 48.2902 1108.72 48.6917Z" fill="#F39200"/>
<path d="M1238.01 95.4772C1238.64 94.7676 1239.36 94.1494 1240.05 93.4925C1241.87 92.0965 1243.68 90.6883 1245.78 89.8347C1246.36 89.5856 1246.97 89.4028 1247.59 89.2892C1249.51 88.9793 1250.88 89.8688 1251.6 91.8387C1252.1 93.2974 1252.3 94.8442 1252.17 96.3652C1251.97 99.6966 1251.21 102.853 1249.1 105.302C1248.11 106.535 1246.86 107.491 1245.44 108.091C1244.02 108.691 1242.47 108.918 1240.92 108.754C1237.22 108.383 1234.87 105.223 1235.28 101.316C1235.56 99.0788 1236.51 97.0296 1238.01 95.4772Z" fill="#F39200"/>
<path d="M1223.79 86.8593C1224.35 83.0349 1226.33 80.2674 1229.75 78.8326C1232.92 77.489 1236.48 77.4199 1239.77 78.6383C1240.36 78.8561 1240.93 79.1587 1241.45 79.5372C1242.1 79.9381 1242.61 80.5721 1242.86 81.3209C1243.12 82.0697 1243.12 82.8822 1242.85 83.6069C1242.3 85.2479 1241.41 86.7257 1240.24 87.9303C1239.4 88.8793 1238.48 89.7721 1237.6 90.6938C1235.89 92.2916 1234 93.5728 1231.68 93.9818C1230.22 94.2927 1228.69 94.1336 1227.28 93.5248C1226.07 92.9876 1225.06 92.0285 1224.42 90.8123C1223.78 89.596 1223.56 88.1983 1223.79 86.8593Z" fill="#F39200"/>
<path d="M1208.3 90.3886C1207.28 86.6721 1208.16 83.4376 1210.6 80.7078C1210.89 80.4214 1211.2 80.1527 1211.52 79.9029C1213.37 78.2364 1215.67 77.1951 1218.13 76.9098C1218.36 76.8857 1218.6 76.8772 1218.84 76.8842C1221.22 76.9605 1222.54 78.2968 1222.68 80.7865C1222.72 82.5963 1222.42 84.3864 1221.8 86.0543C1221.05 88.2665 1220.22 90.4306 1218.57 92.1229C1217.61 93.1631 1216.4 93.9182 1215.06 94.3153C1212.04 95.1897 1209.19 93.5781 1208.3 90.3886Z" fill="#F39200"/>
<path d="M1228.08 126.5C1227.85 126.761 1227.59 126.992 1227.26 127.319C1224.59 129.452 1221.6 129.509 1218.51 127.882C1215.25 126.16 1213.11 123.319 1211.76 119.843C1210.92 117.601 1209.4 115.689 1207.45 114.402C1204.47 112.41 1202.24 109.74 1201.16 106.166C1200.26 103.173 1200.52 100.342 1202.48 97.9398C1203.21 97.0478 1204.12 96.3301 1205.15 95.8315C1206.17 95.3328 1207.29 95.0637 1208.43 95.0408C1209.73 94.9798 1211.03 95.0772 1212.31 95.3312C1215.11 95.9069 1217.95 96.0018 1220.74 95.6119C1222.08 95.4023 1223.45 95.484 1224.77 95.8519C1226.1 96.2199 1227.34 96.8662 1228.43 97.7511C1229.53 98.636 1230.44 99.7406 1231.12 100.997C1231.8 102.253 1232.23 103.634 1232.39 105.054C1232.61 106.889 1232.36 108.737 1231.65 110.401C1230.72 112.603 1230.35 115.037 1230.58 117.47C1230.94 120.457 1230.23 123.443 1228.61 125.852C1228.45 126.08 1228.27 126.296 1228.08 126.5Z" fill="#F39200"/>
<path d="M1245.65 122.164C1242.6 124.694 1239.48 125.327 1236.07 124.067C1232.65 122.806 1231.24 119.212 1232.99 116.001C1233.61 114.879 1234.49 113.933 1235.54 113.247C1238.02 111.594 1240.85 111.149 1243.73 110.987C1244.76 110.937 1245.8 111.036 1246.81 111.281C1248.9 111.773 1249.86 113.29 1249.55 115.489C1249.22 117.341 1248.42 119.058 1247.22 120.458C1246.64 121.149 1246 121.763 1245.65 122.164Z" fill="#F39200"/>
<path d="M1167.01 98.4772C1167.64 97.7676 1168.36 97.1494 1169.05 96.4925C1170.87 95.0965 1172.68 93.6883 1174.78 92.8347C1175.36 92.5856 1175.97 92.4028 1176.59 92.2892C1178.51 91.9793 1179.88 92.8688 1180.6 94.8387C1181.1 96.2974 1181.3 97.8442 1181.17 99.3652C1180.97 102.697 1180.21 105.853 1178.1 108.302C1177.11 109.535 1175.86 110.491 1174.44 111.091C1173.02 111.691 1171.47 111.918 1169.92 111.754C1166.22 111.383 1163.87 108.223 1164.28 104.316C1164.56 102.079 1165.51 100.03 1167.01 98.4772Z" fill="#F39200"/>
<path d="M1152.79 89.8593C1153.35 86.0349 1155.33 83.2674 1158.75 81.8326C1161.92 80.489 1165.48 80.4199 1168.77 81.6383C1169.36 81.8561 1169.93 82.1587 1170.45 82.5372C1171.1 82.9381 1171.61 83.5721 1171.86 84.3209C1172.12 85.0697 1172.12 85.8822 1171.85 86.6069C1171.3 88.2479 1170.41 89.7257 1169.24 90.9303C1168.4 91.8793 1167.48 92.7721 1166.6 93.6938C1164.89 95.2916 1163 96.5728 1160.68 96.9818C1159.22 97.2927 1157.69 97.1336 1156.28 96.5248C1155.07 95.9876 1154.06 95.0285 1153.42 93.8123C1152.78 92.596 1152.56 91.1983 1152.79 89.8593Z" fill="#F39200"/>
<path d="M1137.3 93.3886C1136.28 89.6721 1137.16 86.4376 1139.6 83.7078C1139.89 83.4214 1140.2 83.1527 1140.52 82.9029C1142.37 81.2364 1144.67 80.1951 1147.13 79.9098C1147.36 79.8857 1147.6 79.8772 1147.84 79.8842C1150.22 79.9605 1151.54 81.2968 1151.68 83.7865C1151.72 85.5963 1151.42 87.3864 1150.8 89.0543C1150.05 91.2665 1149.22 93.4306 1147.57 95.1229C1146.61 96.1631 1145.4 96.9182 1144.06 97.3153C1141.04 98.1897 1138.19 96.5781 1137.3 93.3886Z" fill="#F39200"/>
<path d="M1157.08 129.5C1156.85 129.761 1156.59 129.992 1156.26 130.319C1153.59 132.452 1150.6 132.509 1147.51 130.882C1144.25 129.16 1142.11 126.319 1140.76 122.843C1139.92 120.601 1138.4 118.689 1136.45 117.402C1133.47 115.41 1131.24 112.74 1130.16 109.166C1129.26 106.173 1129.52 103.342 1131.48 100.94C1132.21 100.048 1133.12 99.3301 1134.15 98.8315C1135.17 98.3328 1136.29 98.0637 1137.43 98.0408C1138.73 97.9798 1140.03 98.0772 1141.31 98.3312C1144.11 98.9069 1146.95 99.0018 1149.74 98.6119C1151.08 98.4023 1152.45 98.484 1153.77 98.8519C1155.1 99.2199 1156.34 99.8662 1157.43 100.751C1158.53 101.636 1159.44 102.741 1160.12 103.997C1160.8 105.253 1161.23 106.634 1161.39 108.054C1161.61 109.889 1161.36 111.737 1160.65 113.401C1159.72 115.603 1159.35 118.037 1159.58 120.47C1159.94 123.457 1159.23 126.443 1157.61 128.852C1157.45 129.08 1157.27 129.296 1157.08 129.5Z" fill="#F39200"/>
<path d="M1174.65 125.164C1171.6 127.694 1168.48 128.327 1165.07 127.067C1161.65 125.806 1160.24 122.212 1161.99 119.001C1162.61 117.879 1163.49 116.933 1164.54 116.247C1167.02 114.594 1169.85 114.149 1172.73 113.987C1173.76 113.937 1174.8 114.036 1175.81 114.281C1177.9 114.773 1178.86 116.29 1178.55 118.489C1178.22 120.341 1177.42 122.058 1176.22 123.458C1175.64 124.149 1175 124.763 1174.65 125.164Z" fill="#F39200"/>
<path d="M1096.01 98.4772C1096.65 97.7676 1097.37 97.1494 1098.05 96.4925C1099.88 95.0965 1101.68 93.6883 1103.79 92.8347C1104.37 92.5856 1104.97 92.4028 1105.59 92.2892C1107.51 91.9793 1108.89 92.8688 1109.61 94.8387C1110.11 96.2974 1110.3 97.8442 1110.18 99.3652C1109.98 102.697 1109.21 105.853 1107.1 108.302C1106.12 109.535 1104.87 110.491 1103.45 111.091C1102.03 111.691 1100.48 111.918 1098.93 111.754C1095.23 111.383 1092.87 108.223 1093.29 104.316C1093.57 102.079 1094.52 100.03 1096.01 98.4772Z" fill="#F39200"/>
<path d="M1081.8 89.8593C1082.36 86.0349 1084.34 83.2674 1087.76 81.8326C1090.93 80.489 1094.48 80.4199 1097.78 81.6383C1098.37 81.8561 1098.93 82.1587 1099.45 82.5372C1100.11 82.9381 1100.61 83.5721 1100.87 84.3209C1101.13 85.0697 1101.12 85.8822 1100.85 86.6069C1100.31 88.2479 1099.42 89.7257 1098.24 90.9303C1097.41 91.8793 1096.49 92.7721 1095.61 93.6938C1093.89 95.2916 1092 96.5728 1089.69 96.9818C1088.23 97.2927 1086.7 97.1336 1085.29 96.5248C1084.08 95.9876 1083.07 95.0285 1082.43 93.8123C1081.79 92.596 1081.57 91.1983 1081.8 89.8593Z" fill="#F39200"/>
<path d="M1066.31 93.3886C1065.29 89.6721 1066.17 86.4376 1068.61 83.7078C1068.9 83.4214 1069.21 83.1527 1069.53 82.9029C1071.38 81.2364 1073.68 80.1951 1076.14 79.9098C1076.37 79.8857 1076.61 79.8772 1076.85 79.8842C1079.23 79.9605 1080.55 81.2968 1080.68 83.7865C1080.73 85.5963 1080.43 87.3864 1079.8 89.0543C1079.06 91.2665 1078.22 93.4306 1076.58 95.1229C1075.62 96.1631 1074.41 96.9182 1073.06 97.3153C1070.05 98.1897 1067.2 96.5781 1066.31 93.3886Z" fill="#F39200"/>
<path d="M1086.09 129.5C1085.86 129.761 1085.6 129.992 1085.27 130.319C1082.6 132.452 1079.61 132.509 1076.52 130.882C1073.26 129.16 1071.12 126.319 1069.76 122.843C1068.92 120.601 1067.41 118.689 1065.46 117.402C1062.48 115.41 1060.24 112.74 1059.17 109.166C1058.26 106.173 1058.52 103.342 1060.49 100.94C1061.22 100.048 1062.13 99.3301 1063.16 98.8315C1064.18 98.3328 1065.3 98.0637 1066.44 98.0408C1067.73 97.9798 1069.04 98.0772 1070.32 98.3312C1073.11 98.9069 1075.96 99.0018 1078.75 98.6119C1080.09 98.4023 1081.46 98.484 1082.78 98.8519C1084.11 99.2199 1085.35 99.8662 1086.44 100.751C1087.53 101.636 1088.45 102.741 1089.13 103.997C1089.81 105.253 1090.24 106.634 1090.4 108.054C1090.62 109.889 1090.36 111.737 1089.66 113.401C1088.73 115.603 1088.36 118.037 1088.58 120.47C1088.94 123.457 1088.24 126.443 1086.61 128.852C1086.45 129.08 1086.28 129.296 1086.09 129.5Z" fill="#F39200"/>
<path d="M1103.65 125.164C1100.6 127.694 1097.48 128.327 1094.07 127.067C1090.66 125.806 1089.25 122.212 1091 119.001C1091.62 117.879 1092.49 116.933 1093.55 116.247C1096.03 114.594 1098.86 114.149 1101.74 113.987C1102.77 113.937 1103.81 114.036 1104.82 114.281C1106.91 114.773 1107.87 116.29 1107.56 118.489C1107.23 120.341 1106.43 122.058 1105.22 123.458C1104.64 124.149 1104.01 124.763 1103.65 125.164Z" fill="#F39200"/>
<path d="M1238.01 170.477C1238.64 169.768 1239.36 169.149 1240.05 168.492C1241.87 167.096 1243.68 165.688 1245.78 164.835C1246.36 164.586 1246.97 164.403 1247.59 164.289C1249.51 163.979 1250.88 164.869 1251.6 166.839C1252.1 168.297 1252.3 169.844 1252.17 171.365C1251.97 174.697 1251.21 177.853 1249.1 180.302C1248.11 181.535 1246.86 182.491 1245.44 183.091C1244.02 183.691 1242.47 183.918 1240.92 183.754C1237.22 183.383 1234.87 180.223 1235.28 176.316C1235.56 174.079 1236.51 172.03 1238.01 170.477Z" fill="#F39200"/>
<path d="M1223.79 161.859C1224.35 158.035 1226.33 155.267 1229.75 153.833C1232.92 152.489 1236.48 152.42 1239.77 153.638C1240.36 153.856 1240.93 154.159 1241.45 154.537C1242.1 154.938 1242.61 155.572 1242.86 156.321C1243.12 157.07 1243.12 157.882 1242.85 158.607C1242.3 160.248 1241.41 161.726 1240.24 162.93C1239.4 163.879 1238.48 164.772 1237.6 165.694C1235.89 167.292 1234 168.573 1231.68 168.982C1230.22 169.293 1228.69 169.134 1227.28 168.525C1226.07 167.988 1225.06 167.029 1224.42 165.812C1223.78 164.596 1223.56 163.198 1223.79 161.859Z" fill="#F39200"/>
<path d="M1208.3 165.389C1207.28 161.672 1208.16 158.438 1210.6 155.708C1210.89 155.421 1211.2 155.153 1211.52 154.903C1213.37 153.236 1215.67 152.195 1218.13 151.91C1218.36 151.886 1218.6 151.877 1218.84 151.884C1221.22 151.96 1222.54 153.297 1222.68 155.787C1222.72 157.596 1222.42 159.386 1221.8 161.054C1221.05 163.266 1220.22 165.431 1218.57 167.123C1217.61 168.163 1216.4 168.918 1215.06 169.315C1212.04 170.19 1209.19 168.578 1208.3 165.389Z" fill="#F39200"/>
<path d="M1228.08 201.5C1227.85 201.761 1227.59 201.992 1227.26 202.319C1224.59 204.452 1221.6 204.509 1218.51 202.882C1215.25 201.16 1213.11 198.319 1211.76 194.843C1210.92 192.601 1209.4 190.689 1207.45 189.402C1204.47 187.41 1202.24 184.74 1201.16 181.166C1200.26 178.173 1200.52 175.342 1202.48 172.94C1203.21 172.048 1204.12 171.33 1205.15 170.831C1206.17 170.333 1207.29 170.064 1208.43 170.041C1209.73 169.98 1211.03 170.077 1212.31 170.331C1215.11 170.907 1217.95 171.002 1220.74 170.612C1222.08 170.402 1223.45 170.484 1224.77 170.852C1226.1 171.22 1227.34 171.866 1228.43 172.751C1229.53 173.636 1230.44 174.741 1231.12 175.997C1231.8 177.253 1232.23 178.634 1232.39 180.054C1232.61 181.889 1232.36 183.737 1231.65 185.401C1230.72 187.603 1230.35 190.037 1230.58 192.47C1230.94 195.457 1230.23 198.443 1228.61 200.852C1228.45 201.08 1228.27 201.296 1228.08 201.5Z" fill="#F39200"/>
<path d="M1245.65 197.164C1242.6 199.694 1239.48 200.327 1236.07 199.067C1232.65 197.806 1231.24 194.212 1232.99 191.001C1233.61 189.879 1234.49 188.933 1235.54 188.247C1238.02 186.594 1240.85 186.149 1243.73 185.987C1244.76 185.937 1245.8 186.036 1246.81 186.281C1248.9 186.773 1249.86 188.29 1249.55 190.489C1249.22 192.341 1248.42 194.058 1247.22 195.458C1246.64 196.149 1246 196.763 1245.65 197.164Z" fill="#F39200"/>
<path d="M1165.01 172.477C1165.64 171.768 1166.36 171.149 1167.05 170.492C1168.87 169.096 1170.68 167.688 1172.78 166.835C1173.36 166.586 1173.97 166.403 1174.59 166.289C1176.51 165.979 1177.88 166.869 1178.6 168.839C1179.1 170.297 1179.3 171.844 1179.17 173.365C1178.97 176.697 1178.21 179.853 1176.1 182.302C1175.11 183.535 1173.86 184.491 1172.44 185.091C1171.02 185.691 1169.47 185.918 1167.92 185.754C1164.22 185.383 1161.87 182.223 1162.28 178.316C1162.56 176.079 1163.51 174.03 1165.01 172.477Z" fill="#F39200"/>
<path d="M1150.79 163.859C1151.35 160.035 1153.33 157.267 1156.75 155.833C1159.92 154.489 1163.48 154.42 1166.77 155.638C1167.36 155.856 1167.93 156.159 1168.45 156.537C1169.1 156.938 1169.61 157.572 1169.86 158.321C1170.12 159.07 1170.12 159.882 1169.85 160.607C1169.3 162.248 1168.41 163.726 1167.24 164.93C1166.4 165.879 1165.48 166.772 1164.6 167.694C1162.89 169.292 1161 170.573 1158.68 170.982C1157.22 171.293 1155.69 171.134 1154.28 170.525C1153.07 169.988 1152.06 169.029 1151.42 167.812C1150.78 166.596 1150.56 165.198 1150.79 163.859Z" fill="#F39200"/>
<path d="M1135.3 167.389C1134.28 163.672 1135.16 160.438 1137.6 157.708C1137.89 157.421 1138.2 157.153 1138.52 156.903C1140.37 155.236 1142.67 154.195 1145.13 153.91C1145.36 153.886 1145.6 153.877 1145.84 153.884C1148.22 153.96 1149.54 155.297 1149.68 157.787C1149.72 159.596 1149.42 161.386 1148.8 163.054C1148.05 165.266 1147.22 167.431 1145.57 169.123C1144.61 170.163 1143.4 170.918 1142.06 171.315C1139.04 172.19 1136.19 170.578 1135.3 167.389Z" fill="#F39200"/>
<path d="M1155.08 203.5C1154.85 203.761 1154.59 203.992 1154.26 204.319C1151.59 206.452 1148.6 206.509 1145.51 204.882C1142.25 203.16 1140.11 200.319 1138.76 196.843C1137.92 194.601 1136.4 192.689 1134.45 191.402C1131.47 189.41 1129.24 186.74 1128.16 183.166C1127.26 180.173 1127.52 177.342 1129.48 174.94C1130.21 174.048 1131.12 173.33 1132.15 172.831C1133.17 172.333 1134.29 172.064 1135.43 172.041C1136.73 171.98 1138.03 172.077 1139.31 172.331C1142.11 172.907 1144.95 173.002 1147.74 172.612C1149.08 172.402 1150.45 172.484 1151.77 172.852C1153.1 173.22 1154.34 173.866 1155.43 174.751C1156.53 175.636 1157.44 176.741 1158.12 177.997C1158.8 179.253 1159.23 180.634 1159.39 182.054C1159.61 183.889 1159.36 185.737 1158.65 187.401C1157.72 189.603 1157.35 192.037 1157.58 194.47C1157.94 197.457 1157.23 200.443 1155.61 202.852C1155.45 203.08 1155.27 203.296 1155.08 203.5Z" fill="#F39200"/>
<path d="M1172.65 199.164C1169.6 201.694 1166.48 202.327 1163.07 201.067C1159.65 199.806 1158.24 196.212 1159.99 193.001C1160.61 191.879 1161.49 190.933 1162.54 190.247C1165.02 188.594 1167.85 188.149 1170.73 187.987C1171.76 187.937 1172.8 188.036 1173.81 188.281C1175.9 188.773 1176.86 190.29 1176.55 192.489C1176.22 194.341 1175.42 196.058 1174.22 197.458C1173.64 198.149 1173 198.763 1172.65 199.164Z" fill="#F39200"/>
<path d="M1091.41 174.477C1092.04 173.768 1092.76 173.149 1093.45 172.492C1095.27 171.096 1097.07 169.688 1099.18 168.835C1099.76 168.586 1100.37 168.403 1100.98 168.289C1102.9 167.979 1104.28 168.869 1105 170.839C1105.5 172.297 1105.7 173.844 1105.57 175.365C1105.37 178.697 1104.6 181.853 1102.49 184.302C1101.51 185.535 1100.26 186.491 1098.84 187.091C1097.42 187.691 1095.87 187.918 1094.32 187.754C1090.62 187.383 1088.26 184.223 1088.68 180.316C1088.96 178.079 1089.91 176.03 1091.41 174.477Z" fill="#F39200"/>
<path d="M1077.19 165.859C1077.75 162.035 1079.73 159.267 1083.15 157.833C1086.32 156.489 1089.88 156.42 1093.17 157.638C1093.76 157.856 1094.33 158.159 1094.84 158.537C1095.5 158.938 1096.01 159.572 1096.26 160.321C1096.52 161.07 1096.51 161.882 1096.24 162.607C1095.7 164.248 1094.81 165.726 1093.63 166.93C1092.8 167.879 1091.88 168.772 1091 169.694C1089.29 171.292 1087.39 172.573 1085.08 172.982C1083.62 173.293 1082.09 173.134 1080.68 172.525C1079.47 171.988 1078.46 171.029 1077.82 169.812C1077.18 168.596 1076.96 167.198 1077.19 165.859Z" fill="#F39200"/>
<path d="M1061.7 169.389C1060.68 165.672 1061.56 162.438 1064 159.708C1064.29 159.421 1064.6 159.153 1064.92 158.903C1066.77 157.236 1069.07 156.195 1071.53 155.91C1071.76 155.886 1072 155.877 1072.24 155.884C1074.62 155.96 1075.94 157.297 1076.07 159.787C1076.12 161.596 1075.82 163.386 1075.19 165.054C1074.45 167.266 1073.61 169.431 1071.97 171.123C1071.01 172.163 1069.8 172.918 1068.45 173.315C1065.44 174.19 1062.59 172.578 1061.7 169.389Z" fill="#F39200"/>
<path d="M1081.48 205.5C1081.25 205.761 1080.99 205.992 1080.66 206.319C1077.99 208.452 1075 208.509 1071.91 206.882C1068.65 205.16 1066.51 202.319 1065.15 198.843C1064.31 196.601 1062.8 194.689 1060.85 193.402C1057.87 191.41 1055.64 188.74 1054.56 185.166C1053.65 182.173 1053.91 179.342 1055.88 176.94C1056.61 176.048 1057.52 175.33 1058.55 174.831C1059.57 174.333 1060.69 174.064 1061.83 174.041C1063.13 173.98 1064.43 174.077 1065.71 174.331C1068.5 174.907 1071.35 175.002 1074.14 174.612C1075.48 174.402 1076.85 174.484 1078.17 174.852C1079.5 175.22 1080.74 175.866 1081.83 176.751C1082.92 177.636 1083.84 178.741 1084.52 179.997C1085.2 181.253 1085.63 182.634 1085.79 184.054C1086.01 185.889 1085.75 187.737 1085.05 189.401C1084.12 191.603 1083.75 194.037 1083.97 196.47C1084.33 199.457 1083.63 202.443 1082 204.852C1081.84 205.08 1081.67 205.296 1081.48 205.5Z" fill="#F39200"/>
<path d="M1099.04 201.164C1096 203.694 1092.88 204.327 1089.46 203.067C1086.05 201.806 1084.64 198.212 1086.39 195.001C1087.01 193.879 1087.88 192.933 1088.94 192.247C1091.42 190.594 1094.25 190.149 1097.13 189.987C1098.16 189.937 1099.2 190.036 1100.21 190.281C1102.3 190.773 1103.26 192.29 1102.95 194.489C1102.62 196.341 1101.82 198.058 1100.61 199.458C1100.03 200.149 1099.4 200.763 1099.04 201.164Z" fill="#F39200"/>
<path d="M1234.01 245.477C1234.64 244.768 1235.36 244.149 1236.05 243.492C1237.87 242.096 1239.68 240.688 1241.78 239.835C1242.36 239.586 1242.97 239.403 1243.59 239.289C1245.51 238.979 1246.88 239.869 1247.6 241.839C1248.1 243.297 1248.3 244.844 1248.17 246.365C1247.97 249.697 1247.21 252.853 1245.1 255.302C1244.11 256.535 1242.86 257.491 1241.44 258.091C1240.02 258.691 1238.47 258.918 1236.92 258.754C1233.22 258.383 1230.87 255.223 1231.28 251.316C1231.56 249.079 1232.51 247.03 1234.01 245.477Z" fill="#F39200"/>
<path d="M1219.79 236.859C1220.35 233.035 1222.33 230.267 1225.75 228.833C1228.92 227.489 1232.48 227.42 1235.77 228.638C1236.36 228.856 1236.93 229.159 1237.45 229.537C1238.1 229.938 1238.61 230.572 1238.86 231.321C1239.12 232.07 1239.12 232.882 1238.85 233.607C1238.3 235.248 1237.41 236.726 1236.24 237.93C1235.4 238.879 1234.48 239.772 1233.6 240.694C1231.89 242.292 1230 243.573 1227.68 243.982C1226.22 244.293 1224.69 244.134 1223.28 243.525C1222.07 242.988 1221.06 242.029 1220.42 240.812C1219.78 239.596 1219.56 238.198 1219.79 236.859Z" fill="#F39200"/>
<path d="M1204.3 240.389C1203.28 236.672 1204.16 233.438 1206.6 230.708C1206.89 230.421 1207.2 230.153 1207.52 229.903C1209.37 228.236 1211.67 227.195 1214.13 226.91C1214.36 226.886 1214.6 226.877 1214.84 226.884C1217.22 226.96 1218.54 228.297 1218.68 230.787C1218.72 232.596 1218.42 234.386 1217.8 236.054C1217.05 238.266 1216.22 240.431 1214.57 242.123C1213.61 243.163 1212.4 243.918 1211.06 244.315C1208.04 245.19 1205.19 243.578 1204.3 240.389Z" fill="#F39200"/>
<path d="M1224.08 276.5C1223.85 276.761 1223.59 276.992 1223.26 277.319C1220.59 279.452 1217.6 279.509 1214.51 277.882C1211.25 276.16 1209.11 273.319 1207.76 269.843C1206.92 267.601 1205.4 265.689 1203.45 264.402C1200.47 262.41 1198.24 259.74 1197.16 256.166C1196.26 253.173 1196.52 250.342 1198.48 247.94C1199.21 247.048 1200.12 246.33 1201.15 245.831C1202.17 245.333 1203.29 245.064 1204.43 245.041C1205.73 244.98 1207.03 245.077 1208.31 245.331C1211.11 245.907 1213.95 246.002 1216.74 245.612C1218.08 245.402 1219.45 245.484 1220.77 245.852C1222.1 246.22 1223.34 246.866 1224.43 247.751C1225.53 248.636 1226.44 249.741 1227.12 250.997C1227.8 252.253 1228.23 253.634 1228.39 255.054C1228.61 256.889 1228.36 258.737 1227.65 260.401C1226.72 262.603 1226.35 265.037 1226.58 267.47C1226.94 270.457 1226.23 273.443 1224.61 275.852C1224.45 276.08 1224.27 276.296 1224.08 276.5Z" fill="#F39200"/>
<path d="M1241.65 272.164C1238.6 274.694 1235.48 275.327 1232.07 274.067C1228.65 272.806 1227.24 269.212 1228.99 266.001C1229.61 264.879 1230.49 263.933 1231.54 263.247C1234.02 261.594 1236.85 261.149 1239.73 260.987C1240.76 260.937 1241.8 261.036 1242.81 261.281C1244.9 261.773 1245.86 263.29 1245.55 265.489C1245.22 267.341 1244.42 269.058 1243.22 270.458C1242.64 271.149 1242 271.763 1241.65 272.164Z" fill="#F39200"/>
<path d="M1163.01 246.477C1163.64 245.768 1164.36 245.149 1165.05 244.492C1166.87 243.096 1168.68 241.688 1170.78 240.835C1171.36 240.586 1171.97 240.403 1172.59 240.289C1174.51 239.979 1175.88 240.869 1176.6 242.839C1177.1 244.297 1177.3 245.844 1177.17 247.365C1176.97 250.697 1176.21 253.853 1174.1 256.302C1173.11 257.535 1171.86 258.491 1170.44 259.091C1169.02 259.691 1167.47 259.918 1165.92 259.754C1162.22 259.383 1159.87 256.223 1160.28 252.316C1160.56 250.079 1161.51 248.03 1163.01 246.477Z" fill="#F39200"/>
<path d="M1148.79 237.859C1149.35 234.035 1151.33 231.267 1154.75 229.833C1157.92 228.489 1161.48 228.42 1164.77 229.638C1165.36 229.856 1165.93 230.159 1166.45 230.537C1167.1 230.938 1167.61 231.572 1167.86 232.321C1168.12 233.07 1168.12 233.882 1167.85 234.607C1167.3 236.248 1166.41 237.726 1165.24 238.93C1164.4 239.879 1163.48 240.772 1162.6 241.694C1160.89 243.292 1159 244.573 1156.68 244.982C1155.22 245.293 1153.69 245.134 1152.28 244.525C1151.07 243.988 1150.06 243.029 1149.42 241.812C1148.78 240.596 1148.56 239.198 1148.79 237.859Z" fill="#F39200"/>
<path d="M1133.3 241.389C1132.28 237.672 1133.16 234.438 1135.6 231.708C1135.89 231.421 1136.2 231.153 1136.52 230.903C1138.37 229.236 1140.67 228.195 1143.13 227.91C1143.36 227.886 1143.6 227.877 1143.84 227.884C1146.22 227.96 1147.54 229.297 1147.68 231.787C1147.72 233.596 1147.42 235.386 1146.8 237.054C1146.05 239.266 1145.22 241.431 1143.57 243.123C1142.61 244.163 1141.4 244.918 1140.06 245.315C1137.04 246.19 1134.19 244.578 1133.3 241.389Z" fill="#F39200"/>
<path d="M1153.08 277.5C1152.85 277.761 1152.59 277.992 1152.26 278.319C1149.59 280.452 1146.6 280.509 1143.51 278.882C1140.25 277.16 1138.11 274.319 1136.76 270.843C1135.92 268.601 1134.4 266.689 1132.45 265.402C1129.47 263.41 1127.24 260.74 1126.16 257.166C1125.26 254.173 1125.52 251.342 1127.48 248.94C1128.21 248.048 1129.12 247.33 1130.15 246.831C1131.17 246.333 1132.29 246.064 1133.43 246.041C1134.73 245.98 1136.03 246.077 1137.31 246.331C1140.11 246.907 1142.95 247.002 1145.74 246.612C1147.08 246.402 1148.45 246.484 1149.77 246.852C1151.1 247.22 1152.34 247.866 1153.43 248.751C1154.53 249.636 1155.44 250.741 1156.12 251.997C1156.8 253.253 1157.23 254.634 1157.39 256.054C1157.61 257.889 1157.36 259.737 1156.65 261.401C1155.72 263.603 1155.35 266.037 1155.58 268.47C1155.94 271.457 1155.23 274.443 1153.61 276.852C1153.45 277.08 1153.27 277.296 1153.08 277.5Z" fill="#F39200"/>
<path d="M1170.65 273.164C1167.6 275.694 1164.48 276.327 1161.07 275.067C1157.65 273.806 1156.24 270.212 1157.99 267.001C1158.61 265.879 1159.49 264.933 1160.54 264.247C1163.02 262.594 1165.85 262.149 1168.73 261.987C1169.76 261.937 1170.8 262.036 1171.81 262.281C1173.9 262.773 1174.86 264.29 1174.55 266.489C1174.22 268.341 1173.42 270.058 1172.22 271.458C1171.64 272.149 1171 272.763 1170.65 273.164Z" fill="#F39200"/>
<path d="M1092.01 250.477C1092.65 249.768 1093.37 249.149 1094.05 248.492C1095.88 247.096 1097.68 245.688 1099.79 244.835C1100.37 244.586 1100.97 244.403 1101.59 244.289C1103.51 243.979 1104.89 244.869 1105.61 246.839C1106.11 248.297 1106.3 249.844 1106.18 251.365C1105.98 254.697 1105.21 257.853 1103.1 260.302C1102.12 261.535 1100.87 262.491 1099.45 263.091C1098.03 263.691 1096.48 263.918 1094.93 263.754C1091.23 263.383 1088.87 260.223 1089.29 256.316C1089.57 254.079 1090.52 252.03 1092.01 250.477Z" fill="#F39200"/>
<path d="M1077.8 241.859C1078.36 238.035 1080.34 235.267 1083.76 233.833C1086.93 232.489 1090.48 232.42 1093.78 233.638C1094.37 233.856 1094.93 234.159 1095.45 234.537C1096.11 234.938 1096.61 235.572 1096.87 236.321C1097.13 237.07 1097.12 237.882 1096.85 238.607C1096.31 240.248 1095.42 241.726 1094.24 242.93C1093.41 243.879 1092.49 244.772 1091.61 245.694C1089.89 247.292 1088 248.573 1085.69 248.982C1084.23 249.293 1082.7 249.134 1081.29 248.525C1080.08 247.988 1079.07 247.029 1078.43 245.812C1077.79 244.596 1077.57 243.198 1077.8 241.859Z" fill="#F39200"/>
<path d="M1062.31 245.389C1061.29 241.672 1062.17 238.438 1064.61 235.708C1064.9 235.421 1065.21 235.153 1065.53 234.903C1067.38 233.236 1069.68 232.195 1072.14 231.91C1072.37 231.886 1072.61 231.877 1072.85 231.884C1075.23 231.96 1076.55 233.297 1076.68 235.787C1076.73 237.596 1076.43 239.386 1075.8 241.054C1075.06 243.266 1074.22 245.431 1072.58 247.123C1071.62 248.163 1070.41 248.918 1069.06 249.315C1066.05 250.19 1063.2 248.578 1062.31 245.389Z" fill="#F39200"/>
<path d="M1082.09 281.5C1081.86 281.761 1081.6 281.992 1081.27 282.319C1078.6 284.452 1075.61 284.509 1072.52 282.882C1069.26 281.16 1067.12 278.319 1065.76 274.843C1064.92 272.601 1063.41 270.689 1061.46 269.402C1058.48 267.41 1056.24 264.74 1055.17 261.166C1054.26 258.173 1054.52 255.342 1056.49 252.94C1057.22 252.048 1058.13 251.33 1059.16 250.831C1060.18 250.333 1061.3 250.064 1062.44 250.041C1063.73 249.98 1065.04 250.077 1066.32 250.331C1069.11 250.907 1071.96 251.002 1074.75 250.612C1076.09 250.402 1077.46 250.484 1078.78 250.852C1080.11 251.22 1081.35 251.866 1082.44 252.751C1083.53 253.636 1084.45 254.741 1085.13 255.997C1085.81 257.253 1086.24 258.634 1086.4 260.054C1086.62 261.889 1086.36 263.737 1085.66 265.401C1084.73 267.603 1084.36 270.037 1084.58 272.47C1084.94 275.457 1084.24 278.443 1082.61 280.852C1082.45 281.08 1082.28 281.296 1082.09 281.5Z" fill="#F39200"/>
<path d="M1099.65 277.164C1096.6 279.694 1093.48 280.327 1090.07 279.067C1086.66 277.806 1085.25 274.212 1087 271.001C1087.62 269.879 1088.49 268.933 1089.55 268.247C1092.03 266.594 1094.86 266.149 1097.74 265.987C1098.77 265.937 1099.81 266.036 1100.82 266.281C1102.91 266.773 1103.87 268.29 1103.56 270.489C1103.23 272.341 1102.43 274.058 1101.22 275.458C1100.64 276.149 1100.01 276.763 1099.65 277.164Z" fill="#F39200"/>
<path d="M17.6025 898.203C16.9674 898.912 16.2477 899.53 15.5625 900.187C13.7378 901.583 11.934 902.991 9.82546 903.845C9.24673 904.094 8.64261 904.277 8.0229 904.391C6.10342 904.7 4.72781 903.811 4.01192 901.841C3.50774 900.382 3.3125 898.835 3.44055 897.314C3.64152 893.983 4.40312 890.827 6.51351 888.378C7.49648 887.144 8.74906 886.189 10.1692 885.589C11.5893 884.989 13.1367 884.762 14.6853 884.925C18.3849 885.296 20.7442 888.456 20.3297 892.364C20.0515 894.601 19.0944 896.65 17.6025 898.203Z" fill="#F39200"/>
<path d="M31.8212 906.82C31.2548 910.645 29.2772 913.412 25.8552 914.847C22.6919 916.191 19.1326 916.26 15.84 915.041C15.2469 914.824 14.6826 914.521 14.1632 914.142C13.5065 913.742 13.0024 913.108 12.7449 912.359C12.4874 911.61 12.4941 910.797 12.7637 910.073C13.3068 908.432 14.1987 906.954 15.373 905.749C16.2052 904.8 17.1271 903.908 18.0067 902.986C19.7227 901.388 21.6128 900.107 23.9292 899.698C25.3903 899.387 26.9215 899.546 28.3266 900.155C29.5395 900.692 30.5517 901.651 31.1894 902.867C31.8271 904.084 32.0505 905.481 31.8212 906.82Z" fill="#F39200"/>
<path d="M47.3058 903.291C48.3317 907.008 47.4463 910.242 45.0085 912.972C44.7175 913.258 44.4111 913.527 44.0905 913.777C42.2373 915.443 39.9378 916.485 37.4811 916.77C37.2448 916.794 37.0069 916.803 36.7687 916.795C34.3877 916.719 33.0715 915.383 32.9337 912.893C32.8911 911.083 33.1901 909.293 33.8136 907.625C34.5613 905.413 35.3931 903.249 37.0357 901.557C37.9999 900.517 39.2115 899.762 40.5537 899.364C43.5647 898.49 46.4219 900.102 47.3058 903.291Z" fill="#F39200"/>
<path d="M27.5245 867.18C27.758 866.919 28.0175 866.687 28.3467 866.361C31.0211 864.227 34.0056 864.17 37.0951 865.798C40.3578 867.52 42.4958 870.361 43.8541 873.837C44.6939 876.078 46.2057 877.991 48.1556 879.278C51.1355 881.27 53.3722 883.94 54.4478 887.513C55.3536 890.507 55.094 893.338 53.1315 895.74C52.3945 896.632 51.4858 897.35 50.4617 897.848C49.4375 898.347 48.3199 898.616 47.178 898.639C45.8825 898.7 44.5797 898.602 43.2959 898.349C40.5042 897.773 37.6561 897.678 34.8648 898.068C33.5288 898.277 32.1571 898.196 30.8345 897.828C29.512 897.46 28.2666 896.813 27.1755 895.929C26.0843 895.044 25.1705 893.939 24.4904 892.683C23.8104 891.427 23.3786 890.046 23.2218 888.626C22.9996 886.791 23.2539 884.943 23.9576 883.278C24.889 881.077 25.2596 878.643 25.0342 876.209C24.6737 873.223 25.3752 870.237 27.0035 867.828C27.1634 867.6 27.3374 867.383 27.5245 867.18Z" fill="#F39200"/>
<path d="M9.96384 871.515C13.0124 868.986 16.1325 868.353 19.5437 869.613C22.9549 870.874 24.3698 874.468 22.6163 877.678C21.9989 878.801 21.1232 879.746 20.0645 880.432C17.5859 882.085 14.7586 882.531 11.8793 882.692C10.8478 882.742 9.81146 882.644 8.80023 882.399C6.70494 881.907 5.74941 880.39 6.05999 878.191C6.38627 876.339 7.19217 874.622 8.39284 873.222C8.97339 872.53 9.60579 871.917 9.96384 871.515Z" fill="#F39200"/>
<path d="M85.6025 894.343C84.9674 895.053 84.2477 895.671 83.5625 896.328C81.7378 897.724 79.934 899.132 77.8255 899.986C77.2467 900.235 76.6426 900.417 76.0229 900.531C74.1034 900.841 72.7278 899.952 72.0119 897.982C71.5077 896.523 71.3125 894.976 71.4406 893.455C71.6415 890.124 72.4031 886.968 74.5135 884.518C75.4965 883.285 76.7491 882.329 78.1692 881.729C79.5892 881.13 81.1367 880.902 82.6853 881.066C86.3849 881.437 88.7442 884.597 88.3297 888.504C88.0515 890.742 87.0944 892.791 85.6025 894.343Z" fill="#F39200"/>
<path d="M99.8212 902.961C99.2548 906.785 97.2772 909.553 93.8552 910.988C90.6919 912.331 87.1326 912.4 83.84 911.182C83.2469 910.964 82.6826 910.662 82.1632 910.283C81.5065 909.882 81.0024 909.248 80.7449 908.499C80.4874 907.751 80.4941 906.938 80.7637 906.213C81.3068 904.572 82.1987 903.095 83.373 901.89C84.2052 900.941 85.1271 900.048 86.0067 899.127C87.7227 897.529 89.6128 896.248 91.9292 895.839C93.3903 895.528 94.9215 895.687 96.3266 896.296C97.5395 896.833 98.5517 897.792 99.1894 899.008C99.8271 900.224 100.05 901.622 99.8212 902.961Z" fill="#F39200"/>
<path d="M115.306 899.432C116.332 903.148 115.446 906.383 113.008 909.113C112.718 909.399 112.411 909.668 112.091 909.917C110.237 911.584 107.938 912.625 105.481 912.911C105.245 912.935 105.007 912.943 104.769 912.936C102.388 912.86 101.072 911.524 100.934 909.034C100.891 907.224 101.19 905.434 101.814 903.766C102.561 901.554 103.393 899.39 105.036 897.697C106 896.657 107.211 895.902 108.554 895.505C111.565 894.631 114.422 896.242 115.306 899.432Z" fill="#F39200"/>
<path d="M95.5245 863.32C95.758 863.06 96.0175 862.828 96.3467 862.502C99.0211 860.368 102.006 860.311 105.095 861.938C108.358 863.661 110.496 866.502 111.854 869.977C112.694 872.219 114.206 874.131 116.156 875.419C119.136 877.41 121.372 880.081 122.448 883.654C123.354 886.647 123.094 889.478 121.132 891.881C120.395 892.773 119.486 893.49 118.462 893.989C117.438 894.488 116.32 894.757 115.178 894.779C113.882 894.841 112.58 894.743 111.296 894.489C108.504 893.913 105.656 893.819 102.865 894.208C101.529 894.418 100.157 894.336 98.8345 893.968C97.512 893.6 96.2666 892.954 95.1755 892.069C94.0843 891.184 93.1705 890.08 92.4904 888.824C91.8104 887.568 91.3786 886.187 91.2218 884.766C90.9996 882.931 91.2539 881.083 91.9576 879.419C92.889 877.217 93.2596 874.784 93.0342 872.35C92.6737 869.363 93.3752 866.378 95.0035 863.969C95.1634 863.741 95.3374 863.524 95.5245 863.32Z" fill="#F39200"/>
<path d="M77.9638 867.656C81.0124 865.127 84.1325 864.493 87.5437 865.754C90.9549 867.014 92.3698 870.608 90.6163 873.819C89.9989 874.942 89.1232 875.887 88.0645 876.573C85.5859 878.226 82.7586 878.671 79.8793 878.833C78.8478 878.883 77.8115 878.784 76.8002 878.539C74.7049 878.048 73.7494 876.531 74.06 874.332C74.3863 872.479 75.1922 870.763 76.3928 869.363C76.9734 868.671 77.6058 868.057 77.9638 867.656Z" fill="#F39200"/>
<path d="M154.524 896.343C153.889 897.053 153.17 897.671 152.484 898.328C150.66 899.724 148.856 901.132 146.747 901.986C146.169 902.235 145.564 902.417 144.945 902.531C143.025 902.841 141.65 901.952 140.934 899.982C140.43 898.523 140.234 896.976 140.362 895.455C140.563 892.124 141.325 888.968 143.435 886.518C144.418 885.285 145.671 884.329 147.091 883.729C148.511 883.13 150.059 882.902 151.607 883.066C155.307 883.437 157.666 886.597 157.252 890.504C156.973 892.742 156.016 894.791 154.524 896.343Z" fill="#F39200"/>
<path d="M168.743 904.961C168.177 908.785 166.199 911.553 162.777 912.988C159.614 914.331 156.054 914.4 152.762 913.182C152.169 912.964 151.604 912.662 151.085 912.283C150.428 911.882 149.924 911.248 149.667 910.499C149.409 909.751 149.416 908.938 149.686 908.213C150.229 906.572 151.121 905.095 152.295 903.89C153.127 902.941 154.049 902.048 154.929 901.127C156.645 899.529 158.535 898.248 160.851 897.839C162.312 897.528 163.843 897.687 165.248 898.296C166.461 898.833 167.474 899.792 168.111 901.008C168.749 902.224 168.972 903.622 168.743 904.961Z" fill="#F39200"/>
<path d="M184.228 901.432C185.254 905.148 184.368 908.383 181.93 911.113C181.639 911.399 181.333 911.668 181.012 911.917C179.159 913.584 176.86 914.625 174.403 914.911C174.167 914.935 173.929 914.943 173.691 914.936C171.31 914.86 169.993 913.524 169.856 911.034C169.813 909.224 170.112 907.434 170.736 905.766C171.483 903.554 172.315 901.39 173.958 899.697C174.922 898.657 176.133 897.902 177.476 897.505C180.487 896.631 183.344 898.242 184.228 901.432Z" fill="#F39200"/>
<path d="M164.446 865.32C164.68 865.06 164.939 864.828 165.269 864.502C167.943 862.368 170.927 862.311 174.017 863.938C177.28 865.661 179.418 868.502 180.776 871.977C181.616 874.219 183.128 876.131 185.078 877.419C188.057 879.41 190.294 882.081 191.37 885.654C192.275 888.647 192.016 891.478 190.053 893.881C189.316 894.773 188.408 895.49 187.384 895.989C186.359 896.488 185.242 896.757 184.1 896.779C182.804 896.841 181.502 896.743 180.218 896.489C177.426 895.913 174.578 895.819 171.787 896.208C170.451 896.418 169.079 896.336 167.756 895.968C166.434 895.6 165.189 894.954 164.097 894.069C163.006 893.184 162.092 892.08 161.412 890.824C160.732 889.568 160.3 888.187 160.144 886.766C159.921 884.931 160.176 883.083 160.879 881.419C161.811 879.217 162.181 876.784 161.956 874.35C161.596 871.363 162.297 868.378 163.925 865.969C164.085 865.741 164.259 865.524 164.446 865.32Z" fill="#F39200"/>
<path d="M146.886 869.656C149.934 867.127 153.054 866.493 156.466 867.754C159.877 869.014 161.292 872.608 159.538 875.819C158.921 876.942 158.045 877.887 156.986 878.573C154.508 880.226 151.68 880.671 148.801 880.833C147.77 880.883 146.733 880.784 145.722 880.539C143.627 880.048 142.671 878.531 142.982 876.332C143.308 874.479 144.114 872.763 145.315 871.363C145.895 870.671 146.528 870.057 146.886 869.656Z" fill="#F39200"/>
<path d="M17.6025 822.87C16.9674 823.58 16.2477 824.198 15.5625 824.855C13.7378 826.251 11.934 827.659 9.82546 828.513C9.24673 828.762 8.64261 828.945 8.0229 829.058C6.10342 829.368 4.72781 828.479 4.01192 826.509C3.50774 825.05 3.3125 823.503 3.44055 821.982C3.64152 818.651 4.40312 815.495 6.51351 813.046C7.49648 811.812 8.74906 810.857 10.1692 810.257C11.5893 809.657 13.1367 809.43 14.6853 809.593C18.3849 809.964 20.7442 813.124 20.3297 817.032C20.0515 819.269 19.0944 821.318 17.6025 822.87Z" fill="#F39200"/>
<path d="M31.8212 831.488C31.2548 835.313 29.2772 838.08 25.8552 839.515C22.6919 840.859 19.1326 840.928 15.84 839.709C15.2469 839.492 14.6826 839.189 14.1632 838.81C13.5065 838.41 13.0024 837.776 12.7449 837.027C12.4874 836.278 12.4941 835.465 12.7637 834.741C13.3068 833.1 14.1987 831.622 15.373 830.417C16.2052 829.468 17.1271 828.576 18.0067 827.654C19.7227 826.056 21.6128 824.775 23.9292 824.366C25.3903 824.055 26.9215 824.214 28.3266 824.823C29.5395 825.36 30.5517 826.319 31.1894 827.535C31.8271 828.752 32.0505 830.149 31.8212 831.488Z" fill="#F39200"/>
<path d="M47.3058 827.959C48.3317 831.676 47.4463 834.91 45.0085 837.64C44.7175 837.926 44.4111 838.195 44.0905 838.445C42.2373 840.111 39.9378 841.153 37.4811 841.438C37.2448 841.462 37.0069 841.47 36.7687 841.463C34.3877 841.387 33.0715 840.051 32.9337 837.561C32.8911 835.751 33.1901 833.961 33.8136 832.293C34.5613 830.081 35.3931 827.917 37.0357 826.225C37.9999 825.185 39.2115 824.429 40.5537 824.032C43.5647 823.158 46.4219 824.77 47.3058 827.959Z" fill="#F39200"/>
<path d="M27.5245 791.848C27.758 791.587 28.0175 791.355 28.3467 791.029C31.0211 788.895 34.0056 788.838 37.0951 790.466C40.3578 792.188 42.4958 795.029 43.8541 798.505C44.6939 800.746 46.2057 802.659 48.1556 803.946C51.1355 805.938 53.3722 808.608 54.4478 812.181C55.3536 815.175 55.094 818.006 53.1315 820.408C52.3945 821.3 51.4858 822.018 50.4617 822.516C49.4375 823.015 48.3199 823.284 47.178 823.307C45.8825 823.368 44.5797 823.27 43.2959 823.016C40.5042 822.441 37.6561 822.346 34.8648 822.736C33.5288 822.945 32.1571 822.864 30.8345 822.496C29.512 822.128 28.2666 821.481 27.1755 820.597C26.0843 819.712 25.1705 818.607 24.4904 817.351C23.8104 816.095 23.3786 814.714 23.2218 813.294C22.9996 811.459 23.2539 809.611 23.9576 807.946C24.889 805.745 25.2596 803.311 25.0342 800.877C24.6737 797.891 25.3752 794.905 27.0035 792.496C27.1634 792.268 27.3374 792.051 27.5245 791.848Z" fill="#F39200"/>
<path d="M9.96384 796.183C13.0124 793.654 16.1325 793.021 19.5437 794.281C22.9549 795.541 24.3698 799.136 22.6163 802.346C21.9989 803.469 21.1232 804.414 20.0645 805.1C17.5859 806.753 14.7586 807.199 11.8793 807.36C10.8478 807.41 9.81146 807.312 8.80023 807.067C6.70494 806.575 5.74941 805.058 6.05999 802.859C6.38627 801.007 7.19217 799.29 8.39284 797.89C8.97339 797.198 9.60579 796.585 9.96384 796.183Z" fill="#F39200"/>
<path d="M88.6025 819.87C87.9674 820.58 87.2477 821.198 86.5625 821.855C84.7378 823.251 82.934 824.659 80.8255 825.513C80.2467 825.762 79.6426 825.945 79.0229 826.058C77.1034 826.368 75.7278 825.479 75.0119 823.509C74.5077 822.05 74.3125 820.503 74.4406 818.982C74.6415 815.651 75.4031 812.495 77.5135 810.046C78.4965 808.812 79.7491 807.857 81.1692 807.257C82.5893 806.657 84.1367 806.43 85.6853 806.593C89.3849 806.964 91.7442 810.124 91.3297 814.032C91.0515 816.269 90.0944 818.318 88.6025 819.87Z" fill="#F39200"/>
<path d="M102.821 828.488C102.255 832.313 100.277 835.08 96.8552 836.515C93.6919 837.859 90.1326 837.928 86.84 836.709C86.2469 836.492 85.6826 836.189 85.1632 835.81C84.5065 835.41 84.0024 834.776 83.7449 834.027C83.4874 833.278 83.4941 832.465 83.7637 831.741C84.3068 830.1 85.1987 828.622 86.373 827.417C87.2052 826.468 88.1271 825.576 89.0067 824.654C90.7227 823.056 92.6128 821.775 94.9292 821.366C96.3903 821.055 97.9215 821.214 99.3266 821.823C100.54 822.36 101.552 823.319 102.189 824.535C102.827 825.752 103.05 827.149 102.821 828.488Z" fill="#F39200"/>
<path d="M118.306 824.959C119.332 828.676 118.446 831.91 116.008 834.64C115.718 834.926 115.411 835.195 115.091 835.445C113.237 837.111 110.938 838.153 108.481 838.438C108.245 838.462 108.007 838.47 107.769 838.463C105.388 838.387 104.072 837.051 103.934 834.561C103.891 832.751 104.19 830.961 104.814 829.293C105.561 827.081 106.393 824.917 108.036 823.225C109 822.185 110.211 821.429 111.554 821.032C114.565 820.158 117.422 821.77 118.306 824.959Z" fill="#F39200"/>
<path d="M98.5245 788.848C98.758 788.587 99.0175 788.355 99.3467 788.029C102.021 785.895 105.006 785.838 108.095 787.466C111.358 789.188 113.496 792.029 114.854 795.505C115.694 797.746 117.206 799.659 119.156 800.946C122.136 802.938 124.372 805.608 125.448 809.181C126.354 812.175 126.094 815.006 124.132 817.408C123.395 818.3 122.486 819.018 121.462 819.516C120.438 820.015 119.32 820.284 118.178 820.307C116.882 820.368 115.58 820.27 114.296 820.016C111.504 819.441 108.656 819.346 105.865 819.736C104.529 819.945 103.157 819.864 101.835 819.496C100.512 819.128 99.2666 818.481 98.1755 817.597C97.0843 816.712 96.1705 815.607 95.4904 814.351C94.8104 813.095 94.3786 811.714 94.2218 810.294C93.9996 808.459 94.2539 806.611 94.9576 804.946C95.889 802.745 96.2596 800.311 96.0342 797.877C95.6737 794.891 96.3752 791.905 98.0035 789.496C98.1634 789.268 98.3374 789.051 98.5245 788.848Z" fill="#F39200"/>
<path d="M80.9638 793.183C84.0124 790.654 87.1325 790.021 90.5437 791.281C93.9549 792.541 95.3698 796.136 93.6163 799.346C92.9989 800.469 92.1232 801.414 91.0645 802.1C88.5859 803.753 85.7586 804.199 82.8793 804.36C81.8478 804.41 80.8115 804.312 79.8002 804.067C77.7049 803.575 76.7494 802.058 77.06 799.859C77.3863 798.007 78.1922 796.29 79.3928 794.89C79.9734 794.198 80.6058 793.585 80.9638 793.183Z" fill="#F39200"/>
<path d="M159.595 819.87C158.96 820.58 158.24 821.198 157.555 821.855C155.73 823.251 153.926 824.659 151.818 825.513C151.239 825.762 150.635 825.945 150.015 826.058C148.096 826.368 146.72 825.479 146.004 823.509C145.5 822.05 145.305 820.503 145.433 818.982C145.634 815.651 146.395 812.495 148.506 810.046C149.489 808.812 150.741 807.857 152.161 807.257C153.581 806.657 155.129 806.43 156.677 806.593C160.377 806.964 162.736 810.124 162.322 814.032C162.044 816.269 161.087 818.318 159.595 819.87Z" fill="#F39200"/>
<path d="M173.813 828.488C173.247 832.313 171.269 835.08 167.847 836.515C164.684 837.859 161.125 837.928 157.832 836.709C157.239 836.492 156.675 836.189 156.155 835.81C155.499 835.41 154.995 834.776 154.737 834.027C154.48 833.278 154.486 832.465 154.756 831.741C155.299 830.1 156.191 828.622 157.365 827.417C158.197 826.468 159.119 825.576 159.999 824.654C161.715 823.056 163.605 821.775 165.921 821.366C167.382 821.055 168.914 821.214 170.319 821.823C171.532 822.36 172.544 823.319 173.182 824.535C173.819 825.752 174.043 827.149 173.813 828.488Z" fill="#F39200"/>
<path d="M189.298 824.959C190.324 828.676 189.438 831.91 187.001 834.64C186.71 834.926 186.403 835.195 186.083 835.445C184.229 837.111 181.93 838.153 179.473 838.438C179.237 838.462 178.999 838.47 178.761 838.463C176.38 838.387 175.064 837.051 174.926 834.561C174.883 832.751 175.182 830.961 175.806 829.293C176.553 827.081 177.385 824.917 179.028 823.225C179.992 822.185 181.204 821.429 182.546 821.032C185.557 820.158 188.414 821.77 189.298 824.959Z" fill="#F39200"/>
<path d="M169.517 788.848C169.75 788.587 170.01 788.355 170.339 788.029C173.013 785.895 175.998 785.838 179.087 787.466C182.35 789.188 184.488 792.029 185.846 795.505C186.686 797.746 188.198 799.659 190.148 800.946C193.128 802.938 195.364 805.608 196.44 809.181C197.346 812.175 197.086 815.006 195.124 817.408C194.387 818.3 193.478 819.018 192.454 819.516C191.43 820.015 190.312 820.284 189.17 820.307C187.875 820.368 186.572 820.27 185.288 820.016C182.496 819.441 179.648 819.346 176.857 819.736C175.521 819.945 174.149 819.864 172.827 819.496C171.504 819.128 170.259 818.481 169.168 817.597C168.076 816.712 167.163 815.607 166.483 814.351C165.803 813.095 165.371 811.714 165.214 810.294C164.992 808.459 165.246 806.611 165.95 804.946C166.881 802.745 167.252 800.311 167.026 797.877C166.666 794.891 167.367 791.905 168.996 789.496C169.156 789.268 169.33 789.051 169.517 788.848Z" fill="#F39200"/>
<path d="M151.956 793.183C155.005 790.654 158.125 790.021 161.536 791.281C164.947 792.541 166.362 796.136 164.608 799.346C163.991 800.469 163.115 801.414 162.057 802.1C159.578 803.753 156.751 804.199 153.872 804.36C152.84 804.41 151.804 804.312 150.792 804.067C148.697 803.575 147.742 802.058 148.052 799.859C148.378 798.007 149.184 796.29 150.385 794.89C150.966 794.198 151.598 793.585 151.956 793.183Z" fill="#F39200"/>
<path d="M17.6025 747.87C16.9674 748.58 16.2477 749.198 15.5625 749.855C13.7378 751.251 11.934 752.659 9.82546 753.513C9.24673 753.762 8.64261 753.945 8.0229 754.058C6.10342 754.368 4.72781 753.479 4.01192 751.509C3.50774 750.05 3.3125 748.503 3.44055 746.982C3.64152 743.651 4.40312 740.495 6.51351 738.046C7.49648 736.812 8.74906 735.857 10.1692 735.257C11.5893 734.657 13.1367 734.43 14.6853 734.593C18.3849 734.964 20.7442 738.124 20.3297 742.032C20.0515 744.269 19.0944 746.318 17.6025 747.87Z" fill="#F39200"/>
<path d="M31.8212 756.488C31.2548 760.313 29.2772 763.08 25.8552 764.515C22.6919 765.859 19.1326 765.928 15.84 764.709C15.2469 764.492 14.6826 764.189 14.1632 763.81C13.5065 763.41 13.0024 762.776 12.7449 762.027C12.4874 761.278 12.4941 760.465 12.7637 759.741C13.3068 758.1 14.1987 756.622 15.373 755.417C16.2052 754.468 17.1271 753.576 18.0067 752.654C19.7227 751.056 21.6128 749.775 23.9292 749.366C25.3903 749.055 26.9215 749.214 28.3266 749.823C29.5395 750.36 30.5517 751.319 31.1894 752.535C31.8271 753.752 32.0505 755.149 31.8212 756.488Z" fill="#F39200"/>
<path d="M47.3058 752.959C48.3317 756.676 47.4463 759.91 45.0085 762.64C44.7175 762.926 44.4111 763.195 44.0905 763.445C42.2373 765.111 39.9378 766.153 37.4811 766.438C37.2448 766.462 37.0069 766.47 36.7687 766.463C34.3877 766.387 33.0715 765.051 32.9337 762.561C32.8911 760.751 33.1901 758.961 33.8136 757.293C34.5613 755.081 35.3931 752.917 37.0357 751.225C37.9999 750.185 39.2115 749.429 40.5537 749.032C43.5647 748.158 46.4219 749.77 47.3058 752.959Z" fill="#F39200"/>
<path d="M27.5245 716.848C27.758 716.587 28.0175 716.355 28.3467 716.029C31.0211 713.895 34.0056 713.838 37.0951 715.466C40.3578 717.188 42.4958 720.029 43.8541 723.505C44.6939 725.746 46.2057 727.659 48.1556 728.946C51.1355 730.938 53.3722 733.608 54.4478 737.181C55.3536 740.175 55.094 743.006 53.1315 745.408C52.3945 746.3 51.4858 747.018 50.4617 747.516C49.4375 748.015 48.3199 748.284 47.178 748.307C45.8825 748.368 44.5797 748.27 43.2959 748.016C40.5042 747.441 37.6561 747.346 34.8648 747.736C33.5288 747.945 32.1571 747.864 30.8345 747.496C29.512 747.128 28.2666 746.481 27.1755 745.597C26.0843 744.712 25.1705 743.607 24.4904 742.351C23.8104 741.095 23.3786 739.714 23.2218 738.294C22.9996 736.459 23.2539 734.611 23.9576 732.946C24.889 730.745 25.2596 728.311 25.0342 725.877C24.6737 722.891 25.3752 719.905 27.0035 717.496C27.1634 717.268 27.3374 717.051 27.5245 716.848Z" fill="#F39200"/>
<path d="M9.96384 721.183C13.0124 718.654 16.1325 718.021 19.5437 719.281C22.9549 720.541 24.3698 724.136 22.6163 727.346C21.9989 728.469 21.1232 729.414 20.0645 730.1C17.5859 731.753 14.7586 732.199 11.8793 732.36C10.8478 732.41 9.81146 732.312 8.80023 732.067C6.70494 731.575 5.74941 730.058 6.05999 727.859C6.38627 726.007 7.19217 724.29 8.39284 722.89C8.97339 722.198 9.60579 721.585 9.96384 721.183Z" fill="#F39200"/>
<path d="M90.6025 745.87C89.9674 746.58 89.2477 747.198 88.5625 747.855C86.7378 749.251 84.934 750.659 82.8255 751.513C82.2467 751.762 81.6426 751.945 81.0229 752.058C79.1034 752.368 77.7278 751.479 77.0119 749.509C76.5077 748.05 76.3125 746.503 76.4406 744.982C76.6415 741.651 77.4031 738.495 79.5135 736.046C80.4965 734.812 81.7491 733.857 83.1692 733.257C84.5893 732.657 86.1367 732.43 87.6853 732.593C91.3849 732.964 93.7442 736.124 93.3297 740.032C93.0515 742.269 92.0944 744.318 90.6025 745.87Z" fill="#F39200"/>
<path d="M104.821 754.488C104.255 758.313 102.277 761.08 98.8552 762.515C95.6919 763.859 92.1326 763.928 88.84 762.709C88.2469 762.492 87.6826 762.189 87.1632 761.81C86.5065 761.41 86.0024 760.776 85.7449 760.027C85.4874 759.278 85.4941 758.465 85.7637 757.741C86.3068 756.1 87.1987 754.622 88.373 753.417C89.2052 752.468 90.1271 751.576 91.0067 750.654C92.7227 749.056 94.6128 747.775 96.9292 747.366C98.3903 747.055 99.9215 747.214 101.327 747.823C102.54 748.36 103.552 749.319 104.189 750.535C104.827 751.752 105.05 753.149 104.821 754.488Z" fill="#F39200"/>
<path d="M120.306 750.959C121.332 754.676 120.446 757.91 118.008 760.64C117.718 760.926 117.411 761.195 117.091 761.445C115.237 763.111 112.938 764.153 110.481 764.438C110.245 764.462 110.007 764.47 109.769 764.463C107.388 764.387 106.072 763.051 105.934 760.561C105.891 758.751 106.19 756.961 106.814 755.293C107.561 753.081 108.393 750.917 110.036 749.225C111 748.185 112.211 747.429 113.554 747.032C116.565 746.158 119.422 747.77 120.306 750.959Z" fill="#F39200"/>
<path d="M100.525 714.848C100.758 714.587 101.018 714.355 101.347 714.029C104.021 711.895 107.006 711.838 110.095 713.466C113.358 715.188 115.496 718.029 116.854 721.505C117.694 723.746 119.206 725.659 121.156 726.946C124.136 728.938 126.372 731.608 127.448 735.181C128.354 738.175 128.094 741.006 126.132 743.408C125.395 744.3 124.486 745.018 123.462 745.516C122.438 746.015 121.32 746.284 120.178 746.307C118.882 746.368 117.58 746.27 116.296 746.016C113.504 745.441 110.656 745.346 107.865 745.736C106.529 745.945 105.157 745.864 103.835 745.496C102.512 745.128 101.267 744.481 100.175 743.597C99.0843 742.712 98.1705 741.607 97.4904 740.351C96.8104 739.095 96.3786 737.714 96.2218 736.294C95.9996 734.459 96.2539 732.611 96.9576 730.946C97.889 728.745 98.2596 726.311 98.0342 723.877C97.6737 720.891 98.3752 717.905 100.003 715.496C100.163 715.268 100.337 715.051 100.525 714.848Z" fill="#F39200"/>
<path d="M82.9638 719.183C86.0124 716.654 89.1325 716.021 92.5437 717.281C95.9549 718.541 97.3698 722.136 95.6163 725.346C94.9989 726.469 94.1232 727.414 93.0645 728.1C90.5859 729.753 87.7586 730.199 84.8793 730.36C83.8478 730.41 82.8115 730.312 81.8002 730.067C79.7049 729.575 78.7494 728.058 79.06 725.859C79.3863 724.007 80.1922 722.29 81.3928 720.89C81.9734 720.198 82.6058 719.585 82.9638 719.183Z" fill="#F39200"/>
<path d="M164.204 743.87C163.569 744.58 162.849 745.198 162.164 745.855C160.339 747.251 158.536 748.659 156.427 749.513C155.848 749.762 155.244 749.945 154.624 750.058C152.705 750.368 151.329 749.479 150.613 747.509C150.109 746.05 149.914 744.503 150.042 742.982C150.243 739.651 151.005 736.495 153.115 734.046C154.098 732.812 155.351 731.857 156.771 731.257C158.191 730.657 159.738 730.43 161.287 730.593C164.986 730.964 167.346 734.124 166.931 738.032C166.653 740.269 165.696 742.318 164.204 743.87Z" fill="#F39200"/>
<path d="M178.423 752.488C177.856 756.313 175.879 759.08 172.457 760.515C169.293 761.859 165.734 761.928 162.442 760.709C161.848 760.492 161.284 760.189 160.765 759.81C160.108 759.41 159.604 758.776 159.346 758.027C159.089 757.278 159.096 756.465 159.365 755.741C159.908 754.1 160.8 752.622 161.975 751.417C162.807 750.468 163.729 749.576 164.608 748.654C166.324 747.056 168.214 745.775 170.531 745.366C171.992 745.055 173.523 745.214 174.928 745.823C176.141 746.36 177.153 747.319 177.791 748.535C178.429 749.752 178.652 751.149 178.423 752.488Z" fill="#F39200"/>
<path d="M193.907 748.959C194.933 752.676 194.048 755.91 191.61 758.64C191.319 758.926 191.013 759.195 190.692 759.445C188.839 761.111 186.539 762.153 184.083 762.438C183.846 762.462 183.608 762.47 183.37 762.463C180.989 762.387 179.673 761.051 179.535 758.561C179.493 756.751 179.792 754.961 180.415 753.293C181.163 751.081 181.995 748.917 183.637 747.225C184.601 746.185 185.813 745.429 187.155 745.032C190.166 744.158 193.023 745.77 193.907 748.959Z" fill="#F39200"/>
<path d="M174.126 712.848C174.36 712.587 174.619 712.355 174.948 712.029C177.623 709.895 180.607 709.838 183.697 711.466C186.959 713.188 189.097 716.029 190.456 719.505C191.295 721.746 192.807 723.659 194.757 724.946C197.737 726.938 199.974 729.608 201.049 733.181C201.955 736.175 201.696 739.006 199.733 741.408C198.996 742.3 198.087 743.018 197.063 743.516C196.039 744.015 194.921 744.284 193.78 744.307C192.484 744.368 191.181 744.27 189.897 744.016C187.106 743.441 184.258 743.346 181.466 743.736C180.13 743.945 178.759 743.864 177.436 743.496C176.114 743.128 174.868 742.481 173.777 741.597C172.686 740.712 171.772 739.607 171.092 738.351C170.412 737.095 169.98 735.714 169.823 734.294C169.601 732.459 169.855 730.611 170.559 728.946C171.491 726.745 171.861 724.311 171.636 721.877C171.275 718.891 171.977 715.905 173.605 713.496C173.765 713.268 173.939 713.051 174.126 712.848Z" fill="#F39200"/>
<path d="M156.565 717.183C159.614 714.654 162.734 714.021 166.145 715.281C169.556 716.541 170.971 720.136 169.218 723.346C168.6 724.469 167.725 725.414 166.666 726.1C164.187 727.753 161.36 728.199 158.481 728.36C157.449 728.41 156.413 728.312 155.402 728.067C153.307 727.575 152.351 726.058 152.662 723.859C152.988 722.007 153.794 720.29 154.994 718.89C155.575 718.198 156.207 717.585 156.565 717.183Z" fill="#F39200"/>
<path d="M21.6025 672.87C20.9674 673.58 20.2477 674.198 19.5625 674.855C17.7378 676.251 15.934 677.659 13.8255 678.513C13.2467 678.762 12.6426 678.945 12.0229 679.058C10.1034 679.368 8.72781 678.479 8.01192 676.509C7.50774 675.05 7.3125 673.503 7.44055 671.982C7.64152 668.651 8.40312 665.495 10.5135 663.046C11.4965 661.812 12.7491 660.857 14.1692 660.257C15.5893 659.657 17.1367 659.43 18.6853 659.593C22.3849 659.964 24.7442 663.124 24.3297 667.032C24.0515 669.269 23.0944 671.318 21.6025 672.87Z" fill="#F39200"/>
<path d="M35.8212 681.488C35.2548 685.313 33.2772 688.08 29.8552 689.515C26.6919 690.859 23.1326 690.928 19.84 689.709C19.2469 689.492 18.6826 689.189 18.1632 688.81C17.5065 688.41 17.0024 687.776 16.7449 687.027C16.4874 686.278 16.4941 685.465 16.7637 684.741C17.3068 683.1 18.1987 681.622 19.373 680.417C20.2052 679.468 21.1271 678.576 22.0067 677.654C23.7227 676.056 25.6128 674.775 27.9292 674.366C29.3903 674.055 30.9215 674.214 32.3266 674.823C33.5395 675.36 34.5517 676.319 35.1894 677.535C35.8271 678.752 36.0505 680.149 35.8212 681.488Z" fill="#F39200"/>
<path d="M51.3058 677.959C52.3317 681.676 51.4463 684.91 49.0085 687.64C48.7175 687.926 48.4111 688.195 48.0905 688.445C46.2373 690.111 43.9378 691.153 41.4811 691.438C41.2448 691.462 41.0069 691.47 40.7687 691.463C38.3877 691.387 37.0715 690.051 36.9337 687.561C36.8911 685.751 37.1901 683.961 37.8136 682.293C38.5613 680.081 39.3931 677.917 41.0357 676.225C41.9999 675.185 43.2115 674.429 44.5537 674.032C47.5647 673.158 50.4219 674.77 51.3058 677.959Z" fill="#F39200"/>
<path d="M31.5245 641.848C31.758 641.587 32.0175 641.355 32.3467 641.029C35.0211 638.895 38.0056 638.838 41.0951 640.466C44.3578 642.188 46.4958 645.029 47.8541 648.505C48.6939 650.746 50.2057 652.659 52.1556 653.946C55.1355 655.938 57.3722 658.608 58.4478 662.181C59.3536 665.175 59.094 668.006 57.1315 670.408C56.3945 671.3 55.4858 672.018 54.4617 672.516C53.4375 673.015 52.3199 673.284 51.178 673.307C49.8825 673.368 48.5797 673.27 47.2959 673.016C44.5042 672.441 41.6561 672.346 38.8648 672.736C37.5288 672.945 36.1571 672.864 34.8345 672.496C33.512 672.128 32.2666 671.481 31.1755 670.597C30.0843 669.712 29.1705 668.607 28.4904 667.351C27.8104 666.095 27.3786 664.714 27.2218 663.294C26.9996 661.459 27.2539 659.611 27.9576 657.946C28.889 655.745 29.2596 653.311 29.0342 650.877C28.6737 647.891 29.3752 644.905 31.0035 642.496C31.1634 642.268 31.3374 642.051 31.5245 641.848Z" fill="#F39200"/>
<path d="M13.9638 646.183C17.0124 643.654 20.1325 643.021 23.5437 644.281C26.9549 645.541 28.3698 649.136 26.6163 652.346C25.9989 653.469 25.1232 654.414 24.0645 655.1C21.5859 656.753 18.7586 657.199 15.8793 657.36C14.8478 657.41 13.8115 657.312 12.8002 657.067C10.7049 656.575 9.74941 655.058 10.06 652.859C10.3863 651.007 11.1922 649.29 12.3928 647.89C12.9734 647.198 13.6058 646.585 13.9638 646.183Z" fill="#F39200"/>
<path d="M92.6025 671.87C91.9674 672.58 91.2477 673.198 90.5625 673.855C88.7378 675.251 86.934 676.659 84.8255 677.513C84.2467 677.762 83.6426 677.945 83.0229 678.058C81.1034 678.368 79.7278 677.479 79.0119 675.509C78.5077 674.05 78.3125 672.503 78.4406 670.982C78.6415 667.651 79.4031 664.495 81.5135 662.046C82.4965 660.812 83.7491 659.857 85.1692 659.257C86.5893 658.657 88.1367 658.43 89.6853 658.593C93.3849 658.964 95.7442 662.124 95.3297 666.032C95.0515 668.269 94.0944 670.318 92.6025 671.87Z" fill="#F39200"/>
<path d="M106.821 680.488C106.255 684.313 104.277 687.08 100.855 688.515C97.6919 689.859 94.1326 689.928 90.84 688.709C90.2469 688.492 89.6826 688.189 89.1632 687.81C88.5065 687.41 88.0024 686.776 87.7449 686.027C87.4874 685.278 87.4941 684.465 87.7637 683.741C88.3068 682.1 89.1987 680.622 90.373 679.417C91.2052 678.468 92.1271 677.576 93.0067 676.654C94.7227 675.056 96.6128 673.775 98.9292 673.366C100.39 673.055 101.921 673.214 103.327 673.823C104.54 674.36 105.552 675.319 106.189 676.535C106.827 677.752 107.05 679.149 106.821 680.488Z" fill="#F39200"/>
<path d="M122.306 676.959C123.332 680.676 122.446 683.91 120.008 686.64C119.718 686.926 119.411 687.195 119.091 687.445C117.237 689.111 114.938 690.153 112.481 690.438C112.245 690.462 112.007 690.47 111.769 690.463C109.388 690.387 108.072 689.051 107.934 686.561C107.891 684.751 108.19 682.961 108.814 681.293C109.561 679.081 110.393 676.917 112.036 675.225C113 674.185 114.211 673.429 115.554 673.032C118.565 672.158 121.422 673.77 122.306 676.959Z" fill="#F39200"/>
<path d="M102.525 640.848C102.758 640.587 103.018 640.355 103.347 640.029C106.021 637.895 109.006 637.838 112.095 639.466C115.358 641.188 117.496 644.029 118.854 647.505C119.694 649.746 121.206 651.659 123.156 652.946C126.136 654.938 128.372 657.608 129.448 661.181C130.354 664.175 130.094 667.006 128.132 669.408C127.395 670.3 126.486 671.018 125.462 671.516C124.438 672.015 123.32 672.284 122.178 672.307C120.882 672.368 119.58 672.27 118.296 672.016C115.504 671.441 112.656 671.346 109.865 671.736C108.529 671.945 107.157 671.864 105.835 671.496C104.512 671.128 103.267 670.481 102.175 669.597C101.084 668.712 100.17 667.607 99.4904 666.351C98.8104 665.095 98.3786 663.714 98.2218 662.294C97.9996 660.459 98.2539 658.611 98.9576 656.946C99.889 654.745 100.26 652.311 100.034 649.877C99.6737 646.891 100.375 643.905 102.003 641.496C102.163 641.268 102.337 641.051 102.525 640.848Z" fill="#F39200"/>
<path d="M84.9638 645.183C88.0124 642.654 91.1325 642.021 94.5437 643.281C97.9549 644.541 99.3698 648.136 97.6163 651.346C96.9989 652.469 96.1232 653.414 95.0645 654.1C92.5859 655.753 89.7586 656.199 86.8793 656.36C85.8478 656.41 84.8115 656.312 83.8002 656.067C81.7049 655.575 80.7494 654.058 81.06 651.859C81.3863 650.007 82.1922 648.29 83.3928 646.89C83.9734 646.198 84.6058 645.585 84.9638 645.183Z" fill="#F39200"/>
<path d="M163.595 667.87C162.96 668.58 162.24 669.198 161.555 669.855C159.73 671.251 157.926 672.659 155.818 673.513C155.239 673.762 154.635 673.945 154.015 674.058C152.096 674.368 150.72 673.479 150.004 671.509C149.5 670.05 149.305 668.503 149.433 666.982C149.634 663.651 150.395 660.495 152.506 658.046C153.489 656.812 154.741 655.857 156.161 655.257C157.581 654.657 159.129 654.43 160.677 654.593C164.377 654.964 166.736 658.124 166.322 662.032C166.044 664.269 165.087 666.318 163.595 667.87Z" fill="#F39200"/>
<path d="M177.813 676.488C177.247 680.313 175.269 683.08 171.847 684.515C168.684 685.859 165.125 685.928 161.832 684.709C161.239 684.492 160.675 684.189 160.155 683.81C159.499 683.41 158.995 682.776 158.737 682.027C158.48 681.278 158.486 680.465 158.756 679.741C159.299 678.1 160.191 676.622 161.365 675.417C162.197 674.468 163.119 673.576 163.999 672.654C165.715 671.056 167.605 669.775 169.921 669.366C171.382 669.055 172.914 669.214 174.319 669.823C175.532 670.36 176.544 671.319 177.182 672.535C177.819 673.752 178.043 675.149 177.813 676.488Z" fill="#F39200"/>
<path d="M193.298 672.959C194.324 676.676 193.438 679.91 191.001 682.64C190.71 682.926 190.403 683.195 190.083 683.445C188.229 685.111 185.93 686.153 183.473 686.438C183.237 686.462 182.999 686.47 182.761 686.463C180.38 686.387 179.064 685.051 178.926 682.561C178.883 680.751 179.182 678.961 179.806 677.293C180.553 675.081 181.385 672.917 183.028 671.225C183.992 670.185 185.204 669.429 186.546 669.032C189.557 668.158 192.414 669.77 193.298 672.959Z" fill="#F39200"/>
<path d="M173.517 636.848C173.75 636.587 174.01 636.355 174.339 636.029C177.013 633.895 179.998 633.838 183.087 635.466C186.35 637.188 188.488 640.029 189.846 643.505C190.686 645.746 192.198 647.659 194.148 648.946C197.128 650.938 199.364 653.608 200.44 657.181C201.346 660.175 201.086 663.006 199.124 665.408C198.387 666.3 197.478 667.018 196.454 667.516C195.43 668.015 194.312 668.284 193.17 668.307C191.875 668.368 190.572 668.27 189.288 668.016C186.496 667.441 183.648 667.346 180.857 667.736C179.521 667.945 178.149 667.864 176.827 667.496C175.504 667.128 174.259 666.481 173.168 665.597C172.076 664.712 171.163 663.607 170.483 662.351C169.803 661.095 169.371 659.714 169.214 658.294C168.992 656.459 169.246 654.611 169.95 652.946C170.881 650.745 171.252 648.311 171.026 645.877C170.666 642.891 171.367 639.905 172.996 637.496C173.156 637.268 173.33 637.051 173.517 636.848Z" fill="#F39200"/>
<path d="M155.956 641.183C159.005 638.654 162.125 638.021 165.536 639.281C168.947 640.541 170.362 644.136 168.608 647.346C167.991 648.469 167.115 649.414 166.057 650.1C163.578 651.753 160.751 652.199 157.872 652.36C156.84 652.41 155.804 652.312 154.792 652.067C152.697 651.575 151.742 650.058 152.052 647.859C152.378 646.007 153.184 644.29 154.385 642.89C154.966 642.198 155.598 641.585 155.956 641.183Z" fill="#F39200"/>
</svg>
