<svg width="328" height="426" viewBox="0 0 328 426" fill="none" xmlns="http://www.w3.org/2000/svg">
<path d="M2.63903 28V1.81818H12.4572C14.4686 1.81818 16.1561 2.16761 17.5197 2.86648C18.8919 3.56534 19.9274 4.54545 20.6262 5.80682C21.3336 7.05966 21.6873 8.52131 21.6873 10.1918C21.6873 11.8707 21.3294 13.3281 20.6135 14.5639C19.9061 15.7912 18.862 16.7415 17.4814 17.4148C16.1007 18.0795 14.4047 18.4119 12.3933 18.4119H5.40039V14.4744H11.7541C12.9302 14.4744 13.8933 14.3125 14.6433 13.9886C15.3933 13.6562 15.9473 13.1747 16.3052 12.544C16.6717 11.9048 16.8549 11.1207 16.8549 10.1918C16.8549 9.26278 16.6717 8.47017 16.3052 7.81392C15.9387 7.14915 15.3805 6.64631 14.6305 6.3054C13.8805 5.95597 12.9132 5.78125 11.7285 5.78125H7.38193V28H2.63903ZM16.1646 16.1364L22.6461 28H17.3535L10.987 16.1364H16.1646ZM34.2605 28.3835C32.2917 28.3835 30.5914 27.9744 29.1596 27.1562C27.7363 26.3295 26.6412 25.1619 25.8741 23.6534C25.1071 22.1364 24.7235 20.3509 24.7235 18.2969C24.7235 16.277 25.1071 14.5043 25.8741 12.9787C26.6497 11.4446 27.7321 10.2514 29.1213 9.39915C30.5105 8.53835 32.1426 8.10795 34.0176 8.10795C35.2278 8.10795 36.3699 8.30398 37.4437 8.69602C38.5261 9.07954 39.4806 9.67614 40.3074 10.4858C41.1426 11.2955 41.7988 12.3267 42.2761 13.5795C42.7534 14.8239 42.992 16.3068 42.992 18.0284V19.4474H26.8968V16.3281H38.5559C38.5474 15.4418 38.3556 14.6534 37.9806 13.9631C37.6056 13.2642 37.0815 12.7145 36.4082 12.3139C35.7434 11.9134 34.9679 11.7131 34.0815 11.7131C33.1355 11.7131 32.3045 11.9432 31.5886 12.4034C30.8727 12.8551 30.3145 13.4517 29.9139 14.1932C29.5218 14.9261 29.3216 15.7315 29.313 16.6094V19.3324C29.313 20.4744 29.5218 21.4545 29.9395 22.2727C30.3571 23.0824 30.9409 23.7045 31.6909 24.1392C32.4409 24.5653 33.3187 24.7784 34.3244 24.7784C34.9977 24.7784 35.6071 24.6847 36.1525 24.4972C36.698 24.3011 37.171 24.0156 37.5716 23.6406C37.9721 23.2656 38.2747 22.8011 38.4792 22.2472L42.8002 22.733C42.5275 23.875 42.0076 24.8722 41.2406 25.7244C40.4821 26.5682 39.5105 27.2244 38.3258 27.6932C37.1412 28.1534 35.786 28.3835 34.2605 28.3835ZM55.4469 35.7727C53.785 35.7727 52.3574 35.5469 51.1642 35.0952C49.9711 34.652 49.0123 34.0554 48.2878 33.3054C47.5634 32.5554 47.0605 31.7244 46.7793 30.8125L50.9469 29.8026C51.1344 30.1861 51.4071 30.5653 51.7651 30.9403C52.123 31.3239 52.6046 31.6392 53.2097 31.8864C53.8233 32.142 54.5946 32.2699 55.5236 32.2699C56.8361 32.2699 57.9228 31.9503 58.7836 31.3111C59.6444 30.6804 60.0748 29.6406 60.0748 28.1918V24.4716H59.8446C59.606 24.9489 59.2566 25.4389 58.7963 25.9418C58.3446 26.4446 57.7438 26.8665 56.9938 27.2074C56.2523 27.5483 55.3191 27.7188 54.1941 27.7188C52.6855 27.7188 51.3176 27.3651 50.0904 26.6577C48.8716 25.9418 47.9 24.8764 47.1756 23.4616C46.4597 22.0384 46.1017 20.2571 46.1017 18.1179C46.1017 15.9616 46.4597 14.142 47.1756 12.6591C47.9 11.1676 48.8759 10.0384 50.1032 9.27131C51.3304 8.49574 52.6983 8.10795 54.2069 8.10795C55.3574 8.10795 56.3034 8.30398 57.0449 8.69602C57.7949 9.07954 58.3915 9.54403 58.8347 10.0895C59.2779 10.6264 59.6145 11.1335 59.8446 11.6108H60.1003V8.36364H64.6642V28.3196C64.6642 29.9986 64.2637 31.3878 63.4625 32.4872C62.6614 33.5866 61.5662 34.4091 60.177 34.9545C58.7878 35.5 57.2111 35.7727 55.4469 35.7727ZM55.4853 24.0881C56.4654 24.0881 57.3006 23.8494 57.9909 23.3722C58.6813 22.8949 59.2054 22.2088 59.5634 21.3139C59.9213 20.419 60.1003 19.3452 60.1003 18.0923C60.1003 16.8565 59.9213 15.7741 59.5634 14.8452C59.214 13.9162 58.6941 13.196 58.0037 12.6847C57.3219 12.1648 56.4824 11.9048 55.4853 11.9048C54.454 11.9048 53.5932 12.1733 52.9029 12.7102C52.2125 13.2472 51.6926 13.9844 51.3432 14.9219C50.9938 15.8509 50.8191 16.9077 50.8191 18.0923C50.8191 19.294 50.9938 20.3466 51.3432 21.25C51.7012 22.1449 52.2253 22.8437 52.9157 23.3466C53.6145 23.8409 54.4711 24.0881 55.4853 24.0881ZM69.4071 28V8.36364H74.035V28H69.4071ZM71.7338 5.5767C71.0009 5.5767 70.3702 5.33381 69.8418 4.84801C69.3134 4.35369 69.0492 3.76136 69.0492 3.07102C69.0492 2.37216 69.3134 1.77983 69.8418 1.29403C70.3702 0.799715 71.0009 0.552556 71.7338 0.552556C72.4753 0.552556 73.106 0.799715 73.6259 1.29403C74.1543 1.77983 74.4185 2.37216 74.4185 3.07102C74.4185 3.76136 74.1543 4.35369 73.6259 4.84801C73.106 5.33381 72.4753 5.5767 71.7338 5.5767ZM94.3137 13.554L90.095 14.0142C89.9757 13.5881 89.7669 13.1875 89.4686 12.8125C89.1788 12.4375 88.7868 12.1349 88.2924 11.9048C87.7981 11.6747 87.193 11.5597 86.4771 11.5597C85.514 11.5597 84.7044 11.7685 84.0481 12.1861C83.4004 12.6037 83.0808 13.1449 83.0893 13.8097C83.0808 14.3807 83.2896 14.8452 83.7157 15.2031C84.1504 15.5611 84.8663 15.8551 85.8635 16.0852L89.2129 16.8011C91.0708 17.2017 92.4515 17.8366 93.3549 18.706C94.2669 19.5753 94.7271 20.7131 94.7356 22.1193C94.7271 23.3551 94.3649 24.446 93.649 25.392C92.9416 26.3295 91.9572 27.0625 90.6958 27.5909C89.4345 28.1193 87.9856 28.3835 86.3493 28.3835C83.9458 28.3835 82.0112 27.8807 80.5453 26.875C79.0794 25.8608 78.2058 24.4503 77.9245 22.6435L82.4373 22.2088C82.6419 23.0952 83.0765 23.7642 83.7413 24.2159C84.4061 24.6676 85.2711 24.8935 86.3365 24.8935C87.4359 24.8935 88.318 24.6676 88.9828 24.2159C89.6561 23.7642 89.9927 23.206 89.9927 22.5412C89.9927 21.9787 89.7754 21.5142 89.3407 21.1477C88.9146 20.7812 88.2498 20.5 87.3464 20.304L83.997 19.6009C82.1135 19.2088 80.72 18.5483 79.8166 17.6193C78.9132 16.6818 78.4657 15.4972 78.4743 14.0653C78.4657 12.8551 78.7939 11.8068 79.4586 10.9205C80.1319 10.0256 81.0652 9.33523 82.2583 8.84943C83.4601 8.35511 84.845 8.10795 86.4132 8.10795C88.7143 8.10795 90.5254 8.59801 91.8464 9.57812C93.176 10.5582 93.9984 11.8835 94.3137 13.554ZM108.357 8.36364V11.9432H97.0687V8.36364H108.357ZM99.8556 3.65909H104.483V22.0938C104.483 22.7159 104.577 23.1932 104.765 23.5256C104.961 23.8494 105.216 24.071 105.532 24.1903C105.847 24.3097 106.197 24.3693 106.58 24.3693C106.87 24.3693 107.134 24.348 107.373 24.3054C107.62 24.2628 107.807 24.2244 107.935 24.1903L108.715 27.8082C108.468 27.8935 108.114 27.9872 107.654 28.0895C107.202 28.1918 106.648 28.2514 105.992 28.2685C104.833 28.3026 103.789 28.1278 102.86 27.7443C101.931 27.3523 101.194 26.7472 100.648 25.929C100.111 25.1108 99.8471 24.0881 99.8556 22.8608V3.65909ZM112.227 28V8.36364H116.715V11.6364H116.919C117.277 10.5028 117.891 9.62926 118.76 9.01562C119.638 8.39347 120.639 8.08239 121.764 8.08239C122.02 8.08239 122.306 8.09517 122.621 8.12074C122.945 8.13778 123.213 8.16761 123.426 8.21023V12.4673C123.23 12.3991 122.919 12.3395 122.493 12.2884C122.075 12.2287 121.671 12.1989 121.279 12.1989C120.435 12.1989 119.676 12.3821 119.003 12.7486C118.338 13.1065 117.814 13.6051 117.431 14.2443C117.047 14.8835 116.855 15.6207 116.855 16.456V28H112.227ZM131.8 28.3963C130.556 28.3963 129.435 28.1747 128.438 27.7315C127.449 27.2798 126.665 26.6151 126.085 25.7372C125.514 24.8594 125.229 23.777 125.229 22.4901C125.229 21.3821 125.433 20.4659 125.843 19.7415C126.252 19.017 126.81 18.4375 127.517 18.0028C128.225 17.5682 129.021 17.2401 129.908 17.0185C130.803 16.7884 131.727 16.6222 132.682 16.5199C133.833 16.4006 134.766 16.294 135.482 16.2003C136.198 16.098 136.718 15.9446 137.041 15.7401C137.374 15.527 137.54 15.1989 137.54 14.7557V14.679C137.54 13.7159 137.254 12.9702 136.683 12.4418C136.112 11.9134 135.29 11.6491 134.216 11.6491C133.083 11.6491 132.183 11.8963 131.519 12.3906C130.862 12.8849 130.419 13.4687 130.189 14.142L125.868 13.5284C126.209 12.3352 126.771 11.3381 127.556 10.5369C128.34 9.72727 129.298 9.12216 130.432 8.72159C131.566 8.3125 132.818 8.10795 134.191 8.10795C135.137 8.10795 136.078 8.21875 137.016 8.44034C137.953 8.66193 138.81 9.02841 139.585 9.53977C140.361 10.0426 140.983 10.7287 141.452 11.598C141.929 12.4673 142.168 13.554 142.168 14.858V28H137.719V25.3026H137.566C137.284 25.848 136.888 26.3594 136.377 26.8366C135.874 27.3054 135.239 27.6847 134.472 27.9744C133.713 28.2557 132.823 28.3963 131.8 28.3963ZM133.002 24.9957C133.931 24.9957 134.736 24.8125 135.418 24.446C136.1 24.071 136.624 23.5767 136.99 22.9631C137.365 22.3494 137.553 21.6804 137.553 20.956V18.642C137.408 18.7614 137.161 18.8722 136.811 18.9744C136.47 19.0767 136.087 19.1662 135.661 19.2429C135.235 19.3196 134.813 19.3878 134.395 19.4474C133.977 19.5071 133.615 19.5582 133.308 19.6009C132.618 19.6946 132 19.848 131.455 20.0611C130.909 20.2741 130.479 20.5724 130.164 20.956C129.848 21.331 129.691 21.8168 129.691 22.4134C129.691 23.2656 130.002 23.9091 130.624 24.3438C131.246 24.7784 132.039 24.9957 133.002 24.9957ZM146.821 28V8.36364H151.308V11.6364H151.513C151.871 10.5028 152.485 9.62926 153.354 9.01562C154.232 8.39347 155.233 8.08239 156.358 8.08239C156.614 8.08239 156.899 8.09517 157.215 8.12074C157.539 8.13778 157.807 8.16761 158.02 8.21023V12.4673C157.824 12.3991 157.513 12.3395 157.087 12.2884C156.669 12.2287 156.264 12.1989 155.872 12.1989C155.029 12.1989 154.27 12.3821 153.597 12.7486C152.932 13.1065 152.408 13.6051 152.024 14.2443C151.641 14.8835 151.449 15.6207 151.449 16.456V28H146.821ZM186.733 1.81818H191.476V18.9233C191.476 20.7983 191.033 22.4474 190.146 23.8707C189.269 25.294 188.033 26.4062 186.439 27.2074C184.845 28 182.983 28.3963 180.852 28.3963C178.713 28.3963 176.847 28 175.253 27.2074C173.659 26.4062 172.423 25.294 171.546 23.8707C170.668 22.4474 170.229 20.7983 170.229 18.9233V1.81818H174.972V18.527C174.972 19.6179 175.21 20.5895 175.688 21.4418C176.173 22.294 176.855 22.9631 177.733 23.4489C178.611 23.9261 179.651 24.1648 180.852 24.1648C182.054 24.1648 183.094 23.9261 183.972 23.4489C184.858 22.9631 185.54 22.294 186.017 21.4418C186.494 20.5895 186.733 19.6179 186.733 18.527V1.81818ZM211.947 13.554L207.728 14.0142C207.608 13.5881 207.4 13.1875 207.101 12.8125C206.812 12.4375 206.42 12.1349 205.925 11.9048C205.431 11.6747 204.826 11.5597 204.11 11.5597C203.147 11.5597 202.337 11.7685 201.681 12.1861C201.033 12.6037 200.714 13.1449 200.722 13.8097C200.714 14.3807 200.922 14.8452 201.349 15.2031C201.783 15.5611 202.499 15.8551 203.496 16.0852L206.846 16.8011C208.704 17.2017 210.084 17.8366 210.988 18.706C211.9 19.5753 212.36 20.7131 212.368 22.1193C212.36 23.3551 211.998 24.446 211.282 25.392C210.574 26.3295 209.59 27.0625 208.329 27.5909C207.067 28.1193 205.618 28.3835 203.982 28.3835C201.579 28.3835 199.644 27.8807 198.178 26.875C196.712 25.8608 195.839 24.4503 195.557 22.6435L200.07 22.2088C200.275 23.0952 200.709 23.7642 201.374 24.2159C202.039 24.6676 202.904 24.8935 203.969 24.8935C205.069 24.8935 205.951 24.6676 206.616 24.2159C207.289 23.7642 207.626 23.206 207.626 22.5412C207.626 21.9787 207.408 21.5142 206.974 21.1477C206.547 20.7812 205.883 20.5 204.979 20.304L201.63 19.6009C199.746 19.2088 198.353 18.5483 197.449 17.6193C196.546 16.6818 196.099 15.4972 196.107 14.0653C196.099 12.8551 196.427 11.8068 197.091 10.9205C197.765 10.0256 198.698 9.33523 199.891 8.84943C201.093 8.35511 202.478 8.10795 204.046 8.10795C206.347 8.10795 208.158 8.59801 209.479 9.57812C210.809 10.5582 211.631 11.8835 211.947 13.554ZM228.7 19.7415V8.36364H233.328V28H228.841V24.5099H228.636C228.193 25.6094 227.464 26.5085 226.45 27.2074C225.444 27.9062 224.204 28.2557 222.73 28.2557C221.443 28.2557 220.305 27.9702 219.317 27.3991C218.336 26.8196 217.569 25.9801 217.015 24.8807C216.461 23.7727 216.184 22.4347 216.184 20.8665V8.36364H220.812V20.1506C220.812 21.3949 221.153 22.3835 221.835 23.1165C222.517 23.8494 223.412 24.2159 224.52 24.2159C225.202 24.2159 225.862 24.0497 226.501 23.7173C227.14 23.3849 227.665 22.8906 228.074 22.2344C228.491 21.5696 228.7 20.7386 228.7 19.7415ZM243.737 28.3963C242.493 28.3963 241.372 28.1747 240.375 27.7315C239.387 27.2798 238.602 26.6151 238.023 25.7372C237.452 24.8594 237.166 23.777 237.166 22.4901C237.166 21.3821 237.371 20.4659 237.78 19.7415C238.189 19.017 238.747 18.4375 239.455 18.0028C240.162 17.5682 240.959 17.2401 241.845 17.0185C242.74 16.7884 243.665 16.6222 244.619 16.5199C245.77 16.4006 246.703 16.294 247.419 16.2003C248.135 16.098 248.655 15.9446 248.979 15.7401C249.311 15.527 249.477 15.1989 249.477 14.7557V14.679C249.477 13.7159 249.192 12.9702 248.621 12.4418C248.05 11.9134 247.227 11.6491 246.154 11.6491C245.02 11.6491 244.121 11.8963 243.456 12.3906C242.8 12.8849 242.357 13.4687 242.127 14.142L237.806 13.5284C238.146 12.3352 238.709 11.3381 239.493 10.5369C240.277 9.72727 241.236 9.12216 242.369 8.72159C243.503 8.3125 244.756 8.10795 246.128 8.10795C247.074 8.10795 248.016 8.21875 248.953 8.44034C249.891 8.66193 250.747 9.02841 251.523 9.53977C252.298 10.0426 252.921 10.7287 253.389 11.598C253.867 12.4673 254.105 13.554 254.105 14.858V28H249.656V25.3026H249.503C249.222 25.848 248.825 26.3594 248.314 26.8366C247.811 27.3054 247.176 27.6847 246.409 27.9744C245.651 28.2557 244.76 28.3963 243.737 28.3963ZM244.939 24.9957C245.868 24.9957 246.673 24.8125 247.355 24.446C248.037 24.071 248.561 23.5767 248.928 22.9631C249.303 22.3494 249.49 21.6804 249.49 20.956V18.642C249.345 18.7614 249.098 18.8722 248.749 18.9744C248.408 19.0767 248.024 19.1662 247.598 19.2429C247.172 19.3196 246.75 19.3878 246.333 19.4474C245.915 19.5071 245.553 19.5582 245.246 19.6009C244.556 19.6946 243.938 19.848 243.392 20.0611C242.847 20.2741 242.416 20.5724 242.101 20.956C241.786 21.331 241.628 21.8168 241.628 22.4134C241.628 23.2656 241.939 23.9091 242.561 24.3438C243.183 24.7784 243.976 24.9957 244.939 24.9957ZM258.759 28V8.36364H263.246V11.6364H263.45C263.808 10.5028 264.422 9.62926 265.291 9.01562C266.169 8.39347 267.171 8.08239 268.296 8.08239C268.551 8.08239 268.837 8.09517 269.152 8.12074C269.476 8.13778 269.744 8.16761 269.958 8.21023V12.4673C269.762 12.3991 269.45 12.3395 269.024 12.2884C268.607 12.2287 268.202 12.1989 267.81 12.1989C266.966 12.1989 266.208 12.3821 265.534 12.7486C264.869 13.1065 264.345 13.6051 263.962 14.2443C263.578 14.8835 263.387 15.6207 263.387 16.456V28H258.759ZM273.032 28V8.36364H277.66V28H273.032ZM275.359 5.5767C274.626 5.5767 273.995 5.33381 273.467 4.84801C272.938 4.35369 272.674 3.76136 272.674 3.07102C272.674 2.37216 272.938 1.77983 273.467 1.29403C273.995 0.799715 274.626 0.552556 275.359 0.552556C276.1 0.552556 276.731 0.799715 277.251 1.29403C277.779 1.77983 278.044 2.37216 278.044 3.07102C278.044 3.76136 277.779 4.35369 277.251 4.84801C276.731 5.33381 276.1 5.5767 275.359 5.5767ZM290.984 28.3835C289.067 28.3835 287.405 27.9616 285.998 27.1179C284.592 26.2741 283.501 25.0937 282.726 23.5767C281.959 22.0597 281.575 20.2869 281.575 18.2585C281.575 16.2301 281.959 14.4531 282.726 12.9276C283.501 11.402 284.592 10.2173 285.998 9.37358C287.405 8.52983 289.067 8.10795 290.984 8.10795C292.902 8.10795 294.564 8.52983 295.97 9.37358C297.376 10.2173 298.463 11.402 299.23 12.9276C300.006 14.4531 300.393 16.2301 300.393 18.2585C300.393 20.2869 300.006 22.0597 299.23 23.5767C298.463 25.0937 297.376 26.2741 295.97 27.1179C294.564 27.9616 292.902 28.3835 290.984 28.3835ZM291.01 24.6761C292.05 24.6761 292.919 24.3906 293.618 23.8196C294.317 23.2401 294.836 22.4645 295.177 21.4929C295.527 20.5213 295.702 19.4389 295.702 18.2457C295.702 17.044 295.527 15.9574 295.177 14.9858C294.836 14.0057 294.317 13.2259 293.618 12.6463C292.919 12.0668 292.05 11.777 291.01 11.777C289.944 11.777 289.058 12.0668 288.351 12.6463C287.652 13.2259 287.128 14.0057 286.778 14.9858C286.437 15.9574 286.267 17.044 286.267 18.2457C286.267 19.4389 286.437 20.5213 286.778 21.4929C287.128 22.4645 287.652 23.2401 288.351 23.8196C289.058 24.3906 289.944 24.6761 291.01 24.6761Z" fill="white"/>
<path d="M49 94C49 90.134 52.134 87 56 87H318C322.971 87 327 91.0294 327 96V116C327 120.971 322.971 125 318 125H58C53.0294 125 49 120.971 49 116V94Z" fill="#FFFDFB" stroke="#B9A78E" stroke-width="2"/>
<path d="M74.9602 100.364V112H73.0852L67.6023 104.074H67.5057V112H65.3977V100.364H67.2841L72.7614 108.295H72.8636V100.364H74.9602ZM80.973 112.17C80.1207 112.17 79.3821 111.983 78.7571 111.608C78.1321 111.233 77.6473 110.708 77.3026 110.034C76.9616 109.36 76.7912 108.572 76.7912 107.67C76.7912 106.769 76.9616 105.979 77.3026 105.301C77.6473 104.623 78.1321 104.097 78.7571 103.722C79.3821 103.347 80.1207 103.159 80.973 103.159C81.8253 103.159 82.5639 103.347 83.1889 103.722C83.8139 104.097 84.2969 104.623 84.6378 105.301C84.9825 105.979 85.1548 106.769 85.1548 107.67C85.1548 108.572 84.9825 109.36 84.6378 110.034C84.2969 110.708 83.8139 111.233 83.1889 111.608C82.5639 111.983 81.8253 112.17 80.973 112.17ZM80.9844 110.523C81.4465 110.523 81.8329 110.396 82.1435 110.142C82.4541 109.884 82.6851 109.54 82.8366 109.108C82.992 108.676 83.0696 108.195 83.0696 107.665C83.0696 107.131 82.992 106.648 82.8366 106.216C82.6851 105.78 82.4541 105.434 82.1435 105.176C81.8329 104.919 81.4465 104.79 80.9844 104.79C80.5109 104.79 80.117 104.919 79.8026 105.176C79.492 105.434 79.259 105.78 79.1037 106.216C78.9522 106.648 78.8764 107.131 78.8764 107.665C78.8764 108.195 78.9522 108.676 79.1037 109.108C79.259 109.54 79.492 109.884 79.8026 110.142C80.117 110.396 80.5109 110.523 80.9844 110.523ZM86.9006 112V103.273H88.8665V104.756H88.9688C89.1506 104.256 89.4517 103.866 89.8722 103.585C90.2926 103.301 90.7945 103.159 91.3778 103.159C91.9688 103.159 92.4669 103.303 92.8722 103.591C93.2813 103.875 93.5691 104.263 93.7358 104.756H93.8267C94.0199 104.271 94.3456 103.884 94.804 103.597C95.2661 103.305 95.8134 103.159 96.446 103.159C97.2491 103.159 97.9044 103.413 98.4119 103.92C98.9195 104.428 99.1733 105.169 99.1733 106.142V112H97.1108V106.46C97.1108 105.919 96.9669 105.523 96.679 105.273C96.3911 105.019 96.0388 104.892 95.6222 104.892C95.1259 104.892 94.7377 105.047 94.4574 105.358C94.1809 105.665 94.0426 106.064 94.0426 106.557V112H92.0256V106.375C92.0256 105.924 91.8892 105.564 91.6165 105.295C91.3475 105.027 90.9953 104.892 90.5597 104.892C90.2642 104.892 89.9953 104.968 89.7528 105.119C89.5104 105.267 89.3172 105.477 89.1733 105.75C89.0294 106.019 88.9574 106.333 88.9574 106.693V112H86.9006ZM101.351 112V100.364H103.408V104.716H103.493C103.599 104.504 103.749 104.278 103.942 104.04C104.135 103.797 104.396 103.591 104.726 103.42C105.055 103.246 105.476 103.159 105.987 103.159C106.661 103.159 107.269 103.331 107.811 103.676C108.357 104.017 108.788 104.523 109.107 105.193C109.429 105.86 109.589 106.678 109.589 107.648C109.589 108.606 109.432 109.42 109.118 110.091C108.804 110.761 108.375 111.273 107.834 111.625C107.292 111.977 106.679 112.153 105.993 112.153C105.493 112.153 105.078 112.07 104.749 111.903C104.419 111.737 104.154 111.536 103.953 111.301C103.756 111.062 103.603 110.837 103.493 110.625H103.374V112H101.351ZM103.368 107.636C103.368 108.201 103.447 108.695 103.607 109.119C103.769 109.544 104.002 109.875 104.305 110.114C104.612 110.348 104.983 110.466 105.419 110.466C105.874 110.466 106.254 110.345 106.561 110.102C106.868 109.856 107.099 109.521 107.254 109.097C107.413 108.669 107.493 108.182 107.493 107.636C107.493 107.095 107.415 106.614 107.26 106.193C107.105 105.773 106.874 105.443 106.567 105.205C106.26 104.966 105.877 104.847 105.419 104.847C104.98 104.847 104.607 104.962 104.3 105.193C103.993 105.424 103.76 105.748 103.601 106.165C103.446 106.581 103.368 107.072 103.368 107.636ZM111.338 112V103.273H113.332V104.727H113.423C113.582 104.223 113.855 103.835 114.241 103.562C114.632 103.286 115.077 103.148 115.577 103.148C115.69 103.148 115.817 103.153 115.957 103.165C116.101 103.172 116.221 103.186 116.315 103.205V105.097C116.228 105.066 116.09 105.04 115.901 105.017C115.715 104.991 115.535 104.977 115.361 104.977C114.986 104.977 114.649 105.059 114.349 105.222C114.054 105.381 113.821 105.602 113.651 105.886C113.48 106.17 113.395 106.498 113.395 106.869V112H111.338ZM121.186 112.17C120.311 112.17 119.555 111.989 118.919 111.625C118.286 111.258 117.8 110.739 117.459 110.068C117.118 109.394 116.947 108.6 116.947 107.688C116.947 106.79 117.118 106.002 117.459 105.324C117.804 104.642 118.285 104.112 118.902 103.733C119.519 103.35 120.245 103.159 121.078 103.159C121.616 103.159 122.124 103.246 122.601 103.42C123.082 103.591 123.506 103.856 123.874 104.216C124.245 104.576 124.536 105.034 124.749 105.591C124.961 106.144 125.067 106.803 125.067 107.568V108.199H117.913V106.812H123.095C123.091 106.419 123.006 106.068 122.839 105.761C122.673 105.451 122.44 105.206 122.141 105.028C121.845 104.85 121.5 104.761 121.107 104.761C120.686 104.761 120.317 104.864 119.999 105.068C119.68 105.269 119.432 105.534 119.254 105.864C119.08 106.189 118.991 106.547 118.987 106.938V108.148C118.987 108.655 119.08 109.091 119.266 109.455C119.451 109.814 119.711 110.091 120.044 110.284C120.377 110.473 120.768 110.568 121.214 110.568C121.514 110.568 121.785 110.527 122.027 110.443C122.269 110.356 122.48 110.229 122.658 110.062C122.836 109.896 122.97 109.689 123.061 109.443L124.982 109.659C124.86 110.167 124.629 110.61 124.288 110.989C123.951 111.364 123.519 111.655 122.993 111.864C122.466 112.068 121.864 112.17 121.186 112.17Z" fill="#4B4B4B"/>
<path d="M49 194C49 190.134 52.134 187 56 187H318C322.971 187 327 191.029 327 196V216C327 220.971 322.971 225 318 225H58C53.0294 225 49 220.971 49 216V194Z" fill="#FFFDFB" stroke="#B9A78E" stroke-width="2"/>
<path d="M75.522 205.29H73.397C73.3364 204.941 73.2247 204.633 73.0618 204.364C72.8989 204.091 72.6963 203.86 72.4538 203.67C72.2114 203.481 71.9349 203.339 71.6243 203.244C71.3175 203.146 70.986 203.097 70.63 203.097C69.9974 203.097 69.4368 203.256 68.9482 203.574C68.4595 203.888 68.0769 204.35 67.8004 204.96C67.5239 205.566 67.3857 206.307 67.3857 207.182C67.3857 208.072 67.5239 208.822 67.8004 209.432C68.0807 210.038 68.4633 210.496 68.9482 210.807C69.4368 211.114 69.9955 211.267 70.6243 211.267C70.9728 211.267 71.2985 211.222 71.6016 211.131C71.9084 211.036 72.183 210.898 72.4254 210.716C72.6716 210.534 72.8781 210.311 73.0447 210.045C73.2152 209.78 73.3326 209.477 73.397 209.136L75.522 209.148C75.4425 209.701 75.2701 210.22 75.005 210.705C74.7436 211.189 74.4008 211.617 73.9766 211.989C73.5523 212.356 73.0561 212.644 72.4879 212.852C71.9197 213.057 71.2891 213.159 70.5959 213.159C69.5732 213.159 68.6603 212.922 67.8572 212.449C67.0542 211.975 66.4216 211.292 65.9595 210.398C65.4974 209.504 65.2663 208.432 65.2663 207.182C65.2663 205.928 65.4993 204.856 65.9652 203.966C66.4311 203.072 67.0656 202.388 67.8686 201.915C68.6716 201.441 69.5807 201.205 70.5959 201.205C71.2436 201.205 71.8459 201.295 72.4027 201.477C72.9595 201.659 73.4557 201.926 73.8913 202.278C74.3269 202.627 74.6849 203.055 74.9652 203.562C75.2493 204.066 75.4349 204.642 75.522 205.29ZM81.1683 213.17C80.3161 213.17 79.5774 212.983 78.9524 212.608C78.3274 212.233 77.8426 211.708 77.4979 211.034C77.157 210.36 76.9865 209.572 76.9865 208.67C76.9865 207.769 77.157 206.979 77.4979 206.301C77.8426 205.623 78.3274 205.097 78.9524 204.722C79.5774 204.347 80.3161 204.159 81.1683 204.159C82.0206 204.159 82.7592 204.347 83.3842 204.722C84.0092 205.097 84.4922 205.623 84.8331 206.301C85.1778 206.979 85.3501 207.769 85.3501 208.67C85.3501 209.572 85.1778 210.36 84.8331 211.034C84.4922 211.708 84.0092 212.233 83.3842 212.608C82.7592 212.983 82.0206 213.17 81.1683 213.17ZM81.1797 211.523C81.6418 211.523 82.0282 211.396 82.3388 211.142C82.6494 210.884 82.8804 210.54 83.032 210.108C83.1873 209.676 83.2649 209.195 83.2649 208.665C83.2649 208.131 83.1873 207.648 83.032 207.216C82.8804 206.78 82.6494 206.434 82.3388 206.176C82.0282 205.919 81.6418 205.79 81.1797 205.79C80.7062 205.79 80.3123 205.919 79.9979 206.176C79.6873 206.434 79.4543 206.78 79.299 207.216C79.1475 207.648 79.0717 208.131 79.0717 208.665C79.0717 209.195 79.1475 209.676 79.299 210.108C79.4543 210.54 79.6873 210.884 79.9979 211.142C80.3123 211.396 80.7062 211.523 81.1797 211.523ZM87.0959 213V204.273H89.0902V205.727H89.1811C89.3402 205.223 89.6129 204.835 89.9993 204.562C90.3894 204.286 90.8345 204.148 91.3345 204.148C91.4482 204.148 91.575 204.153 91.7152 204.165C91.8591 204.172 91.9785 204.186 92.0732 204.205V206.097C91.986 206.066 91.8478 206.04 91.6584 206.017C91.4728 205.991 91.2929 205.977 91.1186 205.977C90.7436 205.977 90.4065 206.059 90.1072 206.222C89.8118 206.381 89.5788 206.602 89.4084 206.886C89.2379 207.17 89.1527 207.498 89.1527 207.869V213H87.0959ZM93.4396 213V204.273H95.4339V205.727H95.5249C95.6839 205.223 95.9567 204.835 96.343 204.562C96.7332 204.286 97.1783 204.148 97.6783 204.148C97.7919 204.148 97.9188 204.153 98.0589 204.165C98.2029 204.172 98.3222 204.186 98.4169 204.205V206.097C98.3298 206.066 98.1915 206.04 98.0021 206.017C97.8165 205.991 97.6366 205.977 97.4624 205.977C97.0874 205.977 96.7502 206.059 96.451 206.222C96.1555 206.381 95.9226 206.602 95.7521 206.886C95.5817 207.17 95.4964 207.498 95.4964 207.869V213H93.4396ZM103.288 213.17C102.413 213.17 101.657 212.989 101.021 212.625C100.388 212.258 99.9013 211.739 99.5604 211.068C99.2195 210.394 99.049 209.6 99.049 208.688C99.049 207.79 99.2195 207.002 99.5604 206.324C99.9051 205.642 100.386 205.112 101.004 204.733C101.621 204.35 102.346 204.159 103.18 204.159C103.718 204.159 104.225 204.246 104.702 204.42C105.183 204.591 105.608 204.856 105.975 205.216C106.346 205.576 106.638 206.034 106.85 206.591C107.062 207.144 107.168 207.803 107.168 208.568V209.199H100.015V207.812H105.197C105.193 207.419 105.108 207.068 104.941 206.761C104.774 206.451 104.541 206.206 104.242 206.028C103.947 205.85 103.602 205.761 103.208 205.761C102.788 205.761 102.418 205.864 102.1 206.068C101.782 206.269 101.534 206.534 101.356 206.864C101.182 207.189 101.093 207.547 101.089 207.938V209.148C101.089 209.655 101.182 210.091 101.367 210.455C101.553 210.814 101.812 211.091 102.146 211.284C102.479 211.473 102.869 211.568 103.316 211.568C103.615 211.568 103.886 211.527 104.129 211.443C104.371 211.356 104.581 211.229 104.759 211.062C104.937 210.896 105.072 210.689 105.163 210.443L107.083 210.659C106.962 211.167 106.731 211.61 106.39 211.989C106.053 212.364 105.621 212.655 105.094 212.864C104.568 213.068 103.966 213.17 103.288 213.17ZM112.715 213.17C111.863 213.17 111.124 212.983 110.499 212.608C109.874 212.233 109.389 211.708 109.045 211.034C108.704 210.36 108.533 209.572 108.533 208.67C108.533 207.769 108.704 206.979 109.045 206.301C109.389 205.623 109.874 205.097 110.499 204.722C111.124 204.347 111.863 204.159 112.715 204.159C113.567 204.159 114.306 204.347 114.931 204.722C115.556 205.097 116.039 205.623 116.38 206.301C116.725 206.979 116.897 207.769 116.897 208.67C116.897 209.572 116.725 210.36 116.38 211.034C116.039 211.708 115.556 212.233 114.931 212.608C114.306 212.983 113.567 213.17 112.715 213.17ZM112.727 211.523C113.189 211.523 113.575 211.396 113.886 211.142C114.196 210.884 114.427 210.54 114.579 210.108C114.734 209.676 114.812 209.195 114.812 208.665C114.812 208.131 114.734 207.648 114.579 207.216C114.427 206.78 114.196 206.434 113.886 206.176C113.575 205.919 113.189 205.79 112.727 205.79C112.253 205.79 111.859 205.919 111.545 206.176C111.234 206.434 111.001 206.78 110.846 207.216C110.694 207.648 110.619 208.131 110.619 208.665C110.619 209.195 110.694 209.676 110.846 210.108C111.001 210.54 111.234 210.884 111.545 211.142C111.859 211.396 112.253 211.523 112.727 211.523Z" fill="#4B4B4B"/>
<path d="M49 294C49 290.134 52.134 287 56 287H318C322.971 287 327 291.029 327 296V316C327 320.971 322.971 325 318 325H58C53.0294 325 49 320.971 49 316V294Z" fill="#FFFDFB" stroke="#B9A78E" stroke-width="2"/>
<path d="M75.5923 304.29H73.4673C73.4067 303.941 73.295 303.633 73.1321 303.364C72.9692 303.091 72.7666 302.86 72.5241 302.67C72.2817 302.481 72.0052 302.339 71.6946 302.244C71.3878 302.146 71.0563 302.097 70.7003 302.097C70.0677 302.097 69.5071 302.256 69.0185 302.574C68.5298 302.888 68.1473 303.35 67.8707 303.96C67.5942 304.566 67.456 305.307 67.456 306.182C67.456 307.072 67.5942 307.822 67.8707 308.432C68.151 309.038 68.5336 309.496 69.0185 309.807C69.5071 310.114 70.0658 310.267 70.6946 310.267C71.0431 310.267 71.3688 310.222 71.6719 310.131C71.9787 310.036 72.2533 309.898 72.4957 309.716C72.742 309.534 72.9484 309.311 73.1151 309.045C73.2855 308.78 73.4029 308.477 73.4673 308.136L75.5923 308.148C75.5128 308.701 75.3404 309.22 75.0753 309.705C74.8139 310.189 74.4711 310.617 74.0469 310.989C73.6226 311.356 73.1264 311.644 72.5582 311.852C71.9901 312.057 71.3594 312.159 70.6662 312.159C69.6435 312.159 68.7306 311.922 67.9276 311.449C67.1245 310.975 66.492 310.292 66.0298 309.398C65.5677 308.504 65.3366 307.432 65.3366 306.182C65.3366 304.928 65.5696 303.856 66.0355 302.966C66.5014 302.072 67.1359 301.388 67.9389 300.915C68.742 300.441 69.651 300.205 70.6662 300.205C71.3139 300.205 71.9162 300.295 72.473 300.477C73.0298 300.659 73.526 300.926 73.9616 301.278C74.3973 301.627 74.7552 302.055 75.0355 302.562C75.3196 303.066 75.5052 303.642 75.5923 304.29ZM81.2386 312.17C80.3864 312.17 79.6477 311.983 79.0227 311.608C78.3977 311.233 77.9129 310.708 77.5682 310.034C77.2273 309.36 77.0568 308.572 77.0568 307.67C77.0568 306.769 77.2273 305.979 77.5682 305.301C77.9129 304.623 78.3977 304.097 79.0227 303.722C79.6477 303.347 80.3864 303.159 81.2386 303.159C82.0909 303.159 82.8295 303.347 83.4545 303.722C84.0795 304.097 84.5625 304.623 84.9034 305.301C85.2481 305.979 85.4205 306.769 85.4205 307.67C85.4205 308.572 85.2481 309.36 84.9034 310.034C84.5625 310.708 84.0795 311.233 83.4545 311.608C82.8295 311.983 82.0909 312.17 81.2386 312.17ZM81.25 310.523C81.7121 310.523 82.0985 310.396 82.4091 310.142C82.7197 309.884 82.9508 309.54 83.1023 309.108C83.2576 308.676 83.3352 308.195 83.3352 307.665C83.3352 307.131 83.2576 306.648 83.1023 306.216C82.9508 305.78 82.7197 305.434 82.4091 305.176C82.0985 304.919 81.7121 304.79 81.25 304.79C80.7765 304.79 80.3826 304.919 80.0682 305.176C79.7576 305.434 79.5246 305.78 79.3693 306.216C79.2178 306.648 79.142 307.131 79.142 307.665C79.142 308.195 79.2178 308.676 79.3693 309.108C79.5246 309.54 79.7576 309.884 80.0682 310.142C80.3826 310.396 80.7765 310.523 81.25 310.523ZM89.223 306.886V312H87.1662V303.273H89.1321V304.756H89.2344C89.4351 304.267 89.7552 303.879 90.1946 303.591C90.6378 303.303 91.1851 303.159 91.8366 303.159C92.4389 303.159 92.9635 303.288 93.4105 303.545C93.8613 303.803 94.2098 304.176 94.456 304.665C94.706 305.153 94.8291 305.746 94.8253 306.443V312H92.7685V306.761C92.7685 306.178 92.617 305.722 92.3139 305.392C92.0147 305.062 91.5999 304.898 91.0696 304.898C90.7098 304.898 90.3897 304.977 90.1094 305.136C89.8329 305.292 89.6151 305.517 89.456 305.812C89.3007 306.108 89.223 306.466 89.223 306.886ZM101.274 303.273V304.864H96.2571V303.273H101.274ZM97.4957 301.182H99.5526V309.375C99.5526 309.652 99.5942 309.864 99.6776 310.011C99.7647 310.155 99.8783 310.254 100.018 310.307C100.159 310.36 100.314 310.386 100.484 310.386C100.613 310.386 100.731 310.377 100.837 310.358C100.946 310.339 101.03 310.322 101.087 310.307L101.433 311.915C101.323 311.953 101.166 311.994 100.962 312.04C100.761 312.085 100.515 312.112 100.223 312.119C99.7079 312.134 99.2438 312.057 98.831 311.886C98.4181 311.712 98.0904 311.443 97.848 311.08C97.6094 310.716 97.492 310.261 97.4957 309.716V301.182ZM102.994 312V303.273H104.989V304.727H105.08C105.239 304.223 105.511 303.835 105.898 303.562C106.288 303.286 106.733 303.148 107.233 303.148C107.347 303.148 107.473 303.153 107.614 303.165C107.758 303.172 107.877 303.186 107.972 303.205V305.097C107.884 305.066 107.746 305.04 107.557 305.017C107.371 304.991 107.191 304.977 107.017 304.977C106.642 304.977 106.305 305.059 106.006 305.222C105.71 305.381 105.477 305.602 105.307 305.886C105.136 306.17 105.051 306.498 105.051 306.869V312H102.994ZM111.693 312.176C111.14 312.176 110.642 312.078 110.199 311.881C109.759 311.68 109.411 311.384 109.153 310.994C108.9 310.604 108.773 310.123 108.773 309.551C108.773 309.059 108.864 308.652 109.045 308.33C109.227 308.008 109.475 307.75 109.79 307.557C110.104 307.364 110.458 307.218 110.852 307.119C111.25 307.017 111.661 306.943 112.085 306.898C112.597 306.845 113.011 306.797 113.33 306.756C113.648 306.71 113.879 306.642 114.023 306.551C114.17 306.456 114.244 306.311 114.244 306.114V306.08C114.244 305.652 114.117 305.32 113.864 305.085C113.61 304.85 113.244 304.733 112.767 304.733C112.263 304.733 111.864 304.843 111.568 305.062C111.277 305.282 111.08 305.542 110.977 305.841L109.057 305.568C109.208 305.038 109.458 304.595 109.807 304.239C110.155 303.879 110.581 303.61 111.085 303.432C111.589 303.25 112.146 303.159 112.756 303.159C113.176 303.159 113.595 303.208 114.011 303.307C114.428 303.405 114.809 303.568 115.153 303.795C115.498 304.019 115.775 304.324 115.983 304.71C116.195 305.097 116.301 305.58 116.301 306.159V312H114.324V310.801H114.256C114.131 311.044 113.955 311.271 113.727 311.483C113.504 311.691 113.222 311.86 112.881 311.989C112.544 312.114 112.148 312.176 111.693 312.176ZM112.227 310.665C112.64 310.665 112.998 310.583 113.301 310.42C113.604 310.254 113.837 310.034 114 309.761C114.167 309.489 114.25 309.191 114.25 308.869V307.841C114.186 307.894 114.076 307.943 113.92 307.989C113.769 308.034 113.598 308.074 113.409 308.108C113.22 308.142 113.032 308.172 112.847 308.199C112.661 308.225 112.5 308.248 112.364 308.267C112.057 308.309 111.782 308.377 111.54 308.472C111.297 308.566 111.106 308.699 110.966 308.869C110.826 309.036 110.756 309.252 110.756 309.517C110.756 309.896 110.894 310.182 111.17 310.375C111.447 310.568 111.799 310.665 112.227 310.665ZM125.267 305.58L123.392 305.784C123.339 305.595 123.246 305.417 123.114 305.25C122.985 305.083 122.811 304.949 122.591 304.847C122.371 304.744 122.102 304.693 121.784 304.693C121.356 304.693 120.996 304.786 120.705 304.972C120.417 305.157 120.275 305.398 120.278 305.693C120.275 305.947 120.367 306.153 120.557 306.312C120.75 306.472 121.068 306.602 121.511 306.705L123 307.023C123.826 307.201 124.439 307.483 124.841 307.869C125.246 308.256 125.451 308.761 125.455 309.386C125.451 309.936 125.29 310.42 124.972 310.841C124.657 311.258 124.22 311.583 123.659 311.818C123.098 312.053 122.455 312.17 121.727 312.17C120.659 312.17 119.799 311.947 119.148 311.5C118.496 311.049 118.108 310.422 117.983 309.619L119.989 309.426C120.08 309.82 120.273 310.117 120.568 310.318C120.864 310.519 121.248 310.619 121.722 310.619C122.21 310.619 122.602 310.519 122.898 310.318C123.197 310.117 123.347 309.869 123.347 309.574C123.347 309.324 123.25 309.117 123.057 308.955C122.867 308.792 122.572 308.667 122.17 308.58L120.682 308.267C119.845 308.093 119.225 307.799 118.824 307.386C118.422 306.97 118.223 306.443 118.227 305.807C118.223 305.269 118.369 304.803 118.665 304.409C118.964 304.011 119.379 303.705 119.909 303.489C120.443 303.269 121.059 303.159 121.756 303.159C122.778 303.159 123.583 303.377 124.17 303.812C124.761 304.248 125.127 304.837 125.267 305.58ZM131.014 312.17C130.139 312.17 129.384 311.989 128.747 311.625C128.115 311.258 127.628 310.739 127.287 310.068C126.946 309.394 126.776 308.6 126.776 307.688C126.776 306.79 126.946 306.002 127.287 305.324C127.632 304.642 128.113 304.112 128.73 303.733C129.348 303.35 130.073 303.159 130.906 303.159C131.444 303.159 131.952 303.246 132.429 303.42C132.91 303.591 133.334 303.856 133.702 304.216C134.073 304.576 134.365 305.034 134.577 305.591C134.789 306.144 134.895 306.803 134.895 307.568V308.199H127.741V306.812H132.923C132.92 306.419 132.834 306.068 132.668 305.761C132.501 305.451 132.268 305.206 131.969 305.028C131.673 304.85 131.329 304.761 130.935 304.761C130.514 304.761 130.145 304.864 129.827 305.068C129.509 305.269 129.26 305.534 129.082 305.864C128.908 306.189 128.819 306.547 128.815 306.938V308.148C128.815 308.655 128.908 309.091 129.094 309.455C129.279 309.814 129.539 310.091 129.872 310.284C130.205 310.473 130.596 310.568 131.043 310.568C131.342 310.568 131.613 310.527 131.855 310.443C132.098 310.356 132.308 310.229 132.486 310.062C132.664 309.896 132.798 309.689 132.889 309.443L134.81 309.659C134.688 310.167 134.457 310.61 134.116 310.989C133.779 311.364 133.348 311.655 132.821 311.864C132.295 312.068 131.692 312.17 131.014 312.17ZM138.692 306.886V312H136.635V303.273H138.601V304.756H138.703C138.904 304.267 139.224 303.879 139.663 303.591C140.107 303.303 140.654 303.159 141.305 303.159C141.908 303.159 142.432 303.288 142.879 303.545C143.33 303.803 143.679 304.176 143.925 304.665C144.175 305.153 144.298 305.746 144.294 306.443V312H142.237V306.761C142.237 306.178 142.086 305.722 141.783 305.392C141.483 305.062 141.069 304.898 140.538 304.898C140.179 304.898 139.858 304.977 139.578 305.136C139.302 305.292 139.084 305.517 138.925 305.812C138.769 306.108 138.692 306.466 138.692 306.886ZM138.788 302.21L137.544 302.182C137.544 301.508 137.718 300.979 138.067 300.597C138.415 300.214 138.845 300.023 139.357 300.023C139.603 300.023 139.817 300.064 139.999 300.148C140.18 300.227 140.347 300.32 140.499 300.426C140.654 300.532 140.805 300.627 140.953 300.71C141.101 300.79 141.264 300.83 141.442 300.83C141.658 300.83 141.828 300.748 141.953 300.585C142.082 300.422 142.148 300.214 142.152 299.96L143.374 300.011C143.37 300.689 143.194 301.216 142.845 301.591C142.497 301.962 142.069 302.15 141.561 302.153C141.288 302.157 141.059 302.117 140.874 302.034C140.688 301.951 140.525 301.856 140.385 301.75C140.249 301.644 140.11 301.551 139.97 301.472C139.83 301.388 139.665 301.347 139.476 301.347C139.275 301.347 139.11 301.426 138.982 301.585C138.853 301.744 138.788 301.953 138.788 302.21ZM148.896 312.176C148.343 312.176 147.845 312.078 147.402 311.881C146.963 311.68 146.614 311.384 146.357 310.994C146.103 310.604 145.976 310.123 145.976 309.551C145.976 309.059 146.067 308.652 146.249 308.33C146.43 308.008 146.679 307.75 146.993 307.557C147.307 307.364 147.661 307.218 148.055 307.119C148.453 307.017 148.864 306.943 149.288 306.898C149.8 306.845 150.214 306.797 150.533 306.756C150.851 306.71 151.082 306.642 151.226 306.551C151.374 306.456 151.447 306.311 151.447 306.114V306.08C151.447 305.652 151.321 305.32 151.067 305.085C150.813 304.85 150.447 304.733 149.97 304.733C149.466 304.733 149.067 304.843 148.771 305.062C148.48 305.282 148.283 305.542 148.18 305.841L146.26 305.568C146.411 305.038 146.661 304.595 147.01 304.239C147.358 303.879 147.785 303.61 148.288 303.432C148.792 303.25 149.349 303.159 149.959 303.159C150.379 303.159 150.798 303.208 151.214 303.307C151.631 303.405 152.012 303.568 152.357 303.795C152.701 304.019 152.978 304.324 153.186 304.71C153.398 305.097 153.504 305.58 153.504 306.159V312H151.527V310.801H151.459C151.334 311.044 151.158 311.271 150.93 311.483C150.707 311.691 150.425 311.86 150.084 311.989C149.747 312.114 149.351 312.176 148.896 312.176ZM149.43 310.665C149.843 310.665 150.201 310.583 150.504 310.42C150.807 310.254 151.04 310.034 151.203 309.761C151.37 309.489 151.453 309.191 151.453 308.869V307.841C151.389 307.894 151.279 307.943 151.124 307.989C150.972 308.034 150.802 308.074 150.612 308.108C150.423 308.142 150.235 308.172 150.05 308.199C149.864 308.225 149.703 308.248 149.567 308.267C149.26 308.309 148.985 308.377 148.743 308.472C148.5 308.566 148.309 308.699 148.169 308.869C148.029 309.036 147.959 309.252 147.959 309.517C147.959 309.896 148.097 310.182 148.374 310.375C148.65 310.568 149.002 310.665 149.43 310.665Z" fill="#4B4B4B"/>
<path d="M49 394C49 390.134 52.134 387 56 387H318C322.971 387 327 391.029 327 396V416C327 420.971 322.971 425 318 425H58C53.0294 425 49 420.971 49 416V394Z" fill="#FFFDFB" stroke="#B9A78E" stroke-width="2"/>
<path d="M75.5298 404.29H73.4048C73.3442 403.941 73.2325 403.633 73.0696 403.364C72.9067 403.091 72.7041 402.86 72.4616 402.67C72.2192 402.481 71.9427 402.339 71.6321 402.244C71.3253 402.146 70.9938 402.097 70.6378 402.097C70.0052 402.097 69.4446 402.256 68.956 402.574C68.4673 402.888 68.0848 403.35 67.8082 403.96C67.5317 404.566 67.3935 405.307 67.3935 406.182C67.3935 407.072 67.5317 407.822 67.8082 408.432C68.0885 409.038 68.4711 409.496 68.956 409.807C69.4446 410.114 70.0033 410.267 70.6321 410.267C70.9806 410.267 71.3063 410.222 71.6094 410.131C71.9162 410.036 72.1908 409.898 72.4332 409.716C72.6795 409.534 72.8859 409.311 73.0526 409.045C73.223 408.78 73.3404 408.477 73.4048 408.136L75.5298 408.148C75.4503 408.701 75.2779 409.22 75.0128 409.705C74.7514 410.189 74.4086 410.617 73.9844 410.989C73.5601 411.356 73.0639 411.644 72.4957 411.852C71.9276 412.057 71.2969 412.159 70.6037 412.159C69.581 412.159 68.6681 411.922 67.8651 411.449C67.062 410.975 66.4295 410.292 65.9673 409.398C65.5052 408.504 65.2741 407.432 65.2741 406.182C65.2741 404.928 65.5071 403.856 65.973 402.966C66.4389 402.072 67.0734 401.388 67.8764 400.915C68.6795 400.441 69.5885 400.205 70.6037 400.205C71.2514 400.205 71.8537 400.295 72.4105 400.477C72.9673 400.659 73.4635 400.926 73.8991 401.278C74.3348 401.627 74.6927 402.055 74.973 402.562C75.2571 403.066 75.4427 403.642 75.5298 404.29ZM81.1761 412.17C80.3239 412.17 79.5852 411.983 78.9602 411.608C78.3352 411.233 77.8504 410.708 77.5057 410.034C77.1648 409.36 76.9943 408.572 76.9943 407.67C76.9943 406.769 77.1648 405.979 77.5057 405.301C77.8504 404.623 78.3352 404.097 78.9602 403.722C79.5852 403.347 80.3239 403.159 81.1761 403.159C82.0284 403.159 82.767 403.347 83.392 403.722C84.017 404.097 84.5 404.623 84.8409 405.301C85.1856 405.979 85.358 406.769 85.358 407.67C85.358 408.572 85.1856 409.36 84.8409 410.034C84.5 410.708 84.017 411.233 83.392 411.608C82.767 411.983 82.0284 412.17 81.1761 412.17ZM81.1875 410.523C81.6496 410.523 82.036 410.396 82.3466 410.142C82.6572 409.884 82.8883 409.54 83.0398 409.108C83.1951 408.676 83.2727 408.195 83.2727 407.665C83.2727 407.131 83.1951 406.648 83.0398 406.216C82.8883 405.78 82.6572 405.434 82.3466 405.176C82.036 404.919 81.6496 404.79 81.1875 404.79C80.714 404.79 80.3201 404.919 80.0057 405.176C79.6951 405.434 79.4621 405.78 79.3068 406.216C79.1553 406.648 79.0795 407.131 79.0795 407.665C79.0795 408.195 79.1553 408.676 79.3068 409.108C79.4621 409.54 79.6951 409.884 80.0057 410.142C80.3201 410.396 80.714 410.523 81.1875 410.523ZM89.1605 406.886V412H87.1037V403.273H89.0696V404.756H89.1719C89.3726 404.267 89.6927 403.879 90.1321 403.591C90.5753 403.303 91.1226 403.159 91.7741 403.159C92.3764 403.159 92.901 403.288 93.348 403.545C93.7988 403.803 94.1473 404.176 94.3935 404.665C94.6435 405.153 94.7666 405.746 94.7628 406.443V412H92.706V406.761C92.706 406.178 92.5545 405.722 92.2514 405.392C91.9522 405.062 91.5374 404.898 91.0071 404.898C90.6473 404.898 90.3272 404.977 90.0469 405.136C89.7704 405.292 89.5526 405.517 89.3935 405.812C89.2382 406.108 89.1605 406.466 89.1605 406.886ZM101.274 403.273V404.864H96.1151V403.273H101.274ZM97.4048 412V402.449C97.4048 401.862 97.526 401.373 97.7685 400.983C98.0147 400.593 98.3442 400.301 98.7571 400.108C99.17 399.915 99.6283 399.818 100.132 399.818C100.488 399.818 100.804 399.847 101.081 399.903C101.357 399.96 101.562 400.011 101.695 400.057L101.286 401.648C101.198 401.621 101.089 401.595 100.956 401.568C100.823 401.538 100.676 401.523 100.513 401.523C100.13 401.523 99.8594 401.616 99.7003 401.801C99.545 401.983 99.4673 402.244 99.4673 402.585V412H97.4048ZM102.885 412V403.273H104.942V412H102.885ZM103.919 402.034C103.593 402.034 103.313 401.926 103.078 401.71C102.843 401.491 102.726 401.227 102.726 400.92C102.726 400.61 102.843 400.347 103.078 400.131C103.313 399.911 103.593 399.801 103.919 399.801C104.249 399.801 104.529 399.911 104.76 400.131C104.995 400.347 105.112 400.61 105.112 400.92C105.112 401.227 104.995 401.491 104.76 401.71C104.529 401.926 104.249 402.034 103.919 402.034ZM107.057 412V403.273H109.051V404.727H109.142C109.301 404.223 109.574 403.835 109.96 403.562C110.35 403.286 110.795 403.148 111.295 403.148C111.409 403.148 111.536 403.153 111.676 403.165C111.82 403.172 111.939 403.186 112.034 403.205V405.097C111.947 405.066 111.809 405.04 111.619 405.017C111.434 404.991 111.254 404.977 111.08 404.977C110.705 404.977 110.367 405.059 110.068 405.222C109.773 405.381 109.54 405.602 109.369 405.886C109.199 406.17 109.114 406.498 109.114 406.869V412H107.057ZM113.401 412V403.273H115.366V404.756H115.469C115.651 404.256 115.952 403.866 116.372 403.585C116.793 403.301 117.295 403.159 117.878 403.159C118.469 403.159 118.967 403.303 119.372 403.591C119.781 403.875 120.069 404.263 120.236 404.756H120.327C120.52 404.271 120.846 403.884 121.304 403.597C121.766 403.305 122.313 403.159 122.946 403.159C123.749 403.159 124.404 403.413 124.912 403.92C125.42 404.428 125.673 405.169 125.673 406.142V412H123.611V406.46C123.611 405.919 123.467 405.523 123.179 405.273C122.891 405.019 122.539 404.892 122.122 404.892C121.626 404.892 121.238 405.047 120.957 405.358C120.681 405.665 120.543 406.064 120.543 406.557V412H118.526V406.375C118.526 405.924 118.389 405.564 118.116 405.295C117.848 405.027 117.495 404.892 117.06 404.892C116.764 404.892 116.495 404.968 116.253 405.119C116.01 405.267 115.817 405.477 115.673 405.75C115.529 406.019 115.457 406.333 115.457 406.693V412H113.401ZM130.271 412.176C129.718 412.176 129.22 412.078 128.777 411.881C128.338 411.68 127.989 411.384 127.732 410.994C127.478 410.604 127.351 410.123 127.351 409.551C127.351 409.059 127.442 408.652 127.624 408.33C127.805 408.008 128.054 407.75 128.368 407.557C128.682 407.364 129.036 407.218 129.43 407.119C129.828 407.017 130.239 406.943 130.663 406.898C131.175 406.845 131.589 406.797 131.908 406.756C132.226 406.71 132.457 406.642 132.601 406.551C132.749 406.456 132.822 406.311 132.822 406.114V406.08C132.822 405.652 132.696 405.32 132.442 405.085C132.188 404.85 131.822 404.733 131.345 404.733C130.841 404.733 130.442 404.843 130.146 405.062C129.855 405.282 129.658 405.542 129.555 405.841L127.635 405.568C127.786 405.038 128.036 404.595 128.385 404.239C128.733 403.879 129.16 403.61 129.663 403.432C130.167 403.25 130.724 403.159 131.334 403.159C131.754 403.159 132.173 403.208 132.589 403.307C133.006 403.405 133.387 403.568 133.732 403.795C134.076 404.019 134.353 404.324 134.561 404.71C134.773 405.097 134.879 405.58 134.879 406.159V412H132.902V410.801H132.834C132.709 411.044 132.533 411.271 132.305 411.483C132.082 411.691 131.8 411.86 131.459 411.989C131.122 412.114 130.726 412.176 130.271 412.176ZM130.805 410.665C131.218 410.665 131.576 410.583 131.879 410.42C132.182 410.254 132.415 410.034 132.578 409.761C132.745 409.489 132.828 409.191 132.828 408.869V407.841C132.764 407.894 132.654 407.943 132.499 407.989C132.347 408.034 132.177 408.074 131.987 408.108C131.798 408.142 131.61 408.172 131.425 408.199C131.239 408.225 131.078 408.248 130.942 408.267C130.635 408.309 130.36 408.377 130.118 408.472C129.875 408.566 129.684 408.699 129.544 408.869C129.404 409.036 129.334 409.252 129.334 409.517C129.334 409.896 129.472 410.182 129.749 410.375C130.025 410.568 130.377 410.665 130.805 410.665ZM136.947 412V403.273H138.942V404.727H139.033C139.192 404.223 139.464 403.835 139.851 403.562C140.241 403.286 140.686 403.148 141.186 403.148C141.3 403.148 141.427 403.153 141.567 403.165C141.711 403.172 141.83 403.186 141.925 403.205V405.097C141.838 405.066 141.699 405.04 141.51 405.017C141.324 404.991 141.144 404.977 140.97 404.977C140.595 404.977 140.258 405.059 139.959 405.222C139.663 405.381 139.43 405.602 139.26 405.886C139.089 406.17 139.004 406.498 139.004 406.869V412H136.947ZM151.067 412.17C150.196 412.17 149.447 411.979 148.822 411.597C148.201 411.214 147.722 410.686 147.385 410.011C147.052 409.333 146.885 408.553 146.885 407.67C146.885 406.784 147.055 406.002 147.396 405.324C147.737 404.642 148.218 404.112 148.839 403.733C149.464 403.35 150.203 403.159 151.055 403.159C151.764 403.159 152.391 403.29 152.936 403.551C153.485 403.809 153.923 404.174 154.249 404.648C154.574 405.117 154.76 405.667 154.805 406.295H152.839C152.76 405.875 152.571 405.525 152.271 405.244C151.976 404.96 151.58 404.818 151.084 404.818C150.663 404.818 150.294 404.932 149.976 405.159C149.658 405.383 149.41 405.705 149.232 406.125C149.057 406.545 148.97 407.049 148.97 407.636C148.97 408.231 149.057 408.742 149.232 409.17C149.406 409.595 149.65 409.922 149.964 410.153C150.283 410.381 150.656 410.494 151.084 410.494C151.387 410.494 151.658 410.437 151.896 410.324C152.139 410.206 152.341 410.038 152.504 409.818C152.667 409.598 152.779 409.331 152.839 409.017H154.805C154.756 409.634 154.574 410.182 154.26 410.659C153.946 411.133 153.518 411.504 152.976 411.773C152.434 412.038 151.798 412.17 151.067 412.17ZM160.301 412.17C159.449 412.17 158.71 411.983 158.085 411.608C157.46 411.233 156.975 410.708 156.631 410.034C156.29 409.36 156.119 408.572 156.119 407.67C156.119 406.769 156.29 405.979 156.631 405.301C156.975 404.623 157.46 404.097 158.085 403.722C158.71 403.347 159.449 403.159 160.301 403.159C161.153 403.159 161.892 403.347 162.517 403.722C163.142 404.097 163.625 404.623 163.966 405.301C164.311 405.979 164.483 406.769 164.483 407.67C164.483 408.572 164.311 409.36 163.966 410.034C163.625 410.708 163.142 411.233 162.517 411.608C161.892 411.983 161.153 412.17 160.301 412.17ZM160.312 410.523C160.775 410.523 161.161 410.396 161.472 410.142C161.782 409.884 162.013 409.54 162.165 409.108C162.32 408.676 162.398 408.195 162.398 407.665C162.398 407.131 162.32 406.648 162.165 406.216C162.013 405.78 161.782 405.434 161.472 405.176C161.161 404.919 160.775 404.79 160.312 404.79C159.839 404.79 159.445 404.919 159.131 405.176C158.82 405.434 158.587 405.78 158.432 406.216C158.28 406.648 158.205 407.131 158.205 407.665C158.205 408.195 158.28 408.676 158.432 409.108C158.587 409.54 158.82 409.884 159.131 410.142C159.445 410.396 159.839 410.523 160.312 410.523ZM168.286 406.886V412H166.229V403.273H168.195V404.756H168.297C168.498 404.267 168.818 403.879 169.257 403.591C169.7 403.303 170.248 403.159 170.899 403.159C171.501 403.159 172.026 403.288 172.473 403.545C172.924 403.803 173.272 404.176 173.518 404.665C173.768 405.153 173.892 405.746 173.888 406.443V412H171.831V406.761C171.831 406.178 171.679 405.722 171.376 405.392C171.077 405.062 170.662 404.898 170.132 404.898C169.772 404.898 169.452 404.977 169.172 405.136C168.895 405.292 168.678 405.517 168.518 405.812C168.363 406.108 168.286 406.466 168.286 406.886ZM180.337 403.273V404.864H175.32V403.273H180.337ZM176.558 401.182H178.615V409.375C178.615 409.652 178.657 409.864 178.74 410.011C178.827 410.155 178.941 410.254 179.081 410.307C179.221 410.36 179.376 410.386 179.547 410.386C179.676 410.386 179.793 410.377 179.899 410.358C180.009 410.339 180.092 410.322 180.149 410.307L180.496 411.915C180.386 411.953 180.229 411.994 180.024 412.04C179.823 412.085 179.577 412.112 179.286 412.119C178.77 412.134 178.306 412.057 177.893 411.886C177.481 411.712 177.153 411.443 176.911 411.08C176.672 410.716 176.554 410.261 176.558 409.716V401.182ZM182.057 412V403.273H184.051V404.727H184.142C184.301 404.223 184.574 403.835 184.96 403.562C185.35 403.286 185.795 403.148 186.295 403.148C186.409 403.148 186.536 403.153 186.676 403.165C186.82 403.172 186.939 403.186 187.034 403.205V405.097C186.947 405.066 186.809 405.04 186.619 405.017C186.434 404.991 186.254 404.977 186.08 404.977C185.705 404.977 185.367 405.059 185.068 405.222C184.773 405.381 184.54 405.602 184.369 405.886C184.199 406.17 184.114 406.498 184.114 406.869V412H182.057ZM190.756 412.176C190.203 412.176 189.705 412.078 189.261 411.881C188.822 411.68 188.473 411.384 188.216 410.994C187.962 410.604 187.835 410.123 187.835 409.551C187.835 409.059 187.926 408.652 188.108 408.33C188.29 408.008 188.538 407.75 188.852 407.557C189.167 407.364 189.521 407.218 189.915 407.119C190.313 407.017 190.723 406.943 191.148 406.898C191.659 406.845 192.074 406.797 192.392 406.756C192.71 406.71 192.941 406.642 193.085 406.551C193.233 406.456 193.307 406.311 193.307 406.114V406.08C193.307 405.652 193.18 405.32 192.926 405.085C192.672 404.85 192.307 404.733 191.83 404.733C191.326 404.733 190.926 404.843 190.631 405.062C190.339 405.282 190.142 405.542 190.04 405.841L188.119 405.568C188.271 405.038 188.521 404.595 188.869 404.239C189.218 403.879 189.644 403.61 190.148 403.432C190.652 403.25 191.208 403.159 191.818 403.159C192.239 403.159 192.657 403.208 193.074 403.307C193.491 403.405 193.871 403.568 194.216 403.795C194.561 404.019 194.837 404.324 195.045 404.71C195.258 405.097 195.364 405.58 195.364 406.159V412H193.386V410.801H193.318C193.193 411.044 193.017 411.271 192.79 411.483C192.566 411.691 192.284 411.86 191.943 411.989C191.606 412.114 191.21 412.176 190.756 412.176ZM191.29 410.665C191.703 410.665 192.061 410.583 192.364 410.42C192.667 410.254 192.9 410.034 193.062 409.761C193.229 409.489 193.312 409.191 193.312 408.869V407.841C193.248 407.894 193.138 407.943 192.983 407.989C192.831 408.034 192.661 408.074 192.472 408.108C192.282 408.142 192.095 408.172 191.909 408.199C191.723 408.225 191.563 408.248 191.426 408.267C191.119 408.309 190.845 408.377 190.602 408.472C190.36 408.566 190.169 408.699 190.028 408.869C189.888 409.036 189.818 409.252 189.818 409.517C189.818 409.896 189.956 410.182 190.233 410.375C190.509 410.568 190.862 410.665 191.29 410.665ZM204.33 405.58L202.455 405.784C202.402 405.595 202.309 405.417 202.176 405.25C202.047 405.083 201.873 404.949 201.653 404.847C201.434 404.744 201.165 404.693 200.847 404.693C200.419 404.693 200.059 404.786 199.767 404.972C199.479 405.157 199.337 405.398 199.341 405.693C199.337 405.947 199.43 406.153 199.619 406.312C199.813 406.472 200.131 406.602 200.574 406.705L202.062 407.023C202.888 407.201 203.502 407.483 203.903 407.869C204.309 408.256 204.513 408.761 204.517 409.386C204.513 409.936 204.352 410.42 204.034 410.841C203.72 411.258 203.282 411.583 202.722 411.818C202.161 412.053 201.517 412.17 200.79 412.17C199.722 412.17 198.862 411.947 198.21 411.5C197.559 411.049 197.17 410.422 197.045 409.619L199.051 409.426C199.142 409.82 199.335 410.117 199.631 410.318C199.926 410.519 200.311 410.619 200.784 410.619C201.273 410.619 201.665 410.519 201.96 410.318C202.259 410.117 202.409 409.869 202.409 409.574C202.409 409.324 202.313 409.117 202.119 408.955C201.93 408.792 201.634 408.667 201.233 408.58L199.744 408.267C198.907 408.093 198.288 407.799 197.886 407.386C197.485 406.97 197.286 406.443 197.29 405.807C197.286 405.269 197.432 404.803 197.727 404.409C198.027 404.011 198.441 403.705 198.972 403.489C199.506 403.269 200.121 403.159 200.818 403.159C201.841 403.159 202.646 403.377 203.233 403.812C203.824 404.248 204.189 404.837 204.33 405.58ZM210.077 412.17C209.202 412.17 208.446 411.989 207.81 411.625C207.177 411.258 206.69 410.739 206.349 410.068C206.009 409.394 205.838 408.6 205.838 407.688C205.838 406.79 206.009 406.002 206.349 405.324C206.694 404.642 207.175 404.112 207.793 403.733C208.41 403.35 209.135 403.159 209.969 403.159C210.507 403.159 211.014 403.246 211.491 403.42C211.973 403.591 212.397 403.856 212.764 404.216C213.135 404.576 213.427 405.034 213.639 405.591C213.851 406.144 213.957 406.803 213.957 407.568V408.199H206.804V406.812H211.986C211.982 406.419 211.897 406.068 211.73 405.761C211.563 405.451 211.33 405.206 211.031 405.028C210.736 404.85 210.391 404.761 209.997 404.761C209.577 404.761 209.207 404.864 208.889 405.068C208.571 405.269 208.323 405.534 208.145 405.864C207.971 406.189 207.882 406.547 207.878 406.938V408.148C207.878 408.655 207.971 409.091 208.156 409.455C208.342 409.814 208.601 410.091 208.935 410.284C209.268 410.473 209.658 410.568 210.105 410.568C210.404 410.568 210.675 410.527 210.918 410.443C211.16 410.356 211.37 410.229 211.548 410.062C211.726 409.896 211.861 409.689 211.952 409.443L213.872 409.659C213.751 410.167 213.52 410.61 213.179 410.989C212.842 411.364 212.41 411.655 211.884 411.864C211.357 412.068 210.755 412.17 210.077 412.17ZM217.754 406.886V412H215.697V403.273H217.663V404.756H217.766C217.966 404.267 218.286 403.879 218.726 403.591C219.169 403.303 219.716 403.159 220.368 403.159C220.97 403.159 221.495 403.288 221.942 403.545C222.393 403.803 222.741 404.176 222.987 404.665C223.237 405.153 223.36 405.746 223.357 406.443V412H221.3V406.761C221.3 406.178 221.148 405.722 220.845 405.392C220.546 405.062 220.131 404.898 219.601 404.898C219.241 404.898 218.921 404.977 218.641 405.136C218.364 405.292 218.146 405.517 217.987 405.812C217.832 406.108 217.754 406.466 217.754 406.886ZM217.851 402.21L216.607 402.182C216.607 401.508 216.781 400.979 217.129 400.597C217.478 400.214 217.908 400.023 218.419 400.023C218.665 400.023 218.879 400.064 219.061 400.148C219.243 400.227 219.41 400.32 219.561 400.426C219.716 400.532 219.868 400.627 220.016 400.71C220.163 400.79 220.326 400.83 220.504 400.83C220.72 400.83 220.891 400.748 221.016 400.585C221.144 400.422 221.211 400.214 221.214 399.96L222.436 400.011C222.432 400.689 222.256 401.216 221.908 401.591C221.559 401.962 221.131 402.15 220.624 402.153C220.351 402.157 220.122 402.117 219.936 402.034C219.75 401.951 219.588 401.856 219.447 401.75C219.311 401.644 219.173 401.551 219.033 401.472C218.893 401.388 218.728 401.347 218.538 401.347C218.338 401.347 218.173 401.426 218.044 401.585C217.915 401.744 217.851 401.953 217.851 402.21ZM227.959 412.176C227.406 412.176 226.908 412.078 226.464 411.881C226.025 411.68 225.677 411.384 225.419 410.994C225.165 410.604 225.038 410.123 225.038 409.551C225.038 409.059 225.129 408.652 225.311 408.33C225.493 408.008 225.741 407.75 226.055 407.557C226.37 407.364 226.724 407.218 227.118 407.119C227.516 407.017 227.927 406.943 228.351 406.898C228.862 406.845 229.277 406.797 229.595 406.756C229.913 406.71 230.144 406.642 230.288 406.551C230.436 406.456 230.51 406.311 230.51 406.114V406.08C230.51 405.652 230.383 405.32 230.129 405.085C229.875 404.85 229.51 404.733 229.033 404.733C228.529 404.733 228.129 404.843 227.834 405.062C227.542 405.282 227.345 405.542 227.243 405.841L225.322 405.568C225.474 405.038 225.724 404.595 226.072 404.239C226.421 403.879 226.847 403.61 227.351 403.432C227.855 403.25 228.411 403.159 229.021 403.159C229.442 403.159 229.86 403.208 230.277 403.307C230.694 403.405 231.074 403.568 231.419 403.795C231.764 404.019 232.04 404.324 232.249 404.71C232.461 405.097 232.567 405.58 232.567 406.159V412H230.589V410.801H230.521C230.396 411.044 230.22 411.271 229.993 411.483C229.769 411.691 229.487 411.86 229.146 411.989C228.809 412.114 228.413 412.176 227.959 412.176ZM228.493 410.665C228.906 410.665 229.264 410.583 229.567 410.42C229.87 410.254 230.103 410.034 230.266 409.761C230.432 409.489 230.516 409.191 230.516 408.869V407.841C230.451 407.894 230.341 407.943 230.186 407.989C230.035 408.034 229.864 408.074 229.675 408.108C229.485 408.142 229.298 408.172 229.112 408.199C228.927 408.225 228.766 408.248 228.629 408.267C228.322 408.309 228.048 408.377 227.805 408.472C227.563 408.566 227.372 408.699 227.232 408.869C227.091 409.036 227.021 409.252 227.021 409.517C227.021 409.896 227.16 410.182 227.436 410.375C227.713 410.568 228.065 410.665 228.493 410.665Z" fill="#4B4B4B"/>
</svg>
