<svg width="280" height="227" viewBox="0 0 280 227" fill="none" xmlns="http://www.w3.org/2000/svg">
<path d="M31.3526 2.81818V29H26.6097V2.81818H31.3526ZM40.9119 17.4943V29H36.2841V9.36364H40.7074V12.7003H40.9375C41.3892 11.6009 42.1094 10.7273 43.098 10.0795C44.0952 9.43182 45.3267 9.10795 46.7926 9.10795C48.1477 9.10795 49.3281 9.39773 50.3338 9.97727C51.348 10.5568 52.1321 11.3963 52.6861 12.4957C53.2486 13.5952 53.5256 14.929 53.517 16.4972V29H48.8892V17.2131C48.8892 15.9006 48.5483 14.8736 47.8665 14.1321C47.1932 13.3906 46.2599 13.0199 45.0668 13.0199C44.2571 13.0199 43.5369 13.1989 42.9062 13.5568C42.2841 13.9062 41.794 14.4134 41.4361 15.0781C41.0866 15.7429 40.9119 16.5483 40.9119 17.4943ZM58.2216 29V9.36364H62.8494V29H58.2216ZM60.5483 6.5767C59.8153 6.5767 59.1847 6.33381 58.6562 5.84801C58.1278 5.35369 57.8636 4.76136 57.8636 4.07102C57.8636 3.37216 58.1278 2.77983 58.6562 2.29403C59.1847 1.79971 59.8153 1.55256 60.5483 1.55256C61.2898 1.55256 61.9205 1.79971 62.4403 2.29403C62.9688 2.77983 63.233 3.37216 63.233 4.07102C63.233 4.76136 62.9688 5.35369 62.4403 5.84801C61.9205 6.33381 61.2898 6.5767 60.5483 6.5767ZM76.1737 29.3835C74.2134 29.3835 72.5302 28.9531 71.1239 28.0923C69.7262 27.2315 68.6481 26.0426 67.8896 24.5256C67.1396 23 66.7646 21.2443 66.7646 19.2585C66.7646 17.2642 67.1481 15.5043 67.9151 13.9787C68.6822 12.4446 69.7646 11.2514 71.1623 10.3991C72.5685 9.53835 74.2305 9.10795 76.1481 9.10795C77.7418 9.10795 79.1523 9.40199 80.3796 9.99006C81.6154 10.5696 82.5998 11.392 83.3327 12.4574C84.0657 13.5142 84.4833 14.75 84.5856 16.1648H80.1623C79.9833 15.2187 79.5572 14.4304 78.8839 13.7997C78.2191 13.1605 77.3285 12.8409 76.212 12.8409C75.266 12.8409 74.435 13.0966 73.7191 13.608C73.0032 14.1108 72.445 14.8352 72.0444 15.7812C71.6523 16.7273 71.4563 17.8608 71.4563 19.1818C71.4563 20.5199 71.6523 21.6705 72.0444 22.6335C72.4364 23.5881 72.9862 24.3253 73.6935 24.8452C74.4094 25.3565 75.2489 25.6122 76.212 25.6122C76.8938 25.6122 77.5032 25.4844 78.0401 25.2287C78.5856 24.9645 79.0415 24.5852 79.408 24.0909C79.7745 23.5966 80.0259 22.9957 80.1623 22.2884H84.5856C84.4748 23.6776 84.0657 24.9091 83.3583 25.983C82.6509 27.0483 81.6879 27.8835 80.4691 28.4886C79.2504 29.0852 77.8185 29.3835 76.1737 29.3835ZM88.3857 29V9.36364H93.0135V29H88.3857ZM90.7124 6.5767C89.9794 6.5767 89.3487 6.33381 88.8203 5.84801C88.2919 5.35369 88.0277 4.76136 88.0277 4.07102C88.0277 3.37216 88.2919 2.77983 88.8203 2.29403C89.3487 1.79971 89.9794 1.55256 90.7124 1.55256C91.4538 1.55256 92.0845 1.79971 92.6044 2.29403C93.1328 2.77983 93.397 3.37216 93.397 4.07102C93.397 4.76136 93.1328 5.35369 92.6044 5.84801C92.0845 6.33381 91.4538 6.5767 90.7124 6.5767ZM103.423 29.3963C102.179 29.3963 101.058 29.1747 100.061 28.7315C99.0721 28.2798 98.288 27.6151 97.7085 26.7372C97.1374 25.8594 96.8519 24.777 96.8519 23.4901C96.8519 22.3821 97.0565 21.4659 97.4656 20.7415C97.8746 20.017 98.4329 19.4375 99.1403 19.0028C99.8477 18.5682 100.645 18.2401 101.531 18.0185C102.426 17.7884 103.35 17.6222 104.305 17.5199C105.456 17.4006 106.389 17.294 107.105 17.2003C107.821 17.098 108.341 16.9446 108.664 16.7401C108.997 16.527 109.163 16.1989 109.163 15.7557V15.679C109.163 14.7159 108.877 13.9702 108.306 13.4418C107.735 12.9134 106.913 12.6491 105.839 12.6491C104.706 12.6491 103.806 12.8963 103.142 13.3906C102.485 13.8849 102.042 14.4687 101.812 15.142L97.4911 14.5284C97.832 13.3352 98.3945 12.3381 99.1786 11.5369C99.9627 10.7273 100.922 10.1222 102.055 9.72159C103.189 9.3125 104.441 9.10795 105.814 9.10795C106.76 9.10795 107.701 9.21875 108.639 9.44034C109.576 9.66193 110.433 10.0284 111.208 10.5398C111.984 11.0426 112.606 11.7287 113.075 12.598C113.552 13.4673 113.791 14.554 113.791 15.858V29H109.342V26.3026H109.189C108.907 26.848 108.511 27.3594 108 27.8366C107.497 28.3054 106.862 28.6847 106.095 28.9744C105.336 29.2557 104.446 29.3963 103.423 29.3963ZM104.625 25.9957C105.554 25.9957 106.359 25.8125 107.041 25.446C107.723 25.071 108.247 24.5767 108.613 23.9631C108.988 23.3494 109.176 22.6804 109.176 21.956V19.642C109.031 19.7614 108.784 19.8722 108.434 19.9744C108.093 20.0767 107.71 20.1662 107.284 20.2429C106.858 20.3196 106.436 20.3878 106.018 20.4474C105.6 20.5071 105.238 20.5582 104.931 20.6009C104.241 20.6946 103.623 20.848 103.078 21.0611C102.532 21.2741 102.102 21.5724 101.787 21.956C101.471 22.331 101.314 22.8168 101.314 23.4134C101.314 24.2656 101.625 24.9091 102.247 25.3438C102.869 25.7784 103.662 25.9957 104.625 25.9957ZM118.444 29V9.36364H122.931V12.6364H123.136C123.494 11.5028 124.108 10.6293 124.977 10.0156C125.855 9.39347 126.856 9.08239 127.981 9.08239C128.237 9.08239 128.522 9.09517 128.838 9.12074C129.162 9.13778 129.43 9.16761 129.643 9.21023V13.4673C129.447 13.3991 129.136 13.3395 128.71 13.2884C128.292 13.2287 127.887 13.1989 127.495 13.1989C126.652 13.1989 125.893 13.3821 125.22 13.7486C124.555 14.1065 124.031 14.6051 123.647 15.2443C123.264 15.8835 123.072 16.6207 123.072 17.456V29H118.444ZM156.081 10.0156C155.961 8.89915 155.458 8.02983 154.572 7.40767C153.694 6.78551 152.552 6.47443 151.146 6.47443C150.157 6.47443 149.309 6.62358 148.602 6.92188C147.895 7.22017 147.353 7.625 146.978 8.13636C146.603 8.64773 146.412 9.23153 146.403 9.88778C146.403 10.4332 146.527 10.9062 146.774 11.3068C147.029 11.7074 147.375 12.0483 147.809 12.3295C148.244 12.6023 148.725 12.8324 149.254 13.0199C149.782 13.2074 150.315 13.3651 150.852 13.4929L153.306 14.1065C154.295 14.3366 155.245 14.6477 156.157 15.0398C157.078 15.4318 157.9 15.9261 158.625 16.5227C159.358 17.1193 159.937 17.8395 160.363 18.6832C160.789 19.527 161.002 20.5156 161.002 21.6491C161.002 23.1832 160.61 24.5341 159.826 25.7017C159.042 26.8608 157.909 27.7685 156.426 28.4247C154.951 29.0724 153.166 29.3963 151.069 29.3963C149.032 29.3963 147.264 29.081 145.764 28.4503C144.272 27.8196 143.105 26.8991 142.261 25.6889C141.426 24.4787 140.974 23.0043 140.906 21.2656H145.572C145.64 22.1776 145.922 22.9361 146.416 23.5412C146.91 24.1463 147.554 24.598 148.346 24.8963C149.147 25.1946 150.042 25.3438 151.031 25.3438C152.062 25.3438 152.966 25.1903 153.741 24.8835C154.525 24.5682 155.139 24.1335 155.582 23.5795C156.025 23.017 156.251 22.3608 156.26 21.6108C156.251 20.929 156.051 20.3665 155.659 19.9233C155.267 19.4716 154.717 19.0966 154.01 18.7983C153.311 18.4915 152.493 18.2187 151.555 17.9801L148.576 17.2131C146.42 16.6591 144.716 15.8196 143.463 14.6946C142.218 13.5611 141.596 12.0568 141.596 10.1818C141.596 8.6392 142.014 7.28835 142.849 6.12926C143.693 4.97017 144.839 4.07102 146.288 3.43182C147.737 2.78409 149.377 2.46023 151.21 2.46023C153.068 2.46023 154.696 2.78409 156.093 3.43182C157.5 4.07102 158.603 4.96165 159.404 6.10369C160.206 7.23721 160.619 8.54119 160.645 10.0156H156.081ZM173.719 29.3835C171.751 29.3835 170.05 28.9744 168.619 28.1562C167.195 27.3295 166.1 26.1619 165.333 24.6534C164.566 23.1364 164.183 21.3509 164.183 19.2969C164.183 17.277 164.566 15.5043 165.333 13.9787C166.109 12.4446 167.191 11.2514 168.58 10.3991C169.969 9.53835 171.602 9.10795 173.477 9.10795C174.687 9.10795 175.829 9.30398 176.903 9.69602C177.985 10.0795 178.94 10.6761 179.766 11.4858C180.602 12.2955 181.258 13.3267 181.735 14.5795C182.212 15.8239 182.451 17.3068 182.451 19.0284V20.4474H166.356V17.3281H178.015C178.006 16.4418 177.815 15.6534 177.44 14.9631C177.065 14.2642 176.54 13.7145 175.867 13.3139C175.202 12.9134 174.427 12.7131 173.54 12.7131C172.594 12.7131 171.763 12.9432 171.048 13.4034C170.332 13.8551 169.773 14.4517 169.373 15.1932C168.981 15.9261 168.781 16.7315 168.772 17.6094V20.3324C168.772 21.4744 168.981 22.4545 169.398 23.2727C169.816 24.0824 170.4 24.7045 171.15 25.1392C171.9 25.5653 172.778 25.7784 173.783 25.7784C174.457 25.7784 175.066 25.6847 175.612 25.4972C176.157 25.3011 176.63 25.0156 177.031 24.6406C177.431 24.2656 177.734 23.8011 177.938 23.2472L182.259 23.733C181.987 24.875 181.467 25.8722 180.7 26.7244C179.941 27.5682 178.969 28.2244 177.785 28.6932C176.6 29.1534 175.245 29.3835 173.719 29.3835ZM201.886 14.554L197.667 15.0142C197.548 14.5881 197.339 14.1875 197.041 13.8125C196.751 13.4375 196.359 13.1349 195.865 12.9048C195.37 12.6747 194.765 12.5597 194.049 12.5597C193.086 12.5597 192.277 12.7685 191.62 13.1861C190.973 13.6037 190.653 14.1449 190.662 14.8097C190.653 15.3807 190.862 15.8452 191.288 16.2031C191.723 16.5611 192.439 16.8551 193.436 17.0852L196.785 17.8011C198.643 18.2017 200.024 18.8366 200.927 19.706C201.839 20.5753 202.299 21.7131 202.308 23.1193C202.299 24.3551 201.937 25.446 201.221 26.392C200.514 27.3295 199.529 28.0625 198.268 28.5909C197.007 29.1193 195.558 29.3835 193.922 29.3835C191.518 29.3835 189.583 28.8807 188.118 27.875C186.652 26.8608 185.778 25.4503 185.497 23.6435L190.01 23.2088C190.214 24.0952 190.649 24.7642 191.314 25.2159C191.978 25.6676 192.843 25.8935 193.909 25.8935C195.008 25.8935 195.89 25.6676 196.555 25.2159C197.228 24.7642 197.565 24.206 197.565 23.5412C197.565 22.9787 197.348 22.5142 196.913 22.1477C196.487 21.7812 195.822 21.5 194.919 21.304L191.569 20.6009C189.686 20.2088 188.292 19.5483 187.389 18.6193C186.485 17.6818 186.038 16.4972 186.047 15.0653C186.038 13.8551 186.366 12.8068 187.031 11.9205C187.704 11.0256 188.637 10.3352 189.831 9.84943C191.032 9.35511 192.417 9.10795 193.985 9.10795C196.287 9.10795 198.098 9.59801 199.419 10.5781C200.748 11.5582 201.571 12.8835 201.886 14.554ZM206.124 29V9.36364H210.752V29H206.124ZM208.451 6.5767C207.718 6.5767 207.087 6.33381 206.559 5.84801C206.03 5.35369 205.766 4.76136 205.766 4.07102C205.766 3.37216 206.03 2.77983 206.559 2.29403C207.087 1.79971 207.718 1.55256 208.451 1.55256C209.192 1.55256 209.823 1.79971 210.343 2.29403C210.871 2.77983 211.135 3.37216 211.135 4.07102C211.135 4.76136 210.871 5.35369 210.343 5.84801C209.823 6.33381 209.192 6.5767 208.451 6.5767ZM224.076 29.3835C222.158 29.3835 220.496 28.9616 219.09 28.1179C217.684 27.2741 216.593 26.0937 215.817 24.5767C215.05 23.0597 214.667 21.2869 214.667 19.2585C214.667 17.2301 215.05 15.4531 215.817 13.9276C216.593 12.402 217.684 11.2173 219.09 10.3736C220.496 9.52983 222.158 9.10795 224.076 9.10795C225.994 9.10795 227.656 9.52983 229.062 10.3736C230.468 11.2173 231.555 12.402 232.322 13.9276C233.097 15.4531 233.485 17.2301 233.485 19.2585C233.485 21.2869 233.097 23.0597 232.322 24.5767C231.555 26.0937 230.468 27.2741 229.062 28.1179C227.656 28.9616 225.994 29.3835 224.076 29.3835ZM224.102 25.6761C225.141 25.6761 226.011 25.3906 226.71 24.8196C227.408 24.2401 227.928 23.4645 228.269 22.4929C228.619 21.5213 228.793 20.4389 228.793 19.2457C228.793 18.044 228.619 16.9574 228.269 15.9858C227.928 15.0057 227.408 14.2259 226.71 13.6463C226.011 13.0668 225.141 12.777 224.102 12.777C223.036 12.777 222.15 13.0668 221.442 13.6463C220.744 14.2259 220.219 15.0057 219.87 15.9858C219.529 16.9574 219.359 18.044 219.359 19.2457C219.359 20.4389 219.529 21.5213 219.87 22.4929C220.219 23.4645 220.744 24.2401 221.442 24.8196C222.15 25.3906 223.036 25.6761 224.102 25.6761ZM222.299 6.78125L225.163 0.93892H229.688L225.763 6.78125H222.299ZM242.041 17.4943V29H237.413V9.36364H241.836V12.7003H242.066C242.518 11.6009 243.238 10.7273 244.227 10.0795C245.224 9.43182 246.456 9.10795 247.922 9.10795C249.277 9.10795 250.457 9.39773 251.463 9.97727C252.477 10.5568 253.261 11.3963 253.815 12.4957C254.377 13.5952 254.654 14.929 254.646 16.4972V29H250.018V17.2131C250.018 15.9006 249.677 14.8736 248.995 14.1321C248.322 13.3906 247.389 13.0199 246.196 13.0199C245.386 13.0199 244.666 13.1989 244.035 13.5568C243.413 13.9062 242.923 14.4134 242.565 15.0781C242.216 15.7429 242.041 16.5483 242.041 17.4943Z" fill="white"/>
<path d="M1 95C1 91.134 4.13401 88 8 88H270C274.971 88 279 92.0294 279 97V117C279 121.971 274.971 126 270 126H10C5.02943 126 1 121.971 1 117V95Z" fill="#FFFDFB" stroke="#B9A78E" stroke-width="2"/>
<path d="M27.522 106.29H25.397C25.3364 105.941 25.2247 105.633 25.0618 105.364C24.8989 105.091 24.6963 104.86 24.4538 104.67C24.2114 104.481 23.9349 104.339 23.6243 104.244C23.3175 104.146 22.986 104.097 22.63 104.097C21.9974 104.097 21.4368 104.256 20.9482 104.574C20.4595 104.888 20.0769 105.35 19.8004 105.96C19.5239 106.566 19.3857 107.307 19.3857 108.182C19.3857 109.072 19.5239 109.822 19.8004 110.432C20.0807 111.038 20.4633 111.496 20.9482 111.807C21.4368 112.114 21.9955 112.267 22.6243 112.267C22.9728 112.267 23.2985 112.222 23.6016 112.131C23.9084 112.036 24.183 111.898 24.4254 111.716C24.6716 111.534 24.8781 111.311 25.0447 111.045C25.2152 110.78 25.3326 110.477 25.397 110.136L27.522 110.148C27.4425 110.701 27.2701 111.22 27.005 111.705C26.7436 112.189 26.4008 112.617 25.9766 112.989C25.5523 113.356 25.0561 113.644 24.4879 113.852C23.9197 114.057 23.2891 114.159 22.5959 114.159C21.5732 114.159 20.6603 113.922 19.8572 113.449C19.0542 112.975 18.4216 112.292 17.9595 111.398C17.4974 110.504 17.2663 109.432 17.2663 108.182C17.2663 106.928 17.4993 105.856 17.9652 104.966C18.4311 104.072 19.0656 103.388 19.8686 102.915C20.6716 102.441 21.5807 102.205 22.5959 102.205C23.2436 102.205 23.8459 102.295 24.4027 102.477C24.9595 102.659 25.4557 102.926 25.8913 103.278C26.3269 103.627 26.6849 104.055 26.9652 104.562C27.2493 105.066 27.4349 105.642 27.522 106.29ZM33.1683 114.17C32.3161 114.17 31.5774 113.983 30.9524 113.608C30.3274 113.233 29.8426 112.708 29.4979 112.034C29.157 111.36 28.9865 110.572 28.9865 109.67C28.9865 108.769 29.157 107.979 29.4979 107.301C29.8426 106.623 30.3274 106.097 30.9524 105.722C31.5774 105.347 32.3161 105.159 33.1683 105.159C34.0206 105.159 34.7592 105.347 35.3842 105.722C36.0092 106.097 36.4922 106.623 36.8331 107.301C37.1778 107.979 37.3501 108.769 37.3501 109.67C37.3501 110.572 37.1778 111.36 36.8331 112.034C36.4922 112.708 36.0092 113.233 35.3842 113.608C34.7592 113.983 34.0206 114.17 33.1683 114.17ZM33.1797 112.523C33.6418 112.523 34.0282 112.396 34.3388 112.142C34.6494 111.884 34.8804 111.54 35.032 111.108C35.1873 110.676 35.2649 110.195 35.2649 109.665C35.2649 109.131 35.1873 108.648 35.032 108.216C34.8804 107.78 34.6494 107.434 34.3388 107.176C34.0282 106.919 33.6418 106.79 33.1797 106.79C32.7062 106.79 32.3123 106.919 31.9979 107.176C31.6873 107.434 31.4543 107.78 31.299 108.216C31.1475 108.648 31.0717 109.131 31.0717 109.665C31.0717 110.195 31.1475 110.676 31.299 111.108C31.4543 111.54 31.6873 111.884 31.9979 112.142C32.3123 112.396 32.7062 112.523 33.1797 112.523ZM39.0959 114V105.273H41.0902V106.727H41.1811C41.3402 106.223 41.6129 105.835 41.9993 105.562C42.3894 105.286 42.8345 105.148 43.3345 105.148C43.4482 105.148 43.575 105.153 43.7152 105.165C43.8591 105.172 43.9785 105.186 44.0732 105.205V107.097C43.986 107.066 43.8478 107.04 43.6584 107.017C43.4728 106.991 43.2929 106.977 43.1186 106.977C42.7436 106.977 42.4065 107.059 42.1072 107.222C41.8118 107.381 41.5788 107.602 41.4084 107.886C41.2379 108.17 41.1527 108.498 41.1527 108.869V114H39.0959ZM45.4396 114V105.273H47.4339V106.727H47.5249C47.6839 106.223 47.9567 105.835 48.343 105.562C48.7332 105.286 49.1783 105.148 49.6783 105.148C49.7919 105.148 49.9188 105.153 50.0589 105.165C50.2029 105.172 50.3222 105.186 50.4169 105.205V107.097C50.3298 107.066 50.1915 107.04 50.0021 107.017C49.8165 106.991 49.6366 106.977 49.4624 106.977C49.0874 106.977 48.7502 107.059 48.451 107.222C48.1555 107.381 47.9226 107.602 47.7521 107.886C47.5817 108.17 47.4964 108.498 47.4964 108.869V114H45.4396ZM55.2876 114.17C54.4126 114.17 53.657 113.989 53.0206 113.625C52.388 113.258 51.9013 112.739 51.5604 112.068C51.2195 111.394 51.049 110.6 51.049 109.688C51.049 108.79 51.2195 108.002 51.5604 107.324C51.9051 106.642 52.3861 106.112 53.0036 105.733C53.621 105.35 54.3464 105.159 55.1797 105.159C55.7176 105.159 56.2251 105.246 56.7024 105.42C57.1835 105.591 57.6077 105.856 57.9751 106.216C58.3464 106.576 58.638 107.034 58.8501 107.591C59.0623 108.144 59.1683 108.803 59.1683 109.568V110.199H52.0149V108.812H57.1967C57.1929 108.419 57.1077 108.068 56.9411 107.761C56.7744 107.451 56.5414 107.206 56.2422 107.028C55.9467 106.85 55.602 106.761 55.2081 106.761C54.7876 106.761 54.4183 106.864 54.1001 107.068C53.782 107.269 53.5339 107.534 53.3558 107.864C53.1816 108.189 53.0926 108.547 53.0888 108.938V110.148C53.0888 110.655 53.1816 111.091 53.3672 111.455C53.5528 111.814 53.8123 112.091 54.1456 112.284C54.4789 112.473 54.8691 112.568 55.3161 112.568C55.6153 112.568 55.8861 112.527 56.1286 112.443C56.371 112.356 56.5812 112.229 56.7592 112.062C56.9373 111.896 57.0717 111.689 57.1626 111.443L59.0831 111.659C58.9619 112.167 58.7308 112.61 58.3899 112.989C58.0528 113.364 57.621 113.655 57.0945 113.864C56.5679 114.068 55.9657 114.17 55.2876 114.17ZM64.7152 114.17C63.8629 114.17 63.1243 113.983 62.4993 113.608C61.8743 113.233 61.3894 112.708 61.0447 112.034C60.7038 111.36 60.5334 110.572 60.5334 109.67C60.5334 108.769 60.7038 107.979 61.0447 107.301C61.3894 106.623 61.8743 106.097 62.4993 105.722C63.1243 105.347 63.8629 105.159 64.7152 105.159C65.5675 105.159 66.3061 105.347 66.9311 105.722C67.5561 106.097 68.0391 106.623 68.38 107.301C68.7247 107.979 68.897 108.769 68.897 109.67C68.897 110.572 68.7247 111.36 68.38 112.034C68.0391 112.708 67.5561 113.233 66.9311 113.608C66.3061 113.983 65.5675 114.17 64.7152 114.17ZM64.7266 112.523C65.1887 112.523 65.575 112.396 65.8857 112.142C66.1963 111.884 66.4273 111.54 66.5788 111.108C66.7341 110.676 66.8118 110.195 66.8118 109.665C66.8118 109.131 66.7341 108.648 66.5788 108.216C66.4273 107.78 66.1963 107.434 65.8857 107.176C65.575 106.919 65.1887 106.79 64.7266 106.79C64.2531 106.79 63.8591 106.919 63.5447 107.176C63.2341 107.434 63.0012 107.78 62.8459 108.216C62.6944 108.648 62.6186 109.131 62.6186 109.665C62.6186 110.195 62.6944 110.676 62.8459 111.108C63.0012 111.54 63.2341 111.884 63.5447 112.142C63.8591 112.396 64.2531 112.523 64.7266 112.523Z" fill="#4B4B4B"/>
<path d="M1 195C1 191.134 4.13401 188 8 188H270C274.971 188 279 192.029 279 197V217C279 221.971 274.971 226 270 226H10C5.02943 226 1 221.971 1 217V195Z" fill="#FFFDFB" stroke="#B9A78E" stroke-width="2"/>
<path d="M27.5923 205.29H25.4673C25.4067 204.941 25.295 204.633 25.1321 204.364C24.9692 204.091 24.7666 203.86 24.5241 203.67C24.2817 203.481 24.0052 203.339 23.6946 203.244C23.3878 203.146 23.0563 203.097 22.7003 203.097C22.0677 203.097 21.5071 203.256 21.0185 203.574C20.5298 203.888 20.1473 204.35 19.8707 204.96C19.5942 205.566 19.456 206.307 19.456 207.182C19.456 208.072 19.5942 208.822 19.8707 209.432C20.151 210.038 20.5336 210.496 21.0185 210.807C21.5071 211.114 22.0658 211.267 22.6946 211.267C23.0431 211.267 23.3688 211.222 23.6719 211.131C23.9787 211.036 24.2533 210.898 24.4957 210.716C24.742 210.534 24.9484 210.311 25.1151 210.045C25.2855 209.78 25.4029 209.477 25.4673 209.136L27.5923 209.148C27.5128 209.701 27.3404 210.22 27.0753 210.705C26.8139 211.189 26.4711 211.617 26.0469 211.989C25.6226 212.356 25.1264 212.644 24.5582 212.852C23.9901 213.057 23.3594 213.159 22.6662 213.159C21.6435 213.159 20.7306 212.922 19.9276 212.449C19.1245 211.975 18.492 211.292 18.0298 210.398C17.5677 209.504 17.3366 208.432 17.3366 207.182C17.3366 205.928 17.5696 204.856 18.0355 203.966C18.5014 203.072 19.1359 202.388 19.9389 201.915C20.742 201.441 21.651 201.205 22.6662 201.205C23.3139 201.205 23.9162 201.295 24.473 201.477C25.0298 201.659 25.526 201.926 25.9616 202.278C26.3973 202.627 26.7552 203.055 27.0355 203.562C27.3196 204.066 27.5052 204.642 27.5923 205.29ZM33.2386 213.17C32.3864 213.17 31.6477 212.983 31.0227 212.608C30.3977 212.233 29.9129 211.708 29.5682 211.034C29.2273 210.36 29.0568 209.572 29.0568 208.67C29.0568 207.769 29.2273 206.979 29.5682 206.301C29.9129 205.623 30.3977 205.097 31.0227 204.722C31.6477 204.347 32.3864 204.159 33.2386 204.159C34.0909 204.159 34.8295 204.347 35.4545 204.722C36.0795 205.097 36.5625 205.623 36.9034 206.301C37.2481 206.979 37.4205 207.769 37.4205 208.67C37.4205 209.572 37.2481 210.36 36.9034 211.034C36.5625 211.708 36.0795 212.233 35.4545 212.608C34.8295 212.983 34.0909 213.17 33.2386 213.17ZM33.25 211.523C33.7121 211.523 34.0985 211.396 34.4091 211.142C34.7197 210.884 34.9508 210.54 35.1023 210.108C35.2576 209.676 35.3352 209.195 35.3352 208.665C35.3352 208.131 35.2576 207.648 35.1023 207.216C34.9508 206.78 34.7197 206.434 34.4091 206.176C34.0985 205.919 33.7121 205.79 33.25 205.79C32.7765 205.79 32.3826 205.919 32.0682 206.176C31.7576 206.434 31.5246 206.78 31.3693 207.216C31.2178 207.648 31.142 208.131 31.142 208.665C31.142 209.195 31.2178 209.676 31.3693 210.108C31.5246 210.54 31.7576 210.884 32.0682 211.142C32.3826 211.396 32.7765 211.523 33.25 211.523ZM41.223 207.886V213H39.1662V204.273H41.1321V205.756H41.2344C41.4351 205.267 41.7552 204.879 42.1946 204.591C42.6378 204.303 43.1851 204.159 43.8366 204.159C44.4389 204.159 44.9635 204.288 45.4105 204.545C45.8613 204.803 46.2098 205.176 46.456 205.665C46.706 206.153 46.8291 206.746 46.8253 207.443V213H44.7685V207.761C44.7685 207.178 44.617 206.722 44.3139 206.392C44.0147 206.062 43.5999 205.898 43.0696 205.898C42.7098 205.898 42.3897 205.977 42.1094 206.136C41.8329 206.292 41.6151 206.517 41.456 206.812C41.3007 207.108 41.223 207.466 41.223 207.886ZM53.2741 204.273V205.864H48.2571V204.273H53.2741ZM49.4957 202.182H51.5526V210.375C51.5526 210.652 51.5942 210.864 51.6776 211.011C51.7647 211.155 51.8783 211.254 52.0185 211.307C52.1586 211.36 52.3139 211.386 52.4844 211.386C52.6132 211.386 52.7306 211.377 52.8366 211.358C52.9465 211.339 53.0298 211.322 53.0866 211.307L53.4332 212.915C53.3234 212.953 53.1662 212.994 52.9616 213.04C52.7609 213.085 52.5147 213.112 52.223 213.119C51.7079 213.134 51.2438 213.057 50.831 212.886C50.4181 212.712 50.0904 212.443 49.848 212.08C49.6094 211.716 49.492 211.261 49.4957 210.716V202.182ZM54.9943 213V204.273H56.9886V205.727H57.0795C57.2386 205.223 57.5114 204.835 57.8977 204.562C58.2879 204.286 58.733 204.148 59.233 204.148C59.3466 204.148 59.4735 204.153 59.6136 204.165C59.7576 204.172 59.8769 204.186 59.9716 204.205V206.097C59.8845 206.066 59.7462 206.04 59.5568 206.017C59.3712 205.991 59.1913 205.977 59.017 205.977C58.642 205.977 58.3049 206.059 58.0057 206.222C57.7102 206.381 57.4773 206.602 57.3068 206.886C57.1364 207.17 57.0511 207.498 57.0511 207.869V213H54.9943ZM63.6932 213.176C63.1402 213.176 62.642 213.078 62.1989 212.881C61.7595 212.68 61.411 212.384 61.1534 211.994C60.8996 211.604 60.7727 211.123 60.7727 210.551C60.7727 210.059 60.8636 209.652 61.0455 209.33C61.2273 209.008 61.4754 208.75 61.7898 208.557C62.1042 208.364 62.4583 208.218 62.8523 208.119C63.25 208.017 63.661 207.943 64.0852 207.898C64.5966 207.845 65.0114 207.797 65.3295 207.756C65.6477 207.71 65.8788 207.642 66.0227 207.551C66.1705 207.456 66.2443 207.311 66.2443 207.114V207.08C66.2443 206.652 66.1174 206.32 65.8636 206.085C65.6098 205.85 65.2443 205.733 64.767 205.733C64.2633 205.733 63.8636 205.843 63.5682 206.062C63.2765 206.282 63.0795 206.542 62.9773 206.841L61.0568 206.568C61.2083 206.038 61.4583 205.595 61.8068 205.239C62.1553 204.879 62.5814 204.61 63.0852 204.432C63.589 204.25 64.1458 204.159 64.7557 204.159C65.1761 204.159 65.5947 204.208 66.0114 204.307C66.428 204.405 66.8087 204.568 67.1534 204.795C67.4981 205.019 67.7746 205.324 67.983 205.71C68.1951 206.097 68.3011 206.58 68.3011 207.159V213H66.3239V211.801H66.2557C66.1307 212.044 65.9545 212.271 65.7273 212.483C65.5038 212.691 65.2216 212.86 64.8807 212.989C64.5436 213.114 64.1477 213.176 63.6932 213.176ZM64.2273 211.665C64.6402 211.665 64.9981 211.583 65.3011 211.42C65.6042 211.254 65.8371 211.034 66 210.761C66.1667 210.489 66.25 210.191 66.25 209.869V208.841C66.1856 208.894 66.0758 208.943 65.9205 208.989C65.7689 209.034 65.5985 209.074 65.4091 209.108C65.2197 209.142 65.0322 209.172 64.8466 209.199C64.661 209.225 64.5 209.248 64.3636 209.267C64.0568 209.309 63.7822 209.377 63.5398 209.472C63.2973 209.566 63.1061 209.699 62.9659 209.869C62.8258 210.036 62.7557 210.252 62.7557 210.517C62.7557 210.896 62.8939 211.182 63.1705 211.375C63.447 211.568 63.7992 211.665 64.2273 211.665ZM77.267 206.58L75.392 206.784C75.339 206.595 75.2462 206.417 75.1136 206.25C74.9848 206.083 74.8106 205.949 74.5909 205.847C74.3712 205.744 74.1023 205.693 73.7841 205.693C73.3561 205.693 72.9962 205.786 72.7045 205.972C72.4167 206.157 72.2746 206.398 72.2784 206.693C72.2746 206.947 72.3674 207.153 72.5568 207.312C72.75 207.472 73.0682 207.602 73.5114 207.705L75 208.023C75.8258 208.201 76.4394 208.483 76.8409 208.869C77.2462 209.256 77.4508 209.761 77.4545 210.386C77.4508 210.936 77.2898 211.42 76.9716 211.841C76.6572 212.258 76.2197 212.583 75.6591 212.818C75.0985 213.053 74.4545 213.17 73.7273 213.17C72.6591 213.17 71.7992 212.947 71.1477 212.5C70.4962 212.049 70.108 211.422 69.983 210.619L71.9886 210.426C72.0795 210.82 72.2727 211.117 72.5682 211.318C72.8636 211.519 73.2481 211.619 73.7216 211.619C74.2102 211.619 74.6023 211.519 74.8977 211.318C75.197 211.117 75.3466 210.869 75.3466 210.574C75.3466 210.324 75.25 210.117 75.0568 209.955C74.8674 209.792 74.572 209.667 74.1705 209.58L72.6818 209.267C71.8447 209.093 71.2254 208.799 70.8239 208.386C70.4223 207.97 70.2235 207.443 70.2273 206.807C70.2235 206.269 70.3693 205.803 70.6648 205.409C70.964 205.011 71.3788 204.705 71.9091 204.489C72.4432 204.269 73.0587 204.159 73.7557 204.159C74.7784 204.159 75.5833 204.377 76.1705 204.812C76.7614 205.248 77.1269 205.837 77.267 206.58ZM83.0142 213.17C82.1392 213.17 81.3835 212.989 80.7472 212.625C80.1146 212.258 79.6278 211.739 79.2869 211.068C78.946 210.394 78.7756 209.6 78.7756 208.688C78.7756 207.79 78.946 207.002 79.2869 206.324C79.6316 205.642 80.1127 205.112 80.7301 204.733C81.3475 204.35 82.0729 204.159 82.9062 204.159C83.4441 204.159 83.9517 204.246 84.429 204.42C84.91 204.591 85.3343 204.856 85.7017 205.216C86.0729 205.576 86.3646 206.034 86.5767 206.591C86.7888 207.144 86.8949 207.803 86.8949 208.568V209.199H79.7415V207.812H84.9233C84.9195 207.419 84.8343 207.068 84.6676 206.761C84.5009 206.451 84.268 206.206 83.9688 206.028C83.6733 205.85 83.3286 205.761 82.9347 205.761C82.5142 205.761 82.1449 205.864 81.8267 206.068C81.5085 206.269 81.2604 206.534 81.0824 206.864C80.9081 207.189 80.8191 207.547 80.8153 207.938V209.148C80.8153 209.655 80.9081 210.091 81.0938 210.455C81.2794 210.814 81.5388 211.091 81.8722 211.284C82.2055 211.473 82.5956 211.568 83.0426 211.568C83.3419 211.568 83.6127 211.527 83.8551 211.443C84.0975 211.356 84.3078 211.229 84.4858 211.062C84.6638 210.896 84.7983 210.689 84.8892 210.443L86.8097 210.659C86.6884 211.167 86.4574 211.61 86.1165 211.989C85.7794 212.364 85.3475 212.655 84.821 212.864C84.2945 213.068 83.6922 213.17 83.0142 213.17ZM90.6918 207.886V213H88.6349V204.273H90.6009V205.756H90.7031C90.9039 205.267 91.224 204.879 91.6634 204.591C92.1065 204.303 92.6539 204.159 93.3054 204.159C93.9077 204.159 94.4323 204.288 94.8793 204.545C95.33 204.803 95.6785 205.176 95.9247 205.665C96.1747 206.153 96.2978 206.746 96.294 207.443V213H94.2372V207.761C94.2372 207.178 94.0857 206.722 93.7827 206.392C93.4834 206.062 93.0687 205.898 92.5384 205.898C92.1785 205.898 91.8584 205.977 91.5781 206.136C91.3016 206.292 91.0838 206.517 90.9247 206.812C90.7694 207.108 90.6918 207.466 90.6918 207.886ZM90.7884 203.21L89.544 203.182C89.544 202.508 89.7183 201.979 90.0668 201.597C90.4152 201.214 90.8452 201.023 91.3565 201.023C91.6027 201.023 91.8168 201.064 91.9986 201.148C92.1804 201.227 92.3471 201.32 92.4986 201.426C92.6539 201.532 92.8054 201.627 92.9531 201.71C93.1009 201.79 93.2637 201.83 93.4418 201.83C93.6577 201.83 93.8281 201.748 93.9531 201.585C94.0819 201.422 94.1482 201.214 94.152 200.96L95.3736 201.011C95.3698 201.689 95.1937 202.216 94.8452 202.591C94.4967 202.962 94.0687 203.15 93.5611 203.153C93.2884 203.157 93.0592 203.117 92.8736 203.034C92.688 202.951 92.5251 202.856 92.3849 202.75C92.2486 202.644 92.1103 202.551 91.9702 202.472C91.83 202.388 91.6652 202.347 91.4759 202.347C91.2751 202.347 91.1103 202.426 90.9815 202.585C90.8527 202.744 90.7884 202.953 90.7884 203.21ZM100.896 213.176C100.343 213.176 99.8452 213.078 99.402 212.881C98.9626 212.68 98.6141 212.384 98.3565 211.994C98.1027 211.604 97.9759 211.123 97.9759 210.551C97.9759 210.059 98.0668 209.652 98.2486 209.33C98.4304 209.008 98.6785 208.75 98.9929 208.557C99.3073 208.364 99.6615 208.218 100.055 208.119C100.453 208.017 100.864 207.943 101.288 207.898C101.8 207.845 102.214 207.797 102.533 207.756C102.851 207.71 103.082 207.642 103.226 207.551C103.374 207.456 103.447 207.311 103.447 207.114V207.08C103.447 206.652 103.321 206.32 103.067 206.085C102.813 205.85 102.447 205.733 101.97 205.733C101.466 205.733 101.067 205.843 100.771 206.062C100.48 206.282 100.283 206.542 100.18 206.841L98.2599 206.568C98.4115 206.038 98.6615 205.595 99.0099 205.239C99.3584 204.879 99.7846 204.61 100.288 204.432C100.792 204.25 101.349 204.159 101.959 204.159C102.379 204.159 102.798 204.208 103.214 204.307C103.631 204.405 104.012 204.568 104.357 204.795C104.701 205.019 104.978 205.324 105.186 205.71C105.398 206.097 105.504 206.58 105.504 207.159V213H103.527V211.801H103.459C103.334 212.044 103.158 212.271 102.93 212.483C102.707 212.691 102.425 212.86 102.084 212.989C101.747 213.114 101.351 213.176 100.896 213.176ZM101.43 211.665C101.843 211.665 102.201 211.583 102.504 211.42C102.807 211.254 103.04 211.034 103.203 210.761C103.37 210.489 103.453 210.191 103.453 209.869V208.841C103.389 208.894 103.279 208.943 103.124 208.989C102.972 209.034 102.802 209.074 102.612 209.108C102.423 209.142 102.235 209.172 102.05 209.199C101.864 209.225 101.703 209.248 101.567 209.267C101.26 209.309 100.985 209.377 100.743 209.472C100.5 209.566 100.309 209.699 100.169 209.869C100.029 210.036 99.9588 210.252 99.9588 210.517C99.9588 210.896 100.097 211.182 100.374 211.375C100.65 211.568 101.002 211.665 101.43 211.665Z" fill="#4B4B4B"/>
</svg>
