<svg width="255" height="97" viewBox="0 0 255 97" fill="none" xmlns="http://www.w3.org/2000/svg">
<path d="M54.0852 27.5C53.661 23.5303 51.8731 20.4394 48.7216 18.2273C45.6004 16.0151 41.5398 14.9091 36.5398 14.9091C33.0246 14.9091 30.0095 15.4394 27.4943 16.5C24.9792 17.5606 23.0549 19 21.7216 20.8182C20.3883 22.6364 19.7064 24.7121 19.6761 27.0455C19.6761 28.9848 20.1155 30.6667 20.9943 32.0909C21.9034 33.5152 23.1307 34.7273 24.6761 35.7273C26.2216 36.697 27.9337 37.5151 29.8125 38.1818C31.6913 38.8485 33.5852 39.4091 35.4943 39.8636L44.2216 42.0455C47.7367 42.8636 51.1155 43.9697 54.358 45.3636C57.6307 46.7576 60.5549 48.5152 63.1307 50.6364C65.7367 52.7576 67.7973 55.3182 69.3125 58.3182C70.8277 61.3182 71.5852 64.8333 71.5852 68.8636C71.5852 74.3182 70.1913 79.1212 67.4034 83.2727C64.6155 87.3939 60.5852 90.6212 55.3125 92.9545C50.0701 95.2576 43.7216 96.4091 36.267 96.4091C29.0246 96.4091 22.7367 95.2879 17.4034 93.0455C12.1004 90.803 7.94886 87.5303 4.94886 83.2273C1.97917 78.9242 0.373106 73.6818 0.130682 67.5H16.7216C16.964 70.7424 17.964 73.4394 19.7216 75.5909C21.4792 77.7424 23.767 79.3485 26.5852 80.4091C29.4337 81.4697 32.6155 82 36.1307 82C39.7974 82 43.0095 81.4545 45.767 80.3636C48.5549 79.2424 50.7367 77.697 52.3125 75.7273C53.8883 73.7273 54.6913 71.3939 54.7216 68.7273C54.6913 66.303 53.9792 64.303 52.5852 62.7273C51.1913 61.1212 49.2367 59.7879 46.7216 58.7273C44.2367 57.6364 41.3277 56.6667 37.9943 55.8182L27.4034 53.0909C19.7367 51.1212 13.6761 48.1364 9.22159 44.1364C4.79735 40.1061 2.58523 34.7576 2.58523 28.0909C2.58523 22.6061 4.07008 17.803 7.03977 13.6818C10.0398 9.56061 14.1155 6.36363 19.267 4.0909C24.4186 1.78787 30.2519 0.63636 36.767 0.63636C43.3731 0.63636 49.161 1.78787 54.1307 4.0909C59.1307 6.36363 63.0549 9.5303 65.9034 13.5909C68.7519 17.6212 70.2216 22.2576 70.3125 27.5H54.0852ZM99.0739 1.90909L123.301 75.1818H124.256L148.438 1.90909H166.983L134.165 95H113.347L80.5739 1.90909H99.0739ZM236.608 31.6364C235.85 29.1818 234.805 26.9848 233.472 25.0455C232.169 23.0758 230.593 21.3939 228.744 20C226.926 18.6061 224.835 17.5606 222.472 16.8636C220.108 16.1364 217.532 15.7727 214.744 15.7727C209.744 15.7727 205.29 17.0303 201.381 19.5455C197.472 22.0606 194.396 25.7576 192.153 30.6364C189.941 35.4848 188.835 41.3939 188.835 48.3636C188.835 55.3939 189.941 61.3485 192.153 66.2273C194.366 71.1061 197.441 74.8182 201.381 77.3636C205.32 79.8788 209.896 81.1364 215.108 81.1364C219.835 81.1364 223.926 80.2273 227.381 78.4091C230.866 76.5909 233.547 74.0152 235.426 70.6818C237.305 67.3182 238.244 63.3788 238.244 58.8636L242.062 59.4545H216.79V46.2727H254.562V57.4545C254.562 65.4242 252.866 72.3182 249.472 78.1364C246.078 83.9545 241.411 88.4394 235.472 91.5909C229.532 94.7121 222.714 96.2727 215.017 96.2727C206.441 96.2727 198.911 94.3485 192.426 90.5C185.972 86.6212 180.926 81.1212 177.29 74C173.684 66.8485 171.881 58.3636 171.881 48.5455C171.881 41.0303 172.941 34.3182 175.062 28.4091C177.214 22.5 180.214 17.4848 184.062 13.3636C187.911 9.21212 192.426 6.0606 197.608 3.90909C202.79 1.72727 208.426 0.63636 214.517 0.63636C219.669 0.63636 224.472 1.39394 228.926 2.90909C233.381 4.39394 237.335 6.51515 240.79 9.27273C244.275 12.0303 247.138 15.303 249.381 19.0909C251.623 22.8788 253.093 27.0606 253.79 31.6364H236.608Z" fill="white"/>
</svg>
