<svg width="1476" height="96" viewBox="0 0 1476 96" fill="none" xmlns="http://www.w3.org/2000/svg">
<g filter="url(#filter0_d_894_4896)">
<rect width="1440" height="60" transform="translate(18 10)" fill="white"/>
<rect x="1266" y="20" width="112" height="40" rx="8" fill="#F39200"/>
<path d="M1293.29 34.3636V46H1291.19V34.3636H1293.29ZM1297.54 40.8864V46H1295.49V37.2727H1297.45V38.7557H1297.55C1297.76 38.267 1298.08 37.8788 1298.51 37.5909C1298.96 37.303 1299.51 37.1591 1300.16 37.1591C1300.76 37.1591 1301.28 37.2879 1301.73 37.5455C1302.18 37.803 1302.53 38.1761 1302.78 38.6648C1303.03 39.1534 1303.15 39.7462 1303.15 40.4432V46H1301.09V40.7614C1301.09 40.178 1300.94 39.7216 1300.63 39.392C1300.33 39.0625 1299.92 38.8977 1299.39 38.8977C1299.03 38.8977 1298.71 38.9773 1298.43 39.1364C1298.15 39.2917 1297.94 39.517 1297.78 39.8125C1297.62 40.108 1297.54 40.4659 1297.54 40.8864ZM1309.03 49.4545C1308.29 49.4545 1307.66 49.3542 1307.13 49.1534C1306.6 48.9564 1306.17 48.6913 1305.85 48.358C1305.53 48.0246 1305.3 47.6553 1305.18 47.25L1307.03 46.8011C1307.12 46.9716 1307.24 47.1402 1307.4 47.3068C1307.55 47.4773 1307.77 47.6174 1308.04 47.7273C1308.31 47.8409 1308.65 47.8977 1309.07 47.8977C1309.65 47.8977 1310.13 47.7557 1310.51 47.4716C1310.9 47.1913 1311.09 46.7292 1311.09 46.0852V44.4318H1310.99C1310.88 44.6439 1310.73 44.8617 1310.52 45.0852C1310.32 45.3087 1310.05 45.4962 1309.72 45.6477C1309.39 45.7992 1308.98 45.875 1308.48 45.875C1307.8 45.875 1307.2 45.7178 1306.65 45.4034C1306.11 45.0852 1305.68 44.6117 1305.36 43.983C1305.04 43.3504 1304.88 42.5587 1304.88 41.608C1304.88 40.6496 1305.04 39.8409 1305.36 39.1818C1305.68 38.5189 1306.11 38.017 1306.66 37.6761C1307.2 37.3314 1307.81 37.1591 1308.48 37.1591C1308.99 37.1591 1309.41 37.2462 1309.74 37.4205C1310.08 37.5909 1310.34 37.7973 1310.54 38.0398C1310.73 38.2784 1310.88 38.5038 1310.99 38.7159H1311.1V37.2727H1313.13V46.142C1313.13 46.8883 1312.95 47.5057 1312.59 47.9943C1312.24 48.483 1311.75 48.8485 1311.13 49.0909C1310.52 49.3333 1309.82 49.4545 1309.03 49.4545ZM1309.05 44.2614C1309.48 44.2614 1309.86 44.1553 1310.16 43.9432C1310.47 43.7311 1310.7 43.4261 1310.86 43.0284C1311.02 42.6307 1311.1 42.1534 1311.1 41.5966C1311.1 41.0473 1311.02 40.5663 1310.86 40.1534C1310.71 39.7405 1310.48 39.4205 1310.17 39.1932C1309.87 38.9621 1309.49 38.8466 1309.05 38.8466C1308.59 38.8466 1308.21 38.9659 1307.9 39.2045C1307.59 39.4432 1307.36 39.7708 1307.21 40.1875C1307.05 40.6004 1306.98 41.0701 1306.98 41.5966C1306.98 42.1307 1307.05 42.5985 1307.21 43C1307.37 43.3977 1307.6 43.7083 1307.91 43.9318C1308.22 44.1515 1308.6 44.2614 1309.05 44.2614ZM1315.24 46V37.2727H1317.23V38.7273H1317.32C1317.48 38.2235 1317.75 37.8352 1318.14 37.5625C1318.53 37.286 1318.98 37.1477 1319.48 37.1477C1319.59 37.1477 1319.72 37.1534 1319.86 37.1648C1320 37.1723 1320.12 37.1856 1320.21 37.2045V39.0966C1320.13 39.0663 1319.99 39.0398 1319.8 39.017C1319.61 38.9905 1319.43 38.9773 1319.26 38.9773C1318.88 38.9773 1318.55 39.0587 1318.25 39.2216C1317.95 39.3807 1317.72 39.6023 1317.55 39.8864C1317.38 40.1705 1317.29 40.4981 1317.29 40.8693V46H1315.24ZM1325.08 46.1705C1324.21 46.1705 1323.45 45.9886 1322.82 45.625C1322.18 45.2576 1321.7 44.7386 1321.36 44.0682C1321.02 43.3939 1320.85 42.6004 1320.85 41.6875C1320.85 40.7898 1321.02 40.0019 1321.36 39.3239C1321.7 38.642 1322.18 38.1117 1322.8 37.733C1323.42 37.3504 1324.14 37.1591 1324.98 37.1591C1325.51 37.1591 1326.02 37.2462 1326.5 37.4205C1326.98 37.5909 1327.4 37.8561 1327.77 38.2159C1328.14 38.5758 1328.43 39.0341 1328.65 39.5909C1328.86 40.1439 1328.97 40.803 1328.97 41.5682V42.1989H1321.81V40.8125H1326.99C1326.99 40.4186 1326.9 40.0682 1326.74 39.7614C1326.57 39.4508 1326.34 39.2064 1326.04 39.0284C1325.74 38.8504 1325.4 38.7614 1325 38.7614C1324.58 38.7614 1324.22 38.8636 1323.9 39.0682C1323.58 39.2689 1323.33 39.5341 1323.15 39.8636C1322.98 40.1894 1322.89 40.5473 1322.89 40.9375V42.1477C1322.89 42.6553 1322.98 43.0909 1323.16 43.4545C1323.35 43.8144 1323.61 44.0909 1323.94 44.2841C1324.28 44.4735 1324.67 44.5682 1325.11 44.5682C1325.41 44.5682 1325.68 44.5265 1325.93 44.4432C1326.17 44.3561 1326.38 44.2292 1326.56 44.0625C1326.73 43.8958 1326.87 43.6894 1326.96 43.4432L1328.88 43.6591C1328.76 44.1667 1328.53 44.6098 1328.19 44.9886C1327.85 45.3636 1327.42 45.6553 1326.89 45.8636C1326.36 46.0682 1325.76 46.1705 1325.08 46.1705ZM1337.6 39.5795L1335.73 39.7841C1335.67 39.5947 1335.58 39.4167 1335.45 39.25C1335.32 39.0833 1335.15 38.9489 1334.93 38.8466C1334.71 38.7443 1334.44 38.6932 1334.12 38.6932C1333.69 38.6932 1333.33 38.786 1333.04 38.9716C1332.75 39.1572 1332.61 39.3977 1332.61 39.6932C1332.61 39.947 1332.7 40.1534 1332.89 40.3125C1333.09 40.4716 1333.4 40.6023 1333.85 40.7045L1335.34 41.0227C1336.16 41.2008 1336.78 41.483 1337.18 41.8693C1337.58 42.2557 1337.79 42.7614 1337.79 43.3864C1337.79 43.9356 1337.63 44.4205 1337.31 44.8409C1336.99 45.2576 1336.56 45.5833 1336 45.8182C1335.43 46.053 1334.79 46.1705 1334.06 46.1705C1333 46.1705 1332.14 45.947 1331.48 45.5C1330.83 45.0492 1330.44 44.4223 1330.32 43.6193L1332.32 43.4261C1332.42 43.8201 1332.61 44.1174 1332.9 44.3182C1333.2 44.5189 1333.58 44.6193 1334.06 44.6193C1334.55 44.6193 1334.94 44.5189 1335.23 44.3182C1335.53 44.1174 1335.68 43.8693 1335.68 43.5739C1335.68 43.3239 1335.59 43.1174 1335.39 42.9545C1335.2 42.7917 1334.91 42.6667 1334.51 42.5795L1333.02 42.267C1332.18 42.0928 1331.56 41.7992 1331.16 41.3864C1330.76 40.9697 1330.56 40.4432 1330.56 39.8068C1330.56 39.2689 1330.71 38.803 1331 38.4091C1331.3 38.0114 1331.71 37.7045 1332.25 37.4886C1332.78 37.2689 1333.39 37.1591 1334.09 37.1591C1335.11 37.1591 1335.92 37.3769 1336.51 37.8125C1337.1 38.2481 1337.46 38.8371 1337.6 39.5795ZM1342 46.1761C1341.44 46.1761 1340.95 46.0777 1340.5 45.8807C1340.06 45.6799 1339.72 45.3845 1339.46 44.9943C1339.2 44.6042 1339.08 44.1231 1339.08 43.5511C1339.08 43.0587 1339.17 42.6515 1339.35 42.3295C1339.53 42.0076 1339.78 41.75 1340.09 41.5568C1340.41 41.3636 1340.76 41.2178 1341.16 41.1193C1341.55 41.017 1341.97 40.9432 1342.39 40.8977C1342.9 40.8447 1343.32 40.7973 1343.63 40.7557C1343.95 40.7102 1344.18 40.642 1344.33 40.5511C1344.48 40.4564 1344.55 40.3106 1344.55 40.1136V40.0795C1344.55 39.6515 1344.42 39.3201 1344.17 39.0852C1343.91 38.8504 1343.55 38.733 1343.07 38.733C1342.57 38.733 1342.17 38.8428 1341.87 39.0625C1341.58 39.2822 1341.38 39.5417 1341.28 39.8409L1339.36 39.5682C1339.51 39.0379 1339.76 38.5947 1340.11 38.2386C1340.46 37.8788 1340.89 37.6098 1341.39 37.4318C1341.89 37.25 1342.45 37.1591 1343.06 37.1591C1343.48 37.1591 1343.9 37.2083 1344.32 37.3068C1344.73 37.4053 1345.11 37.5682 1345.46 37.7955C1345.8 38.0189 1346.08 38.3239 1346.29 38.7102C1346.5 39.0966 1346.61 39.5795 1346.61 40.1591V46H1344.63V44.8011H1344.56C1344.44 45.0436 1344.26 45.2708 1344.03 45.483C1343.81 45.6913 1343.53 45.8598 1343.19 45.9886C1342.85 46.1136 1342.45 46.1761 1342 46.1761ZM1342.53 44.6648C1342.94 44.6648 1343.3 44.5833 1343.61 44.4205C1343.91 44.2538 1344.14 44.0341 1344.3 43.7614C1344.47 43.4886 1344.55 43.1913 1344.55 42.8693V41.8409C1344.49 41.8939 1344.38 41.9432 1344.23 41.9886C1344.07 42.0341 1343.9 42.0739 1343.71 42.108C1343.52 42.142 1343.34 42.1723 1343.15 42.1989C1342.97 42.2254 1342.8 42.2481 1342.67 42.267C1342.36 42.3087 1342.09 42.3769 1341.84 42.4716C1341.6 42.5663 1341.41 42.6989 1341.27 42.8693C1341.13 43.036 1341.06 43.2519 1341.06 43.517C1341.06 43.8958 1341.2 44.1818 1341.48 44.375C1341.75 44.5682 1342.1 44.6648 1342.53 44.6648ZM1348.67 46V37.2727H1350.67V38.7273H1350.76C1350.92 38.2235 1351.19 37.8352 1351.58 37.5625C1351.97 37.286 1352.41 37.1477 1352.91 37.1477C1353.03 37.1477 1353.15 37.1534 1353.29 37.1648C1353.44 37.1723 1353.56 37.1856 1353.65 37.2045V39.0966C1353.56 39.0663 1353.43 39.0398 1353.24 39.017C1353.05 38.9905 1352.87 38.9773 1352.7 38.9773C1352.32 38.9773 1351.98 39.0587 1351.69 39.2216C1351.39 39.3807 1351.16 39.6023 1350.99 39.8864C1350.82 40.1705 1350.73 40.4981 1350.73 40.8693V46H1348.67Z" fill="white"/>
<rect x="1146.5" y="17.5" width="81" height="45" stroke="#4B4B4B"/>
<path d="M1149.49 40.4C1149.49 39.3013 1149.74 38.32 1150.23 37.456C1150.73 36.5813 1151.4 35.904 1152.26 35.424C1153.12 34.9333 1154.09 34.688 1155.15 34.688C1156.4 34.688 1157.5 35.008 1158.43 35.648C1159.37 36.288 1160.03 37.1733 1160.4 38.304H1157.83C1157.57 37.7707 1157.21 37.3707 1156.74 37.104C1156.28 36.8373 1155.75 36.704 1155.14 36.704C1154.49 36.704 1153.91 36.8587 1153.39 37.168C1152.89 37.4667 1152.5 37.8933 1152.21 38.448C1151.93 39.0027 1151.79 39.6533 1151.79 40.4C1151.79 41.136 1151.93 41.7867 1152.21 42.352C1152.5 42.9067 1152.89 43.3387 1153.39 43.648C1153.91 43.9467 1154.49 44.096 1155.14 44.096C1155.75 44.096 1156.28 43.9627 1156.74 43.696C1157.21 43.4187 1157.57 43.0133 1157.83 42.48H1160.4C1160.03 43.6213 1159.37 44.512 1158.43 45.152C1157.51 45.7813 1156.41 46.096 1155.15 46.096C1154.09 46.096 1153.12 45.856 1152.26 45.376C1151.4 44.8853 1150.73 44.208 1150.23 43.344C1149.74 42.48 1149.49 41.4987 1149.49 40.4ZM1166.25 46.144C1165.4 46.144 1164.63 45.9573 1163.95 45.584C1163.26 45.2 1162.73 44.6613 1162.33 43.968C1161.95 43.2747 1161.75 42.4747 1161.75 41.568C1161.75 40.6613 1161.95 39.8613 1162.35 39.168C1162.75 38.4747 1163.3 37.9413 1163.99 37.568C1164.69 37.184 1165.46 36.992 1166.31 36.992C1167.17 36.992 1167.94 37.184 1168.63 37.568C1169.33 37.9413 1169.87 38.4747 1170.27 39.168C1170.67 39.8613 1170.87 40.6613 1170.87 41.568C1170.87 42.4747 1170.67 43.2747 1170.25 43.968C1169.85 44.6613 1169.29 45.2 1168.59 45.584C1167.89 45.9573 1167.11 46.144 1166.25 46.144ZM1166.25 44.192C1166.66 44.192 1167.03 44.096 1167.39 43.904C1167.75 43.7013 1168.04 43.4027 1168.25 43.008C1168.46 42.6133 1168.57 42.1333 1168.57 41.568C1168.57 40.7253 1168.35 40.08 1167.9 39.632C1167.46 39.1733 1166.92 38.944 1166.28 38.944C1165.64 38.944 1165.1 39.1733 1164.67 39.632C1164.24 40.08 1164.03 40.7253 1164.03 41.568C1164.03 42.4107 1164.23 43.0613 1164.65 43.52C1165.08 43.968 1165.61 44.192 1166.25 44.192ZM1177.43 37.008C1178.49 37.008 1179.34 37.344 1179.99 38.016C1180.64 38.6773 1180.97 39.6053 1180.97 40.8V46H1178.73V41.104C1178.73 40.4 1178.55 39.8613 1178.2 39.488C1177.85 39.104 1177.37 38.912 1176.76 38.912C1176.14 38.912 1175.65 39.104 1175.29 39.488C1174.93 39.8613 1174.76 40.4 1174.76 41.104V46H1172.52V37.136H1174.76V38.24C1175.06 37.856 1175.44 37.5573 1175.89 37.344C1176.36 37.12 1176.88 37.008 1177.43 37.008ZM1185.7 38.976V43.264C1185.7 43.5627 1185.77 43.7813 1185.91 43.92C1186.06 44.048 1186.31 44.112 1186.65 44.112H1187.69V46H1186.28C1184.39 46 1183.45 45.0827 1183.45 43.248V38.976H1182.39V37.136H1183.45V34.944H1185.7V37.136H1187.69V38.976H1185.7ZM1188.72 41.536C1188.72 40.64 1188.9 39.8453 1189.25 39.152C1189.61 38.4587 1190.1 37.9253 1190.71 37.552C1191.33 37.1787 1192.01 36.992 1192.77 36.992C1193.43 36.992 1194.01 37.1253 1194.5 37.392C1195 37.6587 1195.4 37.9947 1195.7 38.4V37.136H1197.96V46H1195.7V44.704C1195.41 45.12 1195.01 45.4667 1194.5 45.744C1194 46.0107 1193.42 46.144 1192.76 46.144C1192.01 46.144 1191.33 45.952 1190.71 45.568C1190.1 45.184 1189.61 44.6453 1189.25 43.952C1188.9 43.248 1188.72 42.4427 1188.72 41.536ZM1195.7 41.568C1195.7 41.024 1195.59 40.56 1195.38 40.176C1195.17 39.7813 1194.88 39.4827 1194.52 39.28C1194.15 39.0667 1193.76 38.96 1193.35 38.96C1192.93 38.96 1192.55 39.0613 1192.2 39.264C1191.84 39.4667 1191.56 39.7653 1191.33 40.16C1191.12 40.544 1191.01 41.0027 1191.01 41.536C1191.01 42.0693 1191.12 42.5387 1191.33 42.944C1191.56 43.3387 1191.84 43.6427 1192.2 43.856C1192.56 44.0693 1192.94 44.176 1193.35 44.176C1193.76 44.176 1194.15 44.0747 1194.52 43.872C1194.88 43.6587 1195.17 43.36 1195.38 42.976C1195.59 42.5813 1195.7 42.112 1195.7 41.568ZM1199.57 41.568C1199.57 40.6507 1199.75 39.8507 1200.13 39.168C1200.5 38.4747 1201.02 37.9413 1201.68 37.568C1202.34 37.184 1203.1 36.992 1203.95 36.992C1205.05 36.992 1205.96 37.2693 1206.67 37.824C1207.4 38.368 1207.88 39.136 1208.13 40.128H1205.71C1205.58 39.744 1205.36 39.4453 1205.06 39.232C1204.76 39.008 1204.38 38.896 1203.94 38.896C1203.3 38.896 1202.79 39.1307 1202.42 39.6C1202.04 40.0587 1201.86 40.7147 1201.86 41.568C1201.86 42.4107 1202.04 43.0667 1202.42 43.536C1202.79 43.9947 1203.3 44.224 1203.94 44.224C1204.84 44.224 1205.43 43.8187 1205.71 43.008H1208.13C1207.88 43.968 1207.4 44.7307 1206.67 45.296C1205.95 45.8613 1205.04 46.144 1203.95 46.144C1203.1 46.144 1202.34 45.9573 1201.68 45.584C1201.02 45.2 1200.5 44.6667 1200.13 43.984C1199.75 43.2907 1199.57 42.4853 1199.57 41.568ZM1212.38 38.976V43.264C1212.38 43.5627 1212.45 43.7813 1212.58 43.92C1212.73 44.048 1212.98 44.112 1213.32 44.112H1214.36V46H1212.95C1211.06 46 1210.12 45.0827 1210.12 43.248V38.976H1209.06V37.136H1210.12V34.944H1212.38V37.136H1214.36V38.976H1212.38ZM1219.91 46.144C1219.05 46.144 1218.29 45.9573 1217.6 45.584C1216.92 45.2 1216.38 44.6613 1215.99 43.968C1215.6 43.2747 1215.41 42.4747 1215.41 41.568C1215.41 40.6613 1215.61 39.8613 1216 39.168C1216.41 38.4747 1216.96 37.9413 1217.65 37.568C1218.34 37.184 1219.12 36.992 1219.97 36.992C1220.82 36.992 1221.6 37.184 1222.29 37.568C1222.98 37.9413 1223.53 38.4747 1223.92 39.168C1224.33 39.8613 1224.53 40.6613 1224.53 41.568C1224.53 42.4747 1224.32 43.2747 1223.91 43.968C1223.5 44.6613 1222.95 45.2 1222.24 45.584C1221.55 45.9573 1220.77 46.144 1219.91 46.144ZM1219.91 44.192C1220.31 44.192 1220.69 44.096 1221.04 43.904C1221.41 43.7013 1221.69 43.4027 1221.91 43.008C1222.12 42.6133 1222.23 42.1333 1222.23 41.568C1222.23 40.7253 1222 40.08 1221.56 39.632C1221.12 39.1733 1220.58 38.944 1219.94 38.944C1219.3 38.944 1218.76 39.1733 1218.32 39.632C1217.9 40.08 1217.68 40.7253 1217.68 41.568C1217.68 42.4107 1217.89 43.0613 1218.31 43.52C1218.73 43.968 1219.27 44.192 1219.91 44.192Z" fill="#4B4B4B"/>
<rect x="818.5" y="17.5" width="81" height="45" stroke="#4B4B4B"/>
<path d="M813.427 40.4C813.427 39.3013 813.673 38.32 814.163 37.456C814.665 36.5813 815.342 35.904 816.195 35.424C817.059 34.9333 818.025 34.688 819.091 34.688C820.339 34.688 821.433 35.008 822.371 35.648C823.31 36.288 823.966 37.1733 824.339 38.304H821.763C821.507 37.7707 821.145 37.3707 820.675 37.104C820.217 36.8373 819.683 36.704 819.075 36.704C818.425 36.704 817.843 36.8587 817.331 37.168C816.83 37.4667 816.435 37.8933 816.147 38.448C815.87 39.0027 815.731 39.6533 815.731 40.4C815.731 41.136 815.87 41.7867 816.147 42.352C816.435 42.9067 816.83 43.3387 817.331 43.648C817.843 43.9467 818.425 44.096 819.075 44.096C819.683 44.096 820.217 43.9627 820.675 43.696C821.145 43.4187 821.507 43.0133 821.763 42.48H824.339C823.966 43.6213 823.31 44.512 822.371 45.152C821.443 45.7813 820.35 46.096 819.091 46.096C818.025 46.096 817.059 45.856 816.195 45.376C815.342 44.8853 814.665 44.208 814.163 43.344C813.673 42.48 813.427 41.4987 813.427 40.4ZM830.188 46.144C829.335 46.144 828.567 45.9573 827.884 45.584C827.202 45.2 826.663 44.6613 826.268 43.968C825.884 43.2747 825.692 42.4747 825.692 41.568C825.692 40.6613 825.89 39.8613 826.284 39.168C826.69 38.4747 827.239 37.9413 827.932 37.568C828.626 37.184 829.399 36.992 830.252 36.992C831.106 36.992 831.879 37.184 832.572 37.568C833.266 37.9413 833.81 38.4747 834.204 39.168C834.61 39.8613 834.812 40.6613 834.812 41.568C834.812 42.4747 834.604 43.2747 834.188 43.968C833.783 44.6613 833.228 45.2 832.524 45.584C831.831 45.9573 831.052 46.144 830.188 46.144ZM830.188 44.192C830.594 44.192 830.972 44.096 831.324 43.904C831.687 43.7013 831.975 43.4027 832.188 43.008C832.402 42.6133 832.508 42.1333 832.508 41.568C832.508 40.7253 832.284 40.08 831.836 39.632C831.399 39.1733 830.86 38.944 830.22 38.944C829.58 38.944 829.042 39.1733 828.604 39.632C828.178 40.08 827.964 40.7253 827.964 41.568C827.964 42.4107 828.172 43.0613 828.588 43.52C829.015 43.968 829.548 44.192 830.188 44.192ZM841.368 37.008C842.424 37.008 843.277 37.344 843.928 38.016C844.578 38.6773 844.904 39.6053 844.904 40.8V46H842.664V41.104C842.664 40.4 842.488 39.8613 842.136 39.488C841.784 39.104 841.304 38.912 840.696 38.912C840.077 38.912 839.586 39.104 839.224 39.488C838.872 39.8613 838.696 40.4 838.696 41.104V46H836.456V37.136H838.696V38.24C838.994 37.856 839.373 37.5573 839.832 37.344C840.301 37.12 840.813 37.008 841.368 37.008ZM850.97 46.144C850.116 46.144 849.348 45.9573 848.666 45.584C847.983 45.2 847.444 44.6613 847.05 43.968C846.666 43.2747 846.474 42.4747 846.474 41.568C846.474 40.6613 846.671 39.8613 847.066 39.168C847.471 38.4747 848.02 37.9413 848.714 37.568C849.407 37.184 850.18 36.992 851.034 36.992C851.887 36.992 852.66 37.184 853.354 37.568C854.047 37.9413 854.591 38.4747 854.986 39.168C855.391 39.8613 855.594 40.6613 855.594 41.568C855.594 42.4747 855.386 43.2747 854.97 43.968C854.564 44.6613 854.01 45.2 853.306 45.584C852.612 45.9573 851.834 46.144 850.97 46.144ZM850.97 44.192C851.375 44.192 851.754 44.096 852.106 43.904C852.468 43.7013 852.756 43.4027 852.97 43.008C853.183 42.6133 853.29 42.1333 853.29 41.568C853.29 40.7253 853.066 40.08 852.618 39.632C852.18 39.1733 851.642 38.944 851.002 38.944C850.362 38.944 849.823 39.1733 849.386 39.632C848.959 40.08 848.746 40.7253 848.746 41.568C848.746 42.4107 848.954 43.0613 849.37 43.52C849.796 43.968 850.33 44.192 850.97 44.192ZM856.661 41.568C856.661 40.6507 856.847 39.8507 857.221 39.168C857.594 38.4747 858.111 37.9413 858.773 37.568C859.434 37.184 860.191 36.992 861.045 36.992C862.143 36.992 863.05 37.2693 863.765 37.824C864.49 38.368 864.975 39.136 865.221 40.128H862.805C862.677 39.744 862.458 39.4453 862.149 39.232C861.85 39.008 861.477 38.896 861.029 38.896C860.389 38.896 859.882 39.1307 859.509 39.6C859.135 40.0587 858.949 40.7147 858.949 41.568C858.949 42.4107 859.135 43.0667 859.509 43.536C859.882 43.9947 860.389 44.224 861.029 44.224C861.935 44.224 862.527 43.8187 862.805 43.008H865.221C864.975 43.968 864.49 44.7307 863.765 45.296C863.039 45.8613 862.133 46.144 861.045 46.144C860.191 46.144 859.434 45.9573 858.773 45.584C858.111 45.2 857.594 44.6667 857.221 43.984C856.847 43.2907 856.661 42.4853 856.661 41.568ZM875.102 41.376C875.102 41.696 875.08 41.984 875.038 42.24H868.558C868.611 42.88 868.835 43.3813 869.23 43.744C869.624 44.1067 870.11 44.288 870.686 44.288C871.518 44.288 872.11 43.9307 872.462 43.216H874.878C874.622 44.0693 874.131 44.7733 873.406 45.328C872.68 45.872 871.79 46.144 870.734 46.144C869.88 46.144 869.112 45.9573 868.43 45.584C867.758 45.2 867.23 44.6613 866.846 43.968C866.472 43.2747 866.286 42.4747 866.286 41.568C866.286 40.6507 866.472 39.8453 866.846 39.152C867.219 38.4587 867.742 37.9253 868.414 37.552C869.086 37.1787 869.859 36.992 870.734 36.992C871.576 36.992 872.328 37.1733 872.99 37.536C873.662 37.8987 874.179 38.416 874.542 39.088C874.915 39.7493 875.102 40.512 875.102 41.376ZM872.782 40.736C872.771 40.16 872.563 39.7013 872.158 39.36C871.752 39.008 871.256 38.832 870.67 38.832C870.115 38.832 869.646 39.0027 869.262 39.344C868.888 39.6747 868.659 40.1387 868.574 40.736H872.782ZM881.649 37.008C882.705 37.008 883.558 37.344 884.209 38.016C884.859 38.6773 885.185 39.6053 885.185 40.8V46H882.945V41.104C882.945 40.4 882.769 39.8613 882.417 39.488C882.065 39.104 881.585 38.912 880.977 38.912C880.358 38.912 879.867 39.104 879.505 39.488C879.153 39.8613 878.977 40.4 878.977 41.104V46H876.737V37.136H878.977V38.24C879.275 37.856 879.654 37.5573 880.113 37.344C880.582 37.12 881.094 37.008 881.649 37.008ZM891.251 46.144C890.398 46.144 889.63 45.9573 888.947 45.584C888.264 45.2 887.726 44.6613 887.331 43.968C886.947 43.2747 886.755 42.4747 886.755 41.568C886.755 40.6613 886.952 39.8613 887.347 39.168C887.752 38.4747 888.302 37.9413 888.995 37.568C889.688 37.184 890.462 36.992 891.315 36.992C892.168 36.992 892.942 37.184 893.635 37.568C894.328 37.9413 894.872 38.4747 895.267 39.168C895.672 39.8613 895.875 40.6613 895.875 41.568C895.875 42.4747 895.667 43.2747 895.251 43.968C894.846 44.6613 894.291 45.2 893.587 45.584C892.894 45.9573 892.115 46.144 891.251 46.144ZM891.251 44.192C891.656 44.192 892.035 44.096 892.387 43.904C892.75 43.7013 893.038 43.4027 893.251 43.008C893.464 42.6133 893.571 42.1333 893.571 41.568C893.571 40.7253 893.347 40.08 892.899 39.632C892.462 39.1733 891.923 38.944 891.283 38.944C890.643 38.944 890.104 39.1733 889.667 39.632C889.24 40.08 889.027 40.7253 889.027 41.568C889.027 42.4107 889.235 43.0613 889.651 43.52C890.078 43.968 890.611 44.192 891.251 44.192ZM900.91 46.144C900.185 46.144 899.534 46.016 898.958 45.76C898.382 45.4933 897.923 45.136 897.582 44.688C897.251 44.24 897.07 43.744 897.038 43.2H899.294C899.337 43.5413 899.502 43.824 899.79 44.048C900.089 44.272 900.457 44.384 900.894 44.384C901.321 44.384 901.651 44.2987 901.886 44.128C902.131 43.9573 902.254 43.7387 902.254 43.472C902.254 43.184 902.105 42.9707 901.806 42.832C901.518 42.6827 901.054 42.5227 900.414 42.352C899.753 42.192 899.209 42.0267 898.782 41.856C898.366 41.6853 898.003 41.424 897.694 41.072C897.395 40.72 897.246 40.2453 897.246 39.648C897.246 39.1573 897.385 38.7093 897.662 38.304C897.95 37.8987 898.355 37.5787 898.878 37.344C899.411 37.1093 900.035 36.992 900.75 36.992C901.806 36.992 902.649 37.2587 903.278 37.792C903.907 38.3147 904.254 39.024 904.318 39.92H902.174C902.142 39.568 901.993 39.2907 901.726 39.088C901.47 38.8747 901.123 38.768 900.686 38.768C900.281 38.768 899.966 38.8427 899.742 38.992C899.529 39.1413 899.422 39.3493 899.422 39.616C899.422 39.9147 899.571 40.144 899.87 40.304C900.169 40.4533 900.633 40.608 901.262 40.768C901.902 40.928 902.43 41.0933 902.846 41.264C903.262 41.4347 903.619 41.7013 903.918 42.064C904.227 42.416 904.387 42.8853 904.398 43.472C904.398 43.984 904.254 44.4427 903.966 44.848C903.689 45.2533 903.283 45.5733 902.75 45.808C902.227 46.032 901.614 46.144 900.91 46.144Z" fill="#4B4B4B"/>
<rect x="992.5" y="17.5" width="81" height="45" stroke="#4B4B4B"/>
<path d="M974.423 34.832V46H972.183V41.248H967.399V46H965.159V34.832H967.399V39.424H972.183V34.832H974.423ZM977.763 36.08C977.369 36.08 977.038 35.9573 976.771 35.712C976.515 35.456 976.387 35.1413 976.387 34.768C976.387 34.3947 976.515 34.0853 976.771 33.84C977.038 33.584 977.369 33.456 977.763 33.456C978.158 33.456 978.483 33.584 978.739 33.84C979.006 34.0853 979.139 34.3947 979.139 34.768C979.139 35.1413 979.006 35.456 978.739 35.712C978.483 35.9573 978.158 36.08 977.763 36.08ZM978.867 37.136V46H976.627V37.136H978.867ZM984.473 46.144C983.747 46.144 983.097 46.016 982.521 45.76C981.945 45.4933 981.486 45.136 981.145 44.688C980.814 44.24 980.633 43.744 980.601 43.2H982.857C982.899 43.5413 983.065 43.824 983.353 44.048C983.651 44.272 984.019 44.384 984.457 44.384C984.883 44.384 985.214 44.2987 985.449 44.128C985.694 43.9573 985.817 43.7387 985.817 43.472C985.817 43.184 985.667 42.9707 985.369 42.832C985.081 42.6827 984.617 42.5227 983.977 42.352C983.315 42.192 982.771 42.0267 982.345 41.856C981.929 41.6853 981.566 41.424 981.257 41.072C980.958 40.72 980.809 40.2453 980.809 39.648C980.809 39.1573 980.947 38.7093 981.225 38.304C981.513 37.8987 981.918 37.5787 982.441 37.344C982.974 37.1093 983.598 36.992 984.313 36.992C985.369 36.992 986.211 37.2587 986.841 37.792C987.47 38.3147 987.817 39.024 987.881 39.92H985.737C985.705 39.568 985.555 39.2907 985.289 39.088C985.033 38.8747 984.686 38.768 984.249 38.768C983.843 38.768 983.529 38.8427 983.305 38.992C983.091 39.1413 982.985 39.3493 982.985 39.616C982.985 39.9147 983.134 40.144 983.433 40.304C983.731 40.4533 984.195 40.608 984.825 40.768C985.465 40.928 985.993 41.0933 986.409 41.264C986.825 41.4347 987.182 41.7013 987.481 42.064C987.79 42.416 987.95 42.8853 987.961 43.472C987.961 43.984 987.817 44.4427 987.529 44.848C987.251 45.2533 986.846 45.5733 986.313 45.808C985.79 46.032 985.177 46.144 984.473 46.144ZM992.407 38.976V43.264C992.407 43.5627 992.477 43.7813 992.615 43.92C992.765 44.048 993.01 44.112 993.351 44.112H994.391V46H992.983C991.095 46 990.151 45.0827 990.151 43.248V38.976H989.095V37.136H990.151V34.944H992.407V37.136H994.391V38.976H992.407ZM999.938 46.144C999.085 46.144 998.317 45.9573 997.634 45.584C996.952 45.2 996.413 44.6613 996.018 43.968C995.634 43.2747 995.442 42.4747 995.442 41.568C995.442 40.6613 995.64 39.8613 996.034 39.168C996.44 38.4747 996.989 37.9413 997.682 37.568C998.376 37.184 999.149 36.992 1000 36.992C1000.86 36.992 1001.63 37.184 1002.32 37.568C1003.02 37.9413 1003.56 38.4747 1003.95 39.168C1004.36 39.8613 1004.56 40.6613 1004.56 41.568C1004.56 42.4747 1004.35 43.2747 1003.94 43.968C1003.53 44.6613 1002.98 45.2 1002.27 45.584C1001.58 45.9573 1000.8 46.144 999.938 46.144ZM999.938 44.192C1000.34 44.192 1000.72 44.096 1001.07 43.904C1001.44 43.7013 1001.73 43.4027 1001.94 43.008C1002.15 42.6133 1002.26 42.1333 1002.26 41.568C1002.26 40.7253 1002.03 40.08 1001.59 39.632C1001.15 39.1733 1000.61 38.944 999.97 38.944C999.33 38.944 998.792 39.1733 998.354 39.632C997.928 40.08 997.714 40.7253 997.714 41.568C997.714 42.4107 997.922 43.0613 998.338 43.52C998.765 43.968 999.298 44.192 999.938 44.192ZM1008.45 38.512C1008.73 38.0427 1009.11 37.6747 1009.57 37.408C1010.03 37.1413 1010.57 37.008 1011.17 37.008V39.36H1010.57C1009.87 39.36 1009.34 39.5253 1008.97 39.856C1008.62 40.1867 1008.45 40.7627 1008.45 41.584V46H1006.21V37.136H1008.45V38.512ZM1013.81 36.08C1013.42 36.08 1013.08 35.9573 1012.82 35.712C1012.56 35.456 1012.43 35.1413 1012.43 34.768C1012.43 34.3947 1012.56 34.0853 1012.82 33.84C1013.08 33.584 1013.42 33.456 1013.81 33.456C1014.2 33.456 1014.53 33.584 1014.79 33.84C1015.05 34.0853 1015.19 34.3947 1015.19 34.768C1015.19 35.1413 1015.05 35.456 1014.79 35.712C1014.53 35.9573 1014.2 36.08 1013.81 36.08ZM1014.91 37.136V46H1012.67V37.136H1014.91ZM1016.55 41.536C1016.55 40.64 1016.73 39.8453 1017.08 39.152C1017.44 38.4587 1017.93 37.9253 1018.54 37.552C1019.15 37.1787 1019.84 36.992 1020.6 36.992C1021.26 36.992 1021.84 37.1253 1022.33 37.392C1022.83 37.6587 1023.23 37.9947 1023.53 38.4V37.136H1025.78V46H1023.53V44.704C1023.24 45.12 1022.84 45.4667 1022.33 45.744C1021.83 46.0107 1021.24 46.144 1020.58 46.144C1019.84 46.144 1019.15 45.952 1018.54 45.568C1017.93 45.184 1017.44 44.6453 1017.08 43.952C1016.73 43.248 1016.55 42.4427 1016.55 41.536ZM1023.53 41.568C1023.53 41.024 1023.42 40.56 1023.21 40.176C1022.99 39.7813 1022.71 39.4827 1022.34 39.28C1021.98 39.0667 1021.59 38.96 1021.18 38.96C1020.76 38.96 1020.38 39.0613 1020.02 39.264C1019.67 39.4667 1019.38 39.7653 1019.16 40.16C1018.95 40.544 1018.84 41.0027 1018.84 41.536C1018.84 42.0693 1018.95 42.5387 1019.16 42.944C1019.38 43.3387 1019.67 43.6427 1020.02 43.856C1020.39 44.0693 1020.77 44.176 1021.18 44.176C1021.59 44.176 1021.98 44.0747 1022.34 43.872C1022.71 43.6587 1022.99 43.36 1023.21 42.976C1023.42 42.5813 1023.53 42.112 1023.53 41.568ZM1031.36 46.144C1030.64 46.144 1029.99 46.016 1029.41 45.76C1028.84 45.4933 1028.38 45.136 1028.04 44.688C1027.7 44.24 1027.52 43.744 1027.49 43.2H1029.75C1029.79 43.5413 1029.96 43.824 1030.24 44.048C1030.54 44.272 1030.91 44.384 1031.35 44.384C1031.77 44.384 1032.1 44.2987 1032.34 44.128C1032.58 43.9573 1032.71 43.7387 1032.71 43.472C1032.71 43.184 1032.56 42.9707 1032.26 42.832C1031.97 42.6827 1031.51 42.5227 1030.87 42.352C1030.21 42.192 1029.66 42.0267 1029.24 41.856C1028.82 41.6853 1028.46 41.424 1028.15 41.072C1027.85 40.72 1027.7 40.2453 1027.7 39.648C1027.7 39.1573 1027.84 38.7093 1028.12 38.304C1028.4 37.8987 1028.81 37.5787 1029.33 37.344C1029.86 37.1093 1030.49 36.992 1031.2 36.992C1032.26 36.992 1033.1 37.2587 1033.73 37.792C1034.36 38.3147 1034.71 39.024 1034.77 39.92H1032.63C1032.6 39.568 1032.45 39.2907 1032.18 39.088C1031.92 38.8747 1031.58 38.768 1031.14 38.768C1030.73 38.768 1030.42 38.8427 1030.2 38.992C1029.98 39.1413 1029.88 39.3493 1029.88 39.616C1029.88 39.9147 1030.02 40.144 1030.32 40.304C1030.62 40.4533 1031.09 40.608 1031.72 40.768C1032.36 40.928 1032.88 41.0933 1033.3 41.264C1033.72 41.4347 1034.07 41.7013 1034.37 42.064C1034.68 42.416 1034.84 42.8853 1034.85 43.472C1034.85 43.984 1034.71 44.4427 1034.42 44.848C1034.14 45.2533 1033.74 45.5733 1033.2 45.808C1032.68 46.032 1032.07 46.144 1031.36 46.144ZM1039.93 41.536C1039.93 40.64 1040.1 39.8453 1040.45 39.152C1040.82 38.4587 1041.31 37.9253 1041.93 37.552C1042.55 37.1787 1043.23 36.992 1043.99 36.992C1044.57 36.992 1045.12 37.12 1045.64 37.376C1046.16 37.6213 1046.58 37.952 1046.89 38.368V34.16H1049.16V46H1046.89V44.688C1046.61 45.1253 1046.22 45.4773 1045.72 45.744C1045.22 46.0107 1044.64 46.144 1043.97 46.144C1043.23 46.144 1042.55 45.952 1041.93 45.568C1041.31 45.184 1040.82 44.6453 1040.45 43.952C1040.1 43.248 1039.93 42.4427 1039.93 41.536ZM1046.9 41.568C1046.9 41.024 1046.8 40.56 1046.58 40.176C1046.37 39.7813 1046.08 39.4827 1045.72 39.28C1045.36 39.0667 1044.97 38.96 1044.55 38.96C1044.13 38.96 1043.75 39.0613 1043.4 39.264C1043.05 39.4667 1042.76 39.7653 1042.53 40.16C1042.32 40.544 1042.21 41.0027 1042.21 41.536C1042.21 42.0693 1042.32 42.5387 1042.53 42.944C1042.76 43.3387 1043.05 43.6427 1043.4 43.856C1043.76 44.0693 1044.15 44.176 1044.55 44.176C1044.97 44.176 1045.36 44.0747 1045.72 43.872C1046.08 43.6587 1046.37 43.36 1046.58 42.976C1046.8 42.5813 1046.9 42.112 1046.9 41.568ZM1059.59 41.376C1059.59 41.696 1059.56 41.984 1059.52 42.24H1053.04C1053.1 42.88 1053.32 43.3813 1053.71 43.744C1054.11 44.1067 1054.59 44.288 1055.17 44.288C1056 44.288 1056.59 43.9307 1056.95 43.216H1059.36C1059.11 44.0693 1058.62 44.7733 1057.89 45.328C1057.16 45.872 1056.27 46.144 1055.22 46.144C1054.36 46.144 1053.6 45.9573 1052.91 45.584C1052.24 45.2 1051.71 44.6613 1051.33 43.968C1050.96 43.2747 1050.77 42.4747 1050.77 41.568C1050.77 40.6507 1050.96 39.8453 1051.33 39.152C1051.7 38.4587 1052.23 37.9253 1052.9 37.552C1053.57 37.1787 1054.34 36.992 1055.22 36.992C1056.06 36.992 1056.81 37.1733 1057.47 37.536C1058.15 37.8987 1058.66 38.416 1059.03 39.088C1059.4 39.7493 1059.59 40.512 1059.59 41.376ZM1057.27 40.736C1057.26 40.16 1057.05 39.7013 1056.64 39.36C1056.24 39.008 1055.74 38.832 1055.15 38.832C1054.6 38.832 1054.13 39.0027 1053.75 39.344C1053.37 39.6747 1053.14 40.1387 1053.06 40.736H1057.27ZM1067.27 36.64V39.44H1071.03V41.216H1067.27V44.176H1071.51V46H1065.03V34.816H1071.51V36.64H1067.27ZM1078.45 46L1076.62 43.248L1075.01 46H1072.61L1075.5 41.552L1072.57 37.136H1075.1L1076.91 39.872L1078.54 37.136H1080.94L1078.03 41.552L1080.97 46H1078.45ZM1083.33 36.08C1082.93 36.08 1082.6 35.9573 1082.33 35.712C1082.08 35.456 1081.95 35.1413 1081.95 34.768C1081.95 34.3947 1082.08 34.0853 1082.33 33.84C1082.6 33.584 1082.93 33.456 1083.33 33.456C1083.72 33.456 1084.05 33.584 1084.3 33.84C1084.57 34.0853 1084.7 34.3947 1084.7 34.768C1084.7 35.1413 1084.57 35.456 1084.3 35.712C1084.05 35.9573 1083.72 36.08 1083.33 36.08ZM1084.43 37.136V46H1082.19V37.136H1084.43ZM1089.25 38.976V43.264C1089.25 43.5627 1089.32 43.7813 1089.46 43.92C1089.61 44.048 1089.85 44.112 1090.2 44.112H1091.24V46H1089.83C1087.94 46 1087 45.0827 1087 43.248V38.976H1085.94V37.136H1087V34.944H1089.25V37.136H1091.24V38.976H1089.25ZM1096.78 46.144C1095.93 46.144 1095.16 45.9573 1094.48 45.584C1093.8 45.2 1093.26 44.6613 1092.86 43.968C1092.48 43.2747 1092.29 42.4747 1092.29 41.568C1092.29 40.6613 1092.48 39.8613 1092.88 39.168C1093.28 38.4747 1093.83 37.9413 1094.53 37.568C1095.22 37.184 1095.99 36.992 1096.85 36.992C1097.7 36.992 1098.47 37.184 1099.17 37.568C1099.86 37.9413 1100.4 38.4747 1100.8 39.168C1101.2 39.8613 1101.41 40.6613 1101.41 41.568C1101.41 42.4747 1101.2 43.2747 1100.78 43.968C1100.38 44.6613 1099.82 45.2 1099.12 45.584C1098.42 45.9573 1097.65 46.144 1096.78 46.144ZM1096.78 44.192C1097.19 44.192 1097.57 44.096 1097.92 43.904C1098.28 43.7013 1098.57 43.4027 1098.78 43.008C1099 42.6133 1099.1 42.1333 1099.1 41.568C1099.1 40.7253 1098.88 40.08 1098.43 39.632C1097.99 39.1733 1097.45 38.944 1096.81 38.944C1096.17 38.944 1095.64 39.1733 1095.2 39.632C1094.77 40.08 1094.56 40.7253 1094.56 41.568C1094.56 42.4107 1094.77 43.0613 1095.18 43.52C1095.61 43.968 1096.14 44.192 1096.78 44.192Z" fill="#4B4B4B"/>
<circle cx="118" cy="40" r="20" fill="#F39200"/>
</g>
<defs>
<filter id="filter0_d_894_4896" x="0" y="0" width="1476" height="96" filterUnits="userSpaceOnUse" color-interpolation-filters="sRGB">
<feFlood flood-opacity="0" result="BackgroundImageFix"/>
<feColorMatrix in="SourceAlpha" type="matrix" values="0 0 0 0 0 0 0 0 0 0 0 0 0 0 0 0 0 0 127 0" result="hardAlpha"/>
<feOffset dy="8"/>
<feGaussianBlur stdDeviation="9"/>
<feComposite in2="hardAlpha" operator="out"/>
<feColorMatrix type="matrix" values="0 0 0 0 0.101961 0 0 0 0 0.101961 0 0 0 0 0.101961 0 0 0 0.12 0"/>
<feBlend mode="normal" in2="BackgroundImageFix" result="effect1_dropShadow_894_4896"/>
<feBlend mode="normal" in="SourceGraphic" in2="effect1_dropShadow_894_4896" result="shape"/>
</filter>
</defs>
</svg>
