<svg width="877" height="498" viewBox="0 0 877 498" fill="none" xmlns="http://www.w3.org/2000/svg">
<rect width="877" height="498" fill="#FFFDFB"/>
<path d="M274.823 129.83H268.227L268.772 105.182H274.261L274.823 129.83ZM271.516 94.5455C272.528 94.5455 273.403 94.9148 274.141 95.6534C274.891 96.3807 275.266 97.2614 275.266 98.2955C275.266 99.3182 274.891 100.193 274.141 100.92C273.403 101.648 272.528 102.011 271.516 102.011C270.482 102.011 269.596 101.648 268.857 100.92C268.13 100.193 267.766 99.3182 267.766 98.2955C267.766 97.6023 267.937 96.9716 268.278 96.4034C268.619 95.8352 269.073 95.3864 269.641 95.0568C270.21 94.7159 270.835 94.5455 271.516 94.5455ZM282.357 121V86.0909H304.721V91.392H288.681V100.869H303.187V106.17H288.681V121H282.357ZM319.879 121.511C317.254 121.511 314.987 120.966 313.077 119.875C311.18 118.773 309.719 117.216 308.697 115.205C307.674 113.182 307.163 110.801 307.163 108.062C307.163 105.369 307.674 103.006 308.697 100.972C309.731 98.9261 311.174 97.3352 313.026 96.1989C314.879 95.0511 317.055 94.4773 319.555 94.4773C321.168 94.4773 322.691 94.7386 324.123 95.2614C325.566 95.7727 326.839 96.5682 327.941 97.6477C329.055 98.7273 329.93 100.102 330.566 101.773C331.202 103.432 331.521 105.409 331.521 107.705V109.597H310.06V105.438H325.606C325.594 104.256 325.339 103.205 324.839 102.284C324.339 101.352 323.64 100.619 322.742 100.085C321.856 99.5511 320.822 99.2841 319.64 99.2841C318.379 99.2841 317.271 99.5909 316.316 100.205C315.362 100.807 314.617 101.602 314.083 102.591C313.56 103.568 313.293 104.642 313.282 105.812V109.443C313.282 110.966 313.56 112.273 314.117 113.364C314.674 114.443 315.452 115.273 316.452 115.852C317.452 116.42 318.623 116.705 319.964 116.705C320.862 116.705 321.674 116.58 322.401 116.33C323.129 116.068 323.759 115.688 324.293 115.188C324.827 114.688 325.231 114.068 325.504 113.33L331.265 113.977C330.901 115.5 330.208 116.83 329.185 117.966C328.174 119.091 326.879 119.966 325.299 120.591C323.719 121.205 321.913 121.511 319.879 121.511ZM342.911 86.0909V121H336.741V86.0909H342.911ZM349.256 121V94.8182H355.427V121H349.256ZM352.359 91.1023C351.381 91.1023 350.54 90.7784 349.836 90.1307C349.131 89.4716 348.779 88.6818 348.779 87.7614C348.779 86.8295 349.131 86.0398 349.836 85.392C350.54 84.733 351.381 84.4034 352.359 84.4034C353.347 84.4034 354.188 84.733 354.881 85.392C355.586 86.0398 355.938 86.8295 355.938 87.7614C355.938 88.6818 355.586 89.4716 354.881 90.1307C354.188 90.7784 353.347 91.1023 352.359 91.1023ZM373.192 121.511C370.579 121.511 368.335 120.938 366.46 119.79C364.596 118.642 363.158 117.057 362.147 115.034C361.147 113 360.647 110.659 360.647 108.011C360.647 105.352 361.158 103.006 362.181 100.972C363.204 98.9261 364.647 97.3352 366.511 96.1989C368.386 95.0511 370.602 94.4773 373.158 94.4773C375.283 94.4773 377.164 94.8693 378.8 95.6534C380.448 96.4261 381.761 97.5227 382.738 98.9432C383.715 100.352 384.272 102 384.408 103.886H378.511C378.272 102.625 377.704 101.574 376.806 100.733C375.92 99.8807 374.732 99.4545 373.244 99.4545C371.982 99.4545 370.874 99.7955 369.92 100.477C368.965 101.148 368.221 102.114 367.687 103.375C367.164 104.636 366.903 106.148 366.903 107.909C366.903 109.693 367.164 111.227 367.687 112.511C368.21 113.784 368.942 114.767 369.886 115.46C370.84 116.142 371.96 116.483 373.244 116.483C374.153 116.483 374.965 116.312 375.681 115.972C376.408 115.619 377.016 115.114 377.505 114.455C377.994 113.795 378.329 112.994 378.511 112.051H384.408C384.261 113.903 383.715 115.545 382.772 116.977C381.829 118.398 380.545 119.511 378.92 120.318C377.295 121.114 375.386 121.511 373.192 121.511ZM389.475 121V94.8182H395.646V121H389.475ZM392.577 91.1023C391.6 91.1023 390.759 90.7784 390.055 90.1307C389.35 89.4716 388.998 88.6818 388.998 87.7614C388.998 86.8295 389.35 86.0398 390.055 85.392C390.759 84.733 391.6 84.4034 392.577 84.4034C393.566 84.4034 394.407 84.733 395.1 85.392C395.805 86.0398 396.157 86.8295 396.157 87.7614C396.157 88.6818 395.805 89.4716 395.1 90.1307C394.407 90.7784 393.566 91.1023 392.577 91.1023ZM415.065 94.8182V99.5909H400.013V94.8182H415.065ZM403.729 88.5455H409.9V113.125C409.9 113.955 410.025 114.591 410.275 115.034C410.536 115.466 410.877 115.761 411.298 115.92C411.718 116.08 412.184 116.159 412.695 116.159C413.082 116.159 413.434 116.131 413.752 116.074C414.082 116.017 414.332 115.966 414.502 115.92L415.542 120.744C415.212 120.858 414.741 120.983 414.127 121.119C413.525 121.256 412.786 121.335 411.911 121.358C410.366 121.403 408.974 121.17 407.735 120.659C406.496 120.136 405.513 119.33 404.786 118.239C404.07 117.148 403.718 115.784 403.729 114.148V88.5455ZM427.759 121.528C426.1 121.528 424.606 121.233 423.276 120.642C421.958 120.04 420.913 119.153 420.14 117.983C419.379 116.812 418.998 115.369 418.998 113.653C418.998 112.176 419.271 110.955 419.816 109.989C420.362 109.023 421.106 108.25 422.049 107.67C422.992 107.091 424.055 106.653 425.237 106.358C426.43 106.051 427.663 105.83 428.935 105.693C430.469 105.534 431.714 105.392 432.668 105.267C433.623 105.131 434.316 104.926 434.748 104.653C435.191 104.369 435.413 103.932 435.413 103.341V103.239C435.413 101.955 435.032 100.96 434.271 100.256C433.509 99.5511 432.413 99.1989 430.981 99.1989C429.469 99.1989 428.271 99.5284 427.384 100.188C426.509 100.847 425.918 101.625 425.612 102.523L419.85 101.705C420.305 100.114 421.055 98.7841 422.1 97.7159C423.146 96.6364 424.424 95.8295 425.935 95.2955C427.447 94.75 429.117 94.4773 430.947 94.4773C432.208 94.4773 433.464 94.625 434.714 94.9205C435.964 95.2159 437.106 95.7045 438.14 96.3864C439.174 97.0568 440.004 97.9716 440.629 99.1307C441.265 100.29 441.583 101.739 441.583 103.477V121H435.651V117.403H435.447C435.072 118.131 434.543 118.812 433.862 119.449C433.191 120.074 432.344 120.58 431.322 120.966C430.31 121.341 429.123 121.528 427.759 121.528ZM429.362 116.994C430.6 116.994 431.674 116.75 432.583 116.261C433.492 115.761 434.191 115.102 434.68 114.284C435.18 113.466 435.43 112.574 435.43 111.608V108.523C435.237 108.682 434.907 108.83 434.441 108.966C433.987 109.102 433.475 109.222 432.907 109.324C432.339 109.426 431.776 109.517 431.219 109.597C430.663 109.676 430.18 109.744 429.771 109.801C428.85 109.926 428.026 110.131 427.299 110.415C426.572 110.699 425.998 111.097 425.577 111.608C425.157 112.108 424.947 112.756 424.947 113.551C424.947 114.688 425.362 115.545 426.191 116.125C427.021 116.705 428.077 116.994 429.362 116.994ZM459.208 121.511C456.594 121.511 454.35 120.938 452.475 119.79C450.612 118.642 449.174 117.057 448.163 115.034C447.163 113 446.663 110.659 446.663 108.011C446.663 105.352 447.174 103.006 448.197 100.972C449.219 98.9261 450.663 97.3352 452.526 96.1989C454.401 95.0511 456.617 94.4773 459.174 94.4773C461.299 94.4773 463.18 94.8693 464.816 95.6534C466.464 96.4261 467.776 97.5227 468.754 98.9432C469.731 100.352 470.288 102 470.424 103.886H464.526C464.288 102.625 463.719 101.574 462.822 100.733C461.935 99.8807 460.748 99.4545 459.259 99.4545C457.998 99.4545 456.89 99.7955 455.935 100.477C454.981 101.148 454.237 102.114 453.702 103.375C453.18 104.636 452.918 106.148 452.918 107.909C452.918 109.693 453.18 111.227 453.702 112.511C454.225 113.784 454.958 114.767 455.901 115.46C456.856 116.142 457.975 116.483 459.259 116.483C460.168 116.483 460.981 116.312 461.697 115.972C462.424 115.619 463.032 115.114 463.521 114.455C464.009 113.795 464.344 112.994 464.526 112.051H470.424C470.276 113.903 469.731 115.545 468.788 116.977C467.844 118.398 466.56 119.511 464.935 120.318C463.31 121.114 461.401 121.511 459.208 121.511ZM475.491 121V94.8182H481.661V121H475.491ZM478.593 91.1023C477.616 91.1023 476.775 90.7784 476.07 90.1307C475.366 89.4716 475.013 88.6818 475.013 87.7614C475.013 86.8295 475.366 86.0398 476.07 85.392C476.775 84.733 477.616 84.4034 478.593 84.4034C479.582 84.4034 480.423 84.733 481.116 85.392C481.82 86.0398 482.173 86.8295 482.173 87.7614C482.173 88.6818 481.82 89.4716 481.116 90.1307C480.423 90.7784 479.582 91.1023 478.593 91.1023ZM499.427 121.511C496.87 121.511 494.654 120.949 492.779 119.824C490.904 118.699 489.45 117.125 488.415 115.102C487.393 113.08 486.881 110.716 486.881 108.011C486.881 105.307 487.393 102.937 488.415 100.903C489.45 98.8693 490.904 97.2898 492.779 96.1648C494.654 95.0398 496.87 94.4773 499.427 94.4773C501.984 94.4773 504.2 95.0398 506.075 96.1648C507.95 97.2898 509.398 98.8693 510.421 100.903C511.455 102.937 511.972 105.307 511.972 108.011C511.972 110.716 511.455 113.08 510.421 115.102C509.398 117.125 507.95 118.699 506.075 119.824C504.2 120.949 501.984 121.511 499.427 121.511ZM499.461 116.568C500.847 116.568 502.006 116.187 502.938 115.426C503.87 114.653 504.563 113.619 505.018 112.324C505.484 111.028 505.717 109.585 505.717 107.994C505.717 106.392 505.484 104.943 505.018 103.648C504.563 102.341 503.87 101.301 502.938 100.528C502.006 99.7557 500.847 99.3693 499.461 99.3693C498.04 99.3693 496.859 99.7557 495.915 100.528C494.984 101.301 494.285 102.341 493.819 103.648C493.364 104.943 493.137 106.392 493.137 107.994C493.137 109.585 493.364 111.028 493.819 112.324C494.285 113.619 494.984 114.653 495.915 115.426C496.859 116.187 498.04 116.568 499.461 116.568ZM523.38 105.659V121H517.21V94.8182H523.107V99.267H523.414C524.016 97.8011 524.977 96.6364 526.295 95.7727C527.624 94.9091 529.266 94.4773 531.221 94.4773C533.028 94.4773 534.602 94.8636 535.942 95.6364C537.295 96.4091 538.34 97.5284 539.079 98.9943C539.829 100.46 540.198 102.239 540.187 104.33V121H534.016V105.284C534.016 103.534 533.562 102.165 532.653 101.176C531.755 100.187 530.511 99.6932 528.92 99.6932C527.84 99.6932 526.88 99.9318 526.039 100.409C525.21 100.875 524.556 101.551 524.079 102.438C523.613 103.324 523.38 104.398 523.38 105.659ZM558.05 121.511C555.425 121.511 553.158 120.966 551.249 119.875C549.352 118.773 547.891 117.216 546.869 115.205C545.846 113.182 545.335 110.801 545.335 108.062C545.335 105.369 545.846 103.006 546.869 100.972C547.903 98.9261 549.346 97.3352 551.198 96.1989C553.05 95.0511 555.227 94.4773 557.727 94.4773C559.34 94.4773 560.863 94.7386 562.295 95.2614C563.738 95.7727 565.011 96.5682 566.113 97.6477C567.227 98.7273 568.102 100.102 568.738 101.773C569.374 103.432 569.692 105.409 569.692 107.705V109.597H548.232V105.438H563.778C563.766 104.256 563.511 103.205 563.011 102.284C562.511 101.352 561.812 100.619 560.914 100.085C560.028 99.5511 558.994 99.2841 557.812 99.2841C556.55 99.2841 555.442 99.5909 554.488 100.205C553.533 100.807 552.789 101.602 552.255 102.591C551.732 103.568 551.465 104.642 551.454 105.812V109.443C551.454 110.966 551.732 112.273 552.289 113.364C552.846 114.443 553.624 115.273 554.624 115.852C555.624 116.42 556.795 116.705 558.136 116.705C559.033 116.705 559.846 116.58 560.573 116.33C561.3 116.068 561.931 115.688 562.465 115.188C562.999 114.688 563.403 114.068 563.675 113.33L569.437 113.977C569.073 115.5 568.38 116.83 567.357 117.966C566.346 119.091 565.05 119.966 563.471 120.591C561.891 121.205 560.085 121.511 558.05 121.511ZM595.606 101.739L589.981 102.352C589.822 101.784 589.543 101.25 589.146 100.75C588.759 100.25 588.237 99.8466 587.577 99.5398C586.918 99.233 586.112 99.0795 585.157 99.0795C583.873 99.0795 582.793 99.358 581.918 99.9148C581.055 100.472 580.629 101.193 580.64 102.08C580.629 102.841 580.907 103.46 581.475 103.938C582.055 104.415 583.009 104.807 584.339 105.114L588.805 106.068C591.282 106.602 593.123 107.449 594.327 108.608C595.543 109.767 596.157 111.284 596.168 113.159C596.157 114.807 595.674 116.261 594.719 117.523C593.776 118.773 592.464 119.75 590.782 120.455C589.1 121.159 587.168 121.511 584.987 121.511C581.782 121.511 579.202 120.841 577.248 119.5C575.293 118.148 574.129 116.267 573.754 113.858L579.771 113.278C580.043 114.46 580.623 115.352 581.509 115.955C582.396 116.557 583.549 116.858 584.969 116.858C586.435 116.858 587.612 116.557 588.498 115.955C589.396 115.352 589.844 114.608 589.844 113.722C589.844 112.972 589.555 112.352 588.975 111.864C588.407 111.375 587.521 111 586.316 110.739L581.85 109.801C579.339 109.278 577.481 108.398 576.276 107.159C575.072 105.909 574.475 104.33 574.487 102.42C574.475 100.807 574.913 99.4091 575.799 98.2273C576.697 97.0341 577.941 96.1136 579.532 95.4659C581.134 94.8068 582.981 94.4773 585.072 94.4773C588.14 94.4773 590.555 95.1307 592.316 96.4375C594.089 97.7443 595.185 99.5114 595.606 101.739ZM608.808 86.0909L608.245 110.739H602.756L602.211 86.0909H608.808ZM605.501 121.375C604.467 121.375 603.58 121.011 602.842 120.284C602.114 119.557 601.751 118.67 601.751 117.625C601.751 116.602 602.114 115.727 602.842 115C603.58 114.273 604.467 113.909 605.501 113.909C606.512 113.909 607.387 114.273 608.126 115C608.876 115.727 609.251 116.602 609.251 117.625C609.251 118.318 609.075 118.949 608.722 119.517C608.381 120.085 607.927 120.54 607.359 120.881C606.802 121.21 606.183 121.375 605.501 121.375Z" fill="#F39200"/>
<path d="M163.03 184V160.727H167.951V170.33H177.94V160.727H182.849V184H177.94V174.386H167.951V184H163.03ZM192.144 184.33C191.03 184.33 190.038 184.136 189.167 183.75C188.295 183.356 187.606 182.777 187.098 182.011C186.598 181.239 186.348 180.277 186.348 179.125C186.348 178.155 186.526 177.341 186.882 176.682C187.239 176.023 187.723 175.492 188.337 175.091C188.951 174.689 189.648 174.386 190.428 174.182C191.216 173.977 192.042 173.833 192.905 173.75C193.92 173.644 194.739 173.545 195.36 173.455C195.981 173.356 196.432 173.212 196.712 173.023C196.992 172.833 197.132 172.553 197.132 172.182V172.114C197.132 171.394 196.905 170.837 196.451 170.443C196.004 170.049 195.367 169.852 194.542 169.852C193.67 169.852 192.977 170.045 192.462 170.432C191.947 170.811 191.606 171.288 191.439 171.864L186.962 171.5C187.189 170.439 187.636 169.523 188.303 168.75C188.97 167.97 189.829 167.371 190.882 166.955C191.943 166.53 193.17 166.318 194.564 166.318C195.534 166.318 196.462 166.432 197.348 166.659C198.242 166.886 199.034 167.239 199.723 167.716C200.42 168.193 200.97 168.807 201.371 169.557C201.773 170.299 201.973 171.189 201.973 172.227V184H197.382V181.58H197.246C196.966 182.125 196.591 182.606 196.121 183.023C195.651 183.432 195.087 183.754 194.428 183.989C193.769 184.216 193.007 184.33 192.144 184.33ZM193.53 180.989C194.242 180.989 194.871 180.848 195.417 180.568C195.962 180.28 196.39 179.894 196.701 179.409C197.011 178.924 197.167 178.375 197.167 177.761V175.909C197.015 176.008 196.807 176.098 196.542 176.182C196.284 176.258 195.992 176.33 195.667 176.398C195.341 176.458 195.015 176.515 194.689 176.568C194.364 176.614 194.068 176.655 193.803 176.693C193.235 176.777 192.739 176.909 192.314 177.091C191.89 177.273 191.561 177.519 191.326 177.83C191.091 178.133 190.973 178.511 190.973 178.966C190.973 179.625 191.212 180.129 191.689 180.477C192.174 180.818 192.788 180.989 193.53 180.989ZM221.726 184.341C219.938 184.341 218.4 183.962 217.112 183.205C215.832 182.439 214.847 181.379 214.158 180.023C213.476 178.667 213.135 177.106 213.135 175.341C213.135 173.553 213.479 171.985 214.169 170.636C214.866 169.28 215.854 168.223 217.135 167.466C218.415 166.701 219.938 166.318 221.703 166.318C223.226 166.318 224.559 166.595 225.703 167.148C226.847 167.701 227.752 168.477 228.419 169.477C229.086 170.477 229.453 171.652 229.521 173H224.953C224.824 172.129 224.483 171.428 223.93 170.898C223.385 170.36 222.669 170.091 221.783 170.091C221.033 170.091 220.377 170.295 219.817 170.705C219.264 171.106 218.832 171.693 218.521 172.466C218.211 173.239 218.055 174.174 218.055 175.273C218.055 176.386 218.207 177.333 218.51 178.114C218.82 178.894 219.256 179.489 219.817 179.898C220.377 180.307 221.033 180.511 221.783 180.511C222.336 180.511 222.832 180.398 223.271 180.17C223.718 179.943 224.086 179.614 224.373 179.182C224.669 178.742 224.862 178.216 224.953 177.602H229.521C229.445 178.936 229.082 180.11 228.43 181.125C227.786 182.133 226.896 182.92 225.76 183.489C224.623 184.057 223.279 184.341 221.726 184.341ZM240.859 184.341C239.094 184.341 237.567 183.966 236.279 183.216C234.999 182.458 234.01 181.405 233.313 180.057C232.617 178.701 232.268 177.129 232.268 175.341C232.268 173.538 232.617 171.962 233.313 170.614C234.01 169.258 234.999 168.205 236.279 167.455C237.567 166.697 239.094 166.318 240.859 166.318C242.624 166.318 244.147 166.697 245.427 167.455C246.715 168.205 247.707 169.258 248.404 170.614C249.101 171.962 249.45 173.538 249.45 175.341C249.45 177.129 249.101 178.701 248.404 180.057C247.707 181.405 246.715 182.458 245.427 183.216C244.147 183.966 242.624 184.341 240.859 184.341ZM240.882 180.591C241.685 180.591 242.355 180.364 242.893 179.909C243.431 179.447 243.836 178.818 244.109 178.023C244.389 177.227 244.529 176.322 244.529 175.307C244.529 174.292 244.389 173.386 244.109 172.591C243.836 171.795 243.431 171.167 242.893 170.705C242.355 170.242 241.685 170.011 240.882 170.011C240.071 170.011 239.389 170.242 238.836 170.705C238.291 171.167 237.878 171.795 237.598 172.591C237.325 173.386 237.188 174.292 237.188 175.307C237.188 176.322 237.325 177.227 237.598 178.023C237.878 178.818 238.291 179.447 238.836 179.909C239.389 180.364 240.071 180.591 240.882 180.591ZM257.79 173.909V184H252.95V166.545H257.563V169.625H257.768C258.154 168.61 258.802 167.807 259.711 167.216C260.62 166.617 261.722 166.318 263.018 166.318C264.23 166.318 265.287 166.583 266.188 167.114C267.09 167.644 267.79 168.402 268.29 169.386C268.79 170.364 269.04 171.53 269.04 172.886V184H264.2V173.75C264.207 172.682 263.934 171.848 263.381 171.25C262.828 170.644 262.067 170.341 261.097 170.341C260.446 170.341 259.87 170.481 259.37 170.761C258.878 171.042 258.491 171.451 258.211 171.989C257.938 172.519 257.798 173.159 257.79 173.909ZM282.594 166.545V170.182H271.821V166.545H282.594ZM274.287 184V165.284C274.287 164.019 274.534 162.97 275.026 162.136C275.526 161.303 276.208 160.678 277.071 160.261C277.935 159.845 278.916 159.636 280.015 159.636C280.757 159.636 281.435 159.693 282.049 159.807C282.67 159.92 283.132 160.023 283.435 160.114L282.571 163.75C282.382 163.689 282.147 163.633 281.867 163.58C281.594 163.527 281.314 163.5 281.026 163.5C280.314 163.5 279.818 163.667 279.537 164C279.257 164.326 279.117 164.784 279.117 165.375V184H274.287ZM285.904 184V166.545H290.744V184H285.904ZM288.335 164.295C287.616 164.295 286.998 164.057 286.483 163.58C285.976 163.095 285.722 162.515 285.722 161.841C285.722 161.174 285.976 160.602 286.483 160.125C286.998 159.64 287.616 159.398 288.335 159.398C289.055 159.398 289.669 159.64 290.176 160.125C290.691 160.602 290.949 161.174 290.949 161.841C290.949 162.515 290.691 163.095 290.176 163.58C289.669 164.057 289.055 164.295 288.335 164.295ZM294.974 184V166.545H299.667V169.591H299.849C300.167 168.508 300.702 167.689 301.452 167.136C302.202 166.576 303.065 166.295 304.042 166.295C304.285 166.295 304.546 166.311 304.827 166.341C305.107 166.371 305.353 166.413 305.565 166.466V170.761C305.338 170.693 305.024 170.633 304.622 170.58C304.221 170.527 303.853 170.5 303.52 170.5C302.808 170.5 302.171 170.655 301.611 170.966C301.058 171.269 300.618 171.693 300.292 172.239C299.974 172.784 299.815 173.413 299.815 174.125V184H294.974ZM308.42 184V166.545H313.034V169.625H313.238C313.602 168.602 314.208 167.795 315.056 167.205C315.905 166.614 316.92 166.318 318.102 166.318C319.299 166.318 320.318 166.617 321.159 167.216C322 167.807 322.56 168.61 322.841 169.625H323.022C323.378 168.625 324.022 167.826 324.954 167.227C325.894 166.621 327.003 166.318 328.284 166.318C329.912 166.318 331.234 166.837 332.25 167.875C333.272 168.905 333.784 170.367 333.784 172.261V184H328.954V173.216C328.954 172.246 328.697 171.519 328.181 171.034C327.666 170.549 327.022 170.307 326.25 170.307C325.371 170.307 324.685 170.587 324.193 171.148C323.7 171.701 323.454 172.432 323.454 173.341V184H318.761V173.114C318.761 172.258 318.515 171.576 318.022 171.068C317.537 170.561 316.897 170.307 316.102 170.307C315.564 170.307 315.079 170.443 314.647 170.716C314.223 170.981 313.886 171.356 313.636 171.841C313.386 172.318 313.261 172.879 313.261 173.523V184H308.42ZM342.937 184.33C341.823 184.33 340.831 184.136 339.96 183.75C339.088 183.356 338.399 182.777 337.891 182.011C337.391 181.239 337.141 180.277 337.141 179.125C337.141 178.155 337.319 177.341 337.675 176.682C338.032 176.023 338.516 175.492 339.13 175.091C339.744 174.689 340.441 174.386 341.221 174.182C342.009 173.977 342.835 173.833 343.698 173.75C344.713 173.644 345.532 173.545 346.153 173.455C346.774 173.356 347.225 173.212 347.505 173.023C347.785 172.833 347.925 172.553 347.925 172.182V172.114C347.925 171.394 347.698 170.837 347.244 170.443C346.797 170.049 346.16 169.852 345.335 169.852C344.463 169.852 343.77 170.045 343.255 170.432C342.74 170.811 342.399 171.288 342.232 171.864L337.755 171.5C337.982 170.439 338.429 169.523 339.096 168.75C339.763 167.97 340.622 167.371 341.675 166.955C342.736 166.53 343.963 166.318 345.357 166.318C346.327 166.318 347.255 166.432 348.141 166.659C349.035 166.886 349.827 167.239 350.516 167.716C351.213 168.193 351.763 168.807 352.164 169.557C352.566 170.299 352.766 171.189 352.766 172.227V184H348.175V181.58H348.039C347.759 182.125 347.384 182.606 346.914 183.023C346.444 183.432 345.88 183.754 345.221 183.989C344.562 184.216 343.8 184.33 342.937 184.33ZM344.323 180.989C345.035 180.989 345.664 180.848 346.21 180.568C346.755 180.28 347.183 179.894 347.494 179.409C347.804 178.924 347.96 178.375 347.96 177.761V175.909C347.808 176.008 347.6 176.098 347.335 176.182C347.077 176.258 346.785 176.33 346.46 176.398C346.134 176.458 345.808 176.515 345.482 176.568C345.157 176.614 344.861 176.655 344.596 176.693C344.028 176.777 343.532 176.909 343.107 177.091C342.683 177.273 342.354 177.519 342.119 177.83C341.884 178.133 341.766 178.511 341.766 178.966C341.766 179.625 342.005 180.129 342.482 180.477C342.967 180.818 343.581 180.989 344.323 180.989ZM363.306 184.284C361.98 184.284 360.779 183.943 359.704 183.261C358.635 182.572 357.787 181.561 357.158 180.227C356.537 178.886 356.226 177.242 356.226 175.295C356.226 173.295 356.548 171.633 357.192 170.307C357.836 168.973 358.692 167.977 359.76 167.318C360.836 166.652 362.014 166.318 363.295 166.318C364.272 166.318 365.086 166.485 365.738 166.818C366.397 167.144 366.927 167.553 367.329 168.045C367.738 168.53 368.048 169.008 368.26 169.477H368.408V160.727H373.238V184H368.465V181.205H368.26C368.033 181.689 367.711 182.17 367.295 182.648C366.885 183.117 366.351 183.508 365.692 183.818C365.041 184.129 364.245 184.284 363.306 184.284ZM364.84 180.432C365.62 180.432 366.279 180.22 366.817 179.795C367.363 179.364 367.779 178.761 368.067 177.989C368.363 177.216 368.51 176.311 368.51 175.273C368.51 174.235 368.366 173.333 368.079 172.568C367.791 171.803 367.374 171.212 366.829 170.795C366.283 170.379 365.62 170.17 364.84 170.17C364.045 170.17 363.374 170.386 362.829 170.818C362.283 171.25 361.87 171.848 361.59 172.614C361.31 173.379 361.17 174.265 361.17 175.273C361.17 176.288 361.31 177.186 361.59 177.966C361.878 178.739 362.291 179.345 362.829 179.784C363.374 180.216 364.045 180.432 364.84 180.432ZM385.456 184.341C383.691 184.341 382.165 183.966 380.877 183.216C379.596 182.458 378.608 181.405 377.911 180.057C377.214 178.701 376.865 177.129 376.865 175.341C376.865 173.538 377.214 171.962 377.911 170.614C378.608 169.258 379.596 168.205 380.877 167.455C382.165 166.697 383.691 166.318 385.456 166.318C387.221 166.318 388.744 166.697 390.024 167.455C391.312 168.205 392.305 169.258 393.002 170.614C393.699 171.962 394.047 173.538 394.047 175.341C394.047 177.129 393.699 178.701 393.002 180.057C392.305 181.405 391.312 182.458 390.024 183.216C388.744 183.966 387.221 184.341 385.456 184.341ZM385.479 180.591C386.282 180.591 386.952 180.364 387.49 179.909C388.028 179.447 388.433 178.818 388.706 178.023C388.986 177.227 389.127 176.322 389.127 175.307C389.127 174.292 388.986 173.386 388.706 172.591C388.433 171.795 388.028 171.167 387.49 170.705C386.952 170.242 386.282 170.011 385.479 170.011C384.668 170.011 383.986 170.242 383.433 170.705C382.888 171.167 382.475 171.795 382.195 172.591C381.922 173.386 381.786 174.292 381.786 175.307C381.786 176.322 381.922 177.227 382.195 178.023C382.475 178.818 382.888 179.447 383.433 179.909C383.986 180.364 384.668 180.591 385.479 180.591ZM419.828 171.523L415.396 171.795C415.32 171.417 415.157 171.076 414.907 170.773C414.657 170.462 414.328 170.216 413.919 170.034C413.517 169.845 413.036 169.75 412.476 169.75C411.726 169.75 411.093 169.909 410.578 170.227C410.063 170.538 409.805 170.955 409.805 171.477C409.805 171.894 409.972 172.246 410.305 172.534C410.638 172.822 411.21 173.053 412.021 173.227L415.18 173.864C416.877 174.212 418.142 174.773 418.976 175.545C419.809 176.318 420.226 177.333 420.226 178.591C420.226 179.735 419.888 180.739 419.214 181.602C418.547 182.466 417.631 183.14 416.464 183.625C415.305 184.102 413.968 184.341 412.453 184.341C410.142 184.341 408.301 183.86 406.93 182.898C405.566 181.928 404.767 180.61 404.532 178.943L409.294 178.693C409.438 179.398 409.786 179.936 410.339 180.307C410.892 180.67 411.601 180.852 412.464 180.852C413.313 180.852 413.994 180.689 414.51 180.364C415.032 180.03 415.297 179.602 415.305 179.08C415.297 178.64 415.112 178.28 414.748 178C414.385 177.712 413.824 177.492 413.066 177.341L410.044 176.739C408.339 176.398 407.07 175.807 406.237 174.966C405.411 174.125 404.998 173.053 404.998 171.75C404.998 170.629 405.301 169.663 405.907 168.852C406.521 168.042 407.381 167.417 408.487 166.977C409.601 166.538 410.904 166.318 412.396 166.318C414.601 166.318 416.335 166.784 417.601 167.716C418.873 168.648 419.616 169.917 419.828 171.523ZM434.819 176.568V166.545H439.66V184H435.012V180.83H434.83C434.436 181.852 433.781 182.674 432.864 183.295C431.955 183.917 430.846 184.227 429.535 184.227C428.368 184.227 427.342 183.962 426.455 183.432C425.569 182.902 424.876 182.148 424.376 181.17C423.883 180.193 423.633 179.023 423.626 177.659V166.545H428.467V176.795C428.474 177.826 428.751 178.64 429.296 179.239C429.842 179.837 430.573 180.136 431.489 180.136C432.073 180.136 432.618 180.004 433.126 179.739C433.633 179.466 434.042 179.064 434.353 178.534C434.671 178.004 434.827 177.348 434.819 176.568ZM459.529 184.341C457.741 184.341 456.203 183.962 454.915 183.205C453.635 182.439 452.65 181.379 451.961 180.023C451.279 178.667 450.938 177.106 450.938 175.341C450.938 173.553 451.282 171.985 451.972 170.636C452.669 169.28 453.657 168.223 454.938 167.466C456.218 166.701 457.741 166.318 459.506 166.318C461.029 166.318 462.362 166.595 463.506 167.148C464.65 167.701 465.555 168.477 466.222 169.477C466.889 170.477 467.256 171.652 467.324 173H462.756C462.627 172.129 462.286 171.428 461.733 170.898C461.188 170.36 460.472 170.091 459.586 170.091C458.836 170.091 458.18 170.295 457.62 170.705C457.067 171.106 456.635 171.693 456.324 172.466C456.014 173.239 455.858 174.174 455.858 175.273C455.858 176.386 456.01 177.333 456.313 178.114C456.623 178.894 457.059 179.489 457.62 179.898C458.18 180.307 458.836 180.511 459.586 180.511C460.139 180.511 460.635 180.398 461.074 180.17C461.521 179.943 461.889 179.614 462.176 179.182C462.472 178.742 462.665 178.216 462.756 177.602H467.324C467.248 178.936 466.885 180.11 466.233 181.125C465.589 182.133 464.699 182.92 463.563 183.489C462.426 184.057 461.082 184.341 459.529 184.341ZM478.662 184.341C476.897 184.341 475.37 183.966 474.082 183.216C472.802 182.458 471.813 181.405 471.116 180.057C470.42 178.701 470.071 177.129 470.071 175.341C470.071 173.538 470.42 171.962 471.116 170.614C471.813 169.258 472.802 168.205 474.082 167.455C475.37 166.697 476.897 166.318 478.662 166.318C480.427 166.318 481.95 166.697 483.23 167.455C484.518 168.205 485.51 169.258 486.207 170.614C486.904 171.962 487.253 173.538 487.253 175.341C487.253 177.129 486.904 178.701 486.207 180.057C485.51 181.405 484.518 182.458 483.23 183.216C481.95 183.966 480.427 184.341 478.662 184.341ZM478.685 180.591C479.488 180.591 480.158 180.364 480.696 179.909C481.234 179.447 481.639 178.818 481.912 178.023C482.192 177.227 482.332 176.322 482.332 175.307C482.332 174.292 482.192 173.386 481.912 172.591C481.639 171.795 481.234 171.167 480.696 170.705C480.158 170.242 479.488 170.011 478.685 170.011C477.874 170.011 477.192 170.242 476.639 170.705C476.094 171.167 475.681 171.795 475.401 172.591C475.128 173.386 474.991 174.292 474.991 175.307C474.991 176.322 475.128 177.227 475.401 178.023C475.681 178.818 476.094 179.447 476.639 179.909C477.192 180.364 477.874 180.591 478.685 180.591ZM490.753 184V166.545H495.446V169.591H495.628C495.946 168.508 496.48 167.689 497.23 167.136C497.98 166.576 498.843 166.295 499.821 166.295C500.063 166.295 500.325 166.311 500.605 166.341C500.885 166.371 501.131 166.413 501.343 166.466V170.761C501.116 170.693 500.802 170.633 500.4 170.58C499.999 170.527 499.631 170.5 499.298 170.5C498.586 170.5 497.95 170.655 497.389 170.966C496.836 171.269 496.396 171.693 496.071 172.239C495.753 172.784 495.593 173.413 495.593 174.125V184H490.753ZM504.198 184V166.545H508.892V169.591H509.073C509.392 168.508 509.926 167.689 510.676 167.136C511.426 166.576 512.289 166.295 513.267 166.295C513.509 166.295 513.77 166.311 514.051 166.341C514.331 166.371 514.577 166.413 514.789 166.466V170.761C514.562 170.693 514.248 170.633 513.846 170.58C513.445 170.527 513.077 170.5 512.744 170.5C512.032 170.5 511.395 170.655 510.835 170.966C510.282 171.269 509.842 171.693 509.517 172.239C509.198 172.784 509.039 173.413 509.039 174.125V184H504.198ZM524.786 184.341C522.991 184.341 521.445 183.977 520.15 183.25C518.862 182.515 517.869 181.477 517.172 180.136C516.476 178.788 516.127 177.193 516.127 175.352C516.127 173.557 516.476 171.981 517.172 170.625C517.869 169.269 518.851 168.212 520.116 167.455C521.388 166.697 522.881 166.318 524.593 166.318C525.744 166.318 526.816 166.504 527.809 166.875C528.809 167.239 529.68 167.788 530.422 168.523C531.172 169.258 531.756 170.182 532.172 171.295C532.589 172.402 532.797 173.697 532.797 175.182V176.511H518.059V173.511H528.241C528.241 172.814 528.089 172.197 527.786 171.659C527.483 171.121 527.063 170.701 526.525 170.398C525.994 170.087 525.377 169.932 524.672 169.932C523.938 169.932 523.286 170.102 522.718 170.443C522.157 170.777 521.718 171.227 521.4 171.795C521.082 172.356 520.919 172.981 520.911 173.67V176.523C520.911 177.386 521.07 178.133 521.388 178.761C521.714 179.39 522.172 179.875 522.763 180.216C523.354 180.557 524.055 180.727 524.866 180.727C525.404 180.727 525.896 180.652 526.343 180.5C526.79 180.348 527.172 180.121 527.491 179.818C527.809 179.515 528.051 179.144 528.218 178.705L532.695 179C532.468 180.076 532.002 181.015 531.297 181.818C530.601 182.614 529.699 183.235 528.593 183.682C527.494 184.121 526.226 184.341 524.786 184.341ZM544.195 184.341C542.43 184.341 540.903 183.966 539.615 183.216C538.335 182.458 537.346 181.405 536.649 180.057C535.952 178.701 535.604 177.129 535.604 175.341C535.604 173.538 535.952 171.962 536.649 170.614C537.346 169.258 538.335 168.205 539.615 167.455C540.903 166.697 542.43 166.318 544.195 166.318C545.96 166.318 547.483 166.697 548.763 167.455C550.051 168.205 551.043 169.258 551.74 170.614C552.437 171.962 552.786 173.538 552.786 175.341C552.786 177.129 552.437 178.701 551.74 180.057C551.043 181.405 550.051 182.458 548.763 183.216C547.483 183.966 545.96 184.341 544.195 184.341ZM544.218 180.591C545.021 180.591 545.691 180.364 546.229 179.909C546.767 179.447 547.172 178.818 547.445 178.023C547.725 177.227 547.865 176.322 547.865 175.307C547.865 174.292 547.725 173.386 547.445 172.591C547.172 171.795 546.767 171.167 546.229 170.705C545.691 170.242 545.021 170.011 544.218 170.011C543.407 170.011 542.725 170.242 542.172 170.705C541.627 171.167 541.214 171.795 540.934 172.591C540.661 173.386 540.524 174.292 540.524 175.307C540.524 176.322 540.661 177.227 540.934 178.023C541.214 178.818 541.627 179.447 542.172 179.909C542.725 180.364 543.407 180.591 544.218 180.591ZM571.998 184.341C570.203 184.341 568.657 183.977 567.362 183.25C566.074 182.515 565.082 181.477 564.385 180.136C563.688 178.788 563.339 177.193 563.339 175.352C563.339 173.557 563.688 171.981 564.385 170.625C565.082 169.269 566.063 168.212 567.328 167.455C568.601 166.697 570.093 166.318 571.805 166.318C572.957 166.318 574.029 166.504 575.021 166.875C576.021 167.239 576.892 167.788 577.635 168.523C578.385 169.258 578.968 170.182 579.385 171.295C579.801 172.402 580.01 173.697 580.01 175.182V176.511H565.271V173.511H575.453C575.453 172.814 575.301 172.197 574.998 171.659C574.695 171.121 574.275 170.701 573.737 170.398C573.207 170.087 572.589 169.932 571.885 169.932C571.15 169.932 570.498 170.102 569.93 170.443C569.37 170.777 568.93 171.227 568.612 171.795C568.294 172.356 568.131 172.981 568.123 173.67V176.523C568.123 177.386 568.282 178.133 568.601 178.761C568.926 179.39 569.385 179.875 569.976 180.216C570.567 180.557 571.267 180.727 572.078 180.727C572.616 180.727 573.108 180.652 573.555 180.5C574.002 180.348 574.385 180.121 574.703 179.818C575.021 179.515 575.264 179.144 575.43 178.705L579.907 179C579.68 180.076 579.214 181.015 578.51 181.818C577.813 182.614 576.911 183.235 575.805 183.682C574.707 184.121 573.438 184.341 571.998 184.341ZM588.362 160.727V184H583.521V160.727H588.362ZM600.546 184.341C598.751 184.341 597.205 183.977 595.91 183.25C594.622 182.515 593.629 181.477 592.932 180.136C592.236 178.788 591.887 177.193 591.887 175.352C591.887 173.557 592.236 171.981 592.932 170.625C593.629 169.269 594.611 168.212 595.876 167.455C597.148 166.697 598.641 166.318 600.353 166.318C601.504 166.318 602.576 166.504 603.569 166.875C604.569 167.239 605.44 167.788 606.182 168.523C606.932 169.258 607.516 170.182 607.932 171.295C608.349 172.402 608.557 173.697 608.557 175.182V176.511H593.819V173.511H604.001C604.001 172.814 603.849 172.197 603.546 171.659C603.243 171.121 602.823 170.701 602.285 170.398C601.754 170.087 601.137 169.932 600.432 169.932C599.698 169.932 599.046 170.102 598.478 170.443C597.917 170.777 597.478 171.227 597.16 171.795C596.842 172.356 596.679 172.981 596.671 173.67V176.523C596.671 177.386 596.83 178.133 597.148 178.761C597.474 179.39 597.932 179.875 598.523 180.216C599.114 180.557 599.815 180.727 600.626 180.727C601.164 180.727 601.656 180.652 602.103 180.5C602.55 180.348 602.932 180.121 603.251 179.818C603.569 179.515 603.811 179.144 603.978 178.705L608.455 179C608.228 180.076 607.762 181.015 607.057 181.818C606.361 182.614 605.459 183.235 604.353 183.682C603.254 184.121 601.986 184.341 600.546 184.341ZM619.955 184.341C618.167 184.341 616.629 183.962 615.341 183.205C614.061 182.439 613.076 181.379 612.387 180.023C611.705 178.667 611.364 177.106 611.364 175.341C611.364 173.553 611.709 171.985 612.398 170.636C613.095 169.28 614.084 168.223 615.364 167.466C616.644 166.701 618.167 166.318 619.932 166.318C621.455 166.318 622.788 166.595 623.932 167.148C625.076 167.701 625.981 168.477 626.648 169.477C627.315 170.477 627.682 171.652 627.75 173H623.182C623.053 172.129 622.713 171.428 622.159 170.898C621.614 170.36 620.898 170.091 620.012 170.091C619.262 170.091 618.606 170.295 618.046 170.705C617.493 171.106 617.061 171.693 616.75 172.466C616.44 173.239 616.284 174.174 616.284 175.273C616.284 176.386 616.436 177.333 616.739 178.114C617.05 178.894 617.485 179.489 618.046 179.898C618.606 180.307 619.262 180.511 620.012 180.511C620.565 180.511 621.061 180.398 621.5 180.17C621.947 179.943 622.315 179.614 622.603 179.182C622.898 178.742 623.091 178.216 623.182 177.602H627.75C627.675 178.936 627.311 180.11 626.659 181.125C626.016 182.133 625.125 182.92 623.989 183.489C622.853 184.057 621.508 184.341 619.955 184.341ZM640.486 166.545V170.182H629.975V166.545H640.486ZM632.361 162.364H637.202V178.636C637.202 179.083 637.27 179.432 637.406 179.682C637.543 179.924 637.732 180.095 637.975 180.193C638.225 180.292 638.512 180.341 638.838 180.341C639.065 180.341 639.293 180.322 639.52 180.284C639.747 180.239 639.922 180.205 640.043 180.182L640.804 183.784C640.562 183.86 640.221 183.947 639.781 184.045C639.342 184.152 638.808 184.216 638.179 184.239C637.012 184.284 635.99 184.129 635.111 183.773C634.24 183.417 633.562 182.864 633.077 182.114C632.592 181.364 632.353 180.417 632.361 179.273V162.364ZM643.991 184V166.545H648.685V169.591H648.866C649.185 168.508 649.719 167.689 650.469 167.136C651.219 166.576 652.082 166.295 653.06 166.295C653.302 166.295 653.563 166.311 653.844 166.341C654.124 166.371 654.37 166.413 654.582 166.466V170.761C654.355 170.693 654.041 170.633 653.639 170.58C653.238 170.527 652.87 170.5 652.537 170.5C651.825 170.5 651.188 170.655 650.628 170.966C650.075 171.269 649.635 171.693 649.31 172.239C648.991 172.784 648.832 173.413 648.832 174.125V184H643.991ZM664.511 184.341C662.746 184.341 661.219 183.966 659.931 183.216C658.651 182.458 657.662 181.405 656.965 180.057C656.269 178.701 655.92 177.129 655.92 175.341C655.92 173.538 656.269 171.962 656.965 170.614C657.662 169.258 658.651 168.205 659.931 167.455C661.219 166.697 662.746 166.318 664.511 166.318C666.276 166.318 667.799 166.697 669.079 167.455C670.367 168.205 671.359 169.258 672.056 170.614C672.753 171.962 673.102 173.538 673.102 175.341C673.102 177.129 672.753 178.701 672.056 180.057C671.359 181.405 670.367 182.458 669.079 183.216C667.799 183.966 666.276 184.341 664.511 184.341ZM664.534 180.591C665.337 180.591 666.007 180.364 666.545 179.909C667.083 179.447 667.488 178.818 667.761 178.023C668.041 177.227 668.181 176.322 668.181 175.307C668.181 174.292 668.041 173.386 667.761 172.591C667.488 171.795 667.083 171.167 666.545 170.705C666.007 170.242 665.337 170.011 664.534 170.011C663.723 170.011 663.041 170.242 662.488 170.705C661.943 171.167 661.53 171.795 661.25 172.591C660.977 173.386 660.84 174.292 660.84 175.307C660.84 176.322 660.977 177.227 661.25 178.023C661.53 178.818 661.943 179.447 662.488 179.909C663.041 180.364 663.723 180.591 664.534 180.591ZM681.442 173.909V184H676.602V166.545H681.215V169.625H681.42C681.806 168.61 682.454 167.807 683.363 167.216C684.272 166.617 685.374 166.318 686.67 166.318C687.882 166.318 688.939 166.583 689.84 167.114C690.742 167.644 691.442 168.402 691.942 169.386C692.442 170.364 692.692 171.53 692.692 172.886V184H687.852V173.75C687.859 172.682 687.586 171.848 687.033 171.25C686.48 170.644 685.719 170.341 684.749 170.341C684.098 170.341 683.522 170.481 683.022 170.761C682.53 171.042 682.143 171.451 681.863 171.989C681.59 172.519 681.45 173.159 681.442 173.909ZM704.746 184.341C702.981 184.341 701.454 183.966 700.167 183.216C698.886 182.458 697.898 181.405 697.201 180.057C696.504 178.701 696.155 177.129 696.155 175.341C696.155 173.538 696.504 171.962 697.201 170.614C697.898 169.258 698.886 168.205 700.167 167.455C701.454 166.697 702.981 166.318 704.746 166.318C706.511 166.318 708.034 166.697 709.314 167.455C710.602 168.205 711.595 169.258 712.292 170.614C712.989 171.962 713.337 173.538 713.337 175.341C713.337 177.129 712.989 178.701 712.292 180.057C711.595 181.405 710.602 182.458 709.314 183.216C708.034 183.966 706.511 184.341 704.746 184.341ZM704.769 180.591C705.572 180.591 706.242 180.364 706.78 179.909C707.318 179.447 707.723 178.818 707.996 178.023C708.276 177.227 708.417 176.322 708.417 175.307C708.417 174.292 708.276 173.386 707.996 172.591C707.723 171.795 707.318 171.167 706.78 170.705C706.242 170.242 705.572 170.011 704.769 170.011C703.958 170.011 703.276 170.242 702.723 170.705C702.178 171.167 701.765 171.795 701.485 172.591C701.212 173.386 701.076 174.292 701.076 175.307C701.076 176.322 701.212 177.227 701.485 178.023C701.765 178.818 702.178 179.447 702.723 179.909C703.276 180.364 703.958 180.591 704.769 180.591ZM703.008 164.295L705.417 159.125H709.894L706.428 164.295H703.008ZM721.678 173.909V184H716.837V166.545H721.45V169.625H721.655C722.041 168.61 722.689 167.807 723.598 167.216C724.507 166.617 725.61 166.318 726.905 166.318C728.117 166.318 729.174 166.583 730.075 167.114C730.977 167.644 731.678 168.402 732.178 169.386C732.678 170.364 732.928 171.53 732.928 172.886V184H728.087V173.75C728.094 172.682 727.822 171.848 727.269 171.25C726.716 170.644 725.954 170.341 724.985 170.341C724.333 170.341 723.757 170.481 723.257 170.761C722.765 171.042 722.379 171.451 722.098 171.989C721.825 172.519 721.685 173.159 721.678 173.909ZM737.095 184V166.545H741.936V184H737.095ZM739.527 164.295C738.807 164.295 738.19 164.057 737.675 163.58C737.167 163.095 736.913 162.515 736.913 161.841C736.913 161.174 737.167 160.602 737.675 160.125C738.19 159.64 738.807 159.398 739.527 159.398C740.247 159.398 740.86 159.64 741.368 160.125C741.883 160.602 742.141 161.174 742.141 161.841C742.141 162.515 741.883 163.095 741.368 163.58C740.86 164.057 740.247 164.295 739.527 164.295ZM754.052 184.341C752.264 184.341 750.726 183.962 749.439 183.205C748.158 182.439 747.173 181.379 746.484 180.023C745.802 178.667 745.461 177.106 745.461 175.341C745.461 173.553 745.806 171.985 746.495 170.636C747.192 169.28 748.181 168.223 749.461 167.466C750.742 166.701 752.264 166.318 754.029 166.318C755.552 166.318 756.886 166.595 758.029 167.148C759.173 167.701 760.079 168.477 760.745 169.477C761.412 170.477 761.779 171.652 761.848 173H757.279C757.151 172.129 756.81 171.428 756.257 170.898C755.711 170.36 754.995 170.091 754.109 170.091C753.359 170.091 752.704 170.295 752.143 170.705C751.59 171.106 751.158 171.693 750.848 172.466C750.537 173.239 750.382 174.174 750.382 175.273C750.382 176.386 750.533 177.333 750.836 178.114C751.147 178.894 751.582 179.489 752.143 179.898C752.704 180.307 753.359 180.511 754.109 180.511C754.662 180.511 755.158 180.398 755.598 180.17C756.045 179.943 756.412 179.614 756.7 179.182C756.995 178.742 757.189 178.216 757.279 177.602H761.848C761.772 178.936 761.408 180.11 760.757 181.125C760.113 182.133 759.223 182.92 758.086 183.489C756.95 184.057 755.605 184.341 754.052 184.341ZM773.185 184.341C771.42 184.341 769.894 183.966 768.606 183.216C767.326 182.458 766.337 181.405 765.64 180.057C764.943 178.701 764.595 177.129 764.595 175.341C764.595 173.538 764.943 171.962 765.64 170.614C766.337 169.258 767.326 168.205 768.606 167.455C769.894 166.697 771.42 166.318 773.185 166.318C774.951 166.318 776.473 166.697 777.754 167.455C779.041 168.205 780.034 169.258 780.731 170.614C781.428 171.962 781.776 173.538 781.776 175.341C781.776 177.129 781.428 178.701 780.731 180.057C780.034 181.405 779.041 182.458 777.754 183.216C776.473 183.966 774.951 184.341 773.185 184.341ZM773.208 180.591C774.011 180.591 774.682 180.364 775.22 179.909C775.757 179.447 776.163 178.818 776.435 178.023C776.716 177.227 776.856 176.322 776.856 175.307C776.856 174.292 776.716 173.386 776.435 172.591C776.163 171.795 775.757 171.167 775.22 170.705C774.682 170.242 774.011 170.011 773.208 170.011C772.398 170.011 771.716 170.242 771.163 170.705C770.617 171.167 770.204 171.795 769.924 172.591C769.651 173.386 769.515 174.292 769.515 175.307C769.515 176.322 769.651 177.227 769.924 178.023C770.204 178.818 770.617 179.447 771.163 179.909C771.716 180.364 772.398 180.591 773.208 180.591Z" fill="black"/>
<rect x="602" y="363" width="112" height="40" rx="8" fill="#F39200"/>
<path d="M629.295 377.364V389H627.187V377.364H629.295ZM633.543 383.886V389H631.487V380.273H633.452V381.756H633.555C633.755 381.267 634.076 380.879 634.515 380.591C634.958 380.303 635.505 380.159 636.157 380.159C636.759 380.159 637.284 380.288 637.731 380.545C638.182 380.803 638.53 381.176 638.776 381.665C639.026 382.153 639.149 382.746 639.146 383.443V389H637.089V383.761C637.089 383.178 636.937 382.722 636.634 382.392C636.335 382.062 635.92 381.898 635.39 381.898C635.03 381.898 634.71 381.977 634.43 382.136C634.153 382.292 633.935 382.517 633.776 382.812C633.621 383.108 633.543 383.466 633.543 383.886ZM645.032 392.455C644.293 392.455 643.659 392.354 643.129 392.153C642.598 391.956 642.172 391.691 641.85 391.358C641.528 391.025 641.305 390.655 641.18 390.25L643.032 389.801C643.115 389.972 643.237 390.14 643.396 390.307C643.555 390.477 643.769 390.617 644.038 390.727C644.31 390.841 644.653 390.898 645.066 390.898C645.649 390.898 646.132 390.756 646.515 390.472C646.897 390.191 647.089 389.729 647.089 389.085V387.432H646.987C646.88 387.644 646.725 387.862 646.521 388.085C646.32 388.309 646.053 388.496 645.719 388.648C645.39 388.799 644.975 388.875 644.475 388.875C643.805 388.875 643.197 388.718 642.651 388.403C642.11 388.085 641.678 387.612 641.356 386.983C641.038 386.35 640.879 385.559 640.879 384.608C640.879 383.65 641.038 382.841 641.356 382.182C641.678 381.519 642.112 381.017 642.657 380.676C643.202 380.331 643.81 380.159 644.481 380.159C644.992 380.159 645.413 380.246 645.742 380.42C646.076 380.591 646.341 380.797 646.538 381.04C646.735 381.278 646.884 381.504 646.987 381.716H647.1V380.273H649.129V389.142C649.129 389.888 648.951 390.506 648.594 390.994C648.238 391.483 647.752 391.848 647.134 392.091C646.517 392.333 645.816 392.455 645.032 392.455ZM645.049 387.261C645.485 387.261 645.856 387.155 646.163 386.943C646.469 386.731 646.702 386.426 646.862 386.028C647.021 385.631 647.1 385.153 647.1 384.597C647.1 384.047 647.021 383.566 646.862 383.153C646.706 382.741 646.475 382.42 646.168 382.193C645.865 381.962 645.492 381.847 645.049 381.847C644.591 381.847 644.208 381.966 643.901 382.205C643.594 382.443 643.363 382.771 643.208 383.188C643.053 383.6 642.975 384.07 642.975 384.597C642.975 385.131 643.053 385.598 643.208 386C643.367 386.398 643.6 386.708 643.907 386.932C644.218 387.152 644.598 387.261 645.049 387.261ZM651.237 389V380.273H653.231V381.727H653.322C653.481 381.223 653.754 380.835 654.14 380.562C654.53 380.286 654.975 380.148 655.475 380.148C655.589 380.148 655.716 380.153 655.856 380.165C656 380.172 656.119 380.186 656.214 380.205V382.097C656.127 382.066 655.988 382.04 655.799 382.017C655.613 381.991 655.433 381.977 655.259 381.977C654.884 381.977 654.547 382.059 654.248 382.222C653.952 382.381 653.719 382.602 653.549 382.886C653.379 383.17 653.293 383.498 653.293 383.869V389H651.237ZM661.085 389.17C660.21 389.17 659.454 388.989 658.817 388.625C658.185 388.258 657.698 387.739 657.357 387.068C657.016 386.394 656.846 385.6 656.846 384.688C656.846 383.79 657.016 383.002 657.357 382.324C657.702 381.642 658.183 381.112 658.8 380.733C659.418 380.35 660.143 380.159 660.977 380.159C661.514 380.159 662.022 380.246 662.499 380.42C662.98 380.591 663.405 380.856 663.772 381.216C664.143 381.576 664.435 382.034 664.647 382.591C664.859 383.144 664.965 383.803 664.965 384.568V385.199H657.812V383.812H662.994C662.99 383.419 662.905 383.068 662.738 382.761C662.571 382.451 662.338 382.206 662.039 382.028C661.744 381.85 661.399 381.761 661.005 381.761C660.585 381.761 660.215 381.864 659.897 382.068C659.579 382.269 659.331 382.534 659.153 382.864C658.978 383.189 658.889 383.547 658.886 383.938V385.148C658.886 385.655 658.978 386.091 659.164 386.455C659.35 386.814 659.609 387.091 659.942 387.284C660.276 387.473 660.666 387.568 661.113 387.568C661.412 387.568 661.683 387.527 661.925 387.443C662.168 387.356 662.378 387.229 662.556 387.062C662.734 386.896 662.869 386.689 662.96 386.443L664.88 386.659C664.759 387.167 664.528 387.61 664.187 387.989C663.85 388.364 663.418 388.655 662.891 388.864C662.365 389.068 661.763 389.17 661.085 389.17ZM673.603 382.58L671.728 382.784C671.675 382.595 671.582 382.417 671.45 382.25C671.321 382.083 671.147 381.949 670.927 381.847C670.707 381.744 670.438 381.693 670.12 381.693C669.692 381.693 669.332 381.786 669.04 381.972C668.753 382.157 668.611 382.398 668.614 382.693C668.611 382.947 668.703 383.153 668.893 383.312C669.086 383.472 669.404 383.602 669.847 383.705L671.336 384.023C672.162 384.201 672.775 384.483 673.177 384.869C673.582 385.256 673.787 385.761 673.79 386.386C673.787 386.936 673.626 387.42 673.308 387.841C672.993 388.258 672.556 388.583 671.995 388.818C671.434 389.053 670.79 389.17 670.063 389.17C668.995 389.17 668.135 388.947 667.484 388.5C666.832 388.049 666.444 387.422 666.319 386.619L668.325 386.426C668.415 386.82 668.609 387.117 668.904 387.318C669.2 387.519 669.584 387.619 670.058 387.619C670.546 387.619 670.938 387.519 671.234 387.318C671.533 387.117 671.683 386.869 671.683 386.574C671.683 386.324 671.586 386.117 671.393 385.955C671.203 385.792 670.908 385.667 670.506 385.58L669.018 385.267C668.181 385.093 667.561 384.799 667.16 384.386C666.758 383.97 666.559 383.443 666.563 382.807C666.559 382.269 666.705 381.803 667.001 381.409C667.3 381.011 667.715 380.705 668.245 380.489C668.779 380.269 669.395 380.159 670.092 380.159C671.114 380.159 671.919 380.377 672.506 380.812C673.097 381.248 673.463 381.837 673.603 382.58ZM677.998 389.176C677.445 389.176 676.947 389.078 676.504 388.881C676.064 388.68 675.716 388.384 675.458 387.994C675.204 387.604 675.077 387.123 675.077 386.551C675.077 386.059 675.168 385.652 675.35 385.33C675.532 385.008 675.78 384.75 676.094 384.557C676.409 384.364 676.763 384.218 677.157 384.119C677.555 384.017 677.966 383.943 678.39 383.898C678.901 383.845 679.316 383.797 679.634 383.756C679.952 383.71 680.183 383.642 680.327 383.551C680.475 383.456 680.549 383.311 680.549 383.114V383.08C680.549 382.652 680.422 382.32 680.168 382.085C679.915 381.85 679.549 381.733 679.072 381.733C678.568 381.733 678.168 381.843 677.873 382.062C677.581 382.282 677.384 382.542 677.282 382.841L675.362 382.568C675.513 382.038 675.763 381.595 676.112 381.239C676.46 380.879 676.886 380.61 677.39 380.432C677.894 380.25 678.451 380.159 679.06 380.159C679.481 380.159 679.899 380.208 680.316 380.307C680.733 380.405 681.113 380.568 681.458 380.795C681.803 381.019 682.079 381.324 682.288 381.71C682.5 382.097 682.606 382.58 682.606 383.159V389H680.629V387.801H680.56C680.435 388.044 680.259 388.271 680.032 388.483C679.808 388.691 679.526 388.86 679.185 388.989C678.848 389.114 678.452 389.176 677.998 389.176ZM678.532 387.665C678.945 387.665 679.303 387.583 679.606 387.42C679.909 387.254 680.142 387.034 680.305 386.761C680.471 386.489 680.555 386.191 680.555 385.869V384.841C680.49 384.894 680.38 384.943 680.225 384.989C680.074 385.034 679.903 385.074 679.714 385.108C679.524 385.142 679.337 385.172 679.151 385.199C678.966 385.225 678.805 385.248 678.668 385.267C678.362 385.309 678.087 385.377 677.844 385.472C677.602 385.566 677.411 385.699 677.271 385.869C677.13 386.036 677.06 386.252 677.06 386.517C677.06 386.896 677.199 387.182 677.475 387.375C677.752 387.568 678.104 387.665 678.532 387.665ZM684.674 389V380.273H686.668V381.727H686.759C686.918 381.223 687.191 380.835 687.577 380.562C687.968 380.286 688.413 380.148 688.913 380.148C689.026 380.148 689.153 380.153 689.293 380.165C689.437 380.172 689.557 380.186 689.651 380.205V382.097C689.564 382.066 689.426 382.04 689.237 382.017C689.051 381.991 688.871 381.977 688.697 381.977C688.322 381.977 687.985 382.059 687.685 382.222C687.39 382.381 687.157 382.602 686.987 382.886C686.816 383.17 686.731 383.498 686.731 383.869V389H684.674Z" fill="white"/>
<path fill-rule="evenodd" clip-rule="evenodd" d="M267 284C267 299.913 260.679 315.174 249.426 326.426C238.174 337.679 222.913 344 207 344C191.087 344 175.826 337.679 164.574 326.426C153.321 315.174 147 299.913 147 284C147 268.087 153.321 252.826 164.574 241.574C175.826 230.321 191.087 224 207 224C222.913 224 238.174 230.321 249.426 241.574C260.679 252.826 267 268.087 267 284ZM237.225 261.275C236.689 260.741 236.051 260.321 235.349 260.039C234.648 259.757 233.896 259.62 233.14 259.636C232.384 259.651 231.638 259.819 230.949 260.129C230.259 260.439 229.639 260.885 229.125 261.44L203.078 294.628L187.38 278.923C186.314 277.929 184.903 277.388 183.446 277.414C181.989 277.439 180.598 278.03 179.568 279.06C178.537 280.091 177.947 281.481 177.921 282.939C177.895 284.396 178.436 285.806 179.43 286.873L199.275 306.725C199.81 307.259 200.446 307.679 201.147 307.961C201.848 308.244 202.598 308.382 203.353 308.368C204.108 308.354 204.853 308.188 205.543 307.88C206.232 307.572 206.853 307.128 207.368 306.575L237.308 269.15C238.328 268.089 238.892 266.67 238.878 265.197C238.864 263.725 238.273 262.317 237.232 261.275H237.225Z" fill="#26A512"/>
</svg>
