<svg width="877" height="498" viewBox="0 0 877 498" fill="none" xmlns="http://www.w3.org/2000/svg">
<rect width="877" height="498" fill="#FFFDFB"/>
<path d="M221.105 103.545C221.105 107.307 220.401 110.528 218.991 113.21C217.594 115.881 215.685 117.926 213.264 119.347C210.855 120.767 208.122 121.477 205.065 121.477C202.009 121.477 199.27 120.767 196.849 119.347C194.44 117.915 192.531 115.864 191.122 113.193C189.724 110.511 189.026 107.295 189.026 103.545C189.026 99.7841 189.724 96.5682 191.122 93.8977C192.531 91.2159 194.44 89.1648 196.849 87.7443C199.27 86.3239 202.009 85.6136 205.065 85.6136C208.122 85.6136 210.855 86.3239 213.264 87.7443C215.685 89.1648 217.594 91.2159 218.991 93.8977C220.401 96.5682 221.105 99.7841 221.105 103.545ZM214.747 103.545C214.747 100.898 214.332 98.6648 213.503 96.8466C212.685 95.017 211.548 93.6364 210.094 92.7045C208.639 91.7614 206.963 91.2898 205.065 91.2898C203.168 91.2898 201.491 91.7614 200.037 92.7045C198.582 93.6364 197.44 95.017 196.611 96.8466C195.793 98.6648 195.384 100.898 195.384 103.545C195.384 106.193 195.793 108.432 196.611 110.261C197.44 112.08 198.582 113.46 200.037 114.403C201.491 115.335 203.168 115.801 205.065 115.801C206.963 115.801 208.639 115.335 210.094 114.403C211.548 113.46 212.685 112.08 213.503 110.261C214.332 108.432 214.747 106.193 214.747 103.545ZM226.811 130.818V94.8182H232.879V99.1477H233.237C233.555 98.5114 234.004 97.8352 234.584 97.1193C235.163 96.392 235.947 95.7727 236.936 95.2614C237.925 94.7386 239.186 94.4773 240.72 94.4773C242.743 94.4773 244.567 94.9943 246.192 96.0284C247.828 97.0511 249.124 98.5682 250.078 100.58C251.044 102.58 251.527 105.034 251.527 107.943C251.527 110.818 251.055 113.261 250.112 115.273C249.169 117.284 247.885 118.818 246.26 119.875C244.635 120.932 242.794 121.46 240.737 121.46C239.237 121.46 237.993 121.21 237.004 120.71C236.016 120.21 235.22 119.608 234.618 118.903C234.027 118.187 233.567 117.511 233.237 116.875H232.982V130.818H226.811ZM232.862 107.909C232.862 109.602 233.101 111.085 233.578 112.358C234.067 113.631 234.766 114.625 235.675 115.341C236.595 116.045 237.709 116.398 239.016 116.398C240.379 116.398 241.521 116.034 242.442 115.307C243.362 114.568 244.055 113.562 244.521 112.29C244.999 111.006 245.237 109.545 245.237 107.909C245.237 106.284 245.004 104.841 244.538 103.58C244.072 102.318 243.379 101.33 242.459 100.614C241.538 99.8977 240.391 99.5398 239.016 99.5398C237.697 99.5398 236.578 99.8864 235.658 100.58C234.737 101.273 234.038 102.244 233.561 103.494C233.095 104.744 232.862 106.216 232.862 107.909ZM268.402 121.511C265.777 121.511 263.51 120.966 261.601 119.875C259.703 118.773 258.243 117.216 257.22 115.205C256.197 113.182 255.686 110.801 255.686 108.062C255.686 105.369 256.197 103.006 257.22 100.972C258.254 98.9261 259.697 97.3352 261.55 96.1989C263.402 95.0511 265.578 94.4773 268.078 94.4773C269.692 94.4773 271.214 94.7386 272.646 95.2614C274.089 95.7727 275.362 96.5682 276.464 97.6477C277.578 98.7273 278.453 100.102 279.089 101.773C279.726 103.432 280.044 105.409 280.044 107.705V109.597H258.584V105.438H274.129C274.118 104.256 273.862 103.205 273.362 102.284C272.862 101.352 272.163 100.619 271.266 100.085C270.379 99.5511 269.345 99.2841 268.163 99.2841C266.902 99.2841 265.794 99.5909 264.839 100.205C263.885 100.807 263.141 101.602 262.607 102.591C262.084 103.568 261.817 104.642 261.805 105.812V109.443C261.805 110.966 262.084 112.273 262.641 113.364C263.197 114.443 263.976 115.273 264.976 115.852C265.976 116.42 267.146 116.705 268.487 116.705C269.385 116.705 270.197 116.58 270.925 116.33C271.652 116.068 272.283 115.688 272.817 115.188C273.351 114.688 273.754 114.068 274.027 113.33L279.788 113.977C279.425 115.5 278.732 116.83 277.709 117.966C276.697 119.091 275.402 119.966 273.822 120.591C272.243 121.205 270.436 121.511 268.402 121.511ZM285.264 121V94.8182H291.247V99.1818H291.52C291.997 97.6705 292.815 96.5057 293.974 95.6875C295.145 94.858 296.48 94.4432 297.98 94.4432C298.321 94.4432 298.702 94.4602 299.122 94.4943C299.554 94.517 299.912 94.5568 300.196 94.6136V100.29C299.935 100.199 299.52 100.119 298.952 100.051C298.395 99.9716 297.855 99.9318 297.332 99.9318C296.207 99.9318 295.196 100.176 294.298 100.665C293.412 101.142 292.713 101.807 292.202 102.659C291.69 103.511 291.435 104.494 291.435 105.608V121H285.264ZM311.361 121.528C309.702 121.528 308.207 121.233 306.878 120.642C305.56 120.04 304.514 119.153 303.741 117.983C302.98 116.812 302.599 115.369 302.599 113.653C302.599 112.176 302.872 110.955 303.418 109.989C303.963 109.023 304.707 108.25 305.651 107.67C306.594 107.091 307.656 106.653 308.838 106.358C310.031 106.051 311.264 105.83 312.537 105.693C314.071 105.534 315.315 105.392 316.27 105.267C317.224 105.131 317.918 104.926 318.349 104.653C318.793 104.369 319.014 103.932 319.014 103.341V103.239C319.014 101.955 318.634 100.96 317.872 100.256C317.111 99.5511 316.014 99.1989 314.582 99.1989C313.071 99.1989 311.872 99.5284 310.986 100.188C310.111 100.847 309.52 101.625 309.213 102.523L303.452 101.705C303.906 100.114 304.656 98.7841 305.702 97.7159C306.747 96.6364 308.026 95.8295 309.537 95.2955C311.048 94.75 312.719 94.4773 314.548 94.4773C315.81 94.4773 317.065 94.625 318.315 94.9205C319.565 95.2159 320.707 95.7045 321.741 96.3864C322.776 97.0568 323.605 97.9716 324.23 99.1307C324.866 100.29 325.185 101.739 325.185 103.477V121H319.253V117.403H319.048C318.673 118.131 318.145 118.812 317.463 119.449C316.793 120.074 315.946 120.58 314.923 120.966C313.912 121.341 312.724 121.528 311.361 121.528ZM312.963 116.994C314.202 116.994 315.276 116.75 316.185 116.261C317.094 115.761 317.793 115.102 318.281 114.284C318.781 113.466 319.031 112.574 319.031 111.608V108.523C318.838 108.682 318.509 108.83 318.043 108.966C317.588 109.102 317.077 109.222 316.509 109.324C315.94 109.426 315.378 109.517 314.821 109.597C314.264 109.676 313.781 109.744 313.372 109.801C312.452 109.926 311.628 110.131 310.901 110.415C310.173 110.699 309.599 111.097 309.179 111.608C308.759 112.108 308.548 112.756 308.548 113.551C308.548 114.688 308.963 115.545 309.793 116.125C310.622 116.705 311.679 116.994 312.963 116.994ZM342.81 121.511C340.196 121.511 337.952 120.938 336.077 119.79C334.213 118.642 332.776 117.057 331.764 115.034C330.764 113 330.264 110.659 330.264 108.011C330.264 105.352 330.776 103.006 331.798 100.972C332.821 98.9261 334.264 97.3352 336.128 96.1989C338.003 95.0511 340.219 94.4773 342.776 94.4773C344.901 94.4773 346.781 94.8693 348.418 95.6534C350.065 96.4261 351.378 97.5227 352.355 98.9432C353.332 100.352 353.889 102 354.026 103.886H348.128C347.889 102.625 347.321 101.574 346.423 100.733C345.537 99.8807 344.349 99.4545 342.861 99.4545C341.599 99.4545 340.491 99.7955 339.537 100.477C338.582 101.148 337.838 102.114 337.304 103.375C336.781 104.636 336.52 106.148 336.52 107.909C336.52 109.693 336.781 111.227 337.304 112.511C337.827 113.784 338.56 114.767 339.503 115.46C340.457 116.142 341.577 116.483 342.861 116.483C343.77 116.483 344.582 116.312 345.298 115.972C346.026 115.619 346.634 115.114 347.122 114.455C347.611 113.795 347.946 112.994 348.128 112.051H354.026C353.878 113.903 353.332 115.545 352.389 116.977C351.446 118.398 350.162 119.511 348.537 120.318C346.912 121.114 345.003 121.511 342.81 121.511ZM359.092 121V94.8182H365.263V121H359.092ZM362.195 91.1023C361.217 91.1023 360.376 90.7784 359.672 90.1307C358.967 89.4716 358.615 88.6818 358.615 87.7614C358.615 86.8295 358.967 86.0398 359.672 85.392C360.376 84.733 361.217 84.4034 362.195 84.4034C363.183 84.4034 364.024 84.733 364.717 85.392C365.422 86.0398 365.774 86.8295 365.774 87.7614C365.774 88.6818 365.422 89.4716 364.717 90.1307C364.024 90.7784 363.183 91.1023 362.195 91.1023ZM383.028 121.511C380.472 121.511 378.256 120.949 376.381 119.824C374.506 118.699 373.051 117.125 372.017 115.102C370.994 113.08 370.483 110.716 370.483 108.011C370.483 105.307 370.994 102.937 372.017 100.903C373.051 98.8693 374.506 97.2898 376.381 96.1648C378.256 95.0398 380.472 94.4773 383.028 94.4773C385.585 94.4773 387.801 95.0398 389.676 96.1648C391.551 97.2898 393 98.8693 394.023 100.903C395.057 102.937 395.574 105.307 395.574 108.011C395.574 110.716 395.057 113.08 394.023 115.102C393 117.125 391.551 118.699 389.676 119.824C387.801 120.949 385.585 121.511 383.028 121.511ZM383.062 116.568C384.449 116.568 385.608 116.187 386.54 115.426C387.472 114.653 388.165 113.619 388.619 112.324C389.085 111.028 389.318 109.585 389.318 107.994C389.318 106.392 389.085 104.943 388.619 103.648C388.165 102.341 387.472 101.301 386.54 100.528C385.608 99.7557 384.449 99.3693 383.062 99.3693C381.642 99.3693 380.46 99.7557 379.517 100.528C378.585 101.301 377.886 102.341 377.42 103.648C376.966 104.943 376.739 106.392 376.739 107.994C376.739 109.585 376.966 111.028 377.42 112.324C377.886 113.619 378.585 114.653 379.517 115.426C380.46 116.187 381.642 116.568 383.062 116.568ZM380.659 91.375L384.477 83.5852H390.511L385.278 91.375H380.659ZM406.982 105.659V121H400.811V94.8182H406.709V99.267H407.016C407.618 97.8011 408.578 96.6364 409.896 95.7727C411.226 94.9091 412.868 94.4773 414.822 94.4773C416.629 94.4773 418.203 94.8636 419.544 95.6364C420.896 96.4091 421.942 97.5284 422.68 98.9943C423.43 100.46 423.8 102.239 423.788 104.33V121H417.618V105.284C417.618 103.534 417.163 102.165 416.254 101.176C415.357 100.187 414.112 99.6932 412.521 99.6932C411.442 99.6932 410.482 99.9318 409.641 100.409C408.811 100.875 408.158 101.551 407.68 102.438C407.214 103.324 406.982 104.398 406.982 105.659ZM460.044 105.659V121H453.874V94.8182H459.771V99.267H460.078C460.68 97.8011 461.641 96.6364 462.959 95.7727C464.288 94.9091 465.93 94.4773 467.885 94.4773C469.692 94.4773 471.266 94.8636 472.607 95.6364C473.959 96.4091 475.004 97.5284 475.743 98.9943C476.493 100.46 476.862 102.239 476.851 104.33V121H470.68V105.284C470.68 103.534 470.226 102.165 469.317 101.176C468.419 100.187 467.175 99.6932 465.584 99.6932C464.504 99.6932 463.544 99.9318 462.703 100.409C461.874 100.875 461.22 101.551 460.743 102.438C460.277 103.324 460.044 104.398 460.044 105.659ZM494.544 121.511C491.987 121.511 489.771 120.949 487.896 119.824C486.021 118.699 484.567 117.125 483.533 115.102C482.51 113.08 481.999 110.716 481.999 108.011C481.999 105.307 482.51 102.937 483.533 100.903C484.567 98.8693 486.021 97.2898 487.896 96.1648C489.771 95.0398 491.987 94.4773 494.544 94.4773C497.101 94.4773 499.317 95.0398 501.192 96.1648C503.067 97.2898 504.516 98.8693 505.538 100.903C506.572 102.937 507.089 105.307 507.089 108.011C507.089 110.716 506.572 113.08 505.538 115.102C504.516 117.125 503.067 118.699 501.192 119.824C499.317 120.949 497.101 121.511 494.544 121.511ZM494.578 116.568C495.964 116.568 497.124 116.187 498.055 115.426C498.987 114.653 499.68 113.619 500.135 112.324C500.601 111.028 500.834 109.585 500.834 107.994C500.834 106.392 500.601 104.943 500.135 103.648C499.68 102.341 498.987 101.301 498.055 100.528C497.124 99.7557 495.964 99.3693 494.578 99.3693C493.158 99.3693 491.976 99.7557 491.033 100.528C490.101 101.301 489.402 102.341 488.936 103.648C488.482 104.943 488.254 106.392 488.254 107.994C488.254 109.585 488.482 111.028 488.936 112.324C489.402 113.619 490.101 114.653 491.033 115.426C491.976 116.187 493.158 116.568 494.578 116.568ZM535.824 121.511C533.199 121.511 530.932 120.966 529.023 119.875C527.125 118.773 525.665 117.216 524.642 115.205C523.619 113.182 523.108 110.801 523.108 108.062C523.108 105.369 523.619 103.006 524.642 100.972C525.676 98.9261 527.119 97.3352 528.972 96.1989C530.824 95.0511 533 94.4773 535.5 94.4773C537.114 94.4773 538.636 94.7386 540.068 95.2614C541.511 95.7727 542.784 96.5682 543.886 97.6477C545 98.7273 545.875 100.102 546.511 101.773C547.148 103.432 547.466 105.409 547.466 107.705V109.597H526.006V105.438H541.551C541.54 104.256 541.284 103.205 540.784 102.284C540.284 101.352 539.585 100.619 538.688 100.085C537.801 99.5511 536.767 99.2841 535.585 99.2841C534.324 99.2841 533.216 99.5909 532.261 100.205C531.307 100.807 530.563 101.602 530.028 102.591C529.506 103.568 529.239 104.642 529.227 105.812V109.443C529.227 110.966 529.506 112.273 530.062 113.364C530.619 114.443 531.398 115.273 532.398 115.852C533.398 116.42 534.568 116.705 535.909 116.705C536.807 116.705 537.619 116.58 538.347 116.33C539.074 116.068 539.705 115.688 540.239 115.188C540.773 114.688 541.176 114.068 541.449 113.33L547.21 113.977C546.847 115.5 546.153 116.83 545.131 117.966C544.119 119.091 542.824 119.966 541.244 120.591C539.665 121.205 537.858 121.511 535.824 121.511ZM557.169 94.8182L562.453 104.483L567.822 94.8182H574.351L566.459 107.909L574.487 121H567.993L562.453 111.574L556.964 121H550.419L558.396 107.909L550.624 94.8182H557.169ZM579.124 121V94.8182H585.294V121H579.124ZM582.226 91.1023C581.249 91.1023 580.408 90.7784 579.703 90.1307C578.999 89.4716 578.646 88.6818 578.646 87.7614C578.646 86.8295 578.999 86.0398 579.703 85.392C580.408 84.733 581.249 84.4034 582.226 84.4034C583.214 84.4034 584.055 84.733 584.749 85.392C585.453 86.0398 585.805 86.8295 585.805 87.7614C585.805 88.6818 585.453 89.4716 584.749 90.1307C584.055 90.7784 583.214 91.1023 582.226 91.1023ZM604.713 94.8182V99.5909H589.662V94.8182H604.713ZM593.378 88.5455H599.548V113.125C599.548 113.955 599.673 114.591 599.923 115.034C600.185 115.466 600.526 115.761 600.946 115.92C601.366 116.08 601.832 116.159 602.344 116.159C602.73 116.159 603.082 116.131 603.401 116.074C603.73 116.017 603.98 115.966 604.151 115.92L605.19 120.744C604.861 120.858 604.389 120.983 603.776 121.119C603.173 121.256 602.435 121.335 601.56 121.358C600.014 121.403 598.622 121.17 597.384 120.659C596.145 120.136 595.162 119.33 594.435 118.239C593.719 117.148 593.366 115.784 593.378 114.148V88.5455ZM621.013 121.511C618.456 121.511 616.24 120.949 614.365 119.824C612.49 118.699 611.036 117.125 610.001 115.102C608.979 113.08 608.467 110.716 608.467 108.011C608.467 105.307 608.979 102.937 610.001 100.903C611.036 98.8693 612.49 97.2898 614.365 96.1648C616.24 95.0398 618.456 94.4773 621.013 94.4773C623.57 94.4773 625.786 95.0398 627.661 96.1648C629.536 97.2898 630.984 98.8693 632.007 100.903C633.041 102.937 633.558 105.307 633.558 108.011C633.558 110.716 633.041 113.08 632.007 115.102C630.984 117.125 629.536 118.699 627.661 119.824C625.786 120.949 623.57 121.511 621.013 121.511ZM621.047 116.568C622.433 116.568 623.592 116.187 624.524 115.426C625.456 114.653 626.149 113.619 626.604 112.324C627.07 111.028 627.303 109.585 627.303 107.994C627.303 106.392 627.07 104.943 626.604 103.648C626.149 102.341 625.456 101.301 624.524 100.528C623.592 99.7557 622.433 99.3693 621.047 99.3693C619.626 99.3693 618.445 99.7557 617.501 100.528C616.57 101.301 615.871 102.341 615.405 103.648C614.95 104.943 614.723 106.392 614.723 107.994C614.723 109.585 614.95 111.028 615.405 112.324C615.871 113.619 616.57 114.653 617.501 115.426C618.445 116.187 619.626 116.568 621.047 116.568ZM659.489 101.739L653.864 102.352C653.705 101.784 653.426 101.25 653.028 100.75C652.642 100.25 652.119 99.8466 651.46 99.5398C650.801 99.233 649.994 99.0795 649.04 99.0795C647.756 99.0795 646.676 99.358 645.801 99.9148C644.938 100.472 644.511 101.193 644.523 102.08C644.511 102.841 644.79 103.46 645.358 103.938C645.938 104.415 646.892 104.807 648.222 105.114L652.688 106.068C655.165 106.602 657.006 107.449 658.21 108.608C659.426 109.767 660.04 111.284 660.051 113.159C660.04 114.807 659.557 116.261 658.602 117.523C657.659 118.773 656.347 119.75 654.665 120.455C652.983 121.159 651.051 121.511 648.869 121.511C645.665 121.511 643.085 120.841 641.131 119.5C639.176 118.148 638.011 116.267 637.636 113.858L643.653 113.278C643.926 114.46 644.506 115.352 645.392 115.955C646.278 116.557 647.432 116.858 648.852 116.858C650.318 116.858 651.494 116.557 652.381 115.955C653.278 115.352 653.727 114.608 653.727 113.722C653.727 112.972 653.438 112.352 652.858 111.864C652.29 111.375 651.403 111 650.199 110.739L645.733 109.801C643.222 109.278 641.364 108.398 640.159 107.159C638.955 105.909 638.358 104.33 638.369 102.42C638.358 100.807 638.795 99.4091 639.682 98.2273C640.58 97.0341 641.824 96.1136 643.415 95.4659C645.017 94.8068 646.864 94.4773 648.955 94.4773C652.023 94.4773 654.438 95.1307 656.199 96.4375C657.972 97.7443 659.068 99.5114 659.489 101.739ZM672.673 121.528C671.014 121.528 669.52 121.233 668.19 120.642C666.872 120.04 665.827 119.153 665.054 117.983C664.293 116.812 663.912 115.369 663.912 113.653C663.912 112.176 664.185 110.955 664.73 109.989C665.276 109.023 666.02 108.25 666.963 107.67C667.906 107.091 668.969 106.653 670.151 106.358C671.344 106.051 672.577 105.83 673.849 105.693C675.384 105.534 676.628 105.392 677.582 105.267C678.537 105.131 679.23 104.926 679.662 104.653C680.105 104.369 680.327 103.932 680.327 103.341V103.239C680.327 101.955 679.946 100.96 679.185 100.256C678.423 99.5511 677.327 99.1989 675.895 99.1989C674.384 99.1989 673.185 99.5284 672.298 100.188C671.423 100.847 670.832 101.625 670.526 102.523L664.764 101.705C665.219 100.114 665.969 98.7841 667.014 97.7159C668.06 96.6364 669.338 95.8295 670.849 95.2955C672.361 94.75 674.031 94.4773 675.861 94.4773C677.122 94.4773 678.378 94.625 679.628 94.9205C680.878 95.2159 682.02 95.7045 683.054 96.3864C684.088 97.0568 684.918 97.9716 685.543 99.1307C686.179 100.29 686.497 101.739 686.497 103.477V121H680.565V117.403H680.361C679.986 118.131 679.457 118.812 678.776 119.449C678.105 120.074 677.259 120.58 676.236 120.966C675.224 121.341 674.037 121.528 672.673 121.528ZM674.276 116.994C675.514 116.994 676.588 116.75 677.497 116.261C678.406 115.761 679.105 115.102 679.594 114.284C680.094 113.466 680.344 112.574 680.344 111.608V108.523C680.151 108.682 679.821 108.83 679.355 108.966C678.901 109.102 678.389 109.222 677.821 109.324C677.253 109.426 676.69 109.517 676.134 109.597C675.577 109.676 675.094 109.744 674.685 109.801C673.764 109.926 672.94 110.131 672.213 110.415C671.486 110.699 670.912 111.097 670.491 111.608C670.071 112.108 669.861 112.756 669.861 113.551C669.861 114.688 670.276 115.545 671.105 116.125C671.935 116.705 672.991 116.994 674.276 116.994Z" fill="#F39200"/>
<path d="M303.476 178V166.364H311.044V168.131H305.584V171.29H310.652V173.057H305.584V176.233H311.089V178H303.476ZM313.104 178V169.273H315.098V170.727H315.189C315.348 170.223 315.621 169.835 316.007 169.562C316.397 169.286 316.842 169.148 317.342 169.148C317.456 169.148 317.583 169.153 317.723 169.165C317.867 169.172 317.986 169.186 318.081 169.205V171.097C317.994 171.066 317.856 171.04 317.666 171.017C317.481 170.991 317.301 170.977 317.126 170.977C316.751 170.977 316.414 171.059 316.115 171.222C315.82 171.381 315.587 171.602 315.416 171.886C315.246 172.17 315.161 172.498 315.161 172.869V178H313.104ZM319.447 178V169.273H321.442V170.727H321.533C321.692 170.223 321.964 169.835 322.351 169.562C322.741 169.286 323.186 169.148 323.686 169.148C323.8 169.148 323.927 169.153 324.067 169.165C324.211 169.172 324.33 169.186 324.425 169.205V171.097C324.338 171.066 324.199 171.04 324.01 171.017C323.824 170.991 323.644 170.977 323.47 170.977C323.095 170.977 322.758 171.059 322.459 171.222C322.163 171.381 321.93 171.602 321.76 171.886C321.589 172.17 321.504 172.498 321.504 172.869V178H319.447ZM329.239 178.17C328.386 178.17 327.648 177.983 327.023 177.608C326.398 177.233 325.913 176.708 325.568 176.034C325.227 175.36 325.057 174.572 325.057 173.67C325.057 172.769 325.227 171.979 325.568 171.301C325.913 170.623 326.398 170.097 327.023 169.722C327.648 169.347 328.386 169.159 329.239 169.159C330.091 169.159 330.83 169.347 331.455 169.722C332.08 170.097 332.563 170.623 332.903 171.301C333.248 171.979 333.42 172.769 333.42 173.67C333.42 174.572 333.248 175.36 332.903 176.034C332.563 176.708 332.08 177.233 331.455 177.608C330.83 177.983 330.091 178.17 329.239 178.17ZM329.25 176.523C329.712 176.523 330.098 176.396 330.409 176.142C330.72 175.884 330.951 175.54 331.102 175.108C331.258 174.676 331.335 174.195 331.335 173.665C331.335 173.131 331.258 172.648 331.102 172.216C330.951 171.78 330.72 171.434 330.409 171.176C330.098 170.919 329.712 170.79 329.25 170.79C328.777 170.79 328.383 170.919 328.068 171.176C327.758 171.434 327.525 171.78 327.369 172.216C327.218 172.648 327.142 173.131 327.142 173.665C327.142 174.195 327.218 174.676 327.369 175.108C327.525 175.54 327.758 175.884 328.068 176.142C328.383 176.396 328.777 176.523 329.25 176.523ZM335.166 178V169.273H337.161V170.727H337.251C337.411 170.223 337.683 169.835 338.07 169.562C338.46 169.286 338.905 169.148 339.405 169.148C339.518 169.148 339.645 169.153 339.786 169.165C339.929 169.172 340.049 169.186 340.143 169.205V171.097C340.056 171.066 339.918 171.04 339.729 171.017C339.543 170.991 339.363 170.977 339.189 170.977C338.814 170.977 338.477 171.059 338.178 171.222C337.882 171.381 337.649 171.602 337.479 171.886C337.308 172.17 337.223 172.498 337.223 172.869V178H335.166ZM349.342 178.17C348.467 178.17 347.712 177.989 347.075 177.625C346.443 177.258 345.956 176.739 345.615 176.068C345.274 175.394 345.104 174.6 345.104 173.688C345.104 172.79 345.274 172.002 345.615 171.324C345.96 170.642 346.441 170.112 347.058 169.733C347.676 169.35 348.401 169.159 349.234 169.159C349.772 169.159 350.28 169.246 350.757 169.42C351.238 169.591 351.662 169.856 352.03 170.216C352.401 170.576 352.693 171.034 352.905 171.591C353.117 172.144 353.223 172.803 353.223 173.568V174.199H346.07V172.812H351.251C351.248 172.419 351.162 172.068 350.996 171.761C350.829 171.451 350.596 171.206 350.297 171.028C350.001 170.85 349.657 170.761 349.263 170.761C348.842 170.761 348.473 170.864 348.155 171.068C347.837 171.269 347.589 171.534 347.411 171.864C347.236 172.189 347.147 172.547 347.143 172.938V174.148C347.143 174.655 347.236 175.091 347.422 175.455C347.607 175.814 347.867 176.091 348.2 176.284C348.534 176.473 348.924 176.568 349.371 176.568C349.67 176.568 349.941 176.527 350.183 176.443C350.426 176.356 350.636 176.229 350.814 176.062C350.992 175.896 351.126 175.689 351.217 175.443L353.138 175.659C353.017 176.167 352.786 176.61 352.445 176.989C352.107 177.364 351.676 177.655 351.149 177.864C350.623 178.068 350.02 178.17 349.342 178.17ZM357.02 172.886V178H354.963V169.273H356.929V170.756H357.031C357.232 170.267 357.552 169.879 357.991 169.591C358.435 169.303 358.982 169.159 359.634 169.159C360.236 169.159 360.76 169.288 361.207 169.545C361.658 169.803 362.007 170.176 362.253 170.665C362.503 171.153 362.626 171.746 362.622 172.443V178H360.565V172.761C360.565 172.178 360.414 171.722 360.111 171.392C359.812 171.062 359.397 170.898 358.866 170.898C358.507 170.898 358.187 170.977 357.906 171.136C357.63 171.292 357.412 171.517 357.253 171.812C357.098 172.108 357.02 172.466 357.02 172.886ZM370.739 166.364V178H368.682V166.364H370.739ZM375.365 178.176C374.812 178.176 374.314 178.078 373.871 177.881C373.431 177.68 373.083 177.384 372.825 176.994C372.571 176.604 372.445 176.123 372.445 175.551C372.445 175.059 372.536 174.652 372.717 174.33C372.899 174.008 373.147 173.75 373.462 173.557C373.776 173.364 374.13 173.218 374.524 173.119C374.922 173.017 375.333 172.943 375.757 172.898C376.268 172.845 376.683 172.797 377.001 172.756C377.32 172.71 377.551 172.642 377.695 172.551C377.842 172.456 377.916 172.311 377.916 172.114V172.08C377.916 171.652 377.789 171.32 377.536 171.085C377.282 170.85 376.916 170.733 376.439 170.733C375.935 170.733 375.536 170.843 375.24 171.062C374.948 171.282 374.751 171.542 374.649 171.841L372.729 171.568C372.88 171.038 373.13 170.595 373.479 170.239C373.827 169.879 374.253 169.61 374.757 169.432C375.261 169.25 375.818 169.159 376.428 169.159C376.848 169.159 377.267 169.208 377.683 169.307C378.1 169.405 378.481 169.568 378.825 169.795C379.17 170.019 379.446 170.324 379.655 170.71C379.867 171.097 379.973 171.58 379.973 172.159V178H377.996V176.801H377.928C377.803 177.044 377.626 177.271 377.399 177.483C377.176 177.691 376.893 177.86 376.553 177.989C376.215 178.114 375.82 178.176 375.365 178.176ZM375.899 176.665C376.312 176.665 376.67 176.583 376.973 176.42C377.276 176.254 377.509 176.034 377.672 175.761C377.839 175.489 377.922 175.191 377.922 174.869V173.841C377.857 173.894 377.748 173.943 377.592 173.989C377.441 174.034 377.27 174.074 377.081 174.108C376.892 174.142 376.704 174.172 376.518 174.199C376.333 174.225 376.172 174.248 376.036 174.267C375.729 174.309 375.454 174.377 375.212 174.472C374.969 174.566 374.778 174.699 374.638 174.869C374.498 175.036 374.428 175.252 374.428 175.517C374.428 175.896 374.566 176.182 374.842 176.375C375.119 176.568 375.471 176.665 375.899 176.665ZM389.817 178.17C388.964 178.17 388.226 177.983 387.601 177.608C386.976 177.233 386.491 176.708 386.146 176.034C385.805 175.36 385.635 174.572 385.635 173.67C385.635 172.769 385.805 171.979 386.146 171.301C386.491 170.623 386.976 170.097 387.601 169.722C388.226 169.347 388.964 169.159 389.817 169.159C390.669 169.159 391.408 169.347 392.033 169.722C392.658 170.097 393.141 170.623 393.482 171.301C393.826 171.979 393.999 172.769 393.999 173.67C393.999 174.572 393.826 175.36 393.482 176.034C393.141 176.708 392.658 177.233 392.033 177.608C391.408 177.983 390.669 178.17 389.817 178.17ZM389.828 176.523C390.29 176.523 390.677 176.396 390.987 176.142C391.298 175.884 391.529 175.54 391.68 175.108C391.836 174.676 391.913 174.195 391.913 173.665C391.913 173.131 391.836 172.648 391.68 172.216C391.529 171.78 391.298 171.434 390.987 171.176C390.677 170.919 390.29 170.79 389.828 170.79C389.355 170.79 388.961 170.919 388.646 171.176C388.336 171.434 388.103 171.78 387.947 172.216C387.796 172.648 387.72 173.131 387.72 173.665C387.72 174.195 387.796 174.676 387.947 175.108C388.103 175.54 388.336 175.884 388.646 176.142C388.961 176.396 389.355 176.523 389.828 176.523ZM395.744 181.273V169.273H397.767V170.716H397.886C397.992 170.504 398.142 170.278 398.335 170.04C398.528 169.797 398.79 169.591 399.119 169.42C399.449 169.246 399.869 169.159 400.381 169.159C401.055 169.159 401.663 169.331 402.205 169.676C402.75 170.017 403.182 170.523 403.5 171.193C403.822 171.86 403.983 172.678 403.983 173.648C403.983 174.606 403.826 175.42 403.511 176.091C403.197 176.761 402.769 177.273 402.227 177.625C401.686 177.977 401.072 178.153 400.386 178.153C399.886 178.153 399.472 178.07 399.142 177.903C398.813 177.737 398.547 177.536 398.347 177.301C398.15 177.062 397.996 176.837 397.886 176.625H397.801V181.273H395.744ZM397.761 173.636C397.761 174.201 397.841 174.695 398 175.119C398.163 175.544 398.396 175.875 398.699 176.114C399.006 176.348 399.377 176.466 399.812 176.466C400.267 176.466 400.648 176.345 400.955 176.102C401.261 175.856 401.492 175.521 401.648 175.097C401.807 174.669 401.886 174.182 401.886 173.636C401.886 173.095 401.809 172.614 401.653 172.193C401.498 171.773 401.267 171.443 400.96 171.205C400.653 170.966 400.271 170.847 399.812 170.847C399.373 170.847 399 170.962 398.693 171.193C398.386 171.424 398.153 171.748 397.994 172.165C397.839 172.581 397.761 173.072 397.761 173.636ZM409.608 178.17C408.733 178.17 407.977 177.989 407.341 177.625C406.708 177.258 406.222 176.739 405.881 176.068C405.54 175.394 405.369 174.6 405.369 173.688C405.369 172.79 405.54 172.002 405.881 171.324C406.225 170.642 406.706 170.112 407.324 169.733C407.941 169.35 408.667 169.159 409.5 169.159C410.038 169.159 410.545 169.246 411.023 169.42C411.504 169.591 411.928 169.856 412.295 170.216C412.667 170.576 412.958 171.034 413.17 171.591C413.383 172.144 413.489 172.803 413.489 173.568V174.199H406.335V172.812H411.517C411.513 172.419 411.428 172.068 411.261 171.761C411.095 171.451 410.862 171.206 410.562 171.028C410.267 170.85 409.922 170.761 409.528 170.761C409.108 170.761 408.739 170.864 408.42 171.068C408.102 171.269 407.854 171.534 407.676 171.864C407.502 172.189 407.413 172.547 407.409 172.938V174.148C407.409 174.655 407.502 175.091 407.688 175.455C407.873 175.814 408.133 176.091 408.466 176.284C408.799 176.473 409.189 176.568 409.636 176.568C409.936 176.568 410.206 176.527 410.449 176.443C410.691 176.356 410.902 176.229 411.08 176.062C411.258 175.896 411.392 175.689 411.483 175.443L413.403 175.659C413.282 176.167 413.051 176.61 412.71 176.989C412.373 177.364 411.941 177.655 411.415 177.864C410.888 178.068 410.286 178.17 409.608 178.17ZM415.229 178V169.273H417.223V170.727H417.314C417.473 170.223 417.746 169.835 418.132 169.562C418.522 169.286 418.967 169.148 419.467 169.148C419.581 169.148 419.708 169.153 419.848 169.165C419.992 169.172 420.111 169.186 420.206 169.205V171.097C420.119 171.066 419.981 171.04 419.791 171.017C419.606 170.991 419.426 170.977 419.251 170.977C418.876 170.977 418.539 171.059 418.24 171.222C417.945 171.381 417.712 171.602 417.541 171.886C417.371 172.17 417.286 172.498 417.286 172.869V178H415.229ZM423.928 178.176C423.375 178.176 422.876 178.078 422.433 177.881C421.994 177.68 421.645 177.384 421.388 176.994C421.134 176.604 421.007 176.123 421.007 175.551C421.007 175.059 421.098 174.652 421.28 174.33C421.462 174.008 421.71 173.75 422.024 173.557C422.339 173.364 422.693 173.218 423.087 173.119C423.484 173.017 423.895 172.943 424.32 172.898C424.831 172.845 425.246 172.797 425.564 172.756C425.882 172.71 426.113 172.642 426.257 172.551C426.405 172.456 426.479 172.311 426.479 172.114V172.08C426.479 171.652 426.352 171.32 426.098 171.085C425.844 170.85 425.479 170.733 425.001 170.733C424.498 170.733 424.098 170.843 423.803 171.062C423.511 171.282 423.314 171.542 423.212 171.841L421.291 171.568C421.443 171.038 421.693 170.595 422.041 170.239C422.39 169.879 422.816 169.61 423.32 169.432C423.823 169.25 424.38 169.159 424.99 169.159C425.411 169.159 425.829 169.208 426.246 169.307C426.662 169.405 427.043 169.568 427.388 169.795C427.732 170.019 428.009 170.324 428.217 170.71C428.429 171.097 428.536 171.58 428.536 172.159V178H426.558V176.801H426.49C426.365 177.044 426.189 177.271 425.962 177.483C425.738 177.691 425.456 177.86 425.115 177.989C424.778 178.114 424.382 178.176 423.928 178.176ZM424.462 176.665C424.875 176.665 425.232 176.583 425.536 176.42C425.839 176.254 426.071 176.034 426.234 175.761C426.401 175.489 426.484 175.191 426.484 174.869V173.841C426.42 173.894 426.31 173.943 426.155 173.989C426.003 174.034 425.833 174.074 425.643 174.108C425.454 174.142 425.267 174.172 425.081 174.199C424.895 174.225 424.734 174.248 424.598 174.267C424.291 174.309 424.017 174.377 423.774 174.472C423.532 174.566 423.34 174.699 423.2 174.869C423.06 175.036 422.99 175.252 422.99 175.517C422.99 175.896 423.128 176.182 423.405 176.375C423.681 176.568 424.034 176.665 424.462 176.665ZM434.411 178.17C433.539 178.17 432.791 177.979 432.166 177.597C431.545 177.214 431.066 176.686 430.729 176.011C430.395 175.333 430.229 174.553 430.229 173.67C430.229 172.784 430.399 172.002 430.74 171.324C431.081 170.642 431.562 170.112 432.183 169.733C432.808 169.35 433.547 169.159 434.399 169.159C435.107 169.159 435.734 169.29 436.28 169.551C436.829 169.809 437.267 170.174 437.592 170.648C437.918 171.117 438.104 171.667 438.149 172.295H436.183C436.104 171.875 435.914 171.525 435.615 171.244C435.32 170.96 434.924 170.818 434.428 170.818C434.007 170.818 433.638 170.932 433.32 171.159C433.001 171.383 432.753 171.705 432.575 172.125C432.401 172.545 432.314 173.049 432.314 173.636C432.314 174.231 432.401 174.742 432.575 175.17C432.75 175.595 432.994 175.922 433.308 176.153C433.626 176.381 434 176.494 434.428 176.494C434.731 176.494 435.001 176.437 435.24 176.324C435.482 176.206 435.685 176.038 435.848 175.818C436.011 175.598 436.123 175.331 436.183 175.017H438.149C438.1 175.634 437.918 176.182 437.604 176.659C437.289 177.133 436.861 177.504 436.32 177.773C435.778 178.038 435.142 178.17 434.411 178.17ZM439.838 178V169.273H441.895V178H439.838ZM440.872 168.034C440.546 168.034 440.266 167.926 440.031 167.71C439.796 167.491 439.679 167.227 439.679 166.92C439.679 166.61 439.796 166.347 440.031 166.131C440.266 165.911 440.546 165.801 440.872 165.801C441.202 165.801 441.482 165.911 441.713 166.131C441.948 166.347 442.065 166.61 442.065 166.92C442.065 167.227 441.948 167.491 441.713 167.71C441.482 167.926 441.202 168.034 440.872 168.034ZM447.817 178.17C446.964 178.17 446.226 177.983 445.601 177.608C444.976 177.233 444.491 176.708 444.146 176.034C443.805 175.36 443.635 174.572 443.635 173.67C443.635 172.769 443.805 171.979 444.146 171.301C444.491 170.623 444.976 170.097 445.601 169.722C446.226 169.347 446.964 169.159 447.817 169.159C448.669 169.159 449.408 169.347 450.033 169.722C450.658 170.097 451.141 170.623 451.482 171.301C451.826 171.979 451.999 172.769 451.999 173.67C451.999 174.572 451.826 175.36 451.482 176.034C451.141 176.708 450.658 177.233 450.033 177.608C449.408 177.983 448.669 178.17 447.817 178.17ZM447.828 176.523C448.29 176.523 448.677 176.396 448.987 176.142C449.298 175.884 449.529 175.54 449.68 175.108C449.836 174.676 449.913 174.195 449.913 173.665C449.913 173.131 449.836 172.648 449.68 172.216C449.529 171.78 449.298 171.434 448.987 171.176C448.677 170.919 448.29 170.79 447.828 170.79C447.355 170.79 446.961 170.919 446.646 171.176C446.336 171.434 446.103 171.78 445.947 172.216C445.796 172.648 445.72 173.131 445.72 173.665C445.72 174.195 445.796 174.676 445.947 175.108C446.103 175.54 446.336 175.884 446.646 176.142C446.961 176.396 447.355 176.523 447.828 176.523ZM447.027 168.125L448.3 165.528H450.311L448.567 168.125H447.027ZM455.801 172.886V178H453.744V169.273H455.71V170.756H455.812C456.013 170.267 456.333 169.879 456.773 169.591C457.216 169.303 457.763 169.159 458.415 169.159C459.017 169.159 459.542 169.288 459.989 169.545C460.439 169.803 460.788 170.176 461.034 170.665C461.284 171.153 461.407 171.746 461.403 172.443V178H459.347V172.761C459.347 172.178 459.195 171.722 458.892 171.392C458.593 171.062 458.178 170.898 457.648 170.898C457.288 170.898 456.968 170.977 456.688 171.136C456.411 171.292 456.193 171.517 456.034 171.812C455.879 172.108 455.801 172.466 455.801 172.886ZM469.878 176.409L469.804 177.034C469.751 177.511 469.656 177.996 469.52 178.489C469.387 178.985 469.247 179.441 469.099 179.858C468.952 180.275 468.832 180.602 468.741 180.841H467.355C467.408 180.61 467.48 180.295 467.571 179.898C467.666 179.5 467.757 179.053 467.844 178.557C467.931 178.061 467.99 177.557 468.02 177.045L468.06 176.409H469.878ZM477.439 166.364L480.467 175.523H480.587L483.609 166.364H485.928L481.825 178H479.223L475.126 166.364H477.439ZM490.295 178.17C489.42 178.17 488.665 177.989 488.028 177.625C487.396 177.258 486.909 176.739 486.568 176.068C486.227 175.394 486.057 174.6 486.057 173.688C486.057 172.79 486.227 172.002 486.568 171.324C486.913 170.642 487.394 170.112 488.011 169.733C488.629 169.35 489.354 169.159 490.188 169.159C490.725 169.159 491.233 169.246 491.71 169.42C492.191 169.591 492.616 169.856 492.983 170.216C493.354 170.576 493.646 171.034 493.858 171.591C494.07 172.144 494.176 172.803 494.176 173.568V174.199H487.023V172.812H492.205C492.201 172.419 492.116 172.068 491.949 171.761C491.782 171.451 491.549 171.206 491.25 171.028C490.955 170.85 490.61 170.761 490.216 170.761C489.795 170.761 489.426 170.864 489.108 171.068C488.79 171.269 488.542 171.534 488.364 171.864C488.189 172.189 488.1 172.547 488.097 172.938V174.148C488.097 174.655 488.189 175.091 488.375 175.455C488.561 175.814 488.82 176.091 489.153 176.284C489.487 176.473 489.877 176.568 490.324 176.568C490.623 176.568 490.894 176.527 491.136 176.443C491.379 176.356 491.589 176.229 491.767 176.062C491.945 175.896 492.08 175.689 492.17 175.443L494.091 175.659C493.97 176.167 493.739 176.61 493.398 176.989C493.061 177.364 492.629 177.655 492.102 177.864C491.576 178.068 490.973 178.17 490.295 178.17ZM495.916 178V169.273H497.911V170.727H498.001C498.161 170.223 498.433 169.835 498.82 169.562C499.21 169.286 499.655 169.148 500.155 169.148C500.268 169.148 500.395 169.153 500.536 169.165C500.679 169.172 500.799 169.186 500.893 169.205V171.097C500.806 171.066 500.668 171.04 500.479 171.017C500.293 170.991 500.113 170.977 499.939 170.977C499.564 170.977 499.227 171.059 498.928 171.222C498.632 171.381 498.399 171.602 498.229 171.886C498.058 172.17 497.973 172.498 497.973 172.869V178H495.916ZM502.26 178V169.273H504.317V178H502.26ZM503.294 168.034C502.968 168.034 502.688 167.926 502.453 167.71C502.218 167.491 502.101 167.227 502.101 166.92C502.101 166.61 502.218 166.347 502.453 166.131C502.688 165.911 502.968 165.801 503.294 165.801C503.624 165.801 503.904 165.911 504.135 166.131C504.37 166.347 504.487 166.61 504.487 166.92C504.487 167.227 504.37 167.491 504.135 167.71C503.904 167.926 503.624 168.034 503.294 168.034ZM510.852 169.273V170.864H505.693V169.273H510.852ZM506.983 178V168.449C506.983 167.862 507.104 167.373 507.347 166.983C507.593 166.593 507.922 166.301 508.335 166.108C508.748 165.915 509.206 165.818 509.71 165.818C510.066 165.818 510.383 165.847 510.659 165.903C510.936 165.96 511.14 166.011 511.273 166.057L510.864 167.648C510.777 167.621 510.667 167.595 510.534 167.568C510.402 167.538 510.254 167.523 510.091 167.523C509.708 167.523 509.438 167.616 509.278 167.801C509.123 167.983 509.045 168.244 509.045 168.585V178H506.983ZM512.463 178V169.273H514.52V178H512.463ZM513.497 168.034C513.171 168.034 512.891 167.926 512.656 167.71C512.421 167.491 512.304 167.227 512.304 166.92C512.304 166.61 512.421 166.347 512.656 166.131C512.891 165.911 513.171 165.801 513.497 165.801C513.827 165.801 514.107 165.911 514.338 166.131C514.573 166.347 514.69 166.61 514.69 166.92C514.69 167.227 514.573 167.491 514.338 167.71C514.107 167.926 513.827 168.034 513.497 168.034ZM522.459 181.273V176.625H522.374C522.268 176.837 522.114 177.062 521.913 177.301C521.713 177.536 521.447 177.737 521.118 177.903C520.788 178.07 520.374 178.153 519.874 178.153C519.188 178.153 518.574 177.977 518.033 177.625C517.491 177.273 517.063 176.761 516.749 176.091C516.434 175.42 516.277 174.606 516.277 173.648C516.277 172.678 516.436 171.86 516.754 171.193C517.076 170.523 517.51 170.017 518.055 169.676C518.601 169.331 519.209 169.159 519.879 169.159C520.391 169.159 520.811 169.246 521.141 169.42C521.47 169.591 521.732 169.797 521.925 170.04C522.118 170.278 522.268 170.504 522.374 170.716H522.499V169.273H524.521V181.273H522.459ZM520.447 176.466C520.883 176.466 521.254 176.348 521.561 176.114C521.868 175.875 522.101 175.544 522.26 175.119C522.419 174.695 522.499 174.201 522.499 173.636C522.499 173.072 522.419 172.581 522.26 172.165C522.105 171.748 521.874 171.424 521.567 171.193C521.264 170.962 520.891 170.847 520.447 170.847C519.989 170.847 519.607 170.966 519.3 171.205C518.993 171.443 518.762 171.773 518.607 172.193C518.451 172.614 518.374 173.095 518.374 173.636C518.374 174.182 518.451 174.669 518.607 175.097C518.766 175.521 518.999 175.856 519.305 176.102C519.616 176.345 519.997 176.466 520.447 176.466ZM532.197 174.33V169.273H534.254V178H532.26V176.449H532.169C531.972 176.937 531.648 177.337 531.197 177.648C530.75 177.958 530.199 178.114 529.544 178.114C528.972 178.114 528.466 177.987 528.027 177.733C527.591 177.475 527.25 177.102 527.004 176.614C526.758 176.121 526.635 175.527 526.635 174.83V169.273H528.692V174.511C528.692 175.064 528.843 175.504 529.146 175.83C529.449 176.155 529.847 176.318 530.339 176.318C530.643 176.318 530.936 176.244 531.22 176.097C531.504 175.949 531.737 175.729 531.919 175.438C532.105 175.142 532.197 174.773 532.197 174.33ZM540.233 178.17C539.358 178.17 538.602 177.989 537.966 177.625C537.333 177.258 536.847 176.739 536.506 176.068C536.165 175.394 535.994 174.6 535.994 173.688C535.994 172.79 536.165 172.002 536.506 171.324C536.85 170.642 537.331 170.112 537.949 169.733C538.566 169.35 539.292 169.159 540.125 169.159C540.663 169.159 541.17 169.246 541.648 169.42C542.129 169.591 542.553 169.856 542.92 170.216C543.292 170.576 543.583 171.034 543.795 171.591C544.008 172.144 544.114 172.803 544.114 173.568V174.199H536.96V172.812H542.142C542.138 172.419 542.053 172.068 541.886 171.761C541.72 171.451 541.487 171.206 541.188 171.028C540.892 170.85 540.547 170.761 540.153 170.761C539.733 170.761 539.364 170.864 539.045 171.068C538.727 171.269 538.479 171.534 538.301 171.864C538.127 172.189 538.038 172.547 538.034 172.938V174.148C538.034 174.655 538.127 175.091 538.312 175.455C538.498 175.814 538.758 176.091 539.091 176.284C539.424 176.473 539.814 176.568 540.261 176.568C540.561 176.568 540.831 176.527 541.074 176.443C541.316 176.356 541.527 176.229 541.705 176.062C541.883 175.896 542.017 175.689 542.108 175.443L544.028 175.659C543.907 176.167 543.676 176.61 543.335 176.989C542.998 177.364 542.566 177.655 542.04 177.864C541.513 178.068 540.911 178.17 540.233 178.17ZM553.857 178H549.913V166.364H553.936C555.091 166.364 556.084 166.597 556.913 167.062C557.747 167.525 558.387 168.189 558.834 169.057C559.281 169.924 559.504 170.962 559.504 172.17C559.504 173.383 559.279 174.424 558.828 175.295C558.381 176.167 557.735 176.835 556.891 177.301C556.05 177.767 555.038 178 553.857 178ZM552.021 176.176H553.754C554.565 176.176 555.241 176.028 555.783 175.733C556.324 175.434 556.732 174.989 557.004 174.398C557.277 173.803 557.413 173.061 557.413 172.17C557.413 171.28 557.277 170.542 557.004 169.955C556.732 169.364 556.328 168.922 555.794 168.631C555.264 168.335 554.605 168.188 553.817 168.188H552.021V176.176ZM563.928 178.176C563.375 178.176 562.876 178.078 562.433 177.881C561.994 177.68 561.645 177.384 561.388 176.994C561.134 176.604 561.007 176.123 561.007 175.551C561.007 175.059 561.098 174.652 561.28 174.33C561.462 174.008 561.71 173.75 562.024 173.557C562.339 173.364 562.693 173.218 563.087 173.119C563.484 173.017 563.895 172.943 564.32 172.898C564.831 172.845 565.246 172.797 565.564 172.756C565.882 172.71 566.113 172.642 566.257 172.551C566.405 172.456 566.479 172.311 566.479 172.114V172.08C566.479 171.652 566.352 171.32 566.098 171.085C565.844 170.85 565.479 170.733 565.001 170.733C564.498 170.733 564.098 170.843 563.803 171.062C563.511 171.282 563.314 171.542 563.212 171.841L561.291 171.568C561.443 171.038 561.693 170.595 562.041 170.239C562.39 169.879 562.816 169.61 563.32 169.432C563.823 169.25 564.38 169.159 564.99 169.159C565.411 169.159 565.829 169.208 566.246 169.307C566.662 169.405 567.043 169.568 567.388 169.795C567.732 170.019 568.009 170.324 568.217 170.71C568.429 171.097 568.536 171.58 568.536 172.159V178H566.558V176.801H566.49C566.365 177.044 566.189 177.271 565.962 177.483C565.738 177.691 565.456 177.86 565.115 177.989C564.778 178.114 564.382 178.176 563.928 178.176ZM564.462 176.665C564.875 176.665 565.232 176.583 565.536 176.42C565.839 176.254 566.071 176.034 566.234 175.761C566.401 175.489 566.484 175.191 566.484 174.869V173.841C566.42 173.894 566.31 173.943 566.155 173.989C566.003 174.034 565.833 174.074 565.643 174.108C565.454 174.142 565.267 174.172 565.081 174.199C564.895 174.225 564.734 174.248 564.598 174.267C564.291 174.309 564.017 174.377 563.774 174.472C563.532 174.566 563.34 174.699 563.2 174.869C563.06 175.036 562.99 175.252 562.99 175.517C562.99 175.896 563.128 176.182 563.405 176.375C563.681 176.568 564.034 176.665 564.462 176.665ZM574.962 169.273V170.864H569.945V169.273H574.962ZM571.183 167.182H573.24V175.375C573.24 175.652 573.282 175.864 573.365 176.011C573.452 176.155 573.566 176.254 573.706 176.307C573.846 176.36 574.001 176.386 574.172 176.386C574.301 176.386 574.418 176.377 574.524 176.358C574.634 176.339 574.717 176.322 574.774 176.307L575.121 177.915C575.011 177.953 574.854 177.994 574.649 178.04C574.448 178.085 574.202 178.112 573.911 178.119C573.395 178.134 572.931 178.057 572.518 177.886C572.106 177.712 571.778 177.443 571.536 177.08C571.297 176.716 571.179 176.261 571.183 175.716V167.182ZM580.395 178.17C579.543 178.17 578.804 177.983 578.179 177.608C577.554 177.233 577.069 176.708 576.724 176.034C576.384 175.36 576.213 174.572 576.213 173.67C576.213 172.769 576.384 171.979 576.724 171.301C577.069 170.623 577.554 170.097 578.179 169.722C578.804 169.347 579.543 169.159 580.395 169.159C581.247 169.159 581.986 169.347 582.611 169.722C583.236 170.097 583.719 170.623 584.06 171.301C584.404 171.979 584.577 172.769 584.577 173.67C584.577 174.572 584.404 175.36 584.06 176.034C583.719 176.708 583.236 177.233 582.611 177.608C581.986 177.983 581.247 178.17 580.395 178.17ZM580.406 176.523C580.868 176.523 581.255 176.396 581.565 176.142C581.876 175.884 582.107 175.54 582.259 175.108C582.414 174.676 582.491 174.195 582.491 173.665C582.491 173.131 582.414 172.648 582.259 172.216C582.107 171.78 581.876 171.434 581.565 171.176C581.255 170.919 580.868 170.79 580.406 170.79C579.933 170.79 579.539 170.919 579.224 171.176C578.914 171.434 578.681 171.78 578.526 172.216C578.374 172.648 578.298 173.131 578.298 173.665C578.298 174.195 578.374 174.676 578.526 175.108C578.681 175.54 578.914 175.884 579.224 176.142C579.539 176.396 579.933 176.523 580.406 176.523ZM593.22 171.58L591.345 171.784C591.292 171.595 591.199 171.417 591.067 171.25C590.938 171.083 590.764 170.949 590.544 170.847C590.324 170.744 590.055 170.693 589.737 170.693C589.309 170.693 588.949 170.786 588.658 170.972C588.37 171.157 588.228 171.398 588.232 171.693C588.228 171.947 588.321 172.153 588.51 172.312C588.703 172.472 589.021 172.602 589.464 172.705L590.953 173.023C591.779 173.201 592.393 173.483 592.794 173.869C593.199 174.256 593.404 174.761 593.408 175.386C593.404 175.936 593.243 176.42 592.925 176.841C592.61 177.258 592.173 177.583 591.612 177.818C591.052 178.053 590.408 178.17 589.68 178.17C588.612 178.17 587.752 177.947 587.101 177.5C586.449 177.049 586.061 176.422 585.936 175.619L587.942 175.426C588.033 175.82 588.226 176.117 588.521 176.318C588.817 176.519 589.201 176.619 589.675 176.619C590.163 176.619 590.555 176.519 590.851 176.318C591.15 176.117 591.3 175.869 591.3 175.574C591.3 175.324 591.203 175.117 591.01 174.955C590.821 174.792 590.525 174.667 590.124 174.58L588.635 174.267C587.798 174.093 587.179 173.799 586.777 173.386C586.375 172.97 586.177 172.443 586.18 171.807C586.177 171.269 586.322 170.803 586.618 170.409C586.917 170.011 587.332 169.705 587.862 169.489C588.396 169.269 589.012 169.159 589.709 169.159C590.732 169.159 591.536 169.377 592.124 169.812C592.714 170.248 593.08 170.837 593.22 171.58ZM602.879 178.17C602.027 178.17 601.288 177.983 600.663 177.608C600.038 177.233 599.554 176.708 599.209 176.034C598.868 175.36 598.697 174.572 598.697 173.67C598.697 172.769 598.868 171.979 599.209 171.301C599.554 170.623 600.038 170.097 600.663 169.722C601.288 169.347 602.027 169.159 602.879 169.159C603.732 169.159 604.47 169.347 605.095 169.722C605.72 170.097 606.203 170.623 606.544 171.301C606.889 171.979 607.061 172.769 607.061 173.67C607.061 174.572 606.889 175.36 606.544 176.034C606.203 176.708 605.72 177.233 605.095 177.608C604.47 177.983 603.732 178.17 602.879 178.17ZM602.891 176.523C603.353 176.523 603.739 176.396 604.05 176.142C604.36 175.884 604.591 175.54 604.743 175.108C604.898 174.676 604.976 174.195 604.976 173.665C604.976 173.131 604.898 172.648 604.743 172.216C604.591 171.78 604.36 171.434 604.05 171.176C603.739 170.919 603.353 170.79 602.891 170.79C602.417 170.79 602.023 170.919 601.709 171.176C601.398 171.434 601.165 171.78 601.01 172.216C600.858 172.648 600.783 173.131 600.783 173.665C600.783 174.195 600.858 174.676 601.01 175.108C601.165 175.54 601.398 175.884 601.709 176.142C602.023 176.396 602.417 176.523 602.891 176.523ZM612.776 178V169.273H614.832V178H612.776ZM613.81 168.034C613.484 168.034 613.204 167.926 612.969 167.71C612.734 167.491 612.616 167.227 612.616 166.92C612.616 166.61 612.734 166.347 612.969 166.131C613.204 165.911 613.484 165.801 613.81 165.801C614.139 165.801 614.42 165.911 614.651 166.131C614.885 166.347 615.003 166.61 615.003 166.92C615.003 167.227 614.885 167.491 614.651 167.71C614.42 167.926 614.139 168.034 613.81 168.034ZM619.004 172.886V178H616.947V169.273H618.913V170.756H619.016C619.216 170.267 619.536 169.879 619.976 169.591C620.419 169.303 620.966 169.159 621.618 169.159C622.22 169.159 622.745 169.288 623.192 169.545C623.643 169.803 623.991 170.176 624.237 170.665C624.487 171.153 624.61 171.746 624.607 172.443V178H622.55V172.761C622.55 172.178 622.398 171.722 622.095 171.392C621.796 171.062 621.381 170.898 620.851 170.898C620.491 170.898 620.171 170.977 619.891 171.136C619.614 171.292 619.396 171.517 619.237 171.812C619.082 172.108 619.004 172.466 619.004 172.886ZM631.055 169.273V170.864H626.038V169.273H631.055ZM627.277 167.182H629.334V175.375C629.334 175.652 629.375 175.864 629.459 176.011C629.546 176.155 629.66 176.254 629.8 176.307C629.94 176.36 630.095 176.386 630.266 176.386C630.394 176.386 630.512 176.377 630.618 176.358C630.728 176.339 630.811 176.322 630.868 176.307L631.214 177.915C631.105 177.953 630.947 177.994 630.743 178.04C630.542 178.085 630.296 178.112 630.004 178.119C629.489 178.134 629.025 178.057 628.612 177.886C628.199 177.712 627.872 177.443 627.629 177.08C627.391 176.716 627.273 176.261 627.277 175.716V167.182ZM636.545 178.17C635.67 178.17 634.915 177.989 634.278 177.625C633.646 177.258 633.159 176.739 632.818 176.068C632.477 175.394 632.307 174.6 632.307 173.688C632.307 172.79 632.477 172.002 632.818 171.324C633.163 170.642 633.644 170.112 634.261 169.733C634.879 169.35 635.604 169.159 636.438 169.159C636.975 169.159 637.483 169.246 637.96 169.42C638.441 169.591 638.866 169.856 639.233 170.216C639.604 170.576 639.896 171.034 640.108 171.591C640.32 172.144 640.426 172.803 640.426 173.568V174.199H633.273V172.812H638.455C638.451 172.419 638.366 172.068 638.199 171.761C638.032 171.451 637.799 171.206 637.5 171.028C637.205 170.85 636.86 170.761 636.466 170.761C636.045 170.761 635.676 170.864 635.358 171.068C635.04 171.269 634.792 171.534 634.614 171.864C634.439 172.189 634.35 172.547 634.347 172.938V174.148C634.347 174.655 634.439 175.091 634.625 175.455C634.811 175.814 635.07 176.091 635.403 176.284C635.737 176.473 636.127 176.568 636.574 176.568C636.873 176.568 637.144 176.527 637.386 176.443C637.629 176.356 637.839 176.229 638.017 176.062C638.195 175.896 638.33 175.689 638.42 175.443L640.341 175.659C640.22 176.167 639.989 176.61 639.648 176.989C639.311 177.364 638.879 177.655 638.352 177.864C637.826 178.068 637.223 178.17 636.545 178.17ZM644.223 172.886V178H642.166V169.273H644.132V170.756H644.234C644.435 170.267 644.755 169.879 645.195 169.591C645.638 169.303 646.185 169.159 646.837 169.159C647.439 169.159 647.964 169.288 648.411 169.545C648.861 169.803 649.21 170.176 649.456 170.665C649.706 171.153 649.829 171.746 649.825 172.443V178H647.768V172.761C647.768 172.178 647.617 171.722 647.314 171.392C647.015 171.062 646.6 170.898 646.07 170.898C645.71 170.898 645.39 170.977 645.109 171.136C644.833 171.292 644.615 171.517 644.456 171.812C644.301 172.108 644.223 172.466 644.223 172.886ZM656.274 169.273V170.864H651.257V169.273H656.274ZM652.496 167.182H654.553V175.375C654.553 175.652 654.594 175.864 654.678 176.011C654.765 176.155 654.878 176.254 655.018 176.307C655.159 176.36 655.314 176.386 655.484 176.386C655.613 176.386 655.731 176.377 655.837 176.358C655.946 176.339 656.03 176.322 656.087 176.307L656.433 177.915C656.323 177.953 656.166 177.994 655.962 178.04C655.761 178.085 655.515 178.112 655.223 178.119C654.708 178.134 654.244 178.057 653.831 177.886C653.418 177.712 653.09 177.443 652.848 177.08C652.609 176.716 652.492 176.261 652.496 175.716V167.182ZM661.764 178.17C660.889 178.17 660.134 177.989 659.497 177.625C658.865 177.258 658.378 176.739 658.037 176.068C657.696 175.394 657.526 174.6 657.526 173.688C657.526 172.79 657.696 172.002 658.037 171.324C658.382 170.642 658.863 170.112 659.48 169.733C660.098 169.35 660.823 169.159 661.656 169.159C662.194 169.159 662.702 169.246 663.179 169.42C663.66 169.591 664.084 169.856 664.452 170.216C664.823 170.576 665.115 171.034 665.327 171.591C665.539 172.144 665.645 172.803 665.645 173.568V174.199H658.491V172.812H663.673C663.67 172.419 663.584 172.068 663.418 171.761C663.251 171.451 663.018 171.206 662.719 171.028C662.423 170.85 662.079 170.761 661.685 170.761C661.264 170.761 660.895 170.864 660.577 171.068C660.259 171.269 660.01 171.534 659.832 171.864C659.658 172.189 659.569 172.547 659.565 172.938V174.148C659.565 174.655 659.658 175.091 659.844 175.455C660.029 175.814 660.289 176.091 660.622 176.284C660.955 176.473 661.346 176.568 661.793 176.568C662.092 176.568 662.363 176.527 662.605 176.443C662.848 176.356 663.058 176.229 663.236 176.062C663.414 175.896 663.548 175.689 663.639 175.443L665.56 175.659C665.438 176.167 665.207 176.61 664.866 176.989C664.529 177.364 664.098 177.655 663.571 177.864C663.045 178.068 662.442 178.17 661.764 178.17ZM675.161 178.17C674.289 178.17 673.541 177.979 672.916 177.597C672.295 177.214 671.816 176.686 671.479 176.011C671.145 175.333 670.979 174.553 670.979 173.67C670.979 172.784 671.149 172.002 671.49 171.324C671.831 170.642 672.312 170.112 672.933 169.733C673.558 169.35 674.297 169.159 675.149 169.159C675.857 169.159 676.484 169.29 677.03 169.551C677.579 169.809 678.017 170.174 678.342 170.648C678.668 171.117 678.854 171.667 678.899 172.295H676.933C676.854 171.875 676.664 171.525 676.365 171.244C676.07 170.96 675.674 170.818 675.178 170.818C674.757 170.818 674.388 170.932 674.07 171.159C673.751 171.383 673.503 171.705 673.325 172.125C673.151 172.545 673.064 173.049 673.064 173.636C673.064 174.231 673.151 174.742 673.325 175.17C673.5 175.595 673.744 175.922 674.058 176.153C674.376 176.381 674.75 176.494 675.178 176.494C675.481 176.494 675.751 176.437 675.99 176.324C676.232 176.206 676.435 176.038 676.598 175.818C676.761 175.598 676.873 175.331 676.933 175.017H678.899C678.85 175.634 678.668 176.182 678.354 176.659C678.039 177.133 677.611 177.504 677.07 177.773C676.528 178.038 675.892 178.17 675.161 178.17ZM684.395 178.17C683.543 178.17 682.804 177.983 682.179 177.608C681.554 177.233 681.069 176.708 680.724 176.034C680.384 175.36 680.213 174.572 680.213 173.67C680.213 172.769 680.384 171.979 680.724 171.301C681.069 170.623 681.554 170.097 682.179 169.722C682.804 169.347 683.543 169.159 684.395 169.159C685.247 169.159 685.986 169.347 686.611 169.722C687.236 170.097 687.719 170.623 688.06 171.301C688.404 171.979 688.577 172.769 688.577 173.67C688.577 174.572 688.404 175.36 688.06 176.034C687.719 176.708 687.236 177.233 686.611 177.608C685.986 177.983 685.247 178.17 684.395 178.17ZM684.406 176.523C684.868 176.523 685.255 176.396 685.565 176.142C685.876 175.884 686.107 175.54 686.259 175.108C686.414 174.676 686.491 174.195 686.491 173.665C686.491 173.131 686.414 172.648 686.259 172.216C686.107 171.78 685.876 171.434 685.565 171.176C685.255 170.919 684.868 170.79 684.406 170.79C683.933 170.79 683.539 170.919 683.224 171.176C682.914 171.434 682.681 171.78 682.526 172.216C682.374 172.648 682.298 173.131 682.298 173.665C682.298 174.195 682.374 174.676 682.526 175.108C682.681 175.54 682.914 175.884 683.224 176.142C683.539 176.396 683.933 176.523 684.406 176.523ZM692.379 172.886V178H690.322V169.273H692.288V170.756H692.391C692.591 170.267 692.911 169.879 693.351 169.591C693.794 169.303 694.341 169.159 694.993 169.159C695.595 169.159 696.12 169.288 696.567 169.545C697.018 169.803 697.366 170.176 697.612 170.665C697.862 171.153 697.985 171.746 697.982 172.443V178H695.925V172.761C695.925 172.178 695.773 171.722 695.47 171.392C695.171 171.062 694.756 170.898 694.226 170.898C693.866 170.898 693.546 170.977 693.266 171.136C692.989 171.292 692.771 171.517 692.612 171.812C692.457 172.108 692.379 172.466 692.379 172.886ZM707.848 178.17C706.996 178.17 706.257 177.983 705.632 177.608C705.007 177.233 704.522 176.708 704.178 176.034C703.837 175.36 703.666 174.572 703.666 173.67C703.666 172.769 703.837 171.979 704.178 171.301C704.522 170.623 705.007 170.097 705.632 169.722C706.257 169.347 706.996 169.159 707.848 169.159C708.7 169.159 709.439 169.347 710.064 169.722C710.689 170.097 711.172 170.623 711.513 171.301C711.857 171.979 712.03 172.769 712.03 173.67C712.03 174.572 711.857 175.36 711.513 176.034C711.172 176.708 710.689 177.233 710.064 177.608C709.439 177.983 708.7 178.17 707.848 178.17ZM707.859 176.523C708.321 176.523 708.708 176.396 709.018 176.142C709.329 175.884 709.56 175.54 709.712 175.108C709.867 174.676 709.945 174.195 709.945 173.665C709.945 173.131 709.867 172.648 709.712 172.216C709.56 171.78 709.329 171.434 709.018 171.176C708.708 170.919 708.321 170.79 707.859 170.79C707.386 170.79 706.992 170.919 706.678 171.176C706.367 171.434 706.134 171.78 705.979 172.216C705.827 172.648 705.751 173.131 705.751 173.665C705.751 174.195 705.827 174.676 705.979 175.108C706.134 175.54 706.367 175.884 706.678 176.142C706.992 176.396 707.386 176.523 707.859 176.523ZM718.134 169.273V170.864H713.116V169.273H718.134ZM714.355 167.182H716.412V175.375C716.412 175.652 716.454 175.864 716.537 176.011C716.624 176.155 716.738 176.254 716.878 176.307C717.018 176.36 717.173 176.386 717.344 176.386C717.473 176.386 717.59 176.377 717.696 176.358C717.806 176.339 717.889 176.322 717.946 176.307L718.293 177.915C718.183 177.953 718.026 177.994 717.821 178.04C717.62 178.085 717.374 178.112 717.082 178.119C716.567 178.134 716.103 178.057 715.69 177.886C715.277 177.712 714.95 177.443 714.707 177.08C714.469 176.716 714.351 176.261 714.355 175.716V167.182ZM719.854 178V169.273H721.848V170.727H721.939C722.098 170.223 722.371 169.835 722.757 169.562C723.147 169.286 723.592 169.148 724.092 169.148C724.206 169.148 724.333 169.153 724.473 169.165C724.617 169.172 724.736 169.186 724.831 169.205V171.097C724.744 171.066 724.606 171.04 724.416 171.017C724.231 170.991 724.051 170.977 723.876 170.977C723.501 170.977 723.164 171.059 722.865 171.222C722.57 171.381 722.337 171.602 722.166 171.886C721.996 172.17 721.911 172.498 721.911 172.869V178H719.854ZM728.553 178.176C728 178.176 727.501 178.078 727.058 177.881C726.619 177.68 726.27 177.384 726.013 176.994C725.759 176.604 725.632 176.123 725.632 175.551C725.632 175.059 725.723 174.652 725.905 174.33C726.087 174.008 726.335 173.75 726.649 173.557C726.964 173.364 727.318 173.218 727.712 173.119C728.109 173.017 728.52 172.943 728.945 172.898C729.456 172.845 729.871 172.797 730.189 172.756C730.507 172.71 730.738 172.642 730.882 172.551C731.03 172.456 731.104 172.311 731.104 172.114V172.08C731.104 171.652 730.977 171.32 730.723 171.085C730.469 170.85 730.104 170.733 729.626 170.733C729.123 170.733 728.723 170.843 728.428 171.062C728.136 171.282 727.939 171.542 727.837 171.841L725.916 171.568C726.068 171.038 726.318 170.595 726.666 170.239C727.015 169.879 727.441 169.61 727.945 169.432C728.448 169.25 729.005 169.159 729.615 169.159C730.036 169.159 730.454 169.208 730.871 169.307C731.287 169.405 731.668 169.568 732.013 169.795C732.357 170.019 732.634 170.324 732.842 170.71C733.054 171.097 733.161 171.58 733.161 172.159V178H731.183V176.801H731.115C730.99 177.044 730.814 177.271 730.587 177.483C730.363 177.691 730.081 177.86 729.74 177.989C729.403 178.114 729.007 178.176 728.553 178.176ZM729.087 176.665C729.5 176.665 729.857 176.583 730.161 176.42C730.464 176.254 730.696 176.034 730.859 175.761C731.026 175.489 731.109 175.191 731.109 174.869V173.841C731.045 173.894 730.935 173.943 730.78 173.989C730.628 174.034 730.458 174.074 730.268 174.108C730.079 174.142 729.892 174.172 729.706 174.199C729.52 174.225 729.359 174.248 729.223 174.267C728.916 174.309 728.642 174.377 728.399 174.472C728.157 174.566 727.965 174.699 727.825 174.869C727.685 175.036 727.615 175.252 727.615 175.517C727.615 175.896 727.753 176.182 728.03 176.375C728.306 176.568 728.659 176.665 729.087 176.665ZM743.555 169.273V170.864H738.538V169.273H743.555ZM739.777 167.182H741.834V175.375C741.834 175.652 741.875 175.864 741.959 176.011C742.046 176.155 742.16 176.254 742.3 176.307C742.44 176.36 742.595 176.386 742.766 176.386C742.894 176.386 743.012 176.377 743.118 176.358C743.228 176.339 743.311 176.322 743.368 176.307L743.714 177.915C743.605 177.953 743.447 177.994 743.243 178.04C743.042 178.085 742.796 178.112 742.504 178.119C741.989 178.134 741.525 178.057 741.112 177.886C740.699 177.712 740.372 177.443 740.129 177.08C739.891 176.716 739.773 176.261 739.777 175.716V167.182ZM747.787 178.176C747.234 178.176 746.736 178.078 746.293 177.881C745.853 177.68 745.505 177.384 745.247 176.994C744.993 176.604 744.866 176.123 744.866 175.551C744.866 175.059 744.957 174.652 745.139 174.33C745.321 174.008 745.569 173.75 745.884 173.557C746.198 173.364 746.552 173.218 746.946 173.119C747.344 173.017 747.755 172.943 748.179 172.898C748.69 172.845 749.105 172.797 749.423 172.756C749.741 172.71 749.973 172.642 750.116 172.551C750.264 172.456 750.338 172.311 750.338 172.114V172.08C750.338 171.652 750.211 171.32 749.957 171.085C749.704 170.85 749.338 170.733 748.861 170.733C748.357 170.733 747.957 170.843 747.662 171.062C747.37 171.282 747.173 171.542 747.071 171.841L745.151 171.568C745.302 171.038 745.552 170.595 745.901 170.239C746.249 169.879 746.675 169.61 747.179 169.432C747.683 169.25 748.24 169.159 748.849 169.159C749.27 169.159 749.688 169.208 750.105 169.307C750.522 169.405 750.902 169.568 751.247 169.795C751.592 170.019 751.868 170.324 752.077 170.71C752.289 171.097 752.395 171.58 752.395 172.159V178H750.418V176.801H750.349C750.224 177.044 750.048 177.271 749.821 177.483C749.598 177.691 749.315 177.86 748.974 177.989C748.637 178.114 748.241 178.176 747.787 178.176ZM748.321 176.665C748.734 176.665 749.092 176.583 749.395 176.42C749.698 176.254 749.931 176.034 750.094 175.761C750.26 175.489 750.344 175.191 750.344 174.869V173.841C750.279 173.894 750.17 173.943 750.014 173.989C749.863 174.034 749.692 174.074 749.503 174.108C749.313 174.142 749.126 174.172 748.94 174.199C748.755 174.225 748.594 174.248 748.457 174.267C748.151 174.309 747.876 174.377 747.634 174.472C747.391 174.566 747.2 174.699 747.06 174.869C746.92 175.036 746.849 175.252 746.849 175.517C746.849 175.896 746.988 176.182 747.264 176.375C747.541 176.568 747.893 176.665 748.321 176.665ZM754.463 178V169.273H756.457V170.727H756.548C756.707 170.223 756.98 169.835 757.366 169.562C757.757 169.286 758.202 169.148 758.702 169.148C758.815 169.148 758.942 169.153 759.082 169.165C759.226 169.172 759.346 169.186 759.44 169.205V171.097C759.353 171.066 759.215 171.04 759.026 171.017C758.84 170.991 758.66 170.977 758.486 170.977C758.111 170.977 757.774 171.059 757.474 171.222C757.179 171.381 756.946 171.602 756.776 171.886C756.605 172.17 756.52 172.498 756.52 172.869V178H754.463ZM760.807 169.273H762.864V178.5C762.864 179.129 762.744 179.648 762.506 180.057C762.267 180.466 761.922 180.771 761.472 180.972C761.021 181.172 760.473 181.273 759.83 181.273C759.754 181.273 759.684 181.271 759.619 181.267C759.555 181.267 759.485 181.265 759.409 181.261V179.585C759.466 179.589 759.517 179.591 759.562 179.591C759.608 179.595 759.655 179.597 759.705 179.597C760.098 179.597 760.381 179.5 760.551 179.307C760.722 179.117 760.807 178.839 760.807 178.472V169.273ZM761.83 168.034C761.5 168.034 761.218 167.926 760.983 167.71C760.752 167.491 760.636 167.227 760.636 166.92C760.636 166.61 760.752 166.347 760.983 166.131C761.218 165.911 761.5 165.801 761.83 165.801C762.155 165.801 762.434 165.911 762.665 166.131C762.9 166.347 763.017 166.61 763.017 166.92C763.017 167.227 762.9 167.491 762.665 167.71C762.434 167.926 762.155 168.034 761.83 168.034ZM768.842 178.17C767.967 178.17 767.212 177.989 766.575 177.625C765.943 177.258 765.456 176.739 765.115 176.068C764.774 175.394 764.604 174.6 764.604 173.688C764.604 172.79 764.774 172.002 765.115 171.324C765.46 170.642 765.941 170.112 766.558 169.733C767.176 169.35 767.901 169.159 768.734 169.159C769.272 169.159 769.78 169.246 770.257 169.42C770.738 169.591 771.162 169.856 771.53 170.216C771.901 170.576 772.193 171.034 772.405 171.591C772.617 172.144 772.723 172.803 772.723 173.568V174.199H765.57V172.812H770.751C770.748 172.419 770.662 172.068 770.496 171.761C770.329 171.451 770.096 171.206 769.797 171.028C769.501 170.85 769.157 170.761 768.763 170.761C768.342 170.761 767.973 170.864 767.655 171.068C767.337 171.269 767.089 171.534 766.911 171.864C766.736 172.189 766.647 172.547 766.643 172.938V174.148C766.643 174.655 766.736 175.091 766.922 175.455C767.107 175.814 767.367 176.091 767.7 176.284C768.034 176.473 768.424 176.568 768.871 176.568C769.17 176.568 769.441 176.527 769.683 176.443C769.926 176.356 770.136 176.229 770.314 176.062C770.492 175.896 770.626 175.689 770.717 175.443L772.638 175.659C772.517 176.167 772.286 176.61 771.945 176.989C771.607 177.364 771.176 177.655 770.649 177.864C770.123 178.068 769.52 178.17 768.842 178.17ZM778.821 169.273V170.864H773.804V169.273H778.821ZM775.043 167.182H777.099V175.375C777.099 175.652 777.141 175.864 777.224 176.011C777.312 176.155 777.425 176.254 777.565 176.307C777.705 176.36 777.861 176.386 778.031 176.386C778.16 176.386 778.277 176.377 778.384 176.358C778.493 176.339 778.577 176.322 778.634 176.307L778.98 177.915C778.87 177.953 778.713 177.994 778.509 178.04C778.308 178.085 778.062 178.112 777.77 178.119C777.255 178.134 776.791 178.057 776.378 177.886C775.965 177.712 775.637 177.443 775.395 177.08C775.156 176.716 775.039 176.261 775.043 175.716V167.182ZM783.053 178.176C782.5 178.176 782.001 178.078 781.558 177.881C781.119 177.68 780.77 177.384 780.513 176.994C780.259 176.604 780.132 176.123 780.132 175.551C780.132 175.059 780.223 174.652 780.405 174.33C780.587 174.008 780.835 173.75 781.149 173.557C781.464 173.364 781.818 173.218 782.212 173.119C782.609 173.017 783.02 172.943 783.445 172.898C783.956 172.845 784.371 172.797 784.689 172.756C785.007 172.71 785.238 172.642 785.382 172.551C785.53 172.456 785.604 172.311 785.604 172.114V172.08C785.604 171.652 785.477 171.32 785.223 171.085C784.969 170.85 784.604 170.733 784.126 170.733C783.623 170.733 783.223 170.843 782.928 171.062C782.636 171.282 782.439 171.542 782.337 171.841L780.416 171.568C780.568 171.038 780.818 170.595 781.166 170.239C781.515 169.879 781.941 169.61 782.445 169.432C782.948 169.25 783.505 169.159 784.115 169.159C784.536 169.159 784.954 169.208 785.371 169.307C785.787 169.405 786.168 169.568 786.513 169.795C786.857 170.019 787.134 170.324 787.342 170.71C787.554 171.097 787.661 171.58 787.661 172.159V178H785.683V176.801H785.615C785.49 177.044 785.314 177.271 785.087 177.483C784.863 177.691 784.581 177.86 784.24 177.989C783.903 178.114 783.507 178.176 783.053 178.176ZM783.587 176.665C784 176.665 784.357 176.583 784.661 176.42C784.964 176.254 785.196 176.034 785.359 175.761C785.526 175.489 785.609 175.191 785.609 174.869V173.841C785.545 173.894 785.435 173.943 785.28 173.989C785.128 174.034 784.958 174.074 784.768 174.108C784.579 174.142 784.392 174.172 784.206 174.199C784.02 174.225 783.859 174.248 783.723 174.267C783.416 174.309 783.142 174.377 782.899 174.472C782.657 174.566 782.465 174.699 782.325 174.869C782.185 175.036 782.115 175.252 782.115 175.517C782.115 175.896 782.253 176.182 782.53 176.375C782.806 176.568 783.159 176.665 783.587 176.665Z" fill="#4B4B4B"/>
<rect x="602" y="363" width="90" height="40" rx="8" fill="#F39200"/>
<path d="M629.529 377.364V389H627.421V377.364H629.529ZM633.778 383.886V389H631.721V380.273H633.687V381.756H633.789C633.99 381.267 634.31 380.879 634.749 380.591C635.192 380.303 635.74 380.159 636.391 380.159C636.994 380.159 637.518 380.288 637.965 380.545C638.416 380.803 638.764 381.176 639.011 381.665C639.261 382.153 639.384 382.746 639.38 383.443V389H637.323V383.761C637.323 383.178 637.172 382.722 636.869 382.392C636.569 382.062 636.155 381.898 635.624 381.898C635.264 381.898 634.944 381.977 634.664 382.136C634.388 382.292 634.17 382.517 634.011 382.812C633.855 383.108 633.778 383.466 633.778 383.886ZM641.471 389V380.273H643.528V389H641.471ZM642.505 379.034C642.179 379.034 641.899 378.926 641.664 378.71C641.429 378.491 641.312 378.227 641.312 377.92C641.312 377.61 641.429 377.347 641.664 377.131C641.899 376.911 642.179 376.801 642.505 376.801C642.835 376.801 643.115 376.911 643.346 377.131C643.581 377.347 643.698 377.61 643.698 377.92C643.698 378.227 643.581 378.491 643.346 378.71C643.115 378.926 642.835 379.034 642.505 379.034ZM649.45 389.17C648.578 389.17 647.83 388.979 647.205 388.597C646.584 388.214 646.105 387.686 645.768 387.011C645.434 386.333 645.268 385.553 645.268 384.67C645.268 383.784 645.438 383.002 645.779 382.324C646.12 381.642 646.601 381.112 647.222 380.733C647.847 380.35 648.586 380.159 649.438 380.159C650.147 380.159 650.773 380.29 651.319 380.551C651.868 380.809 652.306 381.174 652.631 381.648C652.957 382.117 653.143 382.667 653.188 383.295H651.222C651.143 382.875 650.953 382.525 650.654 382.244C650.359 381.96 649.963 381.818 649.467 381.818C649.046 381.818 648.677 381.932 648.359 382.159C648.04 382.383 647.792 382.705 647.614 383.125C647.44 383.545 647.353 384.049 647.353 384.636C647.353 385.231 647.44 385.742 647.614 386.17C647.789 386.595 648.033 386.922 648.347 387.153C648.665 387.381 649.039 387.494 649.467 387.494C649.77 387.494 650.04 387.437 650.279 387.324C650.522 387.206 650.724 387.038 650.887 386.818C651.05 386.598 651.162 386.331 651.222 386.017H653.188C653.139 386.634 652.957 387.182 652.643 387.659C652.328 388.133 651.9 388.504 651.359 388.773C650.817 389.038 650.181 389.17 649.45 389.17ZM654.877 389V380.273H656.934V389H654.877ZM655.911 379.034C655.585 379.034 655.305 378.926 655.07 378.71C654.835 378.491 654.718 378.227 654.718 377.92C654.718 377.61 654.835 377.347 655.07 377.131C655.305 376.911 655.585 376.801 655.911 376.801C656.241 376.801 656.521 376.911 656.752 377.131C656.987 377.347 657.104 377.61 657.104 377.92C657.104 378.227 656.987 378.491 656.752 378.71C656.521 378.926 656.241 379.034 655.911 379.034ZM662.856 389.17C662.004 389.17 661.265 388.983 660.64 388.608C660.015 388.233 659.53 387.708 659.185 387.034C658.844 386.36 658.674 385.572 658.674 384.67C658.674 383.769 658.844 382.979 659.185 382.301C659.53 381.623 660.015 381.097 660.64 380.722C661.265 380.347 662.004 380.159 662.856 380.159C663.708 380.159 664.447 380.347 665.072 380.722C665.697 381.097 666.18 381.623 666.521 382.301C666.865 382.979 667.038 383.769 667.038 384.67C667.038 385.572 666.865 386.36 666.521 387.034C666.18 387.708 665.697 388.233 665.072 388.608C664.447 388.983 663.708 389.17 662.856 389.17ZM662.867 387.523C663.329 387.523 663.716 387.396 664.026 387.142C664.337 386.884 664.568 386.54 664.719 386.108C664.875 385.676 664.952 385.195 664.952 384.665C664.952 384.131 664.875 383.648 664.719 383.216C664.568 382.78 664.337 382.434 664.026 382.176C663.716 381.919 663.329 381.79 662.867 381.79C662.394 381.79 662 381.919 661.685 382.176C661.375 382.434 661.142 382.78 660.987 383.216C660.835 383.648 660.759 384.131 660.759 384.665C660.759 385.195 660.835 385.676 660.987 386.108C661.142 386.54 661.375 386.884 661.685 387.142C662 387.396 662.394 387.523 662.867 387.523Z" fill="white"/>
<rect x="398.5" y="363.5" width="173" height="39" rx="7.5" fill="#FFFDFB"/>
<rect x="398.5" y="363.5" width="173" height="39" rx="7.5" stroke="#BBBBBB"/>
<path d="M423.281 389V377.364H427.644C428.538 377.364 429.288 377.519 429.894 377.83C430.504 378.14 430.964 378.576 431.275 379.136C431.589 379.693 431.746 380.343 431.746 381.085C431.746 381.831 431.587 382.479 431.269 383.028C430.955 383.574 430.491 383.996 429.877 384.295C429.263 384.591 428.51 384.739 427.616 384.739H424.508V382.989H427.332C427.854 382.989 428.282 382.917 428.616 382.773C428.949 382.625 429.195 382.411 429.354 382.131C429.517 381.847 429.599 381.498 429.599 381.085C429.599 380.672 429.517 380.32 429.354 380.028C429.192 379.733 428.943 379.509 428.61 379.358C428.277 379.203 427.847 379.125 427.32 379.125H425.388V389H423.281ZM429.292 383.727L432.173 389H429.82L426.991 383.727H429.292ZM437.335 389.17C436.46 389.17 435.704 388.989 435.067 388.625C434.435 388.258 433.948 387.739 433.607 387.068C433.266 386.394 433.096 385.6 433.096 384.688C433.096 383.79 433.266 383.002 433.607 382.324C433.952 381.642 434.433 381.112 435.05 380.733C435.668 380.35 436.393 380.159 437.227 380.159C437.764 380.159 438.272 380.246 438.749 380.42C439.23 380.591 439.655 380.856 440.022 381.216C440.393 381.576 440.685 382.034 440.897 382.591C441.109 383.144 441.215 383.803 441.215 384.568V385.199H434.062V383.812H439.244C439.24 383.419 439.155 383.068 438.988 382.761C438.821 382.451 438.588 382.206 438.289 382.028C437.994 381.85 437.649 381.761 437.255 381.761C436.835 381.761 436.465 381.864 436.147 382.068C435.829 382.269 435.581 382.534 435.403 382.864C435.228 383.189 435.139 383.547 435.136 383.938V385.148C435.136 385.655 435.228 386.091 435.414 386.455C435.6 386.814 435.859 387.091 436.192 387.284C436.526 387.473 436.916 387.568 437.363 387.568C437.662 387.568 437.933 387.527 438.175 387.443C438.418 387.356 438.628 387.229 438.806 387.062C438.984 386.896 439.119 386.689 439.21 386.443L441.13 386.659C441.009 387.167 440.778 387.61 440.437 387.989C440.1 388.364 439.668 388.655 439.141 388.864C438.615 389.068 438.013 389.17 437.335 389.17ZM446.751 392.455C446.012 392.455 445.378 392.354 444.847 392.153C444.317 391.956 443.891 391.691 443.569 391.358C443.247 391.025 443.023 390.655 442.898 390.25L444.751 389.801C444.834 389.972 444.955 390.14 445.114 390.307C445.273 390.477 445.487 390.617 445.756 390.727C446.029 390.841 446.372 390.898 446.785 390.898C447.368 390.898 447.851 390.756 448.234 390.472C448.616 390.191 448.808 389.729 448.808 389.085V387.432H448.705C448.599 387.644 448.444 387.862 448.239 388.085C448.039 388.309 447.772 388.496 447.438 388.648C447.109 388.799 446.694 388.875 446.194 388.875C445.523 388.875 444.915 388.718 444.37 388.403C443.828 388.085 443.397 387.612 443.075 386.983C442.756 386.35 442.597 385.559 442.597 384.608C442.597 383.65 442.756 382.841 443.075 382.182C443.397 381.519 443.83 381.017 444.376 380.676C444.921 380.331 445.529 380.159 446.2 380.159C446.711 380.159 447.131 380.246 447.461 380.42C447.794 380.591 448.059 380.797 448.256 381.04C448.453 381.278 448.603 381.504 448.705 381.716H448.819V380.273H450.847V389.142C450.847 389.888 450.669 390.506 450.313 390.994C449.957 391.483 449.47 391.848 448.853 392.091C448.236 392.333 447.535 392.455 446.751 392.455ZM446.768 387.261C447.203 387.261 447.575 387.155 447.881 386.943C448.188 386.731 448.421 386.426 448.58 386.028C448.739 385.631 448.819 385.153 448.819 384.597C448.819 384.047 448.739 383.566 448.58 383.153C448.425 382.741 448.194 382.42 447.887 382.193C447.584 381.962 447.211 381.847 446.768 381.847C446.309 381.847 445.927 381.966 445.62 382.205C445.313 382.443 445.082 382.771 444.927 383.188C444.772 383.6 444.694 384.07 444.694 384.597C444.694 385.131 444.772 385.598 444.927 386C445.086 386.398 445.319 386.708 445.626 386.932C445.936 387.152 446.317 387.261 446.768 387.261ZM452.955 389V380.273H454.95V381.727H455.04C455.2 381.223 455.472 380.835 455.859 380.562C456.249 380.286 456.694 380.148 457.194 380.148C457.308 380.148 457.434 380.153 457.575 380.165C457.719 380.172 457.838 380.186 457.933 380.205V382.097C457.845 382.066 457.707 382.04 457.518 382.017C457.332 381.991 457.152 381.977 456.978 381.977C456.603 381.977 456.266 382.059 455.967 382.222C455.671 382.381 455.438 382.602 455.268 382.886C455.097 383.17 455.012 383.498 455.012 383.869V389H452.955ZM462.803 389.17C461.928 389.17 461.173 388.989 460.536 388.625C459.904 388.258 459.417 387.739 459.076 387.068C458.735 386.394 458.565 385.6 458.565 384.688C458.565 383.79 458.735 383.002 459.076 382.324C459.421 381.642 459.902 381.112 460.519 380.733C461.137 380.35 461.862 380.159 462.695 380.159C463.233 380.159 463.741 380.246 464.218 380.42C464.699 380.591 465.123 380.856 465.491 381.216C465.862 381.576 466.154 382.034 466.366 382.591C466.578 383.144 466.684 383.803 466.684 384.568V385.199H459.531V383.812H464.712C464.709 383.419 464.623 383.068 464.457 382.761C464.29 382.451 464.057 382.206 463.758 382.028C463.462 381.85 463.118 381.761 462.724 381.761C462.303 381.761 461.934 381.864 461.616 382.068C461.298 382.269 461.049 382.534 460.871 382.864C460.697 383.189 460.608 383.547 460.604 383.938V385.148C460.604 385.655 460.697 386.091 460.883 386.455C461.068 386.814 461.328 387.091 461.661 387.284C461.995 387.473 462.385 387.568 462.832 387.568C463.131 387.568 463.402 387.527 463.644 387.443C463.887 387.356 464.097 387.229 464.275 387.062C464.453 386.896 464.587 386.689 464.678 386.443L466.599 386.659C466.478 387.167 466.246 387.61 465.906 387.989C465.568 388.364 465.137 388.655 464.61 388.864C464.084 389.068 463.481 389.17 462.803 389.17ZM475.322 382.58L473.447 382.784C473.394 382.595 473.301 382.417 473.168 382.25C473.04 382.083 472.865 381.949 472.646 381.847C472.426 381.744 472.157 381.693 471.839 381.693C471.411 381.693 471.051 381.786 470.759 381.972C470.471 382.157 470.329 382.398 470.333 382.693C470.329 382.947 470.422 383.153 470.612 383.312C470.805 383.472 471.123 383.602 471.566 383.705L473.055 384.023C473.88 384.201 474.494 384.483 474.896 384.869C475.301 385.256 475.505 385.761 475.509 386.386C475.505 386.936 475.344 387.42 475.026 387.841C474.712 388.258 474.274 388.583 473.714 388.818C473.153 389.053 472.509 389.17 471.782 389.17C470.714 389.17 469.854 388.947 469.202 388.5C468.551 388.049 468.163 387.422 468.038 386.619L470.043 386.426C470.134 386.82 470.327 387.117 470.623 387.318C470.918 387.519 471.303 387.619 471.776 387.619C472.265 387.619 472.657 387.519 472.952 387.318C473.252 387.117 473.401 386.869 473.401 386.574C473.401 386.324 473.305 386.117 473.112 385.955C472.922 385.792 472.627 385.667 472.225 385.58L470.737 385.267C469.899 385.093 469.28 384.799 468.879 384.386C468.477 383.97 468.278 383.443 468.282 382.807C468.278 382.269 468.424 381.803 468.719 381.409C469.019 381.011 469.433 380.705 469.964 380.489C470.498 380.269 471.113 380.159 471.81 380.159C472.833 380.159 473.638 380.377 474.225 380.812C474.816 381.248 475.182 381.837 475.322 382.58ZM479.717 389.176C479.164 389.176 478.665 389.078 478.222 388.881C477.783 388.68 477.434 388.384 477.177 387.994C476.923 387.604 476.796 387.123 476.796 386.551C476.796 386.059 476.887 385.652 477.069 385.33C477.251 385.008 477.499 384.75 477.813 384.557C478.128 384.364 478.482 384.218 478.876 384.119C479.273 384.017 479.684 383.943 480.109 383.898C480.62 383.845 481.035 383.797 481.353 383.756C481.671 383.71 481.902 383.642 482.046 383.551C482.194 383.456 482.268 383.311 482.268 383.114V383.08C482.268 382.652 482.141 382.32 481.887 382.085C481.633 381.85 481.268 381.733 480.79 381.733C480.287 381.733 479.887 381.843 479.592 382.062C479.3 382.282 479.103 382.542 479.001 382.841L477.08 382.568C477.232 382.038 477.482 381.595 477.83 381.239C478.179 380.879 478.605 380.61 479.109 380.432C479.612 380.25 480.169 380.159 480.779 380.159C481.2 380.159 481.618 380.208 482.035 380.307C482.451 380.405 482.832 380.568 483.177 380.795C483.522 381.019 483.798 381.324 484.006 381.71C484.219 382.097 484.325 382.58 484.325 383.159V389H482.347V387.801H482.279C482.154 388.044 481.978 388.271 481.751 388.483C481.527 388.691 481.245 388.86 480.904 388.989C480.567 389.114 480.171 389.176 479.717 389.176ZM480.251 387.665C480.664 387.665 481.022 387.583 481.325 387.42C481.628 387.254 481.861 387.034 482.023 386.761C482.19 386.489 482.273 386.191 482.273 385.869V384.841C482.209 384.894 482.099 384.943 481.944 384.989C481.792 385.034 481.622 385.074 481.433 385.108C481.243 385.142 481.056 385.172 480.87 385.199C480.684 385.225 480.523 385.248 480.387 385.267C480.08 385.309 479.806 385.377 479.563 385.472C479.321 385.566 479.129 385.699 478.989 385.869C478.849 386.036 478.779 386.252 478.779 386.517C478.779 386.896 478.917 387.182 479.194 387.375C479.47 387.568 479.823 387.665 480.251 387.665ZM486.393 389V380.273H488.387V381.727H488.478C488.637 381.223 488.91 380.835 489.296 380.562C489.686 380.286 490.131 380.148 490.631 380.148C490.745 380.148 490.872 380.153 491.012 380.165C491.156 380.172 491.275 380.186 491.37 380.205V382.097C491.283 382.066 491.145 382.04 490.955 382.017C490.77 381.991 490.59 381.977 490.415 381.977C490.04 381.977 489.703 382.059 489.404 382.222C489.109 382.381 488.876 382.602 488.705 382.886C488.535 383.17 488.45 383.498 488.45 383.869V389H486.393ZM499.217 389.176C498.664 389.176 498.165 389.078 497.722 388.881C497.283 388.68 496.934 388.384 496.677 387.994C496.423 387.604 496.296 387.123 496.296 386.551C496.296 386.059 496.387 385.652 496.569 385.33C496.751 385.008 496.999 384.75 497.313 384.557C497.628 384.364 497.982 384.218 498.376 384.119C498.773 384.017 499.184 383.943 499.609 383.898C500.12 383.845 500.535 383.797 500.853 383.756C501.171 383.71 501.402 383.642 501.546 383.551C501.694 383.456 501.768 383.311 501.768 383.114V383.08C501.768 382.652 501.641 382.32 501.387 382.085C501.133 381.85 500.768 381.733 500.29 381.733C499.787 381.733 499.387 381.843 499.092 382.062C498.8 382.282 498.603 382.542 498.501 382.841L496.58 382.568C496.732 382.038 496.982 381.595 497.33 381.239C497.679 380.879 498.105 380.61 498.609 380.432C499.112 380.25 499.669 380.159 500.279 380.159C500.7 380.159 501.118 380.208 501.535 380.307C501.951 380.405 502.332 380.568 502.677 380.795C503.022 381.019 503.298 381.324 503.506 381.71C503.719 382.097 503.825 382.58 503.825 383.159V389H501.847V387.801H501.779C501.654 388.044 501.478 388.271 501.251 388.483C501.027 388.691 500.745 388.86 500.404 388.989C500.067 389.114 499.671 389.176 499.217 389.176ZM499.751 387.665C500.164 387.665 500.522 387.583 500.825 387.42C501.128 387.254 501.361 387.034 501.523 386.761C501.69 386.489 501.773 386.191 501.773 385.869V384.841C501.709 384.894 501.599 384.943 501.444 384.989C501.292 385.034 501.122 385.074 500.933 385.108C500.743 385.142 500.556 385.172 500.37 385.199C500.184 385.225 500.023 385.248 499.887 385.267C499.58 385.309 499.306 385.377 499.063 385.472C498.821 385.566 498.629 385.699 498.489 385.869C498.349 386.036 498.279 386.252 498.279 386.517C498.279 386.896 498.417 387.182 498.694 387.375C498.97 387.568 499.323 387.665 499.751 387.665ZM509.952 389V377.364H514.316C515.21 377.364 515.96 377.53 516.566 377.864C517.176 378.197 517.636 378.655 517.947 379.239C518.261 379.818 518.418 380.477 518.418 381.216C518.418 381.962 518.261 382.625 517.947 383.205C517.632 383.784 517.168 384.241 516.555 384.574C515.941 384.903 515.185 385.068 514.288 385.068H511.396V383.335H514.004C514.526 383.335 514.954 383.244 515.288 383.062C515.621 382.881 515.867 382.631 516.026 382.312C516.189 381.994 516.271 381.629 516.271 381.216C516.271 380.803 516.189 380.439 516.026 380.125C515.867 379.811 515.619 379.566 515.282 379.392C514.949 379.214 514.519 379.125 513.992 379.125H512.06V389H509.952ZM522.513 389.176C521.96 389.176 521.462 389.078 521.019 388.881C520.58 388.68 520.231 388.384 519.974 387.994C519.72 387.604 519.593 387.123 519.593 386.551C519.593 386.059 519.684 385.652 519.866 385.33C520.048 385.008 520.296 384.75 520.61 384.557C520.924 384.364 521.279 384.218 521.673 384.119C522.07 384.017 522.481 383.943 522.906 383.898C523.417 383.845 523.832 383.797 524.15 383.756C524.468 383.71 524.699 383.642 524.843 383.551C524.991 383.456 525.065 383.311 525.065 383.114V383.08C525.065 382.652 524.938 382.32 524.684 382.085C524.43 381.85 524.065 381.733 523.587 381.733C523.084 381.733 522.684 381.843 522.388 382.062C522.097 382.282 521.9 382.542 521.798 382.841L519.877 382.568C520.029 382.038 520.279 381.595 520.627 381.239C520.976 380.879 521.402 380.61 521.906 380.432C522.409 380.25 522.966 380.159 523.576 380.159C523.996 380.159 524.415 380.208 524.832 380.307C525.248 380.405 525.629 380.568 525.974 380.795C526.318 381.019 526.595 381.324 526.803 381.71C527.015 382.097 527.121 382.58 527.121 383.159V389H525.144V387.801H525.076C524.951 388.044 524.775 388.271 524.548 388.483C524.324 388.691 524.042 388.86 523.701 388.989C523.364 389.114 522.968 389.176 522.513 389.176ZM523.048 387.665C523.46 387.665 523.818 387.583 524.121 387.42C524.424 387.254 524.657 387.034 524.82 386.761C524.987 386.489 525.07 386.191 525.07 385.869V384.841C525.006 384.894 524.896 384.943 524.741 384.989C524.589 385.034 524.419 385.074 524.229 385.108C524.04 385.142 523.853 385.172 523.667 385.199C523.481 385.225 523.32 385.248 523.184 385.267C522.877 385.309 522.603 385.377 522.36 385.472C522.118 385.566 521.926 385.699 521.786 385.869C521.646 386.036 521.576 386.252 521.576 386.517C521.576 386.896 521.714 387.182 521.991 387.375C522.267 387.568 522.62 387.665 523.048 387.665ZM532.985 392.455C532.246 392.455 531.612 392.354 531.082 392.153C530.551 391.956 530.125 391.691 529.803 391.358C529.481 391.025 529.258 390.655 529.133 390.25L530.985 389.801C531.068 389.972 531.19 390.14 531.349 390.307C531.508 390.477 531.722 390.617 531.991 390.727C532.263 390.841 532.606 390.898 533.019 390.898C533.603 390.898 534.085 390.756 534.468 390.472C534.851 390.191 535.042 389.729 535.042 389.085V387.432H534.94C534.834 387.644 534.678 387.862 534.474 388.085C534.273 388.309 534.006 388.496 533.673 388.648C533.343 388.799 532.928 388.875 532.428 388.875C531.758 388.875 531.15 388.718 530.604 388.403C530.063 388.085 529.631 387.612 529.309 386.983C528.991 386.35 528.832 385.559 528.832 384.608C528.832 383.65 528.991 382.841 529.309 382.182C529.631 381.519 530.065 381.017 530.61 380.676C531.156 380.331 531.763 380.159 532.434 380.159C532.945 380.159 533.366 380.246 533.695 380.42C534.029 380.591 534.294 380.797 534.491 381.04C534.688 381.278 534.837 381.504 534.94 381.716H535.053V380.273H537.082V389.142C537.082 389.888 536.904 390.506 536.548 390.994C536.192 391.483 535.705 391.848 535.087 392.091C534.47 392.333 533.769 392.455 532.985 392.455ZM533.002 387.261C533.438 387.261 533.809 387.155 534.116 386.943C534.423 386.731 534.656 386.426 534.815 386.028C534.974 385.631 535.053 385.153 535.053 384.597C535.053 384.047 534.974 383.566 534.815 383.153C534.659 382.741 534.428 382.42 534.121 382.193C533.818 381.962 533.445 381.847 533.002 381.847C532.544 381.847 532.161 381.966 531.854 382.205C531.548 382.443 531.317 382.771 531.161 383.188C531.006 383.6 530.928 384.07 530.928 384.597C530.928 385.131 531.006 385.598 531.161 386C531.32 386.398 531.553 386.708 531.86 386.932C532.171 387.152 532.551 387.261 533.002 387.261ZM542.996 389.17C542.144 389.17 541.406 388.983 540.781 388.608C540.156 388.233 539.671 387.708 539.326 387.034C538.985 386.36 538.815 385.572 538.815 384.67C538.815 383.769 538.985 382.979 539.326 382.301C539.671 381.623 540.156 381.097 540.781 380.722C541.406 380.347 542.144 380.159 542.996 380.159C543.849 380.159 544.587 380.347 545.212 380.722C545.837 381.097 546.32 381.623 546.661 382.301C547.006 382.979 547.178 383.769 547.178 384.67C547.178 385.572 547.006 386.36 546.661 387.034C546.32 387.708 545.837 388.233 545.212 388.608C544.587 388.983 543.849 389.17 542.996 389.17ZM543.008 387.523C543.47 387.523 543.856 387.396 544.167 387.142C544.478 386.884 544.709 386.54 544.86 386.108C545.015 385.676 545.093 385.195 545.093 384.665C545.093 384.131 545.015 383.648 544.86 383.216C544.709 382.78 544.478 382.434 544.167 382.176C543.856 381.919 543.47 381.79 543.008 381.79C542.534 381.79 542.14 381.919 541.826 382.176C541.515 382.434 541.282 382.78 541.127 383.216C540.976 383.648 540.9 384.131 540.9 384.665C540.9 385.195 540.976 385.676 541.127 386.108C541.282 386.54 541.515 386.884 541.826 387.142C542.14 387.396 542.534 387.523 543.008 387.523Z" fill="#F39200"/>
<path d="M164.426 241.427C141.033 264.821 141.033 302.886 164.426 326.28C187.82 349.674 225.886 349.674 249.279 326.28C272.673 302.886 272.673 264.821 249.279 241.427C225.886 218.033 187.82 218.033 164.426 241.427ZM229.698 267.536L213.38 283.854L229.698 300.171L223.171 306.699L206.853 290.381L190.535 306.699L184.008 300.171L200.326 283.854L184.008 267.536L190.535 261.009L206.853 277.326L223.171 261.009L229.698 267.536Z" fill="#D60024"/>
</svg>
