<svg width="590" height="58" viewBox="0 0 590 58" fill="none" xmlns="http://www.w3.org/2000/svg">
<path d="M0.92 46V6.8H20.968C26.12 6.8 29.9653 7.752 32.504 9.656C35.0427 11.5227 36.312 13.9867 36.312 17.048C36.312 19.064 35.7707 20.8373 34.688 22.368C33.6427 23.8613 32.1493 25.056 30.208 25.952C28.304 26.8107 26.0267 27.24 23.376 27.24L24.496 24.552C27.2587 24.552 29.6667 24.9813 31.72 25.84C33.7733 26.6613 35.36 27.8747 36.48 29.48C37.6373 31.048 38.216 32.9707 38.216 35.248C38.216 38.6453 36.8347 41.296 34.072 43.2C31.3467 45.0667 27.352 46 22.088 46H0.92ZM11.896 37.992H21.192C23.096 37.992 24.5333 37.6747 25.504 37.04C26.512 36.368 27.016 35.36 27.016 34.016C27.016 32.672 26.512 31.6827 25.504 31.048C24.5333 30.376 23.096 30.04 21.192 30.04H11.112V22.368H19.512C21.3787 22.368 22.7787 22.0507 23.712 21.416C24.6453 20.7813 25.112 19.8293 25.112 18.56C25.112 17.2907 24.6453 16.3573 23.712 15.76C22.7787 15.1253 21.3787 14.808 19.512 14.808H11.896V37.992ZM39.2551 46L56.5591 6.8H67.4791L84.8391 46H73.3031L59.7511 12.232H64.1191L50.5671 46H39.2551ZM48.7191 38.384L51.5751 30.208H70.7271L73.5831 38.384H48.7191ZM102.717 46.504C99.3571 46.504 96.3517 45.832 93.7011 44.488C91.0877 43.144 89.0344 41.296 87.5411 38.944C86.0477 36.5547 85.3011 33.8293 85.3011 30.768C85.3011 27.7067 86.0477 25 87.5411 22.648C89.0344 20.296 91.0877 18.4667 93.7011 17.16C96.3517 15.816 99.3571 15.144 102.717 15.144C106.152 15.144 109.12 15.872 111.621 17.328C114.122 18.784 115.896 20.8373 116.941 23.488L108.709 27.688C108 26.2693 107.122 25.2427 106.077 24.608C105.032 23.936 103.893 23.6 102.661 23.6C101.429 23.6 100.309 23.88 99.3011 24.44C98.2931 25 97.4904 25.8213 96.8931 26.904C96.3331 27.9493 96.0531 29.2373 96.0531 30.768C96.0531 32.336 96.3331 33.6613 96.8931 34.744C97.4904 35.8267 98.2931 36.648 99.3011 37.208C100.309 37.768 101.429 38.048 102.661 38.048C103.893 38.048 105.032 37.7307 106.077 37.096C107.122 36.424 108 35.3787 108.709 33.96L116.941 38.16C115.896 40.8107 114.122 42.864 111.621 44.32C109.12 45.776 106.152 46.504 102.717 46.504ZM129.686 40.4L129.966 27.688L142.342 15.648H154.942L141.222 29.816L135.79 34.184L129.686 40.4ZM120.838 46V4.448H131.478V46H120.838ZM143.126 46L133.83 34.352L140.438 26.176L156.006 46H143.126ZM172.756 57.368C169.844 57.368 167.063 57.032 164.412 56.36C161.799 55.688 159.559 54.6987 157.692 53.392L161.556 45.944C162.825 46.952 164.393 47.736 166.26 48.296C168.164 48.8933 170.012 49.192 171.804 49.192C174.679 49.192 176.751 48.5573 178.02 47.288C179.289 46.056 179.924 44.2453 179.924 41.856V38.272L180.484 29.76L180.428 21.192V15.648H190.564V40.456C190.564 46.2053 189.015 50.4613 185.916 53.224C182.817 55.9867 178.431 57.368 172.756 57.368ZM170.908 44.432C168.22 44.432 165.737 43.8347 163.46 42.64C161.22 41.408 159.409 39.7093 158.028 37.544C156.684 35.3413 156.012 32.7467 156.012 29.76C156.012 26.7733 156.684 24.1973 158.028 22.032C159.409 19.8293 161.22 18.1307 163.46 16.936C165.737 15.7413 168.22 15.144 170.908 15.144C173.484 15.144 175.687 15.6667 177.516 16.712C179.345 17.72 180.727 19.3067 181.66 21.472C182.631 23.6373 183.116 26.4 183.116 29.76C183.116 33.12 182.631 35.8827 181.66 38.048C180.727 40.2133 179.345 41.8187 177.516 42.864C175.687 43.9093 173.484 44.432 170.908 44.432ZM173.428 35.976C174.697 35.976 175.817 35.7147 176.788 35.192C177.796 34.6693 178.58 33.9413 179.14 33.008C179.737 32.0747 180.036 30.992 180.036 29.76C180.036 28.528 179.737 27.4453 179.14 26.512C178.58 25.5787 177.796 24.8693 176.788 24.384C175.817 23.8613 174.697 23.6 173.428 23.6C172.159 23.6 171.02 23.8613 170.012 24.384C169.004 24.8693 168.201 25.5787 167.604 26.512C167.044 27.4453 166.764 28.528 166.764 29.76C166.764 30.992 167.044 32.0747 167.604 33.008C168.201 33.9413 169.004 34.6693 170.012 35.192C171.02 35.7147 172.159 35.976 173.428 35.976ZM212.632 46.504C209.31 46.504 206.36 45.832 203.784 44.488C201.208 43.144 199.174 41.296 197.68 38.944C196.224 36.5547 195.496 33.8293 195.496 30.768C195.496 27.7067 196.224 25 197.68 22.648C199.174 20.296 201.208 18.4667 203.784 17.16C206.36 15.816 209.31 15.144 212.632 15.144C215.955 15.144 218.904 15.816 221.48 17.16C224.094 18.4667 226.128 20.296 227.584 22.648C229.04 25 229.768 27.7067 229.768 30.768C229.768 33.8293 229.04 36.5547 227.584 38.944C226.128 41.296 224.094 43.144 221.48 44.488C218.904 45.832 215.955 46.504 212.632 46.504ZM212.632 38.048C213.864 38.048 214.947 37.768 215.88 37.208C216.851 36.648 217.616 35.8267 218.176 34.744C218.736 33.624 219.016 32.2987 219.016 30.768C219.016 29.2373 218.736 27.9493 218.176 26.904C217.616 25.8213 216.851 25 215.88 24.44C214.947 23.88 213.864 23.6 212.632 23.6C211.438 23.6 210.355 23.88 209.384 24.44C208.451 25 207.686 25.8213 207.088 26.904C206.528 27.9493 206.248 29.2373 206.248 30.768C206.248 32.2987 206.528 33.624 207.088 34.744C207.686 35.8267 208.451 36.648 209.384 37.208C210.355 37.768 211.438 38.048 212.632 38.048ZM247.465 46.504C245.001 46.504 242.78 46.0187 240.801 45.048C238.86 44.0773 237.329 42.5653 236.209 40.512C235.127 38.4213 234.585 35.7893 234.585 32.616V15.648H245.225V30.88C245.225 33.232 245.655 34.912 246.513 35.92C247.409 36.928 248.66 37.432 250.265 37.432C251.311 37.432 252.263 37.1893 253.121 36.704C253.98 36.2187 254.671 35.4533 255.193 34.408C255.716 33.3253 255.977 31.944 255.977 30.264V15.648H266.617V46H256.481V37.432L258.441 39.84C257.396 42.08 255.884 43.76 253.905 44.88C251.927 45.9627 249.78 46.504 247.465 46.504ZM293.239 15.144C295.591 15.144 297.719 15.6293 299.623 16.6C301.527 17.5333 303.02 18.9893 304.103 20.968C305.223 22.9467 305.783 25.504 305.783 28.64V46H295.143V30.376C295.143 28.2107 294.695 26.6427 293.799 25.672C292.94 24.664 291.727 24.16 290.159 24.16C289.039 24.16 288.012 24.4213 287.079 24.944C286.145 25.4293 285.417 26.1947 284.895 27.24C284.372 28.2853 284.111 29.648 284.111 31.328V46H273.471V15.648H283.607V24.272L281.647 21.752C282.804 19.5493 284.391 17.9067 286.407 16.824C288.423 15.704 290.7 15.144 293.239 15.144ZM326.062 46.504C323.299 46.504 320.779 45.8693 318.502 44.6C316.262 43.2933 314.47 41.4827 313.126 39.168C311.782 36.816 311.11 34.016 311.11 30.768C311.11 27.5573 311.782 24.7947 313.126 22.48C314.47 20.128 316.262 18.3173 318.502 17.048C320.779 15.7787 323.299 15.144 326.062 15.144C328.675 15.144 330.878 15.704 332.67 16.824C334.499 17.944 335.88 19.6613 336.814 21.976C337.747 24.2907 338.214 27.2213 338.214 30.768C338.214 34.3893 337.766 37.3573 336.87 39.672C335.974 41.9867 334.63 43.704 332.838 44.824C331.046 45.944 328.787 46.504 326.062 46.504ZM328.302 38.048C329.496 38.048 330.56 37.768 331.494 37.208C332.464 36.648 333.23 35.8267 333.79 34.744C334.35 33.624 334.63 32.2987 334.63 30.768C334.63 29.2373 334.35 27.9493 333.79 26.904C333.23 25.8213 332.464 25 331.494 24.44C330.56 23.88 329.496 23.6 328.302 23.6C327.07 23.6 325.968 23.88 324.998 24.44C324.064 25 323.318 25.8213 322.758 26.904C322.198 27.9493 321.918 29.2373 321.918 30.768C321.918 32.2987 322.198 33.624 322.758 34.744C323.318 35.8267 324.064 36.648 324.998 37.208C325.968 37.768 327.07 38.048 328.302 38.048ZM334.966 46V40.792L335.022 30.768L334.462 20.744V4.448H345.102V46H334.966ZM368.244 46V4.448H378.884V46H368.244ZM404.335 46V40.344L403.607 38.944V28.528C403.607 26.848 403.084 25.56 402.039 24.664C401.031 23.7307 399.407 23.264 397.167 23.264C395.711 23.264 394.236 23.5067 392.743 23.992C391.249 24.44 389.98 25.0747 388.935 25.896L385.351 18.672C387.068 17.552 389.121 16.6933 391.511 16.096C393.937 15.4613 396.345 15.144 398.735 15.144C403.663 15.144 407.471 16.2827 410.159 18.56C412.884 20.8 414.247 24.328 414.247 29.144V46H404.335ZM395.375 46.504C392.948 46.504 390.895 46.0933 389.215 45.272C387.535 44.4507 386.247 43.3307 385.351 41.912C384.492 40.4933 384.063 38.9067 384.063 37.152C384.063 35.2853 384.529 33.68 385.463 32.336C386.433 30.9547 387.908 29.9093 389.887 29.2C391.865 28.4533 394.423 28.08 397.559 28.08H404.727V33.624H399.015C397.297 33.624 396.084 33.904 395.375 34.464C394.703 35.024 394.367 35.7707 394.367 36.704C394.367 37.6373 394.721 38.384 395.431 38.944C396.14 39.504 397.111 39.784 398.343 39.784C399.5 39.784 400.545 39.504 401.479 38.944C402.449 38.3467 403.159 37.4507 403.607 36.256L405.063 40.176C404.503 42.2667 403.401 43.8533 401.759 44.936C400.153 45.9813 398.025 46.504 395.375 46.504ZM440.731 15.144C443.083 15.144 445.211 15.6293 447.115 16.6C449.019 17.5333 450.512 18.9893 451.595 20.968C452.715 22.9467 453.275 25.504 453.275 28.64V46H442.635V30.376C442.635 28.2107 442.187 26.6427 441.291 25.672C440.432 24.664 439.219 24.16 437.651 24.16C436.531 24.16 435.504 24.4213 434.571 24.944C433.638 25.4293 432.91 26.1947 432.387 27.24C431.864 28.2853 431.603 29.648 431.603 31.328V46H420.963V15.648H431.099V24.272L429.139 21.752C430.296 19.5493 431.883 17.9067 433.899 16.824C435.915 15.704 438.192 15.144 440.731 15.144ZM473.554 46.504C470.791 46.504 468.271 45.8693 465.994 44.6C463.754 43.2933 461.962 41.4827 460.618 39.168C459.274 36.816 458.602 34.016 458.602 30.768C458.602 27.5573 459.274 24.7947 460.618 22.48C461.962 20.128 463.754 18.3173 465.994 17.048C468.271 15.7787 470.791 15.144 473.554 15.144C476.167 15.144 478.37 15.704 480.162 16.824C481.991 17.944 483.373 19.6613 484.306 21.976C485.239 24.2907 485.706 27.2213 485.706 30.768C485.706 34.3893 485.258 37.3573 484.362 39.672C483.466 41.9867 482.122 43.704 480.33 44.824C478.538 45.944 476.279 46.504 473.554 46.504ZM475.794 38.048C476.989 38.048 478.053 37.768 478.986 37.208C479.957 36.648 480.722 35.8267 481.282 34.744C481.842 33.624 482.122 32.2987 482.122 30.768C482.122 29.2373 481.842 27.9493 481.282 26.904C480.722 25.8213 479.957 25 478.986 24.44C478.053 23.88 476.989 23.6 475.794 23.6C474.562 23.6 473.461 23.88 472.49 24.44C471.557 25 470.81 25.8213 470.25 26.904C469.69 27.9493 469.41 29.2373 469.41 30.768C469.41 32.2987 469.69 33.624 470.25 34.744C470.81 35.8267 471.557 36.648 472.49 37.208C473.461 37.768 474.562 38.048 475.794 38.048ZM482.458 46V40.792L482.514 30.768L481.954 20.744V4.448H492.594V46H482.458ZM499.439 46V15.648H510.079V46H499.439ZM504.759 12.288C502.818 12.288 501.25 11.7467 500.055 10.664C498.861 9.58133 498.263 8.23733 498.263 6.632C498.263 5.02666 498.861 3.68266 500.055 2.6C501.25 1.51733 502.818 0.975999 504.759 0.975999C506.701 0.975999 508.269 1.49867 509.463 2.544C510.658 3.552 511.255 4.85867 511.255 6.464C511.255 8.144 510.658 9.544 509.463 10.664C508.306 11.7467 506.738 12.288 504.759 12.288ZM536.762 15.144C539.114 15.144 541.242 15.6293 543.146 16.6C545.05 17.5333 546.543 18.9893 547.626 20.968C548.746 22.9467 549.306 25.504 549.306 28.64V46H538.666V30.376C538.666 28.2107 538.218 26.6427 537.322 25.672C536.463 24.664 535.25 24.16 533.682 24.16C532.562 24.16 531.535 24.4213 530.602 24.944C529.669 25.4293 528.941 26.1947 528.418 27.24C527.895 28.2853 527.634 29.648 527.634 31.328V46H516.994V15.648H527.13V24.272L525.17 21.752C526.327 19.5493 527.914 17.9067 529.93 16.824C531.946 15.704 534.223 15.144 536.762 15.144ZM571.209 57.368C568.297 57.368 565.516 57.032 562.865 56.36C560.252 55.688 558.012 54.6987 556.145 53.392L560.009 45.944C561.278 46.952 562.846 47.736 564.713 48.296C566.617 48.8933 568.465 49.192 570.257 49.192C573.132 49.192 575.204 48.5573 576.473 47.288C577.742 46.056 578.377 44.2453 578.377 41.856V38.272L578.937 29.76L578.881 21.192V15.648H589.017V40.456C589.017 46.2053 587.468 50.4613 584.369 53.224C581.27 55.9867 576.884 57.368 571.209 57.368ZM569.361 44.432C566.673 44.432 564.19 43.8347 561.913 42.64C559.673 41.408 557.862 39.7093 556.481 37.544C555.137 35.3413 554.465 32.7467 554.465 29.76C554.465 26.7733 555.137 24.1973 556.481 22.032C557.862 19.8293 559.673 18.1307 561.913 16.936C564.19 15.7413 566.673 15.144 569.361 15.144C571.937 15.144 574.14 15.6667 575.969 16.712C577.798 17.72 579.18 19.3067 580.113 21.472C581.084 23.6373 581.569 26.4 581.569 29.76C581.569 33.12 581.084 35.8827 580.113 38.048C579.18 40.2133 577.798 41.8187 575.969 42.864C574.14 43.9093 571.937 44.432 569.361 44.432ZM571.881 35.976C573.15 35.976 574.27 35.7147 575.241 35.192C576.249 34.6693 577.033 33.9413 577.593 33.008C578.19 32.0747 578.489 30.992 578.489 29.76C578.489 28.528 578.19 27.4453 577.593 26.512C577.033 25.5787 576.249 24.8693 575.241 24.384C574.27 23.8613 573.15 23.6 571.881 23.6C570.612 23.6 569.473 23.8613 568.465 24.384C567.457 24.8693 566.654 25.5787 566.057 26.512C565.497 27.4453 565.217 28.528 565.217 29.76C565.217 30.992 565.497 32.0747 566.057 33.008C566.654 33.9413 567.457 34.6693 568.465 35.192C569.473 35.7147 570.612 35.976 571.881 35.976Z" fill="black"/>
</svg>
