<svg width="331" height="40" viewBox="0 0 331 40" fill="none" xmlns="http://www.w3.org/2000/svg">
<rect width="331" height="40" rx="8" fill="#F39200"/>
<path d="M28.5 20.125C27.8 20.125 27.2083 19.8833 26.725 19.4C26.2417 18.9167 26 18.325 26 17.625C26 16.925 26.2417 16.3333 26.725 15.85C27.2083 15.3667 27.8 15.125 28.5 15.125C29.2 15.125 29.7917 15.3667 30.275 15.85C30.7583 16.3333 31 16.925 31 17.625C31 18.325 30.7583 18.9167 30.275 19.4C29.7917 19.8833 29.2 20.125 28.5 20.125ZM33 16.125C32.3 16.125 31.7083 15.8833 31.225 15.4C30.7417 14.9167 30.5 14.325 30.5 13.625C30.5 12.925 30.7417 12.3333 31.225 11.85C31.7083 11.3667 32.3 11.125 33 11.125C33.7 11.125 34.2917 11.3667 34.775 11.85C35.2583 12.3333 35.5 12.925 35.5 13.625C35.5 14.325 35.2583 14.9167 34.775 15.4C34.2917 15.8833 33.7 16.125 33 16.125ZM39 16.125C38.3 16.125 37.7083 15.8833 37.225 15.4C36.7417 14.9167 36.5 14.325 36.5 13.625C36.5 12.925 36.7417 12.3333 37.225 11.85C37.7083 11.3667 38.3 11.125 39 11.125C39.7 11.125 40.2917 11.3667 40.775 11.85C41.2583 12.3333 41.5 12.925 41.5 13.625C41.5 14.325 41.2583 14.9167 40.775 15.4C40.2917 15.8833 39.7 16.125 39 16.125ZM43.5 20.125C42.8 20.125 42.2083 19.8833 41.725 19.4C41.2417 18.9167 41 18.325 41 17.625C41 16.925 41.2417 16.3333 41.725 15.85C42.2083 15.3667 42.8 15.125 43.5 15.125C44.2 15.125 44.7917 15.3667 45.275 15.85C45.7583 16.3333 46 16.925 46 17.625C46 18.325 45.7583 18.9167 45.275 19.4C44.7917 19.8833 44.2 20.125 43.5 20.125ZM30.65 30.125C29.9 30.125 29.2708 29.8375 28.7625 29.2625C28.2542 28.6875 28 28.0083 28 27.225C28 26.3583 28.2958 25.6 28.8875 24.95C29.4792 24.3 30.0667 23.6583 30.65 23.025C31.1333 22.5083 31.55 21.9458 31.9 21.3375C32.25 20.7292 32.6667 20.1583 33.15 19.625C33.5167 19.1917 33.9417 18.8333 34.425 18.55C34.9083 18.2667 35.4333 18.125 36 18.125C36.5667 18.125 37.0917 18.2583 37.575 18.525C38.0583 18.7917 38.4833 19.1417 38.85 19.575C39.3167 20.1083 39.7292 20.6833 40.0875 21.3C40.4458 21.9167 40.8667 22.4917 41.35 23.025C41.9333 23.6583 42.5208 24.3 43.1125 24.95C43.7042 25.6 44 26.3583 44 27.225C44 28.0083 43.7458 28.6875 43.2375 29.2625C42.7292 29.8375 42.1 30.125 41.35 30.125C40.45 30.125 39.5583 30.05 38.675 29.9C37.7917 29.75 36.9 29.675 36 29.675C35.1 29.675 34.2083 29.75 33.325 29.9C32.4417 30.05 31.55 30.125 30.65 30.125Z" fill="white"/>
<path d="M63.5739 28.9432H61.375L61.5568 20.7273H63.3864L63.5739 28.9432ZM62.4716 17.1818C62.8087 17.1818 63.1004 17.3049 63.3466 17.5511C63.5966 17.7936 63.7216 18.0871 63.7216 18.4318C63.7216 18.7727 63.5966 19.0644 63.3466 19.3068C63.1004 19.5492 62.8087 19.6705 62.4716 19.6705C62.1269 19.6705 61.8314 19.5492 61.5852 19.3068C61.3428 19.0644 61.2216 18.7727 61.2216 18.4318C61.2216 18.2008 61.2784 17.9905 61.392 17.8011C61.5057 17.6117 61.6572 17.4621 61.8466 17.3523C62.036 17.2386 62.2443 17.1818 62.4716 17.1818ZM66.0852 26V14.3636H70.4489C71.3428 14.3636 72.0928 14.5189 72.6989 14.8295C73.3087 15.1402 73.7689 15.5758 74.0795 16.1364C74.3939 16.6932 74.5511 17.3428 74.5511 18.0852C74.5511 18.8314 74.392 19.4792 74.0739 20.0284C73.7595 20.5739 73.2955 20.9962 72.6818 21.2955C72.0682 21.5909 71.3144 21.7386 70.4205 21.7386H67.3125V19.9886H70.1364C70.6591 19.9886 71.0871 19.9167 71.4205 19.7727C71.7538 19.625 72 19.411 72.1591 19.1307C72.322 18.8466 72.4034 18.4981 72.4034 18.0852C72.4034 17.6723 72.322 17.3201 72.1591 17.0284C71.9962 16.733 71.7481 16.5095 71.4148 16.358C71.0814 16.2027 70.6515 16.125 70.125 16.125H68.1932V26H66.0852ZM72.0966 20.7273L74.9773 26H72.625L69.7955 20.7273H72.0966ZM80.1392 26.1705C79.2642 26.1705 78.5085 25.9886 77.8722 25.625C77.2396 25.2576 76.7528 24.7386 76.4119 24.0682C76.071 23.3939 75.9006 22.6004 75.9006 21.6875C75.9006 20.7898 76.071 20.0019 76.4119 19.3239C76.7566 18.642 77.2377 18.1117 77.8551 17.733C78.4725 17.3504 79.1979 17.1591 80.0312 17.1591C80.5691 17.1591 81.0767 17.2462 81.554 17.4205C82.035 17.5909 82.4593 17.8561 82.8267 18.2159C83.1979 18.5758 83.4896 19.0341 83.7017 19.5909C83.9138 20.1439 84.0199 20.803 84.0199 21.5682V22.1989H76.8665V20.8125H82.0483C82.0445 20.4186 81.9593 20.0682 81.7926 19.7614C81.6259 19.4508 81.393 19.2064 81.0938 19.0284C80.7983 18.8504 80.4536 18.7614 80.0597 18.7614C79.6392 18.7614 79.2699 18.8636 78.9517 19.0682C78.6335 19.2689 78.3854 19.5341 78.2074 19.8636C78.0331 20.1894 77.9441 20.5473 77.9403 20.9375V22.1477C77.9403 22.6553 78.0331 23.0909 78.2188 23.4545C78.4044 23.8144 78.6638 24.0909 78.9972 24.2841C79.3305 24.4735 79.7206 24.5682 80.1676 24.5682C80.4669 24.5682 80.7377 24.5265 80.9801 24.4432C81.2225 24.3561 81.4328 24.2292 81.6108 24.0625C81.7888 23.8958 81.9233 23.6894 82.0142 23.4432L83.9347 23.6591C83.8134 24.1667 83.5824 24.6098 83.2415 24.9886C82.9044 25.3636 82.4725 25.6553 81.946 25.8636C81.4195 26.0682 80.8172 26.1705 80.1392 26.1705ZM89.6236 26.1705C88.7486 26.1705 87.9929 25.9886 87.3565 25.625C86.724 25.2576 86.2372 24.7386 85.8963 24.0682C85.5554 23.3939 85.3849 22.6004 85.3849 21.6875C85.3849 20.7898 85.5554 20.0019 85.8963 19.3239C86.241 18.642 86.7221 18.1117 87.3395 17.733C87.9569 17.3504 88.6823 17.1591 89.5156 17.1591C90.0535 17.1591 90.5611 17.2462 91.0384 17.4205C91.5194 17.5909 91.9437 17.8561 92.3111 18.2159C92.6823 18.5758 92.974 19.0341 93.1861 19.5909C93.3982 20.1439 93.5043 20.803 93.5043 21.5682V22.1989H86.3509V20.8125H91.5327C91.5289 20.4186 91.4437 20.0682 91.277 19.7614C91.1103 19.4508 90.8774 19.2064 90.5781 19.0284C90.2827 18.8504 89.938 18.7614 89.544 18.7614C89.1236 18.7614 88.7543 18.8636 88.4361 19.0682C88.1179 19.2689 87.8698 19.5341 87.6918 19.8636C87.5175 20.1894 87.4285 20.5473 87.4247 20.9375V22.1477C87.4247 22.6553 87.5175 23.0909 87.7031 23.4545C87.8887 23.8144 88.1482 24.0909 88.4815 24.2841C88.8149 24.4735 89.205 24.5682 89.652 24.5682C89.9512 24.5682 90.2221 24.5265 90.4645 24.4432C90.7069 24.3561 90.9171 24.2292 91.0952 24.0625C91.2732 23.8958 91.4077 23.6894 91.4986 23.4432L93.419 23.6591C93.2978 24.1667 93.0668 24.6098 92.7259 24.9886C92.3887 25.3636 91.9569 25.6553 91.4304 25.8636C90.9039 26.0682 90.3016 26.1705 89.6236 26.1705ZM97.3011 20.8864V26H95.2443V17.2727H97.2102V18.7557H97.3125C97.5133 18.267 97.8333 17.8788 98.2727 17.5909C98.7159 17.303 99.2633 17.1591 99.9148 17.1591C100.517 17.1591 101.042 17.2879 101.489 17.5455C101.939 17.803 102.288 18.1761 102.534 18.6648C102.784 19.1534 102.907 19.7462 102.903 20.4432V26H100.847V20.7614C100.847 20.178 100.695 19.7216 100.392 19.392C100.093 19.0625 99.678 18.8977 99.1477 18.8977C98.7879 18.8977 98.4678 18.9773 98.1875 19.1364C97.911 19.2917 97.6932 19.517 97.5341 19.8125C97.3788 20.108 97.3011 20.4659 97.3011 20.8864ZM108.801 26.1705C107.93 26.1705 107.182 25.9792 106.557 25.5966C105.936 25.214 105.456 24.6856 105.119 24.0114C104.786 23.3333 104.619 22.553 104.619 21.6705C104.619 20.7841 104.79 20.0019 105.131 19.3239C105.472 18.642 105.953 18.1117 106.574 17.733C107.199 17.3504 107.938 17.1591 108.79 17.1591C109.498 17.1591 110.125 17.2898 110.67 17.5511C111.22 17.8087 111.657 18.1742 111.983 18.6477C112.309 19.1174 112.494 19.6667 112.54 20.2955H110.574C110.494 19.875 110.305 19.5246 110.006 19.2443C109.71 18.9602 109.314 18.8182 108.818 18.8182C108.398 18.8182 108.028 18.9318 107.71 19.1591C107.392 19.3826 107.144 19.7045 106.966 20.125C106.792 20.5455 106.705 21.0492 106.705 21.6364C106.705 22.2311 106.792 22.7424 106.966 23.1705C107.14 23.5947 107.384 23.9223 107.699 24.1534C108.017 24.3807 108.39 24.4943 108.818 24.4943C109.121 24.4943 109.392 24.4375 109.631 24.3239C109.873 24.2064 110.076 24.0379 110.239 23.8182C110.402 23.5985 110.513 23.3314 110.574 23.017H112.54C112.491 23.6345 112.309 24.1818 111.994 24.6591C111.68 25.1326 111.252 25.5038 110.71 25.7727C110.169 26.0379 109.532 26.1705 108.801 26.1705ZM119.791 22.3295V17.2727H121.848V26H119.854V24.4489H119.763C119.566 24.9375 119.242 25.3371 118.791 25.6477C118.344 25.9583 117.793 26.1136 117.138 26.1136C116.566 26.1136 116.06 25.9867 115.621 25.733C115.185 25.4754 114.844 25.1023 114.598 24.6136C114.352 24.1212 114.229 23.5265 114.229 22.8295V17.2727H116.286V22.5114C116.286 23.0644 116.437 23.5038 116.74 23.8295C117.043 24.1553 117.441 24.3182 117.933 24.3182C118.236 24.3182 118.53 24.2443 118.814 24.0966C119.098 23.9489 119.331 23.7292 119.513 23.4375C119.698 23.142 119.791 22.7727 119.791 22.3295ZM127.827 26.1705C126.952 26.1705 126.196 25.9886 125.56 25.625C124.927 25.2576 124.44 24.7386 124.099 24.0682C123.759 23.3939 123.588 22.6004 123.588 21.6875C123.588 20.7898 123.759 20.0019 124.099 19.3239C124.444 18.642 124.925 18.1117 125.543 17.733C126.16 17.3504 126.885 17.1591 127.719 17.1591C128.257 17.1591 128.764 17.2462 129.241 17.4205C129.723 17.5909 130.147 17.8561 130.514 18.2159C130.885 18.5758 131.177 19.0341 131.389 19.5909C131.601 20.1439 131.707 20.803 131.707 21.5682V22.1989H124.554V20.8125H129.736C129.732 20.4186 129.647 20.0682 129.48 19.7614C129.313 19.4508 129.08 19.2064 128.781 19.0284C128.486 18.8504 128.141 18.7614 127.747 18.7614C127.327 18.7614 126.957 18.8636 126.639 19.0682C126.321 19.2689 126.073 19.5341 125.895 19.8636C125.721 20.1894 125.632 20.5473 125.628 20.9375V22.1477C125.628 22.6553 125.721 23.0909 125.906 23.4545C126.092 23.8144 126.351 24.0909 126.685 24.2841C127.018 24.4735 127.408 24.5682 127.855 24.5682C128.154 24.5682 128.425 24.5265 128.668 24.4432C128.91 24.3561 129.12 24.2292 129.298 24.0625C129.476 23.8958 129.611 23.6894 129.702 23.4432L131.622 23.6591C131.501 24.1667 131.27 24.6098 130.929 24.9886C130.592 25.3636 130.16 25.6553 129.634 25.8636C129.107 26.0682 128.505 26.1705 127.827 26.1705ZM135.504 20.8864V26H133.447V17.2727H135.413V18.7557H135.516C135.716 18.267 136.036 17.8788 136.476 17.5909C136.919 17.303 137.466 17.1591 138.118 17.1591C138.72 17.1591 139.245 17.2879 139.692 17.5455C140.143 17.803 140.491 18.1761 140.737 18.6648C140.987 19.1534 141.11 19.7462 141.107 20.4432V26H139.05V20.7614C139.05 20.178 138.898 19.7216 138.595 19.392C138.296 19.0625 137.881 18.8977 137.351 18.8977C136.991 18.8977 136.671 18.9773 136.391 19.1364C136.114 19.2917 135.896 19.517 135.737 19.8125C135.582 20.108 135.504 20.4659 135.504 20.8864ZM147.555 17.2727V18.8636H142.538V17.2727H147.555ZM143.777 15.1818H145.834V23.375C145.834 23.6515 145.875 23.8636 145.959 24.0114C146.046 24.1553 146.16 24.2538 146.3 24.3068C146.44 24.3598 146.595 24.3864 146.766 24.3864C146.894 24.3864 147.012 24.3769 147.118 24.358C147.228 24.339 147.311 24.322 147.368 24.3068L147.714 25.9148C147.605 25.9527 147.447 25.9943 147.243 26.0398C147.042 26.0852 146.796 26.1117 146.504 26.1193C145.989 26.1345 145.525 26.0568 145.112 25.8864C144.699 25.7121 144.372 25.4432 144.129 25.0795C143.891 24.7159 143.773 24.2614 143.777 23.7159V15.1818ZM149.276 26V17.2727H151.27V18.7273H151.361C151.52 18.2235 151.793 17.8352 152.179 17.5625C152.569 17.286 153.014 17.1477 153.514 17.1477C153.628 17.1477 153.755 17.1534 153.895 17.1648C154.039 17.1723 154.158 17.1856 154.253 17.2045V19.0966C154.166 19.0663 154.027 19.0398 153.838 19.017C153.652 18.9905 153.473 18.9773 153.298 18.9773C152.923 18.9773 152.586 19.0587 152.287 19.2216C151.991 19.3807 151.759 19.6023 151.588 19.8864C151.418 20.1705 151.332 20.4981 151.332 20.8693V26H149.276ZM157.974 26.1761C157.421 26.1761 156.923 26.0777 156.48 25.8807C156.041 25.6799 155.692 25.3845 155.435 24.9943C155.181 24.6042 155.054 24.1231 155.054 23.5511C155.054 23.0587 155.145 22.6515 155.327 22.3295C155.509 22.0076 155.757 21.75 156.071 21.5568C156.385 21.3636 156.74 21.2178 157.134 21.1193C157.531 21.017 157.942 20.9432 158.366 20.8977C158.878 20.8447 159.293 20.7973 159.611 20.7557C159.929 20.7102 160.16 20.642 160.304 20.5511C160.452 20.4564 160.526 20.3106 160.526 20.1136V20.0795C160.526 19.6515 160.399 19.3201 160.145 19.0852C159.891 18.8504 159.526 18.733 159.048 18.733C158.545 18.733 158.145 18.8428 157.849 19.0625C157.558 19.2822 157.361 19.5417 157.259 19.8409L155.338 19.5682C155.49 19.0379 155.74 18.5947 156.088 18.2386C156.437 17.8788 156.863 17.6098 157.366 17.4318C157.87 17.25 158.427 17.1591 159.037 17.1591C159.457 17.1591 159.876 17.2083 160.293 17.3068C160.709 17.4053 161.09 17.5682 161.435 17.7955C161.779 18.0189 162.056 18.3239 162.264 18.7102C162.476 19.0966 162.582 19.5795 162.582 20.1591V26H160.605V24.8011H160.537C160.412 25.0436 160.236 25.2708 160.009 25.483C159.785 25.6913 159.503 25.8598 159.162 25.9886C158.825 26.1136 158.429 26.1761 157.974 26.1761ZM158.509 24.6648C158.921 24.6648 159.279 24.5833 159.582 24.4205C159.885 24.2538 160.118 24.0341 160.281 23.7614C160.448 23.4886 160.531 23.1913 160.531 22.8693V21.8409C160.467 21.8939 160.357 21.9432 160.202 21.9886C160.05 22.0341 159.88 22.0739 159.69 22.108C159.501 22.142 159.313 22.1723 159.128 22.1989C158.942 22.2254 158.781 22.2481 158.645 22.267C158.338 22.3087 158.063 22.3769 157.821 22.4716C157.579 22.5663 157.387 22.6989 157.247 22.8693C157.107 23.036 157.037 23.2519 157.037 23.517C157.037 23.8958 157.175 24.1818 157.452 24.375C157.728 24.5682 158.08 24.6648 158.509 24.6648ZM169.009 17.2727V18.8636H163.991V17.2727H169.009ZM165.23 15.1818H167.287V23.375C167.287 23.6515 167.329 23.8636 167.412 24.0114C167.499 24.1553 167.613 24.2538 167.753 24.3068C167.893 24.3598 168.048 24.3864 168.219 24.3864C168.348 24.3864 168.465 24.3769 168.571 24.358C168.681 24.339 168.764 24.322 168.821 24.3068L169.168 25.9148C169.058 25.9527 168.901 25.9943 168.696 26.0398C168.495 26.0852 168.249 26.1117 167.957 26.1193C167.442 26.1345 166.978 26.0568 166.565 25.8864C166.152 25.7121 165.825 25.4432 165.582 25.0795C165.344 24.7159 165.226 24.2614 165.23 23.7159V15.1818ZM174.499 26.1705C173.624 26.1705 172.868 25.9886 172.232 25.625C171.599 25.2576 171.112 24.7386 170.771 24.0682C170.43 23.3939 170.26 22.6004 170.26 21.6875C170.26 20.7898 170.43 20.0019 170.771 19.3239C171.116 18.642 171.597 18.1117 172.214 17.733C172.832 17.3504 173.557 17.1591 174.391 17.1591C174.929 17.1591 175.436 17.2462 175.913 17.4205C176.394 17.5909 176.819 17.8561 177.186 18.2159C177.557 18.5758 177.849 19.0341 178.061 19.5909C178.273 20.1439 178.379 20.803 178.379 21.5682V22.1989H171.226V20.8125H176.408C176.404 20.4186 176.319 20.0682 176.152 19.7614C175.985 19.4508 175.752 19.2064 175.453 19.0284C175.158 18.8504 174.813 18.7614 174.419 18.7614C173.999 18.7614 173.629 18.8636 173.311 19.0682C172.993 19.2689 172.745 19.5341 172.567 19.8636C172.393 20.1894 172.304 20.5473 172.3 20.9375V22.1477C172.3 22.6553 172.393 23.0909 172.578 23.4545C172.764 23.8144 173.023 24.0909 173.357 24.2841C173.69 24.4735 174.08 24.5682 174.527 24.5682C174.826 24.5682 175.097 24.5265 175.339 24.4432C175.582 24.3561 175.792 24.2292 175.97 24.0625C176.148 23.8958 176.283 23.6894 176.374 23.4432L178.294 23.6591C178.173 24.1667 177.942 24.6098 177.601 24.9886C177.264 25.3636 176.832 25.6553 176.305 25.8636C175.779 26.0682 175.177 26.1705 174.499 26.1705ZM187.895 26.1705C187.024 26.1705 186.276 25.9792 185.651 25.5966C185.029 25.214 184.55 24.6856 184.213 24.0114C183.88 23.3333 183.713 22.553 183.713 21.6705C183.713 20.7841 183.884 20.0019 184.224 19.3239C184.565 18.642 185.046 18.1117 185.668 17.733C186.293 17.3504 187.031 17.1591 187.884 17.1591C188.592 17.1591 189.219 17.2898 189.764 17.5511C190.313 17.8087 190.751 18.1742 191.077 18.6477C191.402 19.1174 191.588 19.6667 191.634 20.2955H189.668C189.588 19.875 189.399 19.5246 189.099 19.2443C188.804 18.9602 188.408 18.8182 187.912 18.8182C187.491 18.8182 187.122 18.9318 186.804 19.1591C186.486 19.3826 186.238 19.7045 186.06 20.125C185.885 20.5455 185.798 21.0492 185.798 21.6364C185.798 22.2311 185.885 22.7424 186.06 23.1705C186.234 23.5947 186.478 23.9223 186.793 24.1534C187.111 24.3807 187.484 24.4943 187.912 24.4943C188.215 24.4943 188.486 24.4375 188.724 24.3239C188.967 24.2064 189.17 24.0379 189.332 23.8182C189.495 23.5985 189.607 23.3314 189.668 23.017H191.634C191.584 23.6345 191.402 24.1818 191.088 24.6591C190.774 25.1326 190.346 25.5038 189.804 25.7727C189.262 26.0379 188.626 26.1705 187.895 26.1705ZM197.129 26.1705C196.277 26.1705 195.538 25.983 194.913 25.608C194.288 25.233 193.804 24.7083 193.459 24.0341C193.118 23.3598 192.947 22.572 192.947 21.6705C192.947 20.7689 193.118 19.9792 193.459 19.3011C193.804 18.6231 194.288 18.0966 194.913 17.7216C195.538 17.3466 196.277 17.1591 197.129 17.1591C197.982 17.1591 198.72 17.3466 199.345 17.7216C199.97 18.0966 200.453 18.6231 200.794 19.3011C201.139 19.9792 201.311 20.7689 201.311 21.6705C201.311 22.572 201.139 23.3598 200.794 24.0341C200.453 24.7083 199.97 25.233 199.345 25.608C198.72 25.983 197.982 26.1705 197.129 26.1705ZM197.141 24.5227C197.603 24.5227 197.989 24.3958 198.3 24.142C198.61 23.8845 198.841 23.5398 198.993 23.108C199.148 22.6761 199.226 22.1951 199.226 21.6648C199.226 21.1307 199.148 20.6477 198.993 20.2159C198.841 19.7803 198.61 19.4337 198.3 19.1761C197.989 18.9186 197.603 18.7898 197.141 18.7898C196.667 18.7898 196.273 18.9186 195.959 19.1761C195.648 19.4337 195.415 19.7803 195.26 20.2159C195.108 20.6477 195.033 21.1307 195.033 21.6648C195.033 22.1951 195.108 22.6761 195.26 23.108C195.415 23.5398 195.648 23.8845 195.959 24.142C196.273 24.3958 196.667 24.5227 197.141 24.5227ZM205.114 20.8864V26H203.057V17.2727H205.023V18.7557H205.125C205.326 18.267 205.646 17.8788 206.085 17.5909C206.528 17.303 207.076 17.1591 207.727 17.1591C208.33 17.1591 208.854 17.2879 209.301 17.5455C209.752 17.803 210.1 18.1761 210.347 18.6648C210.597 19.1534 210.72 19.7462 210.716 20.4432V26H208.659V20.7614C208.659 20.178 208.508 19.7216 208.205 19.392C207.905 19.0625 207.491 18.8977 206.96 18.8977C206.6 18.8977 206.28 18.9773 206 19.1364C205.723 19.2917 205.506 19.517 205.347 19.8125C205.191 20.108 205.114 20.4659 205.114 20.8864ZM221.134 17.2727V18.8636H216.116V17.2727H221.134ZM217.355 15.1818H219.412V23.375C219.412 23.6515 219.454 23.8636 219.537 24.0114C219.624 24.1553 219.738 24.2538 219.878 24.3068C220.018 24.3598 220.173 24.3864 220.344 24.3864C220.473 24.3864 220.59 24.3769 220.696 24.358C220.806 24.339 220.889 24.322 220.946 24.3068L221.293 25.9148C221.183 25.9527 221.026 25.9943 220.821 26.0398C220.62 26.0852 220.374 26.1117 220.082 26.1193C219.567 26.1345 219.103 26.0568 218.69 25.8864C218.277 25.7121 217.95 25.4432 217.707 25.0795C217.469 24.7159 217.351 24.2614 217.355 23.7159V15.1818ZM228.416 22.3295V17.2727H230.473V26H228.479V24.4489H228.388C228.191 24.9375 227.867 25.3371 227.416 25.6477C226.969 25.9583 226.418 26.1136 225.763 26.1136C225.191 26.1136 224.685 25.9867 224.246 25.733C223.81 25.4754 223.469 25.1023 223.223 24.6136C222.977 24.1212 222.854 23.5265 222.854 22.8295V17.2727H224.911V22.5114C224.911 23.0644 225.062 23.5038 225.365 23.8295C225.668 24.1553 226.066 24.3182 226.558 24.3182C226.861 24.3182 227.155 24.2443 227.439 24.0966C227.723 23.9489 227.956 23.7292 228.138 23.4375C228.323 23.142 228.416 22.7727 228.416 22.3295ZM236.557 26V17.2727H238.523V18.7557H238.625C238.807 18.2557 239.108 17.8655 239.528 17.5852C239.949 17.3011 240.451 17.1591 241.034 17.1591C241.625 17.1591 242.123 17.303 242.528 17.5909C242.938 17.875 243.225 18.2633 243.392 18.7557H243.483C243.676 18.2708 244.002 17.8845 244.46 17.5966C244.922 17.3049 245.47 17.1591 246.102 17.1591C246.905 17.1591 247.561 17.4129 248.068 17.9205C248.576 18.428 248.83 19.1686 248.83 20.142V26H246.767V20.4602C246.767 19.9186 246.623 19.5227 246.335 19.2727C246.047 19.0189 245.695 18.892 245.278 18.892C244.782 18.892 244.394 19.0473 244.114 19.358C243.837 19.6648 243.699 20.0644 243.699 20.5568V26H241.682V20.375C241.682 19.9242 241.545 19.5644 241.273 19.2955C241.004 19.0265 240.652 18.892 240.216 18.892C239.92 18.892 239.652 18.9678 239.409 19.1193C239.167 19.267 238.973 19.4773 238.83 19.75C238.686 20.0189 238.614 20.3333 238.614 20.6932V26H236.557ZM253.428 26.1761C252.875 26.1761 252.376 26.0777 251.933 25.8807C251.494 25.6799 251.145 25.3845 250.888 24.9943C250.634 24.6042 250.507 24.1231 250.507 23.5511C250.507 23.0587 250.598 22.6515 250.78 22.3295C250.962 22.0076 251.21 21.75 251.524 21.5568C251.839 21.3636 252.193 21.2178 252.587 21.1193C252.984 21.017 253.395 20.9432 253.82 20.8977C254.331 20.8447 254.746 20.7973 255.064 20.7557C255.382 20.7102 255.613 20.642 255.757 20.5511C255.905 20.4564 255.979 20.3106 255.979 20.1136V20.0795C255.979 19.6515 255.852 19.3201 255.598 19.0852C255.344 18.8504 254.979 18.733 254.501 18.733C253.998 18.733 253.598 18.8428 253.303 19.0625C253.011 19.2822 252.814 19.5417 252.712 19.8409L250.791 19.5682C250.943 19.0379 251.193 18.5947 251.541 18.2386C251.89 17.8788 252.316 17.6098 252.82 17.4318C253.323 17.25 253.88 17.1591 254.49 17.1591C254.911 17.1591 255.329 17.2083 255.746 17.3068C256.162 17.4053 256.543 17.5682 256.888 17.7955C257.232 18.0189 257.509 18.3239 257.717 18.7102C257.929 19.0966 258.036 19.5795 258.036 20.1591V26H256.058V24.8011H255.99C255.865 25.0436 255.689 25.2708 255.462 25.483C255.238 25.6913 254.956 25.8598 254.615 25.9886C254.278 26.1136 253.882 26.1761 253.428 26.1761ZM253.962 24.6648C254.375 24.6648 254.732 24.5833 255.036 24.4205C255.339 24.2538 255.571 24.0341 255.734 23.7614C255.901 23.4886 255.984 23.1913 255.984 22.8693V21.8409C255.92 21.8939 255.81 21.9432 255.655 21.9886C255.503 22.0341 255.333 22.0739 255.143 22.108C254.954 22.142 254.767 22.1723 254.581 22.1989C254.395 22.2254 254.234 22.2481 254.098 22.267C253.791 22.3087 253.517 22.3769 253.274 22.4716C253.032 22.5663 252.84 22.6989 252.7 22.8693C252.56 23.036 252.49 23.2519 252.49 23.517C252.49 23.8958 252.628 24.1818 252.905 24.375C253.181 24.5682 253.534 24.6648 253.962 24.6648ZM267.001 19.5795L265.126 19.7841C265.073 19.5947 264.981 19.4167 264.848 19.25C264.719 19.0833 264.545 18.9489 264.325 18.8466C264.106 18.7443 263.837 18.6932 263.518 18.6932C263.09 18.6932 262.731 18.786 262.439 18.9716C262.151 19.1572 262.009 19.3977 262.013 19.6932C262.009 19.947 262.102 20.1534 262.291 20.3125C262.484 20.4716 262.803 20.6023 263.246 20.7045L264.734 21.0227C265.56 21.2008 266.174 21.483 266.575 21.8693C266.981 22.2557 267.185 22.7614 267.189 23.3864C267.185 23.9356 267.024 24.4205 266.706 24.8409C266.392 25.2576 265.954 25.5833 265.393 25.8182C264.833 26.053 264.189 26.1705 263.462 26.1705C262.393 26.1705 261.534 25.947 260.882 25.5C260.231 25.0492 259.842 24.4223 259.717 23.6193L261.723 23.4261C261.814 23.8201 262.007 24.1174 262.303 24.3182C262.598 24.5189 262.982 24.6193 263.456 24.6193C263.945 24.6193 264.337 24.5189 264.632 24.3182C264.931 24.1174 265.081 23.8693 265.081 23.5739C265.081 23.3239 264.984 23.1174 264.791 22.9545C264.602 22.7917 264.306 22.6667 263.905 22.5795L262.416 22.267C261.579 22.0928 260.96 21.7992 260.558 21.3864C260.157 20.9697 259.958 20.4432 259.962 19.8068C259.958 19.2689 260.104 18.803 260.399 18.4091C260.698 18.0114 261.113 17.7045 261.643 17.4886C262.178 17.2689 262.793 17.1591 263.49 17.1591C264.513 17.1591 265.318 17.3769 265.905 17.8125C266.496 18.2481 266.861 18.8371 267.001 19.5795ZM272.692 26.1705C271.821 26.1705 271.072 25.9792 270.447 25.5966C269.826 25.214 269.347 24.6856 269.01 24.0114C268.677 23.3333 268.51 22.553 268.51 21.6705C268.51 20.7841 268.68 20.0019 269.021 19.3239C269.362 18.642 269.843 18.1117 270.464 17.733C271.089 17.3504 271.828 17.1591 272.68 17.1591C273.389 17.1591 274.016 17.2898 274.561 17.5511C275.11 17.8087 275.548 18.1742 275.874 18.6477C276.199 19.1174 276.385 19.6667 276.43 20.2955H274.464C274.385 19.875 274.196 19.5246 273.896 19.2443C273.601 18.9602 273.205 18.8182 272.709 18.8182C272.288 18.8182 271.919 18.9318 271.601 19.1591C271.283 19.3826 271.035 19.7045 270.857 20.125C270.682 20.5455 270.595 21.0492 270.595 21.6364C270.595 22.2311 270.682 22.7424 270.857 23.1705C271.031 23.5947 271.275 23.9223 271.589 24.1534C271.908 24.3807 272.281 24.4943 272.709 24.4943C273.012 24.4943 273.283 24.4375 273.521 24.3239C273.764 24.2064 273.966 24.0379 274.129 23.8182C274.292 23.5985 274.404 23.3314 274.464 23.017H276.43C276.381 23.6345 276.199 24.1818 275.885 24.6591C275.571 25.1326 275.143 25.5038 274.601 25.7727C274.059 26.0379 273.423 26.1705 272.692 26.1705ZM281.926 26.1705C281.074 26.1705 280.335 25.983 279.71 25.608C279.085 25.233 278.6 24.7083 278.256 24.0341C277.915 23.3598 277.744 22.572 277.744 21.6705C277.744 20.7689 277.915 19.9792 278.256 19.3011C278.6 18.6231 279.085 18.0966 279.71 17.7216C280.335 17.3466 281.074 17.1591 281.926 17.1591C282.778 17.1591 283.517 17.3466 284.142 17.7216C284.767 18.0966 285.25 18.6231 285.591 19.3011C285.936 19.9792 286.108 20.7689 286.108 21.6705C286.108 22.572 285.936 23.3598 285.591 24.0341C285.25 24.7083 284.767 25.233 284.142 25.608C283.517 25.983 282.778 26.1705 281.926 26.1705ZM281.938 24.5227C282.4 24.5227 282.786 24.3958 283.097 24.142C283.407 23.8845 283.638 23.5398 283.79 23.108C283.945 22.6761 284.023 22.1951 284.023 21.6648C284.023 21.1307 283.945 20.6477 283.79 20.2159C283.638 19.7803 283.407 19.4337 283.097 19.1761C282.786 18.9186 282.4 18.7898 281.938 18.7898C281.464 18.7898 281.07 18.9186 280.756 19.1761C280.445 19.4337 280.212 19.7803 280.057 20.2159C279.905 20.6477 279.83 21.1307 279.83 21.6648C279.83 22.1951 279.905 22.6761 280.057 23.108C280.212 23.5398 280.445 23.8845 280.756 24.142C281.07 24.3958 281.464 24.5227 281.938 24.5227ZM292.212 17.2727V18.8636H287.195V17.2727H292.212ZM288.433 15.1818H290.49V23.375C290.49 23.6515 290.532 23.8636 290.615 24.0114C290.702 24.1553 290.816 24.2538 290.956 24.3068C291.096 24.3598 291.251 24.3864 291.422 24.3864C291.551 24.3864 291.668 24.3769 291.774 24.358C291.884 24.339 291.967 24.322 292.024 24.3068L292.371 25.9148C292.261 25.9527 292.104 25.9943 291.899 26.0398C291.698 26.0852 291.452 26.1117 291.161 26.1193C290.645 26.1345 290.181 26.0568 289.768 25.8864C289.356 25.7121 289.028 25.4432 288.786 25.0795C288.547 24.7159 288.429 24.2614 288.433 23.7159V15.1818ZM296.443 26.1761C295.89 26.1761 295.392 26.0777 294.949 25.8807C294.509 25.6799 294.161 25.3845 293.903 24.9943C293.65 24.6042 293.523 24.1231 293.523 23.5511C293.523 23.0587 293.614 22.6515 293.795 22.3295C293.977 22.0076 294.225 21.75 294.54 21.5568C294.854 21.3636 295.208 21.2178 295.602 21.1193C296 21.017 296.411 20.9432 296.835 20.8977C297.347 20.8447 297.761 20.7973 298.08 20.7557C298.398 20.7102 298.629 20.642 298.773 20.5511C298.92 20.4564 298.994 20.3106 298.994 20.1136V20.0795C298.994 19.6515 298.867 19.3201 298.614 19.0852C298.36 18.8504 297.994 18.733 297.517 18.733C297.013 18.733 296.614 18.8428 296.318 19.0625C296.027 19.2822 295.83 19.5417 295.727 19.8409L293.807 19.5682C293.958 19.0379 294.208 18.5947 294.557 18.2386C294.905 17.8788 295.331 17.6098 295.835 17.4318C296.339 17.25 296.896 17.1591 297.506 17.1591C297.926 17.1591 298.345 17.2083 298.761 17.3068C299.178 17.4053 299.559 17.5682 299.903 17.7955C300.248 18.0189 300.525 18.3239 300.733 18.7102C300.945 19.0966 301.051 19.5795 301.051 20.1591V26H299.074V24.8011H299.006C298.881 25.0436 298.705 25.2708 298.477 25.483C298.254 25.6913 297.972 25.8598 297.631 25.9886C297.294 26.1136 296.898 26.1761 296.443 26.1761ZM296.977 24.6648C297.39 24.6648 297.748 24.5833 298.051 24.4205C298.354 24.2538 298.587 24.0341 298.75 23.7614C298.917 23.4886 299 23.1913 299 22.8693V21.8409C298.936 21.8939 298.826 21.9432 298.67 21.9886C298.519 22.0341 298.348 22.0739 298.159 22.108C297.97 22.142 297.782 22.1723 297.597 22.1989C297.411 22.2254 297.25 22.2481 297.114 22.267C296.807 22.3087 296.532 22.3769 296.29 22.4716C296.047 22.5663 295.856 22.6989 295.716 22.8693C295.576 23.036 295.506 23.2519 295.506 23.517C295.506 23.8958 295.644 24.1818 295.92 24.375C296.197 24.5682 296.549 24.6648 296.977 24.6648ZM305.636 14.3636L305.449 22.5795H303.619L303.438 14.3636H305.636ZM304.534 26.125C304.189 26.125 303.894 26.0038 303.648 25.7614C303.405 25.5189 303.284 25.2235 303.284 24.875C303.284 24.5341 303.405 24.2424 303.648 24C303.894 23.7576 304.189 23.6364 304.534 23.6364C304.871 23.6364 305.163 23.7576 305.409 24C305.659 24.2424 305.784 24.5341 305.784 24.875C305.784 25.1061 305.725 25.3163 305.608 25.5057C305.494 25.6951 305.343 25.8466 305.153 25.9602C304.968 26.0701 304.761 26.125 304.534 26.125Z" fill="white"/>
</svg>
