<svg width="118" height="40" viewBox="0 0 118 40" fill="none" xmlns="http://www.w3.org/2000/svg">
<rect x="0.5" y="0.5" width="117" height="39" rx="7.5" fill="#FFFDFB"/>
<rect x="0.5" y="0.5" width="117" height="39" rx="7.5" stroke="#BBBBBB"/>
<path d="M25.3743 26V14.3636H29.7379C30.6319 14.3636 31.3819 14.5189 31.9879 14.8295C32.5978 15.1402 33.058 15.5758 33.3686 16.1364C33.683 16.6932 33.8402 17.3428 33.8402 18.0852C33.8402 18.8314 33.6811 19.4792 33.3629 20.0284C33.0485 20.5739 32.5845 20.9962 31.9709 21.2955C31.3572 21.5909 30.6035 21.7386 29.7095 21.7386H26.6016V19.9886H29.4254C29.9482 19.9886 30.3762 19.9167 30.7095 19.7727C31.0429 19.625 31.2891 19.411 31.4482 19.1307C31.611 18.8466 31.6925 18.4981 31.6925 18.0852C31.6925 17.6723 31.611 17.3201 31.4482 17.0284C31.2853 16.733 31.0372 16.5095 30.7038 16.358C30.3705 16.2027 29.9406 16.125 29.4141 16.125H27.4822V26H25.3743ZM31.3857 20.7273L34.2663 26H31.9141L29.0845 20.7273H31.3857ZM39.4283 26.1705C38.5533 26.1705 37.7976 25.9886 37.1612 25.625C36.5286 25.2576 36.0419 24.7386 35.701 24.0682C35.3601 23.3939 35.1896 22.6004 35.1896 21.6875C35.1896 20.7898 35.3601 20.0019 35.701 19.3239C36.0457 18.642 36.5268 18.1117 37.1442 17.733C37.7616 17.3504 38.487 17.1591 39.3203 17.1591C39.8582 17.1591 40.3658 17.2462 40.843 17.4205C41.3241 17.5909 41.7483 17.8561 42.1158 18.2159C42.487 18.5758 42.7786 19.0341 42.9908 19.5909C43.2029 20.1439 43.3089 20.803 43.3089 21.5682V22.1989H36.1555V20.8125H41.3374C41.3336 20.4186 41.2483 20.0682 41.0817 19.7614C40.915 19.4508 40.6821 19.2064 40.3828 19.0284C40.0874 18.8504 39.7427 18.7614 39.3487 18.7614C38.9283 18.7614 38.5589 18.8636 38.2408 19.0682C37.9226 19.2689 37.6745 19.5341 37.4964 19.8636C37.3222 20.1894 37.2332 20.5473 37.2294 20.9375V22.1477C37.2294 22.6553 37.3222 23.0909 37.5078 23.4545C37.6934 23.8144 37.9529 24.0909 38.2862 24.2841C38.6196 24.4735 39.0097 24.5682 39.4567 24.5682C39.7559 24.5682 40.0268 24.5265 40.2692 24.4432C40.5116 24.3561 40.7218 24.2292 40.8999 24.0625C41.0779 23.8958 41.2124 23.6894 41.3033 23.4432L43.2237 23.6591C43.1025 24.1667 42.8714 24.6098 42.5305 24.9886C42.1934 25.3636 41.7616 25.6553 41.2351 25.8636C40.7086 26.0682 40.1063 26.1705 39.4283 26.1705ZM48.8445 29.4545C48.1058 29.4545 47.4714 29.3542 46.9411 29.1534C46.4107 28.9564 45.9846 28.6913 45.6626 28.358C45.3407 28.0246 45.1172 27.6553 44.9922 27.25L46.8445 26.8011C46.9278 26.9716 47.049 27.1402 47.2081 27.3068C47.3672 27.4773 47.5812 27.6174 47.8501 27.7273C48.1229 27.8409 48.4657 27.8977 48.8786 27.8977C49.4619 27.8977 49.9448 27.7557 50.3274 27.4716C50.71 27.1913 50.9013 26.7292 50.9013 26.0852V24.4318H50.799C50.6929 24.6439 50.5376 24.8617 50.3331 25.0852C50.1323 25.3087 49.8653 25.4962 49.532 25.6477C49.2024 25.7992 48.7876 25.875 48.2876 25.875C47.6172 25.875 47.0092 25.7178 46.4638 25.4034C45.9221 25.0852 45.4903 24.6117 45.1683 23.983C44.8501 23.3504 44.6911 22.5587 44.6911 21.608C44.6911 20.6496 44.8501 19.8409 45.1683 19.1818C45.4903 18.5189 45.924 18.017 46.4695 17.6761C47.0149 17.3314 47.6229 17.1591 48.2933 17.1591C48.8047 17.1591 49.2251 17.2462 49.5547 17.4205C49.888 17.5909 50.1532 17.7973 50.3501 18.0398C50.5471 18.2784 50.6967 18.5038 50.799 18.7159H50.9126V17.2727H52.9411V26.142C52.9411 26.8883 52.763 27.5057 52.407 27.9943C52.0509 28.483 51.5642 28.8485 50.9467 29.0909C50.3293 29.3333 49.6286 29.4545 48.8445 29.4545ZM48.8615 24.2614C49.2971 24.2614 49.6683 24.1553 49.9751 23.9432C50.282 23.7311 50.5149 23.4261 50.674 23.0284C50.8331 22.6307 50.9126 22.1534 50.9126 21.5966C50.9126 21.0473 50.8331 20.5663 50.674 20.1534C50.5187 19.7405 50.2876 19.4205 49.9808 19.1932C49.6778 18.9621 49.3047 18.8466 48.8615 18.8466C48.4032 18.8466 48.0206 18.9659 47.7138 19.2045C47.407 19.4432 47.1759 19.7708 47.0206 20.1875C46.8653 20.6004 46.7876 21.0701 46.7876 21.5966C46.7876 22.1307 46.8653 22.5985 47.0206 23C47.1797 23.3977 47.4126 23.7083 47.7195 23.9318C48.0301 24.1515 48.4107 24.2614 48.8615 24.2614ZM55.049 26V17.2727H57.0433V18.7273H57.1342C57.2933 18.2235 57.5661 17.8352 57.9524 17.5625C58.3426 17.286 58.7876 17.1477 59.2876 17.1477C59.4013 17.1477 59.5282 17.1534 59.6683 17.1648C59.8123 17.1723 59.9316 17.1856 60.0263 17.2045V19.0966C59.9392 19.0663 59.8009 19.0398 59.6115 19.017C59.4259 18.9905 59.246 18.9773 59.0717 18.9773C58.6967 18.9773 58.3596 19.0587 58.0604 19.2216C57.7649 19.3807 57.532 19.6023 57.3615 19.8864C57.1911 20.1705 57.1058 20.4981 57.1058 20.8693V26H55.049ZM64.897 26.1705C64.022 26.1705 63.2663 25.9886 62.63 25.625C61.9974 25.2576 61.5107 24.7386 61.1697 24.0682C60.8288 23.3939 60.6584 22.6004 60.6584 21.6875C60.6584 20.7898 60.8288 20.0019 61.1697 19.3239C61.5144 18.642 61.9955 18.1117 62.6129 17.733C63.2304 17.3504 63.9557 17.1591 64.7891 17.1591C65.3269 17.1591 65.8345 17.2462 66.3118 17.4205C66.7929 17.5909 67.2171 17.8561 67.5845 18.2159C67.9557 18.5758 68.2474 19.0341 68.4595 19.5909C68.6716 20.1439 68.7777 20.803 68.7777 21.5682V22.1989H61.6243V20.8125H66.8061C66.8023 20.4186 66.7171 20.0682 66.5504 19.7614C66.3838 19.4508 66.1508 19.2064 65.8516 19.0284C65.5561 18.8504 65.2114 18.7614 64.8175 18.7614C64.397 18.7614 64.0277 18.8636 63.7095 19.0682C63.3913 19.2689 63.1432 19.5341 62.9652 19.8636C62.791 20.1894 62.7019 20.5473 62.6982 20.9375V22.1477C62.6982 22.6553 62.791 23.0909 62.9766 23.4545C63.1622 23.8144 63.4216 24.0909 63.755 24.2841C64.0883 24.4735 64.4785 24.5682 64.9254 24.5682C65.2247 24.5682 65.4955 24.5265 65.7379 24.4432C65.9804 24.3561 66.1906 24.2292 66.3686 24.0625C66.5466 23.8958 66.6811 23.6894 66.772 23.4432L68.6925 23.6591C68.5713 24.1667 68.3402 24.6098 67.9993 24.9886C67.6622 25.3636 67.2304 25.6553 66.7038 25.8636C66.1773 26.0682 65.575 26.1705 64.897 26.1705ZM77.4155 19.5795L75.5405 19.7841C75.4875 19.5947 75.3946 19.4167 75.2621 19.25C75.1333 19.0833 74.959 18.9489 74.7393 18.8466C74.5196 18.7443 74.2507 18.6932 73.9325 18.6932C73.5045 18.6932 73.1446 18.786 72.853 18.9716C72.5651 19.1572 72.4231 19.3977 72.4268 19.6932C72.4231 19.947 72.5159 20.1534 72.7053 20.3125C72.8984 20.4716 73.2166 20.6023 73.6598 20.7045L75.1484 21.0227C75.9742 21.2008 76.5878 21.483 76.9893 21.8693C77.3946 22.2557 77.5992 22.7614 77.603 23.3864C77.5992 23.9356 77.4382 24.4205 77.12 24.8409C76.8056 25.2576 76.3681 25.5833 75.8075 25.8182C75.2469 26.053 74.603 26.1705 73.8757 26.1705C72.8075 26.1705 71.9477 25.947 71.2962 25.5C70.6446 25.0492 70.2564 24.4223 70.1314 23.6193L72.1371 23.4261C72.228 23.8201 72.4212 24.1174 72.7166 24.3182C73.0121 24.5189 73.3965 24.6193 73.87 24.6193C74.3587 24.6193 74.7507 24.5189 75.0462 24.3182C75.3454 24.1174 75.495 23.8693 75.495 23.5739C75.495 23.3239 75.3984 23.1174 75.2053 22.9545C75.0159 22.7917 74.7204 22.6667 74.3189 22.5795L72.8303 22.267C71.9931 22.0928 71.3738 21.7992 70.9723 21.3864C70.5708 20.9697 70.3719 20.4432 70.3757 19.8068C70.3719 19.2689 70.5178 18.803 70.8132 18.4091C71.1125 18.0114 71.5272 17.7045 72.0575 17.4886C72.5916 17.2689 73.2071 17.1591 73.9041 17.1591C74.9268 17.1591 75.7318 17.3769 76.3189 17.8125C76.9098 18.2481 77.2753 18.8371 77.4155 19.5795ZM81.8104 26.1761C81.2573 26.1761 80.7592 26.0777 80.3161 25.8807C79.8767 25.6799 79.5282 25.3845 79.2706 24.9943C79.0168 24.6042 78.8899 24.1231 78.8899 23.5511C78.8899 23.0587 78.9808 22.6515 79.1626 22.3295C79.3445 22.0076 79.5926 21.75 79.907 21.5568C80.2214 21.3636 80.5755 21.2178 80.9695 21.1193C81.3672 21.017 81.7782 20.9432 82.2024 20.8977C82.7138 20.8447 83.1286 20.7973 83.4467 20.7557C83.7649 20.7102 83.996 20.642 84.1399 20.5511C84.2876 20.4564 84.3615 20.3106 84.3615 20.1136V20.0795C84.3615 19.6515 84.2346 19.3201 83.9808 19.0852C83.727 18.8504 83.3615 18.733 82.8842 18.733C82.3804 18.733 81.9808 18.8428 81.6854 19.0625C81.3937 19.2822 81.1967 19.5417 81.0945 19.8409L79.174 19.5682C79.3255 19.0379 79.5755 18.5947 79.924 18.2386C80.2725 17.8788 80.6986 17.6098 81.2024 17.4318C81.7062 17.25 82.263 17.1591 82.8729 17.1591C83.2933 17.1591 83.7119 17.2083 84.1286 17.3068C84.5452 17.4053 84.9259 17.5682 85.2706 17.7955C85.6153 18.0189 85.8918 18.3239 86.1001 18.7102C86.3123 19.0966 86.4183 19.5795 86.4183 20.1591V26H84.4411V24.8011H84.3729C84.2479 25.0436 84.0717 25.2708 83.8445 25.483C83.621 25.6913 83.3388 25.8598 82.9979 25.9886C82.6607 26.1136 82.2649 26.1761 81.8104 26.1761ZM82.3445 24.6648C82.7573 24.6648 83.1153 24.5833 83.4183 24.4205C83.7214 24.2538 83.9543 24.0341 84.1172 23.7614C84.2839 23.4886 84.3672 23.1913 84.3672 22.8693V21.8409C84.3028 21.8939 84.1929 21.9432 84.0376 21.9886C83.8861 22.0341 83.7157 22.0739 83.5263 22.108C83.3369 22.142 83.1494 22.1723 82.9638 22.1989C82.7782 22.2254 82.6172 22.2481 82.4808 22.267C82.174 22.3087 81.8994 22.3769 81.657 22.4716C81.4145 22.5663 81.2232 22.6989 81.0831 22.8693C80.9429 23.036 80.8729 23.2519 80.8729 23.517C80.8729 23.8958 81.0111 24.1818 81.2876 24.375C81.5642 24.5682 81.9164 24.6648 82.3445 24.6648ZM88.4865 26V17.2727H90.4808V18.7273H90.5717C90.7308 18.2235 91.0036 17.8352 91.3899 17.5625C91.7801 17.286 92.2251 17.1477 92.7251 17.1477C92.8388 17.1477 92.9657 17.1534 93.1058 17.1648C93.2498 17.1723 93.3691 17.1856 93.4638 17.2045V19.0966C93.3767 19.0663 93.2384 19.0398 93.049 19.017C92.8634 18.9905 92.6835 18.9773 92.5092 18.9773C92.1342 18.9773 91.7971 19.0587 91.4979 19.2216C91.2024 19.3807 90.9695 19.6023 90.799 19.8864C90.6286 20.1705 90.5433 20.4981 90.5433 20.8693V26H88.4865Z" fill="#F39200"/>
</svg>
