<svg width="90" height="40" viewBox="0 0 90 40" fill="none" xmlns="http://www.w3.org/2000/svg">
<rect width="90" height="40" rx="8" fill="#F39200"/>
<path d="M27.5291 14.3636V26H25.4212V14.3636H27.5291ZM31.7777 20.8864V26H29.7209V17.2727H31.6868V18.7557H31.7891C31.9898 18.267 32.3099 17.8788 32.7493 17.5909C33.1925 17.303 33.7398 17.1591 34.3913 17.1591C34.9936 17.1591 35.5182 17.2879 35.9652 17.5455C36.416 17.803 36.7644 18.1761 37.0107 18.6648C37.2607 19.1534 37.3838 19.7462 37.38 20.4432V26H35.3232V20.7614C35.3232 20.178 35.1716 19.7216 34.8686 19.392C34.5694 19.0625 34.1546 18.8977 33.6243 18.8977C33.2644 18.8977 32.9444 18.9773 32.6641 19.1364C32.3875 19.2917 32.1697 19.517 32.0107 19.8125C31.8554 20.108 31.7777 20.4659 31.7777 20.8864ZM39.4709 26V17.2727H41.5277V26H39.4709ZM40.505 16.0341C40.1792 16.0341 39.8989 15.9261 39.6641 15.7102C39.4292 15.4905 39.3118 15.2273 39.3118 14.9205C39.3118 14.6098 39.4292 14.3466 39.6641 14.1307C39.8989 13.911 40.1792 13.8011 40.505 13.8011C40.8345 13.8011 41.1148 13.911 41.3459 14.1307C41.5807 14.3466 41.6982 14.6098 41.6982 14.9205C41.6982 15.2273 41.5807 15.4905 41.3459 15.7102C41.1148 15.9261 40.8345 16.0341 40.505 16.0341ZM47.4496 26.1705C46.5784 26.1705 45.8303 25.9792 45.2053 25.5966C44.584 25.214 44.1049 24.6856 43.7678 24.0114C43.4344 23.3333 43.2678 22.553 43.2678 21.6705C43.2678 20.7841 43.4382 20.0019 43.7791 19.3239C44.12 18.642 44.6011 18.1117 45.2223 17.733C45.8473 17.3504 46.5859 17.1591 47.4382 17.1591C48.1465 17.1591 48.7734 17.2898 49.3189 17.5511C49.8681 17.8087 50.3056 18.1742 50.6314 18.6477C50.9571 19.1174 51.1428 19.6667 51.1882 20.2955H49.2223C49.1428 19.875 48.9534 19.5246 48.6541 19.2443C48.3587 18.9602 47.9628 18.8182 47.4666 18.8182C47.0462 18.8182 46.6768 18.9318 46.3587 19.1591C46.0405 19.3826 45.7924 19.7045 45.6143 20.125C45.4401 20.5455 45.353 21.0492 45.353 21.6364C45.353 22.2311 45.4401 22.7424 45.6143 23.1705C45.7886 23.5947 46.0329 23.9223 46.3473 24.1534C46.6655 24.3807 47.0386 24.4943 47.4666 24.4943C47.7696 24.4943 48.0405 24.4375 48.2791 24.3239C48.5215 24.2064 48.7242 24.0379 48.8871 23.8182C49.05 23.5985 49.1617 23.3314 49.2223 23.017H51.1882C51.139 23.6345 50.9571 24.1818 50.6428 24.6591C50.3284 25.1326 49.9003 25.5038 49.3587 25.7727C48.817 26.0379 48.1806 26.1705 47.4496 26.1705ZM52.8771 26V17.2727H54.9339V26H52.8771ZM53.9112 16.0341C53.5855 16.0341 53.3052 15.9261 53.0703 15.7102C52.8355 15.4905 52.718 15.2273 52.718 14.9205C52.718 14.6098 52.8355 14.3466 53.0703 14.1307C53.3052 13.911 53.5855 13.8011 53.9112 13.8011C54.2408 13.8011 54.5211 13.911 54.7521 14.1307C54.987 14.3466 55.1044 14.6098 55.1044 14.9205C55.1044 15.2273 54.987 15.4905 54.7521 15.7102C54.5211 15.9261 54.2408 16.0341 53.9112 16.0341ZM60.8558 26.1705C60.0036 26.1705 59.2649 25.983 58.6399 25.608C58.0149 25.233 57.5301 24.7083 57.1854 24.0341C56.8445 23.3598 56.674 22.572 56.674 21.6705C56.674 20.7689 56.8445 19.9792 57.1854 19.3011C57.5301 18.6231 58.0149 18.0966 58.6399 17.7216C59.2649 17.3466 60.0036 17.1591 60.8558 17.1591C61.7081 17.1591 62.4467 17.3466 63.0717 17.7216C63.6967 18.0966 64.1797 18.6231 64.5206 19.3011C64.8653 19.9792 65.0376 20.7689 65.0376 21.6705C65.0376 22.572 64.8653 23.3598 64.5206 24.0341C64.1797 24.7083 63.6967 25.233 63.0717 25.608C62.4467 25.983 61.7081 26.1705 60.8558 26.1705ZM60.8672 24.5227C61.3293 24.5227 61.7157 24.3958 62.0263 24.142C62.3369 23.8845 62.5679 23.5398 62.7195 23.108C62.8748 22.6761 62.9524 22.1951 62.9524 21.6648C62.9524 21.1307 62.8748 20.6477 62.7195 20.2159C62.5679 19.7803 62.3369 19.4337 62.0263 19.1761C61.7157 18.9186 61.3293 18.7898 60.8672 18.7898C60.3937 18.7898 59.9998 18.9186 59.6854 19.1761C59.3748 19.4337 59.1418 19.7803 58.9865 20.2159C58.835 20.6477 58.7592 21.1307 58.7592 21.6648C58.7592 22.1951 58.835 22.6761 58.9865 23.108C59.1418 23.5398 59.3748 23.8845 59.6854 24.142C59.9998 24.3958 60.3937 24.5227 60.8672 24.5227Z" fill="white"/>
</svg>
