<svg width="183" height="40" viewBox="0 0 183 40" fill="none" xmlns="http://www.w3.org/2000/svg">
<rect width="183" height="40" rx="8" fill="#D84E2E"/>
<path d="M35.1314 18.2898H33.0064C32.9458 17.9413 32.834 17.6326 32.6712 17.3636C32.5083 17.0909 32.3056 16.8598 32.0632 16.6705C31.8208 16.4811 31.5443 16.339 31.2337 16.2443C30.9268 16.1458 30.5954 16.0966 30.2393 16.0966C29.6068 16.0966 29.0462 16.2557 28.5575 16.5739C28.0689 16.8883 27.6863 17.3504 27.4098 17.9602C27.1333 18.5663 26.995 19.3068 26.995 20.1818C26.995 21.072 27.1333 21.822 27.4098 22.4318C27.6901 23.0379 28.0727 23.4962 28.5575 23.8068C29.0462 24.1136 29.6049 24.267 30.2337 24.267C30.5821 24.267 30.9079 24.2216 31.2109 24.1307C31.5178 24.036 31.7924 23.8977 32.0348 23.7159C32.281 23.5341 32.4875 23.3106 32.6541 23.0455C32.8246 22.7803 32.942 22.4773 33.0064 22.1364L35.1314 22.1477C35.0518 22.7008 34.8795 23.2197 34.6143 23.7045C34.353 24.1894 34.0102 24.6174 33.5859 24.9886C33.1617 25.3561 32.6655 25.6439 32.0973 25.8523C31.5291 26.0568 30.8984 26.1591 30.2053 26.1591C29.1825 26.1591 28.2696 25.9223 27.4666 25.4489C26.6636 24.9754 26.031 24.2917 25.5689 23.3977C25.1068 22.5038 24.8757 21.4318 24.8757 20.1818C24.8757 18.928 25.1087 17.8561 25.5746 16.9659C26.0405 16.072 26.675 15.3883 27.478 14.9148C28.281 14.4413 29.1901 14.2045 30.2053 14.2045C30.853 14.2045 31.4553 14.2955 32.0121 14.4773C32.5689 14.6591 33.0651 14.9261 33.5007 15.2784C33.9363 15.6269 34.2943 16.0549 34.5746 16.5625C34.8587 17.0663 35.0443 17.642 35.1314 18.2898ZM40.7777 26.1705C39.9254 26.1705 39.1868 25.983 38.5618 25.608C37.9368 25.233 37.4519 24.7083 37.1072 24.0341C36.7663 23.3598 36.5959 22.572 36.5959 21.6705C36.5959 20.7689 36.7663 19.9792 37.1072 19.3011C37.4519 18.6231 37.9368 18.0966 38.5618 17.7216C39.1868 17.3466 39.9254 17.1591 40.7777 17.1591C41.63 17.1591 42.3686 17.3466 42.9936 17.7216C43.6186 18.0966 44.1016 18.6231 44.4425 19.3011C44.7872 19.9792 44.9595 20.7689 44.9595 21.6705C44.9595 22.572 44.7872 23.3598 44.4425 24.0341C44.1016 24.7083 43.6186 25.233 42.9936 25.608C42.3686 25.983 41.63 26.1705 40.7777 26.1705ZM40.7891 24.5227C41.2512 24.5227 41.6375 24.3958 41.9482 24.142C42.2588 23.8845 42.4898 23.5398 42.6413 23.108C42.7966 22.6761 42.8743 22.1951 42.8743 21.6648C42.8743 21.1307 42.7966 20.6477 42.6413 20.2159C42.4898 19.7803 42.2588 19.4337 41.9482 19.1761C41.6375 18.9186 41.2512 18.7898 40.7891 18.7898C40.3156 18.7898 39.9216 18.9186 39.6072 19.1761C39.2966 19.4337 39.0637 19.7803 38.9084 20.2159C38.7569 20.6477 38.6811 21.1307 38.6811 21.6648C38.6811 22.1951 38.7569 22.6761 38.9084 23.108C39.0637 23.5398 39.2966 23.8845 39.6072 24.142C39.9216 24.3958 40.3156 24.5227 40.7891 24.5227ZM48.7621 20.8864V26H46.7053V17.2727H48.6712V18.7557H48.7734C48.9742 18.267 49.2943 17.8788 49.7337 17.5909C50.1768 17.303 50.7242 17.1591 51.3757 17.1591C51.978 17.1591 52.5026 17.2879 52.9496 17.5455C53.4003 17.803 53.7488 18.1761 53.995 18.6648C54.245 19.1534 54.3681 19.7462 54.3643 20.4432V26H52.3075V20.7614C52.3075 20.178 52.156 19.7216 51.853 19.392C51.5537 19.0625 51.139 18.8977 50.6087 18.8977C50.2488 18.8977 49.9287 18.9773 49.6484 19.1364C49.3719 19.2917 49.1541 19.517 48.995 19.8125C48.8397 20.108 48.7621 20.4659 48.7621 20.8864ZM60.8757 17.2727V18.8636H55.7166V17.2727H60.8757ZM57.0064 26V16.4489C57.0064 15.8617 57.1276 15.3731 57.37 14.983C57.6162 14.5928 57.9458 14.3011 58.3587 14.108C58.7715 13.9148 59.2299 13.8182 59.7337 13.8182C60.0897 13.8182 60.406 13.8466 60.6825 13.9034C60.959 13.9602 61.1636 14.0114 61.2962 14.0568L60.8871 15.6477C60.8 15.6212 60.6901 15.5947 60.5575 15.5682C60.425 15.5379 60.2772 15.5227 60.1143 15.5227C59.7318 15.5227 59.4609 15.6155 59.3018 15.8011C59.1465 15.983 59.0689 16.2443 59.0689 16.5852V26H57.0064ZM62.4865 26V17.2727H64.5433V26H62.4865ZM63.5206 16.0341C63.1948 16.0341 62.9145 15.9261 62.6797 15.7102C62.4448 15.4905 62.3274 15.2273 62.3274 14.9205C62.3274 14.6098 62.4448 14.3466 62.6797 14.1307C62.9145 13.911 63.1948 13.8011 63.5206 13.8011C63.8501 13.8011 64.1304 13.911 64.3615 14.1307C64.5964 14.3466 64.7138 14.6098 64.7138 14.9205C64.7138 15.2273 64.5964 15.4905 64.3615 15.7102C64.1304 15.9261 63.8501 16.0341 63.5206 16.0341ZM66.6584 26V17.2727H68.6527V18.7273H68.7436C68.9027 18.2235 69.1754 17.8352 69.5618 17.5625C69.9519 17.286 70.397 17.1477 70.897 17.1477C71.0107 17.1477 71.1375 17.1534 71.2777 17.1648C71.4216 17.1723 71.541 17.1856 71.6357 17.2045V19.0966C71.5485 19.0663 71.4103 19.0398 71.2209 19.017C71.0353 18.9905 70.8554 18.9773 70.6811 18.9773C70.3061 18.9773 69.969 19.0587 69.6697 19.2216C69.3743 19.3807 69.1413 19.6023 68.9709 19.8864C68.8004 20.1705 68.7152 20.4981 68.7152 20.8693V26H66.6584ZM73.0021 26V17.2727H74.968V18.7557H75.0703C75.2521 18.2557 75.5533 17.8655 75.9737 17.5852C76.3942 17.3011 76.8961 17.1591 77.4794 17.1591C78.0703 17.1591 78.5684 17.303 78.9737 17.5909C79.3828 17.875 79.6707 18.2633 79.8374 18.7557H79.9283C80.1214 18.2708 80.4472 17.8845 80.9055 17.5966C81.3677 17.3049 81.915 17.1591 82.5476 17.1591C83.3506 17.1591 84.0059 17.4129 84.5135 17.9205C85.0211 18.428 85.2749 19.1686 85.2749 20.142V26H83.2124V20.4602C83.2124 19.9186 83.0684 19.5227 82.7805 19.2727C82.4927 19.0189 82.1404 18.892 81.7237 18.892C81.2275 18.892 80.8393 19.0473 80.5589 19.358C80.2824 19.6648 80.1442 20.0644 80.1442 20.5568V26H78.1271V20.375C78.1271 19.9242 77.9908 19.5644 77.718 19.2955C77.4491 19.0265 77.0968 18.892 76.6612 18.892C76.3658 18.892 76.0968 18.9678 75.8544 19.1193C75.612 19.267 75.4188 19.4773 75.2749 19.75C75.1309 20.0189 75.0589 20.3333 75.0589 20.6932V26H73.0021ZM89.8729 26.1761C89.3198 26.1761 88.8217 26.0777 88.3786 25.8807C87.9392 25.6799 87.5907 25.3845 87.3331 24.9943C87.0793 24.6042 86.9524 24.1231 86.9524 23.5511C86.9524 23.0587 87.0433 22.6515 87.2251 22.3295C87.407 22.0076 87.6551 21.75 87.9695 21.5568C88.2839 21.3636 88.638 21.2178 89.032 21.1193C89.4297 21.017 89.8407 20.9432 90.2649 20.8977C90.7763 20.8447 91.1911 20.7973 91.5092 20.7557C91.8274 20.7102 92.0585 20.642 92.2024 20.5511C92.3501 20.4564 92.424 20.3106 92.424 20.1136V20.0795C92.424 19.6515 92.2971 19.3201 92.0433 19.0852C91.7895 18.8504 91.424 18.733 90.9467 18.733C90.4429 18.733 90.0433 18.8428 89.7479 19.0625C89.4562 19.2822 89.2592 19.5417 89.157 19.8409L87.2365 19.5682C87.388 19.0379 87.638 18.5947 87.9865 18.2386C88.335 17.8788 88.7611 17.6098 89.2649 17.4318C89.7687 17.25 90.3255 17.1591 90.9354 17.1591C91.3558 17.1591 91.7744 17.2083 92.1911 17.3068C92.6077 17.4053 92.9884 17.5682 93.3331 17.7955C93.6778 18.0189 93.9543 18.3239 94.1626 18.7102C94.3748 19.0966 94.4808 19.5795 94.4808 20.1591V26H92.5036V24.8011H92.4354C92.3104 25.0436 92.1342 25.2708 91.907 25.483C91.6835 25.6913 91.4013 25.8598 91.0604 25.9886C90.7232 26.1136 90.3274 26.1761 89.8729 26.1761ZM90.407 24.6648C90.8198 24.6648 91.1778 24.5833 91.4808 24.4205C91.7839 24.2538 92.0168 24.0341 92.1797 23.7614C92.3464 23.4886 92.4297 23.1913 92.4297 22.8693V21.8409C92.3653 21.8939 92.2554 21.9432 92.1001 21.9886C91.9486 22.0341 91.7782 22.0739 91.5888 22.108C91.3994 22.142 91.2119 22.1723 91.0263 22.1989C90.8407 22.2254 90.6797 22.2481 90.5433 22.267C90.2365 22.3087 89.9619 22.3769 89.7195 22.4716C89.477 22.5663 89.2857 22.6989 89.1456 22.8693C89.0054 23.036 88.9354 23.2519 88.9354 23.517C88.9354 23.8958 89.0736 24.1818 89.3501 24.375C89.6267 24.5682 89.9789 24.6648 90.407 24.6648ZM96.549 26V17.2727H98.5433V18.7273H98.6342C98.7933 18.2235 99.0661 17.8352 99.4524 17.5625C99.8426 17.286 100.288 17.1477 100.788 17.1477C100.901 17.1477 101.028 17.1534 101.168 17.1648C101.312 17.1723 101.432 17.1856 101.526 17.2045V19.0966C101.439 19.0663 101.301 19.0398 101.112 19.017C100.926 18.9905 100.746 18.9773 100.572 18.9773C100.197 18.9773 99.8596 19.0587 99.5604 19.2216C99.2649 19.3807 99.032 19.6023 98.8615 19.8864C98.6911 20.1705 98.6058 20.4981 98.6058 20.8693V26H96.549ZM116.913 18.2898H114.788C114.727 17.9413 114.615 17.6326 114.452 17.3636C114.29 17.0909 114.087 16.8598 113.844 16.6705C113.602 16.4811 113.326 16.339 113.015 16.2443C112.708 16.1458 112.377 16.0966 112.021 16.0966C111.388 16.0966 110.827 16.2557 110.339 16.5739C109.85 16.8883 109.468 17.3504 109.191 17.9602C108.915 18.5663 108.776 19.3068 108.776 20.1818C108.776 21.072 108.915 21.822 109.191 22.4318C109.471 23.0379 109.854 23.4962 110.339 23.8068C110.827 24.1136 111.386 24.267 112.015 24.267C112.363 24.267 112.689 24.2216 112.992 24.1307C113.299 24.036 113.574 23.8977 113.816 23.7159C114.062 23.5341 114.269 23.3106 114.435 23.0455C114.606 22.7803 114.723 22.4773 114.788 22.1364L116.913 22.1477C116.833 22.7008 116.661 23.2197 116.396 23.7045C116.134 24.1894 115.791 24.6174 115.367 24.9886C114.943 25.3561 114.447 25.6439 113.879 25.8523C113.31 26.0568 112.68 26.1591 111.987 26.1591C110.964 26.1591 110.051 25.9223 109.248 25.4489C108.445 24.9754 107.812 24.2917 107.35 23.3977C106.888 22.5038 106.657 21.4318 106.657 20.1818C106.657 18.928 106.89 17.8561 107.356 16.9659C107.822 16.072 108.456 15.3883 109.259 14.9148C110.062 14.4413 110.971 14.2045 111.987 14.2045C112.634 14.2045 113.237 14.2955 113.793 14.4773C114.35 14.6591 114.846 14.9261 115.282 15.2784C115.718 15.6269 116.076 16.0549 116.356 16.5625C116.64 17.0663 116.826 17.642 116.913 18.2898ZM122.559 26.1705C121.707 26.1705 120.968 25.983 120.343 25.608C119.718 25.233 119.233 24.7083 118.888 24.0341C118.548 23.3598 118.377 22.572 118.377 21.6705C118.377 20.7689 118.548 19.9792 118.888 19.3011C119.233 18.6231 119.718 18.0966 120.343 17.7216C120.968 17.3466 121.707 17.1591 122.559 17.1591C123.411 17.1591 124.15 17.3466 124.775 17.7216C125.4 18.0966 125.883 18.6231 126.224 19.3011C126.568 19.9792 126.741 20.7689 126.741 21.6705C126.741 22.572 126.568 23.3598 126.224 24.0341C125.883 24.7083 125.4 25.233 124.775 25.608C124.15 25.983 123.411 26.1705 122.559 26.1705ZM122.57 24.5227C123.032 24.5227 123.419 24.3958 123.729 24.142C124.04 23.8845 124.271 23.5398 124.423 23.108C124.578 22.6761 124.656 22.1951 124.656 21.6648C124.656 21.1307 124.578 20.6477 124.423 20.2159C124.271 19.7803 124.04 19.4337 123.729 19.1761C123.419 18.9186 123.032 18.7898 122.57 18.7898C122.097 18.7898 121.703 18.9186 121.388 19.1761C121.078 19.4337 120.845 19.7803 120.69 20.2159C120.538 20.6477 120.462 21.1307 120.462 21.6648C120.462 22.1951 120.538 22.6761 120.69 23.108C120.845 23.5398 121.078 23.8845 121.388 24.142C121.703 24.3958 122.097 24.5227 122.57 24.5227ZM128.487 26V17.2727H130.481V18.7273H130.572C130.731 18.2235 131.004 17.8352 131.39 17.5625C131.78 17.286 132.225 17.1477 132.725 17.1477C132.839 17.1477 132.966 17.1534 133.106 17.1648C133.25 17.1723 133.369 17.1856 133.464 17.2045V19.0966C133.377 19.0663 133.238 19.0398 133.049 19.017C132.863 18.9905 132.683 18.9773 132.509 18.9773C132.134 18.9773 131.797 19.0587 131.498 19.2216C131.202 19.3807 130.969 19.6023 130.799 19.8864C130.629 20.1705 130.543 20.4981 130.543 20.8693V26H128.487ZM134.83 26V17.2727H136.825V18.7273H136.915C137.075 18.2235 137.347 17.8352 137.734 17.5625C138.124 17.286 138.569 17.1477 139.069 17.1477C139.183 17.1477 139.309 17.1534 139.45 17.1648C139.594 17.1723 139.713 17.1856 139.808 17.2045V19.0966C139.72 19.0663 139.582 19.0398 139.393 19.017C139.207 18.9905 139.027 18.9773 138.853 18.9773C138.478 18.9773 138.141 19.0587 137.842 19.2216C137.546 19.3807 137.313 19.6023 137.143 19.8864C136.972 20.1705 136.887 20.4981 136.887 20.8693V26H134.83ZM144.678 26.1705C143.803 26.1705 143.048 25.9886 142.411 25.625C141.779 25.2576 141.292 24.7386 140.951 24.0682C140.61 23.3939 140.44 22.6004 140.44 21.6875C140.44 20.7898 140.61 20.0019 140.951 19.3239C141.296 18.642 141.777 18.1117 142.394 17.733C143.012 17.3504 143.737 17.1591 144.57 17.1591C145.108 17.1591 145.616 17.2462 146.093 17.4205C146.574 17.5909 146.998 17.8561 147.366 18.2159C147.737 18.5758 148.029 19.0341 148.241 19.5909C148.453 20.1439 148.559 20.803 148.559 21.5682V22.1989H141.406V20.8125H146.587C146.584 20.4186 146.498 20.0682 146.332 19.7614C146.165 19.4508 145.932 19.2064 145.633 19.0284C145.337 18.8504 144.993 18.7614 144.599 18.7614C144.178 18.7614 143.809 18.8636 143.491 19.0682C143.173 19.2689 142.924 19.5341 142.746 19.8636C142.572 20.1894 142.483 20.5473 142.479 20.9375V22.1477C142.479 22.6553 142.572 23.0909 142.758 23.4545C142.943 23.8144 143.203 24.0909 143.536 24.2841C143.87 24.4735 144.26 24.5682 144.707 24.5682C145.006 24.5682 145.277 24.5265 145.519 24.4432C145.762 24.3561 145.972 24.2292 146.15 24.0625C146.328 23.8958 146.462 23.6894 146.553 23.4432L148.474 23.6591C148.353 24.1667 148.121 24.6098 147.781 24.9886C147.443 25.3636 147.012 25.6553 146.485 25.8636C145.959 26.0682 145.356 26.1705 144.678 26.1705ZM154.106 26.1705C153.254 26.1705 152.515 25.983 151.89 25.608C151.265 25.233 150.78 24.7083 150.435 24.0341C150.094 23.3598 149.924 22.572 149.924 21.6705C149.924 20.7689 150.094 19.9792 150.435 19.3011C150.78 18.6231 151.265 18.0966 151.89 17.7216C152.515 17.3466 153.254 17.1591 154.106 17.1591C154.958 17.1591 155.697 17.3466 156.322 17.7216C156.947 18.0966 157.43 18.6231 157.771 19.3011C158.115 19.9792 158.288 20.7689 158.288 21.6705C158.288 22.572 158.115 23.3598 157.771 24.0341C157.43 24.7083 156.947 25.233 156.322 25.608C155.697 25.983 154.958 26.1705 154.106 26.1705ZM154.117 24.5227C154.579 24.5227 154.966 24.3958 155.276 24.142C155.587 23.8845 155.818 23.5398 155.969 23.108C156.125 22.6761 156.202 22.1951 156.202 21.6648C156.202 21.1307 156.125 20.6477 155.969 20.2159C155.818 19.7803 155.587 19.4337 155.276 19.1761C154.966 18.9186 154.579 18.7898 154.117 18.7898C153.644 18.7898 153.25 18.9186 152.935 19.1761C152.625 19.4337 152.392 19.7803 152.237 20.2159C152.085 20.6477 152.009 21.1307 152.009 21.6648C152.009 22.1951 152.085 22.6761 152.237 23.108C152.392 23.5398 152.625 23.8845 152.935 24.142C153.25 24.3958 153.644 24.5227 154.117 24.5227Z" fill="white"/>
</svg>
