<svg width="271" height="41" viewBox="0 0 271 41" fill="none" xmlns="http://www.w3.org/2000/svg">
<path d="M22.464 40.784C19.3653 40.784 16.4907 40.2987 13.84 39.328C11.2267 38.32 8.94933 36.9013 7.008 35.072C5.104 33.2427 3.61067 31.096 2.528 28.632C1.44533 26.1307 0.904 23.3867 0.904 20.4C0.904 17.4133 1.44533 14.688 2.528 12.224C3.61067 9.72267 5.104 7.55733 7.008 5.728C8.94933 3.89867 11.2267 2.49867 13.84 1.528C16.4907 0.519998 19.3653 0.0159974 22.464 0.0159974C26.0853 0.0159974 29.3147 0.650665 32.152 1.92C35.0267 3.18933 37.416 5.01867 39.32 7.408L32.264 13.792C30.9947 12.2987 29.5947 11.16 28.064 10.376C26.5707 9.592 24.8907 9.2 23.024 9.2C21.4187 9.2 19.944 9.46133 18.6 9.984C17.256 10.5067 16.0987 11.272 15.128 12.28C14.1947 13.2507 13.448 14.4267 12.888 15.808C12.3653 17.1893 12.104 18.72 12.104 20.4C12.104 22.08 12.3653 23.6107 12.888 24.992C13.448 26.3733 14.1947 27.568 15.128 28.576C16.0987 29.5467 17.256 30.2933 18.6 30.816C19.944 31.3387 21.4187 31.6 23.024 31.6C24.8907 31.6 26.5707 31.208 28.064 30.424C29.5947 29.64 30.9947 28.5013 32.264 27.008L39.32 33.392C37.416 35.744 35.0267 37.5733 32.152 38.88C29.3147 40.1493 26.0853 40.784 22.464 40.784ZM58.0074 40.504C54.6847 40.504 51.7354 39.832 49.1594 38.488C46.5834 37.144 44.5487 35.296 43.0554 32.944C41.5994 30.5547 40.8714 27.8293 40.8714 24.768C40.8714 21.7067 41.5994 19 43.0554 16.648C44.5487 14.296 46.5834 12.4667 49.1594 11.16C51.7354 9.816 54.6847 9.144 58.0074 9.144C61.33 9.144 64.2794 9.816 66.8554 11.16C69.4687 12.4667 71.5034 14.296 72.9594 16.648C74.4154 19 75.1434 21.7067 75.1434 24.768C75.1434 27.8293 74.4154 30.5547 72.9594 32.944C71.5034 35.296 69.4687 37.144 66.8554 38.488C64.2794 39.832 61.33 40.504 58.0074 40.504ZM58.0074 32.048C59.2394 32.048 60.322 31.768 61.2554 31.208C62.226 30.648 62.9914 29.8267 63.5514 28.744C64.1114 27.624 64.3914 26.2987 64.3914 24.768C64.3914 23.2373 64.1114 21.9493 63.5514 20.904C62.9914 19.8213 62.226 19 61.2554 18.44C60.322 17.88 59.2394 17.6 58.0074 17.6C56.8127 17.6 55.73 17.88 54.7594 18.44C53.826 19 53.0607 19.8213 52.4634 20.904C51.9034 21.9493 51.6234 23.2373 51.6234 24.768C51.6234 26.2987 51.9034 27.624 52.4634 28.744C53.0607 29.8267 53.826 30.648 54.7594 31.208C55.73 31.768 56.8127 32.048 58.0074 32.048ZM99.8403 9.144C102.192 9.144 104.32 9.62933 106.224 10.6C108.128 11.5333 109.622 12.9893 110.704 14.968C111.824 16.9467 112.384 19.504 112.384 22.64V40H101.744V24.376C101.744 22.2107 101.296 20.6427 100.4 19.672C99.5416 18.664 98.3283 18.16 96.7603 18.16C95.6403 18.16 94.6136 18.4213 93.6803 18.944C92.7469 19.4293 92.0189 20.1947 91.4963 21.24C90.9736 22.2853 90.7123 23.648 90.7123 25.328V40H80.0723V9.648H90.2083V18.272L88.2483 15.752C89.4056 13.5493 90.9923 11.9067 93.0083 10.824C95.0243 9.704 97.3016 9.144 99.8403 9.144ZM132.616 40.504C128.734 40.504 125.71 39.552 123.544 37.648C121.379 35.7067 120.296 32.7947 120.296 28.912V2.872H130.936V28.8C130.936 29.8827 131.235 30.7413 131.832 31.376C132.43 31.9733 133.195 32.272 134.128 32.272C135.398 32.272 136.48 31.9547 137.376 31.32L140.008 38.768C139.112 39.3653 138.011 39.7947 136.704 40.056C135.398 40.3547 134.035 40.504 132.616 40.504ZM115.872 18.72V10.768H137.88V18.72H115.872ZM162.647 40V34.344L161.919 32.944V22.528C161.919 20.848 161.397 19.56 160.351 18.664C159.343 17.7307 157.719 17.264 155.479 17.264C154.023 17.264 152.549 17.5067 151.055 17.992C149.562 18.44 148.293 19.0747 147.247 19.896L143.663 12.672C145.381 11.552 147.434 10.6933 149.823 10.096C152.25 9.46133 154.658 9.144 157.047 9.144C161.975 9.144 165.783 10.2827 168.471 12.56C171.197 14.8 172.559 18.328 172.559 23.144V40H162.647ZM153.687 40.504C151.261 40.504 149.207 40.0933 147.527 39.272C145.847 38.4507 144.559 37.3307 143.663 35.912C142.805 34.4933 142.375 32.9067 142.375 31.152C142.375 29.2853 142.842 27.68 143.775 26.336C144.746 24.9547 146.221 23.9093 148.199 23.2C150.178 22.4533 152.735 22.08 155.871 22.08H163.039V27.624H157.327C155.61 27.624 154.397 27.904 153.687 28.464C153.015 29.024 152.679 29.7707 152.679 30.704C152.679 31.6373 153.034 32.384 153.743 32.944C154.453 33.504 155.423 33.784 156.655 33.784C157.813 33.784 158.858 33.504 159.791 32.944C160.762 32.3467 161.471 31.4507 161.919 30.256L163.375 34.176C162.815 36.2667 161.714 37.8533 160.071 38.936C158.466 39.9813 156.338 40.504 153.687 40.504ZM195.17 40.504C191.81 40.504 188.805 39.832 186.154 38.488C183.541 37.144 181.488 35.296 179.994 32.944C178.501 30.5547 177.754 27.8293 177.754 24.768C177.754 21.7067 178.501 19 179.994 16.648C181.488 14.296 183.541 12.4667 186.154 11.16C188.805 9.816 191.81 9.144 195.17 9.144C198.605 9.144 201.573 9.872 204.074 11.328C206.576 12.784 208.349 14.8373 209.394 17.488L201.162 21.688C200.453 20.2693 199.576 19.2427 198.53 18.608C197.485 17.936 196.346 17.6 195.114 17.6C193.882 17.6 192.762 17.88 191.754 18.44C190.746 19 189.944 19.8213 189.346 20.904C188.786 21.9493 188.506 23.2373 188.506 24.768C188.506 26.336 188.786 27.6613 189.346 28.744C189.944 29.8267 190.746 30.648 191.754 31.208C192.762 31.768 193.882 32.048 195.114 32.048C196.346 32.048 197.485 31.7307 198.53 31.096C199.576 30.424 200.453 29.3787 201.162 27.96L209.394 32.16C208.349 34.8107 206.576 36.864 204.074 38.32C201.573 39.776 198.605 40.504 195.17 40.504ZM227.445 40.504C223.562 40.504 220.538 39.552 218.373 37.648C216.207 35.7067 215.125 32.7947 215.125 28.912V2.872H225.765V28.8C225.765 29.8827 226.063 30.7413 226.661 31.376C227.258 31.9733 228.023 32.272 228.957 32.272C230.226 32.272 231.309 31.9547 232.205 31.32L234.837 38.768C233.941 39.3653 232.839 39.7947 231.533 40.056C230.226 40.3547 228.863 40.504 227.445 40.504ZM210.701 18.72V10.768H232.709V18.72H210.701ZM253.296 40.504C249.974 40.504 247.024 39.832 244.448 38.488C241.872 37.144 239.838 35.296 238.344 32.944C236.888 30.5547 236.16 27.8293 236.16 24.768C236.16 21.7067 236.888 19 238.344 16.648C239.838 14.296 241.872 12.4667 244.448 11.16C247.024 9.816 249.974 9.144 253.296 9.144C256.619 9.144 259.568 9.816 262.144 11.16C264.758 12.4667 266.792 14.296 268.248 16.648C269.704 19 270.432 21.7067 270.432 24.768C270.432 27.8293 269.704 30.5547 268.248 32.944C266.792 35.296 264.758 37.144 262.144 38.488C259.568 39.832 256.619 40.504 253.296 40.504ZM253.296 32.048C254.528 32.048 255.611 31.768 256.544 31.208C257.515 30.648 258.28 29.8267 258.84 28.744C259.4 27.624 259.68 26.2987 259.68 24.768C259.68 23.2373 259.4 21.9493 258.84 20.904C258.28 19.8213 257.515 19 256.544 18.44C255.611 17.88 254.528 17.6 253.296 17.6C252.102 17.6 251.019 17.88 250.048 18.44C249.115 19 248.35 19.8213 247.752 20.904C247.192 21.9493 246.912 23.2373 246.912 24.768C246.912 26.2987 247.192 27.624 247.752 28.744C248.35 29.8267 249.115 30.648 250.048 31.208C251.019 31.768 252.102 32.048 253.296 32.048Z" fill="white"/>
</svg>
