<svg width="280" height="300" viewBox="0 0 280 300" fill="none" xmlns="http://www.w3.org/2000/svg">
<path d="M1 8C1 4.13401 4.13401 1 8 1H270C274.971 1 279 5.02944 279 10V30C279 34.9706 274.971 39 270 39H10C5.02943 39 1 34.9706 1 30V8Z" fill="#FFFDFB" stroke="#B9A78E" stroke-width="2"/>
<path d="M26.9602 14.3636V26H25.0852L19.6023 18.0739H19.5057V26H17.3977V14.3636H19.2841L24.7614 22.2955H24.8636V14.3636H26.9602ZM32.973 26.1705C32.1207 26.1705 31.3821 25.983 30.7571 25.608C30.1321 25.233 29.6473 24.7083 29.3026 24.0341C28.9616 23.3598 28.7912 22.572 28.7912 21.6705C28.7912 20.7689 28.9616 19.9792 29.3026 19.3011C29.6473 18.6231 30.1321 18.0966 30.7571 17.7216C31.3821 17.3466 32.1207 17.1591 32.973 17.1591C33.8253 17.1591 34.5639 17.3466 35.1889 17.7216C35.8139 18.0966 36.2969 18.6231 36.6378 19.3011C36.9825 19.9792 37.1548 20.7689 37.1548 21.6705C37.1548 22.572 36.9825 23.3598 36.6378 24.0341C36.2969 24.7083 35.8139 25.233 35.1889 25.608C34.5639 25.983 33.8253 26.1705 32.973 26.1705ZM32.9844 24.5227C33.4465 24.5227 33.8329 24.3958 34.1435 24.142C34.4541 23.8845 34.6851 23.5398 34.8366 23.108C34.992 22.6761 35.0696 22.1951 35.0696 21.6648C35.0696 21.1307 34.992 20.6477 34.8366 20.2159C34.6851 19.7803 34.4541 19.4337 34.1435 19.1761C33.8329 18.9186 33.4465 18.7898 32.9844 18.7898C32.5109 18.7898 32.117 18.9186 31.8026 19.1761C31.492 19.4337 31.259 19.7803 31.1037 20.2159C30.9522 20.6477 30.8764 21.1307 30.8764 21.6648C30.8764 22.1951 30.9522 22.6761 31.1037 23.108C31.259 23.5398 31.492 23.8845 31.8026 24.142C32.117 24.3958 32.5109 24.5227 32.9844 24.5227ZM38.9006 26V17.2727H40.8665V18.7557H40.9688C41.1506 18.2557 41.4517 17.8655 41.8722 17.5852C42.2926 17.3011 42.7945 17.1591 43.3778 17.1591C43.9688 17.1591 44.4669 17.303 44.8722 17.5909C45.2813 17.875 45.5691 18.2633 45.7358 18.7557H45.8267C46.0199 18.2708 46.3456 17.8845 46.804 17.5966C47.2661 17.3049 47.8134 17.1591 48.446 17.1591C49.2491 17.1591 49.9044 17.4129 50.4119 17.9205C50.9195 18.428 51.1733 19.1686 51.1733 20.142V26H49.1108V20.4602C49.1108 19.9186 48.9669 19.5227 48.679 19.2727C48.3911 19.0189 48.0388 18.892 47.6222 18.892C47.1259 18.892 46.7377 19.0473 46.4574 19.358C46.1809 19.6648 46.0426 20.0644 46.0426 20.5568V26H44.0256V20.375C44.0256 19.9242 43.8892 19.5644 43.6165 19.2955C43.3475 19.0265 42.9953 18.892 42.5597 18.892C42.2642 18.892 41.9953 18.9678 41.7528 19.1193C41.5104 19.267 41.3172 19.4773 41.1733 19.75C41.0294 20.0189 40.9574 20.3333 40.9574 20.6932V26H38.9006ZM53.3509 26V14.3636H55.4077V18.7159H55.4929C55.599 18.5038 55.7486 18.2784 55.9418 18.0398C56.1349 17.7973 56.3963 17.5909 56.7259 17.4205C57.0554 17.2462 57.4759 17.1591 57.9872 17.1591C58.6615 17.1591 59.2694 17.3314 59.8111 17.6761C60.3565 18.017 60.7884 18.5227 61.1065 19.1932C61.4285 19.8598 61.5895 20.678 61.5895 21.6477C61.5895 22.6061 61.4323 23.4205 61.1179 24.0909C60.8035 24.7614 60.3755 25.2727 59.8338 25.625C59.2921 25.9773 58.6785 26.1534 57.9929 26.1534C57.4929 26.1534 57.0781 26.0701 56.7486 25.9034C56.419 25.7367 56.1539 25.536 55.9531 25.3011C55.7562 25.0625 55.6027 24.8371 55.4929 24.625H55.3736V26H53.3509ZM55.3679 21.6364C55.3679 22.2008 55.4474 22.6951 55.6065 23.1193C55.7694 23.5436 56.0024 23.875 56.3054 24.1136C56.6122 24.3485 56.9834 24.4659 57.419 24.4659C57.8736 24.4659 58.2543 24.3447 58.5611 24.1023C58.8679 23.8561 59.099 23.5208 59.2543 23.0966C59.4134 22.6686 59.4929 22.1818 59.4929 21.6364C59.4929 21.0947 59.4152 20.6136 59.2599 20.1932C59.1046 19.7727 58.8736 19.4432 58.5668 19.2045C58.2599 18.9659 57.8774 18.8466 57.419 18.8466C56.9796 18.8466 56.6065 18.9621 56.2997 19.1932C55.9929 19.4242 55.7599 19.7481 55.6009 20.1648C55.4455 20.5814 55.3679 21.072 55.3679 21.6364ZM63.3381 26V17.2727H65.3324V18.7273H65.4233C65.5824 18.2235 65.8551 17.8352 66.2415 17.5625C66.6316 17.286 67.0767 17.1477 67.5767 17.1477C67.6903 17.1477 67.8172 17.1534 67.9574 17.1648C68.1013 17.1723 68.2206 17.1856 68.3153 17.2045V19.0966C68.2282 19.0663 68.09 19.0398 67.9006 19.017C67.715 18.9905 67.535 18.9773 67.3608 18.9773C66.9858 18.9773 66.6487 19.0587 66.3494 19.2216C66.054 19.3807 65.821 19.6023 65.6506 19.8864C65.4801 20.1705 65.3949 20.4981 65.3949 20.8693V26H63.3381ZM73.1861 26.1705C72.3111 26.1705 71.5554 25.9886 70.919 25.625C70.2865 25.2576 69.7997 24.7386 69.4588 24.0682C69.1179 23.3939 68.9474 22.6004 68.9474 21.6875C68.9474 20.7898 69.1179 20.0019 69.4588 19.3239C69.8035 18.642 70.2846 18.1117 70.902 17.733C71.5194 17.3504 72.2448 17.1591 73.0781 17.1591C73.616 17.1591 74.1236 17.2462 74.6009 17.4205C75.0819 17.5909 75.5062 17.8561 75.8736 18.2159C76.2448 18.5758 76.5365 19.0341 76.7486 19.5909C76.9607 20.1439 77.0668 20.803 77.0668 21.5682V22.1989H69.9134V20.8125H75.0952C75.0914 20.4186 75.0062 20.0682 74.8395 19.7614C74.6728 19.4508 74.4399 19.2064 74.1406 19.0284C73.8452 18.8504 73.5005 18.7614 73.1065 18.7614C72.6861 18.7614 72.3168 18.8636 71.9986 19.0682C71.6804 19.2689 71.4323 19.5341 71.2543 19.8636C71.08 20.1894 70.991 20.5473 70.9872 20.9375V22.1477C70.9872 22.6553 71.08 23.0909 71.2656 23.4545C71.4512 23.8144 71.7107 24.0909 72.044 24.2841C72.3774 24.4735 72.7675 24.5682 73.2145 24.5682C73.5137 24.5682 73.7846 24.5265 74.027 24.4432C74.2694 24.3561 74.4796 24.2292 74.6577 24.0625C74.8357 23.8958 74.9702 23.6894 75.0611 23.4432L76.9815 23.6591C76.8603 24.1667 76.6293 24.6098 76.2884 24.9886C75.9512 25.3636 75.5194 25.6553 74.9929 25.8636C74.4664 26.0682 73.8641 26.1705 73.1861 26.1705Z" fill="#4B4B4B"/>
<path d="M1 108C1 104.134 4.13401 101 8 101H270C274.971 101 279 105.029 279 110V130C279 134.971 274.971 139 270 139H10C5.02943 139 1 134.971 1 130V108Z" fill="#FFFDFB" stroke="#B9A78E" stroke-width="2"/>
<path d="M1 208C1 204.134 4.13401 201 8 201H270C274.971 201 279 205.029 279 210V290C279 294.971 274.971 299 270 299H10C5.02943 299 1 294.971 1 290V208Z" fill="#FFFDFB" stroke="#B9A78E" stroke-width="2"/>
<path d="M27.522 119.29H25.397C25.3364 118.941 25.2247 118.633 25.0618 118.364C24.8989 118.091 24.6963 117.86 24.4538 117.67C24.2114 117.481 23.9349 117.339 23.6243 117.244C23.3175 117.146 22.986 117.097 22.63 117.097C21.9974 117.097 21.4368 117.256 20.9482 117.574C20.4595 117.888 20.0769 118.35 19.8004 118.96C19.5239 119.566 19.3857 120.307 19.3857 121.182C19.3857 122.072 19.5239 122.822 19.8004 123.432C20.0807 124.038 20.4633 124.496 20.9482 124.807C21.4368 125.114 21.9955 125.267 22.6243 125.267C22.9728 125.267 23.2985 125.222 23.6016 125.131C23.9084 125.036 24.183 124.898 24.4254 124.716C24.6716 124.534 24.8781 124.311 25.0447 124.045C25.2152 123.78 25.3326 123.477 25.397 123.136L27.522 123.148C27.4425 123.701 27.2701 124.22 27.005 124.705C26.7436 125.189 26.4008 125.617 25.9766 125.989C25.5523 126.356 25.0561 126.644 24.4879 126.852C23.9197 127.057 23.2891 127.159 22.5959 127.159C21.5732 127.159 20.6603 126.922 19.8572 126.449C19.0542 125.975 18.4216 125.292 17.9595 124.398C17.4974 123.504 17.2663 122.432 17.2663 121.182C17.2663 119.928 17.4993 118.856 17.9652 117.966C18.4311 117.072 19.0656 116.388 19.8686 115.915C20.6716 115.441 21.5807 115.205 22.5959 115.205C23.2436 115.205 23.8459 115.295 24.4027 115.477C24.9595 115.659 25.4557 115.926 25.8913 116.278C26.3269 116.627 26.6849 117.055 26.9652 117.562C27.2493 118.066 27.4349 118.642 27.522 119.29ZM33.1683 127.17C32.3161 127.17 31.5774 126.983 30.9524 126.608C30.3274 126.233 29.8426 125.708 29.4979 125.034C29.157 124.36 28.9865 123.572 28.9865 122.67C28.9865 121.769 29.157 120.979 29.4979 120.301C29.8426 119.623 30.3274 119.097 30.9524 118.722C31.5774 118.347 32.3161 118.159 33.1683 118.159C34.0206 118.159 34.7592 118.347 35.3842 118.722C36.0092 119.097 36.4922 119.623 36.8331 120.301C37.1778 120.979 37.3501 121.769 37.3501 122.67C37.3501 123.572 37.1778 124.36 36.8331 125.034C36.4922 125.708 36.0092 126.233 35.3842 126.608C34.7592 126.983 34.0206 127.17 33.1683 127.17ZM33.1797 125.523C33.6418 125.523 34.0282 125.396 34.3388 125.142C34.6494 124.884 34.8804 124.54 35.032 124.108C35.1873 123.676 35.2649 123.195 35.2649 122.665C35.2649 122.131 35.1873 121.648 35.032 121.216C34.8804 120.78 34.6494 120.434 34.3388 120.176C34.0282 119.919 33.6418 119.79 33.1797 119.79C32.7062 119.79 32.3123 119.919 31.9979 120.176C31.6873 120.434 31.4543 120.78 31.299 121.216C31.1475 121.648 31.0717 122.131 31.0717 122.665C31.0717 123.195 31.1475 123.676 31.299 124.108C31.4543 124.54 31.6873 124.884 31.9979 125.142C32.3123 125.396 32.7062 125.523 33.1797 125.523ZM39.0959 127V118.273H41.0902V119.727H41.1811C41.3402 119.223 41.6129 118.835 41.9993 118.562C42.3894 118.286 42.8345 118.148 43.3345 118.148C43.4482 118.148 43.575 118.153 43.7152 118.165C43.8591 118.172 43.9785 118.186 44.0732 118.205V120.097C43.986 120.066 43.8478 120.04 43.6584 120.017C43.4728 119.991 43.2929 119.977 43.1186 119.977C42.7436 119.977 42.4065 120.059 42.1072 120.222C41.8118 120.381 41.5788 120.602 41.4084 120.886C41.2379 121.17 41.1527 121.498 41.1527 121.869V127H39.0959ZM45.4396 127V118.273H47.4339V119.727H47.5249C47.6839 119.223 47.9567 118.835 48.343 118.562C48.7332 118.286 49.1783 118.148 49.6783 118.148C49.7919 118.148 49.9188 118.153 50.0589 118.165C50.2029 118.172 50.3222 118.186 50.4169 118.205V120.097C50.3298 120.066 50.1915 120.04 50.0021 120.017C49.8165 119.991 49.6366 119.977 49.4624 119.977C49.0874 119.977 48.7502 120.059 48.451 120.222C48.1555 120.381 47.9226 120.602 47.7521 120.886C47.5817 121.17 47.4964 121.498 47.4964 121.869V127H45.4396ZM55.2876 127.17C54.4126 127.17 53.657 126.989 53.0206 126.625C52.388 126.258 51.9013 125.739 51.5604 125.068C51.2195 124.394 51.049 123.6 51.049 122.688C51.049 121.79 51.2195 121.002 51.5604 120.324C51.9051 119.642 52.3861 119.112 53.0036 118.733C53.621 118.35 54.3464 118.159 55.1797 118.159C55.7176 118.159 56.2251 118.246 56.7024 118.42C57.1835 118.591 57.6077 118.856 57.9751 119.216C58.3464 119.576 58.638 120.034 58.8501 120.591C59.0623 121.144 59.1683 121.803 59.1683 122.568V123.199H52.0149V121.812H57.1967C57.1929 121.419 57.1077 121.068 56.9411 120.761C56.7744 120.451 56.5414 120.206 56.2422 120.028C55.9467 119.85 55.602 119.761 55.2081 119.761C54.7876 119.761 54.4183 119.864 54.1001 120.068C53.782 120.269 53.5339 120.534 53.3558 120.864C53.1816 121.189 53.0926 121.547 53.0888 121.938V123.148C53.0888 123.655 53.1816 124.091 53.3672 124.455C53.5528 124.814 53.8123 125.091 54.1456 125.284C54.4789 125.473 54.8691 125.568 55.3161 125.568C55.6153 125.568 55.8861 125.527 56.1286 125.443C56.371 125.356 56.5812 125.229 56.7592 125.062C56.9373 124.896 57.0717 124.689 57.1626 124.443L59.0831 124.659C58.9619 125.167 58.7308 125.61 58.3899 125.989C58.0528 126.364 57.621 126.655 57.0945 126.864C56.5679 127.068 55.9657 127.17 55.2876 127.17ZM64.7152 127.17C63.8629 127.17 63.1243 126.983 62.4993 126.608C61.8743 126.233 61.3894 125.708 61.0447 125.034C60.7038 124.36 60.5334 123.572 60.5334 122.67C60.5334 121.769 60.7038 120.979 61.0447 120.301C61.3894 119.623 61.8743 119.097 62.4993 118.722C63.1243 118.347 63.8629 118.159 64.7152 118.159C65.5675 118.159 66.3061 118.347 66.9311 118.722C67.5561 119.097 68.0391 119.623 68.38 120.301C68.7247 120.979 68.897 121.769 68.897 122.67C68.897 123.572 68.7247 124.36 68.38 125.034C68.0391 125.708 67.5561 126.233 66.9311 126.608C66.3061 126.983 65.5675 127.17 64.7152 127.17ZM64.7266 125.523C65.1887 125.523 65.575 125.396 65.8857 125.142C66.1963 124.884 66.4273 124.54 66.5788 124.108C66.7341 123.676 66.8118 123.195 66.8118 122.665C66.8118 122.131 66.7341 121.648 66.5788 121.216C66.4273 120.78 66.1963 120.434 65.8857 120.176C65.575 119.919 65.1887 119.79 64.7266 119.79C64.2531 119.79 63.8591 119.919 63.5447 120.176C63.2341 120.434 63.0012 120.78 62.8459 121.216C62.6944 121.648 62.6186 122.131 62.6186 122.665C62.6186 123.195 62.6944 123.676 62.8459 124.108C63.0012 124.54 63.2341 124.884 63.5447 125.142C63.8591 125.396 64.2531 125.523 64.7266 125.523Z" fill="#4B4B4B"/>
<path d="M17.468 214.364H20.0476L23.5021 222.795H23.6385L27.093 214.364H29.6726V226H27.6499V218.006H27.5419L24.326 225.966H22.8146L19.5987 217.989H19.4908V226H17.468V214.364ZM35.7408 226.17C34.8658 226.17 34.1101 225.989 33.4737 225.625C32.8411 225.258 32.3544 224.739 32.0135 224.068C31.6726 223.394 31.5021 222.6 31.5021 221.688C31.5021 220.79 31.6726 220.002 32.0135 219.324C32.3582 218.642 32.8393 218.112 33.4567 217.733C34.0741 217.35 34.7995 217.159 35.6328 217.159C36.1707 217.159 36.6783 217.246 37.1555 217.42C37.6366 217.591 38.0608 217.856 38.4283 218.216C38.7995 218.576 39.0911 219.034 39.3033 219.591C39.5154 220.144 39.6214 220.803 39.6214 221.568V222.199H32.468V220.812H37.6499C37.6461 220.419 37.5608 220.068 37.3942 219.761C37.2275 219.451 36.9946 219.206 36.6953 219.028C36.3999 218.85 36.0552 218.761 35.6612 218.761C35.2408 218.761 34.8714 218.864 34.5533 219.068C34.2351 219.269 33.987 219.534 33.8089 219.864C33.6347 220.189 33.5457 220.547 33.5419 220.938V222.148C33.5419 222.655 33.6347 223.091 33.8203 223.455C34.0059 223.814 34.2654 224.091 34.5987 224.284C34.9321 224.473 35.3222 224.568 35.7692 224.568C36.0684 224.568 36.3393 224.527 36.5817 224.443C36.8241 224.356 37.0343 224.229 37.2124 224.062C37.3904 223.896 37.5249 223.689 37.6158 223.443L39.5362 223.659C39.415 224.167 39.1839 224.61 38.843 224.989C38.5059 225.364 38.0741 225.655 37.5476 225.864C37.0211 226.068 36.4188 226.17 35.7408 226.17ZM43.4183 220.886V226H41.3615V217.273H43.3274V218.756H43.4297C43.6304 218.267 43.9505 217.879 44.3899 217.591C44.8331 217.303 45.3804 217.159 46.032 217.159C46.6342 217.159 47.1589 217.288 47.6058 217.545C48.0566 217.803 48.4051 218.176 48.6513 218.665C48.9013 219.153 49.0244 219.746 49.0206 220.443V226H46.9638V220.761C46.9638 220.178 46.8123 219.722 46.5092 219.392C46.21 219.062 45.7952 218.898 45.2649 218.898C44.9051 218.898 44.585 218.977 44.3047 219.136C44.0282 219.292 43.8104 219.517 43.6513 219.812C43.496 220.108 43.4183 220.466 43.4183 220.886ZM58.0092 219.58L56.1342 219.784C56.0812 219.595 55.9884 219.417 55.8558 219.25C55.727 219.083 55.5528 218.949 55.3331 218.847C55.1134 218.744 54.8445 218.693 54.5263 218.693C54.0982 218.693 53.7384 218.786 53.4467 218.972C53.1589 219.157 53.0168 219.398 53.0206 219.693C53.0168 219.947 53.1096 220.153 53.299 220.312C53.4922 220.472 53.8104 220.602 54.2536 220.705L55.7422 221.023C56.5679 221.201 57.1816 221.483 57.5831 221.869C57.9884 222.256 58.1929 222.761 58.1967 223.386C58.1929 223.936 58.032 224.42 57.7138 224.841C57.3994 225.258 56.9619 225.583 56.4013 225.818C55.8407 226.053 55.1967 226.17 54.4695 226.17C53.4013 226.17 52.5414 225.947 51.8899 225.5C51.2384 225.049 50.8501 224.422 50.7251 223.619L52.7308 223.426C52.8217 223.82 53.0149 224.117 53.3104 224.318C53.6058 224.519 53.9903 224.619 54.4638 224.619C54.9524 224.619 55.3445 224.519 55.6399 224.318C55.9392 224.117 56.0888 223.869 56.0888 223.574C56.0888 223.324 55.9922 223.117 55.799 222.955C55.6096 222.792 55.3142 222.667 54.9126 222.58L53.424 222.267C52.5869 222.093 51.9676 221.799 51.5661 221.386C51.1645 220.97 50.9657 220.443 50.9695 219.807C50.9657 219.269 51.1115 218.803 51.407 218.409C51.7062 218.011 52.121 217.705 52.6513 217.489C53.1854 217.269 53.8009 217.159 54.4979 217.159C55.5206 217.159 56.3255 217.377 56.9126 217.812C57.5036 218.248 57.8691 218.837 58.0092 219.58ZM62.4041 226.176C61.8511 226.176 61.353 226.078 60.9098 225.881C60.4704 225.68 60.1219 225.384 59.8643 224.994C59.6106 224.604 59.4837 224.123 59.4837 223.551C59.4837 223.059 59.5746 222.652 59.7564 222.33C59.9382 222.008 60.1863 221.75 60.5007 221.557C60.8151 221.364 61.1693 221.218 61.5632 221.119C61.9609 221.017 62.3719 220.943 62.7962 220.898C63.3075 220.845 63.7223 220.797 64.0405 220.756C64.3587 220.71 64.5897 220.642 64.7337 220.551C64.8814 220.456 64.9553 220.311 64.9553 220.114V220.08C64.9553 219.652 64.8284 219.32 64.5746 219.085C64.3208 218.85 63.9553 218.733 63.478 218.733C62.9742 218.733 62.5746 218.843 62.2791 219.062C61.9875 219.282 61.7905 219.542 61.6882 219.841L59.7678 219.568C59.9193 219.038 60.1693 218.595 60.5178 218.239C60.8662 217.879 61.2924 217.61 61.7962 217.432C62.3 217.25 62.8568 217.159 63.4666 217.159C63.8871 217.159 64.3056 217.208 64.7223 217.307C65.139 217.405 65.5196 217.568 65.8643 217.795C66.209 218.019 66.4856 218.324 66.6939 218.71C66.906 219.097 67.0121 219.58 67.0121 220.159V226H65.0348V224.801H64.9666C64.8416 225.044 64.6655 225.271 64.4382 225.483C64.2147 225.691 63.9325 225.86 63.5916 225.989C63.2545 226.114 62.8587 226.176 62.4041 226.176ZM62.9382 224.665C63.3511 224.665 63.709 224.583 64.0121 224.42C64.3151 224.254 64.5481 224.034 64.7109 223.761C64.8776 223.489 64.9609 223.191 64.9609 222.869V221.841C64.8965 221.894 64.7867 221.943 64.6314 221.989C64.4799 222.034 64.3094 222.074 64.12 222.108C63.9306 222.142 63.7431 222.172 63.5575 222.199C63.3719 222.225 63.2109 222.248 63.0746 222.267C62.7678 222.309 62.4931 222.377 62.2507 222.472C62.0083 222.566 61.817 222.699 61.6768 222.869C61.5367 223.036 61.4666 223.252 61.4666 223.517C61.4666 223.896 61.6049 224.182 61.8814 224.375C62.1579 224.568 62.5102 224.665 62.9382 224.665ZM69.0803 217.273H71.1371V226.5C71.1371 227.129 71.0178 227.648 70.7791 228.057C70.5405 228.466 70.1958 228.771 69.745 228.972C69.2943 229.172 68.7469 229.273 68.103 229.273C68.0272 229.273 67.9571 229.271 67.8928 229.267C67.8284 229.267 67.7583 229.265 67.6825 229.261V227.585C67.7393 227.589 67.7905 227.591 67.8359 227.591C67.8814 227.595 67.9287 227.597 67.978 227.597C68.3719 227.597 68.6541 227.5 68.8246 227.307C68.995 227.117 69.0803 226.839 69.0803 226.472V217.273ZM70.103 216.034C69.7734 216.034 69.4912 215.926 69.2564 215.71C69.0253 215.491 68.9098 215.227 68.9098 214.92C68.9098 214.61 69.0253 214.347 69.2564 214.131C69.4912 213.911 69.7734 213.801 70.103 213.801C70.4287 213.801 70.7071 213.911 70.9382 214.131C71.1731 214.347 71.2905 214.61 71.2905 214.92C71.2905 215.227 71.1731 215.491 70.9382 215.71C70.7071 215.926 70.4287 216.034 70.103 216.034ZM77.1158 226.17C76.2408 226.17 75.4851 225.989 74.8487 225.625C74.2161 225.258 73.7294 224.739 73.3885 224.068C73.0476 223.394 72.8771 222.6 72.8771 221.688C72.8771 220.79 73.0476 220.002 73.3885 219.324C73.7332 218.642 74.2143 218.112 74.8317 217.733C75.4491 217.35 76.1745 217.159 77.0078 217.159C77.5457 217.159 78.0533 217.246 78.5305 217.42C79.0116 217.591 79.4358 217.856 79.8033 218.216C80.1745 218.576 80.4661 219.034 80.6783 219.591C80.8904 220.144 80.9964 220.803 80.9964 221.568V222.199H73.843V220.812H79.0249C79.0211 220.419 78.9358 220.068 78.7692 219.761C78.6025 219.451 78.3696 219.206 78.0703 219.028C77.7749 218.85 77.4302 218.761 77.0362 218.761C76.6158 218.761 76.2464 218.864 75.9283 219.068C75.6101 219.269 75.362 219.534 75.1839 219.864C75.0097 220.189 74.9207 220.547 74.9169 220.938V222.148C74.9169 222.655 75.0097 223.091 75.1953 223.455C75.3809 223.814 75.6404 224.091 75.9737 224.284C76.3071 224.473 76.6972 224.568 77.1442 224.568C77.4434 224.568 77.7143 224.527 77.9567 224.443C78.1991 224.356 78.4093 224.229 78.5874 224.062C78.7654 223.896 78.8999 223.689 78.9908 223.443L80.9112 223.659C80.79 224.167 80.5589 224.61 80.218 224.989C79.8809 225.364 79.4491 225.655 78.9226 225.864C78.3961 226.068 77.7938 226.17 77.1158 226.17Z" fill="#4B4B4B"/>
</svg>
