<svg width="203" height="29" viewBox="0 0 203 29" fill="none" xmlns="http://www.w3.org/2000/svg">
<path d="M9.60494 28H0.732777V1.81818H9.78391C12.3833 1.81818 14.6163 2.34233 16.4828 3.39062C18.3578 4.4304 19.7981 5.92614 20.8038 7.87784C21.8095 9.82955 22.3123 12.1648 22.3123 14.8835C22.3123 17.6108 21.8052 19.9545 20.791 21.9148C19.7853 23.875 18.3322 25.3793 16.4316 26.4276C14.5396 27.4759 12.264 28 9.60494 28ZM5.47568 23.8963H9.37482C11.1987 23.8963 12.72 23.5639 13.9387 22.8991C15.1575 22.2259 16.0737 21.2244 16.6873 19.8949C17.301 18.5568 17.6078 16.8864 17.6078 14.8835C17.6078 12.8807 17.301 11.2187 16.6873 9.89773C16.0737 8.56818 15.166 7.57528 13.9643 6.91903C12.7711 6.25426 11.2882 5.92188 9.51545 5.92188H5.47568V23.8963ZM35.1795 28.3835C33.2619 28.3835 31.6 27.9616 30.1937 27.1179C28.7875 26.2741 27.6966 25.0937 26.921 23.5767C26.1539 22.0597 25.7704 20.2869 25.7704 18.2585C25.7704 16.2301 26.1539 14.4531 26.921 12.9276C27.6966 11.402 28.7875 10.2173 30.1937 9.37358C31.6 8.52983 33.2619 8.10795 35.1795 8.10795C37.0971 8.10795 38.7591 8.52983 40.1653 9.37358C41.5716 10.2173 42.6582 11.402 43.4252 12.9276C44.2008 14.4531 44.5886 16.2301 44.5886 18.2585C44.5886 20.2869 44.2008 22.0597 43.4252 23.5767C42.6582 25.0937 41.5716 26.2741 40.1653 27.1179C38.7591 27.9616 37.0971 28.3835 35.1795 28.3835ZM35.2051 24.6761C36.2449 24.6761 37.1142 24.3906 37.813 23.8196C38.5119 23.2401 39.0318 22.4645 39.3727 21.4929C39.7221 20.5213 39.8968 19.4389 39.8968 18.2457C39.8968 17.044 39.7221 15.9574 39.3727 14.9858C39.0318 14.0057 38.5119 13.2259 37.813 12.6463C37.1142 12.0668 36.2449 11.777 35.2051 11.777C34.1397 11.777 33.2534 12.0668 32.546 12.6463C31.8471 13.2259 31.323 14.0057 30.9735 14.9858C30.6326 15.9574 30.4622 17.044 30.4622 18.2457C30.4622 19.4389 30.6326 20.5213 30.9735 21.4929C31.323 22.4645 31.8471 23.2401 32.546 23.8196C33.2534 24.3906 34.1397 24.6761 35.2051 24.6761ZM53.1444 16.4943V28H48.5165V8.36364H52.9398V11.7003H53.1699C53.6216 10.6009 54.3418 9.72727 55.3304 9.07955C56.3276 8.43182 57.5591 8.10795 59.025 8.10795C60.3801 8.10795 61.5605 8.39773 62.5662 8.97727C63.5804 9.55682 64.3645 10.3963 64.9185 11.4957C65.481 12.5952 65.758 13.929 65.7495 15.4972V28H61.1216V16.2131C61.1216 14.9006 60.7807 13.8736 60.0989 13.1321C59.4256 12.3906 58.4924 12.0199 57.2992 12.0199C56.4895 12.0199 55.7694 12.1989 55.1387 12.5568C54.5165 12.9062 54.0265 13.4134 53.6685 14.0781C53.3191 14.7429 53.1444 15.5483 53.1444 16.4943ZM76.1046 28.3963C74.8603 28.3963 73.7395 28.1747 72.7424 27.7315C71.7537 27.2798 70.9696 26.6151 70.3901 25.7372C69.8191 24.8594 69.5336 23.777 69.5336 22.4901C69.5336 21.3821 69.7381 20.4659 70.1472 19.7415C70.5563 19.017 71.1145 18.4375 71.8219 18.0028C72.5293 17.5682 73.3262 17.2401 74.2125 17.0185C75.1074 16.7884 76.0321 16.6222 76.9867 16.5199C78.1373 16.4006 79.0705 16.294 79.7864 16.2003C80.5023 16.098 81.0222 15.9446 81.3461 15.7401C81.6784 15.527 81.8446 15.1989 81.8446 14.7557V14.679C81.8446 13.7159 81.5591 12.9702 80.9881 12.4418C80.4171 11.9134 79.5946 11.6491 78.5208 11.6491C77.3873 11.6491 76.4881 11.8963 75.8233 12.3906C75.1671 12.8849 74.7239 13.4687 74.4938 14.142L70.1728 13.5284C70.5137 12.3352 71.0762 11.3381 71.8603 10.5369C72.6444 9.72727 73.6032 9.12216 74.7367 8.72159C75.8702 8.3125 77.123 8.10795 78.4952 8.10795C79.4412 8.10795 80.383 8.21875 81.3205 8.44034C82.258 8.66193 83.1145 9.02841 83.8901 9.53977C84.6657 10.0426 85.2878 10.7287 85.7566 11.598C86.2338 12.4673 86.4725 13.554 86.4725 14.858V28H82.0236V25.3026H81.8702C81.589 25.848 81.1926 26.3594 80.6813 26.8366C80.1784 27.3054 79.5435 27.6847 78.7765 27.9744C78.0179 28.2557 77.1273 28.3963 76.1046 28.3963ZM77.3063 24.9957C78.2353 24.9957 79.0407 24.8125 79.7225 24.446C80.4043 24.071 80.9284 23.5767 81.2949 22.9631C81.6699 22.3494 81.8574 21.6804 81.8574 20.956V18.642C81.7125 18.7614 81.4654 18.8722 81.1159 18.9744C80.775 19.0767 80.3915 19.1662 79.9654 19.2429C79.5392 19.3196 79.1174 19.3878 78.6998 19.4474C78.2821 19.5071 77.9199 19.5582 77.6131 19.6009C76.9228 19.6946 76.3049 19.848 75.7594 20.0611C75.214 20.2741 74.7836 20.5724 74.4682 20.956C74.1529 21.331 73.9952 21.8168 73.9952 22.4134C73.9952 23.2656 74.3063 23.9091 74.9284 24.3438C75.5506 24.7784 76.3432 24.9957 77.3063 24.9957ZM99.6912 28.3835C97.731 28.3835 96.0478 27.9531 94.6415 27.0923C93.2438 26.2315 92.1657 25.0426 91.4071 23.5256C90.6571 22 90.2821 20.2443 90.2821 18.2585C90.2821 16.2642 90.6657 14.5043 91.4327 12.9787C92.1998 11.4446 93.2821 10.2514 94.6799 9.39915C96.0861 8.53835 97.748 8.10795 99.6657 8.10795C101.259 8.10795 102.67 8.40199 103.897 8.99006C105.133 9.5696 106.117 10.392 106.85 11.4574C107.583 12.5142 108.001 13.75 108.103 15.1648H103.68C103.501 14.2187 103.075 13.4304 102.401 12.7997C101.737 12.1605 100.846 11.8409 99.7296 11.8409C98.7836 11.8409 97.9526 12.0966 97.2367 12.608C96.5208 13.1108 95.9625 13.8352 95.562 14.7812C95.1699 15.7273 94.9739 16.8608 94.9739 18.1818C94.9739 19.5199 95.1699 20.6705 95.562 21.6335C95.954 22.5881 96.5037 23.3253 97.2111 23.8452C97.927 24.3565 98.7665 24.6122 99.7296 24.6122C100.411 24.6122 101.021 24.4844 101.558 24.2287C102.103 23.9645 102.559 23.5852 102.926 23.0909C103.292 22.5966 103.544 21.9957 103.68 21.2884H108.103C107.992 22.6776 107.583 23.9091 106.876 24.983C106.169 26.0483 105.205 26.8835 103.987 27.4886C102.768 28.0852 101.336 28.3835 99.6912 28.3835ZM111.903 28V8.36364H116.531V28H111.903ZM114.23 5.5767C113.497 5.5767 112.866 5.33381 112.338 4.84801C111.809 4.35369 111.545 3.76136 111.545 3.07102C111.545 2.37216 111.809 1.77983 112.338 1.29403C112.866 0.799715 113.497 0.552556 114.23 0.552556C114.971 0.552556 115.602 0.799715 116.122 1.29403C116.65 1.77983 116.915 2.37216 116.915 3.07102C116.915 3.76136 116.65 4.35369 116.122 4.84801C115.602 5.33381 114.971 5.5767 114.23 5.5767ZM129.855 28.3835C127.938 28.3835 126.276 27.9616 124.869 27.1179C123.463 26.2741 122.372 25.0937 121.597 23.5767C120.83 22.0597 120.446 20.2869 120.446 18.2585C120.446 16.2301 120.83 14.4531 121.597 12.9276C122.372 11.402 123.463 10.2173 124.869 9.37358C126.276 8.52983 127.938 8.10795 129.855 8.10795C131.773 8.10795 133.435 8.52983 134.841 9.37358C136.247 10.2173 137.334 11.402 138.101 12.9276C138.877 14.4531 139.264 16.2301 139.264 18.2585C139.264 20.2869 138.877 22.0597 138.101 23.5767C137.334 25.0937 136.247 26.2741 134.841 27.1179C133.435 27.9616 131.773 28.3835 129.855 28.3835ZM129.881 24.6761C130.921 24.6761 131.79 24.3906 132.489 23.8196C133.188 23.2401 133.708 22.4645 134.048 21.4929C134.398 20.5213 134.573 19.4389 134.573 18.2457C134.573 17.044 134.398 15.9574 134.048 14.9858C133.708 14.0057 133.188 13.2259 132.489 12.6463C131.79 12.0668 130.921 11.777 129.881 11.777C128.816 11.777 127.929 12.0668 127.222 12.6463C126.523 13.2259 125.999 14.0057 125.649 14.9858C125.308 15.9574 125.138 17.044 125.138 18.2457C125.138 19.4389 125.308 20.5213 125.649 21.4929C125.999 22.4645 126.523 23.2401 127.222 23.8196C127.929 24.3906 128.816 24.6761 129.881 24.6761ZM147.82 16.4943V28H143.192V8.36364H147.616V11.7003H147.846C148.297 10.6009 149.018 9.72727 150.006 9.07955C151.003 8.43182 152.235 8.10795 153.701 8.10795C155.056 8.10795 156.236 8.39773 157.242 8.97727C158.256 9.55682 159.04 10.3963 159.594 11.4957C160.157 12.5952 160.434 13.929 160.425 15.4972V28H155.797V16.2131C155.797 14.9006 155.456 13.8736 154.775 13.1321C154.101 12.3906 153.168 12.0199 151.975 12.0199C151.165 12.0199 150.445 12.1989 149.814 12.5568C149.192 12.9062 148.702 13.4134 148.344 14.0781C147.995 14.7429 147.82 15.5483 147.82 16.4943ZM173.823 28.3835C171.854 28.3835 170.154 27.9744 168.722 27.1562C167.299 26.3295 166.204 25.1619 165.437 23.6534C164.67 22.1364 164.286 20.3509 164.286 18.2969C164.286 16.277 164.67 14.5043 165.437 12.9787C166.212 11.4446 167.295 10.2514 168.684 9.39915C170.073 8.53835 171.705 8.10795 173.58 8.10795C174.79 8.10795 175.932 8.30398 177.006 8.69602C178.089 9.07954 179.043 9.67614 179.87 10.4858C180.705 11.2955 181.361 12.3267 181.839 13.5795C182.316 14.8239 182.555 16.3068 182.555 18.0284V19.4474H166.459V16.3281H178.118C178.11 15.4418 177.918 14.6534 177.543 13.9631C177.168 13.2642 176.644 12.7145 175.971 12.3139C175.306 11.9134 174.53 11.7131 173.644 11.7131C172.698 11.7131 171.867 11.9432 171.151 12.4034C170.435 12.8551 169.877 13.4517 169.476 14.1932C169.084 14.9261 168.884 15.7315 168.876 16.6094V19.3324C168.876 20.4744 169.084 21.4545 169.502 22.2727C169.92 23.0824 170.503 23.7045 171.253 24.1392C172.003 24.5653 172.881 24.7784 173.887 24.7784C174.56 24.7784 175.17 24.6847 175.715 24.4972C176.26 24.3011 176.733 24.0156 177.134 23.6406C177.535 23.2656 177.837 22.8011 178.042 22.2472L182.363 22.733C182.09 23.875 181.57 24.8722 180.803 25.7244C180.045 26.5682 179.073 27.2244 177.888 27.6932C176.704 28.1534 175.349 28.3835 173.823 28.3835ZM201.99 13.554L197.771 14.0142C197.651 13.5881 197.443 13.1875 197.144 12.8125C196.855 12.4375 196.463 12.1349 195.968 11.9048C195.474 11.6747 194.869 11.5597 194.153 11.5597C193.19 11.5597 192.38 11.7685 191.724 12.1861C191.076 12.6037 190.757 13.1449 190.765 13.8097C190.757 14.3807 190.965 14.8452 191.392 15.2031C191.826 15.5611 192.542 15.8551 193.539 16.0852L196.889 16.8011C198.747 17.2017 200.127 17.8366 201.031 18.706C201.943 19.5753 202.403 20.7131 202.411 22.1193C202.403 23.3551 202.041 24.446 201.325 25.392C200.617 26.3295 199.633 27.0625 198.372 27.5909C197.11 28.1193 195.661 28.3835 194.025 28.3835C191.622 28.3835 189.687 27.8807 188.221 26.875C186.755 25.8608 185.882 24.4503 185.6 22.6435L190.113 22.2088C190.318 23.0952 190.752 23.7642 191.417 24.2159C192.082 24.6676 192.947 24.8935 194.012 24.8935C195.112 24.8935 195.994 24.6676 196.659 24.2159C197.332 23.7642 197.669 23.206 197.669 22.5412C197.669 21.9787 197.451 21.5142 197.017 21.1477C196.59 20.7812 195.926 20.5 195.022 20.304L191.673 19.6009C189.789 19.2088 188.396 18.5483 187.492 17.6193C186.589 16.6818 186.142 15.4972 186.15 14.0653C186.142 12.8551 186.47 11.8068 187.134 10.9205C187.808 10.0256 188.741 9.33523 189.934 8.84943C191.136 8.35511 192.521 8.10795 194.089 8.10795C196.39 8.10795 198.201 8.59801 199.522 9.57812C200.852 10.5582 201.674 11.8835 201.99 13.554Z" fill="white"/>
</svg>
