<svg width="470" height="372" viewBox="0 0 470 372" fill="none" xmlns="http://www.w3.org/2000/svg">
<path d="M328.18 82.0549C328.788 71.7575 329.403 61.4602 330.026 51.1629C330.103 49.9174 330.293 48.4829 331.36 47.8268C331.88 47.6216 332.44 47.5351 332.998 47.5736C333.556 47.6121 334.098 47.7746 334.585 48.0492C352.844 55.3997 366.244 75.7719 367.846 95.3769" fill="#F39200"/>
<g opacity="0.3">
<path d="M334.381 58.5017C338.658 61.3043 342.229 65.0584 344.814 69.4704C347.399 73.8823 348.929 78.8325 349.283 83.9337C349.485 85.1662 349.224 86.4301 348.549 87.481C348.202 87.8579 347.781 88.1584 347.312 88.3633C346.843 88.5681 346.336 88.6729 345.824 88.6709C344.799 88.6598 343.78 88.5025 342.799 88.2038C340.342 87.57 337.751 86.8805 335.927 85.1013C334.26 83.3343 333.306 81.0133 333.247 78.5848C333.203 76.1769 333.45 73.7724 333.981 71.4234L337.095 76.7389L333.759 59.5248C333.706 59.3736 333.687 59.2129 333.702 59.0536C333.718 58.8943 333.767 58.7402 333.848 58.6018C334.037 58.3571 334.571 58.4461 334.537 58.7575" fill="white"/>
</g>
<path d="M222.326 103.984C212.797 92.6699 207.318 78.4987 206.758 63.7173L216.933 68.5101L214.386 65.4076C229.234 66.6453 243.012 73.632 252.784 84.8791" fill="#F39200"/>
<g opacity="0.3">
<path d="M227.962 99.4922C223.966 96.5879 220.608 92.8946 218.097 88.6406C215.585 84.3867 213.973 79.6626 213.361 74.7608C213.283 74.0936 213.361 73.2151 213.984 72.9927C214.216 72.952 214.454 72.9638 214.681 73.0274C214.908 73.0909 215.118 73.2044 215.296 73.3596L233.655 85.3584C232.858 84.2135 232.361 82.8867 232.21 81.4997L239.994 87.2043C240.289 87.3687 240.55 87.5899 240.76 87.8552C240.969 88.1204 241.125 88.4245 241.217 88.75C241.221 89.116 241.137 89.4776 240.973 89.8046C240.808 90.1316 240.568 90.4144 240.272 90.6293C238.975 91.7999 237.397 92.6141 235.691 92.9922C233.986 93.3703 232.212 93.2995 230.542 92.7867L233.878 95.6891C232.884 96.3309 231.771 96.7652 230.605 96.9658C229.44 97.1665 228.245 97.1294 227.094 96.8567C226.982 97.4051 227.036 97.9746 227.25 98.4919C227.464 99.0093 227.828 99.4506 228.295 99.7591" fill="white"/>
</g>
<path d="M429.703 201.029C429.703 201.029 443.936 215.741 450.408 214.518C450.408 214.518 427.923 190.598 418.471 168.525C413.956 158.086 408.578 148.043 402.391 138.5C406.65 131.161 410.442 122.854 412.177 114.458C407.396 120.003 401.947 124.933 395.953 129.137C395.463 128.447 394.963 127.769 394.451 127.08C399.481 122.529 402.834 116.419 403.97 109.732L381.496 108.765C382.2 107.752 382.835 106.693 383.398 105.595C372.358 96.1064 359.996 88.2736 346.701 82.343C320.847 67.631 263.299 62.7714 235.276 86.6911C210.178 101.325 203.45 120.052 183.679 124.689L171.958 123.41C171.958 123.41 167.399 147.875 182.378 158.806L171.257 156.226C171.257 156.226 173.303 165.967 184.246 176.709L177.418 175.875C177.418 175.875 180.376 191.199 189.828 194.88C189.828 194.88 175.06 196.726 170.924 191.199C170.924 191.199 166.009 214.107 188.371 222.747C188.371 222.747 121.361 230.598 140.199 312.632C144.647 331.792 171.057 345.581 201.471 352.242L420.539 351.386C433.884 347.027 449.808 302.813 450.397 285.031C450.987 267.25 442.135 232.9 442.135 232.9L450.431 243.942L429.703 201.029Z" fill="#F39200"/>
<path d="M179.32 235.214C166.743 234.458 154.388 244.233 152.242 256.654C160.425 251.226 169.769 247.798 179.52 246.646C175.679 250.178 173.003 254.794 171.845 259.882C170.687 264.97 171.103 270.289 173.037 275.136C174.658 270.804 177.142 266.847 180.338 263.504C183.534 260.16 187.376 257.501 191.63 255.687C188.724 259.192 186.771 263.387 185.961 267.868C185.151 272.348 185.51 276.962 187.004 281.263" fill="#F39200"/>
<path d="M187 281.285C186.925 281.14 186.866 280.987 186.823 280.829C186.722 280.529 186.545 280.084 186.367 279.495C185.877 277.745 185.571 275.948 185.455 274.135C185.284 271.268 185.573 268.392 186.311 265.617C187.277 261.945 189.034 258.529 191.46 255.609L191.715 255.953C187.502 257.773 183.699 260.424 180.533 263.746C177.367 267.069 174.904 270.995 173.289 275.291L173.045 275.959L172.778 275.303C171.434 271.919 170.812 268.291 170.951 264.653C171.091 261.014 171.99 257.445 173.59 254.174C174.998 251.285 176.946 248.693 179.328 246.534L179.55 247.035C169.845 248.18 160.54 251.568 152.372 256.932L151.883 257.254L151.994 256.676C152.488 253.992 153.428 251.41 154.774 249.037C155.967 246.886 157.465 244.919 159.222 243.198C162.029 240.358 165.422 238.164 169.164 236.771C171.557 235.875 174.073 235.35 176.625 235.214C177.515 235.214 178.193 235.214 178.638 235.214C178.182 235.214 177.526 235.214 176.636 235.214C174.11 235.408 171.625 235.974 169.264 236.893C165.585 238.309 162.258 240.505 159.511 243.332C157.8 245.038 156.343 246.982 155.186 249.103C153.881 251.44 152.972 253.976 152.494 256.609L152.105 256.354C160.329 250.926 169.709 247.498 179.494 246.345L180.395 246.245L179.717 246.846C177.408 248.959 175.521 251.491 174.157 254.308C172.582 257.51 171.696 261.007 171.554 264.573C171.413 268.139 172.019 271.696 173.334 275.013H172.822C174.583 270.356 177.33 266.134 180.873 262.637C183.957 259.585 187.596 257.151 191.593 255.464L192.438 255.108L191.849 255.809C189.442 258.674 187.685 262.028 186.7 265.639C185.948 268.379 185.629 271.219 185.755 274.057C185.842 275.855 186.11 277.64 186.556 279.384C186.7 279.984 186.856 280.44 186.934 280.74C186.974 280.919 186.996 281.102 187 281.285Z" fill="#263238"/>
<path d="M408.945 269.719C415.734 268.283 422.811 269.229 428.984 272.399C435.158 275.569 440.051 280.768 442.84 287.123" fill="#F39200"/>
<path d="M442.84 287.123C442.729 287.178 441.872 285.01 439.704 281.996C436.878 278.068 433.159 274.866 428.853 272.656C424.548 270.447 419.779 269.291 414.939 269.286C411.225 269.286 408.956 269.842 408.945 269.72C409.453 269.535 409.978 269.405 410.513 269.331C411.98 269.054 413.469 268.905 414.961 268.886C419.887 268.775 424.763 269.894 429.148 272.142C433.532 274.391 437.287 277.698 440.071 281.763C440.917 282.982 441.661 284.269 442.295 285.611C442.534 286.092 442.716 286.6 442.84 287.123Z" fill="#263238"/>
<g opacity="0.3">
<path d="M331.709 288.201C323.636 289.491 313.361 295.596 309.613 302.836C308.813 304.381 309.547 304.593 309.613 306.327C309.614 307.202 309.861 308.058 310.325 308.799C310.789 309.541 311.452 310.137 312.238 310.52C312.636 310.682 313.064 310.758 313.494 310.744C313.923 310.73 314.345 310.625 314.732 310.438C315.119 310.25 315.462 309.983 315.739 309.654C316.017 309.326 316.222 308.942 316.341 308.529C315.377 314.454 316.67 320.526 319.966 325.543C322.238 324.263 324.068 322.324 325.215 319.983C325.004 324.327 325.684 328.669 327.214 332.741C328.744 336.812 331.091 340.528 334.111 343.658L330.175 328.301C328.762 322.741 327.395 318.015 327.773 312.31C328.173 306.216 331.798 301.079 334.612 296.03C330.742 297.709 326.26 305.315 322.446 309.953C322.217 305.917 322.908 301.882 324.467 298.153C326.025 294.424 328.41 291.097 331.442 288.424" fill="black"/>
</g>
<path d="M330.185 328.479C330.057 328.272 329.953 328.052 329.873 327.823C329.707 327.378 329.384 326.711 329.117 325.855C328.283 323.358 327.778 320.764 327.616 318.137C327.353 314.138 327.824 310.124 329.006 306.294C330.46 301.427 333.057 296.978 336.579 293.317L336.968 293.717C333.718 296.63 330.633 299.723 327.727 302.98C325.85 305.122 324.192 307.447 322.779 309.919L322.345 310.687L322.245 309.819C321.753 305.233 322.587 300.602 324.647 296.475C326.352 292.977 328.887 289.95 332.031 287.657L332.242 288.035C330.032 288.857 328.007 290.108 326.282 291.716C324.981 292.922 323.857 294.308 322.946 295.83C322.367 296.8 321.869 297.815 321.455 298.866C321.337 299.245 321.196 299.616 321.033 299.978C321.02 299.882 321.02 299.785 321.033 299.689C321.088 299.489 321.155 299.199 321.278 298.832C321.644 297.747 322.117 296.7 322.69 295.708C323.591 294.138 324.715 292.707 326.026 291.46C327.771 289.802 329.827 288.506 332.075 287.646L333.565 287.078L332.275 288.024C329.242 290.309 326.805 293.292 325.17 296.72C323.189 300.76 322.392 305.278 322.868 309.753L322.334 309.641C323.767 307.136 325.443 304.779 327.338 302.602C330.26 299.328 333.368 296.224 336.646 293.306L337.035 293.706C333.564 297.297 330.989 301.655 329.518 306.428C328.323 310.202 327.818 314.161 328.028 318.115C328.156 320.72 328.601 323.301 329.351 325.799C329.595 326.678 329.885 327.322 330.018 327.778C330.088 328.008 330.144 328.242 330.185 328.479Z" fill="#263238"/>
<path d="M198.242 327.3C202.61 332.147 208.357 335.538 214.711 337.019C215.057 337.157 215.432 337.203 215.8 337.153C216.169 337.102 216.518 336.956 216.813 336.73C217.458 336.018 216.924 334.895 216.39 334.106L209.329 323.675C214.356 327.648 220.317 330.267 226.643 331.281C227.7 331.448 229.001 331.448 229.535 330.536C229.687 330.135 229.743 329.704 229.699 329.277C229.654 328.85 229.51 328.44 229.279 328.079C228.167 325.699 227.055 323.353 225.743 321.062" fill="#F39200"/>
<path d="M225.747 321.017C225.883 321.188 225.999 321.375 226.092 321.573L226.981 323.241C227.382 323.986 227.838 324.876 228.371 325.888C228.653 326.406 228.942 326.962 229.239 327.556C229.609 328.179 229.847 328.871 229.939 329.591C229.97 330.021 229.844 330.448 229.583 330.792C229.298 331.132 228.906 331.367 228.471 331.459C227.612 331.59 226.735 331.549 225.892 331.336C224.054 331.021 222.243 330.564 220.476 329.969C216.382 328.602 212.556 326.537 209.167 323.864L209.589 323.474L210.813 325.287L214.749 331.114L216.628 333.883C216.962 334.358 217.207 334.889 217.351 335.451C217.436 335.76 217.42 336.089 217.307 336.388C217.193 336.688 216.986 336.944 216.717 337.119C216.195 337.383 215.593 337.447 215.027 337.297C214.504 337.208 214.037 337.052 213.548 336.941C212.581 336.663 211.658 336.374 210.79 336.04C209.167 335.43 207.597 334.686 206.098 333.816C203.923 332.566 201.91 331.053 200.104 329.313C199.47 328.69 198.992 328.201 198.703 327.834C198.535 327.661 198.386 327.47 198.258 327.266C198.453 327.406 198.632 327.566 198.792 327.745C199.114 328.078 199.603 328.556 200.259 329.146C202.104 330.805 204.13 332.253 206.298 333.46C207.791 334.296 209.349 335.01 210.957 335.595C211.824 335.918 212.736 336.196 213.682 336.463C214.627 336.73 215.683 337.097 216.439 336.674C216.616 336.556 216.748 336.383 216.816 336.182C216.885 335.981 216.885 335.763 216.817 335.562C216.686 335.073 216.464 334.612 216.161 334.205C215.55 333.305 214.927 332.382 214.282 331.448C213.007 329.557 211.691 327.615 210.334 325.621L209.111 323.808L207.999 322.251L209.523 323.408C214.318 327.201 219.968 329.767 225.981 330.88C226.763 331.089 227.579 331.142 228.383 331.036C228.722 330.992 229.031 330.82 229.248 330.555C229.465 330.291 229.573 329.954 229.55 329.613C229.473 328.94 229.261 328.289 228.927 327.7C228.638 327.111 228.36 326.588 228.105 326.021L226.803 323.341L226.003 321.628C225.89 321.437 225.804 321.231 225.747 321.017Z" fill="#263238"/>
<g opacity="0.3">
<path d="M225.679 258.11C228.137 262.257 231.734 265.611 236.043 267.773C235.797 265.488 234.849 263.336 233.33 261.612C238.022 266.082 243.582 269.541 249.665 271.776C247.075 272.93 244.248 273.451 241.417 273.297C238.585 273.144 235.831 272.319 233.381 270.892C230.931 269.465 228.855 267.476 227.325 265.09C225.794 262.703 224.853 259.986 224.578 257.164" fill="black"/>
</g>
<g opacity="0.3">
<path d="M195.93 185.639C204.759 202.62 233.316 211.004 255.712 211.371C262.629 211.472 272.392 216.587 279.242 215.92C294.622 214.441 307.11 206.156 322.522 204.799C332.119 203.988 341.771 203.687 351.257 202.075C360.743 200.463 360.309 199.339 367.848 193.346C375.388 187.352 383.539 181.414 383.417 171.783C369.25 189.131 355.249 194.502 333.442 199.584C311.636 204.666 288.962 204.555 266.599 203.521C241.99 202.409 216.157 199.695 195.93 185.628" fill="black"/>
</g>
<path d="M271.893 55.3997C271.993 55.3997 272.082 56.6562 272.415 58.6468C272.856 61.2373 273.564 63.7752 274.528 66.2196C275.515 68.6594 276.748 70.992 278.209 73.1809C278.875 74.0527 279.494 74.9583 280.066 75.8942C280.066 75.8942 279.81 75.7052 279.421 75.2826C278.867 74.6928 278.351 74.0689 277.875 73.4144C276.293 71.263 274.989 68.9203 273.995 66.442C272.997 63.945 272.332 61.328 272.015 58.6579C271.91 57.8575 271.851 57.0519 271.837 56.2448C271.815 55.9619 271.834 55.6772 271.893 55.3997Z" fill="#F39200"/>
<path d="M279.159 52.6314C279.26 52.6314 278.815 53.7434 278.381 55.6005C277.833 57.9983 277.649 60.4651 277.836 62.9176C278.037 65.3665 278.61 67.7703 279.538 70.0457C280.249 71.8027 280.861 72.8146 280.772 72.8591C280.683 72.9036 280.561 72.6478 280.26 72.203C279.842 71.5672 279.471 70.9019 279.148 70.2125C277.014 65.6054 276.6 60.3865 277.981 55.5004C278.179 54.7693 278.435 54.0554 278.748 53.3654C278.982 52.8316 279.126 52.5647 279.159 52.6314Z" fill="#F39200"/>
<path d="M143.062 237.449C143.195 237.289 143.344 237.144 143.507 237.015C143.808 236.749 144.241 236.326 144.853 235.903C146.562 234.546 148.368 233.315 150.257 232.223C156.534 228.666 163.364 226.192 170.463 224.905C177.54 223.617 184.71 222.903 191.903 222.77C194.66 222.704 196.884 222.681 198.419 222.681H200.198C200.405 222.664 200.614 222.664 200.821 222.681C200.617 222.732 200.408 222.758 200.198 222.759L198.43 222.848L191.914 223.126C184.756 223.355 177.625 224.098 170.574 225.35C163.535 226.636 156.745 229.031 150.457 232.445C148.57 233.507 146.746 234.681 144.997 235.959C143.763 236.949 143.096 237.482 143.062 237.449Z" fill="#F39200"/>
<path d="M302.462 57.4577C302.462 57.5578 300.56 56.924 297.469 56.1678C295.672 55.7257 293.827 55.5053 291.976 55.5117C289.727 55.5274 287.524 56.1539 285.604 57.3243C284.628 57.9315 283.779 58.7205 283.102 59.6484C282.493 60.526 282.065 61.5167 281.845 62.5619C281.527 64.3737 281.607 66.2329 282.079 68.0108C282.846 71.08 283.669 72.9037 283.558 72.9482C283.305 72.5548 283.1 72.1331 282.946 71.6916C282.441 70.5287 282.018 69.3323 281.678 68.1109C281.136 66.2787 281.014 64.3476 281.322 62.4618C281.541 61.3377 281.987 60.2704 282.635 59.326C283.351 58.3285 284.254 57.4789 285.292 56.8239C287.304 55.6052 289.613 54.9664 291.965 54.9779C293.845 54.9962 295.715 55.2654 297.525 55.7786C299.07 56.19 300.294 56.6126 301.139 56.8906C301.598 57.0347 302.041 57.2247 302.462 57.4577Z" fill="#F39200"/>
<path d="M469.306 336.129C468.105 328.145 464.191 320.283 457.508 315.735C450.824 311.187 441.205 310.653 434.845 315.646L408.445 351.342L464.647 351.575C467.783 348.673 469.94 340.355 469.306 336.129Z" fill="#F39200"/>
<g opacity="0.3">
<path d="M431.932 350.83C436.68 348.85 440.183 344.591 442.34 339.921C444.497 335.25 445.443 330.135 446.388 325.075C447.166 320.883 447.9 316.357 446.076 312.487C445.641 312.464 445.207 312.554 444.817 312.749C444.427 312.944 444.095 313.237 443.852 313.599C443.364 314.337 443.007 315.153 442.796 316.012C438.448 329.735 431.742 341.589 420.789 350.874" fill="black"/>
</g>
<g opacity="0.3">
<path d="M264.992 71.9915C270.552 88.0157 271.252 105.352 270.652 122.244C270.352 130.673 269.718 139.191 267.082 147.209C264.447 155.226 259.609 162.777 252.426 167.225C245.642 171.417 237.258 172.518 229.34 171.473C221.423 170.428 213.905 167.392 206.777 163.811C198.637 159.719 190.797 154.826 184.481 148.243C178.165 141.66 172.983 132.463 171.938 123.423L183.658 124.701C183.658 124.701 192.677 123.745 206.699 110.178C222.023 95.3662 224.814 93.5536 236.29 85.8361C245.191 79.9504 254.845 75.2934 264.992 71.9915Z" fill="white"/>
</g>
<g opacity="0.3">
<path d="M313.438 170.761C315.655 169.511 318.22 169.02 320.741 169.363C323.263 169.707 325.603 170.865 327.405 172.662C329.189 170.331 331.602 168.558 334.361 167.553C337.119 166.548 340.108 166.353 342.973 166.991C339.498 168.358 336.263 170.268 333.388 172.651C330.641 175.176 328.662 178.801 329.006 182.515C325.57 178.814 321.619 175.627 317.274 173.052C315.473 171.94 313.104 171.039 311.414 172.284" fill="black"/>
</g>
<path d="M351.731 296.041C345.275 300.675 340.517 307.297 338.186 314.893C335.854 322.489 336.077 330.641 338.82 338.098" fill="#F39200"/>
<path d="M338.821 338.098C338.73 337.965 338.659 337.819 338.61 337.665C338.499 337.364 338.31 336.942 338.12 336.363C337.579 334.757 337.166 333.11 336.886 331.437C335.915 325.889 336.27 320.19 337.923 314.806C339.575 309.422 342.478 304.504 346.394 300.456C347.564 299.242 348.833 298.126 350.186 297.12C350.653 296.753 351.053 296.497 351.298 296.32C351.543 296.142 351.709 296.064 351.72 296.086C351.272 296.515 350.8 296.92 350.308 297.298C349.028 298.381 347.817 299.543 346.683 300.779C342.898 304.842 340.085 309.712 338.455 315.021C336.826 320.329 336.422 325.939 337.275 331.426C337.523 333.085 337.876 334.727 338.332 336.341C338.534 336.915 338.698 337.502 338.821 338.098Z" fill="#263238"/>
<path d="M373.842 257.543C378.39 254.052 384.261 250.382 389.41 252.839C390.836 253.621 392.059 254.727 392.98 256.067C393.902 257.408 394.496 258.945 394.714 260.557C395.115 263.784 394.911 267.057 394.114 270.209C390.38 288.603 382.266 305.825 370.461 320.417C366.18 325.71 360.086 331.07 353.436 329.614C347.231 328.246 343.706 321.151 344.073 314.801C344.44 308.452 347.643 302.68 350.612 297.009C357.662 283.665 364.512 269.031 373.808 257.499" fill="#F39200"/>
<path d="M373.852 257.543C373.763 257.689 373.667 257.83 373.563 257.966L372.673 259.155C371.883 260.201 370.738 261.769 369.337 263.826C365.462 269.69 361.913 275.764 358.706 282.019L352.034 294.963C349.676 299.633 346.707 304.459 345.162 310.108C344.331 312.977 344.175 315.999 344.706 318.938C345.265 321.997 346.779 324.8 349.031 326.944C350.198 327.996 351.596 328.758 353.112 329.168C354.665 329.57 356.289 329.612 357.861 329.291C361.077 328.461 364.011 326.783 366.357 324.431C368.756 322.109 370.941 319.574 372.884 316.858C374.886 314.234 376.687 311.521 378.444 308.83C384.672 298.886 389.383 288.069 392.422 276.737C393.09 274.216 393.661 271.762 394.135 269.375C394.638 267.113 394.866 264.798 394.813 262.48C394.68 258.11 392.389 254.14 389.131 252.817C387.633 252.184 385.987 251.987 384.383 252.25C383.03 252.478 381.713 252.886 380.468 253.462C378.744 254.279 377.096 255.246 375.542 256.353L374.319 257.221C374.052 257.41 373.896 257.499 373.896 257.499L374.285 257.176C374.552 256.954 374.941 256.653 375.475 256.264C377.005 255.107 378.644 254.102 380.368 253.262C381.624 252.649 382.961 252.219 384.338 251.983C386.123 251.654 387.965 251.896 389.604 252.675C391.243 253.453 392.595 254.729 393.468 256.32C394.543 258.192 395.143 260.3 395.214 262.458C395.29 264.807 395.077 267.156 394.58 269.453C394.102 271.855 393.546 274.324 392.89 276.859C389.873 288.245 385.169 299.115 378.934 309.108C377.199 311.821 375.386 314.534 373.374 317.181C371.41 319.928 369.203 322.492 366.779 324.843C364.358 327.267 361.326 328.992 358.005 329.836C356.348 330.172 354.636 330.123 353.001 329.691C351.394 329.248 349.915 328.428 348.687 327.3C346.358 325.071 344.8 322.157 344.239 318.982C343.691 315.962 343.855 312.855 344.717 309.908C346.307 304.148 349.309 299.322 351.667 294.674C354.024 290.025 356.36 285.711 358.428 281.763C361.671 275.513 365.28 269.461 369.237 263.637C370.66 261.591 371.839 260.045 372.651 259.022L373.596 257.91C373.676 257.784 373.761 257.661 373.852 257.543Z" fill="#263238"/>
<g opacity="0.3">
<path d="M374.407 273.401V273.456C375.519 270.32 377.888 269.42 380.434 268.497C382.981 267.574 386.061 267.674 388.107 269.453C390.465 271.499 390.765 275.102 390.131 278.16C389.982 279.241 389.539 280.26 388.852 281.107C388.497 281.519 388.02 281.806 387.49 281.928C386.96 282.05 386.405 282 385.905 281.785C384.793 281.174 384.449 279.561 383.27 279.072C382.091 278.583 380.534 279.684 379.111 280.039C378.137 280.228 377.128 280.074 376.255 279.603C375.382 279.133 374.697 278.376 374.318 277.46C374.063 276.811 373.939 276.118 373.954 275.421C373.97 274.724 374.124 274.037 374.407 273.401Z" fill="black"/>
</g>
<g opacity="0.3">
<path d="M379.255 257.743C379.826 257.997 380.303 258.425 380.616 258.967C380.93 259.508 381.064 260.134 381.001 260.756C380.946 262.152 380.641 263.527 380.1 264.815C379.711 265.927 379.055 267.161 377.876 267.206C377.545 267.197 377.222 267.103 376.938 266.934C376.654 266.765 376.418 266.525 376.252 266.238C375.934 265.658 375.755 265.01 375.73 264.348C375.619 262.832 375.855 261.311 376.419 259.9C376.663 259.164 377.119 258.518 377.731 258.043C378.04 257.809 378.417 257.683 378.805 257.683C379.192 257.683 379.569 257.809 379.878 258.043" fill="black"/>
</g>
<g opacity="0.3">
<path d="M392.582 260.479C393.154 260.733 393.63 261.162 393.944 261.703C394.257 262.244 394.392 262.87 394.328 263.492C394.272 264.888 393.967 266.263 393.428 267.551C393.038 268.663 392.371 269.898 391.204 269.942C390.873 269.934 390.549 269.841 390.265 269.672C389.98 269.502 389.744 269.262 389.58 268.975C389.251 268.398 389.071 267.748 389.057 267.084C388.949 265.57 389.18 264.05 389.736 262.636C389.983 261.9 390.444 261.254 391.059 260.779C391.367 260.544 391.744 260.416 392.132 260.416C392.52 260.416 392.897 260.544 393.205 260.779" fill="black"/>
</g>
<g opacity="0.3">
<path d="M386.951 255.385C387.52 255.646 387.994 256.077 388.307 256.619C388.62 257.161 388.756 257.787 388.697 258.41C388.636 259.802 388.331 261.172 387.796 262.458C387.396 263.57 386.74 264.815 385.572 264.849C385.241 264.841 384.918 264.748 384.633 264.578C384.349 264.409 384.113 264.169 383.949 263.881C383.628 263.306 383.453 262.661 383.437 262.002C383.317 260.487 383.549 258.964 384.116 257.554C384.358 256.815 384.819 256.167 385.439 255.697C385.746 255.464 386.121 255.338 386.506 255.338C386.892 255.338 387.267 255.464 387.574 255.697" fill="black"/>
</g>
<g opacity="0.3">
<path d="M382.63 300.845C381.743 307.573 379.912 314.143 377.193 320.361C374.45 326.604 370.257 332.102 364.96 336.396C362.514 338.309 359.645 339.955 356.542 340.033C352.15 340.144 348.147 336.997 346.167 333.071C344.188 329.146 343.943 324.587 344.143 320.205C346.267 323.753 348.658 327.534 352.506 329.101C354.206 329.672 356.01 329.867 357.793 329.675C359.576 329.483 361.296 328.908 362.836 327.989C365.906 326.13 368.59 323.699 370.743 320.828C375.507 315.012 379.424 308.55 382.375 301.635" fill="black"/>
</g>
<path d="M133.575 258.433C128.104 256.754 121.343 255.364 117.318 259.479C116.263 260.716 115.512 262.183 115.126 263.763C114.74 265.342 114.729 266.99 115.094 268.575C115.845 271.741 117.18 274.739 119.03 277.416C128.97 293.336 142.594 306.631 158.752 316.181C164.612 319.628 172.196 322.519 177.912 318.816C183.261 315.369 184.061 307.485 181.504 301.669C178.946 295.853 173.942 291.527 169.149 287.268C157.873 277.26 146.33 265.94 133.564 258.356" fill="#F39200"/>
<path d="M133.571 258.432C133.571 258.432 133.726 258.499 134.027 258.665L135.305 259.422C136.417 260.1 138.074 261.134 140.132 262.546C145.876 266.619 151.375 271.027 156.601 275.746L167.465 285.465C171.302 288.99 175.805 292.46 179.308 297.297C181.151 299.753 182.396 302.605 182.945 305.626C183.515 308.804 183.068 312.081 181.666 314.989C180.904 316.471 179.808 317.754 178.463 318.737C177.081 319.718 175.49 320.365 173.815 320.627C170.395 321.012 166.936 320.458 163.807 319.026C160.703 317.673 157.726 316.046 154.91 314.166C152.108 312.387 149.45 310.475 146.882 308.551C142.007 304.783 137.434 300.641 133.204 296.163C129.356 292.108 125.803 287.782 122.573 283.219C121.072 281.073 119.682 278.949 118.403 276.869C117.128 274.893 116.101 272.768 115.345 270.542C114.656 268.495 114.481 266.311 114.833 264.181C115.093 262.386 115.911 260.717 117.173 259.414C118.435 258.11 120.075 257.238 121.861 256.92C123.236 256.665 124.639 256.597 126.031 256.719C127.941 256.911 129.829 257.283 131.669 257.831C132.303 258.009 132.781 258.154 133.093 258.265L133.571 258.443L133.081 258.321L131.636 257.943C129.792 257.452 127.909 257.121 126.009 256.953C124.64 256.852 123.264 256.935 121.917 257.198C120.318 257.521 118.845 258.292 117.669 259.422C115.078 261.812 114.333 266.327 115.734 270.464C116.495 272.651 117.518 274.739 118.781 276.68C120.071 278.749 121.465 280.85 122.962 282.985C129.782 292.532 137.986 301.01 147.304 308.139C149.862 310.063 152.508 311.965 155.3 313.699C158.073 315.563 161.01 317.17 164.074 318.503C167.089 319.891 170.425 320.437 173.726 320.082C175.327 319.839 176.85 319.226 178.174 318.292C179.45 317.367 180.487 316.151 181.199 314.745C182.555 311.949 182.991 308.796 182.444 305.737C181.917 302.797 180.71 300.021 178.919 297.631C175.494 292.871 171.024 289.391 167.187 285.843L156.378 276.069C151.184 271.322 145.731 266.867 140.043 262.724C138.019 261.279 136.395 260.222 135.294 259.511L134.038 258.71L133.571 258.432Z" fill="#263238"/>
<g opacity="0.3">
<path d="M138.626 273.466C136.48 270.92 133.955 270.898 131.242 270.931C128.529 270.964 125.682 272.143 124.392 274.512C122.902 277.269 123.88 280.739 125.504 283.408C126.014 284.369 126.785 285.167 127.728 285.71C128.202 285.976 128.749 286.081 129.288 286.011C129.827 285.941 130.329 285.699 130.719 285.321C131.553 284.353 131.32 282.741 132.232 281.851C133.144 280.961 135.023 281.462 136.468 281.306C137.446 281.141 138.337 280.643 138.991 279.898C139.646 279.153 140.023 278.205 140.06 277.214C140.09 275.825 139.575 274.48 138.626 273.466Z" fill="black"/>
</g>
<g opacity="0.3">
<path d="M128.574 260.502C128.128 260.943 127.832 261.514 127.729 262.132C127.625 262.751 127.718 263.387 127.995 263.949C128.525 265.232 129.278 266.41 130.22 267.43C130.965 268.308 132.032 269.265 133.122 268.898C133.429 268.774 133.699 268.572 133.906 268.313C134.112 268.054 134.248 267.746 134.301 267.419C134.401 266.766 134.344 266.099 134.134 265.473C133.698 264.01 132.938 262.664 131.91 261.536C131.424 260.928 130.765 260.482 130.019 260.257C129.647 260.155 129.251 260.177 128.892 260.319C128.533 260.462 128.23 260.717 128.029 261.047" fill="black"/>
</g>
<g opacity="0.3">
<path d="M117.072 267.74C116.628 268.18 116.333 268.749 116.229 269.365C116.125 269.982 116.218 270.616 116.494 271.177C117.023 272.459 117.777 273.638 118.718 274.657C119.474 275.536 120.531 276.492 121.632 276.125C121.938 275.999 122.207 275.797 122.413 275.538C122.619 275.28 122.756 274.973 122.81 274.646C122.907 273.993 122.846 273.325 122.633 272.7C122.201 271.235 121.44 269.889 120.409 268.764C119.923 268.155 119.263 267.709 118.518 267.485C118.146 267.382 117.75 267.404 117.391 267.547C117.032 267.689 116.729 267.944 116.528 268.274" fill="black"/>
</g>
<g opacity="0.3">
<path d="M120.557 261.001C120.112 261.441 119.817 262.009 119.713 262.626C119.609 263.243 119.702 263.876 119.979 264.437C120.508 265.72 121.261 266.899 122.203 267.918C122.959 268.797 124.015 269.753 125.116 269.386C125.423 269.261 125.692 269.059 125.899 268.8C126.105 268.541 126.241 268.234 126.295 267.907C126.391 267.253 126.33 266.586 126.117 265.961C125.686 264.496 124.925 263.15 123.893 262.024C123.407 261.416 122.748 260.97 122.002 260.745C121.63 260.643 121.234 260.665 120.875 260.807C120.516 260.95 120.213 261.205 120.012 261.535" fill="black"/>
</g>
<g opacity="0.3">
<path d="M140.57 302.057C143.748 308.036 147.749 313.538 152.458 318.404C157.191 323.3 163.029 326.992 169.483 329.168C172.441 330.113 175.699 330.647 178.635 329.635C182.794 328.201 185.429 323.853 185.907 319.482C186.386 315.112 185.051 310.742 183.294 306.716C182.549 310.786 181.637 315.168 178.568 317.948C177.187 319.079 175.577 319.897 173.849 320.346C172.122 320.795 170.317 320.865 168.56 320.55C165.033 319.887 161.666 318.555 158.641 316.624C152.146 312.841 146.216 308.161 141.026 302.724" fill="black"/>
</g>
<g opacity="0.3">
<path d="M136.44 296.019C136.117 296.464 135.795 296.92 135.483 297.376C136.857 295.16 138.665 293.247 140.799 291.75C142.932 290.253 145.347 289.204 147.898 288.667C150.448 288.13 153.081 288.115 155.637 288.624C158.194 289.133 160.62 290.155 162.77 291.628C164.92 293.101 166.75 294.995 168.147 297.195C169.545 299.395 170.482 301.855 170.902 304.427C171.323 307 171.217 309.631 170.592 312.161C169.966 314.691 168.835 317.068 167.265 319.149C154.763 314.038 143.446 306.411 134.016 296.742" fill="white"/>
</g>
<path d="M450.391 285.043C450.4 285.293 450.381 285.543 450.335 285.788C450.257 286.344 450.157 287.045 450.046 287.923C449.79 289.78 449.357 292.449 448.745 295.708C447.232 304.311 444.954 312.763 441.939 320.962C440.207 325.46 438.113 329.811 435.679 333.972C435.112 334.929 434.5 335.818 433.944 336.708L433.099 338.009L432.198 339.221L430.486 341.501C429.896 342.201 429.307 342.857 428.751 343.48C428.195 344.103 427.694 344.737 427.138 345.248L425.604 346.727L424.258 348.006L423.035 348.973L421.334 350.308C421.146 350.476 420.936 350.618 420.711 350.73C420.879 350.543 421.061 350.368 421.256 350.208L422.89 348.807L424.069 347.806L425.37 346.494L426.872 345.003C427.416 344.481 427.895 343.836 428.439 343.213L430.13 341.223L431.809 338.932L432.687 337.731C432.965 337.308 433.232 336.875 433.51 336.43C434.066 335.54 434.622 334.651 435.223 333.705C437.591 329.553 439.639 325.225 441.35 320.761C444.363 312.604 446.703 304.214 448.345 295.674C449.001 292.405 449.457 289.747 449.824 287.89C449.979 287.023 450.113 286.322 450.213 285.777C450.254 285.528 450.313 285.283 450.391 285.043Z" fill="#263238"/>
<path d="M194.555 217.589C194.7 217.389 194.872 217.209 195.066 217.055L196.612 215.61C197.29 214.976 198.124 214.22 199.125 213.386C200.126 212.551 201.238 211.54 202.528 210.516C205.074 208.415 208.199 206.068 211.769 203.511C215.338 200.953 219.375 198.407 223.734 195.871C228.093 193.336 232.375 191.156 236.311 189.288C240.248 187.42 243.895 185.952 246.987 184.762C248.521 184.15 249.933 183.65 251.168 183.227C252.402 182.805 253.481 182.438 254.359 182.171L256.394 181.548C256.624 181.463 256.863 181.403 257.106 181.37C256.888 181.485 256.661 181.582 256.428 181.659L254.426 182.382C253.559 182.683 252.502 183.061 251.279 183.494C250.056 183.928 248.655 184.462 247.131 185.096C244.073 186.308 240.459 187.876 236.545 189.733C232.63 191.59 228.427 193.858 223.979 196.349C219.531 198.84 215.616 201.465 212.025 203.933C208.433 206.402 205.352 208.759 202.739 210.817C201.438 211.818 200.304 212.785 199.292 213.619C198.28 214.453 197.413 215.165 196.723 215.776L195.1 217.144C194.936 217.313 194.753 217.462 194.555 217.589Z" fill="#263238"/>
<path d="M163.25 199.017C163.25 199.017 163.317 198.961 163.45 198.861L164.073 198.438L166.519 196.881C167.576 196.203 168.877 195.391 170.434 194.513C171.991 193.634 173.77 192.567 175.727 191.544L178.841 189.887C179.953 189.32 181.065 188.775 182.277 188.197C184.634 187.007 187.236 185.895 189.95 184.683C195.432 182.37 201.548 180.057 208.109 178.01C214.67 175.964 221.042 174.485 226.88 173.329C229.805 172.806 232.585 172.272 235.209 171.928C236.51 171.75 237.778 171.538 238.99 171.405L242.504 171.016C244.728 170.749 246.763 170.638 248.542 170.504C250.321 170.371 251.878 170.293 253.124 170.26L256.015 170.182H256.76C256.848 170.165 256.939 170.165 257.027 170.182H256.771L256.015 170.249L253.135 170.438C251.878 170.504 250.344 170.593 248.575 170.771C246.807 170.949 244.772 171.071 242.548 171.372L239.045 171.794C237.833 171.939 236.577 172.161 235.276 172.35C232.662 172.706 229.894 173.262 226.98 173.796C221.175 174.986 214.826 176.52 208.276 178.511C201.726 180.501 195.632 182.826 190.161 185.105C187.448 186.295 184.845 187.396 182.488 188.564C181.298 189.142 180.131 189.676 179.041 190.22L175.916 191.844C173.914 192.845 172.157 193.868 170.6 194.724C169.044 195.58 167.709 196.359 166.631 197.004L164.14 198.472L163.484 198.839C163.339 198.994 163.25 199.028 163.25 199.017Z" fill="#263238"/>
<path d="M295.774 162.365C295.841 162.531 292.972 163.743 289.802 165.867C286.633 167.991 284.398 170.16 284.242 170.026C287.279 166.443 291.264 163.788 295.74 162.365H295.774Z" fill="#263238"/>
<path d="M314.586 168.404C314.586 168.515 312.94 167.77 310.216 167.08C306.666 166.153 302.989 165.815 299.329 166.079C295.668 166.232 292.085 167.185 288.832 168.871C287.537 169.65 286.422 170.696 285.562 171.94C285.676 171.535 285.869 171.157 286.13 170.828C286.805 169.905 287.65 169.12 288.621 168.515C291.045 166.925 294.948 165.824 299.285 165.49C303.007 165.221 306.746 165.62 310.327 166.669C311.407 166.97 312.465 167.342 313.497 167.781C313.881 167.948 314.247 168.157 314.586 168.404Z" fill="#263238"/>
<path d="M278.045 177.678L279.346 180.791C279.73 181.597 279.992 182.455 280.124 183.338C280.187 183.782 280.154 184.233 280.027 184.663C279.9 185.093 279.683 185.49 279.39 185.829C278.889 186.252 278.264 186.499 277.609 186.533C276.955 186.568 276.307 186.387 275.765 186.018C274.712 185.238 273.933 184.144 273.541 182.893C273.074 181.67 272.762 180.38 272.195 179.201C272.916 178.544 273.46 177.715 273.777 176.792C274.094 175.869 274.173 174.881 274.008 173.919C274.008 173.919 275.131 177.478 278.045 177.678Z" fill="#F5F5F5"/>
<path d="M259.883 166.335C260.868 164.352 262.256 162.595 263.958 161.178C265.66 159.761 267.639 158.715 269.769 158.106C276.863 156.238 284.225 163.666 284.225 163.666C284.225 163.666 275.651 161.142 275.774 165.401C275.896 169.66 278.42 169.56 275.573 172.362C272.727 175.165 267.845 172.218 266.677 168.915L264.387 165.69L259.883 166.335Z" fill="#263238"/>
<path d="M289.27 170.505C289.27 170.505 289.27 170.65 289.325 170.905C289.363 171.294 289.363 171.685 289.325 172.073C289.122 173.498 288.546 174.844 287.657 175.976C287.008 176.836 286.192 177.555 285.257 178.09C284.322 178.625 283.289 178.965 282.219 179.09C280.899 179.191 279.573 178.978 278.35 178.47C277.127 177.962 276.041 177.172 275.18 176.165C274.328 175.187 273.729 174.015 273.434 172.751L273.979 172.596C274.314 173.642 274.404 174.752 274.245 175.839C274.085 176.926 273.678 177.962 273.056 178.868C272.215 180.046 271.025 180.93 269.654 181.395C268.283 181.859 266.801 181.882 265.417 181.459C265.125 181.37 264.842 181.255 264.572 181.114C264.394 181.014 264.305 180.958 264.305 180.936C264.305 180.914 264.716 181.092 265.472 181.269C266.541 181.513 267.651 181.513 268.719 181.269C270.321 180.908 271.725 179.95 272.645 178.59C273.206 177.742 273.57 176.78 273.708 175.773C273.847 174.766 273.757 173.741 273.446 172.774L273.99 172.629C274.274 173.798 274.835 174.881 275.625 175.787C276.426 176.727 277.435 177.467 278.572 177.95C279.709 178.432 280.942 178.644 282.175 178.567C283.182 178.458 284.158 178.15 285.045 177.661C285.933 177.172 286.715 176.513 287.346 175.721C288.229 174.655 288.833 173.386 289.103 172.029C289.247 171.094 289.214 170.505 289.27 170.505Z" fill="#263238"/>
<path d="M275.52 159.151C274.784 159.261 274.039 159.295 273.296 159.251C271.497 159.232 269.705 159.464 267.97 159.94C266.256 160.44 264.701 161.375 263.455 162.654C262.532 163.666 262.198 164.477 262.109 164.444C262.256 163.673 262.618 162.959 263.155 162.387C264.368 160.942 265.987 159.896 267.803 159.384C269.593 158.888 271.455 158.704 273.307 158.839C274.057 158.827 274.803 158.932 275.52 159.151Z" fill="white"/>
<path d="M277.658 186.785C276.585 184.982 275.776 183.035 275.256 181.003C274.561 179.026 274.156 176.958 274.055 174.865C274.221 174.865 274.811 177.556 275.812 180.836C276.812 184.117 277.813 186.719 277.658 186.785Z" fill="#263238"/>
<path d="M198.477 199.251C198.612 199.107 198.761 198.977 198.921 198.862L200.267 197.817C201.379 196.916 203.192 195.681 205.404 194.236C207.617 192.79 210.308 191.167 213.389 189.499C216.469 187.831 219.939 186.163 223.675 184.639C227.411 183.116 231.048 181.87 234.395 180.858C237.742 179.846 240.811 179.112 243.402 178.634C245.993 178.156 248.106 177.745 249.574 177.522L251.264 177.311C251.46 177.289 251.658 177.289 251.854 177.311C251.669 177.39 251.475 177.443 251.275 177.467L249.607 177.778C248.151 178.023 246.06 178.445 243.491 179.023C240.922 179.602 237.931 180.38 234.595 181.392C231.259 182.404 227.656 183.683 223.931 185.195C220.205 186.707 216.769 188.387 213.678 189.999C210.586 191.611 207.895 193.202 205.66 194.603C203.425 196.004 201.657 197.183 200.445 198.028L199.033 198.973C198.666 199.173 198.488 199.273 198.477 199.251Z" fill="#263238"/>
<path d="M254.202 150.263C257.414 136.792 249.097 123.267 235.625 120.055C222.154 116.844 208.629 125.161 205.417 138.632C202.205 152.104 210.522 165.628 223.994 168.84C237.466 172.052 250.99 163.735 254.202 150.263Z" fill="#F5F5F5"/>
<path d="M254.902 144.484C254.902 156.583 246.728 166.402 239.812 166.402C232.895 166.402 227.312 156.583 227.312 144.484C227.312 132.385 232.873 122.555 239.856 122.555C246.84 122.555 254.902 132.374 254.902 144.484Z" fill="#263238"/>
<path d="M245.378 136.377C247.749 136.377 249.671 134.455 249.671 132.085C249.671 129.714 247.749 127.792 245.378 127.792C243.008 127.792 241.086 129.714 241.086 132.085C241.086 134.455 243.008 136.377 245.378 136.377Z" fill="white"/>
<path d="M234.273 160.409C234.023 160.088 233.813 159.737 233.65 159.364C233.126 158.379 232.676 157.357 232.304 156.306C231.728 154.751 231.278 153.151 230.959 151.524C230.581 149.529 230.373 147.505 230.336 145.474C230.329 143.44 230.496 141.409 230.837 139.403C231.122 137.771 231.538 136.164 232.082 134.599C232.43 133.541 232.857 132.512 233.361 131.519C233.512 131.123 233.714 130.749 233.961 130.406C234.061 130.406 233.294 132.019 232.471 134.688C231.994 136.247 231.622 137.837 231.359 139.447C231.056 141.423 230.907 143.42 230.914 145.419C230.951 147.417 231.14 149.41 231.482 151.379C231.774 152.988 232.179 154.575 232.694 156.128C233.572 158.819 234.373 160.364 234.273 160.409Z" fill="white"/>
<path d="M223.46 112.547C223.394 113.359 222.459 113.982 221.236 114.56C220.013 115.138 218.356 115.672 216.721 116.417C215.087 117.162 213.652 117.807 212.429 118.363C211.206 118.919 210.205 119.253 209.482 118.819C208.759 118.385 208.67 117.173 209.482 115.561C210.579 113.526 212.365 111.949 214.52 111.113C216.583 110.204 218.887 109.993 221.081 110.512C222.649 110.935 223.527 111.769 223.46 112.547Z" fill="#263238"/>
<path d="M103.781 326.188L109.419 317.359C136.263 346.85 224.958 381.923 304.368 302.647C338.474 268.597 335.716 211.061 335.716 211.061L328.932 189.754H335.716C335.716 189.754 355.376 226.017 334.793 273.501C334.793 273.501 313.664 329.78 248.978 350.23C146.939 382.457 103.781 326.188 103.781 326.188Z" fill="#F39200"/>
<g opacity="0.7">
<path d="M103.781 326.188L109.419 317.359C136.263 346.85 224.958 381.923 304.368 302.647C338.474 268.597 335.716 211.061 335.716 211.061L328.932 189.754H335.716C335.716 189.754 355.376 226.017 334.793 273.501C334.793 273.501 313.664 329.78 248.978 350.23C146.939 382.457 103.781 326.188 103.781 326.188Z" fill="white"/>
</g>
<path d="M102.261 336.978C121.086 318.152 121.086 287.63 102.261 268.804C83.435 249.978 52.9126 249.978 34.0869 268.804C15.2612 287.63 15.2612 318.152 34.0869 336.978C52.9126 355.803 83.4351 355.803 102.261 336.978Z" fill="#F39200"/>
<g opacity="0.7">
<path d="M102.261 336.979C121.086 318.153 121.086 287.631 102.261 268.805C83.435 249.979 52.9126 249.979 34.0869 268.805C15.2612 287.631 15.2612 318.153 34.0869 336.979C52.9126 355.804 83.4351 355.804 102.261 336.979Z" fill="white"/>
</g>
<path d="M79.7309 256.031C79.7051 256.339 79.6492 256.645 79.5641 256.942C79.4307 257.587 79.2305 258.455 78.997 259.556C78.8636 260.123 78.719 260.757 78.5633 261.435C78.4076 262.113 78.163 262.847 77.9406 263.659C77.4624 265.238 77.0065 267.062 76.2726 269.008L75.1605 272.077C74.7824 273.189 74.3043 274.223 73.8483 275.357C72.981 277.637 71.8245 279.983 70.6568 282.463C67.9815 287.787 64.9267 292.912 61.516 297.798C58.0353 302.637 54.2112 307.219 50.0733 311.509C48.105 313.433 46.2813 315.29 44.4131 316.869C43.5012 317.67 42.6339 318.482 41.7554 319.193L39.2088 321.228C37.6186 322.563 36.0507 323.597 34.7608 324.564C34.0824 325.043 33.4708 325.499 32.8814 325.888L31.2468 326.922L29.0227 328.323C28.7691 328.504 28.497 328.656 28.2109 328.779C28.4473 328.578 28.6961 328.392 28.956 328.223L31.18 326.733L32.7814 325.621C33.3596 325.209 33.9601 324.742 34.6273 324.264C35.9395 323.275 37.4852 322.207 39.0754 320.861L41.5886 318.815C42.4671 318.092 43.3122 317.281 44.2129 316.469C46.0589 314.879 47.8715 313.011 49.7731 311.087C53.8496 306.809 57.6247 302.253 61.0712 297.453C64.4681 292.593 67.5225 287.503 70.212 282.219C71.3908 279.75 72.5473 277.426 73.4369 275.168C73.9039 274.056 74.3932 272.944 74.7824 271.91C75.1717 270.876 75.5386 269.831 75.8945 268.863C76.6506 266.928 77.1399 265.116 77.6403 263.559C77.8739 262.769 78.1185 262.035 78.3076 261.335C78.4966 260.634 78.6412 260.034 78.7857 259.467C79.0749 258.355 79.2973 257.521 79.4641 256.887C79.5288 256.594 79.6181 256.308 79.7309 256.031Z" fill="#F39200"/>
<path d="M91.1278 260.946C91.0935 261.273 91.0303 261.597 90.9387 261.913C90.7831 262.591 90.5718 263.503 90.2938 264.66C90.1492 265.26 89.9824 265.927 89.8045 266.65C89.6266 267.373 89.3708 268.14 89.115 268.974C88.5924 270.631 88.092 272.566 87.2802 274.601L86.0903 277.837C85.6789 278.949 85.134 280.061 84.6336 281.284C83.6661 283.675 82.4095 286.133 81.1085 288.724C78.1518 294.293 74.7686 299.624 70.9891 304.67C67.15 309.663 62.9382 314.358 58.3898 318.715C56.2548 320.683 54.2309 322.574 52.207 324.175C51.2062 324.987 50.2721 325.821 49.3046 326.522L46.5357 328.579C44.812 329.924 43.1106 330.97 41.665 331.915C40.2194 332.86 38.9406 333.672 37.8841 334.283L35.4377 335.707C35.1599 335.883 34.8701 336.039 34.5703 336.174C34.8261 335.965 35.0975 335.775 35.3821 335.607L37.7618 334.094C38.8071 333.449 40.0748 332.66 41.4871 331.648C42.8994 330.636 44.5896 329.58 46.3022 328.223L49.0266 326.188C49.9829 325.476 50.9059 324.631 51.8956 323.819C53.9084 322.207 55.8989 320.316 58.0229 318.348C62.5211 313.977 66.6983 309.287 70.522 304.314C74.2801 299.297 77.6553 294.003 80.6192 288.479C81.9314 285.899 83.1991 283.464 84.1888 281.084C84.6892 279.906 85.3008 278.794 85.6566 277.67C86.0125 276.547 86.4907 275.446 86.8799 274.468C87.7139 272.433 88.2365 270.531 88.7925 268.908C89.0594 268.074 89.3374 267.306 89.5376 266.595C89.7378 265.883 89.9046 265.227 90.0602 264.626C90.3827 263.514 90.6274 262.58 90.8164 261.913C90.9008 261.585 91.0047 261.262 91.1278 260.946Z" fill="#F39200"/>
<path d="M101.653 269.609C101.597 269.933 101.515 270.253 101.408 270.565C101.208 271.243 100.93 272.144 100.585 273.301C100.408 273.89 100.196 274.546 99.985 275.258C99.7737 275.969 99.4512 276.737 99.1509 277.571C98.5282 279.205 97.8944 281.107 96.9269 283.131L95.5591 286.322C95.0809 287.434 94.5027 288.546 93.9356 289.725C92.8235 292.083 91.4669 294.507 90.0657 297.076C86.9021 302.565 83.3689 307.834 79.4904 312.844C75.5182 317.802 71.2081 322.48 66.5909 326.844C64.3669 328.813 62.3875 330.703 60.3302 332.316C59.3183 333.127 58.3731 333.95 57.3945 334.673L54.6033 336.741C52.8463 338.087 51.1449 339.143 49.6882 340.078C48.9542 340.556 48.2759 341.023 47.6309 341.412L45.8628 342.457L43.3941 343.881C43.112 344.056 42.8185 344.212 42.5156 344.348C42.7743 344.137 43.0495 343.947 43.3385 343.781L45.7405 342.268L47.4864 341.156C48.1202 340.756 48.7874 340.278 49.5102 339.788C50.9448 338.776 52.6239 337.709 54.3587 336.341C55.2483 335.674 56.1713 334.984 57.1276 334.251C58.0839 333.517 59.018 332.694 60.03 331.871C62.0539 330.258 64.0777 328.357 66.2239 326.4C70.7975 322.028 75.077 317.358 79.0345 312.422C82.9281 307.44 86.4869 302.206 89.6876 296.753C91.0999 294.195 92.4899 291.805 93.6019 289.458C94.1691 288.346 94.714 287.234 95.2477 286.122C95.7815 285.01 96.193 283.954 96.6378 282.953C97.5719 280.951 98.228 279.061 98.8618 277.393C99.1843 276.581 99.4845 275.825 99.7403 275.113C99.9961 274.401 100.196 273.757 100.396 273.167C100.786 272.055 101.097 271.143 101.319 270.476C101.41 270.179 101.522 269.89 101.653 269.609Z" fill="#F39200"/>
<path d="M114.305 315.346C113.915 315.248 113.541 315.099 113.192 314.901C112.525 314.59 111.558 314.1 110.379 313.489C108.022 312.265 104.819 310.486 101.316 308.396C97.8132 306.305 94.7663 304.292 92.5756 302.78C91.4636 302.024 90.6073 301.401 90.0068 300.945C89.6818 300.737 89.3831 300.491 89.1172 300.211C89.4811 300.351 89.8251 300.538 90.1402 300.767L92.798 302.435C95.022 303.859 98.1468 305.771 101.616 307.895C105.086 310.019 108.288 311.821 110.579 313.133L113.304 314.701C113.667 314.866 114.004 315.083 114.305 315.346Z" fill="#F39200"/>
<path d="M116.332 304.915C115.211 304.284 114.134 303.578 113.108 302.802C111.139 301.457 108.404 299.633 105.323 297.743C102.243 295.852 99.3407 294.273 97.2501 293.117C96.0931 292.544 94.9783 291.89 93.9141 291.159C94.2567 291.238 94.5862 291.365 94.8926 291.538C95.5043 291.804 96.3716 292.216 97.4392 292.75C99.5743 293.862 102.499 295.363 105.624 297.253C108.748 299.144 111.451 301.034 113.408 302.469C114.364 303.192 115.131 303.781 115.632 304.215C116.132 304.648 116.366 304.893 116.332 304.915Z" fill="#F39200"/>
<path d="M86.6329 346.427C86.4661 346.427 86.088 337.598 85.7878 326.689C85.4875 315.78 85.3652 306.928 85.5209 306.928C85.6766 306.928 86.0547 315.757 86.366 326.666C86.6774 337.575 86.7886 346.427 86.6329 346.427Z" fill="#F39200"/>
<path d="M62.8667 351.953C62.5737 348.28 62.4772 344.594 62.5776 340.911C62.4769 337.227 62.5735 333.541 62.8667 329.868C63.1533 333.542 63.2498 337.227 63.1559 340.911C63.2495 344.594 63.153 348.28 62.8667 351.953Z" fill="#F39200"/>
<path d="M74.5519 350.652C74.3962 350.652 74.3073 343.424 74.374 334.517C74.4407 325.61 74.6075 318.37 74.7743 318.37C74.9411 318.37 75.0078 325.598 74.9522 334.517C74.8966 343.435 74.7076 350.652 74.5519 350.652Z" fill="#F39200"/>
<path d="M49.9043 311.498C49.8153 311.632 43.5213 307.573 35.8594 302.424C28.1976 297.276 22.037 292.994 22.126 292.827C22.2149 292.661 28.509 296.753 36.1819 301.902C43.8549 307.05 49.9932 311.365 49.9043 311.498Z" fill="#F39200"/>
<path d="M41.5101 318.403C41.1765 318.352 40.8534 318.247 40.5538 318.092C39.9644 317.858 39.1081 317.48 38.074 316.98C35.4015 315.674 32.8029 314.223 30.2898 312.632C27.3318 310.764 24.7297 308.907 22.9282 307.528C21.9062 306.83 20.9497 306.041 20.0703 305.17C21.1497 305.773 22.1863 306.449 23.1729 307.194C25.0522 308.495 27.6209 310.285 30.6012 312.143C33.5814 314 36.2947 315.534 38.3075 316.591C39.4097 317.131 40.479 317.737 41.5101 318.403Z" fill="#F39200"/>
<path d="M70.4399 282.375C69.8958 282.638 69.3303 282.853 68.7497 283.02C68.0794 283.268 67.3964 283.479 66.7035 283.654C65.9029 283.876 64.991 284.132 63.968 284.343C61.5685 284.861 59.1398 285.233 56.6953 285.456C53.7007 285.722 50.6933 285.815 47.6879 285.734C44.6832 285.625 41.6871 285.347 38.7139 284.9C36.2884 284.525 33.8862 284.013 31.5191 283.365C30.5072 283.109 29.6065 282.82 28.8169 282.564C28.0274 282.308 27.3379 282.075 26.8042 281.853C26.2249 281.664 25.6631 281.426 25.125 281.141C25.7196 281.26 26.3035 281.427 26.8709 281.641C27.4269 281.83 28.1052 282.042 28.9059 282.253C29.7065 282.464 30.6073 282.742 31.6192 282.976C33.6431 283.498 36.0673 283.943 38.7918 284.377C41.7421 284.787 44.7113 285.047 47.6879 285.155C50.6554 285.232 53.6248 285.154 56.5841 284.922C59.0208 284.724 61.4449 284.393 63.8456 283.932C64.8798 283.754 65.7917 283.521 66.5923 283.332C67.393 283.143 68.0936 282.965 68.6496 282.798C69.231 282.598 69.8307 282.457 70.4399 282.375Z" fill="#F39200"/>
<path d="M75.7683 269.898C75.2446 270.193 74.6979 270.446 74.1336 270.654C73.5998 270.899 72.9326 271.143 72.1542 271.421C71.3758 271.699 70.4862 272.022 69.4965 272.311C67.162 273.027 64.7898 273.613 62.3906 274.068C59.4485 274.606 56.4784 274.977 53.4945 275.18C50.5095 275.357 47.5166 275.357 44.5316 275.18C42.0961 275.023 39.6739 274.704 37.2812 274.223C36.247 274.046 35.3351 273.801 34.5345 273.59C33.8495 273.422 33.174 273.217 32.5106 272.978C31.9308 272.809 31.3656 272.593 30.8203 272.333C31.4186 272.42 32.0071 272.566 32.5773 272.767C33.1222 272.934 33.8117 273.1 34.6123 273.267C35.413 273.434 36.3248 273.667 37.3479 273.823C39.7358 274.235 42.1455 274.51 44.5649 274.646C47.5296 274.78 50.4993 274.754 53.4611 274.568C56.421 274.345 59.3679 273.974 62.2906 273.456C64.9705 272.934 67.3836 272.411 69.363 271.833C70.3638 271.566 71.2535 271.277 72.043 271.021C72.8325 270.765 73.4997 270.565 74.0446 270.354C74.6038 270.148 75.1808 269.996 75.7683 269.898Z" fill="#F39200"/>
<path d="M79.0616 258.911C78.5975 259.171 78.1049 259.376 77.5937 259.523C76.6374 259.89 75.2251 260.368 73.4793 260.902C68.908 262.31 64.2347 263.362 59.5011 264.049C54.7638 264.741 49.9746 265.013 45.1894 264.861C43.3546 264.783 41.8533 264.672 40.8525 264.549C40.3195 264.519 39.7906 264.437 39.2734 264.305C39.8061 264.257 40.3421 264.257 40.8747 264.305C41.8867 264.36 43.3657 264.405 45.2005 264.427C49.951 264.467 54.6978 264.151 59.401 263.482C64.1103 262.784 68.7713 261.792 73.3569 260.513C75.1139 260.023 76.5373 259.612 77.5159 259.312C78.019 259.135 78.5361 259.001 79.0616 258.911Z" fill="#F39200"/>
<path d="M98.5473 306.339C96.6378 308.853 94.5767 311.249 92.3755 313.512C90.3158 315.907 88.1137 318.176 85.7812 320.306C87.6922 317.79 89.7531 315.391 91.953 313.122C94.0109 310.729 96.2131 308.464 98.5473 306.339Z" fill="#F39200"/>
<path d="M107.791 311.81C107.671 312.145 107.503 312.459 107.291 312.744C106.935 313.334 106.379 314.146 105.656 315.135C101.861 320.274 97.0121 324.543 91.4335 327.657C90.3214 328.246 89.4874 328.691 88.8647 328.969C88.5541 329.14 88.2209 329.268 87.875 329.347C87.875 329.269 89.1649 328.568 91.2111 327.301C93.8949 325.659 96.4389 323.8 98.8173 321.741C101.169 319.646 103.341 317.358 105.312 314.902C106.857 312.989 107.713 311.732 107.791 311.81Z" fill="#F39200"/>
<path d="M110.613 316.747C110.408 318.934 109.746 321.053 108.672 322.968C107.598 324.883 106.134 326.552 104.375 327.868C105.772 326.235 107.044 324.499 108.178 322.674C109.134 320.761 109.948 318.78 110.613 316.747Z" fill="#F39200"/>
<path d="M119.939 326.967C119.603 328.758 118.784 330.423 117.571 331.782C116.505 333.261 115.05 334.416 113.367 335.118C114.697 333.964 115.952 332.728 117.126 331.415C118.149 329.988 119.088 328.503 119.939 326.967Z" fill="#F39200"/>
<path d="M135.018 336.197C135.07 338.118 134.568 340.013 133.572 341.657C132.738 343.388 131.411 344.835 129.758 345.816C131.001 344.436 132.118 342.947 133.094 341.367C133.886 339.704 134.529 337.973 135.018 336.197Z" fill="#F39200"/>
<path d="M152.292 344.492C152.704 346.298 152.513 348.188 151.747 349.875C151.158 351.625 150.019 353.138 148.5 354.189C150.819 351.476 152.155 348.059 152.292 344.492Z" fill="#F39200"/>
<path d="M168.237 358.715C168.071 358.66 168.738 356.491 168.894 353.778C169.049 351.065 168.66 348.83 168.827 348.796C169.891 352.058 169.68 355.602 168.237 358.715Z" fill="#F39200"/>
<path d="M181.293 359.672C181.138 359.605 181.938 357.67 182.15 355.146C182.361 352.621 181.927 350.586 182.15 350.553C182.7 352.038 182.912 353.627 182.772 355.204C182.632 356.781 182.142 358.307 181.338 359.672H181.293Z" fill="#F39200"/>
<path d="M199.586 359.548C199.419 359.548 199.686 357.647 199.386 355.367C199.086 353.087 198.374 351.341 198.53 351.275C199.374 352.456 199.871 353.851 199.964 355.3C200.243 356.723 200.112 358.196 199.586 359.548Z" fill="#F39200"/>
<path d="M212.221 358.437C212.043 358.437 212.043 356.646 211.442 354.567C210.842 352.487 209.941 350.942 210.086 350.853C210.976 351.883 211.629 353.096 211.998 354.407C212.367 355.718 212.443 357.093 212.221 358.437Z" fill="#F39200"/>
<path d="M227.045 355.179C226.867 355.179 226.956 353.433 226.3 351.442C225.644 349.452 224.588 348.106 224.732 347.973C225.718 348.864 226.451 350 226.857 351.265C227.263 352.53 227.328 353.88 227.045 355.179Z" fill="#F39200"/>
<path d="M245.283 351.464C245.105 351.464 245.083 349.518 244.271 347.305C243.459 345.093 242.236 343.58 242.369 343.469C243.469 344.464 244.308 345.713 244.816 347.106C245.324 348.499 245.484 349.995 245.283 351.464Z" fill="#F39200"/>
<path d="M260.674 345.46C260.507 345.46 259.896 343.492 258.584 341.29C257.271 339.088 255.815 337.576 255.937 337.453C258.482 339.418 260.178 342.283 260.674 345.46Z" fill="#F39200"/>
<path d="M277.875 336.442C277.709 336.442 277.186 334.351 275.785 332.105C274.384 329.859 272.738 328.435 272.849 328.302C274.237 329.203 275.407 330.4 276.276 331.808C277.145 333.215 277.692 334.798 277.875 336.442Z" fill="#F39200"/>
<path d="M294.684 324.397C293.952 323.101 293.131 321.856 292.227 320.672C291.187 319.607 290.072 318.619 288.891 317.714C290.402 318.137 291.734 319.043 292.683 320.294C293.772 321.412 294.474 322.85 294.684 324.397Z" fill="#F39200"/>
<path d="M309.073 312.11C308.929 312.21 307.594 310.42 305.571 308.596C303.547 306.773 301.656 305.583 301.745 305.427C303.334 306.018 304.773 306.952 305.96 308.163C307.273 309.236 308.335 310.583 309.073 312.11Z" fill="#F39200"/>
<path d="M321.966 296.086C321.821 296.175 320.709 294.374 318.752 292.75C316.795 291.127 314.849 290.304 314.916 290.137C316.464 290.534 317.903 291.277 319.124 292.309C320.345 293.341 321.317 294.636 321.966 296.097V296.086Z" fill="#F39200"/>
<path d="M333.452 277.015C332.153 275.977 330.798 275.012 329.393 274.124C327.894 273.412 326.357 272.785 324.789 272.245C326.514 272.234 328.206 272.712 329.671 273.623C331.23 274.368 332.543 275.545 333.452 277.015Z" fill="#F39200"/>
<path d="M340.435 256.409C337.432 254.668 333.98 253.855 330.516 254.074C332.23 253.577 334.044 253.53 335.782 253.939C337.519 254.349 339.122 255.199 340.435 256.409Z" fill="#F39200"/>
<path d="M343.534 234.279C343.478 234.446 341.666 233.812 339.342 233.567C337.018 233.323 335.116 233.567 335.094 233.345C337.922 232.547 340.949 232.882 343.534 234.279Z" fill="#F39200"/>
<path d="M342.391 212.117C341.344 212.25 340.288 212.295 339.233 212.25C338.19 212.385 337.137 212.437 336.086 212.406C338.078 211.528 340.327 211.425 342.391 212.117Z" fill="#F39200"/>
<path d="M337.854 196.894C336.757 196.665 335.637 196.565 334.518 196.593C333.431 196.805 332.372 197.137 331.359 197.583C331.359 197.527 331.56 197.205 332.093 196.849C332.803 196.391 333.611 196.105 334.451 196.015C335.29 195.921 336.14 196.027 336.931 196.326C337.576 196.56 337.887 196.827 337.854 196.894Z" fill="#F39200"/>
<g opacity="0.3">
<path d="M262.426 271.699C267.82 281.941 280.396 287.201 291.895 285.8C303.393 284.399 313.635 277.248 320.807 268.13C326.09 261.391 330.004 252.661 327.824 244.388C322.12 256.246 312.141 265.508 299.891 270.313C287.642 275.119 274.027 275.114 261.781 270.298" fill="black"/>
</g>
<path d="M329.726 183.572C327.143 179.59 326.196 174.764 327.082 170.101C327.969 165.438 330.621 161.296 334.486 158.54C337.555 156.316 341.258 155.127 344.16 152.725C345.935 151.168 347.381 149.272 348.412 147.148C349.443 145.025 350.04 142.716 350.165 140.359C350.38 135.629 349.332 130.928 347.13 126.737L350.221 125.213L350.488 125.547C352.54 128.242 353.97 131.359 354.673 134.673C355.377 137.987 355.337 141.416 354.556 144.713C353.776 148.009 352.274 151.092 350.159 153.739C348.044 156.386 345.369 158.531 342.326 160.019C340.01 161.082 337.833 162.423 335.843 164.012C331.984 167.348 333.563 171.14 333.563 171.14" fill="#F39200"/>
<g opacity="0.7">
<path d="M329.734 183.572C327.151 179.59 326.203 174.764 327.09 170.101C327.977 165.438 330.629 161.296 334.494 158.54C337.563 156.316 341.266 155.127 344.168 152.725C345.943 151.168 347.389 149.272 348.42 147.148C349.451 145.025 350.047 142.716 350.173 140.359C350.387 135.629 349.34 130.928 347.137 126.737L350.229 125.213L350.496 125.547C352.548 128.242 353.978 131.359 354.681 134.673C355.385 137.987 355.345 141.416 354.564 144.713C353.784 148.009 352.282 151.092 350.167 153.739C348.052 156.386 345.377 158.531 342.333 160.019C340.018 161.082 337.841 162.423 335.85 164.012C331.992 167.348 333.571 171.14 333.571 171.14" fill="white"/>
</g>
<path d="M334.071 171.339C332.812 171.089 331.529 170.977 330.245 171.005C328.973 171.21 327.727 171.557 326.531 172.039C327.542 171.12 328.824 170.555 330.184 170.429C331.544 170.302 332.908 170.622 334.071 171.339Z" fill="#F39200"/>
<path d="M336.989 162.855C336.833 162.91 336.344 161.943 335.432 161.031C334.52 160.119 333.564 159.608 333.62 159.452C333.675 159.296 334.832 159.597 335.844 160.62C336.855 161.643 337.133 162.81 336.989 162.855Z" fill="#F39200"/>
<path d="M347.896 156.405C347.74 156.46 347.34 155.382 346.461 154.325C345.583 153.269 344.638 152.646 344.715 152.502C344.793 152.357 345.961 152.791 346.939 153.97C347.918 155.148 348.051 156.383 347.896 156.405Z" fill="#F39200"/>
<path d="M355.2 142.571C354.35 142.512 353.505 142.382 352.676 142.182C351.824 142.163 350.976 142.07 350.141 141.904C350.974 141.591 351.871 141.488 352.754 141.604C353.637 141.721 354.477 142.053 355.2 142.571Z" fill="#F39200"/>
<path d="M352.724 129.205C352.724 129.371 351.779 129.316 350.745 129.627C349.711 129.938 348.944 130.439 348.832 130.317C348.721 130.194 349.388 129.405 350.578 129.071C351.768 128.737 352.769 129.06 352.724 129.205Z" fill="#F39200"/>
<path d="M249.789 211.527C253.726 208.969 258.941 209.814 263.411 211.293C267.882 212.772 272.363 214.819 277.045 214.374C282.149 213.896 286.519 210.493 289.889 206.645C294.052 201.888 297.149 196.295 298.974 190.243C300.82 184.082 301.765 176.843 307.069 173.196C312.374 169.548 319.735 171.383 324.295 175.698C328.854 180.012 331.056 186.24 332.501 192.378C335.837 206.523 335.893 221.613 331.311 235.413C326.73 249.213 317.311 261.579 304.523 268.496C291.735 275.413 275.61 276.402 262.6 269.93" fill="#F39200"/>
<path d="M262.6 269.898C262.804 269.968 263.004 270.05 263.2 270.143L264.935 270.899C265.713 271.199 266.681 271.555 267.826 272.011C268.971 272.467 270.328 272.778 271.874 273.123C275.62 273.932 279.453 274.272 283.283 274.135C285.673 274.039 288.052 273.763 290.4 273.312C293.035 272.831 295.621 272.117 298.129 271.177C303.907 269.018 309.231 265.801 313.83 261.691C319.124 257.007 323.528 251.405 326.83 245.155C330.475 238.252 332.862 230.755 333.88 223.015C334.977 214.704 334.797 206.274 333.346 198.017C332.678 193.828 331.633 189.707 330.222 185.707C328.897 181.814 326.627 178.31 323.616 175.51C320.644 172.884 316.782 171.492 312.819 171.617C310.921 171.699 309.077 172.274 307.47 173.285C305.917 174.31 304.623 175.68 303.689 177.289C301.776 180.447 300.953 184.05 300.019 187.453C299.2 190.809 298.021 194.067 296.505 197.172C295.079 200.068 293.337 202.798 291.312 205.312C289.482 207.67 287.325 209.756 284.907 211.506C282.7 213.118 280.129 214.161 277.423 214.542C275.005 214.762 272.567 214.501 270.25 213.774C265.924 212.495 262.388 210.85 259.263 210.349C256.898 209.824 254.439 209.885 252.102 210.527C251.503 210.715 250.922 210.957 250.367 211.25C249.989 211.461 249.789 211.55 249.789 211.55L250.334 211.205C250.88 210.884 251.458 210.62 252.058 210.416C254.412 209.715 256.905 209.615 259.308 210.127C262.466 210.605 266.047 212.228 270.339 213.463C272.616 214.162 275.008 214.404 277.378 214.175C280.02 213.79 282.526 212.758 284.673 211.172C287.053 209.436 289.172 207.369 290.967 205.034C292.955 202.534 294.666 199.828 296.071 196.96C297.568 193.881 298.727 190.648 299.53 187.319C300.453 183.928 301.265 180.28 303.233 177.011C304.204 175.328 305.556 173.896 307.181 172.83C308.847 171.764 310.764 171.154 312.741 171.061C314.758 170.968 316.774 171.281 318.668 171.984C320.604 172.68 322.395 173.728 323.95 175.076C327.029 177.938 329.351 181.518 330.711 185.495C332.139 189.535 333.196 193.696 333.869 197.928C335.338 206.239 335.515 214.728 334.392 223.093C333.361 230.898 330.943 238.457 327.253 245.411C323.914 251.722 319.457 257.374 314.097 262.092C309.442 266.203 304.061 269.408 298.229 271.544C295.701 272.475 293.096 273.182 290.445 273.657C288.076 274.094 285.679 274.354 283.272 274.435C279.415 274.55 275.559 274.177 271.796 273.323C270.25 272.989 268.916 272.545 267.748 272.211C266.581 271.877 265.635 271.421 264.868 271.099L263.156 270.287C262.789 270.009 262.6 269.898 262.6 269.898Z" fill="#263238"/>
<path d="M310.458 186.241C309.889 185.77 309.433 185.177 309.124 184.506C308.284 182.918 307.863 181.142 307.901 179.346C307.922 177.554 308.392 175.795 309.269 174.231C309.59 173.562 310.067 172.978 310.659 172.53C310.736 172.596 310.203 173.241 309.636 174.42C308.899 175.963 308.504 177.648 308.479 179.358C308.454 181.068 308.799 182.764 309.491 184.328C310.036 185.518 310.547 186.185 310.458 186.241Z" fill="#263238"/>
<path d="M317.215 185.262C316.706 184.737 316.306 184.117 316.036 183.438C315.291 181.828 314.853 180.093 314.746 178.323C314.635 176.554 314.861 174.78 315.414 173.096C315.593 172.387 315.915 171.721 316.359 171.139C315.528 173.426 315.176 175.86 315.323 178.289C315.47 180.718 316.114 183.091 317.215 185.262Z" fill="#263238"/>
<path d="M322.617 187.186C321.914 185.499 321.624 183.669 321.772 181.848C321.723 180.021 322.104 178.208 322.884 176.555C323.051 176.611 322.417 178.924 322.35 181.859C322.283 184.795 322.784 187.186 322.617 187.186Z" fill="#263238"/>
<path d="M415.46 201.086C405.285 207.291 391.752 206.113 381.21 200.541C370.668 194.97 362.684 185.64 356.023 175.854C354.132 173.074 352.22 170.128 349.284 168.448C343.512 165.112 335.539 168.337 332.225 174.009C328.912 179.68 329.534 186.952 332.092 193.024C332.092 193.024 338.875 225.895 374.238 246.334" fill="#F39200"/>
<path d="M374.234 246.367C374.127 246.331 374.026 246.278 373.934 246.211L373.067 245.7C372.288 245.222 371.187 244.532 369.731 243.665C369.03 243.198 368.185 242.753 367.351 242.13L364.626 240.14C363.659 239.395 362.547 238.694 361.502 237.771L358.166 234.913C352.662 229.984 347.768 224.414 343.587 218.322C341.063 214.655 338.832 210.796 336.915 206.779C334.761 202.409 333.061 197.83 331.844 193.112V193.168C330.152 189.297 329.445 185.068 329.787 180.858C330.003 178.659 330.629 176.52 331.633 174.553C332.94 172.07 334.946 170.025 337.402 168.67C339.859 167.314 342.658 166.707 345.455 166.924C347.084 167.118 348.647 167.681 350.026 168.57C351.344 169.469 352.515 170.569 353.495 171.828C354.485 173.051 355.352 174.341 356.197 175.598C357.042 176.854 357.921 178.089 358.788 179.29C360.545 181.703 362.347 184.005 364.204 186.151C367.688 190.256 371.657 193.922 376.025 197.071C379.839 199.811 384.071 201.918 388.557 203.309C395.034 205.418 401.978 205.634 408.574 203.932C409.124 203.797 409.666 203.63 410.197 203.432C410.698 203.254 411.176 203.109 411.598 202.931C412.443 202.553 413.177 202.264 413.733 201.975L415.012 201.297C415.154 201.214 415.303 201.143 415.457 201.085C415.327 201.186 415.19 201.275 415.046 201.352L413.789 202.075C413.233 202.387 412.51 202.687 411.665 203.087C411.231 203.276 410.764 203.432 410.264 203.621C409.73 203.832 409.184 204.01 408.629 204.155C401.985 205.963 394.958 205.805 388.401 203.699C383.869 202.321 379.591 200.214 375.736 197.46C371.324 194.304 367.313 190.622 363.792 186.496C361.913 184.338 360.101 182.048 358.332 179.623C357.454 178.411 356.587 177.166 355.73 175.909C354.874 174.653 354.018 173.374 353.05 172.184C352.103 170.976 350.978 169.919 349.714 169.048C348.41 168.208 346.93 167.679 345.388 167.502C342.192 167.211 338.998 168.092 336.403 169.982C334.661 171.255 333.217 172.892 332.172 174.78C331.127 176.668 330.507 178.761 330.354 180.913C330.024 185.028 330.712 189.16 332.356 192.945V193.001C333.555 197.686 335.232 202.236 337.36 206.579C339.281 210.579 341.512 214.424 344.032 218.077C348.176 224.154 353.029 229.716 358.488 234.646L361.824 237.526C362.858 238.461 363.959 239.161 364.904 239.917L367.607 241.941C368.43 242.575 369.264 243.053 369.964 243.498L373.222 245.611L374.056 246.167C374.122 246.228 374.181 246.295 374.234 246.367Z" fill="#263238"/>
<path d="M341.647 187.063C340.805 184.376 339.62 181.808 338.122 179.423C335.52 175.531 332.206 173.485 332.34 173.329C333.115 173.652 333.833 174.099 334.464 174.653C337.678 177.191 340.031 180.659 341.203 184.583C341.493 185.378 341.644 186.217 341.647 187.063Z" fill="#263238"/>
<path d="M348.531 182.604C348.094 179.782 347.286 177.03 346.129 174.419C344.795 171.896 343.139 169.556 341.203 167.458C341.934 167.901 342.591 168.457 343.149 169.104C344.572 170.603 345.753 172.314 346.652 174.175C347.546 176.033 348.154 178.017 348.454 180.057C348.625 180.896 348.652 181.757 348.531 182.604Z" fill="#263238"/>
<g opacity="0.3">
<path d="M325.542 247.869C328.311 243.632 316.902 242.631 311.876 243.22C304.514 244.066 297.73 247.617 292.839 253.184C287.948 258.75 285.3 265.936 285.409 273.345C285.409 273.345 307.383 275.691 325.542 247.869Z" fill="white"/>
</g>
<g opacity="0.3">
<path d="M344.28 228.953C350.061 237.795 358.633 244.449 368.633 247.857C369.682 248.312 370.835 248.474 371.969 248.324C372.528 248.241 373.041 247.966 373.418 247.546C373.796 247.126 374.015 246.587 374.037 246.022C362.15 239.555 351.961 230.368 344.302 219.211C343.718 222.634 344.208 226.153 345.703 229.286" fill="black"/>
</g>
<path d="M328.976 153.912C338.769 144.12 338.769 128.242 328.976 118.449C319.183 108.657 303.306 108.657 293.513 118.449C283.72 128.242 283.72 144.12 293.513 153.912C303.306 163.705 319.183 163.705 328.976 153.912Z" fill="#F5F5F5"/>
<path d="M336.301 137.233C336.301 149.343 329.94 159.474 322.856 159.474C315.773 159.474 310.023 149.655 310.023 137.556C310.023 125.457 315.773 115.638 322.856 115.638C329.94 115.638 336.301 125.135 336.301 137.233Z" fill="#263238"/>
<path d="M316.608 147.632C316.398 147.384 316.226 147.107 316.096 146.809C315.694 146.023 315.348 145.209 315.062 144.374C313.125 138.792 313.287 132.697 315.518 127.226C315.847 126.406 316.241 125.614 316.697 124.858C316.838 124.565 317.021 124.295 317.242 124.057C317.331 124.057 316.663 125.302 315.907 127.393C314.932 130.093 314.391 132.93 314.306 135.8C314.232 138.665 314.607 141.524 315.418 144.273C316.096 146.353 316.708 147.587 316.608 147.632Z" fill="white"/>
<path d="M326.05 127.792C328.421 127.792 330.343 125.87 330.343 123.5C330.343 121.129 328.421 119.207 326.05 119.207C323.68 119.207 321.758 121.129 321.758 123.5C321.758 125.87 323.68 127.792 326.05 127.792Z" fill="white"/>
<path d="M327.485 105.23C327.007 105.886 325.795 105.875 324.271 105.63C322.748 105.385 320.835 104.941 318.767 104.607C316.698 104.273 314.83 104.073 313.329 103.862C311.828 103.651 310.671 103.35 310.371 102.594C310.071 101.838 310.794 100.759 312.484 99.8586C313.478 99.3505 314.548 99.0086 315.653 98.8467C317.002 98.6361 318.375 98.6361 319.723 98.8467C322.154 99.2156 324.417 100.308 326.217 101.983C327.552 103.361 327.941 104.596 327.485 105.23Z" fill="#263238"/>
<path d="M316.115 167.491C314.179 163.514 313.753 158.97 314.915 154.702C316.078 150.434 318.75 146.733 322.435 144.287C326.121 141.841 330.569 140.816 334.953 141.403C339.337 141.989 343.359 144.147 346.273 147.475" fill="#F39200"/>
<path d="M346.302 147.475C346.302 147.475 345.768 146.975 344.778 146.119C343.364 144.919 341.774 143.943 340.063 143.228C337.536 142.159 334.811 141.636 332.068 141.693C328.695 141.662 325.389 142.639 322.576 144.5C319.762 146.36 317.569 149.019 316.277 152.135C315.161 154.641 314.585 157.354 314.587 160.097C314.586 161.949 314.868 163.79 315.421 165.557C315.821 166.802 316.132 167.47 316.077 167.492C315.973 167.351 315.887 167.198 315.821 167.036C315.588 166.582 315.383 166.114 315.209 165.635C314.555 163.853 314.209 161.973 314.186 160.075C314.112 157.262 314.659 154.467 315.788 151.89C317.093 148.672 319.338 145.923 322.231 144.003C325.124 142.082 328.529 141.079 332.001 141.126C334.813 141.093 337.598 141.674 340.163 142.827C341.89 143.586 343.477 144.631 344.856 145.919C345.234 146.264 345.587 146.636 345.912 147.031C346.06 147.162 346.191 147.312 346.302 147.475Z" fill="#263238"/>
<path d="M266.328 72.5364C266.151 72.6298 265.959 72.6937 265.761 72.7254L264.104 73.1702C263.382 73.3482 262.503 73.6039 261.491 73.9153L259.879 74.3935L258.077 75.0051C251.541 77.2893 245.27 80.272 239.373 83.9012C233.469 87.5431 227.821 91.5855 222.47 96.0001C220.413 97.6903 218.756 99.0692 217.633 100.048L216.31 101.16C216.009 101.416 215.843 101.538 215.82 101.516C215.941 101.356 216.079 101.211 216.232 101.082L217.477 99.8921C218.589 98.8691 220.179 97.4457 222.203 95.6998C227.504 91.1953 233.144 87.1058 239.073 83.4676C245.003 79.7869 251.349 76.823 257.977 74.6381L259.79 74.0487L261.435 73.615C262.459 73.3259 263.337 73.1035 264.071 72.959L265.761 72.6253C265.946 72.5729 266.136 72.543 266.328 72.5364Z" fill="#263238"/>
<path d="M174.53 75.1048C181.572 65.6992 184.832 53.9957 183.667 42.3043C182.502 30.6128 176.996 19.7828 168.237 11.9517C159.478 4.12063 148.102 -0.142534 136.353 0.00363812C124.605 0.14981 113.338 4.69469 104.776 12.7413C96.2147 20.7878 90.9805 31.7515 90.1067 43.4683C89.2329 55.1852 92.783 66.8039 100.056 76.0314C107.33 85.2588 117.798 91.4246 129.395 93.3117C140.992 95.1989 152.875 92.6703 162.698 86.225L178.845 93.3753L174.53 75.1048Z" fill="#FAFAFA"/>
<path d="M122.696 44.313C122.833 42.5425 123.513 40.8573 124.642 39.4868C125.691 38.0993 127.15 37.0763 128.812 36.5622C130.233 36.1516 131.75 36.2248 133.125 36.7703C134.499 37.3158 135.654 38.3026 136.407 39.5757C137.047 38.3008 138.077 37.2625 139.346 36.6108C140.615 35.9592 142.059 35.728 143.468 35.9505C145.164 36.2776 146.718 37.1204 147.916 38.3636C149.193 39.599 150.066 41.1926 150.418 42.9341C150.823 45.1645 150.495 47.466 149.484 49.495C148.3 51.563 146.638 53.3171 144.636 54.6103C141.4 56.8343 137.141 59.6144 137.141 59.6144C137.141 59.6144 133.238 57.0456 129.768 55.2219C127.626 54.1754 125.765 52.6311 124.341 50.7182C123.121 48.8146 122.544 46.5692 122.696 44.313Z" fill="#F39200"/>
<path d="M136.885 0.177196C136.611 0.152751 136.336 0.152751 136.062 0.177196L133.671 0.255029C133.137 0.255029 132.559 0.255037 131.903 0.332878L129.79 0.621998L127.321 0.977853L124.564 1.6673C119.825 2.86114 115.316 4.83001 111.219 7.49431C105.143 11.3586 100.031 16.5625 96.2763 22.7074C92.5215 28.8523 90.2231 35.7752 89.5571 42.9456C89.373 45.0978 89.3284 47.2596 89.4237 49.4176C89.5015 50.5296 89.4237 51.6416 89.635 52.7536C89.8462 53.8656 89.9686 54.9777 90.1465 56.0897C90.9737 60.6698 92.4725 65.1027 94.5946 69.2449C96.8652 73.5823 99.7574 77.5646 103.179 81.0657C106.822 84.6513 110.997 87.6521 115.556 89.9619C120.273 92.3845 125.382 93.9508 130.646 94.5879C131.978 94.7975 133.324 94.9127 134.672 94.9326C136.026 95.0366 137.385 95.0626 138.742 95.0105C141.483 94.8969 144.21 94.5509 146.893 93.9763C152.684 92.7223 158.188 90.3911 163.117 87.104L162.628 87.1596L179.153 93.8317L180.131 94.2321L179.853 93.209L175.049 75.4834L174.972 75.9171C179.452 69.9745 182.469 63.06 183.779 55.7338C184.415 52.3258 184.632 48.8527 184.424 45.392C184.391 43.718 184.231 42.0489 183.946 40.3991C183.823 39.5873 183.69 38.7866 183.568 37.986C183.445 37.1853 183.178 36.418 182.989 35.6396C180.23 24.7813 173.699 15.2583 164.563 8.77313C161.187 6.34875 157.494 4.39935 153.587 2.9795L151.119 2.10099L148.772 1.50051L146.626 0.966722C145.937 0.83328 145.269 0.766571 144.647 0.666488C143.401 0.510805 142.3 0.299516 141.311 0.243914L138.875 0.166082H137.396C137.23 0.14158 137.062 0.14158 136.896 0.166082C137.06 0.202759 137.228 0.22508 137.396 0.2328L138.875 0.343992L141.277 0.510806C142.234 0.588648 143.323 0.822169 144.558 1.01121C153.523 2.55869 161.845 6.67564 168.516 12.8622C175.186 19.0487 179.916 27.0387 182.133 35.862C182.311 36.6293 182.544 37.3855 182.689 38.1639C182.834 38.9423 182.923 39.743 183.045 40.5325C183.314 42.1463 183.459 43.7783 183.479 45.4143C183.668 48.8094 183.444 52.2149 182.811 55.5559C181.502 62.7268 178.523 69.4888 174.115 75.2943L173.971 75.4945L174.037 75.7391C175.594 81.4438 177.196 87.3486 178.853 93.4092L179.553 92.7864L163.04 86.1143L162.784 86.0142L162.539 86.1588C157.714 89.3483 152.336 91.611 146.682 92.8309C144.061 93.3933 141.398 93.7319 138.72 93.8429C137.392 93.8893 136.063 93.8633 134.739 93.765C133.424 93.7432 132.113 93.6317 130.813 93.4314C125.667 92.813 120.671 91.2883 116.057 88.9277C111.577 86.6863 107.47 83.7683 103.88 80.2762C100.525 76.8512 97.6824 72.9597 95.4397 68.7223C93.3366 64.6738 91.838 60.3391 90.9916 55.8562C90.8248 54.7441 90.658 53.6321 90.4912 52.5979C90.3244 51.5638 90.3467 50.3739 90.2688 49.3508C89.8663 41.2001 91.6136 33.0868 95.3356 25.8243C99.0576 18.5618 104.623 12.4055 111.475 7.97247C115.508 5.30044 119.947 3.29886 124.619 2.04539L127.344 1.32258L129.79 0.922249L131.881 0.577525C132.526 0.499683 133.115 0.488568 133.638 0.444087L136.029 0.26616C136.316 0.254725 136.602 0.225009 136.885 0.177196Z" fill="#263238"/>
</svg>
