<svg width="425" height="425" viewBox="0 0 425 425" fill="none" xmlns="http://www.w3.org/2000/svg">
<g opacity="0.5">
<path d="M381.655 218.012C381.07 219.285 380.225 220.42 379.173 221.344C378.375 222.01 377.436 222.484 376.426 222.73C375.417 222.976 374.365 222.987 373.35 222.764C371.397 222.447 369.581 221.56 368.131 220.214C366.753 218.965 365.278 217.828 363.72 216.814C362.032 215.751 360.142 215.05 358.169 214.757C356.784 214.527 355.398 214.374 354.013 214.238C352.147 214.09 350.355 213.441 348.828 212.36C347.659 211.617 346.74 210.542 346.187 209.272C345.634 208.003 345.473 206.598 345.725 205.237C345.94 203.699 346.543 202.241 347.477 201.001C348.411 199.761 349.645 198.779 351.063 198.148C352.559 197.408 354.157 196.847 355.713 196.21C356.418 195.921 357.124 195.649 357.829 195.36C359.034 194.791 360.099 193.964 360.949 192.937C361.467 192.368 361.986 191.798 362.513 191.237C363.435 190.231 364.604 189.483 365.904 189.067C367.204 188.652 368.59 188.582 369.925 188.866C372.141 189.213 374.22 190.163 375.934 191.611C376.9 192.362 377.673 193.333 378.186 194.444C378.699 195.555 378.938 196.772 378.884 197.995C378.884 198.751 378.833 199.516 378.756 200.264C378.553 202.15 378.864 204.057 379.657 205.781C380.363 207.404 381.06 209.104 381.655 210.804C382.362 212.632 382.51 214.629 382.08 216.542C381.969 217.018 381.791 217.511 381.655 218.012Z" fill="#F5F5F5"/>
<path d="M374.451 183.092C373.823 184.639 372.67 185.915 371.195 186.696C370.563 187.031 369.869 187.231 369.155 187.283C368.351 187.335 367.545 187.209 366.795 186.915C366.044 186.622 365.367 186.167 364.812 185.583C364.109 184.91 363.566 184.088 363.222 183.177C361.769 179.055 362.551 175.638 365.628 172.977C366.136 172.574 366.712 172.263 367.328 172.059C368.394 171.727 369.536 171.729 370.6 172.066C371.664 172.404 372.599 173.06 373.278 173.946C374.281 175.156 374.904 176.634 375.071 178.196C375.311 179.855 375.097 181.547 374.451 183.092Z" fill="#F5F5F5"/>
<path d="M389.586 187.853C388.986 188.946 388.176 189.91 387.201 190.688C386.226 191.465 385.107 192.042 383.908 192.384C383.18 192.582 382.427 192.677 381.672 192.664C380.567 192.684 379.485 192.344 378.59 191.695C377.695 191.047 377.034 190.125 376.708 189.069C376.314 187.74 376.364 186.319 376.853 185.023C377.284 183.77 377.979 182.625 378.891 181.664C379.803 180.704 380.911 179.95 382.14 179.455C383.168 179.008 384.284 178.802 385.404 178.852C386.485 178.858 387.536 179.203 388.41 179.839C389.284 180.475 389.936 181.37 390.274 182.396C390.674 183.7 390.644 185.097 390.189 186.383C390.002 187.003 389.73 187.539 389.586 187.853Z" fill="#F5F5F5"/>
<path d="M348.373 182.921C348.809 181.838 349.514 180.884 350.421 180.15C352.699 178.399 355.751 178.858 357.774 181.272C358.99 182.703 359.699 184.496 359.788 186.372C359.921 187.498 359.808 188.64 359.457 189.719C359.106 190.797 358.526 191.787 357.757 192.62C357.405 192.981 357.008 193.296 356.575 193.555C355.597 194.115 354.461 194.335 353.345 194.181C352.228 194.028 351.194 193.508 350.404 192.705C349.271 191.646 348.469 190.282 348.092 188.778C347.533 186.849 347.631 184.788 348.373 182.921Z" fill="#F5F5F5"/>
<path d="M394.618 202.71C394.026 203.966 393.156 205.07 392.073 205.939C390.991 206.808 389.724 207.419 388.371 207.725C387.23 208.039 386.026 208.039 384.886 207.725C384.111 207.537 383.395 207.159 382.802 206.627C382.208 206.094 381.756 205.423 381.486 204.673C380.99 203.348 381.017 201.883 381.562 200.576C382.05 199.255 382.843 198.068 383.877 197.113C384.911 196.157 386.157 195.459 387.512 195.077C389.121 194.507 390.888 194.583 392.442 195.289C393.045 195.562 393.584 195.959 394.024 196.454C394.463 196.949 394.793 197.531 394.992 198.162C395.429 199.673 395.296 201.291 394.618 202.71Z" fill="#F5F5F5"/>
<path d="M330.655 114.751C329.224 116.73 327.39 118.384 325.274 119.604C321.959 121.551 318.415 121.304 314.819 120.046C311.579 118.849 308.767 116.72 306.736 113.926C304.803 111.323 302.668 108.876 300.352 106.608C297.826 104.213 294.831 102.369 291.555 101.193C289.268 100.343 286.939 99.5866 284.61 98.8811C281.466 97.994 278.62 96.2729 276.374 93.9001C272.736 89.9476 271.682 85.5701 273.492 80.6486C275.498 75.2001 279.442 71.8341 285.052 70.3381C287.866 69.5816 290.798 69.1651 293.671 68.6381L297.581 67.8901C299.845 67.3305 301.956 66.2736 303.761 64.7961C304.84 64.0056 305.928 63.2066 307.016 62.4246C311.122 59.4751 315.635 59.0756 320.514 60.8946C324.192 62.2414 327.428 64.5767 329.864 67.6436C331.259 69.2532 332.248 71.1737 332.748 73.2442C333.248 75.3147 333.244 77.4748 332.737 79.5436C332.44 80.8356 332.134 82.0936 331.734 83.3856C330.749 86.5493 330.634 89.9202 331.403 93.1436C332.083 96.2036 332.703 99.2806 333.171 102.375C333.768 105.742 333.345 109.211 331.955 112.337C331.573 113.161 331.097 113.943 330.655 114.751Z" fill="#EBEBEB"/>
<path d="M330.281 52.5068C328.68 54.9487 326.274 56.753 323.481 57.6068C322.286 57.9654 321.03 58.0697 319.792 57.9128C318.396 57.7345 317.057 57.2515 315.868 56.498C314.68 55.7444 313.672 54.7388 312.916 53.5523C311.936 52.1652 311.287 50.5716 311.02 48.8943C309.932 41.3378 312.44 35.7533 318.611 32.2598C319.635 31.7366 320.747 31.4081 321.892 31.2908C325.725 30.7553 329.465 32.8378 331.463 36.5438C332.765 38.9603 333.329 41.7059 333.086 44.4403C332.882 47.33 331.914 50.1137 330.281 52.5068Z" fill="#EBEBEB"/>
<path d="M354.56 65.8766C351.475 69.2086 348.007 71.3421 343.298 71.7076C341.981 71.7989 340.659 71.7016 339.371 71.4186C337.472 71.0763 335.736 70.1259 334.425 68.7106C333.114 67.2954 332.299 65.4922 332.103 63.5731C331.877 61.165 332.447 58.7493 333.727 56.6966C334.892 54.7002 336.473 52.9772 338.361 51.6443C340.25 50.3113 342.403 49.3994 344.675 48.9701C346.587 48.5501 348.571 48.5763 350.472 49.0466C352.319 49.425 354.001 50.3746 355.279 51.7611C356.557 53.1477 357.367 54.901 357.595 56.7731C357.839 59.1426 357.311 61.5278 356.09 63.5731C355.572 64.4996 354.926 65.3411 354.56 65.8766Z" fill="#EBEBEB"/>
<path d="M285.679 43.3539C286.788 41.6414 288.323 40.247 290.133 39.3079C294.63 37.0809 299.687 38.9084 302.339 43.7279C303.909 46.5763 304.506 49.8593 304.039 53.0779C303.504 57.2004 301.838 60.6769 298.421 63.0824C297.699 63.5824 296.912 63.9826 296.083 64.2724C292.369 65.5984 288.365 64.1874 285.824 60.6769C284.243 58.4773 283.331 55.8682 283.197 53.1629C282.925 49.7093 283.797 46.2621 285.679 43.3539Z" fill="#EBEBEB"/>
<path d="M358.095 92.9837C356.657 94.9353 354.792 96.5326 352.643 97.6536C350.494 98.7747 348.117 99.3898 345.693 99.4522C343.634 99.5786 341.578 99.147 339.743 98.2027C338.484 97.6114 337.389 96.7202 336.555 95.6072C335.721 94.4943 335.172 93.1935 334.958 91.8192C334.57 89.3779 335.116 86.88 336.488 84.8237C337.764 82.7292 339.517 80.9661 341.605 79.678C343.692 78.3899 346.054 77.6133 348.498 77.4117C351.446 76.9703 354.449 77.7028 356.862 79.4517C357.815 80.1163 358.614 80.9764 359.208 81.9746C359.801 82.9728 360.175 84.086 360.305 85.2402C360.645 88.0622 359.735 90.4422 358.095 92.9837Z" fill="#EBEBEB"/>
<path d="M222.53 93.1115C223.12 94.6525 223.377 96.3006 223.286 97.948C223.167 100.498 221.739 102.462 219.682 104.017C217.811 105.408 215.568 106.213 213.239 106.329C211.057 106.458 208.888 106.763 206.754 107.239C204.463 107.78 202.312 108.797 200.438 110.222C199.112 111.191 197.829 112.237 196.571 113.291C194.909 114.741 192.885 115.713 190.714 116.104C187.136 116.708 184.28 115.688 182.163 112.849C181.046 111.4 180.317 109.691 180.043 107.883C179.769 106.075 179.961 104.226 180.599 102.513C181.211 100.643 182.053 98.832 182.801 96.996C183.132 96.146 183.489 95.296 183.821 94.514C184.333 93.0269 184.513 91.4456 184.348 89.8815C184.297 88.972 184.246 88.071 184.212 87.1615C184.123 85.5554 184.455 83.954 185.177 82.5165C185.899 81.0789 186.984 79.8554 188.326 78.9675C190.447 77.3879 192.961 76.4206 195.593 76.171C197.022 75.9735 198.476 76.123 199.835 76.6069C201.193 77.0907 202.415 77.8946 203.396 78.9505C204.017 79.5965 204.637 80.2425 205.198 80.931C206.624 82.6569 208.489 83.9665 210.596 84.722C212.576 85.4615 214.54 86.252 216.461 87.1275C218.588 88.0274 220.394 89.5469 221.646 91.488C221.969 92.0065 222.232 92.5675 222.53 93.1115Z" fill="#F5F5F5"/>
<path d="M187.2 70.3636C187.981 72.1711 188.105 74.1952 187.549 76.0842C187.312 76.894 186.907 77.6445 186.359 78.2856C185.743 79.0048 184.977 79.5806 184.115 79.9726C183.253 80.3647 182.316 80.5635 181.369 80.5551C180.224 80.5986 179.083 80.3775 178.037 79.9091C173.362 77.7416 171.135 74.2566 171.433 69.4796C171.513 68.709 171.735 67.9599 172.087 67.2696C172.685 66.0929 173.63 65.1288 174.795 64.5083C175.96 63.8878 177.288 63.6411 178.598 63.8016C180.442 63.9567 182.2 64.6482 183.656 65.7906C185.222 66.9731 186.446 68.5516 187.2 70.3636Z" fill="#F5F5F5"/>
<path d="M203.716 61.5768C204.142 62.9797 204.286 64.4529 204.14 65.9117C203.995 67.3705 203.562 68.786 202.866 70.0768C202.431 70.8554 201.888 71.5681 201.251 72.1933C200.357 73.1389 199.179 73.7679 197.896 73.9857C196.613 74.2034 195.293 73.9979 194.137 73.4003C192.694 72.6428 191.539 71.4337 190.848 69.9578C190.15 68.5613 189.76 67.0316 189.703 65.4717C189.645 63.9118 189.923 62.3577 190.516 60.9138C190.984 59.6776 191.732 58.5663 192.7 57.6668C193.595 56.7598 194.752 56.1576 196.007 55.9455C197.263 55.7334 198.554 55.9223 199.696 56.4853C201.133 57.2314 202.287 58.4249 202.985 59.8853C203.308 60.4973 203.538 61.2028 203.716 61.5768Z" fill="#F5F5F5"/>
<path d="M165.561 92.1937C165.004 90.9341 164.785 89.5517 164.923 88.1817C165.323 84.7817 168.221 82.6312 171.927 82.9117C174.129 83.0788 176.216 83.9557 177.877 85.4107C178.933 86.2303 179.799 87.2683 180.417 88.4537C181.034 89.639 181.389 90.9438 181.456 92.2787C181.468 92.8708 181.405 93.462 181.269 94.0382C180.931 95.3236 180.176 96.4603 179.122 97.2697C178.068 98.079 176.775 98.5151 175.446 98.5092C173.621 98.5941 171.81 98.1452 170.236 97.2172C168.164 96.1064 166.52 94.3396 165.561 92.1937Z" fill="#F5F5F5"/>
<path d="M220.343 69.576C220.907 71.1029 221.117 72.7379 220.956 74.3577C220.796 75.9774 220.269 77.5395 219.416 78.926C218.724 80.1369 217.72 81.1406 216.509 81.833C215.712 82.3289 214.804 82.6201 213.867 82.6809C212.93 82.7417 211.992 82.5702 211.137 82.1815C209.615 81.5185 208.401 80.3037 207.737 78.7815C207.027 77.2885 206.679 75.649 206.722 73.9963C206.765 72.3435 207.197 70.7242 207.984 69.27C208.821 67.4358 210.348 66.0061 212.234 65.292C212.956 64.9977 213.733 64.86 214.512 64.8878C215.292 64.9156 216.056 65.1084 216.756 65.4535C218.424 66.3328 219.703 67.8029 220.343 69.576Z" fill="#F5F5F5"/>
<path d="M119.298 190.539C119.96 192.264 120.25 194.109 120.148 195.954C120.021 198.861 118.448 201.054 116.128 202.754C114.036 204.325 111.524 205.239 108.911 205.38C106.462 205.534 104.029 205.884 101.635 206.426C99.0695 207.054 96.6634 208.212 94.5719 209.826C93.0844 210.922 91.6564 212.095 90.2454 213.285C88.3866 214.916 86.1229 216.017 83.6919 216.473C79.6799 217.161 76.4669 216.031 74.0869 212.852C72.8253 211.233 71.9976 209.32 71.6823 207.293C71.3669 205.265 71.5744 203.191 72.2849 201.266C72.9649 199.167 73.8999 197.135 74.7244 195.07C75.0984 194.135 75.4894 193.208 75.8549 192.273C76.43 190.606 76.6274 188.832 76.4329 187.08C76.3734 186.06 76.3139 185.048 76.2629 184.028C76.0844 180.212 77.6824 177.177 80.8444 174.823C83.2159 173.037 86.0333 171.941 88.9874 171.652C90.5886 171.424 92.2213 171.585 93.7469 172.122C95.2725 172.659 96.646 173.556 97.7509 174.738C98.4479 175.46 99.1449 176.183 99.7824 176.948C101.386 178.885 103.482 180.354 105.851 181.198C108.078 182.048 110.288 182.898 112.439 183.867C114.827 184.869 116.858 186.566 118.27 188.737C118.669 189.307 119.001 189.927 119.298 190.539Z" fill="#F5F5F5"/>
<path d="M79.5735 165.175C80.4595 167.199 80.6069 169.47 79.99 171.592C79.7276 172.501 79.2757 173.344 78.664 174.066C77.9746 174.873 77.1166 175.52 76.1503 175.961C75.184 176.402 74.1329 176.625 73.071 176.616C71.787 176.666 70.5083 176.425 69.331 175.91C64.0865 173.496 61.5705 169.603 61.8765 164.24C61.9706 163.375 62.2182 162.535 62.6075 161.758C63.2713 160.434 64.3267 159.347 65.63 158.644C66.9333 157.942 68.4214 157.658 69.892 157.831C71.9628 158.002 73.9388 158.773 75.5785 160.049C77.342 161.372 78.7211 163.141 79.5735 165.175Z" fill="#F5F5F5"/>
<path d="M98.058 155.246C98.5444 156.821 98.7137 158.477 98.5561 160.119C98.3985 161.76 97.9172 163.354 97.14 164.808C96.6531 165.679 96.0465 166.477 95.338 167.18C94.3399 168.245 93.0225 168.957 91.5844 169.209C90.1463 169.46 88.6654 169.237 87.365 168.574C85.7366 167.733 84.4332 166.376 83.659 164.715C82.8692 163.152 82.424 161.438 82.3536 159.689C82.2833 157.939 82.5893 156.195 83.251 154.574C83.7656 153.186 84.5981 151.937 85.682 150.928C86.6828 149.916 87.9758 149.244 89.3786 149.006C90.7815 148.768 92.2237 148.977 93.502 149.602C95.108 150.42 96.4075 151.735 97.208 153.35C97.6075 154.039 97.871 154.795 98.058 155.246Z" fill="#F5F5F5"/>
<path d="M55.4065 189.756C54.7716 188.347 54.5167 186.797 54.667 185.259C55.1005 181.485 58.339 179.02 62.4955 179.309C64.9648 179.481 67.3107 180.453 69.1765 182.08C70.3604 182.99 71.3345 184.144 72.0326 185.464C72.7308 186.784 73.1366 188.239 73.2225 189.73C73.2431 190.396 73.1745 191.062 73.0185 191.711C72.33 194.618 69.7885 196.581 66.5075 196.751C64.4594 196.852 62.4258 196.359 60.651 195.332C58.3391 194.098 56.4965 192.139 55.4065 189.756Z" fill="#F5F5F5"/>
<path d="M116.753 164.137C117.398 165.854 117.643 167.696 117.469 169.522C117.295 171.349 116.707 173.112 115.75 174.677C114.982 176.04 113.86 177.171 112.503 177.949C111.61 178.508 110.593 178.838 109.542 178.911C108.491 178.983 107.438 178.796 106.476 178.366C104.765 177.609 103.402 176.234 102.66 174.515C101.858 172.842 101.462 171.004 101.503 169.149C101.544 167.294 102.022 165.475 102.898 163.839C103.834 161.786 105.537 160.182 107.641 159.368C108.456 159.034 109.332 158.879 110.212 158.912C111.092 158.946 111.954 159.168 112.741 159.564C114.597 160.541 116.026 162.17 116.753 164.137Z" fill="#F5F5F5"/>
<path d="M115.529 115.603C114.983 117.69 114.001 119.637 112.647 121.315C110.539 123.967 107.547 124.919 104.147 124.996C101.105 125.045 98.1177 124.19 95.5622 122.539C93.1432 121.014 90.6081 119.681 87.9802 118.553C85.1419 117.368 82.0876 116.789 79.0127 116.853C76.8622 116.853 74.7117 117.006 72.5697 117.159C69.702 117.432 66.814 116.921 64.2142 115.68C59.9642 113.589 57.7117 110.325 57.6352 105.709C57.5502 100.609 59.7262 96.5634 63.8572 93.5459C65.9397 92.0329 68.2092 90.7579 70.4022 89.3809C71.3882 88.7604 72.3912 88.1484 73.3772 87.5194C75.0559 86.339 76.4546 84.8039 77.4742 83.0229C78.1117 82.0199 78.7492 81.0169 79.3952 80.0309C81.8347 76.2994 85.4217 74.5399 90.0117 74.4889C93.4621 74.4173 96.8653 75.2997 99.8462 77.0389C101.511 77.92 102.94 79.1883 104.013 80.7371C105.085 82.2859 105.77 84.0698 106.009 85.9384C106.17 87.0944 106.332 88.2589 106.4 89.4149C106.598 92.3309 107.575 95.1403 109.23 97.5494C110.769 99.8444 112.256 102.182 113.625 104.57C115.185 107.152 115.937 110.142 115.784 113.155C115.775 114.005 115.605 114.804 115.529 115.603Z" fill="#EBEBEB"/>
<path d="M95.4301 64.5422C94.8781 67.0524 93.4684 69.2917 91.4436 70.8747C90.5727 71.5474 89.571 72.0309 88.5026 72.2942C87.2998 72.5906 86.0464 72.6186 84.8316 72.3762C83.6167 72.1338 82.4701 71.627 81.4731 70.8917C80.2265 70.0638 79.1856 68.9619 78.4301 67.6702C75.1321 61.8052 75.4211 56.4162 79.3821 51.5712C80.0579 50.8168 80.8678 50.1943 81.7706 49.7352C83.2986 48.9382 85.0353 48.6322 86.7436 48.8589C88.452 49.0855 90.0488 49.8339 91.3161 51.0017C93.1449 52.572 94.4794 54.6387 95.1581 56.9517C95.924 59.4123 96.0179 62.033 95.4301 64.5422Z" fill="#EBEBEB"/>
<path d="M119.634 67.8148C118.164 71.5378 115.988 74.3938 112.231 76.1873C111.177 76.6839 110.058 77.0274 108.907 77.2073C107.232 77.5361 105.495 77.3089 103.961 76.5601C102.427 75.8114 101.179 74.5822 100.407 73.0593C99.4535 71.1546 99.1548 68.9886 99.5571 66.8968C99.8826 64.8842 100.635 62.9645 101.764 61.2668C102.893 59.5691 104.372 58.1326 106.102 57.0538C107.548 56.0899 109.198 55.4732 110.922 55.2518C112.561 54.9734 114.247 55.2186 115.739 55.9525C117.231 56.6864 118.454 57.8718 119.235 59.3403C120.201 61.2223 120.526 63.3681 120.161 65.4518C120.034 66.3613 119.762 67.2538 119.634 67.8148Z" fill="#EBEBEB"/>
<path d="M55.8299 71.1802C56.1985 69.4196 57.0186 67.785 58.2099 66.4372C61.1934 63.1732 65.9364 63.0372 69.6509 66.1907C71.8594 68.0384 73.4028 70.5579 74.0454 73.3647C74.8954 76.9262 74.6574 80.3092 72.6089 83.3777C72.1735 84.0099 71.6562 84.5816 71.0704 85.0777C68.4269 87.3472 64.6954 87.4577 61.4824 85.3837C59.4953 84.0789 57.9232 82.2325 56.9519 80.0627C55.6089 77.3065 55.2145 74.1838 55.8299 71.1802Z" fill="#EBEBEB"/>
<path d="M131.168 88.98C130.603 91.0393 129.574 92.9422 128.162 94.5435C126.749 96.1448 124.989 97.4021 123.016 98.2195C121.358 98.9701 119.53 99.2636 117.721 99.0695C116.499 98.9843 115.316 98.5992 114.279 97.9484C113.241 97.2975 112.379 96.401 111.771 95.338C110.673 93.4549 110.326 91.2265 110.802 89.099C111.188 86.9741 112.071 84.9705 113.378 83.2513C114.685 81.532 116.38 80.1456 118.324 79.205C120.611 77.9091 123.313 77.5583 125.855 78.2275C126.848 78.4731 127.777 78.9266 128.582 79.5582C129.386 80.1897 130.047 80.9849 130.522 81.891C131.695 84.152 131.754 86.362 131.168 88.98Z" fill="#EBEBEB"/>
</g>
<g opacity="0.7">
<path d="M284.914 340.164C284.027 338.368 282.82 336.749 281.352 335.387C281.352 335.387 280.689 327.652 277.629 323.087C274.569 318.523 269.979 314.834 264.471 318.319L265.211 317.894C262.431 315.76 257.96 315.531 254.654 316.712C253.003 317.273 251.472 318.138 250.14 319.262C247.652 321.426 245.506 323.954 243.774 326.759C243.774 326.759 238.385 327.099 236.251 335.608C235.064 340.9 234.156 346.251 233.531 351.639C233.531 351.639 234.169 367.236 235.095 371.937C236.022 376.637 232.987 386.565 232.817 388.563C232.647 390.56 231.704 392.073 230.369 399.927C229.035 407.781 226.672 424.501 226.672 424.501H274.629C274.629 424.501 275.827 402.766 275.708 400.386C275.78 394.672 276.407 388.979 277.578 383.386C278.904 377.887 284.038 360.547 284.038 360.547C285.917 352.421 286.469 343.232 284.914 340.164Z" fill="#455A64"/>
<g opacity="0.3">
<path d="M247.628 336.722L241.55 336.416C239.505 338.015 237.976 340.183 237.156 342.647C236.96 343.097 236.859 343.583 236.859 344.075C236.859 344.566 236.96 345.052 237.156 345.503C237.776 346.608 239.238 346.88 240.505 346.922C242.436 347.042 244.369 346.698 246.14 345.919C247.02 345.521 247.801 344.934 248.427 344.2C249.053 343.465 249.509 342.601 249.761 341.669C249.985 340.725 249.898 339.733 249.514 338.842C249.129 337.951 248.468 337.208 247.628 336.722Z" fill="black"/>
</g>
<g opacity="0.3">
<path d="M276.159 331.444L274.034 329.744L266.732 328.716C266.154 328.583 265.551 328.601 264.981 328.767C264.641 328.933 264.341 329.171 264.102 329.465C263.863 329.758 263.69 330.1 263.596 330.467C263.295 331.456 263.272 332.508 263.528 333.509C263.784 334.51 264.311 335.422 265.049 336.145C265.807 336.849 266.703 337.386 267.682 337.721C268.66 338.057 269.697 338.183 270.727 338.091C272.399 338.003 273.977 337.29 275.147 336.094C275.726 335.486 276.126 334.73 276.304 333.911C276.482 333.091 276.432 332.238 276.159 331.444Z" fill="black"/>
</g>
<path d="M270.263 319.951C271.253 319.832 272.254 320.054 273.102 320.58C274.657 321.515 277.301 323.495 277.241 326.207C277.165 330.04 277.054 334.52 272.498 335.557C267.942 336.594 262.298 333.423 264.763 326.878C266.684 321.778 268.325 320.214 270.263 319.951Z" fill="#263238"/>
<g opacity="0.3">
<path d="M260.414 328.604L257.278 324.838C256.258 324.602 255.214 324.488 254.167 324.498C253.112 324.511 252.096 324.9 251.302 325.595C250.504 326.435 250.054 327.547 250.044 328.706C249.975 329.817 250.185 330.929 250.655 331.939C251.126 332.949 251.842 333.824 252.739 334.486C253.655 335.121 254.741 335.465 255.856 335.473C256.971 335.481 258.062 335.151 258.986 334.528C259.88 333.864 260.512 332.907 260.773 331.824C261.034 330.742 260.907 329.602 260.414 328.604Z" fill="black"/>
</g>
<path d="M258.179 317.945C258.954 317.607 259.811 317.507 260.642 317.658C261.473 317.81 262.241 318.205 262.846 318.795C263.03 318.965 263.171 319.178 263.254 319.415C263.5 320.359 262.905 327.711 259.072 331.477C255.238 335.242 250.147 330.533 250.572 326.674C250.878 323.521 254.516 319.492 258.179 317.945Z" fill="#263238"/>
<path d="M245.129 329.981C245.129 329.981 242.579 327.363 240.029 332.013C237.479 336.662 236.629 343.547 239.307 344.006C241.984 344.465 248.138 342.969 248.376 339.238C248.614 335.506 246.634 330.806 245.129 329.981Z" fill="#263238"/>
<g opacity="0.3">
<path d="M279.06 345.111C277.468 343.877 275.801 342.742 274.07 341.711C273.678 341.433 273.222 341.257 272.744 341.201C271.682 341.201 270.934 342.247 270.611 343.25C270.285 344.227 270.169 345.262 270.27 346.287C270.371 347.312 270.687 348.305 271.197 349.2C271.726 350.096 272.468 350.847 273.358 351.386C274.248 351.924 275.258 352.233 276.297 352.285C277.337 352.326 278.368 352.073 279.27 351.554C280.173 351.035 280.91 350.272 281.397 349.353L279.06 345.111Z" fill="black"/>
</g>
<path d="M284.481 343.461C284.492 342.263 284.178 341.084 283.571 340.051C282.964 339.018 282.087 338.169 281.034 337.596C279.982 337.023 278.793 336.748 277.596 336.798C276.399 336.849 275.238 337.225 274.238 337.885C274.06 338.013 273.881 338.148 273.711 338.293C271.161 340.52 270.694 344.991 272.912 347.328C275.131 349.666 279.916 353.839 283.257 347.694C283.991 346.398 284.41 344.948 284.481 343.461Z" fill="#263238"/>
<g opacity="0.3">
<path d="M258.785 358.364C254.787 357.219 250.513 357.52 246.715 359.214C245.57 359.641 244.585 360.409 243.893 361.416C242.643 363.583 244.131 366.516 246.358 367.646C248.585 368.777 251.237 368.607 253.719 368.309C256.201 368.012 258.819 367.629 261.156 368.42C262.518 368.969 263.826 369.64 265.066 370.426C266.313 371.209 267.759 371.616 269.231 371.599C269.962 371.57 270.665 371.307 271.235 370.848C271.805 370.388 272.211 369.757 272.393 369.049L258.785 358.364Z" fill="black"/>
</g>
<path d="M275.395 358.124C274.451 356.29 272.996 354.769 271.205 353.746C269.505 352.752 266.904 350.967 265.561 348.646C263.47 345.076 263.946 342.373 259.73 342.144C255.514 341.914 255.794 345.595 250.643 347.286C242.407 349.981 240.605 351.97 239.814 355.599C239.024 359.229 239.882 361.014 241.931 363.411C243.979 365.808 250.822 362.136 256.304 362.331C261.787 362.527 265.926 368.222 269.25 369.845C272.573 371.469 275.795 368.145 276.322 362.943C276.472 361.281 276.151 359.611 275.395 358.124Z" fill="#263238"/>
<path d="M255.266 411.539C257.136 411.224 259.261 410.689 260.119 409.048C260.393 408.397 260.504 407.689 260.442 406.985C260.379 406.281 260.146 405.603 259.762 405.011C258.147 402.18 254.662 400.761 251.424 400.948C249.758 401.009 248.147 401.559 246.791 402.529C246.118 403.021 245.563 403.659 245.169 404.395C244.775 405.13 244.551 405.945 244.513 406.779C244.479 407.381 244.61 407.98 244.891 408.514C245.173 409.047 245.595 409.493 246.111 409.805C247.086 410.138 248.124 410.243 249.146 410.111C250.968 410.095 252.761 410.567 254.339 411.479" fill="#263238"/>
<path d="M244.406 384.278C244.757 384.186 245.116 384.123 245.477 384.091C246.183 383.98 247.177 383.802 248.486 383.496C252.009 382.659 255.373 381.258 258.448 379.348L259.409 378.753L258.703 379.603L254.963 384.329C254.818 384.514 254.717 384.729 254.666 384.958C254.647 385.042 254.66 385.13 254.7 385.207C254.741 385.283 254.807 385.342 254.887 385.374C255.391 385.409 255.896 385.318 256.357 385.111C258.639 384.372 260.737 383.155 262.511 381.541L263.582 380.563L262.851 381.813C262.03 383.213 261.363 384.698 260.862 386.241C260.623 386.967 260.421 387.705 260.259 388.451C260.069 389.144 259.977 389.859 259.987 390.576C259.993 390.89 260.111 391.191 260.318 391.426C260.422 391.524 260.549 391.594 260.687 391.63C260.826 391.665 260.97 391.665 261.109 391.63C261.7 391.417 262.244 391.087 262.707 390.661C263.701 389.879 264.594 389.123 265.376 388.4C266.61 387.26 267.779 386.051 268.878 384.779L269.728 383.751C269.823 383.624 269.932 383.507 270.051 383.402C269.981 383.542 269.895 383.673 269.796 383.793C269.617 384.048 269.345 384.422 268.946 384.881C267.893 386.196 266.757 387.443 265.546 388.613C264.764 389.352 263.846 390.134 262.885 390.933C262.396 391.398 261.817 391.759 261.185 391.996C260.987 392.043 260.78 392.041 260.583 391.989C260.386 391.937 260.204 391.837 260.055 391.698C259.779 391.404 259.616 391.022 259.596 390.619C259.581 389.86 259.67 389.102 259.859 388.366C260.021 387.627 260.216 386.87 260.463 386.105C260.97 384.533 261.645 383.02 262.477 381.592L262.809 381.864C261.844 382.744 260.783 383.514 259.647 384.159C258.644 384.72 257.588 385.178 256.493 385.527L255.643 385.765C255.339 385.86 255.013 385.86 254.708 385.765C254.542 385.7 254.402 385.581 254.311 385.427C254.22 385.273 254.183 385.093 254.207 384.915C254.259 384.605 254.388 384.313 254.581 384.065L258.363 379.348L258.618 379.637C255.5 381.549 252.08 382.918 248.503 383.683C247.498 383.899 246.483 384.061 245.46 384.167C245.103 384.21 244.831 384.218 244.653 384.235L244.406 384.278Z" fill="#263238"/>
</g>
<path d="M193.579 301.702C195.57 303.083 197.298 304.811 198.679 306.802C201.118 310.245 202.3 321.618 201.713 331.928C201.713 331.928 199.163 354.241 198.679 361.262C198.413 368.367 198.814 375.482 199.877 382.512C200.498 385.402 203.014 424.4 203.014 424.4H147.05C147.05 424.4 146.429 401.288 146.438 391.386C146.446 381.483 147.288 379.418 147.05 376.936C146.812 374.454 148.444 361.636 146.412 356.102C144.381 350.569 140.513 331.546 140.513 331.546C140.513 331.546 138.023 319.221 140.513 311.341C143.004 303.462 144.381 306.173 144.381 306.173C144.381 306.173 149.379 293.814 153.629 288.451C154.957 286.805 156.583 285.424 158.423 284.379C160.23 283.339 162.278 282.785 164.364 282.773C166.45 282.761 168.503 283.291 170.323 284.311C176.111 278.888 182.223 282.467 186.753 287.414C191.284 292.361 193.579 301.702 193.579 301.702Z" fill="#FFD088"/>
<g opacity="0.3">
<path d="M152.09 310.354C153.215 310.778 154.174 311.55 154.827 312.558C155.48 313.566 155.793 314.757 155.72 315.956C155.605 317.148 155.228 318.3 154.615 319.328C154.002 320.357 153.169 321.237 152.175 321.906C150.168 323.234 147.871 324.059 145.477 324.312C143.913 324.524 142.077 324.499 141.074 323.275C140.741 322.762 140.518 322.187 140.418 321.584C140.319 320.981 140.345 320.364 140.496 319.772C140.984 316.581 142.407 313.605 144.585 311.221" fill="black"/>
</g>
<g opacity="0.3">
<path d="M185.931 297.953C186.419 298.863 186.651 299.888 186.602 300.92C186.552 301.952 186.223 302.95 185.65 303.809C184.463 305.519 182.675 306.718 180.644 307.167C179.402 307.496 178.105 307.559 176.838 307.351C175.571 307.143 174.362 306.669 173.291 305.96C172.231 305.232 171.394 304.225 170.87 303.05C170.347 301.876 170.158 300.579 170.325 299.304C170.372 298.845 170.517 298.401 170.75 298.002C170.983 297.603 171.299 297.259 171.676 296.992C172.339 296.669 173.073 296.52 173.81 296.559L182.973 296.312" fill="black"/>
</g>
<path d="M178.462 284.786C178.462 284.786 185.483 286.596 186.188 291.305C186.894 296.014 187.693 301.505 182.321 303.749C176.949 305.993 169.426 303.248 171.033 294.722C172.639 286.197 175.045 284.888 178.462 284.786Z" fill="#263238"/>
<g opacity="0.3">
<path d="M166.071 297.757C166.877 298.88 167.267 300.248 167.174 301.627C167.081 303.006 166.511 304.309 165.561 305.313C164.558 306.263 163.291 306.889 161.927 307.111C160.563 307.332 159.164 307.138 157.911 306.554C156.675 305.931 155.615 305.008 154.828 303.869C154.041 302.73 153.552 301.411 153.406 300.035C153.181 298.614 153.5 297.16 154.299 295.963C155.117 294.938 156.275 294.239 157.563 293.991C158.841 293.762 160.142 293.685 161.439 293.762" fill="black"/>
</g>
<path d="M164.013 283.884C164.013 283.884 167.124 284.785 167.625 285.89C168.127 286.995 168.926 296.09 165.016 301.538C161.106 306.987 153.881 302.244 153.575 297.433C153.269 292.622 158.794 285.091 164.013 283.884Z" fill="#263238"/>
<path d="M145.979 302.049C145.979 302.049 143.973 299.941 141.865 306.154C139.757 312.368 140.029 321.004 143.429 321.004C146.829 321.004 154.045 317.901 153.552 313.286C153.059 308.67 147.959 302.746 145.979 302.049Z" fill="#263238"/>
<g opacity="0.3">
<path d="M196.021 318.855C195.618 320.076 194.879 321.159 193.891 321.981C192.902 322.803 191.702 323.331 190.428 323.505C189.151 323.647 187.859 323.472 186.665 322.996C185.472 322.521 184.414 321.758 183.586 320.776C182.772 319.784 182.177 318.631 181.839 317.394C181.501 316.156 181.427 314.862 181.622 313.594C181.818 312.285 182.472 310.814 183.815 310.636C184.401 310.609 184.985 310.726 185.515 310.976C187.842 311.879 190.113 312.92 192.315 314.095" fill="black"/>
</g>
<path d="M192.811 303.451C193.712 303.349 200.835 308.168 198.03 316.388C195.225 324.607 188.493 320.502 185.28 318.088C182.067 315.674 181.472 309.86 184.379 306.851C187.286 303.842 192.811 303.451 192.811 303.451Z" fill="#263238"/>
<g opacity="0.3">
<path d="M152.655 341.396C153.286 340.013 154.331 338.86 155.647 338.098C159.952 335.242 165.124 333.991 170.258 334.562L189.154 344.762C189.154 346.581 187.59 348.162 185.822 348.57C184.019 348.904 182.158 348.706 180.467 348C178.784 347.299 177.044 346.747 175.265 346.351C172.188 345.875 169.111 346.887 166.127 347.771C163.144 348.655 159.939 349.42 156.973 348.493C154.006 347.567 151.567 344.303 152.655 341.396Z" fill="black"/>
</g>
<path d="M186.691 327.03C187.192 327.634 192.309 330.609 192.709 336.559C193.142 343.019 189.895 347.796 185.484 346.495C181.072 345.195 174.799 339.041 168.076 339.967C161.352 340.894 153.702 346.767 150.693 344.285C147.684 341.803 146.273 339.772 146.443 335.156C146.613 330.541 148.449 327.727 157.986 322.712C163.936 319.576 162.823 315.13 168.042 314.527C173.261 313.923 173.235 317.34 176.542 321.284C179.848 325.228 186.691 327.03 186.691 327.03Z" fill="#263238"/>
<path d="M193.83 303.053C194.459 301.089 193.694 298.08 192.487 296.074C192.418 295.958 192.318 295.863 192.198 295.8C192.079 295.737 191.944 295.708 191.809 295.716C191.675 295.724 191.544 295.768 191.433 295.845C191.322 295.922 191.234 296.027 191.178 296.151C190.24 298.382 189.889 300.817 190.158 303.223" fill="#E0E0E0"/>
<path d="M190.179 303.222C189.952 302.456 189.874 301.654 189.95 300.859C189.983 300.001 190.094 299.147 190.281 298.309C190.392 297.833 190.528 297.34 190.698 296.83C190.791 296.584 190.893 296.329 191.004 296.074C191.077 295.909 191.196 295.768 191.346 295.669C191.497 295.569 191.673 295.515 191.854 295.513C192.028 295.516 192.198 295.565 192.347 295.654C192.496 295.744 192.619 295.871 192.704 296.023C192.84 296.261 192.967 296.507 193.086 296.745C193.312 297.207 193.505 297.684 193.664 298.173C193.94 298.999 194.114 299.855 194.183 300.723C194.299 301.525 194.178 302.344 193.834 303.078C193.922 302.304 193.922 301.523 193.834 300.749C193.727 299.917 193.53 299.099 193.248 298.309C193.08 297.842 192.884 297.385 192.661 296.941C192.551 296.711 192.423 296.482 192.287 296.252C192.246 296.162 192.179 296.086 192.094 296.034C192.009 295.982 191.91 295.958 191.811 295.963C191.714 295.963 191.619 295.991 191.538 296.044C191.456 296.097 191.392 296.172 191.352 296.261C191.242 296.499 191.148 296.737 191.055 296.983C190.889 297.449 190.747 297.923 190.63 298.403C190.429 299.224 190.29 300.059 190.213 300.902C190.103 302.321 190.23 303.214 190.179 303.222Z" fill="#263238"/>
<path d="M191.697 296.278C192.272 297.239 192.615 298.321 192.699 299.438C192.783 300.555 192.606 301.676 192.181 302.713C192.054 302.713 192.402 301.242 192.258 299.474C192.113 297.706 191.578 296.329 191.697 296.278Z" fill="#263238"/>
<path d="M177.373 285.203C177.994 283.239 177.237 280.23 176.022 278.224C175.952 278.108 175.852 278.013 175.733 277.95C175.613 277.887 175.479 277.858 175.344 277.866C175.209 277.873 175.079 277.918 174.968 277.995C174.856 278.071 174.768 278.177 174.713 278.301C173.774 280.532 173.425 282.967 173.701 285.372" fill="#E0E0E0"/>
<path d="M173.701 285.372C173.464 284.608 173.385 283.804 173.471 283.009C173.505 282.151 173.613 281.298 173.794 280.459C173.907 279.958 174.049 279.464 174.219 278.98C174.304 278.725 174.406 278.47 174.517 278.215C174.594 278.058 174.712 277.924 174.859 277.829C175.006 277.734 175.176 277.681 175.351 277.676C175.526 277.67 175.7 277.713 175.852 277.799C176.005 277.885 176.131 278.011 176.217 278.164C176.361 278.41 176.489 278.648 176.608 278.886C176.827 279.351 177.02 279.828 177.186 280.314C177.46 281.14 177.631 281.997 177.696 282.864C177.812 283.666 177.694 284.483 177.356 285.219C177.435 284.445 177.435 283.664 177.356 282.89C177.253 282.057 177.056 281.239 176.769 280.45C176.604 279.983 176.411 279.526 176.191 279.082C176.072 278.852 175.945 278.623 175.817 278.393C175.771 278.305 175.702 278.231 175.616 278.18C175.531 278.129 175.432 278.103 175.333 278.104C175.236 278.106 175.142 278.135 175.061 278.188C174.98 278.24 174.915 278.314 174.874 278.402C174.772 278.64 174.67 278.886 174.585 279.124C174.416 279.593 174.271 280.069 174.151 280.552C173.95 281.371 173.811 282.204 173.735 283.043C173.65 284.471 173.769 285.363 173.701 285.372Z" fill="#263238"/>
<path d="M175.254 278.428C175.825 279.391 176.165 280.473 176.248 281.59C176.331 282.706 176.153 283.826 175.73 284.863C175.602 284.863 175.951 283.401 175.806 281.624C175.662 279.848 175.126 278.479 175.254 278.428Z" fill="#263238"/>
<path d="M167.229 284.538C167.858 282.575 167.093 279.574 165.886 277.56C165.816 277.444 165.716 277.349 165.597 277.286C165.477 277.223 165.343 277.194 165.208 277.201C165.073 277.209 164.943 277.254 164.831 277.331C164.72 277.407 164.632 277.513 164.577 277.636C163.639 279.871 163.288 282.308 163.557 284.717" fill="#E0E0E0"/>
<path d="M163.538 284.718C163.312 283.949 163.235 283.144 163.308 282.346C163.341 281.488 163.452 280.635 163.64 279.796C163.75 279.32 163.886 278.819 164.056 278.317C164.15 278.062 164.252 277.816 164.362 277.552C164.437 277.389 164.556 277.25 164.707 277.152C164.857 277.055 165.033 277.002 165.212 277C165.386 277.002 165.557 277.05 165.707 277.139C165.856 277.229 165.979 277.357 166.062 277.51C166.198 277.748 166.326 277.986 166.445 278.232C167.05 279.477 167.422 280.823 167.541 282.202C167.666 283.004 167.545 283.825 167.193 284.556C167.281 283.786 167.281 283.007 167.193 282.236C167.086 281.401 166.89 280.58 166.606 279.788C166.439 279.321 166.246 278.864 166.028 278.419C165.909 278.187 165.782 277.958 165.646 277.731C165.603 277.642 165.535 277.567 165.451 277.516C165.366 277.464 165.268 277.439 165.17 277.442C165.073 277.442 164.977 277.47 164.896 277.523C164.815 277.575 164.75 277.651 164.711 277.739C164.609 277.977 164.507 278.224 164.413 278.462C164.248 278.931 164.106 279.407 163.988 279.89C163.787 280.711 163.648 281.547 163.572 282.389C163.487 283.791 163.614 284.709 163.538 284.718Z" fill="#263238"/>
<path d="M165.087 277.773C165.663 278.733 166.007 279.813 166.091 280.929C166.175 282.045 165.997 283.165 165.572 284.199C165.444 284.199 165.793 282.737 165.648 280.961C165.504 279.184 164.968 277.841 165.087 277.773Z" fill="#263238"/>
<path d="M150.229 302.492C150.858 300.529 150.093 297.52 148.877 295.514C148.809 295.398 148.71 295.302 148.591 295.239C148.472 295.175 148.338 295.146 148.203 295.154C148.069 295.162 147.939 295.207 147.828 295.284C147.718 295.361 147.631 295.467 147.577 295.59C146.639 297.822 146.288 300.257 146.557 302.662" fill="#E0E0E0"/>
<path d="M146.513 302.687C146.276 301.923 146.198 301.119 146.284 300.324C146.316 299.465 146.427 298.612 146.615 297.774C146.722 297.272 146.861 296.778 147.032 296.295C147.125 296.04 147.219 295.785 147.338 295.53C147.413 295.37 147.531 295.235 147.679 295.139C147.827 295.042 147.998 294.989 148.175 294.985C148.351 294.98 148.525 295.025 148.677 295.114C148.83 295.202 148.955 295.332 149.038 295.487C149.182 295.725 149.31 295.963 149.429 296.201C149.65 296.665 149.843 297.142 150.007 297.629C150.285 298.454 150.456 299.311 150.517 300.179C150.646 300.961 150.545 301.764 150.228 302.491C150.31 301.72 150.31 300.942 150.228 300.171C150.122 299.336 149.925 298.515 149.641 297.723C149.473 297.255 149.277 296.798 149.055 296.354C148.944 296.125 148.817 295.895 148.681 295.666C148.637 295.577 148.569 295.503 148.485 295.452C148.401 295.401 148.303 295.374 148.205 295.377C148.107 295.375 148.012 295.403 147.93 295.456C147.849 295.509 147.784 295.585 147.746 295.674C147.635 295.912 147.533 296.159 147.448 296.397C147.278 296.864 147.136 297.34 147.023 297.825C146.818 298.642 146.679 299.475 146.607 300.315C146.462 301.786 146.581 302.678 146.513 302.687Z" fill="#263238"/>
<path d="M148.058 295.752C148.628 296.714 148.968 297.794 149.052 298.909C149.136 300.023 148.962 301.142 148.543 302.178C148.415 302.178 148.755 300.716 148.619 298.94C148.483 297.163 147.931 295.803 148.058 295.752Z" fill="#263238"/>
<path d="M177.018 400.439C179.237 399.665 181.744 398.62 182.45 396.376C182.644 395.52 182.629 394.631 182.405 393.783C182.182 392.935 181.757 392.153 181.166 391.505C178.616 388.377 174.052 387.357 170.116 388.266C168.087 388.684 166.227 389.693 164.77 391.165C164.044 391.906 163.494 392.802 163.161 393.785C162.829 394.768 162.722 395.813 162.849 396.843C162.921 397.589 163.197 398.301 163.647 398.9C164.097 399.5 164.703 399.964 165.399 400.243C166.614 400.625 167.949 400.243 169.181 399.988C171.411 399.595 173.705 399.804 175.828 400.591" fill="#263238"/>
<path d="M158.031 369.293C158.135 369.242 158.243 369.203 158.354 369.174L159.315 368.859C160.165 368.579 161.372 368.162 162.885 367.525C167.032 365.767 170.869 363.353 174.249 360.376L175.099 359.628L174.547 360.614L170.943 367.185C170.797 367.445 170.716 367.737 170.705 368.035C170.696 368.155 170.732 368.274 170.806 368.37C170.88 368.466 170.986 368.531 171.104 368.553C171.741 368.495 172.352 368.275 172.881 367.916C174.12 367.278 175.291 366.515 176.374 365.638C177.609 364.633 178.727 363.493 179.706 362.238L180.556 361.099L180.046 362.45C179.332 364.34 178.822 366.3 178.525 368.298C178.385 369.242 178.294 370.193 178.253 371.146C178.164 372.036 178.201 372.935 178.363 373.815C178.441 374.207 178.655 374.559 178.967 374.809C179.121 374.912 179.298 374.974 179.482 374.991C179.666 375.007 179.851 374.977 180.021 374.903C180.706 374.512 181.307 373.989 181.789 373.364C182.843 372.2 183.778 371.078 184.585 370.032C185.86 368.379 187.038 366.654 188.113 364.864L188.963 363.402C189.049 363.229 189.151 363.064 189.269 362.909C189.208 363.095 189.128 363.275 189.031 363.445C188.861 363.793 188.597 364.295 188.24 364.941C187.224 366.768 186.089 368.526 184.84 370.202C184.041 371.273 183.14 372.412 182.061 373.602C181.553 374.277 180.91 374.839 180.174 375.251C179.948 375.35 179.702 375.39 179.457 375.369C179.213 375.349 178.977 375.267 178.771 375.132C178.386 374.833 178.116 374.409 178.006 373.934C177.827 373.013 177.778 372.072 177.862 371.137C177.862 370.185 177.989 369.225 178.125 368.247C178.422 366.215 178.935 364.221 179.655 362.297L180.029 362.51C179.033 363.791 177.892 364.951 176.629 365.969C175.522 366.866 174.326 367.647 173.059 368.298C172.745 368.468 172.43 368.613 172.116 368.757C171.775 368.942 171.387 369.019 171.002 368.978C170.788 368.933 170.595 368.816 170.458 368.646C170.32 368.475 170.245 368.263 170.246 368.043C170.261 367.673 170.357 367.31 170.526 366.981L174.181 360.419L174.487 360.657C171.075 363.645 167.184 366.039 162.978 367.737C161.797 368.215 160.591 368.629 159.366 368.978C158.941 369.097 158.609 369.174 158.38 369.233C158.15 369.293 158.04 369.31 158.031 369.293Z" fill="#263238"/>
</svg>
