<svg width="1195" height="426" viewBox="0 0 1195 426" fill="none" xmlns="http://www.w3.org/2000/svg">
<rect width="1195" height="426" rx="32" fill="url(#paint0_linear_890_6348)"/>
<g opacity="0.5">
<path d="M1151.65 218.012C1151.07 219.285 1150.22 220.42 1149.17 221.344C1148.38 222.01 1147.44 222.484 1146.43 222.73C1145.42 222.976 1144.36 222.987 1143.35 222.764C1141.4 222.447 1139.58 221.56 1138.13 220.214C1136.75 218.965 1135.28 217.828 1133.72 216.814C1132.03 215.751 1130.14 215.05 1128.17 214.757C1126.78 214.527 1125.4 214.374 1124.01 214.238C1122.15 214.09 1120.36 213.441 1118.83 212.36C1117.66 211.617 1116.74 210.542 1116.19 209.272C1115.63 208.003 1115.47 206.598 1115.73 205.237C1115.94 203.699 1116.54 202.241 1117.48 201.001C1118.41 199.761 1119.64 198.779 1121.06 198.148C1122.56 197.408 1124.16 196.847 1125.71 196.21C1126.42 195.921 1127.12 195.649 1127.83 195.36C1129.03 194.791 1130.1 193.964 1130.95 192.937C1131.47 192.368 1131.99 191.798 1132.51 191.237C1133.44 190.231 1134.6 189.483 1135.9 189.067C1137.2 188.652 1138.59 188.582 1139.92 188.866C1142.14 189.213 1144.22 190.163 1145.93 191.611C1146.9 192.362 1147.67 193.333 1148.19 194.444C1148.7 195.555 1148.94 196.772 1148.88 197.995C1148.88 198.751 1148.83 199.516 1148.76 200.264C1148.55 202.15 1148.86 204.057 1149.66 205.781C1150.36 207.404 1151.06 209.104 1151.65 210.804C1152.36 212.632 1152.51 214.629 1152.08 216.542C1151.97 217.018 1151.79 217.511 1151.65 218.012Z" fill="#F5F5F5"/>
<path d="M1144.45 183.092C1143.82 184.639 1142.67 185.915 1141.2 186.696C1140.56 187.031 1139.87 187.231 1139.16 187.283C1138.35 187.335 1137.55 187.209 1136.79 186.915C1136.04 186.622 1135.37 186.167 1134.81 185.583C1134.11 184.91 1133.57 184.088 1133.22 183.177C1131.77 179.055 1132.55 175.638 1135.63 172.977C1136.14 172.574 1136.71 172.263 1137.33 172.059C1138.39 171.727 1139.54 171.729 1140.6 172.066C1141.66 172.404 1142.6 173.06 1143.28 173.946C1144.28 175.156 1144.9 176.634 1145.07 178.196C1145.31 179.855 1145.1 181.547 1144.45 183.092Z" fill="#F5F5F5"/>
<path d="M1159.59 187.853C1158.99 188.946 1158.18 189.91 1157.2 190.688C1156.23 191.465 1155.11 192.042 1153.91 192.384C1153.18 192.582 1152.43 192.677 1151.67 192.664C1150.57 192.684 1149.49 192.344 1148.59 191.695C1147.69 191.047 1147.03 190.125 1146.71 189.069C1146.31 187.74 1146.36 186.319 1146.85 185.023C1147.28 183.77 1147.98 182.625 1148.89 181.664C1149.8 180.704 1150.91 179.95 1152.14 179.455C1153.17 179.008 1154.28 178.802 1155.4 178.852C1156.48 178.858 1157.54 179.203 1158.41 179.839C1159.28 180.475 1159.94 181.37 1160.27 182.396C1160.67 183.7 1160.64 185.097 1160.19 186.383C1160 187.003 1159.73 187.539 1159.59 187.853Z" fill="#F5F5F5"/>
<path d="M1118.37 182.921C1118.81 181.838 1119.51 180.884 1120.42 180.15C1122.7 178.399 1125.75 178.858 1127.77 181.272C1128.99 182.703 1129.7 184.496 1129.79 186.372C1129.92 187.498 1129.81 188.64 1129.46 189.719C1129.11 190.797 1128.53 191.787 1127.76 192.62C1127.41 192.981 1127.01 193.296 1126.58 193.555C1125.6 194.115 1124.46 194.335 1123.34 194.181C1122.23 194.028 1121.19 193.508 1120.4 192.705C1119.27 191.646 1118.47 190.282 1118.09 188.778C1117.53 186.849 1117.63 184.788 1118.37 182.921Z" fill="#F5F5F5"/>
<path d="M1164.62 202.71C1164.03 203.966 1163.16 205.07 1162.07 205.939C1160.99 206.808 1159.72 207.419 1158.37 207.725C1157.23 208.039 1156.03 208.039 1154.89 207.725C1154.11 207.537 1153.4 207.159 1152.8 206.627C1152.21 206.094 1151.76 205.423 1151.49 204.673C1150.99 203.348 1151.02 201.883 1151.56 200.576C1152.05 199.255 1152.84 198.068 1153.88 197.113C1154.91 196.157 1156.16 195.459 1157.51 195.077C1159.12 194.507 1160.89 194.583 1162.44 195.289C1163.05 195.562 1163.58 195.959 1164.02 196.454C1164.46 196.949 1164.79 197.531 1164.99 198.162C1165.43 199.673 1165.3 201.291 1164.62 202.71Z" fill="#F5F5F5"/>
<path d="M1100.65 114.751C1099.22 116.73 1097.39 118.384 1095.27 119.604C1091.96 121.551 1088.41 121.304 1084.82 120.046C1081.58 118.849 1078.77 116.72 1076.74 113.926C1074.8 111.323 1072.67 108.876 1070.35 106.608C1067.83 104.213 1064.83 102.369 1061.55 101.193C1059.27 100.343 1056.94 99.5866 1054.61 98.8811C1051.47 97.994 1048.62 96.2729 1046.37 93.9001C1042.74 89.9476 1041.68 85.5701 1043.49 80.6486C1045.5 75.2001 1049.44 71.8341 1055.05 70.3381C1057.87 69.5816 1060.8 69.1651 1063.67 68.6381L1067.58 67.8901C1069.85 67.3305 1071.96 66.2736 1073.76 64.7961C1074.84 64.0056 1075.93 63.2066 1077.02 62.4246C1081.12 59.4751 1085.64 59.0756 1090.51 60.8946C1094.19 62.2414 1097.43 64.5767 1099.86 67.6436C1101.26 69.2532 1102.25 71.1737 1102.75 73.2442C1103.25 75.3147 1103.24 77.4748 1102.74 79.5436C1102.44 80.8356 1102.13 82.0936 1101.73 83.3856C1100.75 86.5493 1100.63 89.9202 1101.4 93.1436C1102.08 96.2036 1102.7 99.2806 1103.17 102.375C1103.77 105.742 1103.35 109.211 1101.96 112.337C1101.57 113.161 1101.1 113.943 1100.65 114.751Z" fill="#EBEBEB"/>
<path d="M1100.28 52.5068C1098.68 54.9487 1096.27 56.753 1093.48 57.6068C1092.29 57.9654 1091.03 58.0697 1089.79 57.9128C1088.4 57.7345 1087.06 57.2515 1085.87 56.498C1084.68 55.7444 1083.67 54.7388 1082.92 53.5523C1081.94 52.1652 1081.29 50.5716 1081.02 48.8943C1079.93 41.3378 1082.44 35.7533 1088.61 32.2598C1089.63 31.7366 1090.75 31.4081 1091.89 31.2908C1095.73 30.7553 1099.47 32.8378 1101.46 36.5438C1102.76 38.9603 1103.33 41.7059 1103.09 44.4403C1102.88 47.33 1101.91 50.1137 1100.28 52.5068Z" fill="#EBEBEB"/>
<path d="M1124.56 65.8766C1121.47 69.2086 1118.01 71.3421 1113.3 71.7076C1111.98 71.7989 1110.66 71.7016 1109.37 71.4186C1107.47 71.0763 1105.74 70.1259 1104.43 68.7106C1103.11 67.2954 1102.3 65.4922 1102.1 63.5731C1101.88 61.165 1102.45 58.7493 1103.73 56.6966C1104.89 54.7002 1106.47 52.9772 1108.36 51.6443C1110.25 50.3113 1112.4 49.3994 1114.67 48.9701C1116.59 48.5501 1118.57 48.5763 1120.47 49.0466C1122.32 49.425 1124 50.3746 1125.28 51.7611C1126.56 53.1477 1127.37 54.901 1127.59 56.7731C1127.84 59.1426 1127.31 61.5278 1126.09 63.5731C1125.57 64.4996 1124.93 65.3411 1124.56 65.8766Z" fill="#EBEBEB"/>
<path d="M1055.68 43.3539C1056.79 41.6414 1058.32 40.247 1060.13 39.3079C1064.63 37.0809 1069.69 38.9084 1072.34 43.7279C1073.91 46.5763 1074.51 49.8593 1074.04 53.0779C1073.5 57.2004 1071.84 60.6769 1068.42 63.0824C1067.7 63.5824 1066.91 63.9826 1066.08 64.2724C1062.37 65.5984 1058.37 64.1874 1055.82 60.6769C1054.24 58.4773 1053.33 55.8682 1053.2 53.1629C1052.92 49.7093 1053.8 46.2621 1055.68 43.3539Z" fill="#EBEBEB"/>
<path d="M1128.09 92.9837C1126.66 94.9353 1124.79 96.5326 1122.64 97.6536C1120.49 98.7747 1118.12 99.3898 1115.69 99.4522C1113.63 99.5786 1111.58 99.147 1109.74 98.2027C1108.48 97.6114 1107.39 96.7202 1106.56 95.6072C1105.72 94.4943 1105.17 93.1935 1104.96 91.8192C1104.57 89.3779 1105.12 86.88 1106.49 84.8237C1107.76 82.7292 1109.52 80.9661 1111.6 79.678C1113.69 78.3899 1116.05 77.6133 1118.5 77.4117C1121.45 76.9703 1124.45 77.7028 1126.86 79.4517C1127.81 80.1163 1128.61 80.9764 1129.21 81.9746C1129.8 82.9728 1130.18 84.086 1130.3 85.2402C1130.64 88.0622 1129.74 90.4422 1128.09 92.9837Z" fill="#EBEBEB"/>
<path d="M992.53 93.1115C993.12 94.6525 993.377 96.3006 993.286 97.948C993.167 100.498 991.739 102.462 989.682 104.017C987.811 105.408 985.568 106.213 983.239 106.329C981.057 106.458 978.888 106.763 976.754 107.239C974.463 107.78 972.312 108.797 970.438 110.222C969.112 111.191 967.829 112.237 966.571 113.291C964.909 114.741 962.885 115.713 960.714 116.104C957.136 116.708 954.28 115.688 952.163 112.849C951.046 111.4 950.317 109.691 950.043 107.883C949.769 106.075 949.961 104.226 950.599 102.513C951.211 100.643 952.053 98.832 952.801 96.996C953.132 96.146 953.489 95.296 953.821 94.514C954.333 93.0269 954.513 91.4456 954.348 89.8815C954.297 88.972 954.246 88.071 954.212 87.1615C954.123 85.5554 954.455 83.954 955.177 82.5165C955.899 81.0789 956.984 79.8554 958.326 78.9675C960.447 77.3879 962.961 76.4206 965.593 76.171C967.022 75.9735 968.476 76.123 969.835 76.6069C971.193 77.0907 972.415 77.8946 973.396 78.9505C974.017 79.5965 974.637 80.2425 975.198 80.931C976.624 82.6569 978.489 83.9665 980.596 84.722C982.576 85.4615 984.54 86.252 986.461 87.1275C988.588 88.0274 990.394 89.5469 991.646 91.488C991.969 92.0065 992.232 92.5675 992.53 93.1115Z" fill="#F5F5F5"/>
<path d="M957.2 70.3636C957.981 72.1711 958.105 74.1952 957.549 76.0842C957.312 76.894 956.907 77.6445 956.359 78.2856C955.743 79.0048 954.977 79.5806 954.115 79.9726C953.253 80.3647 952.316 80.5635 951.369 80.5551C950.224 80.5986 949.083 80.3775 948.037 79.9091C943.362 77.7416 941.135 74.2566 941.433 69.4796C941.513 68.709 941.735 67.9599 942.087 67.2696C942.685 66.0929 943.63 65.1288 944.795 64.5083C945.96 63.8878 947.288 63.6411 948.598 63.8016C950.442 63.9567 952.2 64.6482 953.656 65.7906C955.222 66.9731 956.446 68.5516 957.2 70.3636Z" fill="#F5F5F5"/>
<path d="M973.716 61.5768C974.142 62.9797 974.286 64.4529 974.14 65.9117C973.995 67.3705 973.562 68.786 972.866 70.0768C972.431 70.8554 971.888 71.5681 971.251 72.1933C970.357 73.1389 969.179 73.7679 967.896 73.9857C966.613 74.2034 965.293 73.9979 964.137 73.4003C962.694 72.6428 961.539 71.4337 960.848 69.9578C960.15 68.5613 959.76 67.0316 959.703 65.4717C959.645 63.9118 959.923 62.3577 960.516 60.9138C960.984 59.6776 961.732 58.5663 962.7 57.6668C963.595 56.7598 964.752 56.1576 966.007 55.9455C967.263 55.7334 968.554 55.9223 969.696 56.4853C971.133 57.2314 972.287 58.4249 972.985 59.8853C973.308 60.4973 973.538 61.2028 973.716 61.5768Z" fill="#F5F5F5"/>
<path d="M935.561 92.1937C935.004 90.9341 934.785 89.5517 934.923 88.1817C935.323 84.7817 938.221 82.6312 941.927 82.9117C944.129 83.0788 946.216 83.9557 947.877 85.4107C948.933 86.2303 949.799 87.2683 950.417 88.4537C951.034 89.639 951.389 90.9438 951.456 92.2787C951.468 92.8708 951.405 93.462 951.269 94.0382C950.931 95.3236 950.176 96.4603 949.122 97.2697C948.068 98.079 946.775 98.5151 945.446 98.5092C943.621 98.5941 941.81 98.1452 940.236 97.2172C938.164 96.1064 936.52 94.3396 935.561 92.1937Z" fill="#F5F5F5"/>
<path d="M990.343 69.576C990.907 71.1029 991.117 72.7379 990.956 74.3577C990.796 75.9774 990.269 77.5395 989.416 78.926C988.724 80.1369 987.72 81.1406 986.509 81.833C985.712 82.3289 984.804 82.6201 983.867 82.6809C982.93 82.7417 981.992 82.5702 981.137 82.1815C979.615 81.5185 978.401 80.3037 977.737 78.7815C977.027 77.2885 976.679 75.649 976.722 73.9963C976.765 72.3435 977.197 70.7242 977.984 69.27C978.821 67.4358 980.348 66.0061 982.234 65.292C982.956 64.9977 983.733 64.86 984.512 64.8878C985.292 64.9156 986.056 65.1084 986.756 65.4535C988.424 66.3328 989.703 67.8029 990.343 69.576Z" fill="#F5F5F5"/>
<path d="M889.298 190.539C889.96 192.264 890.25 194.109 890.148 195.954C890.021 198.861 888.448 201.054 886.128 202.754C884.036 204.325 881.524 205.239 878.911 205.38C876.462 205.534 874.029 205.884 871.635 206.426C869.069 207.054 866.663 208.212 864.572 209.826C863.084 210.922 861.656 212.095 860.245 213.285C858.387 214.916 856.123 216.017 853.692 216.473C849.68 217.161 846.467 216.031 844.087 212.852C842.825 211.233 841.998 209.32 841.682 207.293C841.367 205.265 841.574 203.191 842.285 201.266C842.965 199.167 843.9 197.135 844.724 195.07C845.098 194.135 845.489 193.208 845.855 192.273C846.43 190.606 846.627 188.832 846.433 187.08C846.373 186.06 846.314 185.048 846.263 184.028C846.084 180.212 847.682 177.177 850.844 174.823C853.216 173.037 856.033 171.941 858.987 171.652C860.589 171.424 862.221 171.585 863.747 172.122C865.273 172.659 866.646 173.556 867.751 174.738C868.448 175.46 869.145 176.183 869.782 176.948C871.386 178.885 873.482 180.354 875.851 181.198C878.078 182.048 880.288 182.898 882.439 183.867C884.827 184.869 886.858 186.566 888.27 188.737C888.669 189.307 889.001 189.927 889.298 190.539Z" fill="#F5F5F5"/>
<path d="M849.573 165.175C850.46 167.199 850.607 169.47 849.99 171.592C849.728 172.501 849.276 173.344 848.664 174.066C847.975 174.873 847.117 175.52 846.15 175.961C845.184 176.402 844.133 176.625 843.071 176.616C841.787 176.666 840.508 176.425 839.331 175.91C834.086 173.496 831.57 169.603 831.876 164.24C831.971 163.375 832.218 162.535 832.607 161.758C833.271 160.434 834.327 159.347 835.63 158.644C836.933 157.942 838.421 157.658 839.892 157.831C841.963 158.002 843.939 158.773 845.578 160.049C847.342 161.372 848.721 163.141 849.573 165.175Z" fill="#F5F5F5"/>
<path d="M868.058 155.246C868.544 156.821 868.714 158.477 868.556 160.119C868.399 161.76 867.917 163.354 867.14 164.808C866.653 165.679 866.047 166.477 865.338 167.18C864.34 168.245 863.022 168.957 861.584 169.209C860.146 169.46 858.665 169.237 857.365 168.574C855.737 167.733 854.433 166.376 853.659 164.715C852.869 163.152 852.424 161.438 852.354 159.689C852.283 157.939 852.589 156.195 853.251 154.574C853.766 153.186 854.598 151.937 855.682 150.928C856.683 149.916 857.976 149.244 859.379 149.006C860.782 148.768 862.224 148.977 863.502 149.602C865.108 150.42 866.407 151.735 867.208 153.35C867.607 154.039 867.871 154.795 868.058 155.246Z" fill="#F5F5F5"/>
<path d="M825.406 189.756C824.772 188.347 824.517 186.797 824.667 185.259C825.1 181.485 828.339 179.02 832.495 179.309C834.965 179.481 837.311 180.453 839.176 182.08C840.36 182.99 841.334 184.144 842.033 185.464C842.731 186.784 843.137 188.239 843.222 189.73C843.243 190.396 843.175 191.062 843.018 191.711C842.33 194.618 839.788 196.581 836.507 196.751C834.459 196.852 832.426 196.359 830.651 195.332C828.339 194.098 826.497 192.139 825.406 189.756Z" fill="#F5F5F5"/>
<path d="M886.753 164.137C887.398 165.854 887.643 167.696 887.469 169.522C887.295 171.349 886.707 173.112 885.75 174.677C884.982 176.04 883.86 177.171 882.503 177.949C881.61 178.508 880.593 178.838 879.542 178.911C878.491 178.983 877.438 178.796 876.476 178.366C874.765 177.609 873.402 176.234 872.66 174.515C871.858 172.842 871.462 171.004 871.503 169.149C871.544 167.294 872.022 165.475 872.898 163.839C873.834 161.786 875.537 160.182 877.641 159.368C878.456 159.034 879.332 158.879 880.212 158.912C881.092 158.946 881.954 159.168 882.741 159.564C884.597 160.541 886.026 162.17 886.753 164.137Z" fill="#F5F5F5"/>
<path d="M885.529 115.603C884.983 117.69 884.001 119.637 882.647 121.315C880.539 123.967 877.547 124.919 874.147 124.996C871.105 125.045 868.118 124.19 865.562 122.539C863.143 121.014 860.608 119.681 857.98 118.553C855.142 117.368 852.088 116.789 849.013 116.853C846.862 116.853 844.712 117.006 842.57 117.159C839.702 117.432 836.814 116.921 834.214 115.68C829.964 113.589 827.712 110.325 827.635 105.709C827.55 100.609 829.726 96.5634 833.857 93.5459C835.94 92.0329 838.209 90.7579 840.402 89.3809C841.388 88.7604 842.391 88.1484 843.377 87.5194C845.056 86.339 846.455 84.8039 847.474 83.0229C848.112 82.0199 848.749 81.0169 849.395 80.0309C851.835 76.2994 855.422 74.5399 860.012 74.4889C863.462 74.4173 866.865 75.2997 869.846 77.0389C871.511 77.92 872.94 79.1883 874.013 80.7371C875.085 82.2859 875.77 84.0698 876.009 85.9384C876.17 87.0944 876.332 88.2589 876.4 89.4149C876.598 92.3309 877.575 95.1403 879.23 97.5494C880.769 99.8444 882.256 102.182 883.625 104.57C885.185 107.152 885.937 110.142 885.784 113.155C885.775 114.005 885.605 114.804 885.529 115.603Z" fill="#EBEBEB"/>
<path d="M865.43 64.5422C864.878 67.0524 863.468 69.2917 861.444 70.8747C860.573 71.5474 859.571 72.0309 858.503 72.2942C857.3 72.5906 856.046 72.6186 854.832 72.3762C853.617 72.1338 852.47 71.627 851.473 70.8917C850.226 70.0638 849.186 68.9619 848.43 67.6702C845.132 61.8052 845.421 56.4162 849.382 51.5712C850.058 50.8168 850.868 50.1943 851.771 49.7352C853.299 48.9382 855.035 48.6322 856.744 48.8589C858.452 49.0855 860.049 49.8339 861.316 51.0017C863.145 52.572 864.479 54.6387 865.158 56.9517C865.924 59.4123 866.018 62.033 865.43 64.5422Z" fill="#EBEBEB"/>
<path d="M889.634 67.8148C888.164 71.5378 885.988 74.3938 882.231 76.1873C881.177 76.6839 880.058 77.0274 878.907 77.2073C877.232 77.5361 875.495 77.3089 873.961 76.5601C872.427 75.8114 871.179 74.5822 870.407 73.0593C869.454 71.1546 869.155 68.9886 869.557 66.8968C869.883 64.8842 870.635 62.9645 871.764 61.2668C872.893 59.5691 874.372 58.1326 876.102 57.0538C877.548 56.0899 879.198 55.4732 880.922 55.2518C882.561 54.9734 884.247 55.2186 885.739 55.9525C887.231 56.6864 888.454 57.8718 889.235 59.3403C890.201 61.2223 890.526 63.3681 890.161 65.4518C890.034 66.3613 889.762 67.2538 889.634 67.8148Z" fill="#EBEBEB"/>
<path d="M825.83 71.1802C826.198 69.4196 827.019 67.785 828.21 66.4372C831.193 63.1732 835.936 63.0372 839.651 66.1907C841.859 68.0384 843.403 70.5579 844.045 73.3647C844.895 76.9262 844.657 80.3092 842.609 83.3777C842.174 84.0099 841.656 84.5816 841.07 85.0777C838.427 87.3472 834.695 87.4577 831.482 85.3837C829.495 84.0789 827.923 82.2325 826.952 80.0627C825.609 77.3065 825.214 74.1838 825.83 71.1802Z" fill="#EBEBEB"/>
<path d="M901.168 88.98C900.603 91.0393 899.574 92.9422 898.162 94.5435C896.749 96.1448 894.989 97.4021 893.016 98.2195C891.358 98.9701 889.53 99.2636 887.721 99.0695C886.499 98.9843 885.316 98.5992 884.279 97.9484C883.241 97.2975 882.379 96.401 881.771 95.338C880.673 93.4549 880.326 91.2265 880.802 89.099C881.188 86.9741 882.071 84.9705 883.378 83.2513C884.685 81.532 886.38 80.1456 888.324 79.205C890.611 77.9091 893.313 77.5583 895.855 78.2275C896.848 78.4731 897.777 78.9266 898.582 79.5582C899.386 80.1897 900.047 80.9849 900.522 81.891C901.695 84.152 901.754 86.362 901.168 88.98Z" fill="#EBEBEB"/>
</g>
<g opacity="0.7">
<path d="M1054.91 340.164C1054.03 338.368 1052.82 336.749 1051.35 335.387C1051.35 335.387 1050.69 327.652 1047.63 323.087C1044.57 318.523 1039.98 314.834 1034.47 318.319L1035.21 317.894C1032.43 315.76 1027.96 315.531 1024.65 316.712C1023 317.273 1021.47 318.138 1020.14 319.262C1017.65 321.426 1015.51 323.954 1013.77 326.759C1013.77 326.759 1008.38 327.099 1006.25 335.608C1005.06 340.9 1004.16 346.251 1003.53 351.639C1003.53 351.639 1004.17 367.236 1005.1 371.937C1006.02 376.637 1002.99 386.565 1002.82 388.563C1002.65 390.56 1001.7 392.073 1000.37 399.927C999.035 407.781 996.672 424.501 996.672 424.501H1044.63C1044.63 424.501 1045.83 402.766 1045.71 400.386C1045.78 394.672 1046.41 388.979 1047.58 383.386C1048.9 377.887 1054.04 360.547 1054.04 360.547C1055.92 352.421 1056.47 343.232 1054.91 340.164Z" fill="#455A64"/>
<g opacity="0.3">
<path d="M1017.63 336.722L1011.55 336.416C1009.5 338.015 1007.98 340.183 1007.16 342.647C1006.96 343.097 1006.86 343.583 1006.86 344.075C1006.86 344.566 1006.96 345.052 1007.16 345.503C1007.78 346.608 1009.24 346.88 1010.5 346.922C1012.44 347.042 1014.37 346.698 1016.14 345.919C1017.02 345.521 1017.8 344.934 1018.43 344.2C1019.05 343.465 1019.51 342.601 1019.76 341.669C1019.98 340.725 1019.9 339.733 1019.51 338.842C1019.13 337.951 1018.47 337.208 1017.63 336.722Z" fill="black"/>
</g>
<g opacity="0.3">
<path d="M1046.16 331.444L1044.03 329.744L1036.73 328.716C1036.15 328.583 1035.55 328.601 1034.98 328.767C1034.64 328.933 1034.34 329.171 1034.1 329.465C1033.86 329.758 1033.69 330.1 1033.6 330.467C1033.3 331.456 1033.27 332.508 1033.53 333.509C1033.78 334.51 1034.31 335.422 1035.05 336.145C1035.81 336.849 1036.7 337.386 1037.68 337.721C1038.66 338.057 1039.7 338.183 1040.73 338.091C1042.4 338.003 1043.98 337.29 1045.15 336.094C1045.73 335.486 1046.13 334.73 1046.3 333.911C1046.48 333.091 1046.43 332.238 1046.16 331.444Z" fill="black"/>
</g>
<path d="M1040.26 319.951C1041.25 319.832 1042.25 320.054 1043.1 320.58C1044.66 321.515 1047.3 323.495 1047.24 326.207C1047.16 330.04 1047.05 334.52 1042.5 335.557C1037.94 336.594 1032.3 333.423 1034.76 326.878C1036.68 321.778 1038.32 320.214 1040.26 319.951Z" fill="#263238"/>
<g opacity="0.3">
<path d="M1030.41 328.604L1027.28 324.838C1026.26 324.602 1025.21 324.488 1024.17 324.498C1023.11 324.511 1022.1 324.9 1021.3 325.595C1020.5 326.435 1020.05 327.547 1020.04 328.706C1019.97 329.817 1020.18 330.929 1020.66 331.939C1021.13 332.949 1021.84 333.824 1022.74 334.486C1023.65 335.121 1024.74 335.465 1025.86 335.473C1026.97 335.481 1028.06 335.151 1028.99 334.528C1029.88 333.864 1030.51 332.907 1030.77 331.824C1031.03 330.742 1030.91 329.602 1030.41 328.604Z" fill="black"/>
</g>
<path d="M1028.18 317.945C1028.95 317.607 1029.81 317.507 1030.64 317.658C1031.47 317.81 1032.24 318.205 1032.85 318.795C1033.03 318.965 1033.17 319.178 1033.25 319.415C1033.5 320.359 1032.91 327.711 1029.07 331.477C1025.24 335.242 1020.15 330.533 1020.57 326.674C1020.88 323.521 1024.52 319.492 1028.18 317.945Z" fill="#263238"/>
<path d="M1015.13 329.981C1015.13 329.981 1012.58 327.363 1010.03 332.013C1007.48 336.662 1006.63 343.547 1009.31 344.006C1011.98 344.465 1018.14 342.969 1018.38 339.238C1018.61 335.506 1016.63 330.806 1015.13 329.981Z" fill="#263238"/>
<g opacity="0.3">
<path d="M1049.06 345.111C1047.47 343.877 1045.8 342.742 1044.07 341.711C1043.68 341.433 1043.22 341.257 1042.74 341.201C1041.68 341.201 1040.93 342.247 1040.61 343.25C1040.28 344.227 1040.17 345.262 1040.27 346.287C1040.37 347.312 1040.69 348.305 1041.2 349.2C1041.73 350.096 1042.47 350.847 1043.36 351.386C1044.25 351.924 1045.26 352.233 1046.3 352.285C1047.34 352.326 1048.37 352.073 1049.27 351.554C1050.17 351.035 1050.91 350.272 1051.4 349.353L1049.06 345.111Z" fill="black"/>
</g>
<path d="M1054.48 343.461C1054.49 342.263 1054.18 341.084 1053.57 340.051C1052.96 339.018 1052.09 338.169 1051.03 337.596C1049.98 337.023 1048.79 336.748 1047.6 336.798C1046.4 336.849 1045.24 337.225 1044.24 337.885C1044.06 338.013 1043.88 338.148 1043.71 338.293C1041.16 340.52 1040.69 344.991 1042.91 347.328C1045.13 349.666 1049.92 353.839 1053.26 347.694C1053.99 346.398 1054.41 344.948 1054.48 343.461Z" fill="#263238"/>
<g opacity="0.3">
<path d="M1028.78 358.364C1024.79 357.219 1020.51 357.52 1016.71 359.214C1015.57 359.641 1014.59 360.409 1013.89 361.416C1012.64 363.583 1014.13 366.516 1016.36 367.646C1018.58 368.777 1021.24 368.607 1023.72 368.309C1026.2 368.012 1028.82 367.629 1031.16 368.42C1032.52 368.969 1033.83 369.64 1035.07 370.426C1036.31 371.209 1037.76 371.616 1039.23 371.599C1039.96 371.57 1040.67 371.307 1041.23 370.848C1041.8 370.388 1042.21 369.757 1042.39 369.049L1028.78 358.364Z" fill="black"/>
</g>
<path d="M1045.4 358.124C1044.45 356.29 1043 354.769 1041.2 353.746C1039.5 352.752 1036.9 350.967 1035.56 348.646C1033.47 345.076 1033.95 342.373 1029.73 342.144C1025.51 341.914 1025.79 345.595 1020.64 347.286C1012.41 349.981 1010.6 351.97 1009.81 355.599C1009.02 359.229 1009.88 361.014 1011.93 363.411C1013.98 365.808 1020.82 362.136 1026.3 362.331C1031.79 362.527 1035.93 368.222 1039.25 369.845C1042.57 371.469 1045.79 368.145 1046.32 362.943C1046.47 361.281 1046.15 359.611 1045.4 358.124Z" fill="#263238"/>
<path d="M1025.27 411.539C1027.14 411.224 1029.26 410.689 1030.12 409.048C1030.39 408.397 1030.5 407.689 1030.44 406.985C1030.38 406.281 1030.15 405.603 1029.76 405.011C1028.15 402.18 1024.66 400.761 1021.42 400.948C1019.76 401.009 1018.15 401.559 1016.79 402.529C1016.12 403.021 1015.56 403.659 1015.17 404.395C1014.77 405.13 1014.55 405.945 1014.51 406.779C1014.48 407.381 1014.61 407.98 1014.89 408.514C1015.17 409.047 1015.59 409.493 1016.11 409.805C1017.09 410.138 1018.12 410.243 1019.15 410.111C1020.97 410.095 1022.76 410.567 1024.34 411.479" fill="#263238"/>
<path d="M1014.41 384.278C1014.76 384.186 1015.12 384.123 1015.48 384.091C1016.18 383.98 1017.18 383.802 1018.49 383.496C1022.01 382.659 1025.37 381.258 1028.45 379.348L1029.41 378.753L1028.7 379.603L1024.96 384.329C1024.82 384.514 1024.72 384.729 1024.67 384.958C1024.65 385.042 1024.66 385.13 1024.7 385.207C1024.74 385.283 1024.81 385.342 1024.89 385.374C1025.39 385.409 1025.9 385.318 1026.36 385.111C1028.64 384.372 1030.74 383.155 1032.51 381.541L1033.58 380.563L1032.85 381.813C1032.03 383.213 1031.36 384.698 1030.86 386.241C1030.62 386.967 1030.42 387.705 1030.26 388.451C1030.07 389.144 1029.98 389.859 1029.99 390.576C1029.99 390.89 1030.11 391.191 1030.32 391.426C1030.42 391.524 1030.55 391.594 1030.69 391.63C1030.83 391.665 1030.97 391.665 1031.11 391.63C1031.7 391.417 1032.24 391.087 1032.71 390.661C1033.7 389.879 1034.59 389.123 1035.38 388.4C1036.61 387.26 1037.78 386.051 1038.88 384.779L1039.73 383.751C1039.82 383.624 1039.93 383.507 1040.05 383.402C1039.98 383.542 1039.9 383.673 1039.8 383.793C1039.62 384.048 1039.35 384.422 1038.95 384.881C1037.89 386.196 1036.76 387.443 1035.55 388.613C1034.76 389.352 1033.85 390.134 1032.89 390.933C1032.4 391.398 1031.82 391.759 1031.19 391.996C1030.99 392.043 1030.78 392.041 1030.58 391.989C1030.39 391.937 1030.2 391.837 1030.05 391.698C1029.78 391.404 1029.62 391.022 1029.6 390.619C1029.58 389.86 1029.67 389.102 1029.86 388.366C1030.02 387.627 1030.22 386.87 1030.46 386.105C1030.97 384.533 1031.65 383.02 1032.48 381.592L1032.81 381.864C1031.84 382.744 1030.78 383.514 1029.65 384.159C1028.64 384.72 1027.59 385.178 1026.49 385.527L1025.64 385.765C1025.34 385.86 1025.01 385.86 1024.71 385.765C1024.54 385.7 1024.4 385.581 1024.31 385.427C1024.22 385.273 1024.18 385.093 1024.21 384.915C1024.26 384.605 1024.39 384.313 1024.58 384.065L1028.36 379.348L1028.62 379.637C1025.5 381.549 1022.08 382.918 1018.5 383.683C1017.5 383.899 1016.48 384.061 1015.46 384.167C1015.1 384.21 1014.83 384.218 1014.65 384.235L1014.41 384.278Z" fill="#263238"/>
</g>
<path d="M963.579 301.702C965.57 303.083 967.298 304.811 968.679 306.802C971.118 310.245 972.3 321.618 971.713 331.928C971.713 331.928 969.163 354.241 968.679 361.262C968.413 368.367 968.814 375.482 969.877 382.512C970.498 385.402 973.014 424.4 973.014 424.4H917.05C917.05 424.4 916.429 401.288 916.438 391.386C916.446 381.483 917.288 379.418 917.05 376.936C916.812 374.454 918.444 361.636 916.412 356.102C914.381 350.569 910.513 331.546 910.513 331.546C910.513 331.546 908.023 319.221 910.513 311.341C913.004 303.462 914.381 306.173 914.381 306.173C914.381 306.173 919.379 293.814 923.629 288.451C924.957 286.805 926.583 285.424 928.423 284.379C930.23 283.339 932.278 282.785 934.364 282.773C936.45 282.761 938.503 283.291 940.323 284.311C946.111 278.888 952.223 282.467 956.753 287.414C961.284 292.361 963.579 301.702 963.579 301.702Z" fill="#FFD088"/>
<g opacity="0.3">
<path d="M922.09 310.354C923.215 310.778 924.174 311.55 924.827 312.558C925.48 313.566 925.793 314.757 925.72 315.956C925.605 317.148 925.228 318.3 924.615 319.328C924.002 320.357 923.169 321.237 922.175 321.906C920.168 323.234 917.871 324.059 915.477 324.312C913.913 324.524 912.077 324.499 911.074 323.275C910.741 322.762 910.518 322.187 910.418 321.584C910.319 320.981 910.345 320.364 910.496 319.772C910.984 316.581 912.407 313.605 914.585 311.221" fill="black"/>
</g>
<g opacity="0.3">
<path d="M955.931 297.953C956.419 298.863 956.651 299.888 956.602 300.92C956.552 301.952 956.223 302.95 955.65 303.809C954.463 305.519 952.675 306.718 950.644 307.167C949.402 307.496 948.105 307.559 946.838 307.351C945.571 307.143 944.362 306.669 943.291 305.96C942.231 305.232 941.394 304.225 940.87 303.05C940.347 301.876 940.158 300.579 940.325 299.304C940.372 298.845 940.517 298.401 940.75 298.002C940.983 297.603 941.299 297.259 941.676 296.992C942.339 296.669 943.073 296.52 943.81 296.559L952.973 296.312" fill="black"/>
</g>
<path d="M948.462 284.786C948.462 284.786 955.483 286.596 956.188 291.305C956.894 296.014 957.693 301.505 952.321 303.749C946.949 305.993 939.426 303.248 941.033 294.722C942.639 286.197 945.045 284.888 948.462 284.786Z" fill="#263238"/>
<g opacity="0.3">
<path d="M936.071 297.757C936.877 298.88 937.267 300.248 937.174 301.627C937.081 303.006 936.511 304.309 935.561 305.313C934.558 306.263 933.291 306.889 931.927 307.111C930.563 307.332 929.164 307.138 927.911 306.554C926.675 305.931 925.615 305.008 924.828 303.869C924.041 302.73 923.552 301.411 923.406 300.035C923.181 298.614 923.5 297.16 924.299 295.963C925.117 294.938 926.275 294.239 927.563 293.991C928.841 293.762 930.142 293.685 931.439 293.762" fill="black"/>
</g>
<path d="M934.013 283.884C934.013 283.884 937.124 284.785 937.625 285.89C938.127 286.995 938.926 296.09 935.016 301.538C931.106 306.987 923.881 302.244 923.575 297.433C923.269 292.622 928.794 285.091 934.013 283.884Z" fill="#263238"/>
<path d="M915.979 302.049C915.979 302.049 913.973 299.941 911.865 306.154C909.757 312.368 910.029 321.004 913.429 321.004C916.829 321.004 924.045 317.901 923.552 313.286C923.059 308.67 917.959 302.746 915.979 302.049Z" fill="#263238"/>
<g opacity="0.3">
<path d="M966.021 318.855C965.618 320.076 964.879 321.159 963.891 321.981C962.902 322.803 961.702 323.331 960.428 323.505C959.151 323.647 957.859 323.472 956.665 322.996C955.472 322.521 954.414 321.758 953.586 320.776C952.772 319.784 952.177 318.631 951.839 317.394C951.501 316.156 951.427 314.862 951.622 313.594C951.818 312.285 952.472 310.814 953.815 310.636C954.401 310.609 954.985 310.726 955.515 310.976C957.842 311.879 960.113 312.92 962.315 314.095" fill="black"/>
</g>
<path d="M962.811 303.451C963.712 303.349 970.835 308.168 968.03 316.388C965.225 324.607 958.493 320.502 955.28 318.088C952.067 315.674 951.472 309.86 954.379 306.851C957.286 303.842 962.811 303.451 962.811 303.451Z" fill="#263238"/>
<g opacity="0.3">
<path d="M922.655 341.396C923.286 340.013 924.331 338.86 925.647 338.098C929.952 335.242 935.124 333.991 940.258 334.562L959.154 344.762C959.154 346.581 957.59 348.162 955.822 348.57C954.019 348.904 952.158 348.706 950.467 348C948.784 347.299 947.044 346.747 945.265 346.351C942.188 345.875 939.111 346.887 936.127 347.771C933.144 348.655 929.939 349.42 926.973 348.493C924.006 347.567 921.567 344.303 922.655 341.396Z" fill="black"/>
</g>
<path d="M956.691 327.03C957.192 327.634 962.309 330.609 962.709 336.559C963.142 343.019 959.895 347.796 955.484 346.495C951.072 345.195 944.799 339.041 938.076 339.967C931.352 340.894 923.702 346.767 920.693 344.285C917.684 341.803 916.273 339.772 916.443 335.156C916.613 330.541 918.449 327.727 927.986 322.712C933.936 319.576 932.823 315.13 938.042 314.527C943.261 313.923 943.235 317.34 946.542 321.284C949.848 325.228 956.691 327.03 956.691 327.03Z" fill="#263238"/>
<path d="M963.83 303.053C964.459 301.089 963.694 298.08 962.487 296.074C962.418 295.958 962.318 295.863 962.198 295.8C962.079 295.737 961.944 295.708 961.809 295.716C961.675 295.724 961.544 295.768 961.433 295.845C961.322 295.922 961.234 296.027 961.178 296.151C960.24 298.382 959.889 300.817 960.158 303.223" fill="#E0E0E0"/>
<path d="M960.179 303.222C959.952 302.456 959.874 301.654 959.95 300.859C959.983 300.001 960.094 299.147 960.281 298.309C960.392 297.833 960.528 297.34 960.698 296.83C960.791 296.584 960.893 296.329 961.004 296.074C961.077 295.909 961.196 295.768 961.346 295.669C961.497 295.569 961.673 295.515 961.854 295.513C962.028 295.516 962.198 295.565 962.347 295.654C962.496 295.744 962.619 295.871 962.704 296.023C962.84 296.261 962.967 296.507 963.086 296.745C963.312 297.207 963.505 297.684 963.664 298.173C963.94 298.999 964.114 299.855 964.183 300.723C964.299 301.525 964.178 302.344 963.834 303.078C963.922 302.304 963.922 301.523 963.834 300.749C963.727 299.917 963.53 299.099 963.248 298.309C963.08 297.842 962.884 297.385 962.661 296.941C962.551 296.711 962.423 296.482 962.287 296.252C962.246 296.162 962.179 296.086 962.094 296.034C962.009 295.982 961.91 295.958 961.811 295.963C961.714 295.963 961.619 295.991 961.538 296.044C961.456 296.097 961.392 296.172 961.352 296.261C961.242 296.499 961.148 296.737 961.055 296.983C960.889 297.449 960.747 297.923 960.63 298.403C960.429 299.224 960.29 300.059 960.213 300.902C960.103 302.321 960.23 303.214 960.179 303.222Z" fill="#263238"/>
<path d="M961.697 296.278C962.272 297.239 962.615 298.321 962.699 299.438C962.783 300.555 962.606 301.676 962.181 302.713C962.054 302.713 962.402 301.242 962.258 299.474C962.113 297.706 961.578 296.329 961.697 296.278Z" fill="#263238"/>
<path d="M947.373 285.203C947.994 283.239 947.237 280.23 946.022 278.224C945.952 278.108 945.852 278.013 945.733 277.95C945.613 277.887 945.479 277.858 945.344 277.866C945.209 277.873 945.079 277.918 944.968 277.995C944.856 278.071 944.768 278.177 944.713 278.301C943.774 280.532 943.425 282.967 943.701 285.372" fill="#E0E0E0"/>
<path d="M943.701 285.372C943.464 284.608 943.385 283.804 943.471 283.009C943.505 282.151 943.613 281.298 943.794 280.459C943.907 279.958 944.049 279.464 944.219 278.98C944.304 278.725 944.406 278.47 944.517 278.215C944.594 278.058 944.712 277.924 944.859 277.829C945.006 277.734 945.176 277.681 945.351 277.676C945.526 277.67 945.7 277.713 945.852 277.799C946.005 277.885 946.131 278.011 946.217 278.164C946.361 278.41 946.489 278.648 946.608 278.886C946.827 279.351 947.02 279.828 947.186 280.314C947.46 281.14 947.631 281.997 947.696 282.864C947.812 283.666 947.694 284.483 947.356 285.219C947.435 284.445 947.435 283.664 947.356 282.89C947.253 282.057 947.056 281.239 946.769 280.45C946.604 279.983 946.411 279.526 946.191 279.082C946.072 278.852 945.945 278.623 945.817 278.393C945.771 278.305 945.702 278.231 945.616 278.18C945.531 278.129 945.432 278.103 945.333 278.104C945.236 278.106 945.142 278.135 945.061 278.188C944.98 278.24 944.915 278.314 944.874 278.402C944.772 278.64 944.67 278.886 944.585 279.124C944.416 279.593 944.271 280.069 944.151 280.552C943.95 281.371 943.811 282.204 943.735 283.043C943.65 284.471 943.769 285.363 943.701 285.372Z" fill="#263238"/>
<path d="M945.254 278.428C945.825 279.391 946.165 280.473 946.248 281.59C946.331 282.706 946.153 283.826 945.73 284.863C945.602 284.863 945.951 283.401 945.806 281.624C945.662 279.848 945.126 278.479 945.254 278.428Z" fill="#263238"/>
<path d="M937.229 284.538C937.858 282.575 937.093 279.574 935.886 277.56C935.816 277.444 935.716 277.349 935.597 277.286C935.477 277.223 935.343 277.194 935.208 277.201C935.073 277.209 934.943 277.254 934.831 277.331C934.72 277.407 934.632 277.513 934.577 277.636C933.639 279.871 933.288 282.308 933.557 284.717" fill="#E0E0E0"/>
<path d="M933.538 284.718C933.312 283.949 933.235 283.144 933.308 282.346C933.341 281.488 933.452 280.635 933.64 279.796C933.75 279.32 933.886 278.819 934.056 278.317C934.15 278.062 934.252 277.816 934.362 277.552C934.437 277.389 934.556 277.25 934.707 277.152C934.857 277.055 935.033 277.002 935.212 277C935.386 277.002 935.557 277.05 935.707 277.139C935.856 277.229 935.979 277.357 936.062 277.51C936.198 277.748 936.326 277.986 936.445 278.232C937.05 279.477 937.422 280.823 937.541 282.202C937.666 283.004 937.545 283.825 937.193 284.556C937.281 283.786 937.281 283.007 937.193 282.236C937.086 281.401 936.89 280.58 936.606 279.788C936.439 279.321 936.246 278.864 936.028 278.419C935.909 278.187 935.782 277.958 935.646 277.731C935.603 277.642 935.535 277.567 935.451 277.516C935.366 277.464 935.268 277.439 935.17 277.442C935.073 277.442 934.977 277.47 934.896 277.523C934.815 277.575 934.75 277.651 934.711 277.739C934.609 277.977 934.507 278.224 934.413 278.462C934.248 278.931 934.106 279.407 933.988 279.89C933.787 280.711 933.648 281.547 933.572 282.389C933.487 283.791 933.614 284.709 933.538 284.718Z" fill="#263238"/>
<path d="M935.087 277.773C935.663 278.733 936.007 279.813 936.091 280.929C936.175 282.045 935.997 283.165 935.572 284.199C935.444 284.199 935.793 282.737 935.648 280.961C935.504 279.184 934.968 277.841 935.087 277.773Z" fill="#263238"/>
<path d="M920.229 302.492C920.858 300.529 920.093 297.52 918.877 295.514C918.809 295.398 918.71 295.302 918.591 295.239C918.472 295.175 918.338 295.146 918.203 295.154C918.069 295.162 917.939 295.207 917.828 295.284C917.718 295.361 917.631 295.467 917.577 295.59C916.639 297.822 916.288 300.257 916.557 302.662" fill="#E0E0E0"/>
<path d="M916.513 302.687C916.276 301.923 916.198 301.119 916.284 300.324C916.316 299.465 916.427 298.612 916.615 297.774C916.722 297.272 916.861 296.778 917.032 296.295C917.125 296.04 917.219 295.785 917.338 295.53C917.413 295.37 917.531 295.235 917.679 295.139C917.827 295.042 917.998 294.989 918.175 294.985C918.351 294.98 918.525 295.025 918.677 295.114C918.83 295.202 918.955 295.332 919.038 295.487C919.182 295.725 919.31 295.963 919.429 296.201C919.65 296.665 919.843 297.142 920.007 297.629C920.285 298.454 920.456 299.311 920.517 300.179C920.646 300.961 920.545 301.764 920.228 302.491C920.31 301.72 920.31 300.942 920.228 300.171C920.122 299.336 919.925 298.515 919.641 297.723C919.473 297.255 919.277 296.798 919.055 296.354C918.944 296.125 918.817 295.895 918.681 295.666C918.637 295.577 918.569 295.503 918.485 295.452C918.401 295.401 918.303 295.374 918.205 295.377C918.107 295.375 918.012 295.403 917.93 295.456C917.849 295.509 917.784 295.585 917.746 295.674C917.635 295.912 917.533 296.159 917.448 296.397C917.278 296.864 917.136 297.34 917.023 297.825C916.818 298.642 916.679 299.475 916.607 300.315C916.462 301.786 916.581 302.678 916.513 302.687Z" fill="#263238"/>
<path d="M918.058 295.752C918.628 296.714 918.968 297.794 919.052 298.909C919.136 300.023 918.962 301.142 918.543 302.178C918.415 302.178 918.755 300.716 918.619 298.94C918.483 297.163 917.931 295.803 918.058 295.752Z" fill="#263238"/>
<path d="M947.018 400.439C949.237 399.665 951.744 398.62 952.45 396.376C952.644 395.52 952.629 394.631 952.405 393.783C952.182 392.935 951.757 392.153 951.166 391.505C948.616 388.377 944.052 387.357 940.116 388.266C938.087 388.684 936.227 389.693 934.77 391.165C934.044 391.906 933.494 392.802 933.161 393.785C932.829 394.768 932.722 395.813 932.849 396.843C932.921 397.589 933.197 398.301 933.647 398.9C934.097 399.5 934.703 399.964 935.399 400.243C936.614 400.625 937.949 400.243 939.181 399.988C941.411 399.595 943.705 399.804 945.828 400.591" fill="#263238"/>
<path d="M928.031 369.293C928.135 369.242 928.243 369.203 928.354 369.174L929.315 368.859C930.165 368.579 931.372 368.162 932.885 367.525C937.032 365.767 940.869 363.353 944.249 360.376L945.099 359.628L944.547 360.614L940.943 367.185C940.797 367.445 940.716 367.737 940.705 368.035C940.696 368.155 940.732 368.274 940.806 368.37C940.88 368.466 940.986 368.531 941.104 368.553C941.741 368.495 942.352 368.275 942.881 367.916C944.12 367.278 945.291 366.515 946.374 365.638C947.609 364.633 948.727 363.493 949.706 362.238L950.556 361.099L950.046 362.45C949.332 364.34 948.822 366.3 948.525 368.298C948.385 369.242 948.294 370.193 948.253 371.146C948.164 372.036 948.201 372.935 948.363 373.815C948.441 374.207 948.655 374.559 948.967 374.809C949.121 374.912 949.298 374.974 949.482 374.991C949.666 375.007 949.851 374.977 950.021 374.903C950.706 374.512 951.307 373.989 951.789 373.364C952.843 372.2 953.778 371.078 954.585 370.032C955.86 368.379 957.038 366.654 958.113 364.864L958.963 363.402C959.049 363.229 959.151 363.064 959.269 362.909C959.208 363.095 959.128 363.275 959.031 363.445C958.861 363.793 958.597 364.295 958.24 364.941C957.224 366.768 956.089 368.526 954.84 370.202C954.041 371.273 953.14 372.412 952.061 373.602C951.553 374.277 950.91 374.839 950.174 375.251C949.948 375.35 949.702 375.39 949.457 375.369C949.213 375.349 948.977 375.267 948.771 375.132C948.386 374.833 948.116 374.409 948.006 373.934C947.827 373.013 947.778 372.072 947.862 371.137C947.862 370.185 947.989 369.225 948.125 368.247C948.422 366.215 948.935 364.221 949.655 362.297L950.029 362.51C949.033 363.791 947.892 364.951 946.629 365.969C945.522 366.866 944.326 367.647 943.059 368.298C942.745 368.468 942.43 368.613 942.116 368.757C941.775 368.942 941.387 369.019 941.002 368.978C940.788 368.933 940.595 368.816 940.458 368.646C940.32 368.475 940.245 368.263 940.246 368.043C940.261 367.673 940.357 367.31 940.526 366.981L944.181 360.419L944.487 360.657C941.075 363.645 937.184 366.039 932.978 367.737C931.797 368.215 930.591 368.629 929.366 368.978C928.941 369.097 928.609 369.174 928.38 369.233C928.15 369.293 928.04 369.31 928.031 369.293Z" fill="#263238"/>
<defs>
<linearGradient id="paint0_linear_890_6348" x1="338" y1="127.5" x2="1093.5" y2="593" gradientUnits="userSpaceOnUse">
<stop stop-color="#F39200"/>
<stop offset="1" stop-color="#D58713"/>
</linearGradient>
</defs>
</svg>
