<svg width="147" height="148" viewBox="0 0 147 148" fill="none" xmlns="http://www.w3.org/2000/svg">
<g opacity="0.7">
<path d="M145.508 63.1637C144.621 61.3681 143.414 59.7493 141.946 58.3867C141.946 58.3867 141.283 50.6517 138.223 46.0872C135.163 41.5227 130.573 37.8337 125.065 41.3187L125.805 40.8937C123.025 38.7602 118.554 38.5307 115.248 39.7122C113.597 40.2729 112.066 41.1378 110.734 42.2622C108.246 44.426 106.1 46.9536 104.368 49.7592C104.368 49.7592 98.9786 50.0992 96.8451 58.6077C95.6576 63.8999 94.7497 69.251 94.1251 74.6387C94.1251 74.6387 94.7626 90.2362 95.6891 94.9367C96.6156 99.6372 93.5811 109.565 93.4111 111.563C93.2411 113.56 92.2976 115.073 90.9631 122.927C89.6286 130.781 87.2656 147.501 87.2656 147.501H135.223C135.223 147.501 136.421 125.766 136.302 123.386C136.374 117.672 137 111.979 138.172 106.386C139.498 100.887 144.632 83.5467 144.632 83.5467C146.511 75.4207 147.063 66.2322 145.508 63.1637Z" fill="#455A64"/>
<g opacity="0.3">
<path d="M108.222 59.722L102.144 59.416C100.098 61.0154 98.5697 63.1826 97.7496 65.6465C97.554 66.0972 97.4531 66.5832 97.4531 67.0745C97.4531 67.5658 97.554 68.0518 97.7496 68.5025C98.3701 69.6075 99.8321 69.8795 101.099 69.922C103.03 70.0417 104.962 69.6978 106.734 68.919C107.614 68.5215 108.395 67.9343 109.021 67.1995C109.647 66.4647 110.102 65.6006 110.355 64.669C110.579 63.7246 110.492 62.7334 110.107 61.8423C109.723 60.9512 109.062 60.2076 108.222 59.722Z" fill="black"/>
</g>
<g opacity="0.3">
<path d="M136.753 54.4442L134.628 52.7442L127.326 51.7157C126.748 51.5834 126.145 51.6009 125.575 51.7667C125.235 51.933 124.935 52.1712 124.696 52.4647C124.457 52.7582 124.284 53.1 124.19 53.4667C123.889 54.4555 123.865 55.5079 124.122 56.5092C124.378 57.5104 124.904 58.4221 125.643 59.1447C126.4 59.8489 127.297 60.3861 128.275 60.7215C129.253 61.0568 130.291 61.1828 131.321 61.0912C132.993 61.0034 134.571 60.2904 135.741 59.0937C136.319 58.4857 136.72 57.7305 136.898 56.9106C137.076 56.0907 137.026 55.2375 136.753 54.4442Z" fill="black"/>
</g>
<path d="M130.857 42.9506C131.847 42.832 132.848 43.0538 133.696 43.5796C135.251 44.5146 137.895 46.4951 137.835 49.2066C137.759 53.0401 137.648 57.5196 133.092 58.5566C128.536 59.5936 122.892 56.4231 125.357 49.8781C127.278 44.7781 128.919 43.2141 130.857 42.9506Z" fill="#263238"/>
<g opacity="0.3">
<path d="M121.008 51.6036L117.872 47.8381C116.852 47.6025 115.807 47.4884 114.761 47.4981C113.706 47.5108 112.69 47.8996 111.896 48.5946C111.098 49.4347 110.648 50.5467 110.638 51.7056C110.568 52.8175 110.778 53.9291 111.249 54.9389C111.72 55.9486 112.436 56.8242 113.333 57.4856C114.248 58.1212 115.335 58.4654 116.45 58.4729C117.565 58.4805 118.656 58.1512 119.58 57.5281C120.473 56.8635 121.106 55.9068 121.366 54.8244C121.627 53.7419 121.501 52.6022 121.008 51.6036Z" fill="black"/>
</g>
<path d="M118.773 40.9447C119.547 40.6065 120.405 40.5068 121.236 40.6582C122.067 40.8096 122.834 41.2052 123.44 41.7947C123.624 41.9651 123.764 42.1782 123.848 42.4152C124.094 43.3587 123.499 50.7112 119.666 54.4767C115.832 58.2422 110.741 53.5332 111.166 49.6742C111.472 46.5207 115.11 42.4917 118.773 40.9447Z" fill="#263238"/>
<path d="M105.723 52.981C105.723 52.981 103.173 50.3631 100.623 55.0126C98.073 59.6621 97.223 66.547 99.9005 67.006C102.578 67.465 108.732 65.9691 108.97 62.2376C109.208 58.5061 107.227 53.8055 105.723 52.981Z" fill="#263238"/>
<g opacity="0.3">
<path d="M139.654 68.1112C138.061 66.8774 136.395 65.742 134.664 64.7112C134.272 64.4325 133.816 64.2571 133.338 64.2012C132.276 64.2012 131.528 65.2467 131.205 66.2497C130.879 67.2269 130.762 68.262 130.863 69.2872C130.965 70.3125 131.281 71.3049 131.791 72.1997C132.319 73.0961 133.062 73.8473 133.952 74.3859C134.842 74.9244 135.852 75.2334 136.891 75.2852C137.931 75.3264 138.962 75.073 139.864 74.5541C140.766 74.0353 141.504 73.2722 141.991 72.3527L139.654 68.1112Z" fill="black"/>
</g>
<path d="M145.074 66.461C145.086 65.2628 144.772 64.084 144.164 63.0509C143.557 62.0178 142.681 61.1693 141.628 60.5963C140.576 60.0234 139.387 59.7476 138.19 59.7984C136.993 59.8493 135.832 60.2249 134.832 60.885C134.653 61.0125 134.475 61.1485 134.305 61.293C131.755 63.52 131.287 67.991 133.506 70.3285C135.724 72.666 140.51 76.8395 143.85 70.694C144.584 69.3984 145.004 67.9484 145.074 66.461Z" fill="#263238"/>
<g opacity="0.3">
<path d="M119.378 81.3641C115.38 80.219 111.107 80.5199 107.308 82.2141C106.164 82.6409 105.179 83.4095 104.486 84.4155C103.237 86.583 104.724 89.5155 106.951 90.646C109.178 91.7765 111.83 91.6065 114.312 91.309C116.794 91.0115 119.412 90.629 121.75 91.4195C123.111 91.9685 124.42 92.64 125.66 93.4256C126.906 94.2092 128.353 94.6165 129.825 94.5985C130.556 94.5704 131.259 94.3071 131.829 93.8476C132.398 93.3882 132.805 92.7573 132.987 92.0485L119.378 81.3641Z" fill="black"/>
</g>
<path d="M135.989 81.1236C135.045 79.2897 133.59 77.7691 131.799 76.7461C130.099 75.7516 127.498 73.9666 126.155 71.6461C124.064 68.0761 124.54 65.3731 120.324 65.1436C116.108 64.9141 116.388 68.5946 111.237 70.2861C103.001 72.9806 101.199 74.9696 100.408 78.5991C99.6176 82.2286 100.476 84.0136 102.525 86.4106C104.573 88.8076 111.416 85.1356 116.898 85.3311C122.381 85.5266 126.52 91.2216 129.844 92.8451C133.167 94.4686 136.389 91.1451 136.916 85.9431C137.066 84.2814 136.745 82.611 135.989 81.1236Z" fill="#263238"/>
<path d="M115.859 134.539C117.729 134.224 119.854 133.689 120.713 132.048C120.987 131.397 121.098 130.689 121.035 129.985C120.973 129.281 120.74 128.603 120.356 128.011C118.741 125.18 115.256 123.761 112.017 123.948C110.352 124.009 108.741 124.559 107.385 125.529C106.711 126.021 106.157 126.659 105.763 127.395C105.368 128.13 105.144 128.945 105.107 129.779C105.073 130.381 105.204 130.98 105.485 131.514C105.767 132.047 106.188 132.493 106.705 132.805C107.679 133.138 108.718 133.243 109.739 133.111C111.562 133.095 113.355 133.567 114.933 134.479" fill="#263238"/>
<path d="M105 107.278C105.351 107.186 105.709 107.123 106.071 107.091C106.777 106.98 107.771 106.802 109.08 106.496C112.602 105.659 115.967 104.258 119.042 102.348L120.003 101.753L119.297 102.603L115.557 107.329C115.412 107.514 115.31 107.729 115.26 107.958C115.241 108.042 115.253 108.13 115.294 108.207C115.334 108.283 115.4 108.342 115.481 108.374C115.985 108.409 116.49 108.318 116.951 108.111C119.233 107.372 121.331 106.155 123.105 104.541L124.176 103.563L123.445 104.813C122.624 106.213 121.957 107.698 121.456 109.241C121.216 109.967 121.015 110.705 120.853 111.451C120.663 112.144 120.571 112.859 120.581 113.576C120.587 113.89 120.704 114.191 120.912 114.426C121.016 114.524 121.143 114.594 121.281 114.63C121.419 114.665 121.564 114.665 121.703 114.63C122.294 114.417 122.837 114.087 123.301 113.661C124.295 112.879 125.188 112.123 125.97 111.4C127.204 110.26 128.373 109.051 129.472 107.779L130.322 106.751C130.417 106.624 130.525 106.507 130.645 106.402C130.574 106.542 130.489 106.673 130.39 106.793C130.211 107.048 129.939 107.422 129.54 107.881C128.487 109.196 127.351 110.443 126.14 111.613C125.358 112.352 124.44 113.134 123.479 113.933C122.989 114.398 122.411 114.759 121.779 114.996C121.581 115.043 121.374 115.041 121.177 114.989C120.979 114.937 120.798 114.837 120.649 114.698C120.372 114.404 120.21 114.022 120.19 113.619C120.175 112.86 120.264 112.102 120.453 111.366C120.615 110.627 120.81 109.87 121.056 109.105C121.564 107.533 122.239 106.02 123.071 104.592L123.403 104.864C122.437 105.744 121.377 106.514 120.241 107.159C119.238 107.72 118.181 108.178 117.087 108.527L116.237 108.765C115.932 108.86 115.607 108.86 115.302 108.765C115.135 108.7 114.995 108.581 114.904 108.427C114.813 108.273 114.777 108.093 114.801 107.915C114.853 107.605 114.981 107.313 115.175 107.065L118.957 102.348L119.212 102.637C116.094 104.549 112.674 105.918 109.097 106.683C108.092 106.899 107.076 107.061 106.054 107.167C105.697 107.21 105.425 107.218 105.247 107.235L105 107.278Z" fill="#263238"/>
</g>
<path d="M54.1724 24.7024C56.1639 26.0835 57.8913 27.8109 59.2724 29.8024C61.7119 33.2449 62.8934 44.6179 62.3069 54.9284C62.3069 54.9284 59.7569 77.2409 59.2724 84.2619C59.0069 91.3671 59.4082 98.4816 60.4709 105.512C61.0914 108.402 63.6074 147.4 63.6074 147.4H7.64339C7.64339 147.4 7.02289 124.288 7.03139 114.386C7.03989 104.483 7.88139 102.418 7.64339 99.9359C7.40539 97.4539 9.03739 84.6359 7.00589 79.1024C4.97439 73.5689 1.10689 54.5459 1.10689 54.5459C1.10689 54.5459 -1.38361 42.2209 1.10689 34.3414C3.59739 26.4619 4.97439 29.1734 4.97439 29.1734C4.97439 29.1734 9.97239 16.8144 14.2224 11.4509C15.5506 9.80485 17.177 8.4236 19.0164 7.37941C20.8242 6.33853 22.8714 5.78503 24.9574 5.77311C27.0434 5.76119 29.0968 6.29125 30.9164 7.3114C36.7049 1.8884 42.8164 5.46692 47.3469 10.4139C51.8774 15.3609 54.1724 24.7024 54.1724 24.7024Z" fill="#FFD088"/>
<g opacity="0.3">
<path d="M12.6841 33.3545C13.8084 33.7775 14.7675 34.5497 15.4208 35.5579C16.074 36.566 16.3869 37.757 16.3136 38.956C16.1988 40.1479 15.8214 41.2997 15.2085 42.3284C14.5957 43.3572 13.7626 44.2375 12.7691 44.906C10.7621 46.2343 8.4646 47.0595 6.07109 47.3115C4.50709 47.524 2.67109 47.4985 1.66809 46.2745C1.33496 45.7624 1.11161 45.1868 1.01213 44.584C0.912642 43.9813 0.939187 43.3645 1.09009 42.7725C1.57749 39.5806 3.00027 36.6049 5.17859 34.2215" fill="black"/>
</g>
<g opacity="0.3">
<path d="M46.5243 20.953C47.0129 21.8629 47.245 22.8885 47.1956 23.9201C47.1462 24.9517 46.8172 25.9505 46.2438 26.8095C45.0567 28.5186 43.2691 29.7175 41.2373 30.167C39.996 30.4963 38.699 30.559 37.4317 30.351C36.1645 30.1429 34.9556 29.6689 33.8848 28.96C32.8251 28.2316 31.9873 27.2246 31.4639 26.0502C30.9404 24.8757 30.7516 23.5795 30.9183 22.3045C30.9656 21.845 31.1107 21.401 31.3438 21.0023C31.5769 20.6035 31.8926 20.2592 32.2698 19.9925C32.9325 19.6689 33.6668 19.5196 34.4033 19.559L43.5663 19.3125" fill="black"/>
</g>
<path d="M39.0557 7.78564C39.0557 7.78564 46.0767 9.59613 46.7822 14.3051C47.4877 19.0141 48.2867 24.5051 42.9147 26.7491C37.5427 28.9931 30.0202 26.2476 31.6267 17.7221C33.2332 9.19662 35.6387 7.88764 39.0557 7.78564Z" fill="#263238"/>
<g opacity="0.3">
<path d="M26.6652 20.7568C27.4709 21.8795 27.8608 23.2478 27.7677 24.6266C27.6746 26.0055 27.1045 27.309 26.1552 28.3133C25.1513 29.2631 23.8852 29.8893 22.5211 30.1106C21.1569 30.3319 19.7578 30.1381 18.5052 29.5543C17.269 28.9309 16.209 28.0075 15.422 26.8686C14.6349 25.7296 14.1461 24.4115 14.0002 23.0348C13.775 21.6137 14.0937 20.1599 14.8927 18.9633C15.7111 17.9383 16.8686 17.239 18.1567 16.9913C19.4351 16.7618 20.7361 16.6848 22.0327 16.7618" fill="black"/>
</g>
<path d="M24.6064 6.88379C24.6064 6.88379 27.7174 7.7848 28.2189 8.8898C28.7204 9.9948 29.5194 19.0898 25.6094 24.5383C21.6994 29.9868 14.4744 25.2438 14.1684 20.4328C13.8624 15.6218 19.3874 8.09079 24.6064 6.88379Z" fill="#263238"/>
<path d="M6.5725 25.0486C6.5725 25.0486 4.5665 22.9406 2.4585 29.1541C0.350503 35.3676 0.622503 44.0036 4.0225 44.0036C7.4225 44.0036 14.639 40.9011 14.146 36.2856C13.653 31.6701 8.553 25.7456 6.5725 25.0486Z" fill="#263238"/>
<g opacity="0.3">
<path d="M56.6148 41.8551C56.2113 43.0759 55.4731 44.159 54.4843 44.981C53.4955 45.803 52.2959 46.3308 51.0218 46.5046C49.7449 46.6469 48.4526 46.4724 47.2592 45.9965C46.0658 45.5206 45.008 44.758 44.1793 43.7761C43.3662 42.7838 42.7711 41.6314 42.4328 40.3939C42.0945 39.1564 42.0206 37.8615 42.2158 36.5936C42.4113 35.2846 43.0658 33.8141 44.4088 33.6356C44.9947 33.6089 45.5783 33.7256 46.1088 33.9756C48.4357 34.8788 50.7064 35.9205 52.9088 37.0951" fill="black"/>
</g>
<path d="M53.4043 26.4508C54.3053 26.3488 61.4283 31.1683 58.6233 39.3878C55.8183 47.6073 49.0863 43.5018 45.8733 41.0878C42.6603 38.6738 42.0653 32.8598 44.9723 29.8508C47.8793 26.8418 53.4043 26.4508 53.4043 26.4508Z" fill="#263238"/>
<g opacity="0.3">
<path d="M13.2483 64.3957C13.8793 63.0126 14.925 61.86 16.2403 61.0977C20.5456 58.2424 25.7174 56.9909 30.8518 57.5617L49.7473 67.7617C49.7473 69.5807 48.1833 71.1617 46.4153 71.5697C44.6129 71.9036 42.7522 71.7058 41.0603 71.0002C39.3781 70.2989 37.6373 69.7471 35.8583 69.3512C32.7813 68.8752 29.7043 69.8867 26.7208 70.7707C23.7373 71.6547 20.5328 72.4197 17.5663 71.4932C14.5998 70.5667 12.1603 67.3027 13.2483 64.3957Z" fill="black"/>
</g>
<path d="M47.2846 50.03C47.7861 50.6335 52.9031 53.6085 53.3026 59.5585C53.7361 66.0185 50.4891 70.7955 46.0776 69.495C41.6661 68.1945 35.3931 62.0405 28.6696 62.967C21.9461 63.8935 14.2961 69.767 11.2871 67.285C8.27814 64.803 6.86714 62.7715 7.03714 58.156C7.20714 53.5405 9.04314 50.727 18.5801 45.712C24.5301 42.5755 23.4166 38.13 28.6356 37.5265C33.8546 36.923 33.8291 40.34 37.1356 44.284C40.4421 48.228 47.2846 50.03 47.2846 50.03Z" fill="#263238"/>
<path d="M54.4239 26.0526C55.0529 24.0891 54.2879 21.0801 53.0809 19.0741C53.0115 18.9581 52.9116 18.8634 52.7921 18.8002C52.6727 18.737 52.5381 18.7077 52.4032 18.7156C52.2683 18.7235 52.1381 18.7682 52.0268 18.8449C51.9155 18.9216 51.8273 19.0273 51.7719 19.1506C50.8341 21.3823 50.483 23.8168 50.7519 26.2226" fill="#E0E0E0"/>
<path d="M50.7729 26.2222C50.5461 25.4564 50.4682 24.6543 50.5434 23.8592C50.5769 23.0009 50.6878 22.1475 50.8749 21.3092C50.9854 20.8332 51.1214 20.3402 51.2914 19.8302C51.3849 19.5837 51.4869 19.3287 51.5974 19.0737C51.6706 18.9087 51.7895 18.7681 51.9402 18.6686C52.0909 18.5692 52.2669 18.5151 52.4474 18.5127C52.6213 18.5159 52.7913 18.5648 52.9405 18.6542C53.0896 18.7437 53.2127 18.8708 53.2974 19.0227C53.4334 19.2607 53.5609 19.5072 53.6799 19.7452C53.9059 20.207 54.0991 20.6842 54.2579 21.1732C54.534 21.9989 54.7081 22.8552 54.7764 23.7232C54.8932 24.5252 54.7721 25.3439 54.4279 26.0777C54.5161 25.3039 54.5161 24.5225 54.4279 23.7487C54.3206 22.9168 54.124 22.0989 53.8414 21.3092C53.6733 20.8418 53.4774 20.3848 53.2549 19.9407C53.1444 19.7112 53.0169 19.4817 52.8809 19.2522C52.8399 19.1617 52.7726 19.0856 52.6876 19.034C52.6027 18.9825 52.5041 18.9578 52.4049 18.9632C52.3078 18.963 52.2128 18.991 52.1313 19.0438C52.0498 19.0967 51.9854 19.172 51.9459 19.2607C51.8354 19.4987 51.7419 19.7367 51.6484 19.9832C51.483 20.4489 51.3412 20.9227 51.2234 21.4027C51.0226 22.2242 50.8834 23.0595 50.8069 23.9017C50.6964 25.3212 50.8239 26.2137 50.7729 26.2222Z" fill="#263238"/>
<path d="M52.2906 19.2783C52.8657 20.2395 53.2089 21.3214 53.293 22.4383C53.3771 23.5552 53.1998 24.6764 52.7751 25.7128C52.6476 25.7128 52.996 24.2423 52.8515 22.4743C52.707 20.7063 52.1716 19.3293 52.2906 19.2783Z" fill="#263238"/>
<path d="M37.9669 8.2025C38.5874 6.239 37.8309 3.23001 36.6154 1.22401C36.546 1.10803 36.4461 1.01328 36.3266 0.950082C36.2072 0.886881 36.0727 0.857632 35.9377 0.865518C35.8028 0.873403 35.6726 0.918114 35.5613 0.994802C35.45 1.07149 35.3618 1.17723 35.3064 1.3005C34.3674 3.53184 34.0191 5.9674 34.2949 8.37248" fill="#E0E0E0"/>
<path d="M34.2946 8.37192C34.0573 7.60823 33.9792 6.804 34.0651 6.00892C34.0985 5.15116 34.2066 4.29793 34.3881 3.45893C34.5005 2.95798 34.6424 2.46412 34.8131 1.97993C34.8981 1.72493 35.0001 1.46994 35.1106 1.21494C35.1873 1.05751 35.3056 0.924069 35.4527 0.82903C35.5998 0.733991 35.7701 0.680977 35.9452 0.675725C36.1202 0.670474 36.2934 0.713175 36.4459 0.799225C36.5984 0.885275 36.7245 1.0114 36.8106 1.16394C36.9551 1.41044 37.0826 1.64845 37.2016 1.88645C37.4204 2.35145 37.6133 2.82817 37.7796 3.31444C38.0533 4.14037 38.2245 4.99678 38.2896 5.86444C38.4061 6.66564 38.288 7.48342 37.9496 8.21893C38.0291 7.44464 38.0291 6.66423 37.9496 5.88994C37.8464 5.05731 37.6496 4.23898 37.3631 3.45044C37.1979 2.98314 37.0049 2.52614 36.7851 2.08193C36.6661 1.85243 36.5386 1.62293 36.4111 1.39343C36.3652 1.30494 36.2956 1.23103 36.21 1.17997C36.1244 1.12891 36.0262 1.10275 35.9266 1.10443C35.8299 1.10632 35.7357 1.13516 35.6546 1.18773C35.5735 1.2403 35.5087 1.3145 35.4676 1.40194C35.3656 1.63994 35.2636 1.88644 35.1786 2.12444C35.0093 2.59256 34.8646 3.06921 34.7451 3.55244C34.5442 4.37103 34.405 5.20352 34.3286 6.04293C34.2436 7.47093 34.3626 8.36342 34.2946 8.37192Z" fill="#263238"/>
<path d="M35.8476 1.42822C36.4189 2.39099 36.7592 3.47308 36.8417 4.58952C36.9243 5.70597 36.747 6.82638 36.3236 7.86273C36.1961 7.86273 36.5446 6.40073 36.4001 4.62423C36.2556 2.84773 35.7201 1.47922 35.8476 1.42822Z" fill="#263238"/>
<path d="M27.8223 7.53844C28.4513 5.57494 27.6863 2.57444 26.4793 0.559945C26.4099 0.443965 26.31 0.34922 26.1905 0.286019C26.0711 0.222818 25.9366 0.193569 25.8016 0.201455C25.6667 0.209341 25.5365 0.254052 25.4252 0.33074C25.3139 0.407428 25.2257 0.513166 25.1703 0.636442C24.2325 2.87113 23.8814 5.30841 24.1503 7.71693" fill="#E0E0E0"/>
<path d="M24.1314 7.71799C23.9061 6.94901 23.8283 6.14438 23.9019 5.34648C23.9349 4.48819 24.0458 3.63468 24.2334 2.79648C24.3439 2.32048 24.4799 1.81899 24.6499 1.31749C24.7434 1.06249 24.8454 0.815995 24.9559 0.552495C25.0303 0.389058 25.1498 0.25024 25.3004 0.152371C25.451 0.0545024 25.6263 0.00165333 25.8059 0C25.9802 0.00151162 26.1509 0.0495749 26.3003 0.139246C26.4498 0.228916 26.5725 0.356912 26.6559 0.509979C26.7919 0.747979 26.9194 0.985984 27.0384 1.23248C27.644 2.47729 28.0157 3.82282 28.1349 5.202C28.2601 6.00401 28.1386 6.82513 27.7864 7.55649C27.8747 6.78551 27.8747 6.00698 27.7864 5.236C27.6802 4.40116 27.4835 3.58033 27.1999 2.788C27.0332 2.32129 26.8402 1.86438 26.6219 1.41949C26.5029 1.18715 26.3754 0.957654 26.2394 0.730988C26.1966 0.641862 26.1288 0.567099 26.0443 0.51579C25.9598 0.464481 25.8622 0.438841 25.7634 0.441991C25.6663 0.441823 25.5712 0.469854 25.4898 0.522664C25.4083 0.575474 25.3439 0.650796 25.3044 0.739496C25.2024 0.977496 25.1004 1.224 25.0069 1.462C24.8415 1.9306 24.6996 2.40719 24.5819 2.88999C24.3811 3.71148 24.2419 4.5468 24.1654 5.389C24.0804 6.7915 24.2079 7.70949 24.1314 7.71799Z" fill="#263238"/>
<path d="M25.6812 0.773438C26.2568 1.7328 26.6004 2.81337 26.6846 3.92903C26.7687 5.04469 26.591 6.1646 26.1657 7.19944C26.0382 7.19944 26.3867 5.73744 26.2422 3.96094C26.0977 2.18444 25.5622 0.841437 25.6812 0.773438Z" fill="#263238"/>
<path d="M10.8223 25.4924C11.4513 23.5289 10.6863 20.5199 9.47083 18.5139C9.40268 18.3976 9.30369 18.3023 9.18479 18.2387C9.0659 18.1752 8.93173 18.1457 8.79713 18.1536C8.66254 18.1615 8.53275 18.2065 8.42213 18.2836C8.31151 18.3607 8.22436 18.4669 8.17033 18.5904C7.23253 20.8221 6.88139 23.2567 7.15033 25.6624" fill="#E0E0E0"/>
<path d="M7.10706 25.6866C6.8698 24.9229 6.79169 24.1187 6.87756 23.3236C6.91003 22.4652 7.02099 21.6117 7.20906 20.7736C7.31561 20.2721 7.45474 19.778 7.62556 19.2946C7.71906 19.0396 7.81256 18.7846 7.93156 18.5296C8.00691 18.3701 8.12506 18.2348 8.27283 18.1386C8.42061 18.0424 8.59219 17.9891 8.76847 17.9847C8.94475 17.9803 9.11879 18.0249 9.27118 18.1136C9.42358 18.2023 9.54834 18.3316 9.63156 18.4871C9.77606 18.7251 9.90356 18.9631 10.0226 19.2011C10.2435 19.6651 10.4365 20.142 10.6006 20.6291C10.8787 21.4538 11.0501 22.3108 11.1106 23.1791C11.2395 23.9615 11.1392 24.7645 10.8216 25.4911C10.9042 24.7198 10.9042 23.9419 10.8216 23.1706C10.7154 22.3357 10.5187 21.5149 10.2351 20.7226C10.0669 20.2552 9.87109 19.7982 9.64856 19.3541C9.53806 19.1246 9.41056 18.8951 9.27456 18.6656C9.23093 18.5771 9.16296 18.5029 9.07865 18.4517C8.99434 18.4006 8.89717 18.3745 8.79856 18.3766C8.70123 18.3753 8.6057 18.4029 8.52402 18.4558C8.44234 18.5088 8.37816 18.5847 8.33956 18.6741C8.22906 18.9121 8.12706 19.1586 8.04206 19.3966C7.87161 19.8635 7.72968 20.3404 7.61706 20.8246C7.41205 21.6423 7.27277 22.4751 7.20056 23.3151C7.05606 24.7856 7.17506 25.6781 7.10706 25.6866Z" fill="#263238"/>
<path d="M8.65177 18.7524C9.22183 19.7139 9.56215 20.7941 9.64619 21.9087C9.73023 23.0234 9.55572 24.1423 9.13627 25.1784C9.00877 25.1784 9.34877 23.7164 9.21277 21.9399C9.07677 20.1634 8.52427 18.8034 8.65177 18.7524Z" fill="#263238"/>
<path d="M37.6118 123.439C39.8303 122.665 42.3378 121.62 43.0433 119.376C43.2378 118.52 43.2227 117.631 42.9992 116.783C42.7757 115.935 42.3505 115.153 41.7598 114.505C39.2098 111.377 34.6453 110.357 30.7098 111.266C28.6808 111.684 26.8207 112.693 25.3633 114.165C24.6373 114.906 24.0877 115.802 23.7551 116.785C23.4226 117.768 23.3156 118.813 23.4423 119.843C23.5148 120.589 23.7911 121.301 24.2408 121.9C24.6905 122.5 25.2964 122.964 25.9923 123.243C27.2078 123.625 28.5423 123.243 29.7748 122.988C32.0047 122.595 34.299 122.804 36.4218 123.591" fill="#263238"/>
<path d="M18.625 92.2929C18.7284 92.2424 18.8366 92.2026 18.948 92.1739L19.9085 91.8594C20.7585 91.5789 21.9655 91.1624 23.4785 90.5249C27.6253 88.7665 31.4624 86.3529 34.843 83.3764L35.693 82.6284L35.1405 83.6144L31.5365 90.1849C31.3911 90.4454 31.3095 90.7367 31.2985 91.0349C31.2901 91.1552 31.3262 91.2745 31.3998 91.37C31.4734 91.4656 31.5795 91.5308 31.698 91.5534C32.3346 91.4948 32.9459 91.2755 33.4745 90.9159C34.714 90.2783 35.8846 89.515 36.968 88.6379C38.2028 87.6333 39.3205 86.4928 40.3 85.2379L41.15 84.0989L40.64 85.4504C39.9254 87.3398 39.4153 89.3003 39.1185 91.2984C38.9786 92.2422 38.8878 93.1927 38.8465 94.1459C38.7577 95.0363 38.7949 95.9349 38.957 96.8149C39.035 97.2071 39.2486 97.5592 39.5605 97.8094C39.7143 97.9119 39.8914 97.9742 40.0756 97.9905C40.2597 98.0069 40.445 97.9767 40.6145 97.9029C41.3 97.5124 41.901 96.9894 42.3825 96.3644C43.4365 95.1999 44.3715 94.0779 45.179 93.0324C46.4537 91.3793 47.6315 89.6538 48.7065 87.8644L49.5565 86.4024C49.6427 86.2288 49.7452 86.0637 49.8625 85.9094C49.8014 86.0954 49.7216 86.2749 49.6245 86.4449C49.4545 86.7934 49.191 87.2949 48.834 87.9409C47.8182 89.768 46.6824 91.5257 45.434 93.2024C44.635 94.2734 43.734 95.4124 42.6545 96.6024C42.1469 97.2772 41.5042 97.8388 40.7675 98.2514C40.5422 98.3497 40.2961 98.3902 40.0512 98.3694C39.8063 98.3487 39.5705 98.2672 39.365 98.1324C38.9799 97.8326 38.7098 97.4094 38.6 96.9339C38.4204 96.0132 38.3718 95.0717 38.4555 94.1374C38.4555 93.1854 38.583 92.2249 38.719 91.2474C39.0161 89.2153 39.529 87.2207 40.249 85.2974L40.623 85.5099C39.6271 86.7905 38.4861 87.9514 37.223 88.9694C36.1162 89.8663 34.9199 90.6468 33.653 91.2984C33.3385 91.4684 33.024 91.6129 32.7095 91.7574C32.3691 91.9416 31.981 92.0186 31.596 91.9784C31.3816 91.9334 31.1892 91.8158 31.0514 91.6455C30.9136 91.4752 30.8387 91.2625 30.8395 91.0434C30.8547 90.6731 30.9504 90.3105 31.12 89.9809L34.775 83.4189L35.081 83.6569C31.6684 86.6451 27.7779 89.0387 23.572 90.7374C22.3908 91.215 21.1849 91.6293 19.9595 91.9784C19.5345 92.0974 19.203 92.1739 18.9735 92.2334C18.744 92.2929 18.6335 92.3099 18.625 92.2929Z" fill="#263238"/>
</svg>
