<svg width="341" height="192" viewBox="0 0 341 192" fill="none" xmlns="http://www.w3.org/2000/svg">
<g opacity="0.5">
<path d="M327.03 186.804C326.445 188.077 325.6 189.212 324.548 190.136C323.75 190.802 322.811 191.276 321.801 191.522C320.792 191.768 319.74 191.779 318.725 191.556C316.772 191.239 314.956 190.352 313.506 189.006C312.128 187.757 310.653 186.62 309.095 185.606C307.407 184.543 305.517 183.842 303.544 183.549C302.159 183.319 300.773 183.166 299.388 183.03C297.522 182.882 295.73 182.233 294.203 181.152C293.034 180.409 292.115 179.334 291.562 178.064C291.009 176.795 290.848 175.39 291.1 174.029C291.315 172.491 291.918 171.033 292.852 169.793C293.786 168.553 295.02 167.571 296.438 166.94C297.934 166.2 299.532 165.639 301.088 165.002C301.793 164.713 302.499 164.441 303.204 164.152C304.409 163.583 305.474 162.756 306.324 161.729C306.842 161.16 307.361 160.59 307.888 160.029C308.81 159.023 309.979 158.275 311.279 157.859C312.579 157.444 313.965 157.374 315.3 157.658C317.516 158.005 319.595 158.955 321.309 160.403C322.275 161.154 323.048 162.125 323.561 163.236C324.074 164.347 324.313 165.564 324.259 166.787C324.259 167.543 324.208 168.308 324.131 169.056C323.928 170.942 324.239 172.849 325.032 174.573C325.738 176.196 326.435 177.896 327.03 179.596C327.737 181.424 327.885 183.421 327.455 185.334C327.344 185.81 327.166 186.303 327.03 186.804Z" fill="#F5F5F5"/>
<path d="M319.826 151.885C319.198 153.431 318.045 154.707 316.57 155.489C315.938 155.824 315.244 156.024 314.53 156.075C313.726 156.127 312.92 156.002 312.17 155.708C311.419 155.414 310.742 154.959 310.187 154.375C309.484 153.702 308.941 152.88 308.597 151.97C307.144 147.847 307.926 144.43 311.003 141.77C311.511 141.366 312.087 141.056 312.703 140.852C313.769 140.519 314.911 140.521 315.975 140.859C317.039 141.196 317.974 141.853 318.653 142.739C319.656 143.948 320.279 145.427 320.446 146.989C320.686 148.647 320.472 150.339 319.826 151.885Z" fill="#F5F5F5"/>
<path d="M334.961 156.646C334.361 157.739 333.551 158.703 332.576 159.48C331.601 160.258 330.482 160.834 329.283 161.176C328.555 161.375 327.802 161.469 327.047 161.457C325.942 161.476 324.86 161.136 323.965 160.488C323.07 159.839 322.409 158.917 322.083 157.861C321.689 156.533 321.739 155.112 322.228 153.815C322.659 152.563 323.354 151.417 324.266 150.457C325.178 149.496 326.286 148.743 327.515 148.248C328.543 147.8 329.659 147.594 330.779 147.644C331.86 147.65 332.911 147.996 333.785 148.632C334.659 149.268 335.311 150.162 335.649 151.189C336.049 152.492 336.019 153.89 335.564 155.175C335.377 155.796 335.105 156.331 334.961 156.646Z" fill="#F5F5F5"/>
<path d="M293.748 151.714C294.184 150.631 294.889 149.677 295.796 148.943C298.074 147.192 301.126 147.651 303.149 150.065C304.365 151.495 305.074 153.289 305.163 155.165C305.296 156.291 305.183 157.433 304.832 158.511C304.481 159.589 303.901 160.579 303.132 161.412C302.78 161.774 302.383 162.088 301.95 162.347C300.972 162.907 299.836 163.128 298.72 162.974C297.603 162.82 296.569 162.301 295.779 161.497C294.646 160.438 293.844 159.075 293.467 157.57C292.908 155.641 293.006 153.581 293.748 151.714Z" fill="#F5F5F5"/>
<path d="M339.993 171.502C339.401 172.758 338.531 173.862 337.448 174.731C336.366 175.6 335.099 176.211 333.746 176.517C332.605 176.832 331.401 176.832 330.261 176.517C329.486 176.329 328.77 175.952 328.177 175.419C327.583 174.887 327.131 174.216 326.861 173.466C326.365 172.14 326.392 170.675 326.937 169.369C327.425 168.048 328.218 166.861 329.252 165.905C330.286 164.949 331.532 164.252 332.887 163.869C334.496 163.3 336.263 163.376 337.817 164.082C338.42 164.354 338.959 164.751 339.399 165.246C339.838 165.741 340.168 166.324 340.367 166.955C340.804 168.465 340.671 170.084 339.993 171.502Z" fill="#F5F5F5"/>
<path d="M276.03 83.5431C274.599 85.5224 272.765 87.1765 270.649 88.3966C267.334 90.3431 263.79 90.0966 260.194 88.8386C256.954 87.6417 254.142 85.5122 252.111 82.7186C250.178 80.1159 248.043 77.6689 245.727 75.4001C243.201 73.0054 240.206 71.1616 236.93 69.9856C234.643 69.1356 232.314 68.3791 229.985 67.6736C226.841 66.7864 223.995 65.0653 221.749 62.6926C218.111 58.7401 217.057 54.3626 218.867 49.4411C220.873 43.9926 224.817 40.6266 230.427 39.1306C233.241 38.3741 236.173 37.9576 239.046 37.4306L242.956 36.6826C245.22 36.123 247.331 35.0661 249.136 33.5886C250.215 32.7981 251.303 31.9991 252.391 31.2171C256.497 28.2676 261.01 27.8681 265.889 29.6871C269.567 31.0339 272.803 33.3692 275.239 36.4361C276.634 38.0457 277.623 39.9662 278.123 42.0367C278.623 44.1072 278.619 46.2673 278.112 48.3361C277.815 49.6281 277.509 50.8861 277.109 52.1781C276.124 55.3418 276.009 58.7127 276.778 61.9361C277.458 64.9961 278.078 68.0731 278.546 71.1671C279.143 74.5346 278.72 78.004 277.33 81.1291C276.948 81.9536 276.472 82.7356 276.03 83.5431Z" fill="#EBEBEB"/>
<path d="M275.656 21.2992C274.055 23.7412 271.649 25.5455 268.856 26.3992C267.661 26.7579 266.405 26.8622 265.167 26.7052C263.771 26.527 262.432 26.044 261.243 25.2905C260.055 24.5369 259.047 23.5313 258.291 22.3447C257.311 20.9577 256.662 19.364 256.395 17.6867C255.307 10.1302 257.815 4.54575 263.986 1.05225C265.01 0.529115 266.122 0.200556 267.267 0.0832467C271.1 -0.452253 274.84 1.63025 276.838 5.33625C278.14 7.75281 278.704 10.4984 278.461 13.2327C278.257 16.1225 277.289 18.9061 275.656 21.2992Z" fill="#EBEBEB"/>
<path d="M299.935 34.669C296.85 38.001 293.382 40.1345 288.673 40.5C287.356 40.5914 286.034 40.4941 284.746 40.211C282.847 39.8688 281.111 38.9183 279.8 37.5031C278.489 36.0879 277.674 34.2847 277.478 32.3655C277.252 29.9575 277.822 27.5418 279.102 25.489C280.267 23.4926 281.848 21.7697 283.736 20.4368C285.625 19.1038 287.778 18.1918 290.05 17.7625C291.962 17.3426 293.946 17.3687 295.847 17.839C297.694 18.2174 299.376 19.1671 300.654 20.5536C301.932 21.9401 302.742 23.6934 302.97 25.5655C303.214 27.9351 302.686 30.3203 301.465 32.3655C300.947 33.292 300.301 34.1335 299.935 34.669Z" fill="#EBEBEB"/>
<path d="M231.054 12.1459C232.163 10.4334 233.698 9.03897 235.508 8.09988C240.005 5.87288 245.062 7.70038 247.714 12.5199C249.284 15.3683 249.881 18.6512 249.414 21.8699C248.879 25.9924 247.213 29.4689 243.796 31.8744C243.074 32.3743 242.287 32.7746 241.458 33.0644C237.744 34.3904 233.74 32.9794 231.199 29.4689C229.618 27.2693 228.706 24.6602 228.572 21.9549C228.3 18.5013 229.172 15.0541 231.054 12.1459Z" fill="#EBEBEB"/>
<path d="M303.47 61.7761C302.032 63.7278 300.167 65.3251 298.018 66.4461C295.869 67.5672 293.492 68.1823 291.068 68.2446C289.009 68.3711 286.953 67.9394 285.118 66.9951C283.859 66.4039 282.764 65.5127 281.93 64.3997C281.096 63.2867 280.547 61.986 280.333 60.6116C279.945 58.1704 280.491 55.6725 281.863 53.6161C283.139 51.5217 284.892 49.7585 286.98 48.4705C289.067 47.1824 291.429 46.4058 293.873 46.2041C296.821 45.7628 299.824 46.4952 302.237 48.2441C303.19 48.9088 303.989 49.7689 304.583 50.7671C305.176 51.7653 305.55 52.8785 305.68 54.0326C306.02 56.8546 305.11 59.2346 303.47 61.7761Z" fill="#EBEBEB"/>
<path d="M167.905 61.904C168.495 63.4449 168.752 65.0931 168.661 66.7405C168.542 69.2905 167.114 71.254 165.057 72.8095C163.186 74.2009 160.943 75.0055 158.614 75.1215C156.432 75.2509 154.263 75.5551 152.129 76.031C149.838 76.5729 147.687 77.5893 145.813 79.0145C144.487 79.9835 143.204 81.029 141.946 82.083C140.284 83.5331 138.26 84.5054 136.089 84.8965C132.511 85.5 129.655 84.48 127.538 81.641C126.421 80.1927 125.692 78.4838 125.418 76.6755C125.144 74.8671 125.336 73.0189 125.974 71.305C126.586 69.435 127.428 67.6245 128.176 65.7885C128.507 64.9385 128.864 64.0885 129.196 63.3065C129.708 61.8194 129.888 60.2381 129.723 58.674C129.672 57.7645 129.621 56.8635 129.587 55.954C129.498 54.3479 129.83 52.7465 130.552 51.3089C131.274 49.8714 132.359 48.6479 133.701 47.76C135.822 46.1804 138.336 45.2131 140.968 44.9635C142.397 44.766 143.851 44.9155 145.21 45.3993C146.568 45.8832 147.79 46.687 148.771 47.743C149.392 48.389 150.012 49.035 150.573 49.7235C151.999 51.4493 153.864 52.7589 155.971 53.5145C157.951 54.254 159.915 55.0445 161.836 55.92C163.963 56.8199 165.769 58.3393 167.021 60.2805C167.344 60.799 167.607 61.36 167.905 61.904Z" fill="#F5F5F5"/>
<path d="M132.575 39.1561C133.356 40.9636 133.48 42.9877 132.924 44.8766C132.687 45.6865 132.282 46.437 131.734 47.0781C131.118 47.7973 130.352 48.3731 129.49 48.7651C128.628 49.1572 127.691 49.356 126.744 49.3476C125.599 49.3911 124.458 49.17 123.412 48.7016C118.737 46.5341 116.51 43.0491 116.808 38.2721C116.888 37.5015 117.11 36.7523 117.462 36.0621C118.06 34.8854 119.005 33.9212 120.17 33.3008C121.335 32.6803 122.663 32.4336 123.973 32.5941C125.817 32.7492 127.575 33.4406 129.031 34.5831C130.597 35.7656 131.821 37.344 132.575 39.1561Z" fill="#F5F5F5"/>
<path d="M149.091 30.3693C149.517 31.7722 149.661 33.2454 149.515 34.7042C149.37 36.163 148.937 37.5785 148.241 38.8693C147.806 39.6479 147.263 40.3606 146.626 40.9858C145.732 41.9313 144.554 42.5604 143.271 42.7781C141.988 42.9958 140.668 42.7904 139.512 42.1928C138.069 41.4352 136.914 40.2262 136.223 38.7503C135.525 37.3537 135.135 35.8241 135.078 34.2642C135.02 32.7043 135.298 31.1502 135.891 29.7063C136.359 28.4701 137.107 27.3588 138.075 26.4593C138.97 25.5523 140.127 24.95 141.382 24.738C142.638 24.5259 143.929 24.7148 145.071 25.2778C146.508 26.0239 147.662 27.2174 148.36 28.6778C148.683 29.2898 148.913 29.9953 149.091 30.3693Z" fill="#F5F5F5"/>
<path d="M110.936 60.9862C110.379 59.7266 110.16 58.3442 110.298 56.9742C110.698 53.5742 113.596 51.4237 117.302 51.7042C119.504 51.8713 121.591 52.7482 123.252 54.2032C124.308 55.0228 125.174 56.0608 125.792 57.2462C126.409 58.4315 126.764 59.7363 126.831 61.0712C126.843 61.6633 126.78 62.2545 126.644 62.8307C126.306 64.116 125.551 65.2528 124.497 66.0621C123.443 66.8715 122.15 67.3075 120.821 67.3017C118.996 67.3866 117.185 66.9376 115.611 66.0097C113.539 64.8989 111.895 63.132 110.936 60.9862Z" fill="#F5F5F5"/>
<path d="M165.718 38.3685C166.282 39.8954 166.492 41.5304 166.331 43.1501C166.171 44.7699 165.644 46.332 164.791 47.7185C164.099 48.9294 163.095 49.9331 161.884 50.6255C161.087 51.1214 160.179 51.4126 159.242 51.4734C158.305 51.5342 157.367 51.3627 156.512 50.974C154.99 50.311 153.776 49.0962 153.112 47.574C152.402 46.081 152.054 44.4415 152.097 42.7887C152.14 41.136 152.572 39.5167 153.359 38.0625C154.196 36.2282 155.723 34.7986 157.609 34.0845C158.331 33.7902 159.108 33.6524 159.887 33.6803C160.667 33.7081 161.431 33.9009 162.131 34.246C163.799 35.1252 165.078 36.5954 165.718 38.3685Z" fill="#F5F5F5"/>
<path d="M64.6734 159.332C65.3354 161.056 65.6251 162.901 65.5234 164.746C65.3959 167.653 63.8234 169.846 61.5029 171.546C59.4109 173.117 56.8991 174.032 54.2864 174.173C51.8371 174.327 49.404 174.676 47.0104 175.218C44.4445 175.846 42.0384 177.004 39.9469 178.618C38.4594 179.715 37.0314 180.888 35.6204 182.078C33.7616 183.709 31.4979 184.81 29.0669 185.265C25.0549 185.954 21.8419 184.823 19.4619 181.644C18.2003 180.026 17.3726 178.113 17.0573 176.085C16.7419 174.058 16.9494 171.983 17.6599 170.059C18.3399 167.959 19.2749 165.928 20.0994 163.862C20.4734 162.927 20.8644 162.001 21.2299 161.066C21.805 159.399 22.0024 157.625 21.8079 155.872C21.7484 154.852 21.6889 153.841 21.6379 152.821C21.4594 149.004 23.0574 145.97 26.2194 143.615C28.5909 141.83 31.4083 140.733 34.3624 140.445C35.9636 140.216 37.5963 140.377 39.1219 140.914C40.6475 141.452 42.021 142.349 43.1259 143.53C43.8229 144.253 44.5199 144.975 45.1574 145.74C46.7606 147.678 48.8575 149.146 51.2264 149.99C53.4534 150.84 55.6634 151.69 57.8139 152.659C60.2018 153.661 62.2333 155.358 63.6449 157.53C64.0444 158.099 64.3759 158.72 64.6734 159.332Z" fill="#F5F5F5"/>
<path d="M24.9485 133.967C25.8345 135.991 25.9819 138.263 25.365 140.385C25.1026 141.293 24.6507 142.136 24.039 142.858C23.3496 143.666 22.4916 144.313 21.5253 144.753C20.559 145.194 19.5079 145.417 18.446 145.408C17.162 145.459 15.8833 145.217 14.706 144.703C9.46146 142.289 6.94546 138.396 7.25146 133.032C7.34561 132.168 7.59315 131.327 7.98246 130.55C8.64632 129.227 9.70165 128.14 11.005 127.437C12.3083 126.734 13.7964 126.45 15.267 126.623C17.3378 126.794 19.3138 127.565 20.9535 128.842C22.717 130.165 24.0961 131.934 24.9485 133.967Z" fill="#F5F5F5"/>
<path d="M43.433 124.038C43.9194 125.614 44.0887 127.27 43.9311 128.911C43.7735 130.553 43.2922 132.146 42.515 133.601C42.0281 134.471 41.4215 135.27 40.713 135.972C39.7149 137.038 38.3975 137.75 36.9594 138.001C35.5213 138.253 34.0404 138.03 32.74 137.366C31.1116 136.525 29.8082 135.168 29.034 133.507C28.2442 131.944 27.799 130.231 27.7286 128.481C27.6583 126.732 27.9643 124.988 28.626 123.367C29.1406 121.978 29.9731 120.729 31.057 119.72C32.0578 118.709 33.3508 118.037 34.7536 117.799C36.1565 117.561 37.5987 117.769 38.877 118.394C40.483 119.213 41.7825 120.527 42.583 122.143C42.9825 122.831 43.246 123.588 43.433 124.038Z" fill="#F5F5F5"/>
<path d="M0.781468 158.548C0.146633 157.14 -0.108324 155.589 0.0419653 154.052C0.475465 150.278 3.71396 147.813 7.87046 148.102C10.3398 148.273 12.6857 149.246 14.5515 150.873C15.7354 151.783 16.7095 152.937 17.4076 154.257C18.1058 155.577 18.5116 157.032 18.5975 158.523C18.6181 159.189 18.5495 159.855 18.3935 160.503C17.705 163.41 15.1635 165.374 11.8825 165.544C9.83435 165.644 7.80078 165.151 6.02597 164.124C3.71411 162.89 1.87153 160.931 0.781468 158.548Z" fill="#F5F5F5"/>
<path d="M62.1279 132.929C62.7728 134.647 63.0176 136.489 62.8438 138.315C62.67 140.141 62.0821 141.904 61.1249 143.469C60.3571 144.832 59.2352 145.963 57.8779 146.742C56.9848 147.3 55.9678 147.631 54.9167 147.703C53.8657 147.776 52.813 147.589 51.8514 147.158C50.1396 146.401 48.7766 145.026 48.0349 143.308C47.233 141.635 46.8366 139.796 46.8779 137.941C46.9193 136.086 47.3972 134.267 48.2729 132.632C49.2092 130.579 50.9116 128.974 53.0159 128.161C53.8305 127.826 54.7073 127.671 55.5871 127.705C56.467 127.738 57.3293 127.961 58.1159 128.356C59.9716 129.333 61.4006 130.962 62.1279 132.929Z" fill="#F5F5F5"/>
<path d="M60.9037 84.3959C60.3579 86.4822 59.3758 88.4291 58.0222 90.1079C55.9142 92.7599 52.9222 93.7119 49.5222 93.7884C46.4805 93.8373 43.4927 92.9824 40.9372 91.3319C38.5182 89.8064 35.9831 88.4735 33.3552 87.3454C30.5169 86.1609 27.4626 85.5819 24.3877 85.6454C22.2372 85.6454 20.0867 85.7984 17.9447 85.9514C15.077 86.2242 12.189 85.713 9.58921 84.4724C5.33921 82.3814 3.08671 79.1174 3.01021 74.5019C2.92521 69.4019 5.10121 65.3559 9.23221 62.3384C11.3147 60.8254 13.5842 59.5504 15.7772 58.1734C16.7632 57.5529 17.7662 56.9409 18.7522 56.3119C20.4309 55.1315 21.8296 53.5964 22.8492 51.8154C23.4867 50.8124 24.1242 49.8094 24.7702 48.8234C27.2097 45.0919 30.7967 43.3324 35.3867 43.2814C38.8371 43.2097 42.2403 44.0922 45.2212 45.8314C46.8863 46.7125 48.3153 47.9808 49.3878 49.5296C50.4602 51.0784 51.1448 52.8622 51.3837 54.7309C51.5452 55.8869 51.7067 57.0514 51.7747 58.2074C51.9728 61.1234 52.9503 63.9328 54.6052 66.3419C56.1437 68.6369 57.6312 70.9744 58.9997 73.3629C60.5601 75.9449 61.3121 78.9349 61.1587 81.9479C61.1502 82.7979 60.9802 83.5969 60.9037 84.3959Z" fill="#EBEBEB"/>
<path d="M40.8051 33.3347C40.2531 35.8449 38.8434 38.0842 36.8186 39.6672C35.9477 40.3399 34.946 40.8234 33.8776 41.0867C32.6748 41.3831 31.4214 41.4111 30.2066 41.1687C28.9917 40.9263 27.8451 40.4195 26.8481 39.6842C25.6015 38.8563 24.5606 37.7544 23.8051 36.4627C20.5071 30.5977 20.7961 25.2087 24.7571 20.3637C25.4329 19.6093 26.2428 18.9868 27.1456 18.5277C28.6736 17.7307 30.4103 17.4247 32.1186 17.6514C33.827 17.878 35.4238 18.6263 36.6911 19.7942C38.5199 21.3645 39.8544 23.4312 40.5331 25.7442C41.299 28.2048 41.3929 30.8255 40.8051 33.3347Z" fill="#EBEBEB"/>
<path d="M65.0091 36.6073C63.5386 40.3303 61.3626 43.1863 57.6056 44.9798C56.552 45.4764 55.4328 45.8199 54.2821 45.9998C52.6068 46.3286 50.87 46.1013 49.3358 45.3526C47.8015 44.6039 46.5537 43.3747 45.7821 41.8518C44.8285 39.9471 44.5298 37.781 44.9321 35.6893C45.2576 33.6767 46.0101 31.757 47.139 30.0593C48.2679 28.3615 49.747 26.9251 51.4771 25.8463C52.9233 24.8824 54.5727 24.2656 56.2966 24.0443C57.9361 23.7659 59.6216 24.0111 61.1139 24.745C62.6061 25.4789 63.8292 26.6643 64.6096 28.1328C65.5755 30.0148 65.9008 32.1606 65.5361 34.2443C65.4086 35.1538 65.1366 36.0463 65.0091 36.6073Z" fill="#EBEBEB"/>
<path d="M1.20492 39.9727C1.57345 38.212 2.39364 36.5775 3.58492 35.2297C6.56842 31.9657 11.3114 31.8297 15.0259 34.9832C17.2344 36.8308 18.7778 39.3503 19.4204 42.1572C20.2704 45.7187 20.0324 49.1017 17.9839 52.1702C17.5485 52.8024 17.0312 53.3741 16.4454 53.8702C13.8019 56.1397 10.0704 56.2502 6.85742 54.1762C4.87031 52.8713 3.29822 51.025 2.32692 48.8552C0.983946 46.099 0.589494 42.9763 1.20492 39.9727Z" fill="#EBEBEB"/>
<path d="M76.5427 57.7725C75.9775 59.8318 74.9493 61.7347 73.5366 63.336C72.1239 64.9373 70.3639 66.1946 68.3912 67.012C66.7334 67.7626 64.9051 68.0561 63.0957 67.862C61.8736 67.7768 60.6915 67.3917 59.6537 66.7409C58.6159 66.09 57.7545 65.1935 57.1457 64.1305C56.0476 62.2474 55.7015 60.0189 56.1767 57.8915C56.5632 55.7666 57.446 53.763 58.7532 52.0437C60.0604 50.3245 61.755 48.9381 63.6992 47.9975C65.9858 46.7016 68.6884 46.3508 71.2302 47.02C72.223 47.2656 73.1523 47.7191 73.9568 48.3507C74.7612 48.9822 75.4224 49.7773 75.8967 50.6835C77.0697 52.9445 77.1292 55.1545 76.5427 57.7725Z" fill="#EBEBEB"/>
</g>
</svg>
