<svg width="392" height="634" viewBox="0 0 392 634" fill="none" xmlns="http://www.w3.org/2000/svg">
<rect x="16" y="478.999" width="359" height="89" rx="16" fill="#FFBF5F"/>
<path d="M39.074 513.125C37.898 513.125 36.818 512.849 35.834 512.297C34.85 511.745 34.07 510.983 33.494 510.011C32.918 509.027 32.63 507.917 32.63 506.681C32.63 505.457 32.918 504.359 33.494 503.387C34.07 502.403 34.85 501.635 35.834 501.083C36.818 500.531 37.898 500.255 39.074 500.255C40.262 500.255 41.342 500.531 42.314 501.083C43.298 501.635 44.072 502.403 44.636 503.387C45.212 504.359 45.5 505.457 45.5 506.681C45.5 507.917 45.212 509.027 44.636 510.011C44.072 510.983 43.298 511.745 42.314 512.297C41.33 512.849 40.25 513.125 39.074 513.125ZM39.074 510.875C39.83 510.875 40.496 510.707 41.072 510.371C41.648 510.023 42.098 509.531 42.422 508.895C42.746 508.259 42.908 507.521 42.908 506.681C42.908 505.841 42.746 505.109 42.422 504.485C42.098 503.849 41.648 503.363 41.072 503.027C40.496 502.691 39.83 502.523 39.074 502.523C38.318 502.523 37.646 502.691 37.058 503.027C36.482 503.363 36.032 503.849 35.708 504.485C35.384 505.109 35.222 505.841 35.222 506.681C35.222 507.521 35.384 508.259 35.708 508.895C36.032 509.531 36.482 510.023 37.058 510.371C37.646 510.707 38.318 510.875 39.074 510.875ZM60.9339 507.797C60.9339 508.157 60.9099 508.481 60.8619 508.769H53.5719C53.6319 509.489 53.8839 510.053 54.3279 510.461C54.7719 510.869 55.3179 511.073 55.9659 511.073C56.9019 511.073 57.5679 510.671 57.9639 509.867H60.6819C60.3939 510.827 59.8419 511.619 59.0259 512.243C58.2099 512.855 57.2079 513.161 56.0199 513.161C55.0599 513.161 54.1959 512.951 53.4279 512.531C52.6719 512.099 52.0779 511.493 51.6459 510.713C51.2259 509.933 51.0159 509.033 51.0159 508.013C51.0159 506.981 51.2259 506.075 51.6459 505.295C52.0659 504.515 52.6539 503.915 53.4099 503.495C54.1659 503.075 55.0359 502.865 56.0199 502.865C56.9679 502.865 57.8139 503.069 58.5579 503.477C59.3139 503.885 59.8959 504.467 60.3039 505.223C60.7239 505.967 60.9339 506.825 60.9339 507.797ZM58.3239 507.077C58.3119 506.429 58.0779 505.913 57.6219 505.529C57.1659 505.133 56.6079 504.935 55.9479 504.935C55.3239 504.935 54.7959 505.127 54.3639 505.511C53.9439 505.883 53.6859 506.405 53.5899 507.077H58.3239ZM66.5893 513.161C65.7733 513.161 65.0413 513.017 64.3933 512.729C63.7453 512.429 63.2293 512.027 62.8453 511.523C62.4733 511.019 62.2693 510.461 62.2333 509.849H64.7713C64.8193 510.233 65.0053 510.551 65.3293 510.803C65.6653 511.055 66.0793 511.181 66.5713 511.181C67.0513 511.181 67.4233 511.085 67.6873 510.893C67.9633 510.701 68.1013 510.455 68.1013 510.155C68.1013 509.831 67.9333 509.591 67.5973 509.435C67.2733 509.267 66.7513 509.087 66.0312 508.895C65.2873 508.715 64.6753 508.529 64.1953 508.337C63.7273 508.145 63.3193 507.851 62.9713 507.455C62.6353 507.059 62.4673 506.525 62.4673 505.853C62.4673 505.301 62.6233 504.797 62.9353 504.341C63.2593 503.885 63.7153 503.525 64.3033 503.261C64.9033 502.997 65.6053 502.865 66.4093 502.865C67.5973 502.865 68.5453 503.165 69.2533 503.765C69.9613 504.353 70.3513 505.151 70.4233 506.159H68.0113C67.9753 505.763 67.8073 505.451 67.5073 505.223C67.2193 504.983 66.8293 504.863 66.3373 504.863C65.8813 504.863 65.5273 504.947 65.2753 505.115C65.0353 505.283 64.9153 505.517 64.9153 505.817C64.9153 506.153 65.0833 506.411 65.4193 506.591C65.7553 506.759 66.2773 506.933 66.9853 507.113C67.7053 507.293 68.2993 507.479 68.7673 507.671C69.2353 507.863 69.6373 508.163 69.9733 508.571C70.3213 508.967 70.5013 509.495 70.5133 510.155C70.5133 510.731 70.3513 511.247 70.0273 511.703C69.7153 512.159 69.2593 512.519 68.6593 512.783C68.0713 513.035 67.3813 513.161 66.5893 513.161ZM71.9338 508.013C71.9338 506.981 72.1438 506.081 72.5638 505.313C72.9838 504.533 73.5658 503.933 74.3098 503.513C75.0538 503.081 75.9058 502.865 76.8658 502.865C78.1018 502.865 79.1218 503.177 79.9258 503.801C80.7418 504.413 81.2878 505.277 81.5638 506.393H78.8458C78.7018 505.961 78.4558 505.625 78.1078 505.385C77.7718 505.133 77.3518 505.007 76.8478 505.007C76.1278 505.007 75.5578 505.271 75.1378 505.799C74.7178 506.315 74.5078 507.053 74.5078 508.013C74.5078 508.961 74.7178 509.699 75.1378 510.227C75.5578 510.743 76.1278 511.001 76.8478 511.001C77.8678 511.001 78.5338 510.545 78.8458 509.633H81.5638C81.2878 510.713 80.7418 511.571 79.9258 512.207C79.1098 512.843 78.0898 513.161 76.8658 513.161C75.9058 513.161 75.0538 512.951 74.3098 512.531C73.5658 512.099 72.9838 511.499 72.5638 510.731C72.1438 509.951 71.9338 509.045 71.9338 508.013ZM85.93 504.575C86.254 504.047 86.674 503.633 87.19 503.333C87.718 503.033 88.318 502.883 88.99 502.883V505.529H88.324C87.532 505.529 86.932 505.715 86.524 506.087C86.128 506.459 85.93 507.107 85.93 508.031V512.999H83.41V503.027H85.93V504.575ZM91.9653 501.839C91.5213 501.839 91.1493 501.701 90.8493 501.425C90.5613 501.137 90.4173 500.783 90.4173 500.363C90.4173 499.943 90.5613 499.595 90.8493 499.319C91.1493 499.031 91.5213 498.887 91.9653 498.887C92.4093 498.887 92.7753 499.031 93.0633 499.319C93.3633 499.595 93.5133 499.943 93.5133 500.363C93.5133 500.783 93.3633 501.137 93.0633 501.425C92.7753 501.701 92.4093 501.839 91.9653 501.839ZM93.2073 503.027V512.999H90.6873V503.027H93.2073ZM98.2171 504.485C98.5411 504.005 98.9851 503.615 99.5491 503.315C100.125 503.015 100.779 502.865 101.511 502.865C102.363 502.865 103.131 503.075 103.815 503.495C104.511 503.915 105.057 504.515 105.453 505.295C105.861 506.063 106.065 506.957 106.065 507.977C106.065 508.997 105.861 509.903 105.453 510.695C105.057 511.475 104.511 512.081 103.815 512.513C103.131 512.945 102.363 513.161 101.511 513.161C100.767 513.161 100.113 513.017 99.5491 512.729C98.9971 512.429 98.5531 512.045 98.2171 511.577V512.999H95.6971V499.679H98.2171V504.485ZM103.491 507.977C103.491 507.377 103.365 506.861 103.113 506.429C102.873 505.985 102.549 505.649 102.141 505.421C101.745 505.193 101.313 505.079 100.845 505.079C100.389 505.079 99.9571 505.199 99.5491 505.439C99.1531 505.667 98.8291 506.003 98.5771 506.447C98.3371 506.891 98.2171 507.413 98.2171 508.013C98.2171 508.613 98.3371 509.135 98.5771 509.579C98.8291 510.023 99.1531 510.365 99.5491 510.605C99.9571 510.833 100.389 510.947 100.845 510.947C101.313 510.947 101.745 510.827 102.141 510.587C102.549 510.347 102.873 510.005 103.113 509.561C103.365 509.117 103.491 508.589 103.491 507.977ZM117.166 507.797C117.166 508.157 117.142 508.481 117.094 508.769H109.804C109.864 509.489 110.116 510.053 110.56 510.461C111.004 510.869 111.55 511.073 112.198 511.073C113.134 511.073 113.8 510.671 114.196 509.867H116.914C116.626 510.827 116.074 511.619 115.258 512.243C114.442 512.855 113.44 513.161 112.252 513.161C111.292 513.161 110.428 512.951 109.66 512.531C108.904 512.099 108.31 511.493 107.878 510.713C107.458 509.933 107.248 509.033 107.248 508.013C107.248 506.981 107.458 506.075 107.878 505.295C108.298 504.515 108.886 503.915 109.642 503.495C110.398 503.075 111.268 502.865 112.252 502.865C113.2 502.865 114.046 503.069 114.79 503.477C115.546 503.885 116.128 504.467 116.536 505.223C116.956 505.967 117.166 506.825 117.166 507.797ZM114.556 507.077C114.544 506.429 114.31 505.913 113.854 505.529C113.398 505.133 112.84 504.935 112.18 504.935C111.556 504.935 111.028 505.127 110.596 505.511C110.176 505.883 109.918 506.405 109.822 507.077H114.556ZM124.532 502.883C125.72 502.883 126.68 503.261 127.412 504.017C128.144 504.761 128.51 505.805 128.51 507.149V512.999H125.99V507.491C125.99 506.699 125.792 506.093 125.396 505.673C125 505.241 124.46 505.025 123.776 505.025C123.08 505.025 122.528 505.241 122.12 505.673C121.724 506.093 121.526 506.699 121.526 507.491V512.999H119.006V503.027H121.526V504.269C121.862 503.837 122.288 503.501 122.804 503.261C123.332 503.009 123.908 502.883 124.532 502.883ZM135.334 513.161C134.374 513.161 133.51 512.951 132.742 512.531C131.974 512.099 131.368 511.493 130.924 510.713C130.492 509.933 130.276 509.033 130.276 508.013C130.276 506.993 130.498 506.093 130.942 505.313C131.398 504.533 132.016 503.933 132.796 503.513C133.576 503.081 134.446 502.865 135.406 502.865C136.366 502.865 137.236 503.081 138.016 503.513C138.796 503.933 139.408 504.533 139.852 505.313C140.308 506.093 140.536 506.993 140.536 508.013C140.536 509.033 140.302 509.933 139.834 510.713C139.378 511.493 138.754 512.099 137.962 512.531C137.182 512.951 136.306 513.161 135.334 513.161ZM135.334 510.965C135.79 510.965 136.216 510.857 136.612 510.641C137.02 510.413 137.344 510.077 137.584 509.633C137.824 509.189 137.944 508.649 137.944 508.013C137.944 507.065 137.692 506.339 137.188 505.835C136.696 505.319 136.09 505.061 135.37 505.061C134.65 505.061 134.044 505.319 133.552 505.835C133.072 506.339 132.832 507.065 132.832 508.013C132.832 508.961 133.066 509.693 133.534 510.209C134.014 510.713 134.614 510.965 135.334 510.965ZM146.201 513.161C145.385 513.161 144.653 513.017 144.005 512.729C143.357 512.429 142.841 512.027 142.457 511.523C142.085 511.019 141.881 510.461 141.845 509.849H144.383C144.431 510.233 144.617 510.551 144.941 510.803C145.277 511.055 145.691 511.181 146.183 511.181C146.663 511.181 147.035 511.085 147.299 510.893C147.575 510.701 147.713 510.455 147.713 510.155C147.713 509.831 147.545 509.591 147.209 509.435C146.885 509.267 146.363 509.087 145.643 508.895C144.899 508.715 144.287 508.529 143.807 508.337C143.339 508.145 142.931 507.851 142.583 507.455C142.247 507.059 142.079 506.525 142.079 505.853C142.079 505.301 142.235 504.797 142.547 504.341C142.871 503.885 143.327 503.525 143.915 503.261C144.515 502.997 145.217 502.865 146.021 502.865C147.209 502.865 148.157 503.165 148.865 503.765C149.573 504.353 149.963 505.151 150.035 506.159H147.623C147.587 505.763 147.419 505.451 147.119 505.223C146.831 504.983 146.441 504.863 145.949 504.863C145.493 504.863 145.139 504.947 144.887 505.115C144.647 505.283 144.527 505.517 144.527 505.817C144.527 506.153 144.695 506.411 145.031 506.591C145.367 506.759 145.889 506.933 146.597 507.113C147.317 507.293 147.911 507.479 148.379 507.671C148.847 507.863 149.249 508.163 149.585 508.571C149.933 508.967 150.113 509.495 150.125 510.155C150.125 510.731 149.963 511.247 149.639 511.703C149.327 512.159 148.871 512.519 148.271 512.783C147.683 513.035 146.993 513.161 146.201 513.161ZM155.834 507.977C155.834 506.969 156.032 506.075 156.428 505.295C156.836 504.515 157.382 503.915 158.066 503.495C158.762 503.075 159.536 502.865 160.388 502.865C161.132 502.865 161.78 503.015 162.332 503.315C162.896 503.615 163.346 503.993 163.682 504.449V503.027H166.22V512.999H163.682V511.541C163.358 512.009 162.908 512.399 162.332 512.711C161.768 513.011 161.114 513.161 160.37 513.161C159.53 513.161 158.762 512.945 158.066 512.513C157.382 512.081 156.836 511.475 156.428 510.695C156.032 509.903 155.834 508.997 155.834 507.977ZM163.682 508.013C163.682 507.401 163.562 506.879 163.322 506.447C163.082 506.003 162.758 505.667 162.35 505.439C161.942 505.199 161.504 505.079 161.036 505.079C160.568 505.079 160.136 505.193 159.74 505.421C159.344 505.649 159.02 505.985 158.768 506.429C158.528 506.861 158.408 507.377 158.408 507.977C158.408 508.577 158.528 509.105 158.768 509.561C159.02 510.005 159.344 510.347 159.74 510.587C160.148 510.827 160.58 510.947 161.036 510.947C161.504 510.947 161.942 510.833 162.35 510.605C162.758 510.365 163.082 510.029 163.322 509.597C163.562 509.153 163.682 508.625 163.682 508.013ZM169.797 513.125C169.341 513.125 168.963 512.987 168.663 512.711C168.375 512.423 168.231 512.069 168.231 511.649C168.231 511.229 168.375 510.881 168.663 510.605C168.963 510.317 169.341 510.173 169.797 510.173C170.241 510.173 170.607 510.317 170.895 510.605C171.183 510.881 171.327 511.229 171.327 511.649C171.327 512.069 171.183 512.423 170.895 512.711C170.607 512.987 170.241 513.125 169.797 513.125ZM169.797 505.673C169.341 505.673 168.963 505.535 168.663 505.259C168.375 504.971 168.231 504.617 168.231 504.197C168.231 503.777 168.375 503.429 168.663 503.153C168.963 502.865 169.341 502.721 169.797 502.721C170.241 502.721 170.607 502.865 170.895 503.153C171.183 503.429 171.327 503.777 171.327 504.197C171.327 504.617 171.183 504.971 170.895 505.259C170.607 505.535 170.241 505.673 169.797 505.673Z" fill="#965A00"/>
<path d="M60.4818 535.079C60.0871 535.079 59.7564 534.957 59.4898 534.711C59.2338 534.455 59.1058 534.141 59.1058 533.767C59.1058 533.394 59.2338 533.085 59.4898 532.839C59.7564 532.583 60.0871 532.455 60.4818 532.455C60.8764 532.455 61.2018 532.583 61.4578 532.839C61.7244 533.085 61.8578 533.394 61.8578 533.767C61.8578 534.141 61.7244 534.455 61.4578 534.711C61.2018 534.957 60.8764 535.079 60.4818 535.079ZM61.5858 536.135V544.999H59.3458V536.135H61.5858ZM68.7109 536.007C69.7669 536.007 70.6202 536.343 71.2709 537.015C71.9215 537.677 72.2469 538.605 72.2469 539.799V544.999H70.0069V540.103C70.0069 539.399 69.8309 538.861 69.4789 538.487C69.1269 538.103 68.6469 537.911 68.0389 537.911C67.4202 537.911 66.9295 538.103 66.5669 538.487C66.2149 538.861 66.0389 539.399 66.0389 540.103V544.999H63.7989V536.135H66.0389V537.239C66.3375 536.855 66.7162 536.557 67.1749 536.343C67.6442 536.119 68.1562 536.007 68.7109 536.007ZM78.441 537.975H76.889V544.999H74.617V537.975H73.609V536.135H74.617V535.687C74.617 534.599 74.9263 533.799 75.545 533.287C76.1637 532.775 77.097 532.535 78.345 532.567V534.455C77.801 534.445 77.4223 534.535 77.209 534.727C76.9957 534.919 76.889 535.266 76.889 535.767V536.135H78.441V537.975ZM83.8286 545.143C82.9753 545.143 82.2073 544.957 81.5246 544.583C80.842 544.199 80.3033 543.661 79.9086 542.967C79.5246 542.274 79.3326 541.474 79.3326 540.567C79.3326 539.661 79.53 538.861 79.9246 538.167C80.33 537.474 80.8793 536.941 81.5726 536.567C82.266 536.183 83.0393 535.991 83.8926 535.991C84.746 535.991 85.5193 536.183 86.2126 536.567C86.906 536.941 87.45 537.474 87.8446 538.167C88.25 538.861 88.4526 539.661 88.4526 540.567C88.4526 541.474 88.2446 542.274 87.8286 542.967C87.4233 543.661 86.8686 544.199 86.1646 544.583C85.4713 544.957 84.6926 545.143 83.8286 545.143ZM83.8286 543.191C84.234 543.191 84.6126 543.095 84.9646 542.903C85.3273 542.701 85.6153 542.402 85.8286 542.007C86.042 541.613 86.1486 541.133 86.1486 540.567C86.1486 539.725 85.9246 539.079 85.4766 538.631C85.0393 538.173 84.5006 537.943 83.8606 537.943C83.2206 537.943 82.682 538.173 82.2446 538.631C81.818 539.079 81.6046 539.725 81.6046 540.567C81.6046 541.41 81.8126 542.061 82.2286 542.519C82.6553 542.967 83.1886 543.191 83.8286 543.191ZM98.6238 534.503C99.8611 534.503 100.933 534.733 101.84 535.191C102.746 535.65 103.44 536.295 103.92 537.127C104.41 537.959 104.656 538.919 104.656 540.007C104.656 540.882 104.501 541.709 104.192 542.487C103.893 543.266 103.456 543.895 102.88 544.375C102.304 544.855 101.621 545.095 100.832 545.095C100.277 545.095 99.8291 544.983 99.4878 544.759C99.1464 544.525 98.9278 544.194 98.8318 543.767C98.5224 544.183 98.1224 544.514 97.6318 544.759C97.1411 544.994 96.6238 545.111 96.0798 545.111C95.2691 545.111 94.6344 544.871 94.1758 544.391C93.7171 543.901 93.4878 543.234 93.4878 542.391C93.4878 541.591 93.6531 540.845 93.9838 540.151C94.3144 539.458 94.7731 538.903 95.3598 538.487C95.9464 538.061 96.6078 537.847 97.3438 537.847C98.2611 537.847 98.8904 538.167 99.2318 538.807L99.3758 537.975H101.248L100.496 542.295C100.464 542.498 100.448 542.685 100.448 542.855C100.448 543.111 100.501 543.303 100.608 543.431C100.714 543.559 100.896 543.623 101.152 543.623C101.536 543.623 101.856 543.442 102.112 543.079C102.378 542.717 102.576 542.263 102.704 541.719C102.842 541.175 102.912 540.631 102.912 540.087C102.912 538.797 102.517 537.799 101.728 537.095C100.938 536.381 99.8238 536.023 98.3838 536.023C97.1571 536.023 96.0478 536.322 95.0558 536.919C94.0638 537.506 93.2851 538.311 92.7198 539.335C92.1651 540.349 91.8878 541.479 91.8878 542.727C91.8878 544.05 92.2771 545.069 93.0558 545.783C93.8451 546.498 94.9598 546.855 96.3998 546.855C97.4344 546.855 98.3464 546.669 99.1358 546.295L99.4558 547.767C98.4424 548.194 97.3171 548.407 96.0798 548.407C94.8851 548.407 93.8398 548.178 92.9438 547.719C92.0478 547.271 91.3544 546.631 90.8638 545.799C90.3731 544.967 90.1278 544.002 90.1278 542.903C90.1278 541.335 90.4904 539.911 91.2158 538.631C91.9518 537.351 92.9651 536.343 94.2558 535.607C95.5571 534.871 97.0131 534.503 98.6238 534.503ZM96.7838 543.447C97.1678 543.447 97.5198 543.335 97.8398 543.111C98.1598 542.887 98.4104 542.589 98.5918 542.215C98.7838 541.842 98.8798 541.442 98.8798 541.015C98.8798 540.567 98.7571 540.205 98.5118 539.927C98.2664 539.65 97.9251 539.511 97.4878 539.511C97.0931 539.511 96.7464 539.634 96.4478 539.879C96.1491 540.114 95.9144 540.423 95.7438 540.807C95.5838 541.191 95.5038 541.597 95.5038 542.023C95.5038 542.461 95.6104 542.807 95.8238 543.063C96.0371 543.319 96.3571 543.447 96.7838 543.447ZM109.148 537.415C109.436 537.01 109.831 536.674 110.332 536.407C110.844 536.13 111.426 535.991 112.076 535.991C112.834 535.991 113.516 536.178 114.124 536.551C114.743 536.925 115.228 537.458 115.58 538.151C115.943 538.834 116.124 539.629 116.124 540.535C116.124 541.442 115.943 542.247 115.58 542.951C115.228 543.645 114.743 544.183 114.124 544.567C113.516 544.951 112.834 545.143 112.076 545.143C111.426 545.143 110.85 545.01 110.348 544.743C109.858 544.477 109.458 544.141 109.148 543.735V549.223H106.908V536.135H109.148V537.415ZM113.836 540.535C113.836 540.002 113.724 539.543 113.5 539.159C113.287 538.765 112.999 538.466 112.636 538.263C112.284 538.061 111.9 537.959 111.484 537.959C111.079 537.959 110.695 538.066 110.332 538.279C109.98 538.482 109.692 538.781 109.468 539.175C109.255 539.57 109.148 540.034 109.148 540.567C109.148 541.101 109.255 541.565 109.468 541.959C109.692 542.354 109.98 542.658 110.332 542.871C110.695 543.074 111.079 543.175 111.484 543.175C111.9 543.175 112.284 543.069 112.636 542.855C112.999 542.642 113.287 542.338 113.5 541.943C113.724 541.549 113.836 541.079 113.836 540.535ZM125.992 540.375C125.992 540.695 125.971 540.983 125.928 541.239H119.448C119.501 541.879 119.725 542.381 120.12 542.743C120.515 543.106 121 543.287 121.576 543.287C122.408 543.287 123 542.93 123.352 542.215H125.768C125.512 543.069 125.021 543.773 124.296 544.327C123.571 544.871 122.68 545.143 121.624 545.143C120.771 545.143 120.003 544.957 119.32 544.583C118.648 544.199 118.12 543.661 117.736 542.967C117.363 542.274 117.176 541.474 117.176 540.567C117.176 539.65 117.363 538.845 117.736 538.151C118.109 537.458 118.632 536.925 119.304 536.551C119.976 536.178 120.749 535.991 121.624 535.991C122.467 535.991 123.219 536.173 123.88 536.535C124.552 536.898 125.069 537.415 125.432 538.087C125.805 538.749 125.992 539.511 125.992 540.375ZM123.672 539.735C123.661 539.159 123.453 538.701 123.048 538.359C122.643 538.007 122.147 537.831 121.56 537.831C121.005 537.831 120.536 538.002 120.152 538.343C119.779 538.674 119.549 539.138 119.464 539.735H123.672ZM130.235 537.975V542.263C130.235 542.562 130.304 542.781 130.443 542.919C130.592 543.047 130.838 543.111 131.179 543.111H132.219V544.999H130.811C128.923 544.999 127.979 544.082 127.979 542.247V537.975H126.923V536.135H127.979V533.943H130.235V536.135H132.219V537.975H130.235ZM140.726 533.831V535.639H136.07V538.503H139.638V540.279H136.07V544.999H133.83V533.831H140.726ZM143.451 535.079C143.056 535.079 142.725 534.957 142.459 534.711C142.203 534.455 142.075 534.141 142.075 533.767C142.075 533.394 142.203 533.085 142.459 532.839C142.725 532.583 143.056 532.455 143.451 532.455C143.845 532.455 144.171 532.583 144.427 532.839C144.693 533.085 144.827 533.394 144.827 533.767C144.827 534.141 144.693 534.455 144.427 534.711C144.171 534.957 143.845 535.079 143.451 535.079ZM144.555 536.135V544.999H142.315V536.135H144.555ZM151.68 536.007C152.736 536.007 153.589 536.343 154.24 537.015C154.89 537.677 155.216 538.605 155.216 539.799V544.999H152.976V540.103C152.976 539.399 152.8 538.861 152.448 538.487C152.096 538.103 151.616 537.911 151.008 537.911C150.389 537.911 149.898 538.103 149.536 538.487C149.184 538.861 149.008 539.399 149.008 540.103V544.999H146.768V536.135H149.008V537.239C149.306 536.855 149.685 536.557 150.144 536.343C150.613 536.119 151.125 536.007 151.68 536.007ZM156.77 540.535C156.77 539.639 156.946 538.845 157.298 538.151C157.66 537.458 158.151 536.925 158.77 536.551C159.388 536.178 160.076 535.991 160.834 535.991C161.41 535.991 161.959 536.119 162.482 536.375C163.004 536.621 163.42 536.951 163.73 537.367V533.159H166.002V544.999H163.73V543.687C163.452 544.125 163.063 544.477 162.562 544.743C162.06 545.01 161.479 545.143 160.818 545.143C160.071 545.143 159.388 544.951 158.77 544.567C158.151 544.183 157.66 543.645 157.298 542.951C156.946 542.247 156.77 541.442 156.77 540.535ZM163.746 540.567C163.746 540.023 163.639 539.559 163.426 539.175C163.212 538.781 162.924 538.482 162.562 538.279C162.199 538.066 161.81 537.959 161.394 537.959C160.978 537.959 160.594 538.061 160.242 538.263C159.89 538.466 159.602 538.765 159.378 539.159C159.164 539.543 159.058 540.002 159.058 540.535C159.058 541.069 159.164 541.538 159.378 541.943C159.602 542.338 159.89 542.642 160.242 542.855C160.604 543.069 160.988 543.175 161.394 543.175C161.81 543.175 162.199 543.074 162.562 542.871C162.924 542.658 163.212 542.359 163.426 541.975C163.639 541.581 163.746 541.111 163.746 540.567ZM176.43 540.375C176.43 540.695 176.408 540.983 176.366 541.239H169.886C169.939 541.879 170.163 542.381 170.558 542.743C170.952 543.106 171.438 543.287 172.014 543.287C172.846 543.287 173.438 542.93 173.79 542.215H176.206C175.95 543.069 175.459 543.773 174.734 544.327C174.008 544.871 173.118 545.143 172.062 545.143C171.208 545.143 170.44 544.957 169.758 544.583C169.086 544.199 168.558 543.661 168.174 542.967C167.8 542.274 167.614 541.474 167.614 540.567C167.614 539.65 167.8 538.845 168.174 538.151C168.547 537.458 169.07 536.925 169.742 536.551C170.414 536.178 171.187 535.991 172.062 535.991C172.904 535.991 173.656 536.173 174.318 536.535C174.99 536.898 175.507 537.415 175.87 538.087C176.243 538.749 176.43 539.511 176.43 540.375ZM174.11 539.735C174.099 539.159 173.891 538.701 173.486 538.359C173.08 538.007 172.584 537.831 171.998 537.831C171.443 537.831 170.974 538.002 170.59 538.343C170.216 538.674 169.987 539.138 169.902 539.735H174.11ZM180.305 537.511C180.593 537.042 180.966 536.674 181.425 536.407C181.894 536.141 182.427 536.007 183.025 536.007V538.359H182.433C181.729 538.359 181.195 538.525 180.833 538.855C180.481 539.186 180.305 539.762 180.305 540.583V544.999H178.065V536.135H180.305V537.511ZM185.525 545.111C185.12 545.111 184.784 544.989 184.517 544.743C184.261 544.487 184.133 544.173 184.133 543.799C184.133 543.426 184.261 543.117 184.517 542.871C184.784 542.615 185.12 542.487 185.525 542.487C185.92 542.487 186.245 542.615 186.501 542.871C186.757 543.117 186.885 543.426 186.885 543.799C186.885 544.173 186.757 544.487 186.501 544.743C186.245 544.989 185.92 545.111 185.525 545.111ZM188.114 540.535C188.114 539.639 188.29 538.845 188.642 538.151C189.004 537.458 189.49 536.925 190.098 536.551C190.716 536.178 191.404 535.991 192.162 535.991C192.823 535.991 193.399 536.125 193.89 536.391C194.391 536.658 194.791 536.994 195.09 537.399V536.135H197.346V544.999H195.09V543.703C194.802 544.119 194.402 544.466 193.89 544.743C193.388 545.01 192.807 545.143 192.146 545.143C191.399 545.143 190.716 544.951 190.098 544.567C189.49 544.183 189.004 543.645 188.642 542.951C188.29 542.247 188.114 541.442 188.114 540.535ZM195.09 540.567C195.09 540.023 194.983 539.559 194.77 539.175C194.556 538.781 194.268 538.482 193.906 538.279C193.543 538.066 193.154 537.959 192.738 537.959C192.322 537.959 191.938 538.061 191.586 538.263C191.234 538.466 190.946 538.765 190.722 539.159C190.508 539.543 190.402 540.002 190.402 540.535C190.402 541.069 190.508 541.538 190.722 541.943C190.946 542.338 191.234 542.642 191.586 542.855C191.948 543.069 192.332 543.175 192.738 543.175C193.154 543.175 193.543 543.074 193.906 542.871C194.268 542.658 194.556 542.359 194.77 541.975C194.983 541.581 195.09 541.111 195.09 540.567ZM201.773 537.415C202.061 537.01 202.456 536.674 202.957 536.407C203.469 536.13 204.051 535.991 204.701 535.991C205.459 535.991 206.141 536.178 206.749 536.551C207.368 536.925 207.853 537.458 208.205 538.151C208.568 538.834 208.749 539.629 208.749 540.535C208.749 541.442 208.568 542.247 208.205 542.951C207.853 543.645 207.368 544.183 206.749 544.567C206.141 544.951 205.459 545.143 204.701 545.143C204.051 545.143 203.475 545.01 202.973 544.743C202.483 544.477 202.083 544.141 201.773 543.735V549.223H199.533V536.135H201.773V537.415ZM206.461 540.535C206.461 540.002 206.349 539.543 206.125 539.159C205.912 538.765 205.624 538.466 205.261 538.263C204.909 538.061 204.525 537.959 204.109 537.959C203.704 537.959 203.32 538.066 202.957 538.279C202.605 538.482 202.317 538.781 202.093 539.175C201.88 539.57 201.773 540.034 201.773 540.567C201.773 541.101 201.88 541.565 202.093 541.959C202.317 542.354 202.605 542.658 202.957 542.871C203.32 543.074 203.704 543.175 204.109 543.175C204.525 543.175 204.909 543.069 205.261 542.855C205.624 542.642 205.912 542.338 206.125 541.943C206.349 541.549 206.461 541.079 206.461 540.535ZM212.617 537.415C212.905 537.01 213.3 536.674 213.801 536.407C214.313 536.13 214.894 535.991 215.545 535.991C216.302 535.991 216.985 536.178 217.593 536.551C218.212 536.925 218.697 537.458 219.049 538.151C219.412 538.834 219.593 539.629 219.593 540.535C219.593 541.442 219.412 542.247 219.049 542.951C218.697 543.645 218.212 544.183 217.593 544.567C216.985 544.951 216.302 545.143 215.545 545.143C214.894 545.143 214.318 545.01 213.817 544.743C213.326 544.477 212.926 544.141 212.617 543.735V549.223H210.377V536.135H212.617V537.415ZM217.305 540.535C217.305 540.002 217.193 539.543 216.969 539.159C216.756 538.765 216.468 538.466 216.105 538.263C215.753 538.061 215.369 537.959 214.953 537.959C214.548 537.959 214.164 538.066 213.801 538.279C213.449 538.482 213.161 538.781 212.937 539.175C212.724 539.57 212.617 540.034 212.617 540.567C212.617 541.101 212.724 541.565 212.937 541.959C213.161 542.354 213.449 542.658 213.801 542.871C214.164 543.074 214.548 543.175 214.953 543.175C215.369 543.175 215.753 543.069 216.105 542.855C216.468 542.642 216.756 542.338 216.969 541.943C217.193 541.549 217.305 541.079 217.305 540.535Z" fill="#965A00"/>
<path d="M52.0938 532.911H36.1692C35.1222 532.911 34.2734 533.641 34.2734 534.542V544.323C34.2734 545.223 35.1222 545.953 36.1692 545.953H52.0938C53.1409 545.953 53.9896 545.223 53.9896 544.323V534.542C53.9896 533.641 53.1409 532.911 52.0938 532.911Z" fill="#D9D9D9" stroke="#82859B" stroke-linecap="round" stroke-linejoin="round"/>
<path d="M37.3125 535.521L44.1373 540.085L50.9622 535.521" fill="#D9D9D9"/>
<path d="M37.3125 535.521L44.1373 540.085L50.9622 535.521" stroke="#965A00" stroke-linecap="round" stroke-linejoin="round"/>
<rect x="14" y="583.999" width="359" height="50" rx="8" fill="#F39200"/>
<path d="M56.5 609.124C55.8 609.124 55.2083 608.883 54.725 608.399C54.2417 607.916 54 607.324 54 606.624C54 605.924 54.2417 605.333 54.725 604.849C55.2083 604.366 55.8 604.124 56.5 604.124C57.2 604.124 57.7917 604.366 58.275 604.849C58.7583 605.333 59 605.924 59 606.624C59 607.324 58.7583 607.916 58.275 608.399C57.7917 608.883 57.2 609.124 56.5 609.124ZM61 605.124C60.3 605.124 59.7083 604.883 59.225 604.399C58.7417 603.916 58.5 603.324 58.5 602.624C58.5 601.924 58.7417 601.333 59.225 600.849C59.7083 600.366 60.3 600.124 61 600.124C61.7 600.124 62.2917 600.366 62.775 600.849C63.2583 601.333 63.5 601.924 63.5 602.624C63.5 603.324 63.2583 603.916 62.775 604.399C62.2917 604.883 61.7 605.124 61 605.124ZM67 605.124C66.3 605.124 65.7083 604.883 65.225 604.399C64.7417 603.916 64.5 603.324 64.5 602.624C64.5 601.924 64.7417 601.333 65.225 600.849C65.7083 600.366 66.3 600.124 67 600.124C67.7 600.124 68.2917 600.366 68.775 600.849C69.2583 601.333 69.5 601.924 69.5 602.624C69.5 603.324 69.2583 603.916 68.775 604.399C68.2917 604.883 67.7 605.124 67 605.124ZM71.5 609.124C70.8 609.124 70.2083 608.883 69.725 608.399C69.2417 607.916 69 607.324 69 606.624C69 605.924 69.2417 605.333 69.725 604.849C70.2083 604.366 70.8 604.124 71.5 604.124C72.2 604.124 72.7917 604.366 73.275 604.849C73.7583 605.333 74 605.924 74 606.624C74 607.324 73.7583 607.916 73.275 608.399C72.7917 608.883 72.2 609.124 71.5 609.124ZM58.65 619.124C57.9 619.124 57.2708 618.837 56.7625 618.262C56.2542 617.687 56 617.008 56 616.224C56 615.358 56.2958 614.599 56.8875 613.949C57.4792 613.299 58.0667 612.658 58.65 612.024C59.1333 611.508 59.55 610.945 59.9 610.337C60.25 609.728 60.6667 609.158 61.15 608.624C61.5167 608.191 61.9417 607.833 62.425 607.549C62.9083 607.266 63.4333 607.124 64 607.124C64.5667 607.124 65.0917 607.258 65.575 607.524C66.0583 607.791 66.4833 608.141 66.85 608.574C67.3167 609.108 67.7292 609.683 68.0875 610.299C68.4458 610.916 68.8667 611.491 69.35 612.024C69.9333 612.658 70.5208 613.299 71.1125 613.949C71.7042 614.599 72 615.358 72 616.224C72 617.008 71.7458 617.687 71.2375 618.262C70.7292 618.837 70.1 619.124 69.35 619.124C68.45 619.124 67.5583 619.049 66.675 618.899C65.7917 618.749 64.9 618.674 64 618.674C63.1 618.674 62.2083 618.749 61.325 618.899C60.4417 619.049 59.55 619.124 58.65 619.124Z" fill="white"/>
<path d="M91.5739 617.942H89.375L89.5568 609.726H91.3864L91.5739 617.942ZM90.4716 606.181C90.8087 606.181 91.1004 606.304 91.3466 606.55C91.5966 606.793 91.7216 607.086 91.7216 607.431C91.7216 607.772 91.5966 608.064 91.3466 608.306C91.1004 608.548 90.8087 608.67 90.4716 608.67C90.1269 608.67 89.8314 608.548 89.5852 608.306C89.3428 608.064 89.2216 607.772 89.2216 607.431C89.2216 607.2 89.2784 606.99 89.392 606.8C89.5057 606.611 89.6572 606.461 89.8466 606.351C90.036 606.238 90.2443 606.181 90.4716 606.181ZM94.0852 614.999V603.363H98.4489C99.3428 603.363 100.093 603.518 100.699 603.829C101.309 604.139 101.769 604.575 102.08 605.136C102.394 605.692 102.551 606.342 102.551 607.084C102.551 607.831 102.392 608.478 102.074 609.028C101.759 609.573 101.295 609.995 100.682 610.295C100.068 610.59 99.3144 610.738 98.4205 610.738H95.3125V608.988H98.1364C98.6591 608.988 99.0871 608.916 99.4205 608.772C99.7538 608.624 100 608.41 100.159 608.13C100.322 607.846 100.403 607.497 100.403 607.084C100.403 606.672 100.322 606.319 100.159 606.028C99.9962 605.732 99.7481 605.509 99.4148 605.357C99.0814 605.202 98.6515 605.124 98.125 605.124H96.1932V614.999H94.0852ZM100.097 609.726L102.977 614.999H100.625L97.7955 609.726H100.097ZM108.139 615.17C107.264 615.17 106.509 614.988 105.872 614.624C105.24 614.257 104.753 613.738 104.412 613.067C104.071 612.393 103.901 611.6 103.901 610.687C103.901 609.789 104.071 609.001 104.412 608.323C104.757 607.641 105.238 607.111 105.855 606.732C106.473 606.35 107.198 606.158 108.031 606.158C108.569 606.158 109.077 606.245 109.554 606.42C110.035 606.59 110.459 606.855 110.827 607.215C111.198 607.575 111.49 608.033 111.702 608.59C111.914 609.143 112.02 609.802 112.02 610.567V611.198H104.866V609.812H110.048C110.045 609.418 109.959 609.067 109.793 608.761C109.626 608.45 109.393 608.206 109.094 608.028C108.798 607.85 108.454 607.761 108.06 607.761C107.639 607.761 107.27 607.863 106.952 608.067C106.634 608.268 106.385 608.533 106.207 608.863C106.033 609.189 105.944 609.547 105.94 609.937V611.147C105.94 611.655 106.033 612.09 106.219 612.454C106.404 612.814 106.664 613.09 106.997 613.283C107.33 613.473 107.721 613.567 108.168 613.567C108.467 613.567 108.738 613.526 108.98 613.442C109.223 613.355 109.433 613.228 109.611 613.062C109.789 612.895 109.923 612.689 110.014 612.442L111.935 612.658C111.813 613.166 111.582 613.609 111.241 613.988C110.904 614.363 110.473 614.655 109.946 614.863C109.42 615.067 108.817 615.17 108.139 615.17ZM117.624 615.17C116.749 615.17 115.993 614.988 115.357 614.624C114.724 614.257 114.237 613.738 113.896 613.067C113.555 612.393 113.385 611.6 113.385 610.687C113.385 609.789 113.555 609.001 113.896 608.323C114.241 607.641 114.722 607.111 115.339 606.732C115.957 606.35 116.682 606.158 117.516 606.158C118.054 606.158 118.561 606.245 119.038 606.42C119.519 606.59 119.944 606.855 120.311 607.215C120.682 607.575 120.974 608.033 121.186 608.59C121.398 609.143 121.504 609.802 121.504 610.567V611.198H114.351V609.812H119.533C119.529 609.418 119.444 609.067 119.277 608.761C119.11 608.45 118.877 608.206 118.578 608.028C118.283 607.85 117.938 607.761 117.544 607.761C117.124 607.761 116.754 607.863 116.436 608.067C116.118 608.268 115.87 608.533 115.692 608.863C115.518 609.189 115.429 609.547 115.425 609.937V611.147C115.425 611.655 115.518 612.09 115.703 612.454C115.889 612.814 116.148 613.09 116.482 613.283C116.815 613.473 117.205 613.567 117.652 613.567C117.951 613.567 118.222 613.526 118.464 613.442C118.707 613.355 118.917 613.228 119.095 613.062C119.273 612.895 119.408 612.689 119.499 612.442L121.419 612.658C121.298 613.166 121.067 613.609 120.726 613.988C120.389 614.363 119.957 614.655 119.43 614.863C118.904 615.067 118.302 615.17 117.624 615.17ZM125.301 609.886V614.999H123.244V606.272H125.21V607.755H125.312C125.513 607.266 125.833 606.878 126.273 606.59C126.716 606.302 127.263 606.158 127.915 606.158C128.517 606.158 129.042 606.287 129.489 606.545C129.939 606.802 130.288 607.175 130.534 607.664C130.784 608.153 130.907 608.745 130.903 609.442V614.999H128.847V609.761C128.847 609.177 128.695 608.721 128.392 608.391C128.093 608.062 127.678 607.897 127.148 607.897C126.788 607.897 126.468 607.976 126.188 608.136C125.911 608.291 125.693 608.516 125.534 608.812C125.379 609.107 125.301 609.465 125.301 609.886ZM136.801 615.17C135.93 615.17 135.182 614.978 134.557 614.596C133.936 614.213 133.456 613.685 133.119 613.011C132.786 612.333 132.619 611.552 132.619 610.67C132.619 609.783 132.79 609.001 133.131 608.323C133.472 607.641 133.953 607.111 134.574 606.732C135.199 606.35 135.938 606.158 136.79 606.158C137.498 606.158 138.125 606.289 138.67 606.55C139.22 606.808 139.657 607.173 139.983 607.647C140.309 608.117 140.494 608.666 140.54 609.295H138.574C138.494 608.874 138.305 608.524 138.006 608.244C137.71 607.959 137.314 607.817 136.818 607.817C136.398 607.817 136.028 607.931 135.71 608.158C135.392 608.382 135.144 608.704 134.966 609.124C134.792 609.545 134.705 610.048 134.705 610.636C134.705 611.23 134.792 611.742 134.966 612.17C135.14 612.594 135.384 612.922 135.699 613.153C136.017 613.38 136.39 613.494 136.818 613.494C137.121 613.494 137.392 613.437 137.631 613.323C137.873 613.206 138.076 613.037 138.239 612.817C138.402 612.598 138.513 612.331 138.574 612.016H140.54C140.491 612.634 140.309 613.181 139.994 613.658C139.68 614.132 139.252 614.503 138.71 614.772C138.169 615.037 137.532 615.17 136.801 615.17ZM147.791 611.329V606.272H149.848V614.999H147.854V613.448H147.763C147.566 613.937 147.242 614.336 146.791 614.647C146.344 614.958 145.793 615.113 145.138 615.113C144.566 615.113 144.06 614.986 143.621 614.732C143.185 614.475 142.844 614.101 142.598 613.613C142.352 613.12 142.229 612.526 142.229 611.829V606.272H144.286V611.511C144.286 612.064 144.437 612.503 144.74 612.829C145.043 613.155 145.441 613.317 145.933 613.317C146.236 613.317 146.53 613.244 146.814 613.096C147.098 612.948 147.331 612.728 147.513 612.437C147.698 612.141 147.791 611.772 147.791 611.329ZM155.827 615.17C154.952 615.17 154.196 614.988 153.56 614.624C152.927 614.257 152.44 613.738 152.099 613.067C151.759 612.393 151.588 611.6 151.588 610.687C151.588 609.789 151.759 609.001 152.099 608.323C152.444 607.641 152.925 607.111 153.543 606.732C154.16 606.35 154.885 606.158 155.719 606.158C156.257 606.158 156.764 606.245 157.241 606.42C157.723 606.59 158.147 606.855 158.514 607.215C158.885 607.575 159.177 608.033 159.389 608.59C159.601 609.143 159.707 609.802 159.707 610.567V611.198H152.554V609.812H157.736C157.732 609.418 157.647 609.067 157.48 608.761C157.313 608.45 157.08 608.206 156.781 608.028C156.486 607.85 156.141 607.761 155.747 607.761C155.327 607.761 154.957 607.863 154.639 608.067C154.321 608.268 154.073 608.533 153.895 608.863C153.721 609.189 153.632 609.547 153.628 609.937V611.147C153.628 611.655 153.721 612.09 153.906 612.454C154.092 612.814 154.351 613.09 154.685 613.283C155.018 613.473 155.408 613.567 155.855 613.567C156.154 613.567 156.425 613.526 156.668 613.442C156.91 613.355 157.12 613.228 157.298 613.062C157.476 612.895 157.611 612.689 157.702 612.442L159.622 612.658C159.501 613.166 159.27 613.609 158.929 613.988C158.592 614.363 158.16 614.655 157.634 614.863C157.107 615.067 156.505 615.17 155.827 615.17ZM163.504 609.886V614.999H161.447V606.272H163.413V607.755H163.516C163.716 607.266 164.036 606.878 164.476 606.59C164.919 606.302 165.466 606.158 166.118 606.158C166.72 606.158 167.245 606.287 167.692 606.545C168.143 606.802 168.491 607.175 168.737 607.664C168.987 608.153 169.11 608.745 169.107 609.442V614.999H167.05V609.761C167.05 609.177 166.898 608.721 166.595 608.391C166.296 608.062 165.881 607.897 165.351 607.897C164.991 607.897 164.671 607.976 164.391 608.136C164.114 608.291 163.896 608.516 163.737 608.812C163.582 609.107 163.504 609.465 163.504 609.886ZM175.555 606.272V607.863H170.538V606.272H175.555ZM171.777 604.181H173.834V612.374C173.834 612.651 173.875 612.863 173.959 613.011C174.046 613.155 174.16 613.253 174.3 613.306C174.44 613.359 174.595 613.386 174.766 613.386C174.894 613.386 175.012 613.376 175.118 613.357C175.228 613.338 175.311 613.321 175.368 613.306L175.714 614.914C175.605 614.952 175.447 614.994 175.243 615.039C175.042 615.084 174.796 615.111 174.504 615.119C173.989 615.134 173.525 615.056 173.112 614.886C172.699 614.711 172.372 614.442 172.129 614.079C171.891 613.715 171.773 613.261 171.777 612.715V604.181ZM177.276 614.999V606.272H179.27V607.726H179.361C179.52 607.223 179.793 606.834 180.179 606.562C180.569 606.285 181.014 606.147 181.514 606.147C181.628 606.147 181.755 606.153 181.895 606.164C182.039 606.172 182.158 606.185 182.253 606.204V608.096C182.166 608.065 182.027 608.039 181.838 608.016C181.652 607.99 181.473 607.976 181.298 607.976C180.923 607.976 180.586 608.058 180.287 608.221C179.991 608.38 179.759 608.601 179.588 608.886C179.418 609.17 179.332 609.497 179.332 609.869V614.999H177.276ZM185.974 615.175C185.421 615.175 184.923 615.077 184.48 614.88C184.041 614.679 183.692 614.384 183.435 613.994C183.181 613.603 183.054 613.122 183.054 612.55C183.054 612.058 183.145 611.651 183.327 611.329C183.509 611.007 183.757 610.749 184.071 610.556C184.385 610.363 184.74 610.217 185.134 610.119C185.531 610.016 185.942 609.942 186.366 609.897C186.878 609.844 187.293 609.797 187.611 609.755C187.929 609.709 188.16 609.641 188.304 609.55C188.452 609.456 188.526 609.31 188.526 609.113V609.079C188.526 608.651 188.399 608.319 188.145 608.084C187.891 607.85 187.526 607.732 187.048 607.732C186.545 607.732 186.145 607.842 185.849 608.062C185.558 608.281 185.361 608.541 185.259 608.84L183.338 608.567C183.49 608.037 183.74 607.594 184.088 607.238C184.437 606.878 184.863 606.609 185.366 606.431C185.87 606.249 186.427 606.158 187.037 606.158C187.457 606.158 187.876 606.208 188.293 606.306C188.709 606.405 189.09 606.567 189.435 606.795C189.779 607.018 190.056 607.323 190.264 607.709C190.476 608.096 190.582 608.579 190.582 609.158V614.999H188.605V613.8H188.537C188.412 614.043 188.236 614.27 188.009 614.482C187.785 614.69 187.503 614.859 187.162 614.988C186.825 615.113 186.429 615.175 185.974 615.175ZM186.509 613.664C186.921 613.664 187.279 613.583 187.582 613.42C187.885 613.253 188.118 613.033 188.281 612.761C188.448 612.488 188.531 612.19 188.531 611.869V610.84C188.467 610.893 188.357 610.942 188.202 610.988C188.05 611.033 187.88 611.073 187.69 611.107C187.501 611.141 187.313 611.172 187.128 611.198C186.942 611.225 186.781 611.247 186.645 611.266C186.338 611.308 186.063 611.376 185.821 611.471C185.579 611.565 185.387 611.698 185.247 611.869C185.107 612.035 185.037 612.251 185.037 612.516C185.037 612.895 185.175 613.181 185.452 613.374C185.728 613.567 186.08 613.664 186.509 613.664ZM197.009 606.272V607.863H191.991V606.272H197.009ZM193.23 604.181H195.287V612.374C195.287 612.651 195.329 612.863 195.412 613.011C195.499 613.155 195.613 613.253 195.753 613.306C195.893 613.359 196.048 613.386 196.219 613.386C196.348 613.386 196.465 613.376 196.571 613.357C196.681 613.338 196.764 613.321 196.821 613.306L197.168 614.914C197.058 614.952 196.901 614.994 196.696 615.039C196.495 615.084 196.249 615.111 195.957 615.119C195.442 615.134 194.978 615.056 194.565 614.886C194.152 614.711 193.825 614.442 193.582 614.079C193.344 613.715 193.226 613.261 193.23 612.715V604.181ZM202.499 615.17C201.624 615.17 200.868 614.988 200.232 614.624C199.599 614.257 199.112 613.738 198.771 613.067C198.43 612.393 198.26 611.6 198.26 610.687C198.26 609.789 198.43 609.001 198.771 608.323C199.116 607.641 199.597 607.111 200.214 606.732C200.832 606.35 201.557 606.158 202.391 606.158C202.929 606.158 203.436 606.245 203.913 606.42C204.394 606.59 204.819 606.855 205.186 607.215C205.557 607.575 205.849 608.033 206.061 608.59C206.273 609.143 206.379 609.802 206.379 610.567V611.198H199.226V609.812H204.408C204.404 609.418 204.319 609.067 204.152 608.761C203.985 608.45 203.752 608.206 203.453 608.028C203.158 607.85 202.813 607.761 202.419 607.761C201.999 607.761 201.629 607.863 201.311 608.067C200.993 608.268 200.745 608.533 200.567 608.863C200.393 609.189 200.304 609.547 200.3 609.937V611.147C200.3 611.655 200.393 612.09 200.578 612.454C200.764 612.814 201.023 613.09 201.357 613.283C201.69 613.473 202.08 613.567 202.527 613.567C202.826 613.567 203.097 613.526 203.339 613.442C203.582 613.355 203.792 613.228 203.97 613.062C204.148 612.895 204.283 612.689 204.374 612.442L206.294 612.658C206.173 613.166 205.942 613.609 205.601 613.988C205.264 614.363 204.832 614.655 204.305 614.863C203.779 615.067 203.177 615.17 202.499 615.17ZM215.895 615.17C215.024 615.17 214.276 614.978 213.651 614.596C213.029 614.213 212.55 613.685 212.213 613.011C211.88 612.333 211.713 611.552 211.713 610.67C211.713 609.783 211.884 609.001 212.224 608.323C212.565 607.641 213.046 607.111 213.668 606.732C214.293 606.35 215.031 606.158 215.884 606.158C216.592 606.158 217.219 606.289 217.764 606.55C218.313 606.808 218.751 607.173 219.077 607.647C219.402 608.117 219.588 608.666 219.634 609.295H217.668C217.588 608.874 217.399 608.524 217.099 608.244C216.804 607.959 216.408 607.817 215.912 607.817C215.491 607.817 215.122 607.931 214.804 608.158C214.486 608.382 214.238 608.704 214.06 609.124C213.885 609.545 213.798 610.048 213.798 610.636C213.798 611.23 213.885 611.742 214.06 612.17C214.234 612.594 214.478 612.922 214.793 613.153C215.111 613.38 215.484 613.494 215.912 613.494C216.215 613.494 216.486 613.437 216.724 613.323C216.967 613.206 217.17 613.037 217.332 612.817C217.495 612.598 217.607 612.331 217.668 612.016H219.634C219.584 612.634 219.402 613.181 219.088 613.658C218.774 614.132 218.346 614.503 217.804 614.772C217.262 615.037 216.626 615.17 215.895 615.17ZM225.129 615.17C224.277 615.17 223.538 614.982 222.913 614.607C222.288 614.232 221.804 613.708 221.459 613.033C221.118 612.359 220.947 611.571 220.947 610.67C220.947 609.768 221.118 608.978 221.459 608.3C221.804 607.622 222.288 607.096 222.913 606.721C223.538 606.346 224.277 606.158 225.129 606.158C225.982 606.158 226.72 606.346 227.345 606.721C227.97 607.096 228.453 607.622 228.794 608.3C229.139 608.978 229.311 609.768 229.311 610.67C229.311 611.571 229.139 612.359 228.794 613.033C228.453 613.708 227.97 614.232 227.345 614.607C226.72 614.982 225.982 615.17 225.129 615.17ZM225.141 613.522C225.603 613.522 225.989 613.395 226.3 613.141C226.61 612.884 226.841 612.539 226.993 612.107C227.148 611.675 227.226 611.194 227.226 610.664C227.226 610.13 227.148 609.647 226.993 609.215C226.841 608.78 226.61 608.433 226.3 608.175C225.989 607.918 225.603 607.789 225.141 607.789C224.667 607.789 224.273 607.918 223.959 608.175C223.648 608.433 223.415 608.78 223.26 609.215C223.108 609.647 223.033 610.13 223.033 610.664C223.033 611.194 223.108 611.675 223.26 612.107C223.415 612.539 223.648 612.884 223.959 613.141C224.273 613.395 224.667 613.522 225.141 613.522ZM233.114 609.886V614.999H231.057V606.272H233.023V607.755H233.125C233.326 607.266 233.646 606.878 234.085 606.59C234.528 606.302 235.076 606.158 235.727 606.158C236.33 606.158 236.854 606.287 237.301 606.545C237.752 606.802 238.1 607.175 238.347 607.664C238.597 608.153 238.72 608.745 238.716 609.442V614.999H236.659V609.761C236.659 609.177 236.508 608.721 236.205 608.391C235.905 608.062 235.491 607.897 234.96 607.897C234.6 607.897 234.28 607.976 234 608.136C233.723 608.291 233.506 608.516 233.347 608.812C233.191 609.107 233.114 609.465 233.114 609.886ZM249.134 606.272V607.863H244.116V606.272H249.134ZM245.355 604.181H247.412V612.374C247.412 612.651 247.454 612.863 247.537 613.011C247.624 613.155 247.738 613.253 247.878 613.306C248.018 613.359 248.173 613.386 248.344 613.386C248.473 613.386 248.59 613.376 248.696 613.357C248.806 613.338 248.889 613.321 248.946 613.306L249.293 614.914C249.183 614.952 249.026 614.994 248.821 615.039C248.62 615.084 248.374 615.111 248.082 615.119C247.567 615.134 247.103 615.056 246.69 614.886C246.277 614.711 245.95 614.442 245.707 614.079C245.469 613.715 245.351 613.261 245.355 612.715V604.181ZM256.416 611.329V606.272H258.473V614.999H256.479V613.448H256.388C256.191 613.937 255.867 614.336 255.416 614.647C254.969 614.958 254.418 615.113 253.763 615.113C253.191 615.113 252.685 614.986 252.246 614.732C251.81 614.475 251.469 614.101 251.223 613.613C250.977 613.12 250.854 612.526 250.854 611.829V606.272H252.911V611.511C252.911 612.064 253.062 612.503 253.365 612.829C253.668 613.155 254.066 613.317 254.558 613.317C254.861 613.317 255.155 613.244 255.439 613.096C255.723 612.948 255.956 612.728 256.138 612.437C256.323 612.141 256.416 611.772 256.416 611.329ZM264.557 614.999V606.272H266.523V607.755H266.625C266.807 607.255 267.108 606.865 267.528 606.584C267.949 606.3 268.451 606.158 269.034 606.158C269.625 606.158 270.123 606.302 270.528 606.59C270.938 606.874 271.225 607.262 271.392 607.755H271.483C271.676 607.27 272.002 606.884 272.46 606.596C272.922 606.304 273.47 606.158 274.102 606.158C274.905 606.158 275.561 606.412 276.068 606.92C276.576 607.427 276.83 608.168 276.83 609.141V614.999H274.767V609.459C274.767 608.918 274.623 608.522 274.335 608.272C274.047 608.018 273.695 607.891 273.278 607.891C272.782 607.891 272.394 608.047 272.114 608.357C271.837 608.664 271.699 609.064 271.699 609.556V614.999H269.682V609.374C269.682 608.923 269.545 608.564 269.273 608.295C269.004 608.026 268.652 607.891 268.216 607.891C267.92 607.891 267.652 607.967 267.409 608.119C267.167 608.266 266.973 608.476 266.83 608.749C266.686 609.018 266.614 609.333 266.614 609.692V614.999H264.557ZM281.428 615.175C280.875 615.175 280.376 615.077 279.933 614.88C279.494 614.679 279.145 614.384 278.888 613.994C278.634 613.603 278.507 613.122 278.507 612.55C278.507 612.058 278.598 611.651 278.78 611.329C278.962 611.007 279.21 610.749 279.524 610.556C279.839 610.363 280.193 610.217 280.587 610.119C280.984 610.016 281.395 609.942 281.82 609.897C282.331 609.844 282.746 609.797 283.064 609.755C283.382 609.709 283.613 609.641 283.757 609.55C283.905 609.456 283.979 609.31 283.979 609.113V609.079C283.979 608.651 283.852 608.319 283.598 608.084C283.344 607.85 282.979 607.732 282.501 607.732C281.998 607.732 281.598 607.842 281.303 608.062C281.011 608.281 280.814 608.541 280.712 608.84L278.791 608.567C278.943 608.037 279.193 607.594 279.541 607.238C279.89 606.878 280.316 606.609 280.82 606.431C281.323 606.249 281.88 606.158 282.49 606.158C282.911 606.158 283.329 606.208 283.746 606.306C284.162 606.405 284.543 606.567 284.888 606.795C285.232 607.018 285.509 607.323 285.717 607.709C285.929 608.096 286.036 608.579 286.036 609.158V614.999H284.058V613.8H283.99C283.865 614.043 283.689 614.27 283.462 614.482C283.238 614.69 282.956 614.859 282.615 614.988C282.278 615.113 281.882 615.175 281.428 615.175ZM281.962 613.664C282.375 613.664 282.732 613.583 283.036 613.42C283.339 613.253 283.571 613.033 283.734 612.761C283.901 612.488 283.984 612.19 283.984 611.869V610.84C283.92 610.893 283.81 610.942 283.655 610.988C283.503 611.033 283.333 611.073 283.143 611.107C282.954 611.141 282.767 611.172 282.581 611.198C282.395 611.225 282.234 611.247 282.098 611.266C281.791 611.308 281.517 611.376 281.274 611.471C281.032 611.565 280.84 611.698 280.7 611.869C280.56 612.035 280.49 612.251 280.49 612.516C280.49 612.895 280.628 613.181 280.905 613.374C281.181 613.567 281.534 613.664 281.962 613.664ZM295.001 608.579L293.126 608.783C293.073 608.594 292.981 608.416 292.848 608.249C292.719 608.083 292.545 607.948 292.325 607.846C292.106 607.744 291.837 607.692 291.518 607.692C291.09 607.692 290.731 607.785 290.439 607.971C290.151 608.156 290.009 608.397 290.013 608.692C290.009 608.946 290.102 609.153 290.291 609.312C290.484 609.471 290.803 609.601 291.246 609.704L292.734 610.022C293.56 610.2 294.174 610.482 294.575 610.869C294.981 611.255 295.185 611.761 295.189 612.386C295.185 612.935 295.024 613.42 294.706 613.84C294.392 614.257 293.954 614.583 293.393 614.817C292.833 615.052 292.189 615.17 291.462 615.17C290.393 615.17 289.534 614.946 288.882 614.499C288.231 614.048 287.842 613.422 287.717 612.619L289.723 612.425C289.814 612.819 290.007 613.117 290.303 613.317C290.598 613.518 290.982 613.619 291.456 613.619C291.945 613.619 292.337 613.518 292.632 613.317C292.931 613.117 293.081 612.869 293.081 612.573C293.081 612.323 292.984 612.117 292.791 611.954C292.602 611.791 292.306 611.666 291.905 611.579L290.416 611.266C289.579 611.092 288.96 610.798 288.558 610.386C288.157 609.969 287.958 609.442 287.962 608.806C287.958 608.268 288.104 607.802 288.399 607.408C288.698 607.011 289.113 606.704 289.643 606.488C290.178 606.268 290.793 606.158 291.49 606.158C292.513 606.158 293.318 606.376 293.905 606.812C294.496 607.247 294.861 607.836 295.001 608.579ZM300.692 615.17C299.821 615.17 299.072 614.978 298.447 614.596C297.826 614.213 297.347 613.685 297.01 613.011C296.677 612.333 296.51 611.552 296.51 610.67C296.51 609.783 296.68 609.001 297.021 608.323C297.362 607.641 297.843 607.111 298.464 606.732C299.089 606.35 299.828 606.158 300.68 606.158C301.389 606.158 302.016 606.289 302.561 606.55C303.11 606.808 303.548 607.173 303.874 607.647C304.199 608.117 304.385 608.666 304.43 609.295H302.464C302.385 608.874 302.196 608.524 301.896 608.244C301.601 607.959 301.205 607.817 300.709 607.817C300.288 607.817 299.919 607.931 299.601 608.158C299.283 608.382 299.035 608.704 298.857 609.124C298.682 609.545 298.595 610.048 298.595 610.636C298.595 611.23 298.682 611.742 298.857 612.17C299.031 612.594 299.275 612.922 299.589 613.153C299.908 613.38 300.281 613.494 300.709 613.494C301.012 613.494 301.283 613.437 301.521 613.323C301.764 613.206 301.966 613.037 302.129 612.817C302.292 612.598 302.404 612.331 302.464 612.016H304.43C304.381 612.634 304.199 613.181 303.885 613.658C303.571 614.132 303.143 614.503 302.601 614.772C302.059 615.037 301.423 615.17 300.692 615.17ZM309.926 615.17C309.074 615.17 308.335 614.982 307.71 614.607C307.085 614.232 306.6 613.708 306.256 613.033C305.915 612.359 305.744 611.571 305.744 610.67C305.744 609.768 305.915 608.978 306.256 608.3C306.6 607.622 307.085 607.096 307.71 606.721C308.335 606.346 309.074 606.158 309.926 606.158C310.778 606.158 311.517 606.346 312.142 606.721C312.767 607.096 313.25 607.622 313.591 608.3C313.936 608.978 314.108 609.768 314.108 610.67C314.108 611.571 313.936 612.359 313.591 613.033C313.25 613.708 312.767 614.232 312.142 614.607C311.517 614.982 310.778 615.17 309.926 615.17ZM309.938 613.522C310.4 613.522 310.786 613.395 311.097 613.141C311.407 612.884 311.638 612.539 311.79 612.107C311.945 611.675 312.023 611.194 312.023 610.664C312.023 610.13 311.945 609.647 311.79 609.215C311.638 608.78 311.407 608.433 311.097 608.175C310.786 607.918 310.4 607.789 309.938 607.789C309.464 607.789 309.07 607.918 308.756 608.175C308.445 608.433 308.212 608.78 308.057 609.215C307.905 609.647 307.83 610.13 307.83 610.664C307.83 611.194 307.905 611.675 308.057 612.107C308.212 612.539 308.445 612.884 308.756 613.141C309.07 613.395 309.464 613.522 309.938 613.522ZM320.212 606.272V607.863H315.195V606.272H320.212ZM316.433 604.181H318.49V612.374C318.49 612.651 318.532 612.863 318.615 613.011C318.702 613.155 318.816 613.253 318.956 613.306C319.096 613.359 319.251 613.386 319.422 613.386C319.551 613.386 319.668 613.376 319.774 613.357C319.884 613.338 319.967 613.321 320.024 613.306L320.371 614.914C320.261 614.952 320.104 614.994 319.899 615.039C319.698 615.084 319.452 615.111 319.161 615.119C318.645 615.134 318.181 615.056 317.768 614.886C317.356 614.711 317.028 614.442 316.786 614.079C316.547 613.715 316.429 613.261 316.433 612.715V604.181ZM324.443 615.175C323.89 615.175 323.392 615.077 322.949 614.88C322.509 614.679 322.161 614.384 321.903 613.994C321.65 613.603 321.523 613.122 321.523 612.55C321.523 612.058 321.614 611.651 321.795 611.329C321.977 611.007 322.225 610.749 322.54 610.556C322.854 610.363 323.208 610.217 323.602 610.119C324 610.016 324.411 609.942 324.835 609.897C325.347 609.844 325.761 609.797 326.08 609.755C326.398 609.709 326.629 609.641 326.773 609.55C326.92 609.456 326.994 609.31 326.994 609.113V609.079C326.994 608.651 326.867 608.319 326.614 608.084C326.36 607.85 325.994 607.732 325.517 607.732C325.013 607.732 324.614 607.842 324.318 608.062C324.027 608.281 323.83 608.541 323.727 608.84L321.807 608.567C321.958 608.037 322.208 607.594 322.557 607.238C322.905 606.878 323.331 606.609 323.835 606.431C324.339 606.249 324.896 606.158 325.506 606.158C325.926 606.158 326.345 606.208 326.761 606.306C327.178 606.405 327.559 606.567 327.903 606.795C328.248 607.018 328.525 607.323 328.733 607.709C328.945 608.096 329.051 608.579 329.051 609.158V614.999H327.074V613.8H327.006C326.881 614.043 326.705 614.27 326.477 614.482C326.254 614.69 325.972 614.859 325.631 614.988C325.294 615.113 324.898 615.175 324.443 615.175ZM324.977 613.664C325.39 613.664 325.748 613.583 326.051 613.42C326.354 613.253 326.587 613.033 326.75 612.761C326.917 612.488 327 612.19 327 611.869V610.84C326.936 610.893 326.826 610.942 326.67 610.988C326.519 611.033 326.348 611.073 326.159 611.107C325.97 611.141 325.782 611.172 325.597 611.198C325.411 611.225 325.25 611.247 325.114 611.266C324.807 611.308 324.532 611.376 324.29 611.471C324.047 611.565 323.856 611.698 323.716 611.869C323.576 612.035 323.506 612.251 323.506 612.516C323.506 612.895 323.644 613.181 323.92 613.374C324.197 613.567 324.549 613.664 324.977 613.664ZM333.636 603.363L333.449 611.579H331.619L331.438 603.363H333.636ZM332.534 615.124C332.189 615.124 331.894 615.003 331.648 614.761C331.405 614.518 331.284 614.223 331.284 613.874C331.284 613.533 331.405 613.242 331.648 612.999C331.894 612.757 332.189 612.636 332.534 612.636C332.871 612.636 333.163 612.757 333.409 612.999C333.659 613.242 333.784 613.533 333.784 613.874C333.784 614.105 333.725 614.315 333.608 614.505C333.494 614.694 333.343 614.846 333.153 614.959C332.968 615.069 332.761 615.124 332.534 615.124Z" fill="white"/>
<g filter="url(#filter0_d_890_6364)">
<rect x="19.2656" y="462.581" width="448" height="356" rx="16" transform="rotate(-90.4174 19.2656 462.581)" fill="#FFBF5F"/>
</g>
<path d="M57.2656 57.9993C57.2656 54.1333 60.3996 50.9993 64.2656 50.9993H326.266C331.236 50.9993 335.266 55.0287 335.266 59.9993V79.9993C335.266 84.9698 331.236 88.9993 326.266 88.9993H66.2656C61.2951 88.9993 57.2656 84.9698 57.2656 79.9993V57.9993Z" fill="#FFFDFB" stroke="#B9A78E" stroke-width="2"/>
<path d="M83.2259 64.3629V75.9993H81.3509L75.8679 68.0731H75.7713V75.9993H73.6634V64.3629H75.5497L81.027 72.2947H81.1293V64.3629H83.2259ZM89.2386 76.1697C88.3864 76.1697 87.6477 75.9822 87.0227 75.6072C86.3977 75.2322 85.9129 74.7076 85.5682 74.0334C85.2273 73.3591 85.0568 72.5712 85.0568 71.6697C85.0568 70.7682 85.2273 69.9784 85.5682 69.3004C85.9129 68.6224 86.3977 68.0959 87.0227 67.7209C87.6477 67.3459 88.3864 67.1584 89.2386 67.1584C90.0909 67.1584 90.8295 67.3459 91.4545 67.7209C92.0795 68.0959 92.5625 68.6224 92.9034 69.3004C93.2481 69.9784 93.4205 70.7682 93.4205 71.6697C93.4205 72.5712 93.2481 73.3591 92.9034 74.0334C92.5625 74.7076 92.0795 75.2322 91.4545 75.6072C90.8295 75.9822 90.0909 76.1697 89.2386 76.1697ZM89.25 74.522C89.7121 74.522 90.0985 74.3951 90.4091 74.1413C90.7197 73.8837 90.9508 73.539 91.1023 73.1072C91.2576 72.6754 91.3352 72.1943 91.3352 71.664C91.3352 71.1299 91.2576 70.647 91.1023 70.2152C90.9508 69.7796 90.7197 69.433 90.4091 69.1754C90.0985 68.9178 89.7121 68.789 89.25 68.789C88.7765 68.789 88.3826 68.9178 88.0682 69.1754C87.7576 69.433 87.5246 69.7796 87.3693 70.2152C87.2178 70.647 87.142 71.1299 87.142 71.664C87.142 72.1943 87.2178 72.6754 87.3693 73.1072C87.5246 73.539 87.7576 73.8837 88.0682 74.1413C88.3826 74.3951 88.7765 74.522 89.25 74.522ZM95.1662 75.9993V67.272H97.1321V68.7549H97.2344C97.4162 68.2549 97.7173 67.8648 98.1378 67.5845C98.5582 67.3004 99.0601 67.1584 99.6435 67.1584C100.234 67.1584 100.732 67.3023 101.138 67.5902C101.547 67.8743 101.835 68.2625 102.001 68.7549H102.092C102.286 68.2701 102.611 67.8837 103.07 67.5959C103.532 67.3042 104.079 67.1584 104.712 67.1584C105.515 67.1584 106.17 67.4121 106.678 67.9197C107.185 68.4273 107.439 69.1678 107.439 70.1413V75.9993H105.376V70.4595C105.376 69.9178 105.232 69.522 104.945 69.272C104.657 69.0182 104.304 68.8913 103.888 68.8913C103.392 68.8913 103.003 69.0466 102.723 69.3572C102.446 69.664 102.308 70.0637 102.308 70.5561V75.9993H100.291V70.3743C100.291 69.9235 100.155 69.5637 99.8821 69.2947C99.6132 69.0258 99.2609 68.8913 98.8253 68.8913C98.5298 68.8913 98.2609 68.9671 98.0185 69.1186C97.776 69.2663 97.5829 69.4765 97.4389 69.7493C97.295 70.0182 97.223 70.3326 97.223 70.6924V75.9993H95.1662ZM109.616 75.9993V64.3629H111.673V68.7152H111.759C111.865 68.5031 112.014 68.2777 112.207 68.039C112.401 67.7966 112.662 67.5902 112.991 67.4197C113.321 67.2455 113.741 67.1584 114.253 67.1584C114.927 67.1584 115.535 67.3307 116.077 67.6754C116.622 68.0163 117.054 68.522 117.372 69.1924C117.694 69.8591 117.855 70.6773 117.855 71.647C117.855 72.6053 117.698 73.4197 117.384 74.0902C117.069 74.7606 116.641 75.272 116.099 75.6243C115.558 75.9765 114.944 76.1527 114.259 76.1527C113.759 76.1527 113.344 76.0693 113.014 75.9027C112.685 75.736 112.42 75.5353 112.219 75.3004C112.022 75.0618 111.868 74.8364 111.759 74.6243H111.639V75.9993H109.616ZM111.634 71.6356C111.634 72.2 111.713 72.6943 111.872 73.1186C112.035 73.5428 112.268 73.8743 112.571 74.1129C112.878 74.3478 113.249 74.4652 113.685 74.4652C114.139 74.4652 114.52 74.344 114.827 74.1015C115.134 73.8553 115.365 73.5201 115.52 73.0959C115.679 72.6678 115.759 72.1811 115.759 71.6356C115.759 71.094 115.681 70.6129 115.526 70.1924C115.37 69.772 115.139 69.4424 114.832 69.2038C114.526 68.9652 114.143 68.8459 113.685 68.8459C113.245 68.8459 112.872 68.9614 112.565 69.1924C112.259 69.4235 112.026 69.7474 111.866 70.164C111.711 70.5807 111.634 71.0712 111.634 71.6356ZM119.604 75.9993V67.272H121.598V68.7265H121.689C121.848 68.2228 122.121 67.8345 122.507 67.5618C122.897 67.2853 123.342 67.147 123.842 67.147C123.956 67.147 124.083 67.1527 124.223 67.164C124.367 67.1716 124.486 67.1849 124.581 67.2038V69.0959C124.494 69.0656 124.356 69.039 124.166 69.0163C123.981 68.9898 123.801 68.9765 123.626 68.9765C123.251 68.9765 122.914 69.058 122.615 69.2209C122.32 69.3799 122.087 69.6015 121.916 69.8856C121.746 70.1697 121.661 70.4974 121.661 70.8686V75.9993H119.604ZM129.452 76.1697C128.577 76.1697 127.821 75.9879 127.185 75.6243C126.552 75.2568 126.065 74.7379 125.724 74.0674C125.384 73.3932 125.213 72.5996 125.213 71.6868C125.213 70.789 125.384 70.0012 125.724 69.3231C126.069 68.6413 126.55 68.111 127.168 67.7322C127.785 67.3496 128.51 67.1584 129.344 67.1584C129.882 67.1584 130.389 67.2455 130.866 67.4197C131.348 67.5902 131.772 67.8553 132.139 68.2152C132.51 68.575 132.802 69.0334 133.014 69.5902C133.226 70.1432 133.332 70.8023 133.332 71.5674V72.1981H126.179V70.8118H131.361C131.357 70.4178 131.272 70.0674 131.105 69.7606C130.938 69.45 130.705 69.2057 130.406 69.0277C130.111 68.8496 129.766 68.7606 129.372 68.7606C128.952 68.7606 128.582 68.8629 128.264 69.0674C127.946 69.2682 127.698 69.5334 127.52 69.8629C127.346 70.1887 127.257 70.5466 127.253 70.9368V72.147C127.253 72.6546 127.346 73.0902 127.531 73.4538C127.717 73.8137 127.976 74.0902 128.31 74.2834C128.643 74.4728 129.033 74.5674 129.48 74.5674C129.779 74.5674 130.05 74.5258 130.293 74.4424C130.535 74.3553 130.745 74.2284 130.923 74.0618C131.101 73.8951 131.236 73.6887 131.327 73.4424L133.247 73.6584C133.126 74.1659 132.895 74.6091 132.554 74.9879C132.217 75.3629 131.785 75.6546 131.259 75.8629C130.732 76.0674 130.13 76.1697 129.452 76.1697Z" fill="#4B4B4B"/>
<path d="M57.2656 157.999C57.2656 154.133 60.3996 150.999 64.2656 150.999H326.266C331.236 150.999 335.266 155.029 335.266 159.999V179.999C335.266 184.97 331.236 188.999 326.266 188.999H66.2656C61.2951 188.999 57.2656 184.97 57.2656 179.999V157.999Z" fill="#FFFDFB" stroke="#B9A78E" stroke-width="2"/>
<path d="M57.2656 257.999C57.2656 254.133 60.3996 250.999 64.2656 250.999H326.266C331.236 250.999 335.266 255.029 335.266 259.999V339.999C335.266 344.97 331.236 348.999 326.266 348.999H66.2656C61.2951 348.999 57.2656 344.97 57.2656 339.999V257.999Z" fill="#FFFDFB" stroke="#B9A78E" stroke-width="2"/>
<path d="M83.7876 169.289H81.6626C81.602 168.941 81.4903 168.632 81.3274 168.363C81.1645 168.09 80.9619 167.859 80.7195 167.67C80.477 167.48 80.2005 167.338 79.8899 167.244C79.5831 167.145 79.2517 167.096 78.8956 167.096C78.263 167.096 77.7024 167.255 77.2138 167.573C76.7251 167.888 76.3426 168.35 76.0661 168.959C75.7895 169.566 75.6513 170.306 75.6513 171.181C75.6513 172.071 75.7895 172.821 76.0661 173.431C76.3464 174.037 76.7289 174.495 77.2138 174.806C77.7024 175.113 78.2611 175.266 78.8899 175.266C79.2384 175.266 79.5642 175.221 79.8672 175.13C80.174 175.035 80.4486 174.897 80.6911 174.715C80.9373 174.533 81.1437 174.31 81.3104 174.045C81.4808 173.78 81.5982 173.477 81.6626 173.136L83.7876 173.147C83.7081 173.7 83.5357 174.219 83.2706 174.704C83.0092 175.189 82.6664 175.617 82.2422 175.988C81.8179 176.355 81.3217 176.643 80.7536 176.852C80.1854 177.056 79.5547 177.158 78.8615 177.158C77.8388 177.158 76.9259 176.922 76.1229 176.448C75.3198 175.975 74.6873 175.291 74.2251 174.397C73.763 173.503 73.532 172.431 73.532 171.181C73.532 169.927 73.7649 168.855 74.2308 167.965C74.6967 167.071 75.3312 166.388 76.1342 165.914C76.9373 165.441 77.8464 165.204 78.8615 165.204C79.5092 165.204 80.1115 165.295 80.6683 165.477C81.2251 165.658 81.7214 165.925 82.157 166.278C82.5926 166.626 82.9505 167.054 83.2308 167.562C83.5149 168.066 83.7005 168.641 83.7876 169.289ZM89.4339 177.17C88.5817 177.17 87.843 176.982 87.218 176.607C86.593 176.232 86.1082 175.708 85.7635 175.033C85.4226 174.359 85.2521 173.571 85.2521 172.67C85.2521 171.768 85.4226 170.978 85.7635 170.3C86.1082 169.622 86.593 169.096 87.218 168.721C87.843 168.346 88.5817 168.158 89.4339 168.158C90.2862 168.158 91.0249 168.346 91.6499 168.721C92.2749 169.096 92.7578 169.622 93.0987 170.3C93.4434 170.978 93.6158 171.768 93.6158 172.67C93.6158 173.571 93.4434 174.359 93.0987 175.033C92.7578 175.708 92.2749 176.232 91.6499 176.607C91.0249 176.982 90.2862 177.17 89.4339 177.17ZM89.4453 175.522C89.9074 175.522 90.2938 175.395 90.6044 175.141C90.915 174.884 91.1461 174.539 91.2976 174.107C91.4529 173.675 91.5305 173.194 91.5305 172.664C91.5305 172.13 91.4529 171.647 91.2976 171.215C91.1461 170.78 90.915 170.433 90.6044 170.175C90.2938 169.918 89.9074 169.789 89.4453 169.789C88.9718 169.789 88.5779 169.918 88.2635 170.175C87.9529 170.433 87.7199 170.78 87.5646 171.215C87.4131 171.647 87.3374 172.13 87.3374 172.664C87.3374 173.194 87.4131 173.675 87.5646 174.107C87.7199 174.539 87.9529 174.884 88.2635 175.141C88.5779 175.395 88.9718 175.522 89.4453 175.522ZM95.3615 176.999V168.272H97.3558V169.727H97.4467C97.6058 169.223 97.8786 168.834 98.2649 168.562C98.6551 168.285 99.1001 168.147 99.6001 168.147C99.7138 168.147 99.8407 168.153 99.9808 168.164C100.125 168.172 100.244 168.185 100.339 168.204V170.096C100.252 170.066 100.113 170.039 99.924 170.016C99.7384 169.99 99.5585 169.977 99.3842 169.977C99.0092 169.977 98.6721 170.058 98.3729 170.221C98.0774 170.38 97.8445 170.602 97.674 170.886C97.5036 171.17 97.4183 171.497 97.4183 171.869V176.999H95.3615ZM101.705 176.999V168.272H103.7V169.727H103.79C103.95 169.223 104.222 168.834 104.609 168.562C104.999 168.285 105.444 168.147 105.944 168.147C106.058 168.147 106.184 168.153 106.325 168.164C106.469 168.172 106.588 168.185 106.683 168.204V170.096C106.595 170.066 106.457 170.039 106.268 170.016C106.082 169.99 105.902 169.977 105.728 169.977C105.353 169.977 105.016 170.058 104.717 170.221C104.421 170.38 104.188 170.602 104.018 170.886C103.847 171.17 103.762 171.497 103.762 171.869V176.999H101.705ZM111.553 177.17C110.678 177.17 109.923 176.988 109.286 176.624C108.654 176.257 108.167 175.738 107.826 175.067C107.485 174.393 107.315 173.6 107.315 172.687C107.315 171.789 107.485 171.001 107.826 170.323C108.171 169.641 108.652 169.111 109.269 168.732C109.887 168.35 110.612 168.158 111.445 168.158C111.983 168.158 112.491 168.245 112.968 168.42C113.449 168.59 113.873 168.855 114.241 169.215C114.612 169.575 114.904 170.033 115.116 170.59C115.328 171.143 115.434 171.802 115.434 172.567V173.198H108.281V171.812H113.462C113.459 171.418 113.373 171.067 113.207 170.761C113.04 170.45 112.807 170.206 112.508 170.028C112.212 169.85 111.868 169.761 111.474 169.761C111.053 169.761 110.684 169.863 110.366 170.067C110.048 170.268 109.799 170.533 109.621 170.863C109.447 171.189 109.358 171.547 109.354 171.937V173.147C109.354 173.655 109.447 174.09 109.633 174.454C109.818 174.814 110.078 175.09 110.411 175.283C110.745 175.473 111.135 175.567 111.582 175.567C111.881 175.567 112.152 175.526 112.394 175.442C112.637 175.355 112.847 175.228 113.025 175.062C113.203 174.895 113.337 174.689 113.428 174.442L115.349 174.658C115.228 175.166 114.996 175.609 114.656 175.988C114.318 176.363 113.887 176.655 113.36 176.863C112.834 177.067 112.231 177.17 111.553 177.17ZM120.981 177.17C120.129 177.17 119.39 176.982 118.765 176.607C118.14 176.232 117.655 175.708 117.31 175.033C116.969 174.359 116.799 173.571 116.799 172.67C116.799 171.768 116.969 170.978 117.31 170.3C117.655 169.622 118.14 169.096 118.765 168.721C119.39 168.346 120.129 168.158 120.981 168.158C121.833 168.158 122.572 168.346 123.197 168.721C123.822 169.096 124.305 169.622 124.646 170.3C124.99 170.978 125.163 171.768 125.163 172.67C125.163 173.571 124.99 174.359 124.646 175.033C124.305 175.708 123.822 176.232 123.197 176.607C122.572 176.982 121.833 177.17 120.981 177.17ZM120.992 175.522C121.454 175.522 121.841 175.395 122.151 175.141C122.462 174.884 122.693 174.539 122.844 174.107C123 173.675 123.077 173.194 123.077 172.664C123.077 172.13 123 171.647 122.844 171.215C122.693 170.78 122.462 170.433 122.151 170.175C121.841 169.918 121.454 169.789 120.992 169.789C120.519 169.789 120.125 169.918 119.81 170.175C119.5 170.433 119.267 170.78 119.112 171.215C118.96 171.647 118.884 172.13 118.884 172.664C118.884 173.194 118.96 173.675 119.112 174.107C119.267 174.539 119.5 174.884 119.81 175.141C120.125 175.395 120.519 175.522 120.992 175.522Z" fill="#4B4B4B"/>
<path d="M73.7337 264.363H76.3132L79.7678 272.795H79.9041L83.3587 264.363H85.9382V275.999H83.9155V268.005H83.8075L80.5916 275.965H79.0803L75.8643 267.988H75.7564V275.999H73.7337V264.363ZM92.0064 276.17C91.1314 276.17 90.3757 275.988 89.7393 275.624C89.1068 275.257 88.62 274.738 88.2791 274.067C87.9382 273.393 87.7678 272.6 87.7678 271.687C87.7678 270.789 87.9382 270.001 88.2791 269.323C88.6238 268.641 89.1049 268.111 89.7223 267.732C90.3397 267.35 91.0651 267.158 91.8984 267.158C92.4363 267.158 92.9439 267.245 93.4212 267.42C93.9022 267.59 94.3265 267.855 94.6939 268.215C95.0651 268.575 95.3568 269.033 95.5689 269.59C95.781 270.143 95.8871 270.802 95.8871 271.567V272.198H88.7337V270.812H93.9155C93.9117 270.418 93.8265 270.067 93.6598 269.761C93.4931 269.45 93.2602 269.206 92.9609 269.028C92.6655 268.85 92.3208 268.761 91.9268 268.761C91.5064 268.761 91.1371 268.863 90.8189 269.067C90.5007 269.268 90.2526 269.533 90.0746 269.863C89.9003 270.189 89.8113 270.547 89.8075 270.937V272.147C89.8075 272.655 89.9003 273.09 90.0859 273.454C90.2715 273.814 90.531 274.09 90.8643 274.283C91.1977 274.473 91.5878 274.567 92.0348 274.567C92.334 274.567 92.6049 274.526 92.8473 274.442C93.0897 274.355 93.3 274.228 93.478 274.062C93.656 273.895 93.7905 273.689 93.8814 273.442L95.8018 273.658C95.6806 274.166 95.4496 274.609 95.1087 274.988C94.7715 275.363 94.3397 275.655 93.8132 275.863C93.2867 276.067 92.6844 276.17 92.0064 276.17ZM99.6839 270.886V275.999H97.6271V267.272H99.593V268.755H99.6953C99.8961 268.266 100.216 267.878 100.656 267.59C101.099 267.302 101.646 267.158 102.298 267.158C102.9 267.158 103.424 267.287 103.871 267.545C104.322 267.802 104.671 268.175 104.917 268.664C105.167 269.153 105.29 269.745 105.286 270.442V275.999H103.229V270.761C103.229 270.177 103.078 269.721 102.775 269.391C102.476 269.062 102.061 268.897 101.531 268.897C101.171 268.897 100.851 268.977 100.57 269.136C100.294 269.291 100.076 269.516 99.9169 269.812C99.7616 270.107 99.6839 270.465 99.6839 270.886ZM114.275 269.579L112.4 269.783C112.347 269.594 112.254 269.416 112.121 269.249C111.993 269.083 111.818 268.948 111.599 268.846C111.379 268.744 111.11 268.692 110.792 268.692C110.364 268.692 110.004 268.785 109.712 268.971C109.424 269.156 109.282 269.397 109.286 269.692C109.282 269.946 109.375 270.153 109.565 270.312C109.758 270.471 110.076 270.602 110.519 270.704L112.008 271.022C112.834 271.2 113.447 271.482 113.849 271.869C114.254 272.255 114.459 272.761 114.462 273.386C114.459 273.935 114.298 274.42 113.979 274.84C113.665 275.257 113.228 275.583 112.667 275.817C112.106 276.052 111.462 276.17 110.735 276.17C109.667 276.17 108.807 275.946 108.156 275.499C107.504 275.049 107.116 274.422 106.991 273.619L108.996 273.425C109.087 273.819 109.281 274.117 109.576 274.317C109.871 274.518 110.256 274.619 110.729 274.619C111.218 274.619 111.61 274.518 111.906 274.317C112.205 274.117 112.354 273.869 112.354 273.573C112.354 273.323 112.258 273.117 112.065 272.954C111.875 272.791 111.58 272.666 111.178 272.579L109.69 272.266C108.853 272.092 108.233 271.799 107.832 271.386C107.43 270.969 107.231 270.442 107.235 269.806C107.231 269.268 107.377 268.802 107.673 268.408C107.972 268.011 108.387 267.704 108.917 267.488C109.451 267.268 110.067 267.158 110.763 267.158C111.786 267.158 112.591 267.376 113.178 267.812C113.769 268.247 114.135 268.836 114.275 269.579ZM118.67 276.175C118.117 276.175 117.619 276.077 117.175 275.88C116.736 275.679 116.388 275.384 116.13 274.994C115.876 274.603 115.749 274.122 115.749 273.55C115.749 273.058 115.84 272.651 116.022 272.329C116.204 272.007 116.452 271.749 116.766 271.556C117.081 271.363 117.435 271.217 117.829 271.119C118.227 271.016 118.638 270.942 119.062 270.897C119.573 270.844 119.988 270.797 120.306 270.755C120.624 270.709 120.855 270.641 120.999 270.55C121.147 270.456 121.221 270.31 121.221 270.113V270.079C121.221 269.651 121.094 269.319 120.84 269.084C120.586 268.85 120.221 268.732 119.744 268.732C119.24 268.732 118.84 268.842 118.545 269.062C118.253 269.281 118.056 269.541 117.954 269.84L116.033 269.567C116.185 269.037 116.435 268.594 116.783 268.238C117.132 267.878 117.558 267.609 118.062 267.431C118.566 267.249 119.122 267.158 119.732 267.158C120.153 267.158 120.571 267.208 120.988 267.306C121.405 267.405 121.785 267.567 122.13 267.795C122.475 268.018 122.751 268.323 122.96 268.709C123.172 269.096 123.278 269.579 123.278 270.158V275.999H121.3V274.8H121.232C121.107 275.043 120.931 275.27 120.704 275.482C120.48 275.691 120.198 275.859 119.857 275.988C119.52 276.113 119.124 276.175 118.67 276.175ZM119.204 274.664C119.617 274.664 119.975 274.583 120.278 274.42C120.581 274.253 120.814 274.033 120.977 273.761C121.143 273.488 121.227 273.191 121.227 272.869V271.84C121.162 271.893 121.052 271.942 120.897 271.988C120.746 272.033 120.575 272.073 120.386 272.107C120.196 272.141 120.009 272.172 119.823 272.198C119.638 272.225 119.477 272.247 119.34 272.266C119.033 272.308 118.759 272.376 118.516 272.471C118.274 272.566 118.083 272.698 117.942 272.869C117.802 273.035 117.732 273.251 117.732 273.516C117.732 273.895 117.871 274.181 118.147 274.374C118.424 274.567 118.776 274.664 119.204 274.664ZM125.346 267.272H127.403V276.499C127.403 277.128 127.283 277.647 127.045 278.056C126.806 278.465 126.461 278.77 126.011 278.971C125.56 279.172 125.013 279.272 124.369 279.272C124.293 279.272 124.223 279.27 124.158 279.266C124.094 279.266 124.024 279.264 123.948 279.261V277.584C124.005 277.588 124.056 277.59 124.102 277.59C124.147 277.594 124.194 277.596 124.244 277.596C124.638 277.596 124.92 277.499 125.09 277.306C125.261 277.117 125.346 276.838 125.346 276.471V267.272ZM126.369 266.033C126.039 266.033 125.757 265.925 125.522 265.709C125.291 265.49 125.175 265.227 125.175 264.92C125.175 264.609 125.291 264.346 125.522 264.13C125.757 263.91 126.039 263.8 126.369 263.8C126.694 263.8 126.973 263.91 127.204 264.13C127.439 264.346 127.556 264.609 127.556 264.92C127.556 265.227 127.439 265.49 127.204 265.709C126.973 265.925 126.694 266.033 126.369 266.033ZM133.381 276.17C132.506 276.17 131.751 275.988 131.114 275.624C130.482 275.257 129.995 274.738 129.654 274.067C129.313 273.393 129.143 272.6 129.143 271.687C129.143 270.789 129.313 270.001 129.654 269.323C129.999 268.641 130.48 268.111 131.097 267.732C131.715 267.35 132.44 267.158 133.273 267.158C133.811 267.158 134.319 267.245 134.796 267.42C135.277 267.59 135.701 267.855 136.069 268.215C136.44 268.575 136.732 269.033 136.944 269.59C137.156 270.143 137.262 270.802 137.262 271.567V272.198H130.109V270.812H135.29C135.287 270.418 135.201 270.067 135.035 269.761C134.868 269.45 134.635 269.206 134.336 269.028C134.04 268.85 133.696 268.761 133.302 268.761C132.881 268.761 132.512 268.863 132.194 269.067C131.876 269.268 131.628 269.533 131.45 269.863C131.275 270.189 131.186 270.547 131.183 270.937V272.147C131.183 272.655 131.275 273.09 131.461 273.454C131.647 273.814 131.906 274.09 132.239 274.283C132.573 274.473 132.963 274.567 133.41 274.567C133.709 274.567 133.98 274.526 134.222 274.442C134.465 274.355 134.675 274.228 134.853 274.062C135.031 273.895 135.165 273.689 135.256 273.442L137.177 273.658C137.056 274.166 136.825 274.609 136.484 274.988C136.147 275.363 135.715 275.655 135.188 275.863C134.662 276.067 134.059 276.17 133.381 276.17Z" fill="#4B4B4B"/>
<rect x="55.2656" y="381.999" width="282" height="40" rx="8" fill="#D84E2E"/>
<path d="M173.374 407.999V396.363H180.942V398.13H175.482V401.289H180.55V403.056H175.482V406.232H180.988V407.999H173.374ZM185.059 402.886V407.999H183.002V399.272H184.968V400.755H185.07C185.271 400.266 185.591 399.878 186.031 399.59C186.474 399.302 187.021 399.158 187.673 399.158C188.275 399.158 188.799 399.287 189.246 399.545C189.697 399.802 190.046 400.175 190.292 400.664C190.542 401.153 190.665 401.745 190.661 402.442V407.999H188.604V402.761C188.604 402.177 188.453 401.721 188.15 401.391C187.851 401.062 187.436 400.897 186.906 400.897C186.546 400.897 186.226 400.977 185.945 401.136C185.669 401.291 185.451 401.516 185.292 401.812C185.137 402.107 185.059 402.465 185.059 402.886ZM200.235 399.272L197.127 407.999H194.854L191.746 399.272H193.94L195.945 405.755H196.036L198.048 399.272H200.235ZM201.658 407.999V399.272H203.715V407.999H201.658ZM202.692 398.033C202.367 398.033 202.086 397.925 201.852 397.709C201.617 397.49 201.499 397.227 201.499 396.92C201.499 396.609 201.617 396.346 201.852 396.13C202.086 395.91 202.367 395.8 202.692 395.8C203.022 395.8 203.302 395.91 203.533 396.13C203.768 396.346 203.886 396.609 203.886 396.92C203.886 397.227 203.768 397.49 203.533 397.709C203.302 397.925 203.022 398.033 202.692 398.033ZM208.342 408.175C207.789 408.175 207.29 408.077 206.847 407.88C206.408 407.679 206.059 407.384 205.802 406.994C205.548 406.603 205.421 406.122 205.421 405.55C205.421 405.058 205.512 404.651 205.694 404.329C205.876 404.007 206.124 403.749 206.438 403.556C206.753 403.363 207.107 403.217 207.501 403.119C207.898 403.016 208.309 402.942 208.734 402.897C209.245 402.844 209.66 402.797 209.978 402.755C210.296 402.709 210.527 402.641 210.671 402.55C210.819 402.456 210.893 402.31 210.893 402.113V402.079C210.893 401.651 210.766 401.319 210.512 401.084C210.258 400.85 209.893 400.732 209.415 400.732C208.912 400.732 208.512 400.842 208.217 401.062C207.925 401.281 207.728 401.541 207.626 401.84L205.705 401.567C205.857 401.037 206.107 400.594 206.455 400.238C206.804 399.878 207.23 399.609 207.734 399.431C208.237 399.249 208.794 399.158 209.404 399.158C209.825 399.158 210.243 399.208 210.66 399.306C211.076 399.405 211.457 399.567 211.802 399.795C212.147 400.018 212.423 400.323 212.631 400.709C212.844 401.096 212.95 401.579 212.95 402.158V407.999H210.972V406.8H210.904C210.779 407.043 210.603 407.27 210.376 407.482C210.152 407.691 209.87 407.859 209.529 407.988C209.192 408.113 208.796 408.175 208.342 408.175ZM208.876 406.664C209.289 406.664 209.647 406.583 209.95 406.42C210.253 406.253 210.486 406.033 210.648 405.761C210.815 405.488 210.898 405.191 210.898 404.869V403.84C210.834 403.893 210.724 403.942 210.569 403.988C210.417 404.033 210.247 404.073 210.058 404.107C209.868 404.141 209.681 404.172 209.495 404.198C209.309 404.225 209.148 404.247 209.012 404.266C208.705 404.308 208.431 404.376 208.188 404.471C207.946 404.566 207.754 404.698 207.614 404.869C207.474 405.035 207.404 405.251 207.404 405.516C207.404 405.895 207.542 406.181 207.819 406.374C208.095 406.567 208.448 406.664 208.876 406.664ZM215.018 407.999V399.272H217.012V400.727H217.103C217.262 400.223 217.535 399.834 217.921 399.562C218.311 399.285 218.756 399.147 219.256 399.147C219.37 399.147 219.497 399.153 219.637 399.164C219.781 399.172 219.9 399.185 219.995 399.204V401.096C219.908 401.066 219.77 401.039 219.58 401.016C219.395 400.99 219.215 400.977 219.04 400.977C218.665 400.977 218.328 401.058 218.029 401.221C217.734 401.38 217.501 401.602 217.33 401.886C217.16 402.17 217.075 402.497 217.075 402.869V407.999H215.018Z" fill="white"/>
<defs>
<filter id="filter0_d_890_6364" x="0.117188" y="0.116211" width="391.023" height="482.349" filterUnits="userSpaceOnUse" color-interpolation-filters="sRGB">
<feFlood flood-opacity="0" result="BackgroundImageFix"/>
<feColorMatrix in="SourceAlpha" type="matrix" values="0 0 0 0 0 0 0 0 0 0 0 0 0 0 0 0 0 0 127 0" result="hardAlpha"/>
<feOffset dy="4"/>
<feGaussianBlur stdDeviation="8"/>
<feComposite in2="hardAlpha" operator="out"/>
<feColorMatrix type="matrix" values="0 0 0 0 0 0 0 0 0 0 0 0 0 0 0 0 0 0 0.16 0"/>
<feBlend mode="normal" in2="BackgroundImageFix" result="effect1_dropShadow_890_6364"/>
<feBlend mode="normal" in="SourceGraphic" in2="effect1_dropShadow_890_6364" result="shape"/>
</filter>
</defs>
</svg>
