<svg width="128" height="48" viewBox="0 0 128 48" fill="none" xmlns="http://www.w3.org/2000/svg">
<g filter="url(#filter0_d_890_6371)">
<rect x="4" width="120" height="40" rx="8" fill="#FBFAFA" shape-rendering="crispEdges"/>
<path d="M44.9496 31.1818V9.36364H46.3473V31.1818H44.9496ZM48.9808 16.3438C48.9013 15.5994 48.5661 15.0199 47.9751 14.6051C47.3899 14.1903 46.6286 13.983 45.6911 13.983C45.032 13.983 44.4666 14.0824 43.995 14.2812C43.5234 14.4801 43.1626 14.75 42.9126 15.0909C42.6626 15.4318 42.5348 15.821 42.5291 16.2585C42.5291 16.6222 42.6115 16.9375 42.7763 17.2045C42.9467 17.4716 43.1768 17.6989 43.4666 17.8864C43.7564 18.0682 44.0774 18.2216 44.4297 18.3466C44.782 18.4716 45.1371 18.5767 45.495 18.6619L47.1314 19.071C47.7905 19.2244 48.424 19.4318 49.032 19.6932C49.6456 19.9545 50.1939 20.2841 50.6768 20.6818C51.1655 21.0795 51.5518 21.5597 51.8359 22.1222C52.12 22.6847 52.2621 23.3437 52.2621 24.0994C52.2621 25.1222 52.0007 26.0227 51.478 26.8011C50.9553 27.5739 50.1996 28.179 49.2109 28.6165C48.228 29.0483 47.0376 29.2642 45.6399 29.2642C44.282 29.2642 43.103 29.054 42.103 28.6335C41.1087 28.2131 40.3303 27.5994 39.7678 26.7926C39.2109 25.9858 38.9098 25.0028 38.8643 23.8438H41.9751C42.0206 24.4517 42.2081 24.9574 42.5376 25.3608C42.8672 25.7642 43.2962 26.0653 43.8246 26.2642C44.3587 26.4631 44.9553 26.5625 45.6143 26.5625C46.3018 26.5625 46.9041 26.4602 47.4212 26.2557C47.9439 26.0455 48.353 25.7557 48.6484 25.3864C48.9439 25.0114 49.0945 24.5739 49.1001 24.0739C49.0945 23.6193 48.9609 23.2443 48.6996 22.9489C48.4382 22.6477 48.0717 22.3977 47.6001 22.1989C47.1342 21.9943 46.5888 21.8125 45.9638 21.6534L43.978 21.142C42.5405 20.7727 41.4041 20.2131 40.5689 19.4631C39.7393 18.7074 39.3246 17.7045 39.3246 16.4545C39.3246 15.4261 39.603 14.5256 40.1598 13.7528C40.7223 12.9801 41.4865 12.3807 42.4524 11.9545C43.4183 11.5227 44.5121 11.3068 45.7337 11.3068C46.9723 11.3068 48.0575 11.5227 48.9893 11.9545C49.9268 12.3807 50.6626 12.9744 51.1967 13.7358C51.7308 14.4915 52.0064 15.3608 52.0234 16.3438H48.9808ZM60.8636 29V26.7159L66.9233 20.7756C67.5028 20.1903 67.9858 19.6705 68.3722 19.2159C68.7585 18.7614 69.0483 18.321 69.2415 17.8949C69.4347 17.4687 69.5312 17.0142 69.5312 16.5312C69.5312 15.9801 69.4062 15.5085 69.1562 15.1165C68.9062 14.7188 68.5625 14.4119 68.125 14.196C67.6875 13.9801 67.1903 13.8722 66.6335 13.8722C66.0597 13.8722 65.5568 13.9915 65.125 14.2301C64.6932 14.4631 64.358 14.7955 64.1193 15.2273C63.8864 15.6591 63.7699 16.1733 63.7699 16.7699H60.7614C60.7614 15.6619 61.0142 14.6989 61.5199 13.8807C62.0256 13.0625 62.7216 12.429 63.608 11.9801C64.5 11.5312 65.5227 11.3068 66.6761 11.3068C67.8466 11.3068 68.875 11.5256 69.7614 11.9631C70.6477 12.4006 71.3352 13 71.8239 13.7614C72.3182 14.5227 72.5653 15.392 72.5653 16.3693C72.5653 17.0227 72.4403 17.6648 72.1903 18.2955C71.9403 18.9261 71.5 19.625 70.8693 20.392C70.2443 21.1591 69.3665 22.0881 68.2358 23.179L65.2273 26.2386V26.358H72.8295V29H60.8636ZM82.2216 29.3324C80.8182 29.3324 79.6136 28.9773 78.608 28.267C77.608 27.5511 76.8381 26.5199 76.2983 25.1733C75.7642 23.821 75.4972 22.1932 75.4972 20.2898C75.5028 18.3864 75.7727 16.767 76.3068 15.4318C76.8466 14.0909 77.6165 13.0682 78.6165 12.3636C79.6222 11.6591 80.8239 11.3068 82.2216 11.3068C83.6193 11.3068 84.821 11.6591 85.8267 12.3636C86.8324 13.0682 87.6023 14.0909 88.1364 15.4318C88.6761 16.7727 88.946 18.392 88.946 20.2898C88.946 22.1989 88.6761 23.8295 88.1364 25.1818C87.6023 26.5284 86.8324 27.5568 85.8267 28.267C84.8267 28.9773 83.625 29.3324 82.2216 29.3324ZM82.2216 26.6648C83.3125 26.6648 84.1733 26.1278 84.804 25.054C85.4403 23.9744 85.7585 22.3864 85.7585 20.2898C85.7585 18.9034 85.6136 17.7386 85.3239 16.7955C85.0341 15.8523 84.625 15.142 84.0966 14.6648C83.5682 14.1818 82.9432 13.9403 82.2216 13.9403C81.1364 13.9403 80.2784 14.4801 79.6477 15.5597C79.017 16.6335 78.6989 18.2102 78.6932 20.2898C78.6875 21.6818 78.8267 22.8523 79.1108 23.8011C79.4006 24.75 79.8097 25.4659 80.3381 25.9489C80.8665 26.4261 81.4943 26.6648 82.2216 26.6648Z" fill="#F39200"/>
</g>
<defs>
<filter id="filter0_d_890_6371" x="0" y="0" width="128" height="48" filterUnits="userSpaceOnUse" color-interpolation-filters="sRGB">
<feFlood flood-opacity="0" result="BackgroundImageFix"/>
<feColorMatrix in="SourceAlpha" type="matrix" values="0 0 0 0 0 0 0 0 0 0 0 0 0 0 0 0 0 0 127 0" result="hardAlpha"/>
<feOffset dy="4"/>
<feGaussianBlur stdDeviation="2"/>
<feComposite in2="hardAlpha" operator="out"/>
<feColorMatrix type="matrix" values="0 0 0 0 0 0 0 0 0 0 0 0 0 0 0 0 0 0 0.25 0"/>
<feBlend mode="normal" in2="BackgroundImageFix" result="effect1_dropShadow_890_6371"/>
<feBlend mode="normal" in="SourceGraphic" in2="effect1_dropShadow_890_6371" result="shape"/>
</filter>
</defs>
</svg>
