<svg width="368" height="448" viewBox="0 0 368 448" fill="none" xmlns="http://www.w3.org/2000/svg">
<g filter="url(#filter0_d_890_6369)">
<rect x="4" y="400" width="360" height="40" rx="8" fill="#FFFDFB" shape-rendering="crispEdges"/>
<path d="M161.233 427H156.304V412.455H161.332C162.776 412.455 164.017 412.746 165.054 413.328C166.095 413.906 166.896 414.737 167.454 415.821C168.013 416.905 168.292 418.203 168.292 419.713C168.292 421.228 168.011 422.53 167.447 423.619C166.889 424.708 166.081 425.544 165.025 426.126C163.974 426.709 162.71 427 161.233 427ZM158.939 424.72H161.105C162.118 424.72 162.963 424.536 163.64 424.166C164.318 423.792 164.827 423.236 165.167 422.497C165.508 421.754 165.679 420.826 165.679 419.713C165.679 418.6 165.508 417.677 165.167 416.943C164.827 416.205 164.322 415.653 163.655 415.288C162.992 414.919 162.168 414.734 161.183 414.734H158.939V424.72ZM175.441 427.213C174.376 427.213 173.452 426.979 172.671 426.51C171.89 426.041 171.284 425.385 170.853 424.543C170.427 423.7 170.214 422.715 170.214 421.588C170.214 420.461 170.427 419.474 170.853 418.626C171.284 417.779 171.89 417.121 172.671 416.652C173.452 416.183 174.376 415.949 175.441 415.949C176.506 415.949 177.43 416.183 178.211 416.652C178.992 417.121 179.596 417.779 180.022 418.626C180.453 419.474 180.668 420.461 180.668 421.588C180.668 422.715 180.453 423.7 180.022 424.543C179.596 425.385 178.992 426.041 178.211 426.51C177.43 426.979 176.506 427.213 175.441 427.213ZM175.455 425.153C176.033 425.153 176.516 424.995 176.904 424.678C177.292 424.356 177.581 423.925 177.77 423.385C177.965 422.845 178.062 422.244 178.062 421.581C178.062 420.913 177.965 420.31 177.77 419.77C177.581 419.225 177.292 418.792 176.904 418.47C176.516 418.148 176.033 417.987 175.455 417.987C174.863 417.987 174.371 418.148 173.978 418.47C173.59 418.792 173.298 419.225 173.104 419.77C172.915 420.31 172.82 420.913 172.82 421.581C172.82 422.244 172.915 422.845 173.104 423.385C173.298 423.925 173.59 424.356 173.978 424.678C174.371 424.995 174.863 425.153 175.455 425.153ZM185.421 420.608V427H182.85V416.091H185.308V417.945H185.436C185.686 417.334 186.087 416.848 186.636 416.489C187.19 416.129 187.874 415.949 188.688 415.949C189.441 415.949 190.097 416.11 190.656 416.432C191.219 416.754 191.655 417.22 191.963 417.831C192.275 418.442 192.429 419.183 192.424 420.054V427H189.853V420.452C189.853 419.723 189.664 419.152 189.285 418.74C188.911 418.328 188.392 418.122 187.73 418.122C187.28 418.122 186.88 418.222 186.529 418.42C186.184 418.615 185.911 418.896 185.713 419.266C185.518 419.635 185.421 420.082 185.421 420.608ZM198.177 427.22C197.486 427.22 196.863 427.097 196.309 426.851C195.76 426.6 195.324 426.231 195.002 425.743C194.685 425.255 194.526 424.654 194.526 423.939C194.526 423.323 194.64 422.814 194.867 422.412C195.095 422.009 195.405 421.688 195.798 421.446C196.191 421.205 196.633 421.022 197.126 420.899C197.623 420.771 198.137 420.679 198.667 420.622C199.306 420.556 199.825 420.497 200.222 420.445C200.62 420.388 200.909 420.303 201.089 420.189C201.274 420.071 201.366 419.888 201.366 419.642V419.599C201.366 419.064 201.207 418.65 200.89 418.357C200.573 418.063 200.116 417.916 199.519 417.916C198.89 417.916 198.39 418.054 198.021 418.328C197.656 418.603 197.41 418.927 197.282 419.301L194.882 418.96C195.071 418.297 195.383 417.743 195.819 417.298C196.255 416.848 196.787 416.512 197.417 416.29C198.047 416.062 198.743 415.949 199.505 415.949C200.031 415.949 200.554 416.01 201.075 416.134C201.596 416.257 202.071 416.46 202.502 416.744C202.933 417.024 203.279 417.405 203.539 417.888C203.804 418.371 203.937 418.974 203.937 419.699V427H201.465V425.501H201.38C201.224 425.804 201.004 426.089 200.72 426.354C200.44 426.614 200.088 426.825 199.661 426.986C199.24 427.142 198.745 427.22 198.177 427.22ZM198.845 425.331C199.361 425.331 199.808 425.229 200.187 425.026C200.566 424.817 200.857 424.543 201.061 424.202C201.269 423.861 201.373 423.489 201.373 423.087V421.801C201.293 421.867 201.155 421.929 200.961 421.986C200.772 422.043 200.559 422.092 200.322 422.135C200.085 422.178 199.851 422.215 199.619 422.249C199.387 422.282 199.186 422.31 199.015 422.334C198.632 422.386 198.288 422.471 197.985 422.589C197.682 422.708 197.443 422.874 197.268 423.087C197.093 423.295 197.005 423.565 197.005 423.896C197.005 424.37 197.178 424.727 197.524 424.969C197.869 425.21 198.31 425.331 198.845 425.331ZM206.522 427V416.091H209.015V417.909H209.129C209.328 417.279 209.669 416.794 210.151 416.453C210.639 416.107 211.195 415.935 211.82 415.935C211.963 415.935 212.121 415.942 212.296 415.956C212.476 415.965 212.625 415.982 212.744 416.006V418.371C212.635 418.333 212.462 418.3 212.225 418.271C211.993 418.238 211.768 418.222 211.551 418.222C211.082 418.222 210.66 418.323 210.286 418.527C209.917 418.726 209.626 419.003 209.413 419.358C209.2 419.713 209.093 420.123 209.093 420.587V427H206.522Z" fill="#F39200"/>
</g>
<path d="M5 308C5 304.134 8.13401 301 12 301H354C358.971 301 363 305.029 363 310V330C363 334.971 358.971 339 354 339H14C9.02944 339 5 334.971 5 330V308Z" fill="#FFFDFB" stroke="#B9A78E" stroke-width="2"/>
<path d="M339 316L331 324" stroke="black" stroke-width="1.6" stroke-linecap="square"/>
<path d="M331 316L339 324" stroke="black" stroke-width="1.6" stroke-linecap="square"/>
<path d="M32.7564 320.182C32.7564 321.436 32.5215 322.509 32.0518 323.403C31.5859 324.294 30.9496 324.975 30.1428 325.449C29.3397 325.922 28.4287 326.159 27.4098 326.159C26.3909 326.159 25.478 325.922 24.6712 325.449C23.8681 324.972 23.2318 324.288 22.7621 323.398C22.2962 322.504 22.0632 321.432 22.0632 320.182C22.0632 318.928 22.2962 317.856 22.7621 316.966C23.2318 316.072 23.8681 315.388 24.6712 314.915C25.478 314.441 26.3909 314.205 27.4098 314.205C28.4287 314.205 29.3397 314.441 30.1428 314.915C30.9496 315.388 31.5859 316.072 32.0518 316.966C32.5215 317.856 32.7564 318.928 32.7564 320.182ZM30.6371 320.182C30.6371 319.299 30.4988 318.555 30.2223 317.949C29.9496 317.339 29.5708 316.879 29.0859 316.568C28.6011 316.254 28.0424 316.097 27.4098 316.097C26.7772 316.097 26.2185 316.254 25.7337 316.568C25.2488 316.879 24.8681 317.339 24.5916 317.949C24.3189 318.555 24.1825 319.299 24.1825 320.182C24.1825 321.064 24.3189 321.811 24.5916 322.42C24.8681 323.027 25.2488 323.487 25.7337 323.801C26.2185 324.112 26.7772 324.267 27.4098 324.267C28.0424 324.267 28.6011 324.112 29.0859 323.801C29.5708 323.487 29.9496 323.027 30.2223 322.42C30.4988 321.811 30.6371 321.064 30.6371 320.182ZM39.0163 317.273V318.864H33.9993V317.273H39.0163ZM35.2379 315.182H37.2947V323.375C37.2947 323.652 37.3364 323.864 37.4197 324.011C37.5069 324.155 37.6205 324.254 37.7607 324.307C37.9008 324.36 38.0561 324.386 38.2266 324.386C38.3554 324.386 38.4728 324.377 38.5788 324.358C38.6887 324.339 38.772 324.322 38.8288 324.307L39.1754 325.915C39.0656 325.953 38.9084 325.994 38.7038 326.04C38.5031 326.085 38.2569 326.112 37.9652 326.119C37.45 326.134 36.986 326.057 36.5732 325.886C36.1603 325.712 35.8326 325.443 35.5902 325.08C35.3516 324.716 35.2341 324.261 35.2379 323.716V315.182ZM40.7365 326V317.273H42.7308V318.727H42.8217C42.9808 318.223 43.2536 317.835 43.6399 317.562C44.0301 317.286 44.4751 317.148 44.9751 317.148C45.0888 317.148 45.2157 317.153 45.3558 317.165C45.4998 317.172 45.6191 317.186 45.7138 317.205V319.097C45.6267 319.066 45.4884 319.04 45.299 319.017C45.1134 318.991 44.9335 318.977 44.7592 318.977C44.3842 318.977 44.0471 319.059 43.7479 319.222C43.4524 319.381 43.2195 319.602 43.049 319.886C42.8786 320.17 42.7933 320.498 42.7933 320.869V326H40.7365ZM49.4354 326.176C48.8823 326.176 48.3842 326.078 47.9411 325.881C47.5017 325.68 47.1532 325.384 46.8956 324.994C46.6418 324.604 46.5149 324.123 46.5149 323.551C46.5149 323.059 46.6058 322.652 46.7876 322.33C46.9695 322.008 47.2176 321.75 47.532 321.557C47.8464 321.364 48.2005 321.218 48.5945 321.119C48.9922 321.017 49.4032 320.943 49.8274 320.898C50.3388 320.845 50.7536 320.797 51.0717 320.756C51.3899 320.71 51.621 320.642 51.7649 320.551C51.9126 320.456 51.9865 320.311 51.9865 320.114V320.08C51.9865 319.652 51.8596 319.32 51.6058 319.085C51.352 318.85 50.9865 318.733 50.5092 318.733C50.0054 318.733 49.6058 318.843 49.3104 319.062C49.0187 319.282 48.8217 319.542 48.7195 319.841L46.799 319.568C46.9505 319.038 47.2005 318.595 47.549 318.239C47.8975 317.879 48.3236 317.61 48.8274 317.432C49.3312 317.25 49.888 317.159 50.4979 317.159C50.9183 317.159 51.3369 317.208 51.7536 317.307C52.1702 317.405 52.5509 317.568 52.8956 317.795C53.2403 318.019 53.5168 318.324 53.7251 318.71C53.9373 319.097 54.0433 319.58 54.0433 320.159V326H52.0661V324.801H51.9979C51.8729 325.044 51.6967 325.271 51.4695 325.483C51.246 325.691 50.9638 325.86 50.6229 325.989C50.2857 326.114 49.8899 326.176 49.4354 326.176ZM49.9695 324.665C50.3823 324.665 50.7403 324.583 51.0433 324.42C51.3464 324.254 51.5793 324.034 51.7422 323.761C51.9089 323.489 51.9922 323.191 51.9922 322.869V321.841C51.9278 321.894 51.8179 321.943 51.6626 321.989C51.5111 322.034 51.3407 322.074 51.1513 322.108C50.9619 322.142 50.7744 322.172 50.5888 322.199C50.4032 322.225 50.2422 322.248 50.1058 322.267C49.799 322.309 49.5244 322.377 49.282 322.472C49.0395 322.566 48.8482 322.699 48.7081 322.869C48.5679 323.036 48.4979 323.252 48.4979 323.517C48.4979 323.896 48.6361 324.182 48.9126 324.375C49.1892 324.568 49.5414 324.665 49.9695 324.665ZM63.8871 326.17C63.0159 326.17 62.2678 325.979 61.6428 325.597C61.0215 325.214 60.5424 324.686 60.2053 324.011C59.8719 323.333 59.7053 322.553 59.7053 321.67C59.7053 320.784 59.8757 320.002 60.2166 319.324C60.5575 318.642 61.0386 318.112 61.6598 317.733C62.2848 317.35 63.0234 317.159 63.8757 317.159C64.584 317.159 65.2109 317.29 65.7564 317.551C66.3056 317.809 66.7431 318.174 67.0689 318.648C67.3946 319.117 67.5803 319.667 67.6257 320.295H65.6598C65.5803 319.875 65.3909 319.525 65.0916 319.244C64.7962 318.96 64.4003 318.818 63.9041 318.818C63.4837 318.818 63.1143 318.932 62.7962 319.159C62.478 319.383 62.2299 319.705 62.0518 320.125C61.8776 320.545 61.7905 321.049 61.7905 321.636C61.7905 322.231 61.8776 322.742 62.0518 323.17C62.2261 323.595 62.4704 323.922 62.7848 324.153C63.103 324.381 63.4761 324.494 63.9041 324.494C64.2071 324.494 64.478 324.437 64.7166 324.324C64.959 324.206 65.1617 324.038 65.3246 323.818C65.4875 323.598 65.5992 323.331 65.6598 323.017H67.6257C67.5765 323.634 67.3946 324.182 67.0803 324.659C66.7659 325.133 66.3378 325.504 65.7962 325.773C65.2545 326.038 64.6181 326.17 63.8871 326.17ZM71.826 326.176C71.273 326.176 70.7749 326.078 70.3317 325.881C69.8923 325.68 69.5438 325.384 69.2862 324.994C69.0324 324.604 68.9055 324.123 68.9055 323.551C68.9055 323.059 68.9964 322.652 69.1783 322.33C69.3601 322.008 69.6082 321.75 69.9226 321.557C70.237 321.364 70.5911 321.218 70.9851 321.119C71.3828 321.017 71.7938 320.943 72.218 320.898C72.7294 320.845 73.1442 320.797 73.4624 320.756C73.7805 320.71 74.0116 320.642 74.1555 320.551C74.3033 320.456 74.3771 320.311 74.3771 320.114V320.08C74.3771 319.652 74.2502 319.32 73.9964 319.085C73.7427 318.85 73.3771 318.733 72.8999 318.733C72.3961 318.733 71.9964 318.843 71.701 319.062C71.4093 319.282 71.2124 319.542 71.1101 319.841L69.1896 319.568C69.3411 319.038 69.5911 318.595 69.9396 318.239C70.2881 317.879 70.7143 317.61 71.218 317.432C71.7218 317.25 72.2786 317.159 72.8885 317.159C73.3089 317.159 73.7275 317.208 74.1442 317.307C74.5608 317.405 74.9415 317.568 75.2862 317.795C75.6309 318.019 75.9074 318.324 76.1158 318.71C76.3279 319.097 76.4339 319.58 76.4339 320.159V326H74.4567V324.801H74.3885C74.2635 325.044 74.0874 325.271 73.8601 325.483C73.6366 325.691 73.3544 325.86 73.0135 325.989C72.6764 326.114 72.2805 326.176 71.826 326.176ZM72.3601 324.665C72.773 324.665 73.1309 324.583 73.4339 324.42C73.737 324.254 73.9699 324.034 74.1328 323.761C74.2995 323.489 74.3828 323.191 74.3828 322.869V321.841C74.3184 321.894 74.2086 321.943 74.0533 321.989C73.9018 322.034 73.7313 322.074 73.5419 322.108C73.3525 322.142 73.165 322.172 72.9794 322.199C72.7938 322.225 72.6328 322.248 72.4964 322.267C72.1896 322.309 71.915 322.377 71.6726 322.472C71.4302 322.566 71.2389 322.699 71.0987 322.869C70.9586 323.036 70.8885 323.252 70.8885 323.517C70.8885 323.896 71.0268 324.182 71.3033 324.375C71.5798 324.568 71.9321 324.665 72.3601 324.665ZM80.5589 320.886V326H78.5021V317.273H80.468V318.756H80.5703C80.7711 318.267 81.0911 317.879 81.5305 317.591C81.9737 317.303 82.5211 317.159 83.1726 317.159C83.7749 317.159 84.2995 317.288 84.7464 317.545C85.1972 317.803 85.5457 318.176 85.7919 318.665C86.0419 319.153 86.165 319.746 86.1612 320.443V326H84.1044V320.761C84.1044 320.178 83.9529 319.722 83.6499 319.392C83.3506 319.062 82.9358 318.898 82.4055 318.898C82.0457 318.898 81.7256 318.977 81.4453 319.136C81.1688 319.292 80.951 319.517 80.7919 319.812C80.6366 320.108 80.5589 320.466 80.5589 320.886ZM92.6101 317.273V318.864H87.593V317.273H92.6101ZM88.8317 315.182H90.8885V323.375C90.8885 323.652 90.9302 323.864 91.0135 324.011C91.1006 324.155 91.2143 324.254 91.3544 324.307C91.4946 324.36 91.6499 324.386 91.8203 324.386C91.9491 324.386 92.0665 324.377 92.1726 324.358C92.2824 324.339 92.3658 324.322 92.4226 324.307L92.7692 325.915C92.6593 325.953 92.5021 325.994 92.2976 326.04C92.0968 326.085 91.8506 326.112 91.5589 326.119C91.0438 326.134 90.5798 326.057 90.1669 325.886C89.754 325.712 89.4264 325.443 89.1839 325.08C88.9453 324.716 88.8279 324.261 88.8317 323.716V315.182ZM94.3303 326V317.273H96.3871V326H94.3303ZM95.3643 316.034C95.0386 316.034 94.7583 315.926 94.5234 315.71C94.2886 315.491 94.1712 315.227 94.1712 314.92C94.1712 314.61 94.2886 314.347 94.5234 314.131C94.7583 313.911 95.0386 313.801 95.3643 313.801C95.6939 313.801 95.9742 313.911 96.2053 314.131C96.4401 314.347 96.5575 314.61 96.5575 314.92C96.5575 315.227 96.4401 315.491 96.2053 315.71C95.9742 315.926 95.6939 316.034 95.3643 316.034ZM101.741 326.153C101.055 326.153 100.442 325.977 99.8999 325.625C99.3582 325.273 98.9302 324.761 98.6158 324.091C98.3014 323.42 98.1442 322.606 98.1442 321.648C98.1442 320.678 98.3033 319.86 98.6214 319.193C98.9434 318.523 99.3771 318.017 99.9226 317.676C100.468 317.331 101.076 317.159 101.746 317.159C102.258 317.159 102.678 317.246 103.008 317.42C103.337 317.591 103.599 317.797 103.792 318.04C103.985 318.278 104.135 318.504 104.241 318.716H104.326V314.364H106.388V326H104.366V324.625H104.241C104.135 324.837 103.981 325.062 103.781 325.301C103.58 325.536 103.315 325.737 102.985 325.903C102.656 326.07 102.241 326.153 101.741 326.153ZM102.315 324.466C102.75 324.466 103.121 324.348 103.428 324.114C103.735 323.875 103.968 323.544 104.127 323.119C104.286 322.695 104.366 322.201 104.366 321.636C104.366 321.072 104.286 320.581 104.127 320.165C103.972 319.748 103.741 319.424 103.434 319.193C103.131 318.962 102.758 318.847 102.315 318.847C101.856 318.847 101.474 318.966 101.167 319.205C100.86 319.443 100.629 319.773 100.474 320.193C100.318 320.614 100.241 321.095 100.241 321.636C100.241 322.182 100.318 322.669 100.474 323.097C100.633 323.521 100.866 323.856 101.173 324.102C101.483 324.345 101.864 324.466 102.315 324.466ZM111.092 326.176C110.539 326.176 110.04 326.078 109.597 325.881C109.158 325.68 108.809 325.384 108.552 324.994C108.298 324.604 108.171 324.123 108.171 323.551C108.171 323.059 108.262 322.652 108.444 322.33C108.626 322.008 108.874 321.75 109.188 321.557C109.503 321.364 109.857 321.218 110.251 321.119C110.648 321.017 111.059 320.943 111.484 320.898C111.995 320.845 112.41 320.797 112.728 320.756C113.046 320.71 113.277 320.642 113.421 320.551C113.569 320.456 113.643 320.311 113.643 320.114V320.08C113.643 319.652 113.516 319.32 113.262 319.085C113.008 318.85 112.643 318.733 112.165 318.733C111.662 318.733 111.262 318.843 110.967 319.062C110.675 319.282 110.478 319.542 110.376 319.841L108.455 319.568C108.607 319.038 108.857 318.595 109.205 318.239C109.554 317.879 109.98 317.61 110.484 317.432C110.987 317.25 111.544 317.159 112.154 317.159C112.575 317.159 112.993 317.208 113.41 317.307C113.826 317.405 114.207 317.568 114.552 317.795C114.897 318.019 115.173 318.324 115.381 318.71C115.594 319.097 115.7 319.58 115.7 320.159V326H113.722V324.801H113.654C113.529 325.044 113.353 325.271 113.126 325.483C112.902 325.691 112.62 325.86 112.279 325.989C111.942 326.114 111.546 326.176 111.092 326.176ZM111.626 324.665C112.039 324.665 112.397 324.583 112.7 324.42C113.003 324.254 113.236 324.034 113.398 323.761C113.565 323.489 113.648 323.191 113.648 322.869V321.841C113.584 321.894 113.474 321.943 113.319 321.989C113.167 322.034 112.997 322.074 112.808 322.108C112.618 322.142 112.431 322.172 112.245 322.199C112.059 322.225 111.898 322.248 111.762 322.267C111.455 322.309 111.181 322.377 110.938 322.472C110.696 322.566 110.504 322.699 110.364 322.869C110.224 323.036 110.154 323.252 110.154 323.517C110.154 323.896 110.292 324.182 110.569 324.375C110.845 324.568 111.198 324.665 111.626 324.665ZM121.006 326.153C120.321 326.153 119.707 325.977 119.165 325.625C118.624 325.273 118.196 324.761 117.881 324.091C117.567 323.42 117.41 322.606 117.41 321.648C117.41 320.678 117.569 319.86 117.887 319.193C118.209 318.523 118.643 318.017 119.188 317.676C119.734 317.331 120.342 317.159 121.012 317.159C121.523 317.159 121.944 317.246 122.273 317.42C122.603 317.591 122.864 317.797 123.058 318.04C123.251 318.278 123.4 318.504 123.506 318.716H123.592V314.364H125.654V326H123.631V324.625H123.506C123.4 324.837 123.247 325.062 123.046 325.301C122.845 325.536 122.58 325.737 122.251 325.903C121.921 326.07 121.506 326.153 121.006 326.153ZM121.58 324.466C122.016 324.466 122.387 324.348 122.694 324.114C123.001 323.875 123.234 323.544 123.393 323.119C123.552 322.695 123.631 322.201 123.631 321.636C123.631 321.072 123.552 320.581 123.393 320.165C123.237 319.748 123.006 319.424 122.7 319.193C122.397 318.962 122.023 318.847 121.58 318.847C121.122 318.847 120.739 318.966 120.433 319.205C120.126 319.443 119.895 319.773 119.739 320.193C119.584 320.614 119.506 321.095 119.506 321.636C119.506 322.182 119.584 322.669 119.739 323.097C119.898 323.521 120.131 323.856 120.438 324.102C120.749 324.345 121.129 324.466 121.58 324.466Z" fill="#4B4B4B"/>
<g filter="url(#filter1_d_890_6369)">
<rect x="4" y="100" width="120" height="40" rx="8" fill="#FBFAFA" shape-rendering="crispEdges"/>
<path d="M46.6371 131.182V109.364H48.0348V131.182H46.6371ZM50.6683 116.344C50.5888 115.599 50.2536 115.02 49.6626 114.605C49.0774 114.19 48.3161 113.983 47.3786 113.983C46.7195 113.983 46.1541 114.082 45.6825 114.281C45.2109 114.48 44.8501 114.75 44.6001 115.091C44.3501 115.432 44.2223 115.821 44.2166 116.259C44.2166 116.622 44.299 116.937 44.4638 117.205C44.6342 117.472 44.8643 117.699 45.1541 117.886C45.4439 118.068 45.7649 118.222 46.1172 118.347C46.4695 118.472 46.8246 118.577 47.1825 118.662L48.8189 119.071C49.478 119.224 50.1115 119.432 50.7195 119.693C51.3331 119.955 51.8814 120.284 52.3643 120.682C52.853 121.08 53.2393 121.56 53.5234 122.122C53.8075 122.685 53.9496 123.344 53.9496 124.099C53.9496 125.122 53.6882 126.023 53.1655 126.801C52.6428 127.574 51.8871 128.179 50.8984 128.616C49.9155 129.048 48.7251 129.264 47.3274 129.264C45.9695 129.264 44.7905 129.054 43.7905 128.634C42.7962 128.213 42.0178 127.599 41.4553 126.793C40.8984 125.986 40.5973 125.003 40.5518 123.844H43.6626C43.7081 124.452 43.8956 124.957 44.2251 125.361C44.5547 125.764 44.9837 126.065 45.5121 126.264C46.0462 126.463 46.6428 126.562 47.3018 126.562C47.9893 126.562 48.5916 126.46 49.1087 126.256C49.6314 126.045 50.0405 125.756 50.3359 125.386C50.6314 125.011 50.782 124.574 50.7876 124.074C50.782 123.619 50.6484 123.244 50.3871 122.949C50.1257 122.648 49.7592 122.398 49.2876 122.199C48.8217 121.994 48.2763 121.812 47.6513 121.653L45.6655 121.142C44.228 120.773 43.0916 120.213 42.2564 119.463C41.4268 118.707 41.0121 117.705 41.0121 116.455C41.0121 115.426 41.2905 114.526 41.8473 113.753C42.4098 112.98 43.174 112.381 44.1399 111.955C45.1058 111.523 46.1996 111.307 47.4212 111.307C48.6598 111.307 49.745 111.523 50.6768 111.955C51.6143 112.381 52.3501 112.974 52.8842 113.736C53.4183 114.491 53.6939 115.361 53.7109 116.344H50.6683ZM69.6506 111.545V129H66.4886V114.622H66.3864L62.304 117.23V114.332L66.642 111.545H69.6506ZM80.5341 129.332C79.1307 129.332 77.9261 128.977 76.9205 128.267C75.9205 127.551 75.1506 126.52 74.6108 125.173C74.0767 123.821 73.8097 122.193 73.8097 120.29C73.8153 118.386 74.0852 116.767 74.6193 115.432C75.1591 114.091 75.929 113.068 76.929 112.364C77.9347 111.659 79.1364 111.307 80.5341 111.307C81.9318 111.307 83.1335 111.659 84.1392 112.364C85.1449 113.068 85.9148 114.091 86.4489 115.432C86.9886 116.773 87.2585 118.392 87.2585 120.29C87.2585 122.199 86.9886 123.83 86.4489 125.182C85.9148 126.528 85.1449 127.557 84.1392 128.267C83.1392 128.977 81.9375 129.332 80.5341 129.332ZM80.5341 126.665C81.625 126.665 82.4858 126.128 83.1165 125.054C83.7528 123.974 84.071 122.386 84.071 120.29C84.071 118.903 83.9261 117.739 83.6364 116.795C83.3466 115.852 82.9375 115.142 82.4091 114.665C81.8807 114.182 81.2557 113.94 80.5341 113.94C79.4489 113.94 78.5909 114.48 77.9602 115.56C77.3295 116.634 77.0114 118.21 77.0057 120.29C77 121.682 77.1392 122.852 77.4233 123.801C77.7131 124.75 78.1222 125.466 78.6506 125.949C79.179 126.426 79.8068 126.665 80.5341 126.665Z" fill="#F39200"/>
</g>
<g filter="url(#filter2_d_890_6369)">
<rect x="244" y="100" width="120" height="40" rx="8" fill="#FBFAFA" shape-rendering="crispEdges"/>
<path d="M284.95 131.182V109.364H286.347V131.182H284.95ZM288.981 116.344C288.901 115.599 288.566 115.02 287.975 114.605C287.39 114.19 286.629 113.983 285.691 113.983C285.032 113.983 284.467 114.082 283.995 114.281C283.523 114.48 283.163 114.75 282.913 115.091C282.663 115.432 282.535 115.821 282.529 116.259C282.529 116.622 282.612 116.937 282.776 117.205C282.947 117.472 283.177 117.699 283.467 117.886C283.756 118.068 284.077 118.222 284.43 118.347C284.782 118.472 285.137 118.577 285.495 118.662L287.131 119.071C287.79 119.224 288.424 119.432 289.032 119.693C289.646 119.955 290.194 120.284 290.677 120.682C291.165 121.08 291.552 121.56 291.836 122.122C292.12 122.685 292.262 123.344 292.262 124.099C292.262 125.122 292.001 126.023 291.478 126.801C290.955 127.574 290.2 128.179 289.211 128.616C288.228 129.048 287.038 129.264 285.64 129.264C284.282 129.264 283.103 129.054 282.103 128.634C281.109 128.213 280.33 127.599 279.768 126.793C279.211 125.986 278.91 125.003 278.864 123.844H281.975C282.021 124.452 282.208 124.957 282.538 125.361C282.867 125.764 283.296 126.065 283.825 126.264C284.359 126.463 284.955 126.562 285.614 126.562C286.302 126.562 286.904 126.46 287.421 126.256C287.944 126.045 288.353 125.756 288.648 125.386C288.944 125.011 289.094 124.574 289.1 124.074C289.094 123.619 288.961 123.244 288.7 122.949C288.438 122.648 288.072 122.398 287.6 122.199C287.134 121.994 286.589 121.812 285.964 121.653L283.978 121.142C282.54 120.773 281.404 120.213 280.569 119.463C279.739 118.707 279.325 117.705 279.325 116.455C279.325 115.426 279.603 114.526 280.16 113.753C280.722 112.98 281.487 112.381 282.452 111.955C283.418 111.523 284.512 111.307 285.734 111.307C286.972 111.307 288.058 111.523 288.989 111.955C289.927 112.381 290.663 112.974 291.197 113.736C291.731 114.491 292.006 115.361 292.023 116.344H288.981ZM300.864 129V126.716L306.923 120.776C307.503 120.19 307.986 119.67 308.372 119.216C308.759 118.761 309.048 118.321 309.241 117.895C309.435 117.469 309.531 117.014 309.531 116.531C309.531 115.98 309.406 115.509 309.156 115.116C308.906 114.719 308.562 114.412 308.125 114.196C307.688 113.98 307.19 113.872 306.634 113.872C306.06 113.872 305.557 113.991 305.125 114.23C304.693 114.463 304.358 114.795 304.119 115.227C303.886 115.659 303.77 116.173 303.77 116.77H300.761C300.761 115.662 301.014 114.699 301.52 113.881C302.026 113.062 302.722 112.429 303.608 111.98C304.5 111.531 305.523 111.307 306.676 111.307C307.847 111.307 308.875 111.526 309.761 111.963C310.648 112.401 311.335 113 311.824 113.761C312.318 114.523 312.565 115.392 312.565 116.369C312.565 117.023 312.44 117.665 312.19 118.295C311.94 118.926 311.5 119.625 310.869 120.392C310.244 121.159 309.366 122.088 308.236 123.179L305.227 126.239V126.358H312.83V129H300.864ZM322.222 129.332C320.818 129.332 319.614 128.977 318.608 128.267C317.608 127.551 316.838 126.52 316.298 125.173C315.764 123.821 315.497 122.193 315.497 120.29C315.503 118.386 315.773 116.767 316.307 115.432C316.847 114.091 317.616 113.068 318.616 112.364C319.622 111.659 320.824 111.307 322.222 111.307C323.619 111.307 324.821 111.659 325.827 112.364C326.832 113.068 327.602 114.091 328.136 115.432C328.676 116.773 328.946 118.392 328.946 120.29C328.946 122.199 328.676 123.83 328.136 125.182C327.602 126.528 326.832 127.557 325.827 128.267C324.827 128.977 323.625 129.332 322.222 129.332ZM322.222 126.665C323.313 126.665 324.173 126.128 324.804 125.054C325.44 123.974 325.759 122.386 325.759 120.29C325.759 118.903 325.614 117.739 325.324 116.795C325.034 115.852 324.625 115.142 324.097 114.665C323.568 114.182 322.943 113.94 322.222 113.94C321.136 113.94 320.278 114.48 319.648 115.56C319.017 116.634 318.699 118.21 318.693 120.29C318.688 121.682 318.827 122.852 319.111 123.801C319.401 124.75 319.81 125.466 320.338 125.949C320.866 126.426 321.494 126.665 322.222 126.665Z" fill="#F39200"/>
</g>
<g filter="url(#filter3_d_890_6369)">
<rect x="4" y="200" width="120" height="40" rx="8" fill="#FBFAFA" shape-rendering="crispEdges"/>
<path d="M44.8089 231.182V209.364H46.2067V231.182H44.8089ZM48.8402 216.344C48.7607 215.599 48.4254 215.02 47.8345 214.605C47.2493 214.19 46.4879 213.983 45.5504 213.983C44.8913 213.983 44.326 214.082 43.8544 214.281C43.3828 214.48 43.022 214.75 42.772 215.091C42.522 215.432 42.3942 215.821 42.3885 216.259C42.3885 216.622 42.4709 216.937 42.6357 217.205C42.8061 217.472 43.0362 217.699 43.326 217.886C43.6158 218.068 43.9368 218.222 44.2891 218.347C44.6413 218.472 44.9964 218.577 45.3544 218.662L46.9908 219.071C47.6499 219.224 48.2834 219.432 48.8913 219.693C49.505 219.955 50.0533 220.284 50.5362 220.682C51.0249 221.08 51.4112 221.56 51.6953 222.122C51.9794 222.685 52.1214 223.344 52.1214 224.099C52.1214 225.122 51.8601 226.023 51.3374 226.801C50.8146 227.574 50.0589 228.179 49.0703 228.616C48.0874 229.048 46.897 229.264 45.4993 229.264C44.1413 229.264 42.9624 229.054 41.9624 228.634C40.968 228.213 40.1896 227.599 39.6271 226.793C39.0703 225.986 38.7692 225.003 38.7237 223.844H41.8345C41.88 224.452 42.0675 224.957 42.397 225.361C42.7266 225.764 43.1555 226.065 43.6839 226.264C44.218 226.463 44.8146 226.562 45.4737 226.562C46.1612 226.562 46.7635 226.46 47.2805 226.256C47.8033 226.045 48.2124 225.756 48.5078 225.386C48.8033 225.011 48.9538 224.574 48.9595 224.074C48.9538 223.619 48.8203 223.244 48.5589 222.949C48.2976 222.648 47.9311 222.398 47.4595 222.199C46.9936 221.994 46.4482 221.812 45.8232 221.653L43.8374 221.142C42.3999 220.773 41.2635 220.213 40.4283 219.463C39.5987 218.707 39.1839 217.705 39.1839 216.455C39.1839 215.426 39.4624 214.526 40.0192 213.753C40.5817 212.98 41.3459 212.381 42.3118 211.955C43.2777 211.523 44.3714 211.307 45.593 211.307C46.8317 211.307 47.9169 211.523 48.8487 211.955C49.7862 212.381 50.522 212.974 51.0561 213.736C51.5902 214.491 51.8658 215.361 51.8828 216.344H48.8402ZM66.7912 229.239C65.6548 229.239 64.6378 229.026 63.7401 228.599C62.8423 228.168 62.1293 227.577 61.6009 226.827C61.0781 226.077 60.7997 225.219 60.7656 224.253H63.8338C63.8906 224.969 64.2003 225.554 64.7628 226.009C65.3253 226.457 66.0014 226.682 66.7912 226.682C67.4105 226.682 67.9616 226.54 68.4446 226.256C68.9276 225.972 69.3082 225.577 69.5866 225.071C69.8651 224.565 70.0014 223.989 69.9957 223.341C70.0014 222.682 69.8622 222.097 69.5781 221.585C69.294 221.074 68.9048 220.673 68.4105 220.384C67.9162 220.088 67.348 219.94 66.706 219.94C66.1832 219.935 65.669 220.031 65.1634 220.23C64.6577 220.429 64.2571 220.69 63.9616 221.014L61.1065 220.545L62.0185 211.545H72.1435V214.188H64.6349L64.1321 218.815H64.2344C64.5582 218.435 65.0156 218.119 65.6065 217.869C66.1974 217.614 66.8452 217.486 67.5497 217.486C68.6065 217.486 69.5497 217.736 70.3793 218.236C71.2088 218.73 71.8622 219.412 72.3395 220.281C72.8168 221.151 73.0554 222.145 73.0554 223.264C73.0554 224.418 72.7884 225.446 72.2543 226.349C71.7259 227.247 70.9901 227.955 70.0469 228.472C69.1094 228.983 68.0241 229.239 66.7912 229.239ZM82.3622 229.332C80.9588 229.332 79.7543 228.977 78.7486 228.267C77.7486 227.551 76.9787 226.52 76.4389 225.173C75.9048 223.821 75.6378 222.193 75.6378 220.29C75.6435 218.386 75.9134 216.767 76.4474 215.432C76.9872 214.091 77.7571 213.068 78.7571 212.364C79.7628 211.659 80.9645 211.307 82.3622 211.307C83.7599 211.307 84.9616 211.659 85.9673 212.364C86.973 213.068 87.7429 214.091 88.277 215.432C88.8168 216.773 89.0866 218.392 89.0866 220.29C89.0866 222.199 88.8168 223.83 88.277 225.182C87.7429 226.528 86.973 227.557 85.9673 228.267C84.9673 228.977 83.7656 229.332 82.3622 229.332ZM82.3622 226.665C83.4531 226.665 84.3139 226.128 84.9446 225.054C85.581 223.974 85.8991 222.386 85.8991 220.29C85.8991 218.903 85.7543 217.739 85.4645 216.795C85.1747 215.852 84.7656 215.142 84.2372 214.665C83.7088 214.182 83.0838 213.94 82.3622 213.94C81.277 213.94 80.419 214.48 79.7884 215.56C79.1577 216.634 78.8395 218.21 78.8338 220.29C78.8281 221.682 78.9673 222.852 79.2514 223.801C79.5412 224.75 79.9503 225.466 80.4787 225.949C81.0071 226.426 81.6349 226.665 82.3622 226.665Z" fill="#F39200"/>
</g>
<g filter="url(#filter4_d_890_6369)">
<rect x="244" y="200" width="120" height="40" rx="8" fill="#FBFAFA" shape-rendering="crispEdges"/>
<path d="M278.633 231.182V209.364H280.031V231.182H278.633ZM282.664 216.344C282.585 215.599 282.25 215.02 281.659 214.605C281.074 214.19 280.312 213.983 279.375 213.983C278.716 213.983 278.15 214.082 277.679 214.281C277.207 214.48 276.846 214.75 276.596 215.091C276.346 215.432 276.218 215.821 276.213 216.259C276.213 216.622 276.295 216.937 276.46 217.205C276.63 217.472 276.86 217.699 277.15 217.886C277.44 218.068 277.761 218.222 278.113 218.347C278.466 218.472 278.821 218.577 279.179 218.662L280.815 219.071C281.474 219.224 282.108 219.432 282.716 219.693C283.329 219.955 283.877 220.284 284.36 220.682C284.849 221.08 285.235 221.56 285.52 222.122C285.804 222.685 285.946 223.344 285.946 224.099C285.946 225.122 285.684 226.023 285.162 226.801C284.639 227.574 283.883 228.179 282.895 228.616C281.912 229.048 280.721 229.264 279.324 229.264C277.966 229.264 276.787 229.054 275.787 228.634C274.792 228.213 274.014 227.599 273.451 226.793C272.895 225.986 272.593 225.003 272.548 223.844H275.659C275.704 224.452 275.892 224.957 276.221 225.361C276.551 225.764 276.98 226.065 277.508 226.264C278.042 226.463 278.639 226.562 279.298 226.562C279.985 226.562 280.588 226.46 281.105 226.256C281.627 226.045 282.037 225.756 282.332 225.386C282.627 225.011 282.778 224.574 282.784 224.074C282.778 223.619 282.645 223.244 282.383 222.949C282.122 222.648 281.755 222.398 281.284 222.199C280.818 221.994 280.272 221.812 279.647 221.653L277.662 221.142C276.224 220.773 275.088 220.213 274.252 219.463C273.423 218.707 273.008 217.705 273.008 216.455C273.008 215.426 273.287 214.526 273.843 213.753C274.406 212.98 275.17 212.381 276.136 211.955C277.102 211.523 278.196 211.307 279.417 211.307C280.656 211.307 281.741 211.523 282.673 211.955C283.61 212.381 284.346 212.974 284.88 213.736C285.414 214.491 285.69 215.361 285.707 216.344H282.664ZM301.647 211.545V229H298.485V214.622H298.382L294.3 217.23V214.332L298.638 211.545H301.647ZM312.53 229.332C311.127 229.332 309.922 228.977 308.917 228.267C307.917 227.551 307.147 226.52 306.607 225.173C306.073 223.821 305.806 222.193 305.806 220.29C305.811 218.386 306.081 216.767 306.615 215.432C307.155 214.091 307.925 213.068 308.925 212.364C309.931 211.659 311.132 211.307 312.53 211.307C313.928 211.307 315.13 211.659 316.135 212.364C317.141 213.068 317.911 214.091 318.445 215.432C318.985 216.773 319.255 218.392 319.255 220.29C319.255 222.199 318.985 223.83 318.445 225.182C317.911 226.528 317.141 227.557 316.135 228.267C315.135 228.977 313.934 229.332 312.53 229.332ZM312.53 226.665C313.621 226.665 314.482 226.128 315.113 225.054C315.749 223.974 316.067 222.386 316.067 220.29C316.067 218.903 315.922 217.739 315.632 216.795C315.343 215.852 314.934 215.142 314.405 214.665C313.877 214.182 313.252 213.94 312.53 213.94C311.445 213.94 310.587 214.48 309.956 215.56C309.326 216.634 309.007 218.21 309.002 220.29C308.996 221.682 309.135 222.852 309.419 223.801C309.709 224.75 310.118 225.466 310.647 225.949C311.175 226.426 311.803 226.665 312.53 226.665ZM328.538 229.332C327.135 229.332 325.93 228.977 324.924 228.267C323.924 227.551 323.154 226.52 322.615 225.173C322.081 223.821 321.814 222.193 321.814 220.29C321.819 218.386 322.089 216.767 322.623 215.432C323.163 214.091 323.933 213.068 324.933 212.364C325.939 211.659 327.14 211.307 328.538 211.307C329.936 211.307 331.137 211.659 332.143 212.364C333.149 213.068 333.919 214.091 334.453 215.432C334.993 216.773 335.262 218.392 335.262 220.29C335.262 222.199 334.993 223.83 334.453 225.182C333.919 226.528 333.149 227.557 332.143 228.267C331.143 228.977 329.941 229.332 328.538 229.332ZM328.538 226.665C329.629 226.665 330.49 226.128 331.12 225.054C331.757 223.974 332.075 222.386 332.075 220.29C332.075 218.903 331.93 217.739 331.64 216.795C331.35 215.852 330.941 215.142 330.413 214.665C329.885 214.182 329.26 213.94 328.538 213.94C327.453 213.94 326.595 214.48 325.964 215.56C325.333 216.634 325.015 218.21 325.01 220.29C325.004 221.682 325.143 222.852 325.427 223.801C325.717 224.75 326.126 225.466 326.654 225.949C327.183 226.426 327.811 226.665 328.538 226.665Z" fill="#F39200"/>
</g>
<rect x="4" width="363.495" height="40" rx="5" fill="url(#paint0_linear_890_6369)"/>
<path d="M88.4574 11.5455V29H84.767V11.5455H88.4574ZM106.093 11.5455V29H102.906L95.3118 18.0142H95.1839V29H91.4936V11.5455H94.7322L102.266 22.5227H102.42V11.5455H106.093ZM120.716 17.1875C120.597 16.7727 120.429 16.4062 120.213 16.0881C119.997 15.7642 119.733 15.4915 119.42 15.2699C119.114 15.0426 118.761 14.8693 118.364 14.75C117.972 14.6307 117.537 14.571 117.06 14.571C116.168 14.571 115.384 14.7926 114.707 15.2358C114.037 15.679 113.514 16.3239 113.139 17.1705C112.764 18.0114 112.577 19.0398 112.577 20.2557C112.577 21.4716 112.761 22.5057 113.131 23.358C113.5 24.2102 114.023 24.8608 114.699 25.3097C115.375 25.7528 116.173 25.9744 117.094 25.9744C117.929 25.9744 118.642 25.8267 119.233 25.5312C119.83 25.2301 120.284 24.8068 120.597 24.2614C120.915 23.7159 121.074 23.071 121.074 22.3267L121.824 22.4375H117.324V19.6591H124.628V21.858C124.628 23.392 124.304 24.7102 123.656 25.8125C123.009 26.9091 122.116 27.7557 120.98 28.3523C119.844 28.9432 118.543 29.2386 117.077 29.2386C115.44 29.2386 114.003 28.8778 112.764 28.1562C111.526 27.429 110.56 26.3977 109.866 25.0625C109.179 23.7216 108.835 22.1307 108.835 20.2898C108.835 18.875 109.04 17.6136 109.449 16.5057C109.864 15.392 110.443 14.4489 111.188 13.6761C111.932 12.9034 112.798 12.3153 113.787 11.9119C114.776 11.5085 115.847 11.3068 117 11.3068C117.989 11.3068 118.909 11.4517 119.761 11.7415C120.614 12.0256 121.369 12.429 122.028 12.9517C122.693 13.4744 123.236 14.0966 123.656 14.8182C124.077 15.5341 124.347 16.3239 124.466 17.1875H120.716ZM127.4 29V11.5455H134.286C135.604 11.5455 136.729 11.7812 137.661 12.2528C138.599 12.7187 139.312 13.3807 139.8 14.2386C140.295 15.0909 140.542 16.0937 140.542 17.2472C140.542 18.4062 140.292 19.4034 139.792 20.2386C139.292 21.0682 138.567 21.7045 137.619 22.1477C136.675 22.5909 135.533 22.8125 134.192 22.8125H129.582V19.8466H133.596C134.3 19.8466 134.886 19.75 135.352 19.5568C135.817 19.3636 136.164 19.0739 136.391 18.6875C136.624 18.3011 136.741 17.821 136.741 17.2472C136.741 16.6676 136.624 16.179 136.391 15.7812C136.164 15.3835 135.815 15.0824 135.343 14.8778C134.877 14.6676 134.289 14.5625 133.579 14.5625H131.09V29H127.4ZM136.826 21.0568L141.164 29H137.09L132.846 21.0568H136.826ZM143.15 29V11.5455H154.911V14.5881H146.84V18.7472H154.306V21.7898H146.84V25.9574H154.945V29H143.15ZM167.314 16.5653C167.246 15.8778 166.953 15.3437 166.436 14.9631C165.919 14.5824 165.217 14.392 164.331 14.392C163.729 14.392 163.22 14.4773 162.805 14.6477C162.391 14.8125 162.072 15.0426 161.851 15.3381C161.635 15.6335 161.527 15.9688 161.527 16.3438C161.516 16.6562 161.581 16.929 161.723 17.1619C161.871 17.3949 162.072 17.5966 162.328 17.767C162.584 17.9318 162.879 18.0767 163.214 18.2017C163.55 18.321 163.908 18.4233 164.288 18.5085L165.857 18.8835C166.618 19.054 167.317 19.2812 167.953 19.5653C168.589 19.8494 169.141 20.1989 169.607 20.6136C170.072 21.0284 170.433 21.517 170.689 22.0795C170.95 22.642 171.084 23.2869 171.089 24.0142C171.084 25.0824 170.811 26.0085 170.271 26.7926C169.737 27.571 168.964 28.1761 167.953 28.608C166.947 29.0341 165.734 29.2472 164.314 29.2472C162.905 29.2472 161.678 29.0312 160.632 28.5994C159.592 28.1676 158.78 27.5284 158.195 26.6818C157.615 25.8295 157.311 24.7756 157.283 23.5199H160.854C160.893 24.1051 161.061 24.5937 161.357 24.9858C161.658 25.3722 162.058 25.6648 162.558 25.8636C163.064 26.0568 163.635 26.1534 164.271 26.1534C164.896 26.1534 165.439 26.0625 165.899 25.8807C166.365 25.6989 166.726 25.446 166.982 25.1222C167.237 24.7983 167.365 24.4261 167.365 24.0057C167.365 23.6136 167.249 23.2841 167.016 23.017C166.788 22.75 166.453 22.5227 166.01 22.3352C165.572 22.1477 165.036 21.9773 164.399 21.8239L162.499 21.3466C161.027 20.9886 159.865 20.429 159.013 19.6676C158.161 18.9062 157.737 17.8807 157.743 16.5909C157.737 15.5341 158.018 14.6108 158.587 13.821C159.161 13.0312 159.947 12.4148 160.947 11.9716C161.947 11.5284 163.084 11.3068 164.357 11.3068C165.652 11.3068 166.783 11.5284 167.749 11.9716C168.72 12.4148 169.476 13.0312 170.016 13.821C170.555 14.6108 170.834 15.5256 170.851 16.5653H167.314ZM176.182 29H172.227L178.253 11.5455H183.009L189.026 29H185.071L180.699 15.5341H180.562L176.182 29ZM175.935 22.1392H185.276V25.0199H175.935V22.1392ZM196.681 11.5455H201.232L206.039 23.2727H206.244L211.05 11.5455H215.602V29H212.022V17.6392H211.877L207.36 28.9148H204.923L200.406 17.5966H200.261V29H196.681V11.5455ZM234.682 20.2727C234.682 22.1761 234.321 23.7955 233.599 25.1307C232.884 26.4659 231.906 27.4858 230.668 28.1903C229.435 28.8892 228.048 29.2386 226.509 29.2386C224.957 29.2386 223.565 28.8864 222.332 28.1818C221.099 27.4773 220.125 26.4574 219.409 25.1222C218.693 23.7869 218.335 22.1705 218.335 20.2727C218.335 18.3693 218.693 16.75 219.409 15.4148C220.125 14.0795 221.099 13.0625 222.332 12.3636C223.565 11.6591 224.957 11.3068 226.509 11.3068C228.048 11.3068 229.435 11.6591 230.668 12.3636C231.906 13.0625 232.884 14.0795 233.599 15.4148C234.321 16.75 234.682 18.3693 234.682 20.2727ZM230.94 20.2727C230.94 19.0398 230.756 18 230.386 17.1534C230.023 16.3068 229.509 15.6648 228.844 15.2273C228.179 14.7898 227.401 14.571 226.509 14.571C225.616 14.571 224.838 14.7898 224.173 15.2273C223.509 15.6648 222.991 16.3068 222.622 17.1534C222.259 18 222.077 19.0398 222.077 20.2727C222.077 21.5057 222.259 22.5455 222.622 23.392C222.991 24.2386 223.509 24.8807 224.173 25.3182C224.838 25.7557 225.616 25.9744 226.509 25.9744C227.401 25.9744 228.179 25.7557 228.844 25.3182C229.509 24.8807 230.023 24.2386 230.386 23.392C230.756 22.5455 230.94 21.5057 230.94 20.2727ZM252.015 11.5455V29H248.827L241.234 18.0142H241.106V29H237.415V11.5455H240.654L248.188 22.5227H248.342V11.5455H252.015ZM254.399 14.5881V11.5455H268.734V14.5881H263.391V29H259.743V14.5881H254.399ZM286.338 20.2727C286.338 22.1761 285.977 23.7955 285.256 25.1307C284.54 26.4659 283.563 27.4858 282.324 28.1903C281.091 28.8892 279.705 29.2386 278.165 29.2386C276.614 29.2386 275.222 28.8864 273.989 28.1818C272.756 27.4773 271.781 26.4574 271.065 25.1222C270.349 23.7869 269.991 22.1705 269.991 20.2727C269.991 18.3693 270.349 16.75 271.065 15.4148C271.781 14.0795 272.756 13.0625 273.989 12.3636C275.222 11.6591 276.614 11.3068 278.165 11.3068C279.705 11.3068 281.091 11.6591 282.324 12.3636C283.563 13.0625 284.54 14.0795 285.256 15.4148C285.977 16.75 286.338 18.3693 286.338 20.2727ZM282.597 20.2727C282.597 19.0398 282.412 18 282.043 17.1534C281.679 16.3068 281.165 15.6648 280.5 15.2273C279.835 14.7898 279.057 14.571 278.165 14.571C277.273 14.571 276.494 14.7898 275.83 15.2273C275.165 15.6648 274.648 16.3068 274.278 17.1534C273.915 18 273.733 19.0398 273.733 20.2727C273.733 21.5057 273.915 22.5455 274.278 23.392C274.648 24.2386 275.165 24.8807 275.83 25.3182C276.494 25.7557 277.273 25.9744 278.165 25.9744C279.057 25.9744 279.835 25.7557 280.5 25.3182C281.165 24.8807 281.679 24.2386 282.043 23.392C282.412 22.5455 282.597 21.5057 282.597 20.2727Z" fill="#F39200"/>
<defs>
<filter id="filter0_d_890_6369" x="0" y="400" width="368" height="48" filterUnits="userSpaceOnUse" color-interpolation-filters="sRGB">
<feFlood flood-opacity="0" result="BackgroundImageFix"/>
<feColorMatrix in="SourceAlpha" type="matrix" values="0 0 0 0 0 0 0 0 0 0 0 0 0 0 0 0 0 0 127 0" result="hardAlpha"/>
<feOffset dy="4"/>
<feGaussianBlur stdDeviation="2"/>
<feComposite in2="hardAlpha" operator="out"/>
<feColorMatrix type="matrix" values="0 0 0 0 0 0 0 0 0 0 0 0 0 0 0 0 0 0 0.25 0"/>
<feBlend mode="normal" in2="BackgroundImageFix" result="effect1_dropShadow_890_6369"/>
<feBlend mode="normal" in="SourceGraphic" in2="effect1_dropShadow_890_6369" result="shape"/>
</filter>
<filter id="filter1_d_890_6369" x="0" y="100" width="128" height="48" filterUnits="userSpaceOnUse" color-interpolation-filters="sRGB">
<feFlood flood-opacity="0" result="BackgroundImageFix"/>
<feColorMatrix in="SourceAlpha" type="matrix" values="0 0 0 0 0 0 0 0 0 0 0 0 0 0 0 0 0 0 127 0" result="hardAlpha"/>
<feOffset dy="4"/>
<feGaussianBlur stdDeviation="2"/>
<feComposite in2="hardAlpha" operator="out"/>
<feColorMatrix type="matrix" values="0 0 0 0 0 0 0 0 0 0 0 0 0 0 0 0 0 0 0.25 0"/>
<feBlend mode="normal" in2="BackgroundImageFix" result="effect1_dropShadow_890_6369"/>
<feBlend mode="normal" in="SourceGraphic" in2="effect1_dropShadow_890_6369" result="shape"/>
</filter>
<filter id="filter2_d_890_6369" x="240" y="100" width="128" height="48" filterUnits="userSpaceOnUse" color-interpolation-filters="sRGB">
<feFlood flood-opacity="0" result="BackgroundImageFix"/>
<feColorMatrix in="SourceAlpha" type="matrix" values="0 0 0 0 0 0 0 0 0 0 0 0 0 0 0 0 0 0 127 0" result="hardAlpha"/>
<feOffset dy="4"/>
<feGaussianBlur stdDeviation="2"/>
<feComposite in2="hardAlpha" operator="out"/>
<feColorMatrix type="matrix" values="0 0 0 0 0 0 0 0 0 0 0 0 0 0 0 0 0 0 0.25 0"/>
<feBlend mode="normal" in2="BackgroundImageFix" result="effect1_dropShadow_890_6369"/>
<feBlend mode="normal" in="SourceGraphic" in2="effect1_dropShadow_890_6369" result="shape"/>
</filter>
<filter id="filter3_d_890_6369" x="0" y="200" width="128" height="48" filterUnits="userSpaceOnUse" color-interpolation-filters="sRGB">
<feFlood flood-opacity="0" result="BackgroundImageFix"/>
<feColorMatrix in="SourceAlpha" type="matrix" values="0 0 0 0 0 0 0 0 0 0 0 0 0 0 0 0 0 0 127 0" result="hardAlpha"/>
<feOffset dy="4"/>
<feGaussianBlur stdDeviation="2"/>
<feComposite in2="hardAlpha" operator="out"/>
<feColorMatrix type="matrix" values="0 0 0 0 0 0 0 0 0 0 0 0 0 0 0 0 0 0 0.25 0"/>
<feBlend mode="normal" in2="BackgroundImageFix" result="effect1_dropShadow_890_6369"/>
<feBlend mode="normal" in="SourceGraphic" in2="effect1_dropShadow_890_6369" result="shape"/>
</filter>
<filter id="filter4_d_890_6369" x="240" y="200" width="128" height="48" filterUnits="userSpaceOnUse" color-interpolation-filters="sRGB">
<feFlood flood-opacity="0" result="BackgroundImageFix"/>
<feColorMatrix in="SourceAlpha" type="matrix" values="0 0 0 0 0 0 0 0 0 0 0 0 0 0 0 0 0 0 127 0" result="hardAlpha"/>
<feOffset dy="4"/>
<feGaussianBlur stdDeviation="2"/>
<feComposite in2="hardAlpha" operator="out"/>
<feColorMatrix type="matrix" values="0 0 0 0 0 0 0 0 0 0 0 0 0 0 0 0 0 0 0.25 0"/>
<feBlend mode="normal" in2="BackgroundImageFix" result="effect1_dropShadow_890_6369"/>
<feBlend mode="normal" in="SourceGraphic" in2="effect1_dropShadow_890_6369" result="shape"/>
</filter>
<linearGradient id="paint0_linear_890_6369" x1="185.748" y1="0" x2="185.748" y2="40" gradientUnits="userSpaceOnUse">
<stop offset="0.286458" stop-color="white"/>
<stop offset="0.401042" stop-color="white" stop-opacity="0.83"/>
</linearGradient>
</defs>
</svg>
