<svg width="50" height="54" viewBox="0 0 50 54" fill="none" xmlns="http://www.w3.org/2000/svg">
<path d="M0.92784 42.8206C0.347628 41.6483 0.0330087 40.3833 0.00246074 39.0998C-0.0280872 37.8163 0.226052 36.5403 0.749952 35.3466C1.35675 34.0026 2.44977 32.803 3.91241 32.1845C4.29585 32.0205 5.88894 31.5143 5.87511 32.131C5.87511 32.377 5.43829 32.6533 5.28215 32.8316C5.15169 32.9831 5.03903 33.4269 4.9402 33.5107C6.32749 32.3472 8.15309 31.7024 10.0476 31.7068C10.6168 31.7068 11.2098 31.7817 11.6762 32.074C12.1427 32.3663 12.4412 32.9296 12.2356 33.4073C12.1882 33.516 12.121 33.6158 12.0854 33.7264C11.9945 34.0169 12.1763 34.1417 12.3166 34.3609C12.4404 34.536 12.5049 34.7398 12.5024 34.9474C12.4926 35.459 12.3576 35.9623 12.1071 36.4215C12.067 36.5004 12.0253 36.5785 11.9821 36.6559C11.1642 38.123 10.6015 40.4132 9.48426 41.6673C9.05412 42.1058 8.65788 42.5703 8.29834 43.0577C7.9643 43.5603 7.75084 44.1557 7.86943 44.7314C8.06708 45.7457 8.97629 46.0505 9.8598 46.4854C10.7433 46.9203 10.1207 47.5103 9.35578 47.505C8.06315 47.4912 6.78633 47.2468 5.59899 46.7857C4.41166 46.3247 3.3373 45.6562 2.43791 44.8188C1.81626 44.232 1.30607 43.557 0.92784 42.8206Z" fill="#F0997A"/>
<path d="M11.4684 37.4456C11.5182 37.3783 11.4695 37.2843 11.3857 37.2843C11.3164 37.2843 11.2667 37.2174 11.2851 37.1505C11.3961 36.7446 11.4566 36.3027 11.2129 35.9546C10.8354 35.4198 9.96373 35.4198 9.28775 35.5981C8.99502 35.6759 8.69341 35.7988 8.4401 35.9628C8.29726 36.0553 6.97274 36.4566 6.80918 36.5036C6.41189 36.6176 6.12727 36.9242 5.90788 37.2433C5.50689 37.838 5.26147 38.5074 5.19023 39.2004C5.16027 39.4919 5.16145 39.7844 5.19318 40.0738C5.25333 40.6227 4.76483 41.0881 4.32467 41.4214C3.92937 41.7334 3.98471 42.3127 4.14283 42.7619C4.36932 43.4193 4.78022 44.0777 5.38933 44.4598C5.4731 44.5124 5.64435 45.1307 5.66674 45.2271C5.74057 45.4485 5.90061 45.6384 6.11739 45.7618C7.02067 46.3732 8.06625 46.4908 9.15928 46.457C9.2985 46.4534 9.34885 46.2491 9.224 46.1874C8.57871 45.8685 8.02104 45.5078 7.86465 44.7369C7.74606 44.1611 7.95952 43.5658 8.29355 43.0631C8.6531 42.5757 9.04934 42.1112 9.47948 41.6728C9.9729 41.1189 10.3895 40.3601 10.2974 39.6442C10.2425 39.2174 10.2827 38.7265 10.595 38.4304C10.9166 38.1255 11.2089 37.7961 11.4684 37.4456Z" fill="#FFBDA7"/>
<path d="M32.8134 32.796C33.1343 32.9559 33.4386 33.1414 33.7226 33.3504C34.195 33.7082 34.6154 34.1185 34.9738 34.5714C36.5333 36.4982 37.1302 39.1648 36.0134 41.327C35.3999 42.5091 34.3204 43.4318 33.0349 44.0275C32.3283 44.355 32.3482 45.0508 33.098 45.2609C33.7483 45.4392 34.2365 46.0773 34.361 46.6869C34.4206 46.9785 34.4051 47.2708 34.2802 47.4965C34.0132 47.979 33.4885 48.1617 32.9915 48.4007C32.4879 48.6429 31.4441 48.877 30.8857 48.8994C30.5993 48.911 30.21 48.8868 29.6786 48.8063C27.8424 48.5282 22.4603 46.5604 20.2703 45.4374C19.4023 45.0226 18.5894 44.5203 17.8471 43.9401C16.505 42.892 15.6176 41.3662 15.2124 39.7887C14.7024 37.7941 14.8803 35.7104 15.1847 33.6819C15.6769 30.4164 16.5406 26.5894 20.6538 25.7053C21.1239 25.5889 21.6168 25.5688 22.0966 25.6465C22.8576 25.7962 23.4802 26.306 23.9072 26.8942C24.8816 28.2507 24.9211 29.9743 24.8164 31.5875C24.7314 32.9101 25.8185 32.2595 26.7514 32.1222C27.7101 31.9703 28.6856 31.923 29.6569 31.9814C30.7612 32.0482 31.8371 32.3259 32.8134 32.796Z" fill="#F0997A"/>
<path opacity="0.2" d="M32.8134 32.796C33.1343 32.9559 33.4386 33.1414 33.7226 33.3504C34.195 33.7082 34.6154 34.1185 34.9738 34.5714C36.5333 36.4982 37.1302 39.1648 36.0134 41.327C35.3999 42.5091 34.3204 43.4318 33.0349 44.0275C32.3283 44.355 32.3482 45.0508 33.098 45.2609C33.7483 45.4392 34.2365 46.0773 34.361 46.6869C34.4206 46.9785 34.4051 47.2708 34.2802 47.4965C34.0132 47.979 33.4885 48.1617 32.9915 48.4007C32.4879 48.6429 31.4441 48.877 30.8857 48.8994C30.5993 48.911 30.21 48.8868 29.6786 48.8063C27.8424 48.5282 22.4603 46.5604 20.2703 45.4374C19.4023 45.0226 18.5894 44.5203 17.8471 43.9401C16.505 42.892 15.6176 41.3662 15.2124 39.7887C14.7024 37.7941 14.8803 35.7104 15.1847 33.6819C15.6769 30.4164 16.5406 26.5894 20.6538 25.7053C21.1239 25.5889 21.6168 25.5688 22.0966 25.6465C22.8576 25.7962 23.4802 26.306 23.9072 26.8942C24.8816 28.2507 24.9211 29.9743 24.8164 31.5875C24.7314 32.9101 25.8185 32.2595 26.7514 32.1222C27.7101 31.9703 28.6856 31.923 29.6569 31.9814C30.7612 32.0482 31.8371 32.3259 32.8134 32.796Z" fill="black"/>
<path opacity="0.2" d="M33.1462 45.9933C33.361 46.1153 33.0085 46.1709 32.7786 46.0806C32.6726 46.039 32.6829 45.84 32.7938 45.8656C32.9292 45.8968 33.0497 45.9384 33.1462 45.9933Z" fill="black"/>
<path opacity="0.2" d="M31.4294 46.5531C31.647 46.6766 31.2946 46.7319 31.0618 46.6404C30.9558 46.5988 30.9661 46.3998 31.077 46.4254C31.2125 46.4566 31.3329 46.4983 31.4294 46.5531Z" fill="black"/>
<path d="M27.7978 42.7404C27.4282 42.7761 27.0072 42.6121 26.8945 42.2966C27.2147 43.0221 26.6969 43.8866 25.9438 44.2573C25.1908 44.6281 24.2598 44.6245 23.404 44.4962C20.3502 44.0381 17.5692 42.031 16.6838 39.3537C16.2133 37.9277 16.2746 36.3948 16.6027 34.9385C17.0978 32.7696 18.1483 30.7351 19.6703 28.9975C20.8404 27.6588 22.3564 26.4735 24.1946 26.0777C26.0328 25.682 28.2149 26.2685 29.1359 27.7586C29.4331 28.2794 29.622 28.8449 29.6933 29.427C30.0313 31.5428 29.5747 33.6854 29.8613 35.8048C30.0432 37.1541 30.4147 38.5355 30.1262 39.8938C29.891 40.9865 29.2782 42.5978 27.7978 42.7404Z" fill="#F5F5F5"/>
<path d="M19.559 36.794C20.4109 36.425 21.3992 36.3929 22.3262 36.5195C22.5495 36.5499 22.7768 36.5923 22.9958 36.6532C23.5129 36.797 24.801 36.739 25.2613 37.015C25.5827 37.2077 26.2064 37.1476 26.4413 36.8557C26.5521 36.718 26.69 36.6029 26.8643 36.523C27.4553 36.2521 28.2815 36.6211 28.6926 37.0435C28.8525 37.2204 28.9905 37.4118 29.1046 37.6141C29.228 37.833 29.7619 38.0549 30.003 38.1255C30.1257 38.159 30.2095 38.2746 30.2175 38.4015C30.2487 38.8974 30.2165 39.3951 30.1216 39.8848C29.8864 40.9864 29.2678 42.5977 27.7933 42.7368C27.4237 42.7724 27.0027 42.6084 26.89 42.2929C27.2102 43.0184 26.6923 43.8829 25.9393 44.2537C25.1862 44.6244 24.2553 44.6209 23.3994 44.4925C21.6558 44.2271 20.1394 43.1397 19.1744 41.6634C18.9048 41.2509 18.661 40.8243 18.4443 40.3857C18.1814 39.8688 17.9383 39.3162 17.9719 38.7511C18.0213 37.9116 18.7071 37.1612 19.559 36.794Z" fill="#E0E0E0"/>
<path d="M36.9625 20.413C37.0218 20.5075 37.0811 20.6038 37.1384 20.7C38.0852 22.2829 38.6959 24.1598 38.0595 25.9316C37.3934 27.7854 35.5315 29.3273 33.7783 30.3754C32.8236 30.9458 30.0229 32.3361 29.1651 30.9226C28.9358 30.5394 28.9496 30.0813 28.9358 29.6463C28.918 29.092 28.833 28.5091 28.4634 28.0653C28.0938 27.6214 27.3605 27.3826 26.8407 27.6785C26.4217 27.9138 26.2714 28.3915 26.224 28.8389C26.1864 29.1775 26.2517 29.7212 26.0698 30.0278C25.888 30.3344 25.2911 30.3611 24.9452 30.4395C24.0913 30.632 23.2829 31.19 23.0932 31.9671C22.9588 32.5197 23.6723 33.705 22.9449 34.033C22.7963 34.0914 22.6366 34.1235 22.4745 34.1275C21.5139 34.1917 20.498 34.0081 19.6243 34.377C19.5761 34.3915 19.5317 34.4148 19.4939 34.4454C19.4207 34.505 19.3842 34.6093 19.4263 34.6938C19.4278 34.6967 19.4293 34.6997 19.4309 34.7026C19.456 34.7481 19.4959 34.7857 19.5453 34.8102C19.646 34.8569 19.7551 34.8871 19.8675 34.8993C20.0962 34.9437 20.3175 35.015 20.5257 35.1114C21.3341 35.4875 20.1205 35.6212 19.9129 35.6996C19.6498 35.8174 19.4096 35.9727 19.2014 36.1595C18.9331 36.3476 18.7163 36.5888 18.5679 36.8645C18.3563 37.2578 18.7934 37.581 19.2327 37.5008C21.7341 37.044 24.0421 38.6465 25.4255 40.4731C26.2861 41.5906 26.6981 42.9394 26.5936 44.2966C26.5221 45.3701 26.1105 46.4026 25.4077 47.2715C24.906 47.9259 23.8677 48.6436 22.8312 49.1004C22.5716 49.2148 22.5809 49.9262 22.8619 49.9649C24.8503 50.2697 25.4749 50.0807 26.4691 50.3588C27.1194 50.5371 27.6076 51.1752 27.7321 51.7848C27.7903 52.0695 27.7768 52.3551 27.6598 52.5785C27.4018 53.0712 26.8562 53.2717 26.3516 53.5055C25.8523 53.7369 24.822 53.9718 24.2723 53.9967C23.9844 54.0097 23.5907 53.9861 23.0497 53.9042C21.2135 53.6261 15.8314 51.6582 13.6414 50.5353C12.7746 50.1192 11.9629 49.6157 11.2221 49.0344C9.88003 47.9863 8.99059 46.4605 8.58738 44.883C8.07743 42.8884 8.25532 40.8047 8.55971 38.7762C9.83457 30.313 14.1434 27.0956 16.0705 25.3381C17.5767 23.9655 20.1501 22.4522 22.5555 21.0957C24.2475 20.1421 25.5381 19.242 26.7972 17.8053C27.3427 17.1814 27.7855 16.4898 28.3448 15.8731C28.839 15.3241 29.4833 14.6788 30.3214 14.6734C31.2148 14.6645 32.0568 15.2296 32.6932 15.7287C34.4074 17.0544 35.8522 18.6396 36.9625 20.413Z" fill="#F0997A"/>
<path d="M11.2227 49.0345C7.78357 46.4053 7.86263 41.9046 8.54849 38.2237C8.99321 35.5037 9.89253 32.7996 11.4006 30.4004C12.6024 28.4682 14.2706 26.8354 16.0712 25.3381C14.3635 26.8675 12.6953 28.5627 11.5548 30.4788C10.102 32.8816 9.22446 35.5607 8.76591 38.2576C8.07807 41.9188 7.92786 46.3251 11.2227 49.0345Z" fill="#B16668"/>
<path opacity="0.2" d="M26.5212 51.0968C26.7385 51.2206 26.3864 51.2756 26.1536 51.1841C26.0478 51.1426 26.0581 50.9434 26.1688 50.9689C26.3043 51.0002 26.4248 51.0419 26.5212 51.0968Z" fill="black"/>
<path opacity="0.2" d="M24.8103 51.6634C25.024 51.7852 24.6842 51.8472 24.4571 51.7527C24.4497 51.7496 24.4423 51.7466 24.4347 51.7437C24.3361 51.7049 24.3464 51.5103 24.4497 51.5337C24.5886 51.5651 24.712 51.6074 24.8103 51.6634Z" fill="black"/>
<path d="M44.8261 30.7139C44.5395 35.245 42.8693 38.6085 42.3416 41.0113C41.9325 42.874 41.6755 43.4141 41.6597 44.2697C41.6065 45.2248 41.7734 46.1795 42.1499 47.0735C42.4987 47.9104 43.0702 48.6572 43.8141 49.2482C45.1642 50.2212 45.942 50.3901 46.0147 51.0915C46.0244 51.1857 46.0124 51.2811 45.9837 51.3713C45.9486 51.4817 45.8854 51.629 45.7714 51.7498C45.5145 52.022 44.9609 52.3517 44.5941 52.4266C44.215 52.5041 43.9644 52.7124 43.5922 52.8184C43.1826 52.9352 42.4695 52.9296 41.2505 52.4513C40.2623 52.0698 39.8136 51.6278 39.3867 50.0057C39.189 49.2321 38.9637 48.0735 38.4261 46.4657C38.1061 45.5079 37.9869 44.8818 37.9436 44.5848C37.9265 44.4672 37.974 44.3754 37.8552 44.3812C37.6284 44.3925 37.2321 44.5047 37.2281 44.2777C37.2226 43.9721 37.2822 43.6406 37.3825 43.398C37.5564 42.9774 37.8035 41.7385 37.6355 40.5086C37.4243 39.0305 37.1247 37.5638 36.7381 36.1148C36.7638 36.2021 35.2972 36.261 35.1964 36.2681C34.5114 36.2859 33.8353 36.4139 33.2001 36.646C32.3265 36.9936 31.6367 37.621 30.9291 38.1985C30.6478 38.4422 30.3383 38.6579 30.006 38.842C29.5567 39.05 29.0759 39.1972 28.579 39.2787C28.156 39.3696 27.8319 39.457 27.4326 39.2074C27.2376 39.0741 27.072 38.9091 26.9444 38.7208C26.0273 37.4731 25.7585 35.9223 25.7585 34.4268C25.749 33.4112 25.8417 32.397 26.0352 31.3966C26.1103 31.0115 26.1992 30.6283 26.304 30.2504C26.4087 29.8725 26.5886 29.5 26.6617 29.1221C26.7665 28.5874 26.7922 28.0241 26.897 27.4804C27.1325 26.305 27.452 25.1446 27.8536 24.0064C28.6126 21.8353 29.6068 19.6803 30.9904 17.7677C31.7316 16.7427 33.0183 15.0226 34.5956 15.0939C37.2481 15.249 42.0392 15.716 42.6183 19.8692C43.0769 23.2043 45.172 25.2719 44.8261 30.7139Z" fill="#F0997A"/>
<path d="M31.9039 31.4269C31.7625 31.3841 31.6111 31.3755 31.4648 31.4017C31.2485 31.4406 30.9848 31.376 30.8611 31.1944C30.8256 31.1422 30.7877 31.0914 30.7476 31.0419C30.5798 30.8147 30.3497 30.6305 30.0796 30.5071C29.9626 30.4626 29.8369 30.4397 29.7099 30.4397C29.583 30.4397 29.4573 30.4626 29.3403 30.5071C29.0992 30.5945 28.8067 30.8013 28.8047 31.0597C28.8047 31.1025 28.8857 31.1791 28.9272 31.1275C29.0487 30.9486 29.2321 30.8108 29.449 30.7353C29.5472 30.7064 29.6512 30.6973 29.7537 30.7087C29.8561 30.7201 29.9546 30.7517 30.042 30.8013C30.4526 31.0662 30.7444 31.4551 30.8642 31.8975C30.8998 32.0133 31.0955 31.9866 31.1429 31.8975C31.2189 31.7806 31.3375 31.6913 31.4785 31.6448C31.6196 31.5983 31.7742 31.5975 31.9158 31.6426C32.0638 31.6946 32.1966 31.7766 32.3039 31.8823C32.4112 31.988 32.4901 32.1146 32.5344 32.2522C32.5463 32.2807 32.5838 32.2718 32.5799 32.2415C32.5592 32.0634 32.4854 31.8936 32.3664 31.7502C32.2474 31.6068 32.0876 31.4951 31.9039 31.4269Z" fill="#B16668"/>
<path d="M43.8136 49.25C43.0697 48.659 42.4982 47.9123 42.1494 47.0754C41.7727 46.1808 41.6058 45.2254 41.6592 44.2697C41.675 43.4141 41.9319 42.874 42.3411 41.0113C42.5204 40.1801 42.8429 39.2343 43.195 38.1648C43.2446 38.0141 43.1118 37.8601 42.955 37.836C42.8161 37.8148 42.6671 37.899 42.6121 38.0283C42.4025 38.5212 41.8282 38.8998 41.2639 38.7725C40.5998 38.6228 40.4298 37.7547 40.9536 37.3876C39.1885 38.3733 39.4929 36.7619 39.5838 35.7494C39.6589 34.9242 39.7044 33.6711 39.1134 32.9652C38.4493 32.172 37.5539 32.4215 36.8483 33.0935C36.072 33.8306 35.8918 34.8319 35.8906 35.8249C35.8903 36.0703 36.141 36.2457 36.3817 36.198C36.5951 36.1557 36.782 36.2894 36.8359 36.5002C37.175 37.8266 37.4417 39.1674 37.635 40.5176C37.803 41.7475 37.5559 42.9863 37.382 43.407C37.2822 43.6482 37.226 43.9756 37.2316 44.2792C37.2358 44.503 37.6345 44.3993 37.8581 44.3901C37.9735 44.3853 37.9258 44.4735 37.9423 44.5878C37.9847 44.8822 38.1034 45.5104 38.4256 46.4747C38.9632 48.0789 39.1826 49.2411 39.3862 50.0147C39.8131 51.6367 40.2697 52.0788 41.25 52.4603C42.4684 52.9356 43.1818 52.9406 43.5916 52.8243C43.9632 52.7189 44.2127 52.5127 44.5913 52.4361C44.9593 52.3615 45.5149 52.031 45.7728 51.758C45.8928 51.631 45.9567 51.4748 45.99 51.3631C46.0136 51.2841 46.0228 51.2008 46.016 51.1187C45.9556 50.3946 45.176 50.2285 43.8136 49.25Z" fill="#F0F0F0"/>
<path opacity="0.2" d="M44.1486 51.4123C44.0998 51.3822 44.0166 51.3451 43.9149 51.3049C43.7991 51.2592 43.7498 51.3823 43.864 51.4319C43.8699 51.4345 43.8757 51.437 43.8814 51.4397C44.0456 51.5156 44.3032 51.5064 44.1486 51.4123ZM45.2397 50.9292C45.1902 50.8988 45.1051 50.8612 45.001 50.8208C44.8809 50.7742 44.8292 50.9043 44.9472 50.956C45.1183 51.0309 45.3976 51.029 45.2397 50.9292Z" fill="black"/>
<path d="M38.3496 22.7518C38.1454 23.2166 37.88 23.6577 37.559 24.0655C36.966 24.8016 36.1853 25.3845 35.5093 26.0547C34.8334 26.7249 34.2503 27.5431 34.2266 28.4486C34.2266 28.0097 34.8572 28.5997 34.6513 28.9873C34.6274 29.0323 34.6055 29.0785 34.5863 29.1259C34.4075 29.5673 34.9757 29.8067 35.3816 29.5577C35.4165 29.5363 35.4519 29.5153 35.4876 29.4949C35.3156 29.5929 35.2287 30.2079 35.1891 30.3861C35.1177 30.7048 35.0806 31.0289 35.0785 31.354C35.0785 31.8888 35.0903 32.411 35.0785 32.9458C35.0563 33.5946 35.009 34.2383 34.9058 34.8743C34.7829 35.6323 35.4159 36.3932 36.1715 36.2559C37.2902 36.0598 38.2409 35.6035 39.0434 35.2327C40.5969 34.5197 41.4646 33.903 42.4489 32.6053C45.1904 28.9869 43.6349 23.9335 40.2906 21.1012C40.1322 20.9484 39.9404 20.827 39.7273 20.7447C39.62 20.7058 39.5028 20.6944 39.3888 20.7117C39.1663 20.7455 38.9831 20.9199 38.9131 21.1337C38.8998 21.1743 38.8898 21.2158 38.8833 21.258C38.7441 21.7665 38.5658 22.2656 38.3496 22.7518Z" fill="#FAFAFA"/>
<path d="M46.4168 23.2437C46.6738 23.8515 46.486 24.5805 46.2725 25.224C45.8982 26.4427 45.3773 27.6208 44.719 28.7373C44.0567 29.8568 43.103 30.8146 41.94 31.5287C41.7146 31.6588 41.4221 31.7782 41.1928 31.6552C41.1092 31.5942 41.041 31.5178 40.9926 31.4311C40.8976 31.2611 40.8934 31.0566 40.8552 30.8656C40.7454 30.3172 40.6204 29.7683 40.3192 29.2827C39.9516 28.6802 39.3507 28.2293 38.7775 27.7747C37.4947 26.7587 36.3306 25.6465 35.1012 24.5877C33.8748 23.5278 32.783 22.3483 31.8458 21.0708C30.4998 19.25 32.2787 17.9163 34.4664 18.5C34.5428 18.5204 34.6193 18.5402 34.696 18.5593C36.1478 18.9206 37.6223 19.2033 39.1115 19.406C40.5097 19.6004 41.9195 19.7194 43.3334 19.7625C44.0489 19.7821 45.3594 19.6359 45.8535 20.242C46.3476 20.848 45.7567 21.2348 45.5926 21.7624C45.4523 22.2152 45.9879 22.5806 46.2666 22.9763C46.3269 23.0604 46.3773 23.15 46.4168 23.2437Z" fill="#BA68C8"/>
<path opacity="0.3" d="M46.4168 23.2437C46.6738 23.8515 46.486 24.5805 46.2725 25.224C45.8982 26.4427 45.3773 27.6208 44.719 28.7373C44.0567 29.8568 43.103 30.8146 41.94 31.5287C41.7146 31.6588 41.4221 31.7782 41.1928 31.6552C41.1092 31.5942 41.041 31.5178 40.9926 31.4311C40.8976 31.2611 40.8934 31.0566 40.8552 30.8656C40.7454 30.3172 40.6204 29.7683 40.3192 29.2827C39.9516 28.6802 39.3507 28.2293 38.7775 27.7747C37.4947 26.7587 36.3306 25.6465 35.1012 24.5877C33.8748 23.5278 32.783 22.3483 31.8458 21.0708C30.4998 19.25 32.2787 17.9163 34.4664 18.5C34.5428 18.5204 34.6193 18.5402 34.696 18.5593C36.1478 18.9206 37.6223 19.2033 39.1115 19.406C40.5097 19.6004 41.9195 19.7194 43.3334 19.7625C44.0489 19.7821 45.3594 19.6359 45.8535 20.242C46.3476 20.848 45.7567 21.2348 45.5926 21.7624C45.4523 22.2152 45.9879 22.5806 46.2666 22.9763C46.3269 23.0604 46.3773 23.15 46.4168 23.2437Z" fill="white"/>
<path opacity="0.3" d="M42.991 24.2933C42.645 24.4945 42.2443 24.6061 41.8327 24.616C41.3691 24.6053 40.91 24.5314 40.4709 24.3967C39.7277 24.2006 38.9977 23.976 38.2809 23.7229C38.097 23.6409 37.8928 23.6029 37.6879 23.6124C37.588 23.6187 37.4944 23.6591 37.4261 23.7253C37.2957 23.8517 37.3325 24.0688 37.4597 24.1985C37.5149 24.2548 37.5763 24.3082 37.6247 24.3664C37.7471 24.5222 37.892 24.6624 38.0556 24.7835C38.4786 25.1067 38.9002 25.4306 39.3206 25.755L40.8326 26.9172C41.0915 27.115 41.3584 27.3057 41.6074 27.5125C41.8565 27.7193 42.0027 27.8583 42.3348 27.7995C42.6375 27.7279 42.9077 27.5727 43.1076 27.3556C43.6906 26.7669 44.1524 26.089 44.4714 25.3539C44.6544 25.0156 44.7968 24.6606 44.8964 24.2951C44.9774 23.9154 45.1869 23.5821 45.2146 23.1793C45.2363 22.8869 45.0169 22.6142 44.6948 22.8834C44.1591 23.3486 43.6373 23.9351 42.991 24.2933Z" fill="#BA68C8"/>
<path opacity="0.3" d="M41.1737 23.8478C41.5038 23.8585 41.8655 23.8817 42.1619 23.7373C42.3201 23.6607 42.7154 23.4414 42.4308 23.2863C42.2529 23.1901 41.9682 23.24 41.7706 23.2293C41.5196 23.215 41.2686 23.1865 41.0215 23.1509C40.5254 23.0796 40.0332 22.9726 39.5411 22.8906C39.4363 22.8708 39.3053 22.8678 39.2156 22.908C39.1263 22.9481 39.1018 23.0674 39.1472 23.1542C39.1704 23.1985 39.206 23.2367 39.2505 23.265C39.7624 23.6874 40.4858 23.8247 41.1737 23.8478Z" fill="#BA68C8"/>
<path d="M41.2566 4.53462C41.059 4.38667 40.7269 4.33498 40.6637 4.10682C40.6538 4.05192 40.6538 3.99595 40.6637 3.94105C40.692 3.61125 40.7822 3.28819 40.9305 2.98564C41.0697 2.70145 41.2462 2.43334 41.4563 2.18708C41.9019 1.68654 42.422 1.24387 43.0019 0.871607C43.6225 0.449158 44.3163 0.0534451 45.0931 0.00710048C45.1793 -0.00570083 45.2676 -0.00115229 45.3517 0.0204183C45.4357 0.0419888 45.5135 0.0800489 45.5793 0.131875C45.7196 0.270909 45.6841 0.488373 45.6406 0.666621C45.4983 1.26375 45.3164 1.83237 45.1425 2.42415C44.9152 3.19597 45.0358 3.98204 44.933 4.7699C44.9208 4.97079 44.8528 5.1657 44.7353 5.33674C44.5957 5.49565 44.4074 5.61405 44.1938 5.67719C43.6708 5.84979 43.094 5.83254 42.5849 5.62906C42.5082 5.60544 42.4329 5.57806 42.3595 5.54707C42.1301 5.45627 41.9216 5.32749 41.7448 5.1674C41.5393 4.98202 41.4879 4.70395 41.2566 4.53462Z" fill="#F0997A"/>
<path d="M41.954 4.24409C42.0588 4.48829 42.3375 4.62911 42.5984 4.74319C43.0648 4.94635 43.5439 5.1249 44.0333 5.27794C44.0626 5.28942 44.0943 5.2949 44.1262 5.29398C44.1563 5.28888 44.1841 5.27581 44.2059 5.25645C44.2277 5.23708 44.2426 5.21229 44.2488 5.18525C44.2607 5.13111 44.2607 5.0754 44.2488 5.02126C44.0983 3.9337 44.2575 2.8295 44.7113 1.81278C44.8333 1.57085 44.9377 1.32195 45.0236 1.0677C45.1027 0.794982 44.9505 0.557913 44.6283 0.666644C44.2718 0.805069 43.9508 1.00835 43.6855 1.26378C43.1196 1.7568 42.6332 2.31901 42.2406 2.93397C41.9916 3.33146 41.7623 3.79491 41.954 4.24409Z" fill="#FFBDA7"/>
<path d="M43.0473 3.68606C43.1014 3.30317 43.2355 2.93301 43.4426 2.59518C43.4979 2.50071 43.5552 2.40802 43.6165 2.31533C43.6988 2.2093 43.7734 2.09855 43.8398 1.98379C43.8537 1.95705 43.83 1.8911 43.7865 1.91427C43.5392 2.0865 43.3368 2.30554 43.1935 2.55597C43.0228 2.81559 42.8981 3.09765 42.8239 3.39196C42.7542 3.6757 42.7395 3.96819 42.7804 4.25646C42.8219 4.54166 42.901 4.8839 43.1619 5.06928C43.1935 5.09245 43.2884 5.11562 43.2884 5.04967C43.2884 4.98181 43.2756 4.91513 43.2564 4.84898C43.1778 4.5788 43.3598 4.3396 43.5513 4.13347C43.6232 4.05365 43.6763 3.96147 43.7074 3.86253C43.7207 3.82518 43.7313 3.78707 43.739 3.74845C43.7469 3.70812 43.7485 3.66714 43.744 3.62663C43.7386 3.57782 43.7118 3.4945 43.6738 3.52564C43.6628 3.53682 43.6522 3.54827 43.642 3.55999C43.5265 3.69268 43.4743 3.87184 43.3516 3.998L43.3398 4.00869L43.318 4.02652C43.3012 4.04097 43.2831 4.0542 43.264 4.06609C43.2606 4.06822 43.2566 4.0693 43.2526 4.0693C43.2488 4.0693 43.2452 4.07026 43.2419 4.07208L43.2212 4.08356L43.2042 4.09233C43.1972 4.09594 43.1894 4.09782 43.1815 4.09782C43.1764 4.09782 43.1713 4.09862 43.1664 4.1002L43.1461 4.10673C43.1277 4.11264 43.0864 4.11564 43.1057 4.11564C43.1065 4.11564 43.1075 4.11564 43.1085 4.11564H43.0809C43.0684 4.11564 43.0579 4.10639 43.0565 4.09406C43.041 3.95853 43.0379 3.82207 43.0473 3.68606Z" fill="#F0997A"/>
<path d="M49.1599 13.6875C49.1321 13.5736 49.2245 13.4743 49.3413 13.4633C49.4741 13.4507 49.5685 13.3266 49.5275 13.1997C49.3462 12.6382 48.9154 12.1554 48.5287 11.6753C48.1715 11.2358 47.8416 10.7788 47.5404 10.3063C47.2898 9.87003 47.0987 9.40797 46.9712 8.93025C46.9397 8.84499 46.9194 8.75614 46.9045 8.66646C46.851 8.34291 46.7443 8.02808 46.5877 7.73242C46.1549 7.01943 45.5382 6.10858 44.4729 5.39024C43.4075 4.6719 42.7098 3.96425 39.9051 4.16389C37.5787 4.32609 35.2919 4.59703 33.1196 6.49894C32.3526 7.13881 31.7146 7.89391 31.234 8.73062C31.0364 9.09959 30.7616 9.44361 30.6272 9.8411C30.4928 10.2386 30.4454 10.6753 30.2122 11.0461C29.7734 11.7412 28.7436 12.0656 28.4787 12.8286C28.467 12.8533 28.4609 12.88 28.4609 12.907C28.4609 12.9609 28.4927 13.0138 28.5436 13.0317C28.5911 13.0484 28.6508 13.0483 28.7041 13.046L29.0413 13.0266C29.2385 13.0152 29.3643 13.2839 29.2773 13.4613C29.2367 13.5488 29.2226 13.6444 29.2365 13.7384C29.2504 13.8323 29.2918 13.9213 29.3563 13.9961C29.5322 14.1743 29.8287 14.1654 30.0876 14.1494C29.8327 14.1654 30.0876 16.1101 30.1311 16.3151C30.2698 16.8464 30.5245 17.3476 30.8802 17.7892C31.1644 18.1845 31.5129 18.539 31.914 18.8409C32.9242 19.483 34.0051 20.0296 35.1397 20.4718C36.6914 21.0996 38.6168 21.2771 40.1957 21.2608C41.9295 21.2429 42.0932 18.8914 43.7593 18.4113C44.2179 18.2794 44.6843 18.3721 45.1429 18.2883C45.541 18.1966 45.912 18.0275 46.23 17.7928C46.3122 17.7346 46.4907 17.5235 46.6629 17.333C46.8905 17.0815 47.2168 16.9844 47.5123 16.8179C47.8208 16.644 48.1964 16.3081 48.3666 15.6698C48.3749 15.6384 48.3832 15.6072 48.3916 15.5762C48.4412 15.3942 48.5562 15.2168 48.7441 15.201C49.1395 15.1769 49.4852 15.0311 49.4399 14.6376C49.4112 14.3885 49.3463 14.1428 49.2462 13.907C49.2073 13.8371 49.1784 13.7633 49.1599 13.6875Z" fill="#F0997A"/>
<path d="M49.2354 13.9194C49.1935 13.8449 49.1629 13.7659 49.1443 13.6846C49.1182 13.5707 49.2108 13.4726 49.3271 13.4616C49.4607 13.449 49.5556 13.3242 49.5143 13.1966C49.3328 12.6357 48.9023 12.1532 48.5159 11.6735C48.2017 11.2891 47.7141 11.1276 47.222 11.1931C46.7899 11.2505 46.3091 11.2174 45.733 10.8714C45.1657 10.5292 44.9186 9.76447 44.7744 9.19407C44.6736 8.79836 44.6617 8.39017 44.5431 7.99624C44.4127 7.55775 44.0035 6.9517 43.3947 7.13708C43.1635 7.20838 42.9994 7.39911 42.8018 7.51319C42.4381 7.71104 41.9776 7.65935 41.5605 7.58984C41.1435 7.52032 40.6908 7.44724 40.3094 7.61657C40.1485 7.68966 40.0128 7.80103 39.917 7.93864C39.8212 8.07624 39.7689 8.23485 39.7658 8.3973C39.7868 8.70978 39.9264 9.00622 40.1611 9.23685C40.3785 9.47749 40.6375 9.68782 40.8351 9.94984C41.2621 10.4935 41.4083 11.3919 40.8509 11.9106C40.5694 12.1693 40.1892 12.3216 39.7876 12.3366C39.5876 12.3436 39.3894 12.3005 39.215 12.2121C39.0405 12.1236 38.8966 11.9934 38.7993 11.8357C38.6688 11.62 38.6155 11.3473 38.3882 11.2136C38.0225 10.9997 37.5659 11.3063 37.2576 11.5862C35.9249 12.7921 34.4388 13.8517 32.8302 14.7429C32.4665 14.9444 32.0554 15.1993 32.0395 15.5825C32.0277 15.8624 32.2372 16.1048 32.4566 16.2955C32.8338 16.6365 33.263 16.925 33.7299 17.1529C33.9186 17.245 33.9025 17.6763 33.7255 17.7892C32.6143 18.629 34.6844 19.1101 35.8819 19.2324C36.1999 19.2648 36.6466 19.6208 36.8998 19.8159C37.3841 20.1902 38.0186 20.5521 38.3901 21.0226C38.4757 21.1292 38.5954 21.208 38.7317 21.2176C40.7778 21.3622 42.6321 21.123 43.0884 20.9353C43.9442 20.6537 44.5589 20.3186 44.7368 19.7731C44.9483 19.1314 42.9737 18.6395 43.7624 18.4113C44.2209 18.2794 44.6874 18.3721 45.1459 18.2883C45.5441 18.1966 45.9151 18.0275 46.233 17.7928C46.3152 17.7346 46.4937 17.5235 46.666 17.333C46.8936 17.0815 47.2198 16.9844 47.5154 16.8179C47.8239 16.644 48.1994 16.3081 48.3697 15.6698C48.3779 15.6384 48.3863 15.6072 48.3947 15.5762C48.4442 15.3942 48.5593 15.2168 48.7472 15.201C49.1412 15.177 49.4841 15.0291 49.4339 14.6375C49.4025 14.3924 49.336 14.151 49.2354 13.9194Z" fill="#FAFAFA"/>
<path d="M49.3386 13.4672C49.4729 13.4524 49.5674 13.3263 49.5258 13.1978C49.3441 12.6371 48.9138 12.1548 48.5275 11.6751C48.2132 11.2907 47.7257 11.1293 47.2335 11.1947C46.8014 11.2522 46.3207 11.2191 45.7445 10.873C45.647 10.8122 45.5059 10.9024 45.5634 11.0019C45.6417 11.1377 45.7389 11.2645 45.8532 11.3792C46.2209 11.766 46.6438 12.1101 46.9957 12.5076C47.5723 13.1643 47.9409 13.9489 48.0635 14.7779C48.0732 14.8439 48.0318 14.9062 47.9678 14.9248C47.8609 14.9559 47.8312 15.101 47.8938 15.1931C47.9092 15.2158 47.9234 15.2392 47.9364 15.2633C47.9908 15.3641 48.0218 15.4739 48.0274 15.5859C48.0251 15.6232 48.016 15.6601 48.0013 15.6954C47.9105 15.9131 47.6674 16.3286 47.5096 16.5039C47.4443 16.5752 47.3455 16.618 47.2842 16.6928C47.2565 16.7322 47.239 16.7766 47.2328 16.8229C47.2226 16.8997 47.3075 16.9398 47.3781 16.9078C47.7029 16.7606 48.172 16.427 48.3674 15.6911C48.3756 15.6596 48.384 15.6284 48.3924 15.5974C48.4419 15.4155 48.557 15.238 48.7449 15.2223C49.1403 15.1981 49.4859 15.0524 49.4406 14.6589C49.4119 14.4097 49.3471 14.164 49.2469 13.9282C49.2051 13.8537 49.1745 13.7748 49.1559 13.6937C49.1296 13.5792 49.2219 13.4801 49.3386 13.4672Z" fill="#E0E0E0"/>
<path d="M42.4785 15.4489C42.4894 15.4688 42.4934 15.4913 42.4901 15.5133C42.4868 15.5353 42.4763 15.556 42.46 15.5727C42.4437 15.5893 42.4222 15.6012 42.3984 15.6069C42.3745 15.6125 42.3494 15.6117 42.3261 15.6044C42.3028 15.5972 42.2824 15.5838 42.2675 15.5661C42.2526 15.5484 42.2439 15.5271 42.2424 15.5049C42.241 15.4827 42.2468 15.4606 42.2593 15.4414C42.2718 15.4223 42.2903 15.4069 42.3125 15.3972C42.3421 15.3843 42.3762 15.3824 42.4073 15.3921C42.4385 15.4018 42.4641 15.4222 42.4785 15.4489Z" fill="#37474F"/>
<path d="M43.5757 15.274C43.5827 15.2871 43.5868 15.3013 43.5878 15.3158C43.5887 15.3304 43.5864 15.3449 43.5811 15.3587C43.5758 15.3724 43.5675 15.3851 43.5567 15.3959C43.5459 15.4068 43.5329 15.4156 43.5183 15.4219C43.5035 15.4302 43.4868 15.4356 43.4695 15.4378C43.4521 15.4399 43.4345 15.4387 43.4177 15.4343C43.4009 15.4299 43.3853 15.4223 43.372 15.412C43.3586 15.4018 43.3478 15.3892 43.3403 15.3749C43.3327 15.3607 43.3286 15.3452 43.3282 15.3294C43.3277 15.3136 43.331 15.2979 43.3377 15.2833C43.3444 15.2688 43.3545 15.2556 43.3672 15.2448C43.38 15.234 43.3951 15.2257 43.4116 15.2205C43.4262 15.2142 43.4421 15.2106 43.4583 15.2099C43.4746 15.2091 43.4908 15.2113 43.506 15.2163C43.5213 15.2213 43.5353 15.2289 43.5473 15.2388C43.5592 15.2487 43.5689 15.2607 43.5757 15.274Z" fill="#37474F"/>
<path d="M43.3124 16.1422C43.3225 16.1683 43.3216 16.1968 43.3098 16.2224C43.298 16.2479 43.2762 16.2686 43.2485 16.2805C43.2209 16.2924 43.1893 16.2947 43.1599 16.287C43.1304 16.2792 43.1052 16.2619 43.089 16.2384C43.0798 16.225 43.0738 16.21 43.0715 16.1944C43.0691 16.1787 43.0704 16.1628 43.0753 16.1477C43.0802 16.1325 43.0886 16.1185 43.1 16.1064C43.1113 16.0944 43.1253 16.0847 43.1411 16.0779C43.1569 16.0711 43.1741 16.0673 43.1916 16.0669C43.2091 16.0665 43.2265 16.0695 43.2427 16.0755C43.2589 16.0816 43.2734 16.0907 43.2854 16.1022C43.2974 16.1136 43.3066 16.1273 43.3124 16.1422Z" fill="#37474F"/>
<path d="M45.3388 16.4292C45.453 16.339 45.5799 16.2629 45.7163 16.2028C45.837 16.1398 45.952 16.0682 46.0602 15.9889C46.0907 15.9666 46.1279 15.9529 46.167 15.9497C46.2202 15.9524 46.2706 15.972 46.3093 16.005C46.5538 16.1804 46.7673 16.3884 46.9424 16.6218C46.9486 16.63 46.9569 16.6369 46.9611 16.6463C46.9651 16.6553 46.9613 16.6658 46.9541 16.6725C46.9515 16.6748 46.9487 16.6769 46.9457 16.6787C46.7032 16.8358 46.4227 16.9384 46.1274 16.978C45.8321 17.0177 45.5306 16.9933 45.2479 16.9069C45.1332 16.8695 44.9237 16.8035 45.0285 16.6823C45.1213 16.5879 45.2254 16.503 45.3388 16.4292Z" fill="black"/>
<path d="M44.3687 12.8107C44.2089 12.9515 44.0872 13.1235 44.0129 13.3134C43.9597 13.4504 43.9375 13.5956 43.9477 13.7404C43.9579 13.8852 44.0002 14.0267 44.0722 14.1565C44.2541 14.4756 44.5841 14.6039 44.9478 14.6913C44.9587 14.6948 44.9706 14.6948 44.9814 14.6913C44.9932 14.6862 45.0024 14.6773 45.0071 14.6663C45.0307 14.6239 45.0437 14.5774 45.0455 14.53C45.0459 14.5178 45.0456 14.5055 45.0445 14.4934C45.0383 14.4233 44.9925 14.3641 44.9613 14.3011C44.9262 14.2301 44.9084 14.1404 44.9616 14.0818C44.9622 14.0812 44.9627 14.0806 44.9632 14.0801C44.9919 14.0492 45.0321 14.0289 45.0763 14.0228C45.3385 13.9966 45.3664 14.2256 45.3638 14.4128C45.3625 14.5091 45.3316 14.6143 45.3807 14.6972C45.4325 14.7846 45.5421 14.8157 45.631 14.8649C45.7845 14.9497 45.9394 15.0356 46.1001 15.1226C46.1522 15.1552 46.2116 15.1772 46.2741 15.1868C46.3292 15.1887 46.384 15.179 46.4342 15.1583C46.622 15.1044 46.7909 15.0071 46.924 14.8761C47.0572 14.745 47.15 14.5848 47.1932 14.4114C47.2208 14.2759 47.205 14.1351 47.2327 13.9997C47.2349 13.9801 47.2414 13.9612 47.2519 13.9441C47.2625 13.9269 47.2768 13.9119 47.294 13.8998C47.379 13.8553 47.5035 13.9301 47.5391 13.9979C47.6284 14.1679 47.7089 14.0955 47.7499 13.9079C47.7614 13.8554 47.7683 13.8021 47.7703 13.7483C47.8494 13.2136 47.6241 12.5612 46.9955 12.3954C46.7582 12.3401 46.5125 12.3202 46.2682 12.3366C45.928 12.3475 45.5894 12.3845 45.2562 12.4471C45.0462 12.4781 44.8429 12.5383 44.6533 12.6254C44.5492 12.6747 44.4533 12.7371 44.3687 12.8107Z" fill="#263238"/>
<path d="M47.0295 16.3995C47.0044 16.3784 46.977 16.3603 46.9488 16.3436C46.9083 16.3196 46.8683 16.2949 46.8288 16.2697C46.6401 16.1489 46.4583 15.9931 46.4047 15.7755C46.3943 15.7332 46.3875 15.6901 46.3845 15.6465C46.3673 15.5082 46.3681 15.3698 46.3607 15.2315C46.3585 15.191 46.3644 15.1476 46.346 15.1115C46.327 15.074 46.2799 15.0541 46.2413 15.0707C46.2402 15.0712 46.2391 15.0717 46.238 15.0722C46.2178 15.0818 46.2024 15.0978 46.1948 15.1171C46.181 15.1569 46.1769 15.1988 46.1829 15.2401C46.192 15.4196 46.144 15.5977 46.0445 15.7535C45.9381 15.8814 45.7954 15.9812 45.6314 16.0422C44.9001 16.4112 44.4001 17.0173 43.5245 17.1581C43.093 17.213 42.6531 17.1587 42.2539 17.0013C41.8546 16.844 41.5117 16.5897 41.2633 16.2668C41.0874 16.0422 40.9431 15.7998 40.7751 15.5717C40.7593 15.5485 40.7296 15.5218 40.702 15.5342C40.6743 15.5467 40.6802 15.5681 40.6802 15.5895C40.6941 15.9014 40.9273 16.1902 41.1012 16.4469C41.3275 16.8167 41.6718 17.1166 42.0895 17.3078C42.6686 17.552 43.3466 17.7035 43.9455 17.5003C44.3087 17.3464 44.6423 17.1412 44.9337 16.8925C45.1432 16.7392 45.3626 16.5948 45.586 16.4593C45.7887 16.3689 45.9797 16.2583 46.1552 16.1296C46.1857 16.1011 46.2363 16.1031 46.2617 16.1363C46.3587 16.2633 46.4814 16.3729 46.6237 16.4593C46.7497 16.5391 46.8566 16.6409 46.9379 16.7588C46.9512 16.7808 46.9635 16.8032 46.9749 16.826C47.0223 16.9214 47.1231 16.991 47.2234 16.955C47.3214 16.9198 47.3577 16.8055 47.3033 16.7167C47.2311 16.5989 47.1388 16.4918 47.0295 16.3995Z" fill="#263238"/>
<path d="M38.4913 7.37039C37.9972 7.61281 37.4616 7.99961 37.258 8.48623C37.1987 8.63061 37.0979 8.88907 37.2995 8.9782C37.5011 9.06732 37.8312 8.84986 37.9952 8.73935C38.3427 8.53507 38.7016 8.34707 39.0705 8.17608C39.2356 8.10087 39.3847 8.00011 39.5112 7.8784C40.0152 7.33296 39.1159 7.09589 38.6613 7.29197C38.604 7.32405 38.5467 7.34188 38.4913 7.37039Z" fill="#FAFAFA"/>
<path d="M45.3234 6.47749C45.8689 6.5987 46.4975 6.84825 46.8315 7.27248C46.9303 7.39726 47.1023 7.62898 46.9323 7.75732C46.7623 7.88566 46.3828 7.75732 46.1931 7.6878C45.7991 7.57046 45.3987 7.4717 44.9933 7.39191C44.8126 7.35937 44.6395 7.29908 44.4814 7.21366C43.839 6.80369 44.6395 6.36698 45.1356 6.44897L45.3234 6.47749Z" fill="#FAFAFA"/>
<path d="M40.465 10.6201C40.2837 10.412 40.0316 10.2636 39.7475 10.1976C39.4564 10.1421 39.1539 10.1606 38.8739 10.2511C38.6748 10.3093 38.4967 10.4146 38.358 10.5559C38.2453 10.67 38.0753 10.9017 38.105 11.0657C38.1564 11.3455 38.7236 10.9676 38.8521 10.9106C39.0713 10.8157 39.3107 10.7646 39.5538 10.7609C39.7995 10.7776 40.0429 10.8146 40.2811 10.8714C40.5124 10.9088 40.5994 10.793 40.465 10.6201Z" fill="#263238"/>
<path d="M46.9854 10.023C46.8269 9.84143 46.6068 9.71181 46.3588 9.65398C46.104 9.60501 45.8391 9.62106 45.5939 9.70032C45.4196 9.75105 45.2633 9.84272 45.1413 9.96592C44.8915 10.1955 45.0635 10.5439 45.3653 10.3888C45.4572 10.3415 45.5372 10.2939 45.5741 10.2779C45.7661 10.1944 45.9758 10.1495 46.1888 10.1459C46.404 10.1602 46.6171 10.193 46.8253 10.244C47.0269 10.2761 47.104 10.1762 46.9854 10.023Z" fill="#263238"/>
<path d="M37.5196 17.6625C37.5453 18.019 37.9802 18.2097 38.3656 18.2543C38.7302 18.2953 39.0984 18.263 39.4444 18.1618C39.6536 18.1006 39.9009 18.2447 40.0465 18.4068C40.1513 18.5233 40.2933 18.608 40.4532 18.6493C40.6132 18.6906 40.7834 18.6865 40.9407 18.6375C41.1542 18.571 41.4879 18.5897 41.6987 18.6641C41.8154 18.7053 41.9441 18.7267 42.0676 18.732C42.71 18.757 43.3623 18.4343 43.9987 18.3612C44.6351 18.2882 45.2657 18.3773 45.8013 18.0636C45.8739 18.0199 45.9679 18.0615 45.9944 18.142C46.0022 18.1659 46.009 18.1854 46.0128 18.1937C46.0885 18.4174 46.1349 18.6483 46.1512 18.8817C46.173 19.0645 46.0869 19.2545 45.931 19.3525C45.8502 19.4032 45.7568 19.435 45.659 19.445C45.4617 19.4604 45.2633 19.4604 45.066 19.445C45.0559 19.4443 45.0458 19.4441 45.0357 19.4444C44.944 19.4466 44.8564 19.5011 44.8141 19.5826C44.7876 19.6337 44.776 19.69 44.751 19.7419C44.6898 19.8689 44.6028 19.9848 44.4943 20.0835C44.3635 20.2023 44.2048 20.2932 44.0298 20.3493C43.8549 20.4055 43.6682 20.4254 43.4835 20.4077C43.2989 20.39 43.121 20.3351 42.963 20.2471C42.9597 20.2447 42.9564 20.2423 42.953 20.2399C42.7796 20.1169 42.5287 20.1168 42.3681 20.256C42.1028 20.4388 41.7977 20.569 41.4727 20.6381C41.1478 20.7072 40.8103 20.7137 40.4824 20.6571C40.156 20.5955 39.8521 20.4604 39.5991 20.2643C39.3462 20.0683 39.1523 19.8177 39.0356 19.5359C39.0139 19.4771 38.9862 19.4093 38.921 19.3915C38.8711 19.3839 38.8199 19.3927 38.7767 19.4165C38.5458 19.5239 38.2894 19.579 38.0296 19.5769C37.8998 19.5736 37.7737 19.537 37.6662 19.4713C37.5587 19.4056 37.4743 19.3136 37.4228 19.2061C37.402 19.1509 37.3932 19.0941 37.3913 19.0364C37.3824 18.7668 37.1868 18.5797 36.9377 18.4761C36.7862 18.4131 36.6574 18.3128 36.5662 18.1868C36.475 18.0608 36.425 17.9142 36.422 17.7638C36.419 17.6134 36.4631 17.4652 36.5491 17.3363C36.6502 17.184 36.8129 17.0634 37.0023 16.9759C37.4658 16.7615 37.4857 17.153 37.5196 17.6625Z" fill="#E0E0E0"/>
<path d="M35.793 4.54884C35.4471 3.20663 33.7848 1.99811 32.4961 1.39028C32.222 1.24651 31.9202 1.15095 31.6067 1.10865C31.4864 1.09009 31.3627 1.10373 31.2509 1.14786C31.1317 1.21411 31.0362 1.31007 30.9761 1.42415C30.6858 1.95445 30.503 2.52735 30.4366 3.11573C30.2525 4.25471 30.1679 5.40499 30.1836 6.55593C30.1622 6.96009 30.2294 7.36409 30.3812 7.74484C30.4813 7.94717 30.6259 8.12909 30.8062 8.27959C31.0295 8.47031 31.3062 8.60757 31.5157 8.81433C31.676 9.01258 31.8877 9.17233 32.1324 9.27956C32.8341 9.5505 33.6168 9.32056 34.2592 9.0211C35.0676 8.64322 36.3345 7.75554 36.3424 6.82508C36.3424 6.52562 36.0025 6.38481 35.8819 6.13348C35.6981 5.75024 35.8345 5.32779 35.8345 4.9303C35.836 4.80217 35.8221 4.67426 35.793 4.54884Z" fill="#F0997A"/>
<path d="M31.5923 7.38654C31.8473 7.8696 32.3454 8.1441 32.2209 8.73945C32.1537 9.0603 31.9758 9.35441 31.8888 9.66991C31.8019 9.98541 31.7663 10.4186 31.9185 10.7055C31.9309 10.7361 31.9509 10.7637 31.9769 10.7863C32.0029 10.8088 32.0343 10.8257 32.0687 10.8357C32.209 10.8606 32.2881 10.6948 32.3237 10.5683C32.4416 10.1543 32.6888 9.78129 33.0338 9.49242C33.1185 9.42154 33.2461 9.46191 33.3254 9.53869C33.3783 9.58986 33.442 9.63089 33.5129 9.65934C33.5837 9.68779 33.6602 9.70307 33.7377 9.70428C33.8153 9.70548 33.8923 9.69258 33.9642 9.66634C34.1059 9.6047 34.2282 9.51206 34.32 9.39686C34.4119 9.28167 34.4703 9.14758 34.4899 9.00682C34.5449 8.572 34.8533 8.14019 35.2764 8.25441C35.3405 8.27169 35.4039 8.29138 35.4663 8.31344C35.4818 8.32023 35.498 8.32515 35.5147 8.32812C35.5594 8.33613 35.608 8.32352 35.6378 8.28914C35.6525 8.27218 35.6628 8.25246 35.668 8.23144C35.7143 8.09865 35.7289 7.95852 35.7109 7.82026C35.6928 7.68201 35.6425 7.54877 35.5632 7.42932C35.5507 7.41089 35.5378 7.3927 35.5245 7.37476C35.3866 7.18824 35.4864 6.81991 35.7183 6.81235C35.8576 6.8078 35.9639 6.67842 35.889 6.56083C35.8857 6.5557 35.8823 6.5506 35.8789 6.54555C35.874 6.53821 35.8689 6.53096 35.8636 6.52381C35.7588 6.38126 35.5835 6.31381 35.4299 6.22609C35.272 6.13597 35.1199 6.01107 35.0919 5.83146C35.068 5.67766 35.0969 5.50612 35.1007 5.34738C35.1185 4.71103 34.6105 4.07647 34.1579 3.62728C33.7168 3.18494 33.2282 2.78311 32.6992 2.42767C32.4363 2.24942 31.9481 1.96779 31.6437 2.17455C31.3038 2.4045 31.369 3.01232 31.3235 3.35456C31.1825 4.17391 31.1349 5.00412 31.1812 5.83222C31.2171 6.36793 31.3562 6.8939 31.5923 7.38654Z" fill="#FFBDA7"/>
<path d="M33.8265 5.00695C33.761 4.61591 33.6003 4.24278 33.3561 3.91429C33.2494 3.77272 33.1217 3.64498 32.9766 3.53462C32.823 3.40183 32.6469 3.29218 32.455 3.20975C32.4276 3.19799 32.3813 3.20627 32.4034 3.22625C32.5626 3.36064 32.7106 3.50541 32.8462 3.65939C32.9625 3.8056 33.0701 3.95733 33.1684 4.11393C33.3591 4.43174 33.4831 4.77862 33.534 5.13707C33.5775 5.42405 33.5933 5.75025 33.37 5.97841C33.3407 6.01193 33.306 6.04136 33.2672 6.06575C33.2223 6.0974 33.1739 6.12487 33.1229 6.14774C33.0167 6.1969 32.9015 6.2283 32.7829 6.24043C32.7303 6.244 32.6774 6.244 32.6248 6.24043C32.5353 6.22203 32.4438 6.21306 32.3521 6.2137C32.2902 6.2137 32.3504 6.31143 32.4016 6.3461C32.4671 6.39047 32.5445 6.41937 32.6268 6.42937C32.718 6.44902 32.8117 6.458 32.9055 6.45611C33.0962 6.4616 33.2843 6.415 33.4451 6.32243C33.473 6.30692 33.5073 6.32964 33.4996 6.36066C33.4262 6.65822 33.2726 6.93538 33.0517 7.16732C32.9687 7.25467 33.1525 7.34557 33.2356 7.30992C33.6309 7.11028 33.7831 6.62367 33.8483 6.24043C33.9149 5.83091 33.9076 5.41436 33.8265 5.00695Z" fill="#F0997A"/>
<path d="M16.7634 29.6178C16.7133 29.3841 16.7282 29.1428 16.8069 28.9155C17.0599 28.1187 17.6865 27.4664 18.3368 26.8835C18.5991 26.6469 18.8911 26.4077 19.24 26.3135C19.323 26.2911 19.3964 26.365 19.3516 26.4384C19.2914 26.5371 19.189 26.6014 19.1047 26.6806C18.7122 27.0493 18.3486 27.4423 18.0166 27.8567C17.7043 28.2471 17.3268 28.6856 17.3129 29.1847C17.3092 29.2239 17.3101 29.263 17.3155 29.3015C17.3416 29.4878 17.4917 29.6413 17.6727 29.6927C17.9206 29.7758 18.1876 29.8016 18.4494 29.7675C18.5621 29.7515 18.7064 29.739 18.7558 29.8317C18.8052 29.9244 18.7261 30.01 18.6669 30.0741C18.5792 30.1636 18.5229 30.2746 18.5053 30.393C18.5013 30.4199 18.4994 30.4469 18.4994 30.4738C18.4997 30.6579 18.6186 30.8304 18.7882 30.9023C18.8755 30.9394 18.9717 30.9561 19.0681 30.9511C19.2607 30.9389 19.4484 30.891 19.6195 30.8103C19.6529 30.7893 19.6916 30.7763 19.7321 30.7726C19.8122 30.7652 19.9078 30.8114 19.8998 30.8915C19.8882 31.0072 19.7469 31.1654 19.6788 31.2203C19.4485 31.3673 19.17 31.4401 18.8882 31.427C18.733 31.4237 18.5807 31.3879 18.4434 31.3223C18.3062 31.2567 18.1878 31.1632 18.0976 31.0492C18.0115 30.9325 17.9674 30.7948 17.9713 30.6548C17.9758 30.4953 17.8553 30.2754 17.6971 30.2551C17.5539 30.2367 17.4131 30.2036 17.2773 30.1561C17.1499 30.1105 17.0366 30.0376 16.9471 29.9439C16.8576 29.8502 16.7946 29.7383 16.7634 29.6178Z" fill="#B16668"/>
<path d="M27.6309 19.5967C27.6215 19.5749 27.6094 19.5547 27.5975 19.5341C27.5523 19.4559 27.5269 19.3695 27.5234 19.281C27.5373 19.1028 27.6994 18.9673 27.7606 18.798C27.7694 18.7564 27.789 18.7173 27.8179 18.6839C27.8792 18.6287 27.9523 18.6839 27.982 18.7338C28.1796 19.0903 28.0887 19.486 27.9523 19.8479C27.9385 19.8871 27.9168 19.9317 27.8713 19.9441C27.8258 19.9566 27.7725 19.9192 27.7428 19.8817C27.6997 19.8144 27.6688 19.7415 27.6512 19.6655C27.6458 19.6423 27.6403 19.6186 27.6309 19.5967Z" fill="#E0E0E0"/>
<path d="M26.4232 39.4662C26.2427 39.3067 26.093 39.1212 25.9804 38.9172C24.7392 36.7354 23.8893 34.2952 23.9367 31.8193C23.9881 29.265 24.5178 26.8408 23.4505 24.3632C23.1145 23.5789 22.6401 22.8177 22.5808 21.9782C22.5551 21.6057 22.6144 21.2296 22.5808 20.857C22.5195 20.2331 22.1855 19.6574 21.9878 19.0585C21.8152 18.6106 21.7891 18.1273 21.9127 17.6664C21.9696 17.4788 22.0675 17.3034 22.2005 17.1503C22.4241 16.8932 22.5397 16.5177 22.5579 16.1775C22.5753 15.8511 22.7297 15.5424 22.9759 15.3234C23.3307 15.0079 23.7361 14.6416 24.081 14.3153C24.2663 14.1428 24.5094 14.03 24.7728 13.9944C25.3657 13.8911 26.0259 14.3224 26.1998 14.8251C26.2339 14.9521 26.3235 15.0606 26.4402 15.1214C26.4533 15.1282 26.4668 15.1346 26.4805 15.1406C27.3027 15.5933 28.0242 16.5095 27.7751 17.4061C27.7 17.6806 27.5419 17.9409 27.4885 18.2118C27.366 18.8571 27.8107 19.472 27.8997 20.1208C27.9787 20.6859 27.785 21.2492 27.6506 21.8053C26.8462 25.1617 28.212 28.6287 29.9375 31.6892C30.6451 32.9369 31.8923 34.5216 31.6155 36.0117C31.3388 37.5019 30.3308 38.9475 28.7693 39.6141C28.4074 39.7838 28.0071 39.8765 27.5992 39.8851C27.1615 39.8898 26.7392 39.7394 26.4232 39.4662Z" fill="#F0997A"/>
<path d="M31.6155 36.0222C31.8923 34.532 30.6451 32.9545 29.9375 31.6997C28.212 28.6392 26.8462 25.1722 27.6506 21.8158C27.785 21.2597 27.9787 20.6964 27.8997 20.1313C27.8107 19.4825 27.366 18.8676 27.4885 18.2223C27.5419 17.9442 27.7 17.6876 27.7751 17.4166C28.0242 16.5254 27.3027 15.6038 26.4805 15.1493C26.467 15.1437 26.4537 15.1376 26.4407 15.131C26.3232 15.0718 26.2339 14.9627 26.1998 14.8356C26.0259 14.3329 25.3717 13.9016 24.7728 14.0049C24.5094 14.0405 24.2663 14.1533 24.081 14.3258C23.7352 14.6509 23.3302 15.0186 22.9759 15.3344C22.7303 15.5532 22.5764 15.8616 22.5588 16.1877C22.5404 16.5281 22.4242 16.9035 22.2005 17.1608C22.0675 17.3139 21.9696 17.4893 21.9127 17.6769C21.7891 18.1378 21.8152 18.6211 21.9878 19.069C22.1855 19.6679 22.5136 20.2436 22.5808 20.8675C22.6184 21.2401 22.5591 21.6162 22.5808 21.9887C22.6345 22.7572 23.035 23.4602 23.3621 24.1743C23.3815 24.2166 23.4072 24.2556 23.4386 24.2899C24.332 25.199 25.4013 26.1579 25.4152 27.3736C25.4152 27.6927 25.3381 28.0099 25.3697 28.3272C25.4369 28.9903 25.9627 29.5357 26.2532 30.1454C26.2952 30.2335 26.3306 30.3272 26.3585 30.4239C26.5903 31.2291 26.44 32.618 26.5023 33.4536C26.5023 34.0187 26.2038 34.6105 25.6385 34.8547C25.4075 34.9476 25.1502 34.9733 24.9022 34.9282C24.6914 34.8899 24.3844 35.1074 24.4444 35.3131C24.81 36.5657 25.3303 37.7782 25.9963 38.9277C26.1088 39.1317 26.2585 39.3172 26.439 39.4767C26.751 39.7551 27.1722 39.9113 27.6111 39.9116C28.019 39.9031 28.4192 39.8104 28.7812 39.6407C30.3308 38.9633 31.3369 37.5355 31.6155 36.0222Z" fill="#F0F0F0"/>
<path d="M31.6118 36.0193C31.6159 36.021 31.6184 36.0253 31.6176 36.0297C31.4109 37.3092 30.6652 38.4678 29.5356 39.2645C28.7114 39.8331 27.4523 40.2859 26.5332 39.621C26.2478 39.4146 26.0197 39.1509 25.8671 38.851C25.2086 37.7177 24.6916 36.5221 24.3254 35.286C23.957 34.0447 23.7945 32.761 23.8432 31.4768C23.8807 30.1988 24.027 28.9296 24.0052 27.6641C24.0123 26.3977 23.7304 25.1436 23.1771 23.9797C22.9043 23.3968 22.596 22.8015 22.511 22.1473C22.426 21.4931 22.6059 20.8817 22.3706 20.2596C22.1829 19.6589 21.8449 19.0743 21.7777 18.4165C21.7241 18.0895 21.7795 17.7554 21.9368 17.4568C22.0895 17.1669 22.3316 16.923 22.6338 16.7542C22.6435 16.7488 22.6546 16.7583 22.651 16.7688C22.6474 16.779 22.6334 16.7799 22.6288 16.77C22.5034 16.5022 22.4787 16.2043 22.559 15.9222C22.6419 15.6308 22.8319 15.3734 23.098 15.192C23.2713 15.0773 23.4749 15.0058 23.6885 14.9846C23.6922 14.9843 23.694 14.9889 23.6911 14.9913C23.6884 14.9935 23.6844 14.991 23.6851 14.9876C23.7366 14.7416 23.8624 14.5132 24.0487 14.3275C24.2396 14.1418 24.4959 14.0215 24.7741 13.9871C24.4983 14.0279 24.2467 14.1539 24.0626 14.3436C24.0288 14.379 23.9973 14.4158 23.9681 14.454C23.7431 14.7472 23.4461 15.0266 23.1381 15.2309C22.9669 15.3444 22.8307 15.4955 22.7422 15.6697C22.6472 15.8439 22.5978 16.0353 22.5978 16.2294C22.5978 16.5521 22.4985 16.9041 22.2754 17.1372C21.4747 17.9739 22.1279 19.2188 22.511 20.2133C22.758 20.8229 22.6118 21.5002 22.6829 22.1205C22.9004 23.3683 23.7858 24.4609 23.9934 25.739C24.4124 27.632 24.1199 29.5785 24.0487 31.4768C23.9183 34.0204 24.7504 36.523 25.9956 38.785C26.4463 39.7386 27.5077 40.072 28.5473 39.6424C30.1898 39.0378 31.2894 37.5747 31.5988 36.0263C31.6 36.0204 31.6062 36.0171 31.6118 36.0193Z" fill="#B16668"/>
<path d="M26.3817 17.8409C25.7887 17.4951 25.85 16.8053 26.1149 16.2991C26.2572 16.021 26.5655 15.7804 26.9173 15.9069C27.1008 15.9837 27.2549 16.1077 27.3601 16.2634C27.5597 16.5068 27.6564 16.8064 27.6328 17.1083C27.6094 17.275 27.5489 17.4357 27.455 17.5807C27.4003 17.6758 27.3266 17.7611 27.2375 17.832C27.1127 17.9117 26.964 17.9552 26.8112 17.9568C26.6583 17.9584 26.5085 17.918 26.3817 17.8409Z" fill="#455A64"/>
<path d="M26.383 17.841C25.5548 17.4471 25.7446 15.6717 26.804 15.702C27.5788 15.825 27.9721 16.7323 27.6776 17.3384C27.4547 17.8419 26.9443 18.1447 26.3862 17.8392C26.3847 17.8384 26.383 17.8394 26.383 17.841ZM26.383 17.841C27.2309 18.2866 27.7389 17.2724 27.4048 16.6646C27.2467 16.3669 26.9107 15.8892 26.5075 16.0942C25.9501 16.4507 25.6932 17.4649 26.383 17.841Z" fill="#37474F"/>
<path d="M24.7124 14.9032C24.6691 14.9489 24.6332 14.9999 24.6057 15.0547C24.5295 15.2303 24.501 15.4198 24.5226 15.6073C24.5478 15.9858 24.6482 16.3571 24.8191 16.7035C24.8998 16.8885 25.0246 17.0553 25.1848 17.1919C25.7105 17.6037 26.4241 16.9744 26.4577 16.4682C26.4632 16.3303 26.4479 16.1924 26.4122 16.0583C26.2789 15.6092 25.9885 15.211 25.584 14.9228C25.4478 14.8027 25.2665 14.7333 25.0761 14.7285C25.0055 14.734 24.937 14.7524 24.8745 14.7824C24.812 14.8124 24.7568 14.8535 24.7124 14.9032Z" fill="#455A64"/>
<path d="M24.7095 14.9033C24.338 15.3685 24.6087 16.0387 24.8341 16.5075C25.3836 17.6123 26.5443 15.8696 25.6493 15.0202C25.6096 14.9825 25.569 14.9464 25.5278 14.9122C25.2935 14.7062 24.9374 14.6523 24.712 14.897C24.7104 14.8987 24.7095 14.901 24.7095 14.9033ZM24.7095 14.9033C24.9072 14.6502 25.3144 14.6929 25.5614 14.8765C26.0911 15.2152 26.5497 15.7179 26.6248 16.3221C26.7414 16.9781 25.8737 17.8034 25.1622 17.3684C24.5692 16.9995 24.253 15.381 24.7095 14.9033Z" fill="#37474F"/>
<path d="M23.2303 16.2152C23.159 16.5141 23.1631 16.8235 23.2421 17.1207C23.305 17.3998 23.4601 17.6552 23.6868 17.8533C23.8173 17.9603 23.9655 18.1064 24.1553 18.094C24.4292 18.0512 24.6735 17.9129 24.8352 17.7089C24.9225 17.625 24.994 17.5286 25.0467 17.4237C25.2266 17.0227 24.9577 16.4772 24.7779 16.1118C24.5802 15.7036 24.0288 15.2705 23.5505 15.6502C23.3791 15.8026 23.2668 16.0007 23.2303 16.2152Z" fill="#455A64"/>
<path d="M23.2235 16.2153C23.1029 16.75 23.2393 17.3846 23.6959 17.7446C23.906 17.9179 24.205 17.9945 24.4256 17.8347C24.5131 17.7713 24.5925 17.6935 24.6565 17.6252C24.8352 17.4617 24.9147 17.2116 24.8971 16.9701C24.8883 16.8504 24.8607 16.7319 24.8146 16.6181C24.7452 16.3564 24.6333 16.1053 24.4825 15.873C24.0254 15.2785 23.3559 15.5798 23.2263 16.2154C23.2259 16.217 23.2235 16.2169 23.2235 16.2153ZM23.2235 16.2153C23.348 15.5147 24.0319 15.201 24.6328 15.75C24.852 15.9732 25.0229 16.2313 25.1368 16.5112C25.1607 16.5559 25.1819 16.6015 25.2002 16.6479C25.3991 17.1523 25.1615 17.7459 24.7096 18.0453C24.2608 18.3426 23.6358 18.0861 23.377 17.6141C23.1467 17.194 23.1171 16.6763 23.2219 16.2293C23.2229 16.2247 23.2235 16.22 23.2235 16.2153Z" fill="#37474F"/>
<path d="M27.0027 17.9016C26.9218 17.7789 26.8234 17.6663 26.7102 17.5665C26.1172 17.046 25.299 17.2243 24.7594 17.7198C24.182 18.2733 23.8701 19.01 23.8917 19.7697C23.9095 20.1707 24.0676 20.6128 24.4649 20.791C24.5779 20.8416 24.7028 20.867 24.829 20.8651C24.9552 20.8633 25.0791 20.8342 25.1903 20.7803C25.5263 20.6181 25.7042 20.2456 26.054 20.1083C26.5264 19.9194 27.1786 20.0566 27.3783 19.4862C27.4468 19.2301 27.4358 18.9618 27.3467 18.7109C27.2777 18.4271 27.1618 18.1543 27.0027 17.9016Z" fill="#37474F"/>
<path d="M23.5966 19.5521C24.0117 19.5289 24.411 18.9443 24.407 18.6003C24.4053 18.5231 24.3927 18.4464 24.3695 18.3721C24.2587 17.9999 24.014 17.6713 23.6737 17.4381C23.5801 17.3749 23.4693 17.3359 23.353 17.3253C23.2367 17.3146 23.1194 17.3326 23.0136 17.3775C22.7566 17.5058 22.6716 17.7999 22.6578 18.0637C22.6341 18.5165 22.8811 19.5913 23.5966 19.5521Z" fill="#455A64"/>
<path d="M23.598 19.5521C24.0131 19.4968 24.2582 19.0904 24.3273 18.7518C24.3906 18.3043 23.8095 17.5771 23.3233 17.504C22.8271 17.4666 22.7639 18.0869 22.7876 18.4452C22.8153 18.885 22.9849 19.5543 23.5962 19.5539C23.5972 19.5539 23.598 19.5531 23.598 19.5521ZM23.598 19.5521C22.9892 19.5521 22.7342 18.9175 22.5919 18.4719C22.3943 17.9514 22.5564 17.0709 23.3648 17.1475C24.0052 17.2384 24.3688 17.8516 24.4736 18.3739C24.5685 18.8355 24.1178 19.4754 23.598 19.5521Z" fill="#37474F"/>
<path d="M24.9732 23.4645C24.9849 23.5061 25.0104 23.5434 25.0463 23.5715C25.0814 23.596 25.1218 23.6137 25.1649 23.6232C25.3733 23.6768 25.5914 23.6919 25.8064 23.6678C26.0214 23.6436 26.2287 23.5805 26.4161 23.4824C26.9655 23.19 26.5683 22.5287 26.0208 22.5555C25.5899 22.5751 24.819 23.01 24.9732 23.4645Z" fill="#455A64"/>
<path d="M22.8035 16.6039C22.7818 16.5296 22.7492 16.4583 22.7066 16.3918C22.6879 16.3602 22.6589 16.3345 22.6237 16.318C22.5884 16.3014 22.5485 16.2949 22.509 16.2991C22.4768 16.3058 22.4463 16.3182 22.4195 16.3356C22.3672 16.3696 22.3289 16.4215 22.29 16.4703C22.2426 16.5296 22.2049 16.5951 22.1784 16.6646C22.141 16.7624 22.1263 16.8662 22.1354 16.9693C22.1477 17.0291 22.1764 17.0851 22.2187 17.1324C22.2611 17.1796 22.3158 17.2166 22.3781 17.24C22.4403 17.2633 22.508 17.2723 22.575 17.2662C22.642 17.26 22.7063 17.2388 22.762 17.2046C22.9122 17.128 22.8747 16.8249 22.8035 16.6039Z" fill="#E0E0E0"/>
<path d="M23.5359 15.44C23.5871 15.4383 23.6371 15.4261 23.6822 15.4044C23.8798 15.2938 23.7138 14.9463 23.7197 14.7805C23.7248 14.7315 23.7208 14.6821 23.7079 14.6343C23.613 14.3616 23.2928 14.5791 23.1881 14.711C23.0594 14.8659 22.9857 15.0523 22.9766 15.2457C22.9825 15.4863 23.3501 15.4578 23.5359 15.44Z" fill="#E0E0E0"/>
<path d="M25.2101 14.3402C25.2396 14.3247 25.2641 14.3026 25.2813 14.276C25.2993 14.2397 25.3068 14.1998 25.303 14.1601C25.303 14.0657 25.2813 13.9712 25.2912 13.8767C25.309 13.7252 25.4394 13.3955 25.1429 13.4222C25.0382 13.4367 24.9432 13.4855 24.8761 13.5594C24.7778 13.677 24.6974 13.8059 24.6369 13.9427C24.5776 14.0532 24.5223 14.2992 24.6883 14.3651C24.8597 14.4152 25.0456 14.4063 25.2101 14.3402Z" fill="#E0E0E0"/>
<path d="M26.9889 14.8961C27.0137 14.9257 27.0293 14.9608 27.0344 14.9977C27.0546 15.0788 27.0698 15.1609 27.0798 15.2436C27.0953 15.3105 27.0885 15.38 27.06 15.4433C26.9276 15.6857 26.4671 15.6126 26.4849 15.3274C26.5066 15.167 26.7754 14.6661 26.9889 14.8961Z" fill="#E0E0E0"/>
</svg>
