<svg width="24" height="24" viewBox="0 0 24 24" fill="none" xmlns="http://www.w3.org/2000/svg">
<g clip-path="url(#clip0_890_6467)">
<path fill-rule="evenodd" clip-rule="evenodd" d="M11.9539 11C15.2839 11 19.0109 17.123 19.5859 19.716C20.1609 22.31 18.5899 24.445 16.1019 23.828C15.0099 23.557 12.8499 22.521 11.9999 22.537C11.0749 22.553 9.62094 23.373 8.41294 23.789C5.75594 24.705 3.69594 22.506 4.40294 19.716C5.17694 16.665 8.88294 11 11.9539 11ZM22.7469 6.60998C23.9349 7.14898 24.3759 9.42998 23.6409 11.88C22.9369 14.221 21.3109 15.686 19.0849 14.676C17.1539 13.799 16.9269 11.498 18.1909 9.40598C19.4649 7.29898 21.5579 6.06998 22.7469 6.60998ZM0.778937 7.31598C-0.265063 8.04498 -0.281063 10.312 0.860937 12.531C1.95294 14.651 3.77394 15.767 5.72894 14.401C7.42494 13.216 7.23294 10.968 5.64694 9.18598C4.05094 7.39298 1.82294 6.58698 0.778937 7.31598ZM16.4219 0.0239811C17.7449 0.274981 18.7429 2.45198 18.6039 5.08598C18.4699 7.60298 17.1989 9.46798 14.7219 8.99798C12.5729 8.59098 11.7839 6.34098 12.5409 3.93698C13.3019 1.51598 15.0999 -0.227019 16.4219 0.0239811ZM6.12694 0.0819811C4.85894 0.532981 4.20694 2.83798 4.74994 5.41898C5.26894 7.88598 6.81194 9.53298 9.18694 8.68798C11.2469 7.95598 11.6809 5.61098 10.5639 3.35198C9.43894 1.07598 7.39494 -0.369019 6.12694 0.0819811Z" fill="#F39200"/>
</g>
<defs>
<clipPath id="clip0_890_6467">
<rect width="24" height="24" fill="white"/>
</clipPath>
</defs>
</svg>
