<svg width="229" height="30" viewBox="0 0 229 30" fill="none" xmlns="http://www.w3.org/2000/svg">
<path d="M5.35263 2.81818V29H0.60973V2.81818H5.35263ZM14.9119 17.4943V29H10.2841V9.36364H14.7074V12.7003H14.9375C15.3892 11.6009 16.1094 10.7273 17.098 10.0795C18.0952 9.43182 19.3267 9.10795 20.7926 9.10795C22.1477 9.10795 23.3281 9.39773 24.3338 9.97727C25.348 10.5568 26.1321 11.3963 26.6861 12.4957C27.2486 13.5952 27.5256 14.929 27.517 16.4972V29H22.8892V17.2131C22.8892 15.9006 22.5483 14.8736 21.8665 14.1321C21.1932 13.3906 20.2599 13.0199 19.0668 13.0199C18.2571 13.0199 17.5369 13.1989 16.9062 13.5568C16.2841 13.9062 15.794 14.4134 15.4361 15.0781C15.0866 15.7429 14.9119 16.5483 14.9119 17.4943ZM32.2216 29V9.36364H36.8494V29H32.2216ZM34.5483 6.5767C33.8153 6.5767 33.1847 6.33381 32.6562 5.84801C32.1278 5.35369 31.8636 4.76136 31.8636 4.07102C31.8636 3.37216 32.1278 2.77983 32.6562 2.29403C33.1847 1.79971 33.8153 1.55256 34.5483 1.55256C35.2898 1.55256 35.9205 1.79971 36.4403 2.29403C36.9688 2.77983 37.233 3.37216 37.233 4.07102C37.233 4.76136 36.9688 5.35369 36.4403 5.84801C35.9205 6.33381 35.2898 6.5767 34.5483 6.5767ZM50.1737 29.3835C48.2134 29.3835 46.5302 28.9531 45.1239 28.0923C43.7262 27.2315 42.6481 26.0426 41.8896 24.5256C41.1396 23 40.7646 21.2443 40.7646 19.2585C40.7646 17.2642 41.1481 15.5043 41.9151 13.9787C42.6822 12.4446 43.7646 11.2514 45.1623 10.3991C46.5685 9.53835 48.2305 9.10795 50.1481 9.10795C51.7418 9.10795 53.1523 9.40199 54.3796 9.99006C55.6154 10.5696 56.5998 11.392 57.3327 12.4574C58.0657 13.5142 58.4833 14.75 58.5856 16.1648H54.1623C53.9833 15.2187 53.5572 14.4304 52.8839 13.7997C52.2191 13.1605 51.3285 12.8409 50.212 12.8409C49.266 12.8409 48.435 13.0966 47.7191 13.608C47.0032 14.1108 46.445 14.8352 46.0444 15.7812C45.6523 16.7273 45.4563 17.8608 45.4563 19.1818C45.4563 20.5199 45.6523 21.6705 46.0444 22.6335C46.4364 23.5881 46.9862 24.3253 47.6935 24.8452C48.4094 25.3565 49.2489 25.6122 50.212 25.6122C50.8938 25.6122 51.5032 25.4844 52.0401 25.2287C52.5856 24.9645 53.0415 24.5852 53.408 24.0909C53.7745 23.5966 54.0259 22.9957 54.1623 22.2884H58.5856C58.4748 23.6776 58.0657 24.9091 57.3583 25.983C56.6509 27.0483 55.6879 27.8835 54.4691 28.4886C53.2504 29.0852 51.8185 29.3835 50.1737 29.3835ZM62.3857 29V9.36364H67.0135V29H62.3857ZM64.7124 6.5767C63.9794 6.5767 63.3487 6.33381 62.8203 5.84801C62.2919 5.35369 62.0277 4.76136 62.0277 4.07102C62.0277 3.37216 62.2919 2.77983 62.8203 2.29403C63.3487 1.79971 63.9794 1.55256 64.7124 1.55256C65.4538 1.55256 66.0845 1.79971 66.6044 2.29403C67.1328 2.77983 67.397 3.37216 67.397 4.07102C67.397 4.76136 67.1328 5.35369 66.6044 5.84801C66.0845 6.33381 65.4538 6.5767 64.7124 6.5767ZM77.4229 29.3963C76.1786 29.3963 75.0579 29.1747 74.0607 28.7315C73.0721 28.2798 72.288 27.6151 71.7085 26.7372C71.1374 25.8594 70.8519 24.777 70.8519 23.4901C70.8519 22.3821 71.0565 21.4659 71.4656 20.7415C71.8746 20.017 72.4329 19.4375 73.1403 19.0028C73.8477 18.5682 74.6445 18.2401 75.5309 18.0185C76.4258 17.7884 77.3505 17.6222 78.305 17.5199C79.4556 17.4006 80.3888 17.294 81.1048 17.2003C81.8207 17.098 82.3406 16.9446 82.6644 16.7401C82.9968 16.527 83.163 16.1989 83.163 15.7557V15.679C83.163 14.7159 82.8775 13.9702 82.3065 13.4418C81.7354 12.9134 80.913 12.6491 79.8391 12.6491C78.7056 12.6491 77.8065 12.8963 77.1417 13.3906C76.4854 13.8849 76.0423 14.4687 75.8121 15.142L71.4911 14.5284C71.832 13.3352 72.3945 12.3381 73.1786 11.5369C73.9627 10.7273 74.9215 10.1222 76.055 9.72159C77.1886 9.3125 78.4414 9.10795 79.8136 9.10795C80.7596 9.10795 81.7014 9.21875 82.6389 9.44034C83.5764 9.66193 84.4329 10.0284 85.2085 10.5398C85.984 11.0426 86.6062 11.7287 87.0749 12.598C87.5522 13.4673 87.7908 14.554 87.7908 15.858V29H83.342V26.3026H83.1886C82.9073 26.848 82.511 27.3594 81.9996 27.8366C81.4968 28.3054 80.8619 28.6847 80.0948 28.9744C79.3363 29.2557 78.4457 29.3963 77.4229 29.3963ZM78.6246 25.9957C79.5536 25.9957 80.359 25.8125 81.0408 25.446C81.7227 25.071 82.2468 24.5767 82.6133 23.9631C82.9883 23.3494 83.1758 22.6804 83.1758 21.956V19.642C83.0309 19.7614 82.7837 19.8722 82.4343 19.9744C82.0934 20.0767 81.7099 20.1662 81.2837 20.2429C80.8576 20.3196 80.4357 20.3878 80.0181 20.4474C79.6005 20.5071 79.2383 20.5582 78.9315 20.6009C78.2411 20.6946 77.6232 20.848 77.0778 21.0611C76.5323 21.2741 76.1019 21.5724 75.7866 21.956C75.4712 22.331 75.3136 22.8168 75.3136 23.4134C75.3136 24.2656 75.6246 24.9091 76.2468 25.3438C76.869 25.7784 77.6616 25.9957 78.6246 25.9957ZM92.4442 29V9.36364H96.9315V12.6364H97.136C97.494 11.5028 98.1076 10.6293 98.9769 10.0156C99.8548 9.39347 100.856 9.08239 101.981 9.08239C102.237 9.08239 102.522 9.09517 102.838 9.12074C103.162 9.13778 103.43 9.16761 103.643 9.21023V13.4673C103.447 13.3991 103.136 13.3395 102.71 13.2884C102.292 13.2287 101.887 13.1989 101.495 13.1989C100.652 13.1989 99.8931 13.3821 99.2198 13.7486C98.555 14.1065 98.0309 14.6051 97.6474 15.2443C97.2638 15.8835 97.0721 16.6207 97.0721 17.456V29H92.4442ZM130.081 10.0156C129.961 8.89915 129.458 8.02983 128.572 7.40767C127.694 6.78551 126.552 6.47443 125.146 6.47443C124.157 6.47443 123.309 6.62358 122.602 6.92188C121.895 7.22017 121.353 7.625 120.978 8.13636C120.603 8.64773 120.412 9.23153 120.403 9.88778C120.403 10.4332 120.527 10.9062 120.774 11.3068C121.029 11.7074 121.375 12.0483 121.809 12.3295C122.244 12.6023 122.725 12.8324 123.254 13.0199C123.782 13.2074 124.315 13.3651 124.852 13.4929L127.306 14.1065C128.295 14.3366 129.245 14.6477 130.157 15.0398C131.078 15.4318 131.9 15.9261 132.625 16.5227C133.358 17.1193 133.937 17.8395 134.363 18.6832C134.789 19.527 135.002 20.5156 135.002 21.6491C135.002 23.1832 134.61 24.5341 133.826 25.7017C133.042 26.8608 131.909 27.7685 130.426 28.4247C128.951 29.0724 127.166 29.3963 125.069 29.3963C123.032 29.3963 121.264 29.081 119.764 28.4503C118.272 27.8196 117.105 26.8991 116.261 25.6889C115.426 24.4787 114.974 23.0043 114.906 21.2656H119.572C119.64 22.1776 119.922 22.9361 120.416 23.5412C120.91 24.1463 121.554 24.598 122.346 24.8963C123.147 25.1946 124.042 25.3438 125.031 25.3438C126.062 25.3438 126.966 25.1903 127.741 24.8835C128.525 24.5682 129.139 24.1335 129.582 23.5795C130.025 23.017 130.251 22.3608 130.26 21.6108C130.251 20.929 130.051 20.3665 129.659 19.9233C129.267 19.4716 128.717 19.0966 128.01 18.7983C127.311 18.4915 126.493 18.2187 125.555 17.9801L122.576 17.2131C120.42 16.6591 118.716 15.8196 117.463 14.6946C116.218 13.5611 115.596 12.0568 115.596 10.1818C115.596 8.6392 116.014 7.28835 116.849 6.12926C117.693 4.97017 118.839 4.07102 120.288 3.43182C121.737 2.78409 123.377 2.46023 125.21 2.46023C127.068 2.46023 128.696 2.78409 130.093 3.43182C131.5 4.07102 132.603 4.96165 133.404 6.10369C134.206 7.23721 134.619 8.54119 134.645 10.0156H130.081ZM147.719 29.3835C145.751 29.3835 144.05 28.9744 142.619 28.1562C141.195 27.3295 140.1 26.1619 139.333 24.6534C138.566 23.1364 138.183 21.3509 138.183 19.2969C138.183 17.277 138.566 15.5043 139.333 13.9787C140.109 12.4446 141.191 11.2514 142.58 10.3991C143.969 9.53835 145.602 9.10795 147.477 9.10795C148.687 9.10795 149.829 9.30398 150.903 9.69602C151.985 10.0795 152.94 10.6761 153.766 11.4858C154.602 12.2955 155.258 13.3267 155.735 14.5795C156.212 15.8239 156.451 17.3068 156.451 19.0284V20.4474H140.356V17.3281H152.015C152.006 16.4418 151.815 15.6534 151.44 14.9631C151.065 14.2642 150.54 13.7145 149.867 13.3139C149.202 12.9134 148.427 12.7131 147.54 12.7131C146.594 12.7131 145.763 12.9432 145.048 13.4034C144.332 13.8551 143.773 14.4517 143.373 15.1932C142.981 15.9261 142.781 16.7315 142.772 17.6094V20.3324C142.772 21.4744 142.981 22.4545 143.398 23.2727C143.816 24.0824 144.4 24.7045 145.15 25.1392C145.9 25.5653 146.778 25.7784 147.783 25.7784C148.457 25.7784 149.066 25.6847 149.612 25.4972C150.157 25.3011 150.63 25.0156 151.031 24.6406C151.431 24.2656 151.734 23.8011 151.938 23.2472L156.259 23.733C155.987 24.875 155.467 25.8722 154.7 26.7244C153.941 27.5682 152.969 28.2244 151.785 28.6932C150.6 29.1534 149.245 29.3835 147.719 29.3835ZM175.886 14.554L171.667 15.0142C171.548 14.5881 171.339 14.1875 171.041 13.8125C170.751 13.4375 170.359 13.1349 169.865 12.9048C169.37 12.6747 168.765 12.5597 168.049 12.5597C167.086 12.5597 166.277 12.7685 165.62 13.1861C164.973 13.6037 164.653 14.1449 164.662 14.8097C164.653 15.3807 164.862 15.8452 165.288 16.2031C165.723 16.5611 166.439 16.8551 167.436 17.0852L170.785 17.8011C172.643 18.2017 174.024 18.8366 174.927 19.706C175.839 20.5753 176.299 21.7131 176.308 23.1193C176.299 24.3551 175.937 25.446 175.221 26.392C174.514 27.3295 173.529 28.0625 172.268 28.5909C171.007 29.1193 169.558 29.3835 167.922 29.3835C165.518 29.3835 163.583 28.8807 162.118 27.875C160.652 26.8608 159.778 25.4503 159.497 23.6435L164.01 23.2088C164.214 24.0952 164.649 24.7642 165.314 25.2159C165.978 25.6676 166.843 25.8935 167.909 25.8935C169.008 25.8935 169.89 25.6676 170.555 25.2159C171.228 24.7642 171.565 24.206 171.565 23.5412C171.565 22.9787 171.348 22.5142 170.913 22.1477C170.487 21.7812 169.822 21.5 168.919 21.304L165.569 20.6009C163.686 20.2088 162.292 19.5483 161.389 18.6193C160.485 17.6818 160.038 16.4972 160.047 15.0653C160.038 13.8551 160.366 12.8068 161.031 11.9205C161.704 11.0256 162.637 10.3352 163.831 9.84943C165.032 9.35511 166.417 9.10795 167.985 9.10795C170.287 9.10795 172.098 9.59801 173.419 10.5781C174.748 11.5582 175.571 12.8835 175.886 14.554ZM180.124 29V9.36364H184.752V29H180.124ZM182.451 6.5767C181.718 6.5767 181.087 6.33381 180.559 5.84801C180.03 5.35369 179.766 4.76136 179.766 4.07102C179.766 3.37216 180.03 2.77983 180.559 2.29403C181.087 1.79971 181.718 1.55256 182.451 1.55256C183.192 1.55256 183.823 1.79971 184.343 2.29403C184.871 2.77983 185.135 3.37216 185.135 4.07102C185.135 4.76136 184.871 5.35369 184.343 5.84801C183.823 6.33381 183.192 6.5767 182.451 6.5767ZM198.076 29.3835C196.158 29.3835 194.496 28.9616 193.09 28.1179C191.684 27.2741 190.593 26.0937 189.817 24.5767C189.05 23.0597 188.667 21.2869 188.667 19.2585C188.667 17.2301 189.05 15.4531 189.817 13.9276C190.593 12.402 191.684 11.2173 193.09 10.3736C194.496 9.52983 196.158 9.10795 198.076 9.10795C199.994 9.10795 201.656 9.52983 203.062 10.3736C204.468 11.2173 205.555 12.402 206.322 13.9276C207.097 15.4531 207.485 17.2301 207.485 19.2585C207.485 21.2869 207.097 23.0597 206.322 24.5767C205.555 26.0937 204.468 27.2741 203.062 28.1179C201.656 28.9616 199.994 29.3835 198.076 29.3835ZM198.102 25.6761C199.141 25.6761 200.011 25.3906 200.71 24.8196C201.408 24.2401 201.928 23.4645 202.269 22.4929C202.619 21.5213 202.793 20.4389 202.793 19.2457C202.793 18.044 202.619 16.9574 202.269 15.9858C201.928 15.0057 201.408 14.2259 200.71 13.6463C200.011 13.0668 199.141 12.777 198.102 12.777C197.036 12.777 196.15 13.0668 195.442 13.6463C194.744 14.2259 194.219 15.0057 193.87 15.9858C193.529 16.9574 193.359 18.044 193.359 19.2457C193.359 20.4389 193.529 21.5213 193.87 22.4929C194.219 23.4645 194.744 24.2401 195.442 24.8196C196.15 25.3906 197.036 25.6761 198.102 25.6761ZM196.299 6.78125L199.163 0.93892H203.688L199.763 6.78125H196.299ZM216.041 17.4943V29H211.413V9.36364H215.836V12.7003H216.066C216.518 11.6009 217.238 10.7273 218.227 10.0795C219.224 9.43182 220.456 9.10795 221.922 9.10795C223.277 9.10795 224.457 9.39773 225.463 9.97727C226.477 10.5568 227.261 11.3963 227.815 12.4957C228.377 13.5952 228.654 14.929 228.646 16.4972V29H224.018V17.2131C224.018 15.9006 223.677 14.8736 222.995 14.1321C222.322 13.3906 221.389 13.0199 220.196 13.0199C219.386 13.0199 218.666 13.1989 218.035 13.5568C217.413 13.9062 216.923 14.4134 216.565 15.0781C216.216 15.7429 216.041 16.5483 216.041 17.4943Z" fill="white"/>
</svg>
