<svg width="280" height="40" viewBox="0 0 280 40" fill="none" xmlns="http://www.w3.org/2000/svg">
<path d="M8 1H270C274.971 1 279 5.02944 279 10V30C279 34.9706 274.971 39 270 39H10C5.02943 39 1 34.9706 1 30V8C1 4.13401 4.13401 1 8 1Z" fill="#FFFDFB" stroke="#B9A78E" stroke-width="2"/>
<path d="M21.7351 17.2727V18.8636H16.718V17.2727H21.7351ZM17.9567 15.1818H20.0135V23.375C20.0135 23.6515 20.0552 23.8636 20.1385 24.0114C20.2256 24.1553 20.3393 24.2538 20.4794 24.3068C20.6196 24.3598 20.7749 24.3864 20.9453 24.3864C21.0741 24.3864 21.1915 24.3769 21.2976 24.358C21.4074 24.339 21.4908 24.322 21.5476 24.3068L21.8942 25.9148C21.7843 25.9527 21.6271 25.9943 21.4226 26.0398C21.2218 26.0852 20.9756 26.1117 20.6839 26.1193C20.1688 26.1345 19.7048 26.0568 19.2919 25.8864C18.879 25.7121 18.5514 25.4432 18.3089 25.0795C18.0703 24.7159 17.9529 24.2614 17.9567 23.7159V15.1818ZM27.2251 26.1705C26.3501 26.1705 25.5945 25.9886 24.9581 25.625C24.3255 25.2576 23.8388 24.7386 23.4979 24.0682C23.157 23.3939 22.9865 22.6004 22.9865 21.6875C22.9865 20.7898 23.157 20.0019 23.4979 19.3239C23.8426 18.642 24.3236 18.1117 24.9411 17.733C25.5585 17.3504 26.2839 17.1591 27.1172 17.1591C27.6551 17.1591 28.1626 17.2462 28.6399 17.4205C29.121 17.5909 29.5452 17.8561 29.9126 18.2159C30.2839 18.5758 30.5755 19.0341 30.7876 19.5909C30.9998 20.1439 31.1058 20.803 31.1058 21.5682V22.1989H23.9524V20.8125H29.1342C29.1304 20.4186 29.0452 20.0682 28.8786 19.7614C28.7119 19.4508 28.4789 19.2064 28.1797 19.0284C27.8842 18.8504 27.5395 18.7614 27.1456 18.7614C26.7251 18.7614 26.3558 18.8636 26.0376 19.0682C25.7195 19.2689 25.4714 19.5341 25.2933 19.8636C25.1191 20.1894 25.0301 20.5473 25.0263 20.9375V22.1477C25.0263 22.6553 25.1191 23.0909 25.3047 23.4545C25.4903 23.8144 25.7498 24.0909 26.0831 24.2841C26.4164 24.4735 26.8066 24.5682 27.2536 24.5682C27.5528 24.5682 27.8236 24.5265 28.0661 24.4432C28.3085 24.3561 28.5187 24.2292 28.6967 24.0625C28.8748 23.8958 29.0092 23.6894 29.1001 23.4432L31.0206 23.6591C30.8994 24.1667 30.6683 24.6098 30.3274 24.9886C29.9903 25.3636 29.5585 25.6553 29.032 25.8636C28.5054 26.0682 27.9032 26.1705 27.2251 26.1705ZM34.3402 17.2727L36.1016 20.4943L37.8913 17.2727H40.0675L37.4368 21.6364L40.1129 26H37.9482L36.1016 22.858L34.272 26H32.0902L34.7493 21.6364L32.1584 17.2727H34.3402ZM46.0163 17.2727V18.8636H40.9993V17.2727H46.0163ZM42.2379 15.1818H44.2947V23.375C44.2947 23.6515 44.3364 23.8636 44.4197 24.0114C44.5069 24.1553 44.6205 24.2538 44.7607 24.3068C44.9008 24.3598 45.0561 24.3864 45.2266 24.3864C45.3554 24.3864 45.4728 24.3769 45.5788 24.358C45.6887 24.339 45.772 24.322 45.8288 24.3068L46.1754 25.9148C46.0656 25.9527 45.9084 25.9943 45.7038 26.0398C45.5031 26.0852 45.2569 26.1117 44.9652 26.1193C44.45 26.1345 43.986 26.0568 43.5732 25.8864C43.1603 25.7121 42.8326 25.4432 42.5902 25.0795C42.3516 24.7159 42.2341 24.2614 42.2379 23.7159V15.1818Z" fill="#4B4B4B"/>
</svg>
