<svg width="375" height="121" viewBox="0 0 375 121" fill="none" xmlns="http://www.w3.org/2000/svg">
<path d="M17.108 0.909088V94H0.244318V0.909088H17.108ZM51.0966 53.0909V94H34.642V24.1818H50.3693V36.0455H51.1875C52.7936 32.1364 55.3542 29.0303 58.8693 26.7273C62.4148 24.4242 66.7936 23.2727 72.0057 23.2727C76.8239 23.2727 81.0208 24.303 84.5966 26.3636C88.2027 28.4242 90.9905 31.4091 92.9602 35.3182C94.9602 39.2273 95.9451 43.9697 95.9148 49.5455V94H79.4602V52.0909C79.4602 47.4242 78.2481 43.7727 75.8239 41.1364C73.4299 38.5 70.1117 37.1818 65.8693 37.1818C62.9905 37.1818 60.4299 37.8182 58.1875 39.0909C55.9754 40.3333 54.233 42.1364 52.9602 44.5C51.7178 46.8636 51.0966 49.7273 51.0966 53.0909ZM112.642 120.182V24.1818H128.824V35.7273H129.778C130.627 34.0303 131.824 32.2273 133.369 30.3182C134.915 28.3788 137.006 26.7273 139.642 25.3636C142.278 23.9697 145.642 23.2727 149.733 23.2727C155.127 23.2727 159.991 24.6515 164.324 27.4091C168.688 30.1364 172.142 34.1818 174.688 39.5455C177.263 44.8788 178.551 51.4242 178.551 59.1818C178.551 66.8485 177.294 73.3636 174.778 78.7273C172.263 84.0909 168.839 88.1818 164.506 91C160.172 93.8182 155.263 95.2273 149.778 95.2273C145.778 95.2273 142.46 94.5606 139.824 93.2273C137.188 91.8939 135.066 90.2879 133.46 88.4091C131.884 86.5 130.657 84.697 129.778 83H129.097V120.182H112.642ZM128.778 59.0909C128.778 63.6061 129.415 67.5606 130.688 70.9545C131.991 74.3485 133.854 77 136.278 78.9091C138.733 80.7879 141.703 81.7273 145.188 81.7273C148.824 81.7273 151.869 80.7576 154.324 78.8182C156.778 76.8485 158.627 74.1667 159.869 70.7727C161.142 67.3485 161.778 63.4545 161.778 59.0909C161.778 54.7576 161.157 50.9091 159.915 47.5455C158.672 44.1818 156.824 41.5455 154.369 39.6364C151.915 37.7273 148.854 36.7727 145.188 36.7727C141.672 36.7727 138.688 37.697 136.233 39.5455C133.778 41.3939 131.915 43.9848 130.642 47.3182C129.4 50.6515 128.778 54.5758 128.778 59.0909ZM237.142 64.6364V24.1818H253.597V94H237.642V81.5909H236.915C235.339 85.5 232.748 88.697 229.142 91.1818C225.566 93.6667 221.157 94.9091 215.915 94.9091C211.339 94.9091 207.294 93.8939 203.778 91.8636C200.294 89.803 197.566 86.8182 195.597 82.9091C193.627 78.9697 192.642 74.2121 192.642 68.6364V24.1818H209.097V66.0909C209.097 70.5152 210.309 74.0303 212.733 76.6364C215.157 79.2424 218.339 80.5455 222.278 80.5455C224.703 80.5455 227.051 79.9545 229.324 78.7727C231.597 77.5909 233.46 75.8333 234.915 73.5C236.4 71.1364 237.142 68.1818 237.142 64.6364ZM305.381 24.1818V36.9091H265.244V24.1818H305.381ZM275.153 7.45454H291.608V73C291.608 75.2121 291.941 76.9091 292.608 78.0909C293.305 79.2424 294.214 80.0303 295.335 80.4545C296.456 80.8788 297.699 81.0909 299.062 81.0909C300.093 81.0909 301.032 81.0152 301.881 80.8636C302.759 80.7121 303.426 80.5758 303.881 80.4545L306.653 93.3182C305.775 93.6212 304.517 93.9545 302.881 94.3182C301.275 94.6818 299.305 94.8939 296.972 94.9545C292.85 95.0758 289.138 94.4545 285.835 93.0909C282.532 91.697 279.911 89.5455 277.972 86.6364C276.063 83.7273 275.123 80.0909 275.153 75.7273V7.45454ZM373.324 42.6364L358.324 44.2727C357.9 42.7576 357.157 41.3333 356.097 40C355.066 38.6667 353.672 37.5909 351.915 36.7727C350.157 35.9545 348.006 35.5455 345.46 35.5455C342.036 35.5455 339.157 36.2879 336.824 37.7727C334.521 39.2576 333.384 41.1818 333.415 43.5455C333.384 45.5758 334.127 47.2273 335.642 48.5C337.188 49.7727 339.733 50.8182 343.278 51.6364L355.188 54.1818C361.794 55.6061 366.703 57.8636 369.915 60.9545C373.157 64.0455 374.794 68.0909 374.824 73.0909C374.794 77.4848 373.506 81.3636 370.96 84.7273C368.445 88.0606 364.945 90.6667 360.46 92.5455C355.975 94.4242 350.824 95.3636 345.006 95.3636C336.46 95.3636 329.581 93.5758 324.369 90C319.157 86.3939 316.051 81.3788 315.051 74.9545L331.097 73.4091C331.824 76.5606 333.369 78.9394 335.733 80.5455C338.097 82.1515 341.172 82.9545 344.96 82.9545C348.869 82.9545 352.006 82.1515 354.369 80.5455C356.763 78.9394 357.96 76.9545 357.96 74.5909C357.96 72.5909 357.188 70.9394 355.642 69.6364C354.127 68.3333 351.763 67.3333 348.551 66.6364L336.642 64.1364C329.945 62.7424 324.991 60.3939 321.778 57.0909C318.566 53.7576 316.975 49.5455 317.006 44.4545C316.975 40.1515 318.142 36.4242 320.506 33.2727C322.9 30.0909 326.218 27.6364 330.46 25.9091C334.733 24.1515 339.657 23.2727 345.233 23.2727C353.415 23.2727 359.854 25.0152 364.551 28.5C369.278 31.9848 372.203 36.697 373.324 42.6364Z" fill="white"/>
</svg>
