<svg width="207" height="209" viewBox="0 0 207 209" fill="none" xmlns="http://www.w3.org/2000/svg">
<path d="M118.707 99.3553C122.597 104.599 123.721 111.365 126.836 117.112C131.495 125.759 140.38 131.735 144.836 140.446C147.602 146.22 148.515 152.7 147.457 159.057C146.4 165.415 143.42 171.363 138.898 176.141C134.251 180.806 128.457 184.24 122.086 186.104C115.716 187.968 108.99 188.198 102.572 186.771C93.6778 184.832 85.3526 181.039 76.4058 179.073C68.2949 177.357 59.9783 177.938 52.0531 174.704C44.6402 171.869 38.617 166.467 35.1286 159.524C33.0747 155.299 32.4172 150.536 33.2445 145.878C34.46 138.069 37.4465 126.866 43.884 121.348C50.3215 115.829 57.4483 114.725 64.336 111.466C71.2238 108.207 77.0309 102.244 83.6135 97.3231C94.6679 89.5235 109.947 87.4622 118.707 99.3553Z" fill="#F39200"/>
<path d="M146.438 119.818C145.441 117.732 144.62 115.568 143.983 113.346C143.04 110.5 142.975 107.432 143.795 104.514C144.614 101.596 146.283 98.9531 148.6 96.9065C152.559 92.9149 157.184 89.6031 162.272 87.1174C165.991 85.0224 170.02 83.5119 174.204 82.6433C175.572 82.3669 176.98 82.3867 178.326 82.7011C179.673 83.0156 180.924 83.6169 181.991 84.462C183.291 85.9211 184.227 87.6536 184.73 89.5298C185.233 91.4059 185.29 93.3772 184.897 95.2961C184.379 101.279 182.847 107.159 180.361 112.697C178.513 117.311 175.55 121.447 171.725 124.749C169.804 126.375 167.534 127.563 165.089 128.22C162.644 128.877 160.089 128.986 157.618 128.54C153.179 127.447 149.389 124.711 147.051 120.911C146.847 120.547 146.614 120.234 146.438 119.818Z" fill="#F39200"/>
<path d="M160.848 60.3637C163.502 51.1976 163.213 41.5927 155.526 35.3229C146.569 27.9974 134.282 36.4026 128.712 44.0919C122.199 52.4196 118.757 62.5919 118.952 72.9338C120.066 85.8381 132.133 90.2027 143.34 84.2854C152.13 78.7783 158.417 70.1892 160.848 60.3637Z" fill="#F39200"/>
<path d="M54.4349 99.0779C56.4533 97.8272 58.3555 96.4049 60.1181 94.8282C62.5273 92.8851 64.3222 90.3203 65.2873 87.4416C66.2524 84.5628 66.3467 81.4924 65.559 78.5988C64.4488 73.2038 62.3921 68.0522 59.4776 63.3668C57.5206 59.7384 54.9737 56.4481 51.9327 53.6194C50.9177 52.7062 49.7037 52.0248 48.3765 51.6232C47.0493 51.2215 45.6412 51.1095 44.2518 51.295C42.3336 51.8879 40.5692 52.8911 39.0905 54.2298C37.6118 55.5685 36.4569 57.208 35.7124 59.0257C32.7595 64.3588 30.7204 70.1085 29.6765 76.0446C28.6273 80.8613 28.7987 85.8289 30.1758 90.5171C30.8844 92.8557 32.1353 94.996 33.8338 96.7761C35.5324 98.5562 37.634 99.9293 39.9799 100.792C44.3633 102.08 49.1281 101.645 53.259 99.5799C53.6661 99.4497 54.0598 99.2816 54.4349 99.0779Z" fill="#F39200"/>
<path d="M73.8324 38.9027C76.8311 29.8416 82.5947 21.9194 92.6566 20.5274C104.41 18.856 109.938 32.2042 110.25 41.4588C110.961 51.726 108.055 61.9973 102.006 70.5916C93.7082 80.9058 80.9881 78.5505 74.9649 67.8481C70.7192 58.7893 70.3129 48.4065 73.8324 38.9027Z" fill="#F39200"/>
<path d="M85.7897 168.527C62.8564 147.701 65.0125 132.112 74.9723 126.728C83.8934 121.916 95.4869 129.497 94.2093 139.276C98.3441 130.217 112.447 129.114 117.569 137.466C123.291 146.804 116.788 161.297 85.7897 168.527Z" fill="#FFE9D5"/>
</svg>
