<svg width="325" height="90" viewBox="0 0 325 90" fill="none" xmlns="http://www.w3.org/2000/svg">
<rect x="1" y="1" width="323" height="88" rx="29" fill="#FFECD1" stroke="#FFAD34" stroke-width="2"/>
<ellipse cx="42" cy="45" rx="35" ry="38" fill="#D9D9D9"/>
<path d="M25.5448 53.149C25.4285 52.7677 25.296 52.3917 25.1438 52.0228C24.6425 50.8153 23.9389 49.7014 23.237 48.5964C22.5722 47.5466 21.9068 46.4968 21.2408 45.4471C20.6517 44.5168 19.9302 43.62 19.676 42.5379C18.7092 38.4495 21.8925 36.3223 22.1449 35.136C22.3974 33.9498 19.8085 34.1192 17.9465 37.8087C16.5518 40.5714 16.7469 43.3746 18.2132 46.1461C19.3215 48.2398 20.8988 50.0704 22.0285 52.134C23.0258 53.954 22.9828 56.143 22.7751 58.2013C22.6247 59.6771 22.4045 61.1846 22.7429 62.6304C22.9506 63.513 23.6077 65.0259 24.6085 65.2783C25.7722 65.5837 26.5296 64.3957 26.5009 63.4053C26.4608 62.9178 26.3939 62.4328 26.3004 61.9525C26.2144 61.1393 26.1911 60.3208 26.2306 59.5041C26.2628 57.3751 26.1607 55.1915 25.5448 53.149Z" fill="#37474F"/>
<path d="M46.4005 53.1227C46.6957 53.2833 46.9756 53.47 47.2366 53.6805C47.6728 54.0423 48.0603 54.4575 48.3896 54.9162C49.8219 56.8581 50.3769 59.5431 49.3492 61.7197C48.2607 64.0145 45.559 65.3473 42.988 65.2061C44.1124 65.7127 45.4784 65.3208 46.6637 65.6827C47.2617 65.8593 47.711 66.5054 47.8256 67.1126C47.9402 67.7199 47.7522 68.3483 46.9734 68.3483C46.9734 68.6466 46.4005 69.1904 45.3853 68.9167C45.3334 69.1356 45.2063 69.5328 43.5126 69.2521C41.8189 68.9715 36.8631 66.9908 34.8472 65.8575C34.0468 65.441 33.2977 64.9352 32.6146 64.3499C31.3774 63.2908 30.5592 61.7585 30.1868 60.1697C29.7177 58.1608 29.8806 56.0619 30.1617 54.0195C30.6147 50.7307 31.415 46.8771 35.1999 45.9857C35.6326 45.868 36.0865 45.8475 36.5283 45.9256C37.2302 46.0757 37.8049 46.5894 38.197 47.1843C39.0922 48.5506 39.1297 50.2859 39.0331 51.9117C38.9543 53.2445 39.9569 52.5878 40.8234 52.4413C41.7061 52.2885 42.6041 52.2411 43.4983 52.3001C44.5138 52.3687 45.503 52.6491 46.4005 53.1227Z" fill="#37474F"/>
<path d="M46.968 68.3428C47.0879 67.6367 47.0432 66.7911 46.3646 66.5016C45.686 66.2121 44.4453 66.2792 44.4453 66.2792C44.4453 66.2792 46.0942 66.0338 46.703 66.4134C47.3117 66.7929 47.1649 67.8009 46.968 68.3428Z" fill="#263238"/>
<path d="M45.382 68.906C45.502 68.1999 45.4572 67.3544 44.7787 67.0649C44.1001 66.7753 42.8594 66.8424 42.8594 66.8424C42.8594 66.8424 44.5083 66.5988 45.117 66.9766C45.7258 67.3544 45.5772 68.3659 45.382 68.906Z" fill="#263238"/>
<path d="M41.7742 63.1372C41.4358 63.1725 41.058 63.0083 40.9435 62.6888C41.2389 63.4214 40.7644 64.2899 40.0662 64.6712C39.3679 65.0525 38.5157 65.0419 37.7279 64.913C34.9153 64.4523 32.3568 62.4293 31.5404 59.7337C31.1071 58.2985 31.1626 56.7539 31.4634 55.2852C31.9223 53.1001 32.8935 51.0513 34.2994 49.3026C35.3736 47.9557 36.7737 46.7606 38.4674 46.3634C40.1611 45.9662 42.1699 46.554 43.0167 48.0545C43.2887 48.5742 43.4627 49.1383 43.5306 49.7192C43.8403 51.8517 43.4213 54.0089 43.6845 56.1431C43.8528 57.5006 44.1948 58.8934 43.928 60.2615C43.7042 61.3701 43.1331 62.9942 41.7742 63.1372Z" fill="#F0F0F0"/>
<path d="M34.1921 57.1474C34.9763 56.7767 35.8876 56.7449 36.747 56.872C37.3736 56.9656 38.0343 57.1704 38.4067 57.6752C38.489 57.2604 39.0924 57.1456 39.4505 57.3716C39.8085 57.5976 39.9786 58.0248 40.1236 58.4219C40.2221 57.827 40.3815 57.1492 40.9275 56.8738C41.4736 56.5984 42.2327 56.9744 42.6105 57.4034C42.9054 57.7591 43.1192 58.1734 43.2371 58.6179C43.332 58.4237 43.6113 58.4272 43.8172 58.4926C43.8783 58.5117 43.9381 58.5347 43.9962 58.5614C44.0488 59.1299 44.0241 59.7028 43.9228 60.2649C43.708 61.3735 43.1368 62.9976 41.7744 63.1406C41.436 63.1759 41.0582 63.0117 40.9436 62.6922C41.239 63.4248 40.7646 64.2933 40.0663 64.6746C39.3681 65.0559 38.5159 65.0453 37.7281 64.9164C36.911 64.7799 36.1204 64.5191 35.3845 64.1432C34.4684 63.1447 33.719 62.009 33.1644 60.7786C32.9209 60.2596 32.6989 59.7053 32.7294 59.1334C32.7759 58.2684 33.4061 57.5181 34.1921 57.1474Z" fill="#E0E0E0"/>
<path d="M50.2236 40.6492C50.2791 40.7462 50.3329 40.8416 50.3866 40.9404C51.2585 42.5292 51.8189 44.4233 51.2352 46.208C50.6211 48.074 48.9077 49.6274 47.2964 50.6831C46.4173 51.2585 43.8266 52.6619 43.0478 51.2356C42.8365 50.849 42.8491 50.3882 42.8365 49.9487C42.8186 49.3909 42.7399 48.803 42.3997 48.3599C42.0595 47.9168 41.3845 47.6732 40.9047 47.9698C40.5198 48.2081 40.3819 48.6936 40.3372 49.1384C40.2924 49.5833 40.3085 50.0528 40.1134 50.4553C40.0708 50.5599 39.9955 50.6483 39.8985 50.7078C39.7571 50.7801 39.5852 50.7413 39.4312 50.7784C38.4447 51.0114 38.7348 53.6505 38.835 54.3513C38.8798 54.662 38.8726 55.068 38.5754 55.181C38.366 55.2604 38.1404 55.1351 37.9452 55.0274C37.4932 54.7799 37.0044 54.6042 36.4968 54.5067C36.3178 54.4731 36.0976 54.4767 36.0331 54.6373C35.9686 54.7979 36.1047 54.9321 36.2121 55.0557C36.3834 55.2697 36.489 55.5276 36.5165 55.7989C36.524 55.8353 36.524 55.8729 36.5163 55.9093C36.5086 55.9457 36.4934 55.9802 36.4717 56.0107C36.417 56.0568 36.3468 56.0813 36.2748 56.0795C35.8773 56.1113 35.4763 56.0601 35.077 56.0707C34.0135 56.0937 33.0378 57.0628 33.0879 58.1184C35.6983 57.0346 38.1887 58.8069 39.6085 60.8635C40.4003 61.989 40.7792 63.3471 40.6827 64.7136C40.6195 65.7962 40.2416 66.838 39.5942 67.7145C38.8315 68.802 36.7296 70.0659 35.496 70.0306C36.0694 70.2054 36.6553 70.3376 37.2488 70.426C39.0821 70.7332 39.6568 70.5443 40.5717 70.825C41.1715 71.0015 41.6209 71.6476 41.7355 72.2549C41.85 72.8621 41.6621 73.4906 40.8832 73.4906C40.8743 73.7889 40.3103 74.3344 39.2952 74.059C39.2432 74.2796 39.1161 74.6751 37.4224 74.3944C35.7287 74.1137 30.7622 72.1189 28.7516 70.9874C27.9525 70.5698 27.2041 70.064 26.5208 69.4798C25.2837 68.4207 24.4654 66.8884 24.093 65.2996C23.624 63.289 23.7869 61.1918 24.068 59.1476C25.2425 50.6248 29.9655 46.4269 31.7398 44.6581C33.1273 43.2759 34.7333 42.2238 36.4431 41.2723C38.0437 40.3808 38.6256 40.0189 39.8914 38.7532C40.4625 38.1848 41.4186 36.7955 41.9306 36.1742C42.3854 35.6234 43.3164 34.716 43.9 33.791C43.9 33.791 45.7101 35.4327 46.3045 35.9358C47.8782 37.271 49.2043 38.8659 50.2236 40.6492Z" fill="#455A64"/>
<path d="M40.8664 73.4835C40.9864 72.7774 40.9398 71.9318 40.263 71.6423C39.5863 71.3528 38.3438 71.4199 38.3438 71.4199C38.3438 71.4199 39.9927 71.1745 40.6014 71.5523C41.2102 71.9301 41.0633 72.9416 40.8664 73.4835Z" fill="#263238"/>
<path d="M39.2805 74.0467C39.4004 73.3406 39.3557 72.495 38.6771 72.2055C37.9985 71.916 36.7578 71.9831 36.7578 71.9831C36.7578 71.9831 38.4068 71.7377 39.0155 72.1172C39.6242 72.4968 39.4774 73.5047 39.2805 74.0467Z" fill="#263238"/>
<path d="M58.847 50.2241C59.0364 50.9235 59.0869 51.6525 58.9956 52.3707C58.891 52.9662 58.7105 53.5463 58.4585 54.0972C57.7842 55.6795 56.9037 57.1684 55.8392 58.5263C55.7353 58.6605 56.2098 58.8034 56.0397 58.8229C55.8696 58.8423 55.5366 59.0206 55.3862 58.9253C54.491 58.3657 53.7176 56.355 53.0694 55.6171C52.7364 55.2393 52.0955 55.2287 51.6282 55.4282C51.0951 55.6583 50.5465 55.8518 49.9864 56.0072C49.0644 56.2809 48.7224 56.2738 48.0618 56.3603C47.6482 58.1362 47.4047 60.4575 47.2382 62.8142C47.0717 65.1708 46.0315 66.8549 46.2033 68.1312C46.3752 69.4075 46.7405 71.5576 47.9937 72.9522C49.1736 74.2638 50.221 74.105 50.0885 75.5243C50.0616 75.6584 49.8915 76.2057 49.2935 76.1809C49.0984 76.7705 48.2909 76.6664 48.2909 76.6664C48.2909 76.6664 48.0098 77.4113 45.6609 76.6752C44.4183 76.2851 44.1892 74.7511 43.951 73.9884C43.5983 72.8772 43.1798 71.7874 42.6978 70.7244C42.3714 70.0141 42.1849 69.2491 42.1481 68.4702C41.8366 68.306 41.1992 68.6555 41.1992 68.6555C41.1992 68.6555 41.1777 67.8505 41.867 67.4745C40.9468 66.9926 41.3066 66.1912 41.3066 66.1912C41.3066 66.1912 41.799 66.8214 42.252 66.2071C42.7049 65.5927 42.5581 63.169 42.252 59.5325C41.9458 55.896 41.6576 54.4432 41.0793 52.512C39.536 47.3662 44.66 34.6543 48.1656 34.8379C50.6041 34.9933 55.0066 35.4611 55.5384 39.6342C55.7317 41.1435 56.2885 42.5628 56.7487 44.0033C56.9689 44.697 57.0441 45.4155 57.2858 46.111C57.5436 46.8701 57.882 47.6009 58.1917 48.3388C58.4592 48.9496 58.6783 49.58 58.847 50.2241Z" fill="#455A64"/>
<path d="M48.3036 76.6697C48.4199 76.3643 48.5256 75.8594 48.0762 75.6441C47.6268 75.4287 47.1094 75.1462 47.1094 75.1462C47.1094 75.1462 48.1138 75.4728 48.3376 75.6229C48.5614 75.7729 48.6348 76.2036 48.3036 76.6697Z" fill="#37474F"/>
<path d="M49.3036 76.186C49.4199 75.8789 49.5256 75.374 49.0762 75.1604C48.6268 74.9468 48.1094 74.6626 48.1094 74.6626C48.1094 74.6626 49.1138 74.9892 49.3376 75.1392C49.5614 75.2893 49.6348 75.7182 49.3036 76.186Z" fill="#37474F"/>
<path d="M51.6232 42.5256C51.4393 42.9926 51.1988 43.4359 50.9071 43.8461C50.37 44.5857 49.6538 45.1718 49.0236 45.8444C48.3934 46.5169 47.867 47.3413 47.8438 48.2522C47.8438 48.1904 48.6709 47.9168 48.7622 47.885C48.6208 48.2381 48.3164 48.5417 48.175 48.9248C48.0169 49.3516 47.9499 49.8059 47.978 50.2593C48.252 49.8743 48.6007 49.5467 49.0039 49.2955C48.8446 49.3944 48.7658 50.0175 48.73 50.1923C48.6641 50.5125 48.6293 50.8382 48.6261 51.1649C48.6261 51.6945 48.6369 52.2241 48.6261 52.7643C48.5868 53.9876 48.4668 55.1933 48.0783 56.3637C48.6199 56.3413 49.1574 56.2596 49.6807 56.1201C50.6117 55.8807 51.5125 55.5391 52.3663 55.1015C53.7986 54.3813 54.4914 53.7264 55.3956 52.4218C57.9164 48.7871 56.4805 43.7066 53.4136 40.8627C53.2668 40.7114 53.0901 40.5912 52.8944 40.5097C52.7957 40.4707 52.688 40.4593 52.5831 40.4767C52.4782 40.4941 52.3803 40.5397 52.3 40.6085C52.2002 40.728 52.1352 40.872 52.112 41.0251C51.9844 41.5358 51.821 42.0372 51.6232 42.5256Z" fill="#F0F0F0"/>
<path d="M57.8208 23.1198C58.5226 23.2787 59.4322 23.5082 59.9353 24.0307C60.2006 24.3275 60.3952 24.6792 60.5046 25.0599C60.6803 25.6232 60.8108 26.1993 60.8949 26.7828C61.1653 28.4245 61.3264 30.1792 60.6138 31.685C60.3256 32.2975 59.8815 32.1934 59.3301 31.9745C58.1807 31.5173 57.4466 30.3857 56.9937 29.2577C56.4324 27.8918 55.9447 26.4977 55.5327 25.081C55.4629 24.8268 55.4575 24.5197 55.3716 24.2796C55.2713 24.0024 55.0135 23.7271 54.8434 23.4835C54.7772 23.3828 54.7127 23.2398 54.8004 23.1569C54.8516 23.1184 54.9154 23.1001 54.9795 23.1057C55.9015 23.0492 56.8612 22.8991 57.7743 23.1057L57.8208 23.1198Z" fill="black"/>
<path d="M55.8118 36.1793C55.5665 36.6683 55.4125 38.0682 55.5397 39.5669C54.888 39.8599 51.0476 40.273 48.4104 39.1132C45.1877 37.6886 43.7554 36.2499 42.8047 35.1766C44.9854 31.6337 44.8583 27.5417 44.8583 27.5417L55.8118 36.1793Z" fill="#455A64"/>
<path d="M52.6914 23.1074C55.198 22.9168 55.8318 23.6052 56.7878 24.3113C57.7439 25.0174 58.2971 25.9107 58.6856 26.6062C59.0741 27.3017 58.7143 28.6822 58.8647 29.1712C59.0151 29.6601 60.2307 30.7599 60.5602 31.6249C60.8896 32.4899 60.5709 33.2437 60.288 34.3999C60.0051 35.5562 59.0974 35.701 59.0974 35.701C58.6891 36.3305 58.058 36.788 57.3267 36.9843C56.1469 37.2685 54.5123 36.5148 54.5123 36.5148C54.5123 36.5148 53.8051 37.2721 52.1525 36.7619C49.7284 36.0099 49.4795 36.3682 48.1886 35.8581C45.9363 34.9666 45.7788 33.9074 44.9158 31.8579C44.0529 29.8084 44.1173 27.7748 46.6024 25.3987C48.5521 23.5328 50.6021 23.2663 52.6914 23.1074Z" fill="#455A64"/>
<path d="M55.0002 34.1723C55.0097 34.1918 55.0131 34.2136 55.01 34.235C55.0069 34.2564 54.9974 34.2765 54.9828 34.2926C54.9681 34.3087 54.949 34.3201 54.9278 34.3255C54.9065 34.3309 54.8842 34.33 54.8635 34.3229C54.8428 34.3157 54.8247 34.3027 54.8114 34.2855C54.7982 34.2682 54.7905 34.2475 54.7892 34.2259C54.788 34.2043 54.7932 34.1828 54.8043 34.1642C54.8154 34.1455 54.8319 34.1305 54.8516 34.1211C54.8647 34.1148 54.879 34.1111 54.8936 34.1103C54.9082 34.1095 54.9229 34.1115 54.9367 34.1162C54.9505 34.121 54.9632 34.1284 54.9741 34.138C54.985 34.1476 54.9939 34.1593 55.0002 34.1723Z" fill="#37474F"/>
<path d="M55.9921 33.9994C56.0045 34.0257 56.0061 34.0557 55.9964 34.0831C55.9867 34.1104 55.9665 34.133 55.9402 34.1459C55.9204 34.1552 55.8983 34.1586 55.8766 34.1555C55.8549 34.1525 55.8345 34.1432 55.8182 34.1287C55.8019 34.1143 55.7902 34.0954 55.7848 34.0745C55.7793 34.0536 55.7802 34.0315 55.7875 34.0111C55.7947 33.9907 55.8079 33.9728 55.8254 33.9598C55.8429 33.9468 55.8639 33.9392 55.8858 33.9379C55.9077 33.9367 55.9295 33.9418 55.9484 33.9528C55.9673 33.9637 55.9825 33.9799 55.9921 33.9994Z" fill="#37474F"/>
<path d="M55.7346 34.852C55.744 34.8715 55.7474 34.8933 55.7443 34.9147C55.7412 34.9361 55.7318 34.9561 55.7171 34.9722C55.7025 34.9884 55.6834 34.9998 55.6621 35.0052C55.6409 35.0106 55.6185 35.0097 55.5978 35.0026C55.5771 34.9954 55.559 34.9824 55.5458 34.9652C55.5326 34.9479 55.5249 34.9272 55.5236 34.9056C55.5224 34.884 55.5276 34.8625 55.5387 34.8439C55.5498 34.8252 55.5662 34.8102 55.586 34.8008C55.5991 34.7945 55.6134 34.7908 55.628 34.79C55.6426 34.7891 55.6572 34.7912 55.6711 34.7959C55.6849 34.8007 55.6976 34.8081 55.7085 34.8177C55.7194 34.8273 55.7282 34.839 55.7346 34.852Z" fill="#37474F"/>
<path d="M57.5701 35.1327C57.6728 35.0446 57.7865 34.9698 57.9085 34.9102C58.0169 34.8486 58.1204 34.7789 58.2182 34.7019C58.2453 34.6801 58.2783 34.6666 58.3131 34.6631C58.3607 34.6658 58.4058 34.6852 58.4402 34.7178C58.6639 34.8927 58.8589 35.1005 59.0185 35.3339C59.0248 35.3419 59.028 35.352 59.0274 35.3621C59.0274 35.3621 59.0185 35.3727 59.0113 35.378C58.7937 35.532 58.542 35.6327 58.277 35.6717C58.012 35.7107 57.7415 35.6868 57.4877 35.6022C57.3857 35.5669 57.1977 35.5016 57.2908 35.3816C57.3747 35.2891 57.4683 35.2057 57.5701 35.1327Z" fill="black"/>
<path opacity="0.1" d="M53.9361 28.1031C53.775 27.8225 53.6103 27.5188 53.3238 27.3635C52.9013 27.1358 52.3731 27.3052 51.956 27.54C51.392 27.8631 50.8817 28.3361 50.6758 28.9522C50.6493 29.0165 50.6418 29.0869 50.6544 29.1552C50.6754 29.2184 50.7162 29.2734 50.7707 29.3124C51.0612 29.5196 51.4153 29.6219 51.7734 29.6019C52.1315 29.5805 52.4908 29.5888 52.8476 29.6266C53.4635 29.736 53.9522 30.1367 54.4589 30.4721C54.6469 30.5957 54.996 30.8817 55.2252 30.8799C55.5045 30.8799 55.5188 30.6328 55.4132 30.4227C54.9942 29.6019 54.3891 28.9028 53.9361 28.1031Z" fill="black"/>
<path opacity="0.1" d="M58.8602 29.173C58.7366 28.7528 58.8691 28.2586 58.8709 27.8314C58.8727 27.4042 58.2998 27.1429 57.9489 27.0176C57.7179 26.9328 57.4476 26.8728 57.2327 26.9964C57.1307 27.0704 57.0508 27.17 57.0014 27.285C56.9519 27.3999 56.9347 27.5258 56.9516 27.6495C56.9964 28.3945 57.7072 28.8235 58.3034 29.1606C58.4162 29.2242 58.529 29.286 58.6435 29.3372C58.8011 29.4219 58.9569 29.5137 59.1144 29.5967C59.0011 29.4741 58.9145 29.3299 58.8602 29.173Z" fill="black"/>
<path d="M56.6922 31.5825C56.5502 31.722 56.4413 31.8908 56.3735 32.0767C56.3255 32.2112 56.3055 32.3538 56.3147 32.4961C56.3239 32.6384 56.3622 32.7773 56.4272 32.9047C56.5901 33.2171 56.8855 33.3425 57.2132 33.4343C57.2224 33.4378 57.2326 33.4378 57.2418 33.4343C57.2525 33.4292 57.2608 33.4204 57.2651 33.4095C57.2864 33.3679 57.2982 33.3221 57.2998 33.2755C57.3013 33.2288 57.2925 33.1824 57.274 33.1394C57.234 33.0789 57.205 33.012 57.1881 32.9417C57.1868 32.9022 57.2003 32.8636 57.2261 32.8333C57.2519 32.803 57.2881 32.7832 57.3277 32.7776C57.6303 32.7458 57.5856 33.1306 57.582 33.3072C57.576 33.3554 57.584 33.4044 57.6053 33.4484C57.6307 33.4852 57.6652 33.5149 57.7055 33.5349L58.2426 33.8597C58.2875 33.8937 58.3405 33.9156 58.3966 33.9232C58.4463 33.9249 58.4958 33.9159 58.5416 33.8968C58.7099 33.8431 58.8612 33.7472 58.9804 33.6184C59.0997 33.4897 59.183 33.3325 59.222 33.1624C59.2452 33.03 59.2327 32.8923 59.2578 32.7581C59.2595 32.739 59.2654 32.7205 59.275 32.7037C59.2845 32.687 59.2976 32.6725 59.3133 32.6611C59.3885 32.6169 59.5013 32.6911 59.5317 32.7564C59.5621 32.8217 59.5317 33.0494 59.6284 32.9223C59.6958 32.7924 59.7342 32.6497 59.7412 32.5039C59.811 31.9744 59.6087 31.3389 59.0447 31.1747C58.832 31.1214 58.6119 31.1023 58.393 31.1182C58.0874 31.1292 57.7831 31.1653 57.4835 31.2259C57.2967 31.2588 57.1158 31.3182 56.9464 31.4024C56.8541 31.4514 56.7687 31.5119 56.6922 31.5825Z" fill="#263238"/>
<path d="M59.0549 35.0726C58.9175 34.9864 58.786 34.8914 58.661 34.7884C58.5713 34.6647 58.5192 34.5184 58.5106 34.3665C58.4927 34.2112 58.4963 34.0541 58.4856 33.8987C58.4856 33.8599 58.4748 33.8122 58.439 33.7963C58.4188 33.7907 58.3972 33.7928 58.3786 33.8023C58.36 33.8118 58.3457 33.828 58.3388 33.8475C58.3277 33.8865 58.3246 33.9273 58.3298 33.9676C58.338 34.1436 58.2945 34.3183 58.2045 34.4707C58.1091 34.5953 57.9818 34.6928 57.8357 34.7531C57.1786 35.1168 56.7292 35.7117 55.9432 35.8493C55.5569 35.9035 55.163 35.8512 54.8049 35.6982C54.4469 35.5452 54.1388 35.2975 53.9147 34.9826C53.7572 34.7619 53.6283 34.5236 53.4779 34.2994C53.4618 34.2765 53.4367 34.25 53.4116 34.2624C53.4035 34.2687 53.3973 34.2773 53.3938 34.2869C53.3903 34.2966 53.3897 34.3071 53.3919 34.3171C53.4045 34.6225 53.6122 34.9049 53.7679 35.1591C53.9702 35.5197 54.276 35.8132 54.647 36.0029C55.168 36.243 55.7749 36.3895 56.3138 36.1918C56.6426 36.0412 56.9448 35.8398 57.209 35.5951C57.397 35.4451 57.5922 35.3039 57.7945 35.1697C57.9763 35.0813 58.1475 34.9729 58.3047 34.8467C58.3231 34.827 58.3404 34.8063 58.3567 34.7849C58.4458 34.9376 58.5681 35.069 58.7147 35.1697C58.8287 35.2476 58.9251 35.348 58.9976 35.4645C59.0396 35.5394 59.0709 35.6195 59.0907 35.7028C59.2015 35.684 59.307 35.6425 59.4005 35.581C59.3291 35.3863 59.2105 35.2117 59.0549 35.0726Z" fill="#263238"/>
<path d="M48.9922 23.6936C48.5554 23.1411 47.8213 23.2982 47.2645 23.4977C46.4302 23.7978 45.5225 23.8649 44.6828 24.165C43.8073 24.4774 42.9622 25.0247 42.5827 25.8614C42.3123 26.4528 42.3034 27.1236 42.3159 27.7732C42.3168 28.8983 42.449 30.0196 42.7098 31.1149C42.9497 32.0399 43.2899 33.1997 44.1063 33.7628C44.425 33.9853 44.8224 34.1636 45.2002 34.0488C45.6227 33.9164 45.8429 33.4698 45.9915 33.0603C46.8115 30.8236 46.9691 28.3487 48.1149 26.2551C48.3316 25.8579 48.6234 25.4501 49.0656 25.3389C49.2339 25.2965 49.4362 25.2895 49.5365 25.1482C49.5714 25.081 49.5896 25.0066 49.5896 24.9311C49.5896 24.8556 49.5714 24.7812 49.5365 24.714C49.4041 24.3505 49.2209 24.0071 48.9922 23.6936Z" fill="black"/>
<path d="M52.5596 35.8882C52.078 35.5775 51.4997 35.4257 50.9482 35.2721C50.3987 35.1347 49.8601 34.9577 49.3369 34.7426C48.8752 34.5487 48.4617 34.2584 48.1248 33.8917C47.9809 33.7303 47.8571 33.5525 47.756 33.3621C47.6506 33.12 47.5679 32.8688 47.5089 32.6119C47.4928 32.5589 47.3693 32.4547 47.3406 32.5554C47.2117 32.9914 47.4534 33.5104 47.6897 33.8705C47.9931 34.3063 48.4041 34.6587 48.8839 34.8944C49.403 35.1526 49.951 35.3499 50.5167 35.4822C50.8336 35.5634 51.1541 35.634 51.4728 35.7135C51.8309 35.8017 52.1764 35.9253 52.5363 35.9994C52.5972 36.0118 52.6025 35.9129 52.5596 35.8882Z" fill="#263238"/>
<path d="M51.2686 25.9072C50.8282 26.1455 50.3466 26.5251 50.1639 27.0035C50.1102 27.1447 50.0207 27.3989 50.2015 27.4854C50.3824 27.5719 50.6778 27.3583 50.8246 27.2506C51.1363 27.0501 51.4584 26.8656 51.7896 26.6981C51.9376 26.6236 52.0715 26.5244 52.1853 26.405C52.6382 25.8754 51.8272 25.6389 51.4226 25.8295C51.3707 25.8543 51.3187 25.879 51.2686 25.9072Z" fill="#37474F"/>
<path d="M57.3102 25.081C57.799 25.1992 58.3629 25.4446 58.6637 25.8594C58.7532 25.983 58.9054 26.2125 58.7532 26.3343C58.6011 26.4561 58.2609 26.3343 58.0908 26.2672C57.7382 26.1521 57.3796 26.0555 57.0166 25.9777C56.8546 25.9454 56.6995 25.8857 56.5582 25.8012C55.9817 25.4005 56.7015 24.9715 57.1455 25.0527C57.1992 25.0527 57.2547 25.0651 57.3102 25.081Z" fill="#37474F"/>
<path d="M53.6877 28.7157C53.523 28.5103 53.2948 28.3634 53.0378 28.2974C52.774 28.2442 52.5005 28.2625 52.2464 28.3503C52.0664 28.4085 51.9052 28.5127 51.7791 28.6522C51.6771 28.7669 51.5231 28.9946 51.55 29.1588C51.5947 29.4342 52.1104 29.06 52.2267 29.0052C52.4253 28.9112 52.6421 28.8606 52.8623 28.857C53.085 28.8726 53.3056 28.9093 53.5212 28.9664C53.7307 29.0017 53.8166 28.887 53.6877 28.7157Z" fill="#263238"/>
<path d="M59.2616 28.1209C59.1172 27.941 58.9173 27.8121 58.6922 27.7538C58.4618 27.7067 58.2227 27.7232 58.0011 27.8014C57.843 27.8512 57.7014 27.942 57.5911 28.0644C57.4716 28.183 57.4002 28.3406 57.3906 28.5075C57.4318 28.7494 57.8812 28.421 57.9832 28.3734C58.157 28.2903 58.347 28.2458 58.5401 28.2427C58.7349 28.2569 58.928 28.2894 59.1166 28.3398C59.2992 28.3716 59.3672 28.271 59.2616 28.1209Z" fill="#263238"/>
<path d="M43.3864 33.9075C44.7883 35.7698 48.7737 37.6005 52.059 37.6005C55.3443 37.6005 55.6398 37.1715 55.6398 37.1715L55.5484 39.5687C55.5484 39.5687 54.1734 40.0348 51.9516 40.0207C49.7297 40.0065 45.0515 39.1027 42.4375 35.5969L43.3864 33.9075Z" fill="#BA68C8"/>
<path d="M54.8817 58.1961C54.8228 57.9926 54.7974 57.781 54.8065 57.5695C54.8924 55.294 55.383 52.9797 56.5557 50.992C57.7678 48.946 59.2735 47.2002 59.6226 44.7588C59.7336 43.9874 59.7318 43.17 60.0738 42.4745C60.2277 42.162 60.4426 41.8814 60.5876 41.5654C60.8275 41.0358 60.8526 40.4374 60.9779 39.8689C61.0567 39.4362 61.2599 39.0348 61.5634 38.7127C61.6913 38.5857 61.8437 38.4851 62.0115 38.4169C62.1794 38.3487 62.3594 38.3142 62.5409 38.3155C62.6036 37.5317 63.4254 37.0127 64.1039 37.3004C64.2558 37.1074 64.4648 36.9655 64.7019 36.8944C64.9186 36.8296 65.151 36.8377 65.3626 36.9174C65.8531 37.078 66.1396 37.6941 66.0375 38.1725C66.0202 38.2298 66.0117 38.2893 66.0125 38.349C66.0271 38.4164 66.0545 38.4805 66.093 38.5379C66.4941 39.244 66.6069 40.2767 66.0107 40.8999C65.8316 41.0905 65.5953 41.2317 65.427 41.4295C65.0403 41.899 65.085 42.5804 64.8541 43.1418C64.6536 43.6308 64.2507 44.0068 63.8962 44.4022C62.5123 45.9486 62.0539 47.7898 61.635 49.7775C61.4094 50.8508 61.1784 52.0918 61.0173 53.1774C60.8535 54.3684 60.5747 55.5411 60.1848 56.6798C59.6065 58.3038 58.3657 59.4089 56.5413 59.2871C56.1952 59.2748 55.8563 59.1861 55.5495 59.0276C55.2248 58.8477 54.9849 58.549 54.8817 58.1961Z" fill="#455A64"/>
<path d="M59.8801 57.3593C59.6248 57.8971 59.2331 58.3607 58.7429 58.7055C58.2527 59.0503 57.6805 59.2646 57.0818 59.3276C56.2009 59.4283 55.0855 59.1741 54.8151 58.2226C54.7335 57.9321 54.708 57.6291 54.7399 57.3293C54.7834 56.1503 54.96 54.9798 55.2663 53.8394C55.8231 51.5004 57.3933 49.6486 58.5373 47.5955C59.1109 46.5764 59.4673 45.4525 59.5847 44.2927C59.6509 43.7137 59.6993 43.1099 59.9428 42.5521C60.1863 41.9943 60.5891 41.5759 60.6947 40.9792C60.829 40.4196 60.8505 39.8124 61.1101 39.2616C61.2219 38.9777 61.4163 38.7327 61.669 38.5575C61.9216 38.3822 62.2211 38.2845 62.5299 38.2766L62.4887 38.3154C62.5158 38.039 62.6365 37.7796 62.8314 37.5791C63.0263 37.3787 63.284 37.2487 63.5629 37.2104C63.7458 37.188 63.9314 37.2149 64.1 37.288H64.0803C64.2246 37.1009 64.4256 36.9639 64.6542 36.8969C64.8827 36.83 65.127 36.8365 65.3515 36.9156C65.1293 36.837 64.8863 36.837 64.664 36.9156C64.4399 36.9957 64.2437 37.1371 64.0983 37.3233C63.9312 37.2565 63.7495 37.2329 63.5705 37.2548C63.3916 37.2767 63.2213 37.3435 63.0759 37.4487C62.9264 37.5517 62.8029 37.6873 62.7151 37.845C62.6272 38.0026 62.5773 38.1781 62.5693 38.3578C61.137 38.4002 61.0188 39.9148 60.829 41.0057C60.7377 41.5971 60.3313 42.0878 60.0914 42.6121C59.6653 43.696 59.8192 44.9441 59.4021 46.0474C58.865 47.7438 57.7657 49.1949 56.8401 50.6883C55.5653 52.669 55.0121 55.0097 54.8706 57.3329C54.7399 58.2579 55.2036 59.0523 56.1866 59.1952C56.9191 59.3209 57.6731 59.2101 58.3367 58.8793C59.0002 58.5485 59.5377 58.0155 59.8694 57.3593H59.8801Z" fill="#37474F"/>
<path d="M64.781 40.6827C64.4945 40.1531 64.8634 39.6236 65.2913 39.3252C65.5258 39.1593 65.8642 39.0904 66.0665 39.3376C66.1665 39.4725 66.2244 39.6332 66.233 39.8001C66.2706 40.078 66.2072 40.36 66.054 40.5962C65.9601 40.7209 65.842 40.8259 65.7066 40.9052C65.6223 40.9603 65.5281 40.9992 65.4291 41.0199C65.299 41.0363 65.167 41.0127 65.051 40.9523C64.935 40.892 64.8407 40.7978 64.781 40.6827Z" fill="#37474F"/>
<path d="M64.784 40.6825C64.5476 40.2748 64.7446 39.7769 65.0597 39.4645C65.3855 39.0779 66.0265 38.8943 66.2539 39.491C66.3367 39.7117 66.3515 39.9516 66.2964 40.1806C66.2412 40.4096 66.1187 40.6174 65.9441 40.7779C65.5771 41.1097 65.0489 41.1521 64.784 40.6825ZM64.784 40.6825C65.0615 41.1468 65.5538 41.0762 65.885 40.7161C66.193 40.4125 66.2198 39.927 66.0945 39.551C65.9334 39.0744 65.4034 39.2474 65.1188 39.5245C64.7822 39.7964 64.5494 40.2748 64.784 40.6825Z" fill="#263238"/>
<path d="M64.9005 37.6146C64.8477 37.6337 64.7977 37.6599 64.7519 37.6923C64.6159 37.8036 64.5085 37.9452 64.4386 38.1054C64.2822 38.4222 64.1852 38.7643 64.1522 39.1151C64.1271 39.2975 64.143 39.4831 64.1987 39.6588C64.3992 40.2078 65.2156 39.9889 65.4735 39.5953C65.5416 39.4854 65.5935 39.3665 65.6274 39.2422C65.736 38.8241 65.7046 38.3826 65.5379 37.9836C65.491 37.8318 65.389 37.7023 65.2514 37.6199C65.1963 37.5959 65.1368 37.583 65.0765 37.5821C65.0162 37.5812 64.9564 37.5922 64.9005 37.6146Z" fill="#37474F"/>
<path d="M64.8962 37.6146C64.3161 37.8406 64.0314 39.191 64.291 39.6941C64.5506 40.1213 65.29 39.8389 65.4655 39.4523C65.7752 39.0163 65.7162 37.3481 64.8962 37.6146ZM64.8962 37.6146C64.9598 37.593 65.0273 37.5845 65.0944 37.5896C65.1615 37.5948 65.2268 37.6135 65.2862 37.6447C65.3457 37.6758 65.398 37.7187 65.4399 37.7706C65.4819 37.8225 65.5125 37.8824 65.53 37.9465C65.7931 38.5343 65.888 39.3887 65.3312 39.8512C65.0036 40.1107 64.3805 40.2043 64.1621 39.7612C63.9079 39.2228 64.325 37.8317 64.8962 37.6146Z" fill="#263238"/>
<path d="M63.192 38.0735C63.0038 38.2867 62.8651 38.538 62.7856 38.8096C62.7069 39.0621 62.7069 39.3321 62.7856 39.5846C62.8322 39.724 62.8769 39.9041 63.0219 39.9729C63.2448 40.0485 63.4887 40.0358 63.7023 39.9376C63.806 39.9059 63.9035 39.8569 63.9905 39.7929C64.3074 39.5422 64.3593 38.9914 64.3952 38.6225C64.4345 38.2094 64.2251 37.6339 63.6969 37.7398C63.496 37.7933 63.3186 37.9106 63.192 38.0735Z" fill="#37474F"/>
<path d="M63.2006 38.0736C62.8658 38.4585 62.6634 39.0181 62.8103 39.5141C62.8433 39.6343 62.8953 39.7487 62.9642 39.853C63.1307 40.0207 63.4297 39.9466 63.6392 39.8742C64.0367 39.7754 64.1942 39.44 64.2676 39.0569C64.3325 38.8093 64.3548 38.5527 64.3339 38.2978C64.2282 37.6182 63.5998 37.5917 63.2006 38.0736ZM63.2006 38.0736C63.6088 37.5705 64.2569 37.5935 64.418 38.2802C64.4663 38.5452 64.4663 38.8166 64.418 39.0816C64.3733 39.4912 64.1566 39.9272 63.7019 40.026C63.1862 40.1849 62.8335 40.1055 62.7369 39.5371C62.6294 39.0075 62.8693 38.4779 63.2095 38.0736H63.2006Z" fill="#263238"/>
<path d="M65.2162 40.9827C65.2131 40.8498 65.192 40.718 65.1535 40.5908C64.9476 39.9252 64.2673 39.7381 63.6388 39.9182C62.9577 40.1307 62.389 40.5995 62.0561 41.2227C61.8771 41.5546 61.7983 41.9765 62.0096 42.2819C62.0703 42.3677 62.1505 42.4383 62.2437 42.4882C62.3369 42.5382 62.4407 42.566 62.5467 42.5696C62.8708 42.5696 63.1715 42.349 63.4956 42.379C63.9307 42.4196 64.3514 42.7956 64.7614 42.4161C64.9302 42.2375 65.0454 42.0163 65.0944 41.777C65.1755 41.5198 65.2165 41.252 65.2162 40.9827Z" fill="#263238"/>
<path d="M61.9384 40.9263C62.2571 41.0763 62.8211 40.7656 62.9769 40.4867C63.0099 40.4226 63.0357 40.3551 63.0539 40.2855C63.1426 39.9389 63.1117 39.5731 62.9661 39.2457C62.9266 39.1561 62.8628 39.0789 62.7816 39.0228C62.7003 38.9667 62.605 38.9339 62.506 38.928C62.2571 38.928 62.0584 39.1292 61.9277 39.3375C61.7021 39.6941 61.3906 40.665 61.9384 40.9263Z" fill="#37474F"/>
<path d="M61.9379 40.9263C62.3533 41.0728 62.9244 40.7056 63.0122 40.2961C63.0999 39.8865 63.0534 39.3481 62.7293 39.0869C62.0131 38.6067 61.2164 40.6227 61.9433 40.9263H61.9379ZM61.9379 40.9263C61.2719 40.5997 61.7446 38.9439 62.4321 38.8538C63.1751 38.8079 63.2646 39.7983 63.0874 40.319C62.971 40.7286 62.3497 41.0781 61.9379 40.9263Z" fill="#263238"/>
<path d="M61.2266 44.6385C61.177 44.6873 61.1414 44.748 61.1232 44.8146C61.1049 44.8812 61.1048 44.9514 61.1227 45.0181C61.189 45.1946 61.4146 45.2564 61.6079 45.2882L61.7476 45.3129C61.8774 45.3413 62.0108 45.3496 62.1432 45.3376C62.6213 45.2687 62.8433 44.6721 62.4136 44.379C62.0949 44.1601 61.59 44.3243 61.3179 44.5556C61.2847 44.5802 61.2541 44.608 61.2266 44.6385Z" fill="#37474F"/>
<path d="M62.6971 38.2131C62.7156 38.1439 62.7252 38.0727 62.7257 38.0012C62.7246 37.9695 62.7149 37.9387 62.6976 37.912C62.6803 37.8853 62.656 37.8637 62.6272 37.8494C62.5727 37.8342 62.5142 37.8405 62.4643 37.8671C62.372 37.8973 62.287 37.9458 62.2144 38.0095C62.1417 38.0733 62.083 38.1509 62.0418 38.2378C62.0233 38.2914 62.0187 38.3487 62.0284 38.4045C62.0382 38.4603 62.0619 38.5128 62.0975 38.5572C62.1331 38.6016 62.1795 38.6365 62.2323 38.6587C62.2851 38.6809 62.3427 38.6898 62.3998 38.6844C62.5413 38.6738 62.6487 38.4196 62.6971 38.2131Z" fill="#E0E0E0"/>
<path d="M60.2176 42.9317C60.2858 42.8815 60.3499 42.826 60.4092 42.7658C60.6061 42.5893 60.4199 42.2856 60.3322 42.0844C60.3031 41.9805 60.2591 41.8812 60.2015 41.7896C60.1334 41.719 60.0887 41.7719 60.0224 41.839C59.9619 41.9121 59.919 41.9978 59.8971 42.0897C59.8459 42.2693 59.823 42.4557 59.8291 42.6422C59.8282 42.7228 59.846 42.8025 59.881 42.8752C59.9001 42.9108 59.9287 42.9405 59.9638 42.961C59.9988 42.9816 60.039 42.9922 60.0797 42.9917C60.1298 42.9826 60.177 42.962 60.2176 42.9317Z" fill="#E0E0E0"/>
<path d="M63.7755 37.5686C63.8138 37.5896 63.857 37.6005 63.9008 37.6004C64.0924 37.5898 64.1336 37.2473 64.2141 37.1114C64.2412 37.0742 64.2606 37.0323 64.2714 36.9878C64.3287 36.7283 63.9903 36.7742 63.8525 36.8378C63.6883 36.9095 63.5498 37.0282 63.455 37.1785C63.344 37.3815 63.6251 37.5068 63.7755 37.5686Z" fill="#E0E0E0"/>
<path d="M65.5254 37.3638C65.5544 37.3646 65.5829 37.3573 65.6078 37.3426C65.6372 37.3199 65.661 37.2909 65.6776 37.2579C65.7135 37.1773 65.7542 37.0989 65.7993 37.0231C65.8799 36.9066 66.1306 36.693 65.8978 36.5959C65.8138 36.5634 65.7204 36.5634 65.6364 36.5959C65.5082 36.6516 65.3879 36.7234 65.2783 36.8095C65.1835 36.8748 65.0295 37.0513 65.1226 37.1731C65.2281 37.2839 65.3718 37.3519 65.5254 37.3638Z" fill="#E0E0E0"/>
<path d="M66.5865 38.5449C66.5913 38.5784 66.587 38.6125 66.574 38.6437C66.552 38.7181 66.5257 38.7912 66.4952 38.8626C66.4748 38.9228 66.4376 38.9761 66.3878 39.0162C66.1783 39.1574 65.8668 38.9085 66.0154 38.6879C66.0959 38.5678 66.5346 38.2695 66.5865 38.5449Z" fill="#E0E0E0"/>
<path d="M85.5284 52.4062V51.2727H92.2827V52.4062H89.5597V60H88.2472V52.4062H85.5284ZM95.9071 56.1136V60H94.6329V51.2727H95.89V54.5199H95.971C96.1244 54.1676 96.3588 53.8878 96.6741 53.6804C96.9895 53.473 97.4014 53.3693 97.9099 53.3693C98.3588 53.3693 98.7508 53.4616 99.0861 53.6463C99.4241 53.831 99.6855 54.1065 99.8702 54.473C100.058 54.8366 100.151 55.2912 100.151 55.8366V60H98.8773V55.9901C98.8773 55.5099 98.7537 55.1378 98.5065 54.8736C98.2594 54.6065 97.9156 54.473 97.4753 54.473C97.1741 54.473 96.9042 54.5369 96.6656 54.6648C96.4298 54.7926 96.2437 54.9801 96.1074 55.2273C95.9738 55.4716 95.9071 55.767 95.9071 56.1136ZM105.633 60.1321C104.988 60.1321 104.432 59.9943 103.967 59.7188C103.503 59.4403 103.145 59.0497 102.893 58.5469C102.643 58.0412 102.518 57.4489 102.518 56.7699C102.518 56.0994 102.643 55.5085 102.893 54.9972C103.145 54.4858 103.498 54.0866 103.949 53.7997C104.404 53.5128 104.935 53.3693 105.543 53.3693C105.913 53.3693 106.27 53.4304 106.617 53.5526C106.964 53.6747 107.275 53.8665 107.55 54.1278C107.826 54.3892 108.043 54.7287 108.202 55.1463C108.361 55.5611 108.441 56.0653 108.441 56.6591V57.1108H103.238V56.1562H107.192C107.192 55.821 107.124 55.5241 106.988 55.2656C106.851 55.0043 106.66 54.7983 106.413 54.6477C106.168 54.4972 105.881 54.4219 105.552 54.4219C105.194 54.4219 104.881 54.5099 104.614 54.6861C104.35 54.8594 104.145 55.0866 104.001 55.3679C103.859 55.6463 103.788 55.9489 103.788 56.2756V57.0213C103.788 57.4588 103.864 57.831 104.018 58.1378C104.174 58.4446 104.391 58.679 104.67 58.8409C104.948 59 105.273 59.0795 105.645 59.0795C105.887 59.0795 106.107 59.0455 106.306 58.9773C106.505 58.9062 106.677 58.8011 106.822 58.6619C106.967 58.5227 107.077 58.3509 107.154 58.1463L108.36 58.3636C108.263 58.7187 108.09 59.0298 107.84 59.2969C107.593 59.5611 107.282 59.767 106.907 59.9148C106.535 60.0597 106.11 60.1321 105.633 60.1321ZM115.053 60V51.2727H118.164C118.842 51.2727 119.405 51.3963 119.851 51.6435C120.297 51.8906 120.631 52.2287 120.852 52.6577C121.074 53.0838 121.185 53.5639 121.185 54.098C121.185 54.6349 121.073 55.1179 120.848 55.5469C120.627 55.973 120.291 56.3111 119.842 56.5611C119.396 56.8082 118.835 56.9318 118.159 56.9318H116.02V55.8153H118.04C118.469 55.8153 118.817 55.7415 119.084 55.5938C119.351 55.4432 119.547 55.2386 119.672 54.9801C119.797 54.7216 119.86 54.4276 119.86 54.098C119.86 53.7685 119.797 53.4759 119.672 53.2202C119.547 52.9645 119.35 52.7642 119.08 52.6193C118.813 52.4744 118.46 52.402 118.023 52.402H116.369V60H115.053ZM126.261 60.1321C125.648 60.1321 125.112 59.9915 124.655 59.7102C124.197 59.429 123.842 59.0355 123.589 58.5298C123.337 58.0241 123.21 57.4332 123.21 56.7571C123.21 56.0781 123.337 55.4844 123.589 54.9759C123.842 54.4673 124.197 54.0724 124.655 53.7912C125.112 53.5099 125.648 53.3693 126.261 53.3693C126.875 53.3693 127.41 53.5099 127.868 53.7912C128.325 54.0724 128.68 54.4673 128.933 54.9759C129.186 55.4844 129.312 56.0781 129.312 56.7571C129.312 57.4332 129.186 58.0241 128.933 58.5298C128.68 59.0355 128.325 59.429 127.868 59.7102C127.41 59.9915 126.875 60.1321 126.261 60.1321ZM126.266 59.0625C126.663 59.0625 126.993 58.9574 127.254 58.7472C127.516 58.5369 127.709 58.2571 127.834 57.9077C127.962 57.5582 128.025 57.1733 128.025 56.7528C128.025 56.3352 127.962 55.9517 127.834 55.6023C127.709 55.25 127.516 54.9673 127.254 54.7543C126.993 54.5412 126.663 54.4347 126.266 54.4347C125.865 54.4347 125.533 54.5412 125.268 54.7543C125.007 54.9673 124.812 55.25 124.685 55.6023C124.56 55.9517 124.497 56.3352 124.497 56.7528C124.497 57.1733 124.56 57.5582 124.685 57.9077C124.812 58.2571 125.007 58.5369 125.268 58.7472C125.533 58.9574 125.865 59.0625 126.266 59.0625ZM134.452 60.1321C133.838 60.1321 133.303 59.9915 132.845 59.7102C132.388 59.429 132.033 59.0355 131.78 58.5298C131.527 58.0241 131.401 57.4332 131.401 56.7571C131.401 56.0781 131.527 55.4844 131.78 54.9759C132.033 54.4673 132.388 54.0724 132.845 53.7912C133.303 53.5099 133.838 53.3693 134.452 53.3693C135.065 53.3693 135.601 53.5099 136.058 53.7912C136.516 54.0724 136.871 54.4673 137.124 54.9759C137.376 55.4844 137.503 56.0781 137.503 56.7571C137.503 57.4332 137.376 58.0241 137.124 58.5298C136.871 59.0355 136.516 59.429 136.058 59.7102C135.601 59.9915 135.065 60.1321 134.452 60.1321ZM134.456 59.0625C134.854 59.0625 135.183 58.9574 135.445 58.7472C135.706 58.5369 135.899 58.2571 136.024 57.9077C136.152 57.5582 136.216 57.1733 136.216 56.7528C136.216 56.3352 136.152 55.9517 136.024 55.6023C135.899 55.25 135.706 54.9673 135.445 54.7543C135.183 54.5412 134.854 54.4347 134.456 54.4347C134.055 54.4347 133.723 54.5412 133.459 54.7543C133.197 54.9673 133.003 55.25 132.875 55.6023C132.75 55.9517 132.688 56.3352 132.688 56.7528C132.688 57.1733 132.75 57.5582 132.875 57.9077C133.003 58.2571 133.197 58.5369 133.459 58.7472C133.723 58.9574 134.055 59.0625 134.456 59.0625ZM144.123 60V51.2727H147.234C147.913 51.2727 148.475 51.3963 148.921 51.6435C149.368 51.8906 149.701 52.2287 149.923 52.6577C150.144 53.0838 150.255 53.5639 150.255 54.098C150.255 54.6349 150.143 55.1179 149.919 55.5469C149.697 55.973 149.362 56.3111 148.913 56.5611C148.467 56.8082 147.906 56.9318 147.23 56.9318H145.091V55.8153H147.11C147.539 55.8153 147.887 55.7415 148.154 55.5938C148.421 55.4432 148.618 55.2386 148.743 54.9801C148.868 54.7216 148.93 54.4276 148.93 54.098C148.93 53.7685 148.868 53.4759 148.743 53.2202C148.618 52.9645 148.42 52.7642 148.15 52.6193C147.883 52.4744 147.531 52.402 147.093 52.402H145.44V60H144.123ZM155.712 53.4545V54.4773H152.137V53.4545H155.712ZM153.096 51.8864H154.37V58.0781C154.37 58.3253 154.407 58.5114 154.481 58.6364C154.554 58.7585 154.65 58.8423 154.766 58.8878C154.885 58.9304 155.015 58.9517 155.154 58.9517C155.256 58.9517 155.346 58.9446 155.422 58.9304C155.499 58.9162 155.559 58.9048 155.601 58.8963L155.831 59.9489C155.758 59.9773 155.652 60.0057 155.516 60.0341C155.38 60.0653 155.209 60.0824 155.005 60.0852C154.669 60.0909 154.357 60.0312 154.067 59.9062C153.777 59.7812 153.543 59.5881 153.364 59.3267C153.185 59.0653 153.096 58.7372 153.096 58.3423V51.8864ZM158.082 60V53.4545H159.313V54.4943H159.381C159.501 54.142 159.711 53.8651 160.012 53.6634C160.316 53.4588 160.66 53.3565 161.043 53.3565C161.123 53.3565 161.216 53.3594 161.324 53.3651C161.435 53.3707 161.522 53.3778 161.584 53.3864V54.6051C161.533 54.5909 161.442 54.5753 161.312 54.5582C161.181 54.5384 161.05 54.5284 160.92 54.5284C160.618 54.5284 160.35 54.5923 160.114 54.7202C159.881 54.8452 159.697 55.0199 159.56 55.2443C159.424 55.4659 159.356 55.7187 159.356 56.0028V60H158.082ZM166.17 60.1321C165.556 60.1321 165.021 59.9915 164.563 59.7102C164.106 59.429 163.751 59.0355 163.498 58.5298C163.245 58.0241 163.119 57.4332 163.119 56.7571C163.119 56.0781 163.245 55.4844 163.498 54.9759C163.751 54.4673 164.106 54.0724 164.563 53.7912C165.021 53.5099 165.556 53.3693 166.17 53.3693C166.783 53.3693 167.319 53.5099 167.776 53.7912C168.234 54.0724 168.589 54.4673 168.842 54.9759C169.094 55.4844 169.221 56.0781 169.221 56.7571C169.221 57.4332 169.094 58.0241 168.842 58.5298C168.589 59.0355 168.234 59.429 167.776 59.7102C167.319 59.9915 166.783 60.1321 166.17 60.1321ZM166.174 59.0625C166.572 59.0625 166.901 58.9574 167.163 58.7472C167.424 58.5369 167.617 58.2571 167.742 57.9077C167.87 57.5582 167.934 57.1733 167.934 56.7528C167.934 56.3352 167.87 55.9517 167.742 55.6023C167.617 55.25 167.424 54.9673 167.163 54.7543C166.901 54.5412 166.572 54.4347 166.174 54.4347C165.773 54.4347 165.441 54.5412 165.177 54.7543C164.915 54.9673 164.721 55.25 164.593 55.6023C164.468 55.9517 164.406 56.3352 164.406 56.7528C164.406 57.1733 164.468 57.5582 164.593 57.9077C164.721 58.2571 164.915 58.5369 165.177 58.7472C165.441 58.9574 165.773 59.0625 166.174 59.0625ZM172.877 51.2727V60H171.603V51.2727H172.877ZM180.961 51.2727V60H179.687V51.2727H180.961ZM186.393 60.1321C185.779 60.1321 185.243 59.9915 184.786 59.7102C184.329 59.429 183.974 59.0355 183.721 58.5298C183.468 58.0241 183.341 57.4332 183.341 56.7571C183.341 56.0781 183.468 55.4844 183.721 54.9759C183.974 54.4673 184.329 54.0724 184.786 53.7912C185.243 53.5099 185.779 53.3693 186.393 53.3693C187.006 53.3693 187.542 53.5099 187.999 53.7912C188.456 54.0724 188.812 54.4673 189.064 54.9759C189.317 55.4844 189.444 56.0781 189.444 56.7571C189.444 57.4332 189.317 58.0241 189.064 58.5298C188.812 59.0355 188.456 59.429 187.999 59.7102C187.542 59.9915 187.006 60.1321 186.393 60.1321ZM186.397 59.0625C186.795 59.0625 187.124 58.9574 187.385 58.7472C187.647 58.5369 187.84 58.2571 187.965 57.9077C188.093 57.5582 188.157 57.1733 188.157 56.7528C188.157 56.3352 188.093 55.9517 187.965 55.6023C187.84 55.25 187.647 54.9673 187.385 54.7543C187.124 54.5412 186.795 54.4347 186.397 54.4347C185.996 54.4347 185.664 54.5412 185.4 54.7543C185.138 54.9673 184.944 55.25 184.816 55.6023C184.691 55.9517 184.628 56.3352 184.628 56.7528C184.628 57.1733 184.691 57.5582 184.816 57.9077C184.944 58.2571 185.138 58.5369 185.4 58.7472C185.664 58.9574 185.996 59.0625 186.397 59.0625ZM194.57 62.5909C194.05 62.5909 193.603 62.5227 193.228 62.3864C192.856 62.25 192.552 62.0696 192.316 61.8452C192.08 61.6207 191.904 61.375 191.788 61.108L192.883 60.6562C192.959 60.7812 193.062 60.9134 193.19 61.0526C193.32 61.1946 193.496 61.3153 193.718 61.4148C193.942 61.5142 194.231 61.5639 194.583 61.5639C195.066 61.5639 195.465 61.446 195.78 61.2102C196.096 60.9773 196.253 60.6051 196.253 60.0938V58.8068H196.173C196.096 58.946 195.985 59.1009 195.84 59.2713C195.698 59.4418 195.502 59.5895 195.252 59.7145C195.002 59.8395 194.677 59.902 194.276 59.902C193.759 59.902 193.293 59.7812 192.878 59.5398C192.467 59.2955 192.14 58.9361 191.898 58.4616C191.66 57.9844 191.54 57.3977 191.54 56.7017C191.54 56.0057 191.658 55.4091 191.894 54.9119C192.133 54.4148 192.459 54.0341 192.874 53.7699C193.289 53.5028 193.759 53.3693 194.285 53.3693C194.691 53.3693 195.019 53.4375 195.269 53.5739C195.519 53.7074 195.714 53.8636 195.853 54.0426C195.995 54.2216 196.104 54.3793 196.181 54.5156H196.275V53.4545H197.523V60.1449C197.523 60.7074 197.393 61.169 197.131 61.5298C196.87 61.8906 196.516 62.1577 196.07 62.331C195.627 62.5043 195.127 62.5909 194.57 62.5909ZM194.557 58.8452C194.924 58.8452 195.234 58.7599 195.486 58.5895C195.742 58.4162 195.935 58.169 196.066 57.848C196.199 57.5241 196.266 57.1364 196.266 56.6847C196.266 56.2443 196.201 55.8565 196.07 55.5213C195.94 55.1861 195.748 54.9247 195.495 54.7372C195.242 54.5469 194.93 54.4517 194.557 54.4517C194.174 54.4517 193.854 54.5511 193.599 54.75C193.343 54.946 193.15 55.2131 193.019 55.5511C192.891 55.8892 192.827 56.267 192.827 56.6847C192.827 57.1136 192.893 57.4901 193.023 57.8139C193.154 58.1378 193.347 58.3906 193.603 58.5724C193.861 58.7543 194.18 58.8452 194.557 58.8452ZM202.949 60.1321C202.336 60.1321 201.8 59.9915 201.343 59.7102C200.885 59.429 200.53 59.0355 200.277 58.5298C200.025 58.0241 199.898 57.4332 199.898 56.7571C199.898 56.0781 200.025 55.4844 200.277 54.9759C200.53 54.4673 200.885 54.0724 201.343 53.7912C201.8 53.5099 202.336 53.3693 202.949 53.3693C203.563 53.3693 204.098 53.5099 204.556 53.7912C205.013 54.0724 205.368 54.4673 205.621 54.9759C205.874 55.4844 206 56.0781 206 56.7571C206 57.4332 205.874 58.0241 205.621 58.5298C205.368 59.0355 205.013 59.429 204.556 59.7102C204.098 59.9915 203.563 60.1321 202.949 60.1321ZM202.954 59.0625C203.351 59.0625 203.681 58.9574 203.942 58.7472C204.204 58.5369 204.397 58.2571 204.522 57.9077C204.65 57.5582 204.713 57.1733 204.713 56.7528C204.713 56.3352 204.65 55.9517 204.522 55.6023C204.397 55.25 204.204 54.9673 203.942 54.7543C203.681 54.5412 203.351 54.4347 202.954 54.4347C202.553 54.4347 202.221 54.5412 201.956 54.7543C201.695 54.9673 201.5 55.25 201.373 55.6023C201.248 55.9517 201.185 56.3352 201.185 56.7528C201.185 57.1733 201.248 57.5582 201.373 57.9077C201.5 58.2571 201.695 58.5369 201.956 58.7472C202.221 58.9574 202.553 59.0625 202.954 59.0625ZM210.04 58.8068L209.976 59.2713C209.934 59.6122 209.861 59.9673 209.759 60.3366C209.66 60.7088 209.556 61.054 209.448 61.3722C209.343 61.6903 209.256 61.9432 209.188 62.1307H208.285C208.322 61.9545 208.373 61.7159 208.438 61.4148C208.503 61.1165 208.567 60.7827 208.63 60.4134C208.692 60.044 208.739 59.6676 208.77 59.2841L208.813 58.8068H210.04ZM221.7 55.0526L220.545 55.2571C220.497 55.1094 220.42 54.9687 220.315 54.8352C220.212 54.7017 220.073 54.5923 219.897 54.5071C219.721 54.4219 219.501 54.3793 219.237 54.3793C218.876 54.3793 218.575 54.4602 218.333 54.6222C218.092 54.7812 217.971 54.9872 217.971 55.2401C217.971 55.4588 218.052 55.6349 218.214 55.7685C218.376 55.902 218.637 56.0114 218.998 56.0966L220.038 56.3352C220.64 56.4744 221.089 56.6889 221.384 56.9787C221.68 57.2685 221.827 57.6449 221.827 58.108C221.827 58.5 221.714 58.8494 221.487 59.1562C221.262 59.4602 220.948 59.6989 220.545 59.8722C220.144 60.0455 219.68 60.1321 219.151 60.1321C218.418 60.1321 217.82 59.9759 217.357 59.6634C216.894 59.348 216.61 58.9006 216.505 58.321L217.737 58.1335C217.813 58.4545 217.971 58.6974 218.21 58.8622C218.448 59.0241 218.759 59.1051 219.143 59.1051C219.56 59.1051 219.894 59.0185 220.144 58.8452C220.394 58.669 220.519 58.4545 220.519 58.2017C220.519 57.9972 220.443 57.8253 220.289 57.6861C220.139 57.5469 219.907 57.4418 219.595 57.3707L218.487 57.1278C217.876 56.9886 217.424 56.767 217.131 56.4631C216.842 56.1591 216.697 55.7741 216.697 55.3082C216.697 54.9219 216.805 54.5838 217.021 54.294C217.237 54.0043 217.535 53.7784 217.916 53.6165C218.296 53.4517 218.732 53.3693 219.224 53.3693C219.931 53.3693 220.488 53.5227 220.894 53.8295C221.3 54.1335 221.569 54.5412 221.7 55.0526ZM225.463 51.2727V60H224.188V51.2727H225.463ZM230.894 60.1321C230.28 60.1321 229.745 59.9915 229.287 59.7102C228.83 59.429 228.475 59.0355 228.222 58.5298C227.969 58.0241 227.843 57.4332 227.843 56.7571C227.843 56.0781 227.969 55.4844 228.222 54.9759C228.475 54.4673 228.83 54.0724 229.287 53.7912C229.745 53.5099 230.28 53.3693 230.894 53.3693C231.507 53.3693 232.043 53.5099 232.5 53.7912C232.958 54.0724 233.313 54.4673 233.566 54.9759C233.819 55.4844 233.945 56.0781 233.945 56.7571C233.945 57.4332 233.819 58.0241 233.566 58.5298C233.313 59.0355 232.958 59.429 232.5 59.7102C232.043 59.9915 231.507 60.1321 230.894 60.1321ZM230.898 59.0625C231.296 59.0625 231.625 58.9574 231.887 58.7472C232.148 58.5369 232.341 58.2571 232.466 57.9077C232.594 57.5582 232.658 57.1733 232.658 56.7528C232.658 56.3352 232.594 55.9517 232.466 55.6023C232.341 55.25 232.148 54.9673 231.887 54.7543C231.625 54.5412 231.296 54.4347 230.898 54.4347C230.497 54.4347 230.165 54.5412 229.901 54.7543C229.64 54.9673 229.445 55.25 229.317 55.6023C229.192 55.9517 229.13 56.3352 229.13 56.7528C229.13 57.1733 229.192 57.5582 229.317 57.9077C229.445 58.2571 229.64 58.5369 229.901 58.7472C230.165 58.9574 230.497 59.0625 230.898 59.0625ZM239.071 62.5909C238.552 62.5909 238.104 62.5227 237.729 62.3864C237.357 62.25 237.053 62.0696 236.817 61.8452C236.581 61.6207 236.405 61.375 236.289 61.108L237.384 60.6562C237.461 60.7812 237.563 60.9134 237.691 61.0526C237.821 61.1946 237.998 61.3153 238.219 61.4148C238.444 61.5142 238.732 61.5639 239.084 61.5639C239.567 61.5639 239.966 61.446 240.282 61.2102C240.597 60.9773 240.755 60.6051 240.755 60.0938V58.8068H240.674C240.597 58.946 240.486 59.1009 240.341 59.2713C240.199 59.4418 240.003 59.5895 239.753 59.7145C239.503 59.8395 239.178 59.902 238.777 59.902C238.26 59.902 237.794 59.7812 237.38 59.5398C236.968 59.2955 236.641 58.9361 236.4 58.4616C236.161 57.9844 236.042 57.3977 236.042 56.7017C236.042 56.0057 236.16 55.4091 236.395 54.9119C236.634 54.4148 236.961 54.0341 237.375 53.7699C237.79 53.5028 238.26 53.3693 238.786 53.3693C239.192 53.3693 239.52 53.4375 239.77 53.5739C240.02 53.7074 240.215 53.8636 240.354 54.0426C240.496 54.2216 240.606 54.3793 240.682 54.5156H240.776V53.4545H242.025V60.1449C242.025 60.7074 241.894 61.169 241.633 61.5298C241.371 61.8906 241.018 62.1577 240.571 62.331C240.128 62.5043 239.628 62.5909 239.071 62.5909ZM239.059 58.8452C239.425 58.8452 239.735 58.7599 239.988 58.5895C240.243 58.4162 240.437 58.169 240.567 57.848C240.701 57.5241 240.768 57.1364 240.768 56.6847C240.768 56.2443 240.702 55.8565 240.571 55.5213C240.441 55.1861 240.249 54.9247 239.996 54.7372C239.743 54.5469 239.431 54.4517 239.059 54.4517C238.675 54.4517 238.356 54.5511 238.1 54.75C237.844 54.946 237.651 55.2131 237.52 55.5511C237.393 55.8892 237.329 56.267 237.329 56.6847C237.329 57.1136 237.394 57.4901 237.525 57.8139C237.655 58.1378 237.848 58.3906 238.104 58.5724C238.363 58.7543 238.681 58.8452 239.059 58.8452ZM246.598 60.1449C246.183 60.1449 245.808 60.0682 245.473 59.9148C245.138 59.7585 244.872 59.5327 244.676 59.2372C244.483 58.9418 244.387 58.5795 244.387 58.1506C244.387 57.7812 244.458 57.4773 244.6 57.2386C244.742 57 244.933 56.8111 245.175 56.6719C245.416 56.5327 245.686 56.4276 245.985 56.3565C246.283 56.2855 246.587 56.2315 246.897 56.1946C247.289 56.1491 247.607 56.1122 247.851 56.0838C248.095 56.0526 248.273 56.0028 248.384 55.9347C248.495 55.8665 248.55 55.7557 248.55 55.6023V55.5724C248.55 55.2003 248.445 54.9119 248.235 54.7074C248.027 54.5028 247.718 54.4006 247.306 54.4006C246.877 54.4006 246.539 54.4957 246.291 54.6861C246.047 54.8736 245.878 55.0824 245.784 55.3125L244.587 55.0398C244.729 54.642 244.936 54.321 245.209 54.0767C245.485 53.8295 245.801 53.6506 246.159 53.5398C246.517 53.4261 246.894 53.3693 247.289 53.3693C247.55 53.3693 247.827 53.4006 248.12 53.4631C248.415 53.5227 248.691 53.6335 248.946 53.7955C249.205 53.9574 249.416 54.1889 249.581 54.4901C249.746 54.7884 249.828 55.1761 249.828 55.6534V60H248.584V59.1051H248.533C248.451 59.2699 248.327 59.4318 248.162 59.5909C247.997 59.75 247.786 59.8821 247.527 59.9872C247.269 60.0923 246.959 60.1449 246.598 60.1449ZM246.875 59.1222C247.227 59.1222 247.529 59.0526 247.779 58.9134C248.031 58.7741 248.223 58.5923 248.354 58.3679C248.487 58.1406 248.554 57.8977 248.554 57.6392V56.7955C248.509 56.8409 248.421 56.8835 248.29 56.9233C248.162 56.9602 248.016 56.9929 247.851 57.0213C247.686 57.0469 247.526 57.071 247.37 57.0938C247.213 57.1136 247.083 57.1307 246.977 57.1449C246.73 57.1761 246.504 57.2287 246.3 57.3026C246.098 57.3764 245.936 57.483 245.814 57.6222C245.695 57.7585 245.635 57.9403 245.635 58.1676C245.635 58.483 245.752 58.7216 245.985 58.8835C246.218 59.0426 246.514 59.1222 246.875 59.1222ZM253.76 56.1136V60H252.485V53.4545H253.708V54.5199H253.789C253.94 54.1733 254.176 53.8949 254.497 53.6847C254.821 53.4744 255.228 53.3693 255.72 53.3693C256.166 53.3693 256.556 53.4631 256.892 53.6506C257.227 53.8352 257.487 54.1108 257.672 54.4773C257.856 54.8437 257.949 55.2969 257.949 55.8366V60H256.674V55.9901C256.674 55.5156 256.551 55.1449 256.304 54.8778C256.056 54.608 255.717 54.473 255.285 54.473C254.99 54.473 254.727 54.5369 254.497 54.6648C254.27 54.7926 254.089 54.9801 253.956 55.2273C253.825 55.4716 253.76 55.767 253.76 56.1136ZM262.275 58.8068L262.211 59.2713C262.168 59.6122 262.096 59.9673 261.994 60.3366C261.894 60.7088 261.791 61.054 261.683 61.3722C261.578 61.6903 261.491 61.9432 261.423 62.1307H260.519C260.556 61.9545 260.607 61.7159 260.673 61.4148C260.738 61.1165 260.802 60.7827 260.864 60.4134C260.927 60.044 260.974 59.6676 261.005 59.2841L261.048 58.8068H262.275ZM273.934 55.0526L272.78 55.2571C272.731 55.1094 272.655 54.9687 272.549 54.8352C272.447 54.7017 272.308 54.5923 272.132 54.5071C271.956 54.4219 271.735 54.3793 271.471 54.3793C271.11 54.3793 270.809 54.4602 270.568 54.6222C270.326 54.7812 270.206 54.9872 270.206 55.2401C270.206 55.4588 270.287 55.6349 270.449 55.7685C270.61 55.902 270.872 56.0114 271.233 56.0966L272.272 56.3352C272.875 56.4744 273.324 56.6889 273.619 56.9787C273.914 57.2685 274.062 57.6449 274.062 58.108C274.062 58.5 273.949 58.8494 273.721 59.1562C273.497 59.4602 273.183 59.6989 272.78 59.8722C272.379 60.0455 271.914 60.1321 271.386 60.1321C270.653 60.1321 270.055 59.9759 269.592 59.6634C269.129 59.348 268.845 58.9006 268.74 58.321L269.971 58.1335C270.048 58.4545 270.206 58.6974 270.444 58.8622C270.683 59.0241 270.994 59.1051 271.378 59.1051C271.795 59.1051 272.129 59.0185 272.379 58.8452C272.629 58.669 272.754 58.4545 272.754 58.2017C272.754 57.9972 272.677 57.8253 272.524 57.6861C272.373 57.5469 272.142 57.4418 271.829 57.3707L270.721 57.1278C270.11 56.9886 269.659 56.767 269.366 56.4631C269.076 56.1591 268.931 55.7741 268.931 55.3082C268.931 54.9219 269.039 54.5838 269.255 54.294C269.471 54.0043 269.77 53.7784 270.15 53.6165C270.531 53.4517 270.967 53.3693 271.458 53.3693C272.166 53.3693 272.723 53.5227 273.129 53.8295C273.535 54.1335 273.804 54.5412 273.934 55.0526ZM277.697 56.1136V60H276.423V51.2727H277.68V54.5199H277.761C277.915 54.1676 278.149 53.8878 278.464 53.6804C278.78 53.473 279.192 53.3693 279.7 53.3693C280.149 53.3693 280.541 53.4616 280.876 53.6463C281.214 53.831 281.476 54.1065 281.66 54.473C281.848 54.8366 281.942 55.2912 281.942 55.8366V60H280.667V55.9901C280.667 55.5099 280.544 55.1378 280.297 54.8736C280.05 54.6065 279.706 54.473 279.265 54.473C278.964 54.473 278.694 54.5369 278.456 54.6648C278.22 54.7926 278.034 54.9801 277.898 55.2273C277.764 55.4716 277.697 55.767 277.697 56.1136ZM286.021 60L284.095 53.4545H285.412L286.694 58.2614H286.758L288.045 53.4545H289.362L290.64 58.2401H290.704L291.978 53.4545H293.295L291.373 60H290.073L288.744 55.2741H288.646L287.316 60H286.021ZM298.022 60.1321C297.408 60.1321 296.873 59.9915 296.416 59.7102C295.958 59.429 295.603 59.0355 295.35 58.5298C295.097 58.0241 294.971 57.4332 294.971 56.7571C294.971 56.0781 295.097 55.4844 295.35 54.9759C295.603 54.4673 295.958 54.0724 296.416 53.7912C296.873 53.5099 297.408 53.3693 298.022 53.3693C298.636 53.3693 299.171 53.5099 299.629 53.7912C300.086 54.0724 300.441 54.4673 300.694 54.9759C300.947 55.4844 301.073 56.0781 301.073 56.7571C301.073 57.4332 300.947 58.0241 300.694 58.5298C300.441 59.0355 300.086 59.429 299.629 59.7102C299.171 59.9915 298.636 60.1321 298.022 60.1321ZM298.026 59.0625C298.424 59.0625 298.754 58.9574 299.015 58.7472C299.276 58.5369 299.47 58.2571 299.595 57.9077C299.722 57.5582 299.786 57.1733 299.786 56.7528C299.786 56.3352 299.722 55.9517 299.595 55.6023C299.47 55.25 299.276 54.9673 299.015 54.7543C298.754 54.5412 298.424 54.4347 298.026 54.4347C297.626 54.4347 297.293 54.5412 297.029 54.7543C296.768 54.9673 296.573 55.25 296.445 55.6023C296.32 55.9517 296.258 56.3352 296.258 56.7528C296.258 57.1733 296.32 57.5582 296.445 57.9077C296.573 58.2571 296.768 58.5369 297.029 58.7472C297.293 58.9574 297.626 59.0625 298.026 59.0625ZM304.73 56.1136V60H303.455V53.4545H304.678V54.5199H304.759C304.91 54.1733 305.146 53.8949 305.467 53.6847C305.791 53.4744 306.198 53.3693 306.69 53.3693C307.136 53.3693 307.526 53.4631 307.862 53.6506C308.197 53.8352 308.457 54.1108 308.642 54.4773C308.826 54.8437 308.919 55.2969 308.919 55.8366V60H307.644V55.9901C307.644 55.5156 307.521 55.1449 307.274 54.8778C307.026 54.608 306.687 54.473 306.255 54.473C305.96 54.473 305.697 54.5369 305.467 54.6648C305.24 54.7926 305.059 54.9801 304.926 55.2273C304.795 55.4716 304.73 55.767 304.73 56.1136Z" fill="#F39200"/>
<path d="M96.5388 33.324C96.5388 33.996 96.3768 34.626 96.0528 35.214C95.7408 35.802 95.2428 36.276 94.5588 36.636C93.8868 36.996 93.0348 37.176 92.0028 37.176H89.8968V42H87.3768V29.436H92.0028C92.9748 29.436 93.8028 29.604 94.4868 29.94C95.1708 30.276 95.6808 30.738 96.0168 31.326C96.3648 31.914 96.5388 32.58 96.5388 33.324ZM91.8948 35.142C92.5908 35.142 93.1068 34.986 93.4428 34.674C93.7788 34.35 93.9468 33.9 93.9468 33.324C93.9468 32.1 93.2628 31.488 91.8948 31.488H89.8968V35.142H91.8948ZM107.598 36.798C107.598 37.158 107.574 37.482 107.526 37.77H100.236C100.296 38.49 100.548 39.054 100.992 39.462C101.436 39.87 101.982 40.074 102.63 40.074C103.566 40.074 104.232 39.672 104.628 38.868H107.346C107.058 39.828 106.506 40.62 105.69 41.244C104.874 41.856 103.872 42.162 102.684 42.162C101.724 42.162 100.86 41.952 100.092 41.532C99.3359 41.1 98.7419 40.494 98.3099 39.714C97.8899 38.934 97.6799 38.034 97.6799 37.014C97.6799 35.982 97.8899 35.076 98.3099 34.296C98.7299 33.516 99.3179 32.916 100.074 32.496C100.83 32.076 101.7 31.866 102.684 31.866C103.632 31.866 104.478 32.07 105.222 32.478C105.978 32.886 106.56 33.468 106.968 34.224C107.388 34.968 107.598 35.826 107.598 36.798ZM104.988 36.078C104.976 35.43 104.742 34.914 104.286 34.53C103.83 34.134 103.272 33.936 102.612 33.936C101.988 33.936 101.46 34.128 101.028 34.512C100.608 34.884 100.35 35.406 100.254 36.078H104.988ZM112.371 34.098V38.922C112.371 39.258 112.449 39.504 112.605 39.66C112.773 39.804 113.049 39.876 113.433 39.876H114.603V42H113.019C110.895 42 109.833 40.968 109.833 38.904V34.098H108.645V32.028H109.833V29.562H112.371V32.028H114.603V34.098H112.371ZM120.093 35.7C120.093 34.464 120.369 33.36 120.921 32.388C121.485 31.404 122.247 30.642 123.207 30.102C124.179 29.55 125.265 29.274 126.465 29.274C127.869 29.274 129.099 29.634 130.155 30.354C131.211 31.074 131.949 32.07 132.369 33.342H129.471C129.183 32.742 128.775 32.292 128.247 31.992C127.731 31.692 127.131 31.542 126.447 31.542C125.715 31.542 125.061 31.716 124.485 32.064C123.921 32.4 123.477 32.88 123.153 33.504C122.841 34.128 122.685 34.86 122.685 35.7C122.685 36.528 122.841 37.26 123.153 37.896C123.477 38.52 123.921 39.006 124.485 39.354C125.061 39.69 125.715 39.858 126.447 39.858C127.131 39.858 127.731 39.708 128.247 39.408C128.775 39.096 129.183 38.64 129.471 38.04H132.369C131.949 39.324 131.211 40.326 130.155 41.046C129.111 41.754 127.881 42.108 126.465 42.108C125.265 42.108 124.179 41.838 123.207 41.298C122.247 40.746 121.485 39.984 120.921 39.012C120.369 38.04 120.093 36.936 120.093 35.7ZM133.873 36.978C133.873 35.97 134.071 35.076 134.467 34.296C134.875 33.516 135.421 32.916 136.105 32.496C136.801 32.076 137.575 31.866 138.427 31.866C139.171 31.866 139.819 32.016 140.371 32.316C140.935 32.616 141.385 32.994 141.721 33.45V32.028H144.259V42H141.721V40.542C141.397 41.01 140.947 41.4 140.371 41.712C139.807 42.012 139.153 42.162 138.409 42.162C137.569 42.162 136.801 41.946 136.105 41.514C135.421 41.082 134.875 40.476 134.467 39.696C134.071 38.904 133.873 37.998 133.873 36.978ZM141.721 37.014C141.721 36.402 141.601 35.88 141.361 35.448C141.121 35.004 140.797 34.668 140.389 34.44C139.981 34.2 139.543 34.08 139.075 34.08C138.607 34.08 138.175 34.194 137.779 34.422C137.383 34.65 137.059 34.986 136.807 35.43C136.567 35.862 136.447 36.378 136.447 36.978C136.447 37.578 136.567 38.106 136.807 38.562C137.059 39.006 137.383 39.348 137.779 39.588C138.187 39.828 138.619 39.948 139.075 39.948C139.543 39.948 139.981 39.834 140.389 39.606C140.797 39.366 141.121 39.03 141.361 38.598C141.601 38.154 141.721 37.626 141.721 37.014ZM149.241 33.576C149.565 33.048 149.985 32.634 150.501 32.334C151.029 32.034 151.629 31.884 152.301 31.884V34.53H151.635C150.843 34.53 150.243 34.716 149.835 35.088C149.439 35.46 149.241 36.108 149.241 37.032V42H146.721V32.028H149.241V33.576ZM163.268 36.798C163.268 37.158 163.244 37.482 163.196 37.77H155.906C155.966 38.49 156.218 39.054 156.662 39.462C157.106 39.87 157.652 40.074 158.3 40.074C159.236 40.074 159.902 39.672 160.298 38.868H163.016C162.728 39.828 162.176 40.62 161.36 41.244C160.544 41.856 159.542 42.162 158.354 42.162C157.394 42.162 156.53 41.952 155.762 41.532C155.006 41.1 154.412 40.494 153.98 39.714C153.56 38.934 153.35 38.034 153.35 37.014C153.35 35.982 153.56 35.076 153.98 34.296C154.4 33.516 154.988 32.916 155.744 32.496C156.5 32.076 157.37 31.866 158.354 31.866C159.302 31.866 160.148 32.07 160.892 32.478C161.648 32.886 162.23 33.468 162.638 34.224C163.058 34.968 163.268 35.826 163.268 36.798ZM160.658 36.078C160.646 35.43 160.412 34.914 159.956 34.53C159.5 34.134 158.942 33.936 158.282 33.936C157.658 33.936 157.13 34.128 156.698 34.512C156.278 34.884 156.02 35.406 155.924 36.078H160.658Z" fill="#F39200"/>
</svg>
