<svg width="32" height="32" viewBox="0 0 32 32" fill="none" xmlns="http://www.w3.org/2000/svg">
<g clip-path="url(#clip0_807_6932)">
<path d="M11.9402 15.5421C11.4625 16.5924 11.4926 17.8023 11.1643 18.9102C10.6676 20.5741 9.37083 21.9326 8.91587 23.5923C8.64242 24.6909 8.70258 25.8461 9.08866 26.9104C9.47474 27.9746 10.1692 28.8997 11.0835 29.5675C12.015 30.2083 13.0971 30.596 14.2236 30.6929C15.3501 30.7897 16.4824 30.5922 17.5096 30.1198C18.941 29.4634 20.2082 28.5096 21.644 27.851C22.9476 27.258 24.3471 27.0568 25.5765 26.2371C26.7224 25.4813 27.5522 24.3324 27.9095 23.007C28.1221 22.2005 28.0819 21.3481 27.7944 20.5651C27.3356 19.2552 26.4646 17.4251 25.206 16.6939C24.0483 16.0224 22.7153 16.0258 21.4535 15.7082C20.1916 15.3906 18.997 14.5562 17.7666 13.9703C15.6397 12.973 13.015 13.1734 11.9402 15.5421Z" fill="#FFAD34"/>
<path d="M7.97943 20.1678C8.07619 19.7767 8.13898 19.3779 8.16709 18.976C8.27558 17.7796 7.79133 17.0042 6.83618 16.298C6.03503 15.7563 5.14689 15.3561 4.21041 15.1147C3.50138 14.889 2.75981 14.7824 2.01588 14.7993C1.77616 14.8043 1.54051 14.8623 1.32579 14.969C1.11107 15.0757 0.922567 15.2286 0.773757 15.4166C0.372075 15.9677 0.475785 16.7401 0.661157 17.4004C0.956653 18.4147 1.41653 19.3737 2.02248 20.2391C2.50753 20.9601 3.16159 21.5515 3.92763 21.9617C4.30491 22.1724 4.72531 22.2942 5.15679 22.3177C5.58826 22.3412 6.01941 22.2659 6.41736 22.0975C7.11802 21.7383 7.65412 21.1239 7.91512 20.381L7.97943 20.1678Z" fill="#FFAD34"/>
<path d="M3.47661 10.4393C2.73454 8.94606 2.42839 7.29114 3.49198 5.91672C4.73211 4.31175 7.07455 5.3117 8.27288 6.42985C9.4712 7.548 10.7098 9.27777 10.9124 11.0226C11.162 13.3043 9.32011 14.5163 7.24069 13.9019C5.58991 13.4096 4.25168 11.9325 3.47661 10.4393Z" fill="#FFAD34"/>
<path d="M22.6131 13.146C22.2318 13.0032 21.8635 12.8279 21.5123 12.622C20.4622 12.0453 20.0881 11.2151 20.0426 10.0184C20.038 9.05109 20.1996 8.09018 20.5202 7.17754C20.7225 6.47902 21.0353 5.81736 21.4467 5.21766C21.5831 5.02094 21.7612 4.85671 21.9683 4.73669C22.1754 4.61667 22.4065 4.5438 22.645 4.52327C23.3292 4.49633 23.9021 4.99705 24.3473 5.53926C25.0242 6.35142 25.565 7.26794 25.9487 8.25317C26.2938 9.05193 26.4382 9.92303 26.3693 10.7904C26.333 11.2209 26.1995 11.6376 25.9787 12.009C25.758 12.3804 25.4557 12.6967 25.0948 12.9342C24.4056 13.3166 23.5961 13.4202 22.8328 13.2235L22.6131 13.146Z" fill="#FFAD34"/>
<path d="M17.2586 3.47631C16.4416 2.02032 15.2038 0.866883 13.4723 0.996863C11.4482 1.15693 10.9956 3.66128 11.271 5.27653C11.5617 6.9666 12.3071 8.87554 13.655 10.0073C15.409 11.4809 17.4503 10.5928 18.0778 8.51779C18.5723 6.87142 18.0755 4.94328 17.2586 3.47631Z" fill="#FFAD34"/>
<rect x="8" y="8" width="24" height="24" rx="12" fill="#FFAC82" fill-opacity="0.7"/>
<mask id="path-7-outside-1_807_6932" maskUnits="userSpaceOnUse" x="7" y="8" width="15" height="17" fill="black">
<rect fill="white" x="7" y="8" width="15" height="17"/>
<path d="M14.402 23.24C13.4287 23.24 12.462 23.1133 11.502 22.86C10.542 22.5933 9.7287 22.22 9.06203 21.74L10.322 19.26C10.8554 19.6467 11.4754 19.9533 12.182 20.18C12.8887 20.4067 13.602 20.52 14.322 20.52C15.1354 20.52 15.7754 20.36 16.242 20.04C16.7087 19.72 16.942 19.28 16.942 18.72C16.942 18.1867 16.7354 17.7667 16.322 17.46C15.9087 17.1533 15.242 17 14.322 17H12.842V14.86L16.742 10.44L17.102 11.6H9.76203V9H19.562V11.1L15.682 15.52L14.042 14.58H14.982C16.702 14.58 18.002 14.9667 18.882 15.74C19.762 16.5133 20.202 17.5067 20.202 18.72C20.202 19.5067 19.9954 20.2467 19.582 20.94C19.1687 21.62 18.5354 22.1733 17.682 22.6C16.8287 23.0267 15.7354 23.24 14.402 23.24Z"/>
</mask>
<path d="M14.402 23.24C13.4287 23.24 12.462 23.1133 11.502 22.86C10.542 22.5933 9.7287 22.22 9.06203 21.74L10.322 19.26C10.8554 19.6467 11.4754 19.9533 12.182 20.18C12.8887 20.4067 13.602 20.52 14.322 20.52C15.1354 20.52 15.7754 20.36 16.242 20.04C16.7087 19.72 16.942 19.28 16.942 18.72C16.942 18.1867 16.7354 17.7667 16.322 17.46C15.9087 17.1533 15.242 17 14.322 17H12.842V14.86L16.742 10.44L17.102 11.6H9.76203V9H19.562V11.1L15.682 15.52L14.042 14.58H14.982C16.702 14.58 18.002 14.9667 18.882 15.74C19.762 16.5133 20.202 17.5067 20.202 18.72C20.202 19.5067 19.9954 20.2467 19.582 20.94C19.1687 21.62 18.5354 22.1733 17.682 22.6C16.8287 23.0267 15.7354 23.24 14.402 23.24Z" fill="#FFE9D5"/>
<path d="M11.502 22.86L11.2344 23.8236L11.2469 23.8269L11.502 22.86ZM9.06203 21.74L8.1705 21.287L7.78241 22.0509L8.47773 22.5515L9.06203 21.74ZM10.322 19.26L10.909 18.4504L9.96092 17.763L9.4305 18.807L10.322 19.26ZM12.182 20.18L11.8766 21.1322H11.8766L12.182 20.18ZM16.242 20.04L16.8076 20.8647L16.242 20.04ZM12.842 17H11.842V18H12.842V17ZM12.842 14.86L12.0922 14.1984L11.842 14.4819V14.86H12.842ZM16.742 10.44L17.6971 10.1436L17.1696 8.44396L15.9922 9.77838L16.742 10.44ZM17.102 11.6V12.6H18.4594L18.0571 11.3036L17.102 11.6ZM9.76203 11.6H8.76203V12.6H9.76203V11.6ZM9.76203 9V8H8.76203V9H9.76203ZM19.562 9H20.562V8H19.562V9ZM19.562 11.1L20.3136 11.7597L20.562 11.4766V11.1H19.562ZM15.682 15.52L15.1848 16.3876L15.8941 16.7942L16.4336 16.1797L15.682 15.52ZM14.042 14.58V13.58H10.2864L13.5448 15.4476L14.042 14.58ZM18.882 15.74L18.2219 16.4912L18.2219 16.4912L18.882 15.74ZM19.582 20.94L20.4366 21.4594L20.441 21.4521L19.582 20.94ZM17.682 22.6L17.2348 21.7056L17.682 22.6ZM14.402 22.24C13.5165 22.24 12.6356 22.1249 11.7572 21.8931L11.2469 23.8269C12.2885 24.1018 13.3409 24.24 14.402 24.24V22.24ZM11.7697 21.8965C10.8999 21.6549 10.1993 21.3266 9.64634 20.9285L8.47773 22.5515C9.2581 23.1134 10.1842 23.5318 11.2344 23.8235L11.7697 21.8965ZM9.95356 22.193L11.2136 19.713L9.4305 18.807L8.1705 21.287L9.95356 22.193ZM9.73506 20.0696C10.3642 20.5257 11.0817 20.8773 11.8766 21.1322L12.4875 19.2278C11.869 19.0294 11.3465 18.7676 10.909 18.4504L9.73506 20.0696ZM11.8766 21.1322C12.6789 21.3896 13.4952 21.52 14.322 21.52V19.52C13.7089 19.52 13.0985 19.4238 12.4875 19.2278L11.8766 21.1322ZM14.322 21.52C15.2528 21.52 16.1162 21.3388 16.8076 20.8647L15.6765 19.2153C15.4345 19.3812 15.0179 19.52 14.322 19.52V21.52ZM16.8076 20.8647C17.5428 20.3606 17.942 19.6138 17.942 18.72H15.942C15.942 18.9462 15.8746 19.0794 15.6765 19.2153L16.8076 20.8647ZM17.942 18.72C17.942 17.8836 17.5961 17.1601 16.9179 16.6569L15.7262 18.2631C15.8746 18.3732 15.942 18.4898 15.942 18.72H17.942ZM16.9179 16.6569C16.2421 16.1556 15.3077 16 14.322 16V18C15.1764 18 15.5753 18.1511 15.7262 18.2631L16.9179 16.6569ZM14.322 16H12.842V18H14.322V16ZM13.842 17V14.86H11.842V17H13.842ZM13.5919 15.5216L17.4919 11.1016L15.9922 9.77838L12.0922 14.1984L13.5919 15.5216ZM15.787 10.7364L16.147 11.8964L18.0571 11.3036L17.6971 10.1436L15.787 10.7364ZM17.102 10.6H9.76203V12.6H17.102V10.6ZM10.762 11.6V9H8.76203V11.6H10.762ZM9.76203 10H19.562V8H9.76203V10ZM18.562 9V11.1H20.562V9H18.562ZM18.8105 10.4403L14.9305 14.8603L16.4336 16.1797L20.3136 11.7597L18.8105 10.4403ZM16.1793 14.6524L14.5393 13.7124L13.5448 15.4476L15.1848 16.3876L16.1793 14.6524ZM14.042 15.58H14.982V13.58H14.042V15.58ZM14.982 15.58C16.5703 15.58 17.5935 15.9389 18.2219 16.4912L19.5421 14.9888C18.4105 13.9944 16.8337 13.58 14.982 13.58V15.58ZM18.2219 16.4912C18.8772 17.067 19.202 17.7826 19.202 18.72H21.202C21.202 17.2308 20.6468 15.9596 19.5421 14.9888L18.2219 16.4912ZM19.202 18.72C19.202 19.3215 19.0466 19.8852 18.7231 20.4279L20.441 21.4521C20.9441 20.6081 21.202 19.6918 21.202 18.72H19.202ZM18.7275 20.4206C18.4299 20.9102 17.9536 21.3462 17.2348 21.7056L18.1292 23.4944C19.1171 23.0005 19.9075 22.3298 20.4366 21.4594L18.7275 20.4206ZM17.2348 21.7056C16.5643 22.0408 15.6381 22.24 14.402 22.24V24.24C15.8326 24.24 17.0931 24.0125 18.1292 23.4944L17.2348 21.7056Z" fill="#F39200" mask="url(#path-7-outside-1_807_6932)"/>
</g>
<defs>
<clipPath id="clip0_807_6932">
<rect width="32" height="32" fill="white"/>
</clipPath>
</defs>
</svg>
