<svg width="325" height="90" viewBox="0 0 325 90" fill="none" xmlns="http://www.w3.org/2000/svg">
<rect x="1" y="1" width="323" height="88" rx="29" fill="#FFECD1" stroke="#FFAD34" stroke-width="2"/>
<path d="M77 44.9998C77 65.9866 61.33 82.9998 42 82.9998C22.67 82.9998 7 65.9866 7 44.9998C7 24.013 22.67 6.99983 42 6.99983C61.33 6.99983 77 24.013 77 44.9998Z" fill="#D9D9D9"/>
<path d="M17.9278 60.8206C17.3476 59.6483 17.033 58.3833 17.0025 57.0998C16.9719 55.8163 17.2261 54.5403 17.75 53.3466C18.3567 52.0026 19.4498 50.803 20.9124 50.1845C21.2959 50.0205 22.8889 49.5143 22.8751 50.131C22.8751 50.377 22.4383 50.6533 22.2821 50.8316C22.1517 50.9831 22.039 51.4269 21.9402 51.5107C23.3275 50.3472 25.1531 49.7024 27.0476 49.7068C27.6168 49.7068 28.2098 49.7817 28.6762 50.074C29.1427 50.3663 29.4412 50.9296 29.2356 51.4073C29.1882 51.516 29.121 51.6158 29.0854 51.7264C28.9945 52.0169 29.1763 52.1417 29.3166 52.3609C29.4404 52.536 29.5049 52.7398 29.5024 52.9474C29.4926 53.459 29.3576 53.9623 29.1071 54.4215C29.067 54.5004 29.0253 54.5785 28.9821 54.6559C28.1642 56.123 27.6015 58.4132 26.4843 59.6673C26.0541 60.1058 25.6579 60.5703 25.2983 61.0577C24.9643 61.5603 24.7508 62.1557 24.8694 62.7314C25.0671 63.7457 25.9763 64.0505 26.8598 64.4854C27.7433 64.9203 27.1207 65.5103 26.3558 65.505C25.0632 65.4912 23.7863 65.2468 22.599 64.7857C21.4117 64.3247 20.3373 63.6562 19.4379 62.8188C18.8163 62.232 18.3061 61.557 17.9278 60.8206Z" fill="#F0997A"/>
<path d="M28.4684 55.4456C28.5182 55.3783 28.4695 55.2843 28.3857 55.2843C28.3164 55.2843 28.2667 55.2174 28.2851 55.1505C28.3961 54.7446 28.4566 54.3027 28.2129 53.9546C27.8354 53.4198 26.9637 53.4198 26.2878 53.5981C25.995 53.6759 25.6934 53.7988 25.4401 53.9628C25.2973 54.0553 23.9727 54.4566 23.8092 54.5036C23.4119 54.6176 23.1273 54.9242 22.9079 55.2433C22.5069 55.838 22.2615 56.5074 22.1902 57.2004C22.1603 57.4919 22.1615 57.7844 22.1932 58.0738C22.2533 58.6227 21.7648 59.0881 21.3247 59.4214C20.9294 59.7334 20.9847 60.3127 21.1428 60.7619C21.3693 61.4193 21.7802 62.0777 22.3893 62.4598C22.4731 62.5124 22.6443 63.1307 22.6667 63.2271C22.7406 63.4485 22.9006 63.6384 23.1174 63.7618C24.0207 64.3732 25.0663 64.4908 26.1593 64.457C26.2985 64.4534 26.3489 64.2491 26.224 64.1874C25.5787 63.8685 25.021 63.5078 24.8646 62.7369C24.7461 62.1611 24.9595 61.5658 25.2936 61.0631C25.6531 60.5757 26.0493 60.1112 26.4795 59.6728C26.9729 59.1189 27.3895 58.3601 27.2974 57.6442C27.2425 57.2174 27.2827 56.7265 27.595 56.4304C27.9166 56.1255 28.2089 55.7961 28.4684 55.4456Z" fill="#FFBDA7"/>
<path d="M49.8134 50.796C50.1343 50.9559 50.4386 51.1414 50.7226 51.3504C51.195 51.7082 51.6154 52.1185 51.9738 52.5714C53.5333 54.4982 54.1302 57.1648 53.0134 59.327C52.3999 60.5091 51.3204 61.4318 50.0349 62.0275C49.3283 62.355 49.3482 63.0508 50.098 63.2609C50.7483 63.4392 51.2365 64.0773 51.361 64.6869C51.4206 64.9785 51.4051 65.2708 51.2802 65.4965C51.0132 65.979 50.4885 66.1617 49.9915 66.4007C49.4879 66.6429 48.4441 66.877 47.8857 66.8994C47.5993 66.911 47.21 66.8868 46.6786 66.8063C44.8424 66.5282 39.4603 64.5604 37.2703 63.4374C36.4023 63.0226 35.5894 62.5203 34.8471 61.9401C33.505 60.892 32.6176 59.3662 32.2124 57.7887C31.7024 55.7941 31.8803 53.7104 32.1847 51.6819C32.6769 48.4164 33.5406 44.5894 37.6538 43.7053C38.1239 43.5889 38.6168 43.5688 39.0966 43.6465C39.8576 43.7962 40.4802 44.306 40.9072 44.8942C41.8816 46.2507 41.9211 47.9743 41.8164 49.5875C41.7314 50.9101 42.8185 50.2595 43.7514 50.1222C44.7101 49.9703 45.6856 49.923 46.6569 49.9814C47.7612 50.0482 48.8371 50.3259 49.8134 50.796Z" fill="#F0997A"/>
<path opacity="0.2" d="M49.8134 50.796C50.1343 50.9559 50.4386 51.1414 50.7226 51.3504C51.195 51.7082 51.6154 52.1185 51.9738 52.5714C53.5333 54.4982 54.1302 57.1648 53.0134 59.327C52.3999 60.5091 51.3204 61.4318 50.0349 62.0275C49.3283 62.355 49.3482 63.0508 50.098 63.2609C50.7483 63.4392 51.2365 64.0773 51.361 64.6869C51.4206 64.9785 51.4051 65.2708 51.2802 65.4965C51.0132 65.979 50.4885 66.1617 49.9915 66.4007C49.4879 66.6429 48.4441 66.877 47.8857 66.8994C47.5993 66.911 47.21 66.8868 46.6786 66.8063C44.8424 66.5282 39.4603 64.5604 37.2703 63.4374C36.4023 63.0226 35.5894 62.5203 34.8471 61.9401C33.505 60.892 32.6176 59.3662 32.2124 57.7887C31.7024 55.7941 31.8803 53.7104 32.1847 51.6819C32.6769 48.4164 33.5406 44.5894 37.6538 43.7053C38.1239 43.5889 38.6168 43.5688 39.0966 43.6465C39.8576 43.7962 40.4802 44.306 40.9072 44.8942C41.8816 46.2507 41.9211 47.9743 41.8164 49.5875C41.7314 50.9101 42.8185 50.2595 43.7514 50.1222C44.7101 49.9703 45.6856 49.923 46.6569 49.9814C47.7612 50.0482 48.8371 50.3259 49.8134 50.796Z" fill="black"/>
<path opacity="0.2" d="M50.1462 63.9933C50.361 64.1153 50.0085 64.1709 49.7786 64.0806C49.6726 64.039 49.6829 63.84 49.7938 63.8656C49.9292 63.8968 50.0497 63.9384 50.1462 63.9933Z" fill="black"/>
<path opacity="0.2" d="M48.4294 64.5531C48.647 64.6766 48.2946 64.7319 48.0618 64.6404C47.9558 64.5988 47.9661 64.3998 48.077 64.4254C48.2125 64.4566 48.3329 64.4983 48.4294 64.5531Z" fill="black"/>
<path d="M44.7978 60.7404C44.4282 60.7761 44.0072 60.6121 43.8945 60.2966C44.2147 61.0221 43.6969 61.8866 42.9438 62.2573C42.1908 62.6281 41.2598 62.6245 40.404 62.4962C37.3502 62.0381 34.5692 60.031 33.6838 57.3537C33.2133 55.9277 33.2746 54.3948 33.6027 52.9385C34.0978 50.7696 35.1483 48.7351 36.6703 46.9975C37.8404 45.6588 39.3564 44.4735 41.1946 44.0777C43.0328 43.682 45.2149 44.2685 46.1359 45.7586C46.4331 46.2794 46.622 46.8449 46.6933 47.427C47.0313 49.5428 46.5747 51.6854 46.8613 53.8048C47.0432 55.1541 47.4147 56.5355 47.1262 57.8938C46.891 58.9865 46.2782 60.5978 44.7978 60.7404Z" fill="#F5F5F5"/>
<path d="M36.559 54.794C37.4109 54.425 38.3992 54.3929 39.3262 54.5195C39.5495 54.5499 39.7768 54.5923 39.9958 54.6532C40.5129 54.797 41.801 54.739 42.2613 55.015C42.5827 55.2077 43.2064 55.1476 43.4413 54.8557C43.5521 54.718 43.69 54.6029 43.8643 54.523C44.4553 54.2521 45.2815 54.6211 45.6926 55.0435C45.8525 55.2204 45.9905 55.4118 46.1046 55.6141C46.228 55.833 46.7619 56.0549 47.003 56.1255C47.1257 56.159 47.2095 56.2746 47.2175 56.4015C47.2487 56.8974 47.2165 57.3951 47.1216 57.8848C46.8864 58.9864 46.2678 60.5977 44.7933 60.7368C44.4237 60.7724 44.0027 60.6084 43.89 60.2929C44.2102 61.0184 43.6923 61.8829 42.9393 62.2537C42.1862 62.6244 41.2553 62.6209 40.3994 62.4925C38.6558 62.2271 37.1394 61.1397 36.1744 59.6634C35.9048 59.2509 35.661 58.8243 35.4443 58.3857C35.1814 57.8688 34.9383 57.3162 34.9719 56.7511C35.0213 55.9116 35.7071 55.1612 36.559 54.794Z" fill="#E0E0E0"/>
<path d="M53.9625 38.413C54.0218 38.5075 54.0811 38.6038 54.1384 38.7C55.0852 40.2829 55.6959 42.1598 55.0595 43.9316C54.3934 45.7854 52.5315 47.3273 50.7783 48.3754C49.8236 48.9458 47.0229 50.3361 46.1651 48.9226C45.9358 48.5394 45.9496 48.0813 45.9358 47.6463C45.918 47.092 45.833 46.5091 45.4634 46.0653C45.0938 45.6214 44.3605 45.3826 43.8407 45.6785C43.4217 45.9138 43.2714 46.3915 43.224 46.8389C43.1864 47.1775 43.2517 47.7212 43.0698 48.0278C42.888 48.3344 42.2911 48.3611 41.9452 48.4395C41.0913 48.632 40.2829 49.19 40.0932 49.9671C39.9588 50.5197 40.6723 51.705 39.9449 52.033C39.7963 52.0914 39.6366 52.1235 39.4745 52.1275C38.5139 52.1917 37.498 52.0081 36.6243 52.377C36.5761 52.3915 36.5317 52.4148 36.4939 52.4454C36.4207 52.505 36.3842 52.6093 36.4263 52.6938C36.4278 52.6967 36.4293 52.6997 36.4309 52.7026C36.456 52.7481 36.4959 52.7857 36.5453 52.8102C36.646 52.8569 36.7551 52.8871 36.8675 52.8993C37.0962 52.9437 37.3175 53.015 37.5257 53.1114C38.3341 53.4875 37.1205 53.6212 36.9129 53.6996C36.6498 53.8174 36.4096 53.9727 36.2014 54.1595C35.9331 54.3476 35.7163 54.5888 35.5679 54.8645C35.3563 55.2578 35.7934 55.581 36.2327 55.5008C38.7341 55.044 41.0421 56.6465 42.4255 58.4731C43.2861 59.5906 43.6981 60.9394 43.5936 62.2966C43.5221 63.3701 43.1105 64.4026 42.4077 65.2715C41.906 65.9259 40.8677 66.6436 39.8312 67.1004C39.5716 67.2148 39.5809 67.9262 39.8619 67.9649C41.8503 68.2697 42.4749 68.0807 43.4691 68.3588C44.1194 68.5371 44.6076 69.1752 44.7321 69.7848C44.7903 70.0695 44.7768 70.3551 44.6598 70.5785C44.4018 71.0712 43.8562 71.2717 43.3516 71.5055C42.8523 71.7369 41.822 71.9718 41.2723 71.9967C40.9844 72.0097 40.5907 71.9861 40.0497 71.9042C38.2135 71.6261 32.8314 69.6582 30.6414 68.5353C29.7746 68.1192 28.9629 67.6157 28.2221 67.0344C26.88 65.9863 25.9906 64.4605 25.5874 62.883C25.0774 60.8884 25.2553 58.8047 25.5597 56.7762C26.8346 48.313 31.1434 45.0956 33.0705 43.3381C34.5767 41.9655 37.1501 40.4522 39.5555 39.0957C41.2475 38.1421 42.5381 37.242 43.7972 35.8053C44.3427 35.1814 44.7855 34.4898 45.3448 33.8731C45.839 33.3241 46.4833 32.6788 47.3214 32.6734C48.2148 32.6645 49.0568 33.2296 49.6932 33.7287C51.4074 35.0544 52.8522 36.6396 53.9625 38.413Z" fill="#F0997A"/>
<path d="M28.2227 67.0345C24.7836 64.4053 24.8626 59.9046 25.5485 56.2237C25.9932 53.5037 26.8925 50.7996 28.4006 48.4004C29.6024 46.4682 31.2706 44.8354 33.0712 43.3381C31.3635 44.8675 29.6953 46.5627 28.5548 48.4788C27.102 50.8816 26.2245 53.5607 25.7659 56.2576C25.0781 59.9188 24.9279 64.3251 28.2227 67.0345Z" fill="#B16668"/>
<path opacity="0.2" d="M43.5212 69.0968C43.7385 69.2206 43.3864 69.2756 43.1536 69.1841C43.0478 69.1426 43.0581 68.9434 43.1688 68.9689C43.3043 69.0002 43.4248 69.0419 43.5212 69.0968Z" fill="black"/>
<path opacity="0.2" d="M41.8103 69.6634C42.024 69.7852 41.6842 69.8472 41.4571 69.7527C41.4497 69.7496 41.4423 69.7466 41.4347 69.7437C41.3361 69.7049 41.3464 69.5103 41.4497 69.5337C41.5886 69.5651 41.712 69.6074 41.8103 69.6634Z" fill="black"/>
<path d="M61.8261 48.7139C61.5395 53.245 59.8693 56.6085 59.3416 59.0113C58.9325 60.874 58.6755 61.4141 58.6597 62.2697C58.6065 63.2248 58.7734 64.1795 59.1499 65.0735C59.4987 65.9104 60.0702 66.6572 60.8141 67.2482C62.1642 68.2212 62.942 68.3901 63.0147 69.0915C63.0244 69.1857 63.0124 69.2811 62.9837 69.3713C62.9486 69.4817 62.8854 69.629 62.7714 69.7498C62.5145 70.022 61.9609 70.3517 61.5941 70.4266C61.215 70.5041 60.9644 70.7124 60.5922 70.8184C60.1826 70.9352 59.4695 70.9296 58.2505 70.4513C57.2623 70.0698 56.8136 69.6278 56.3867 68.0057C56.189 67.2321 55.9637 66.0735 55.4261 64.4657C55.1061 63.5079 54.9869 62.8818 54.9436 62.5848C54.9265 62.4672 54.974 62.3754 54.8552 62.3812C54.6284 62.3925 54.2321 62.5047 54.2281 62.2777C54.2226 61.9721 54.2822 61.6406 54.3825 61.398C54.5564 60.9774 54.8035 59.7385 54.6355 58.5086C54.4243 57.0305 54.1247 55.5638 53.7381 54.1148C53.7638 54.2021 52.2972 54.261 52.1964 54.2681C51.5114 54.2859 50.8353 54.4139 50.2001 54.646C49.3265 54.9936 48.6367 55.621 47.9291 56.1985C47.6478 56.4422 47.3383 56.6579 47.006 56.842C46.5567 57.05 46.0759 57.1972 45.579 57.2787C45.156 57.3696 44.8319 57.457 44.4326 57.2074C44.2376 57.0741 44.072 56.9091 43.9444 56.7208C43.0273 55.4731 42.7585 53.9223 42.7585 52.4268C42.749 51.4112 42.8417 50.397 43.0352 49.3966C43.1103 49.0115 43.1992 48.6283 43.304 48.2504C43.4087 47.8725 43.5886 47.5 43.6617 47.1221C43.7665 46.5874 43.7922 46.0241 43.897 45.4804C44.1325 44.305 44.452 43.1446 44.8536 42.0064C45.6126 39.8353 46.6068 37.6803 47.9904 35.7677C48.7316 34.7427 50.0183 33.0226 51.5956 33.0939C54.2481 33.249 59.0392 33.716 59.6183 37.8692C60.0769 41.2043 62.172 43.2719 61.8261 48.7139Z" fill="#F0997A"/>
<path d="M48.9039 49.4269C48.7625 49.3841 48.6111 49.3755 48.4648 49.4017C48.2485 49.4406 47.9848 49.376 47.8611 49.1944C47.8256 49.1422 47.7877 49.0914 47.7476 49.0419C47.5798 48.8147 47.3497 48.6305 47.0796 48.5071C46.9626 48.4626 46.8369 48.4397 46.7099 48.4397C46.583 48.4397 46.4573 48.4626 46.3403 48.5071C46.0992 48.5945 45.8067 48.8013 45.8047 49.0597C45.8047 49.1025 45.8857 49.1791 45.9272 49.1275C46.0487 48.9486 46.2321 48.8108 46.449 48.7353C46.5472 48.7064 46.6512 48.6973 46.7537 48.7087C46.8561 48.7201 46.9546 48.7517 47.042 48.8013C47.4526 49.0662 47.7444 49.4551 47.8642 49.8975C47.8998 50.0133 48.0955 49.9866 48.1429 49.8975C48.2189 49.7806 48.3375 49.6913 48.4785 49.6448C48.6196 49.5983 48.7742 49.5975 48.9158 49.6426C49.0638 49.6946 49.1966 49.7766 49.3039 49.8823C49.4112 49.988 49.4901 50.1146 49.5344 50.2522C49.5463 50.2807 49.5838 50.2718 49.5799 50.2415C49.5592 50.0634 49.4854 49.8936 49.3664 49.7502C49.2474 49.6068 49.0876 49.4951 48.9039 49.4269Z" fill="#B16668"/>
<path d="M60.8136 67.25C60.0697 66.659 59.4982 65.9123 59.1494 65.0754C58.7727 64.1808 58.6058 63.2254 58.6592 62.2697C58.675 61.4141 58.9319 60.874 59.3411 59.0113C59.5204 58.1801 59.8429 57.2343 60.195 56.1648C60.2446 56.0141 60.1118 55.8601 59.955 55.836C59.8161 55.8148 59.6671 55.899 59.6121 56.0283C59.4025 56.5212 58.8282 56.8998 58.2639 56.7725C57.5998 56.6228 57.4298 55.7547 57.9536 55.3876C56.1885 56.3733 56.4929 54.7619 56.5838 53.7494C56.6589 52.9242 56.7044 51.6711 56.1134 50.9652C55.4493 50.172 54.5539 50.4215 53.8483 51.0935C53.072 51.8306 52.8918 52.8319 52.8906 53.8249C52.8903 54.0703 53.141 54.2457 53.3817 54.198C53.5951 54.1557 53.782 54.2894 53.8359 54.5002C54.175 55.8266 54.4417 57.1674 54.635 58.5176C54.803 59.7475 54.5559 60.9863 54.382 61.407C54.2822 61.6482 54.226 61.9756 54.2316 62.2792C54.2358 62.503 54.6345 62.3993 54.8581 62.3901C54.9735 62.3853 54.9258 62.4735 54.9423 62.5878C54.9847 62.8822 55.1034 63.5104 55.4256 64.4747C55.9632 66.0789 56.1826 67.2411 56.3862 68.0147C56.8131 69.6367 57.2697 70.0788 58.25 70.4603C59.4684 70.9356 60.1818 70.9406 60.5916 70.8243C60.9632 70.7189 61.2127 70.5127 61.5913 70.4361C61.9593 70.3615 62.5149 70.031 62.7728 69.758C62.8928 69.631 62.9567 69.4748 62.99 69.3631C63.0136 69.2841 63.0228 69.2008 63.016 69.1187C62.9556 68.3946 62.176 68.2285 60.8136 67.25Z" fill="#F0F0F0"/>
<path opacity="0.2" d="M61.1486 69.4123C61.0998 69.3822 61.0166 69.3451 60.9149 69.3049C60.7991 69.2592 60.7498 69.3823 60.864 69.4319C60.8699 69.4345 60.8757 69.437 60.8814 69.4397C61.0456 69.5156 61.3032 69.5064 61.1486 69.4123ZM62.2397 68.9292C62.1902 68.8988 62.1051 68.8612 62.001 68.8208C61.8809 68.7742 61.8292 68.9043 61.9472 68.956C62.1183 69.0309 62.3976 69.029 62.2397 68.9292Z" fill="black"/>
<path d="M55.3496 40.7518C55.1454 41.2166 54.88 41.6577 54.559 42.0655C53.966 42.8016 53.1853 43.3845 52.5093 44.0547C51.8334 44.7249 51.2503 45.5431 51.2266 46.4486C51.2266 46.0097 51.8572 46.5997 51.6513 46.9873C51.6274 47.0323 51.6055 47.0785 51.5863 47.1259C51.4075 47.5673 51.9757 47.8067 52.3816 47.5577C52.4165 47.5363 52.4519 47.5153 52.4876 47.4949C52.3156 47.5929 52.2287 48.2079 52.1891 48.3861C52.1177 48.7048 52.0806 49.0289 52.0785 49.354C52.0785 49.8888 52.0903 50.411 52.0785 50.9458C52.0563 51.5946 52.009 52.2383 51.9058 52.8743C51.7829 53.6323 52.4159 54.3932 53.1715 54.2559C54.2902 54.0598 55.2409 53.6035 56.0434 53.2327C57.5969 52.5197 58.4646 51.903 59.4489 50.6053C62.1904 46.9869 60.6349 41.9335 57.2906 39.1012C57.1322 38.9484 56.9404 38.827 56.7273 38.7447C56.62 38.7058 56.5028 38.6944 56.3888 38.7117C56.1663 38.7455 55.9831 38.9199 55.9131 39.1337C55.8998 39.1743 55.8898 39.2158 55.8833 39.258C55.7441 39.7665 55.5658 40.2656 55.3496 40.7518Z" fill="#FAFAFA"/>
<path d="M63.4168 41.2437C63.6738 41.8515 63.486 42.5805 63.2725 43.224C62.8982 44.4427 62.3773 45.6208 61.719 46.7373C61.0567 47.8568 60.103 48.8146 58.94 49.5287C58.7146 49.6588 58.4221 49.7782 58.1928 49.6552C58.1092 49.5942 58.041 49.5178 57.9926 49.4311C57.8976 49.2611 57.8934 49.0566 57.8552 48.8656C57.7454 48.3172 57.6204 47.7683 57.3192 47.2827C56.9516 46.6802 56.3507 46.2293 55.7775 45.7747C54.4947 44.7587 53.3306 43.6465 52.1012 42.5877C50.8748 41.5278 49.783 40.3483 48.8458 39.0708C47.4998 37.25 49.2787 35.9163 51.4664 36.5C51.5428 36.5204 51.6193 36.5402 51.696 36.5593C53.1478 36.9206 54.6223 37.2033 56.1115 37.406C57.5097 37.6004 58.9195 37.7194 60.3334 37.7625C61.0489 37.7821 62.3594 37.6359 62.8535 38.242C63.3476 38.848 62.7567 39.2348 62.5926 39.7624C62.4523 40.2152 62.9879 40.5806 63.2666 40.9763C63.3269 41.0604 63.3773 41.15 63.4168 41.2437Z" fill="#BA68C8"/>
<path opacity="0.3" d="M63.4168 41.2437C63.6738 41.8515 63.486 42.5805 63.2725 43.224C62.8982 44.4427 62.3773 45.6208 61.719 46.7373C61.0567 47.8568 60.103 48.8146 58.94 49.5287C58.7146 49.6588 58.4221 49.7782 58.1928 49.6552C58.1092 49.5942 58.041 49.5178 57.9926 49.4311C57.8976 49.2611 57.8934 49.0566 57.8552 48.8656C57.7454 48.3172 57.6204 47.7683 57.3192 47.2827C56.9516 46.6802 56.3507 46.2293 55.7775 45.7747C54.4947 44.7587 53.3306 43.6465 52.1012 42.5877C50.8748 41.5278 49.783 40.3483 48.8458 39.0708C47.4998 37.25 49.2787 35.9163 51.4664 36.5C51.5428 36.5204 51.6193 36.5402 51.696 36.5593C53.1478 36.9206 54.6223 37.2033 56.1115 37.406C57.5097 37.6004 58.9195 37.7194 60.3334 37.7625C61.0489 37.7821 62.3594 37.6359 62.8535 38.242C63.3476 38.848 62.7567 39.2348 62.5926 39.7624C62.4523 40.2152 62.9879 40.5806 63.2666 40.9763C63.3269 41.0604 63.3773 41.15 63.4168 41.2437Z" fill="white"/>
<path opacity="0.3" d="M59.991 42.2933C59.645 42.4945 59.2443 42.6061 58.8327 42.616C58.3691 42.6053 57.91 42.5314 57.4709 42.3967C56.7277 42.2006 55.9977 41.976 55.2809 41.7229C55.097 41.6409 54.8928 41.6029 54.6879 41.6124C54.588 41.6187 54.4944 41.6591 54.4261 41.7253C54.2957 41.8517 54.3325 42.0688 54.4597 42.1985C54.5149 42.2548 54.5763 42.3082 54.6247 42.3664C54.7471 42.5222 54.892 42.6624 55.0556 42.7835C55.4786 43.1067 55.9002 43.4306 56.3206 43.755L57.8326 44.9172C58.0915 45.115 58.3584 45.3057 58.6074 45.5125C58.8565 45.7193 59.0027 45.8583 59.3348 45.7995C59.6375 45.7279 59.9077 45.5727 60.1076 45.3556C60.6906 44.7669 61.1524 44.089 61.4714 43.3539C61.6544 43.0156 61.7968 42.6606 61.8964 42.2951C61.9774 41.9154 62.1869 41.5821 62.2146 41.1793C62.2363 40.8869 62.0169 40.6142 61.6948 40.8834C61.1591 41.3486 60.6373 41.9351 59.991 42.2933Z" fill="#BA68C8"/>
<path opacity="0.3" d="M58.1737 41.8478C58.5038 41.8585 58.8655 41.8817 59.1619 41.7373C59.3201 41.6607 59.7154 41.4414 59.4308 41.2863C59.2529 41.1901 58.9682 41.24 58.7706 41.2293C58.5196 41.215 58.2686 41.1865 58.0215 41.1509C57.5254 41.0796 57.0332 40.9726 56.5411 40.8906C56.4363 40.8708 56.3053 40.8678 56.2156 40.908C56.1263 40.9481 56.1018 41.0674 56.1472 41.1542C56.1704 41.1985 56.206 41.2367 56.2505 41.265C56.7624 41.6874 57.4858 41.8247 58.1737 41.8478Z" fill="#BA68C8"/>
<path d="M58.2566 22.5346C58.059 22.3867 57.7269 22.335 57.6637 22.1068C57.6538 22.0519 57.6538 21.9959 57.6637 21.941C57.692 21.6113 57.7822 21.2882 57.9305 20.9856C58.0697 20.7014 58.2462 20.4333 58.4563 20.1871C58.9019 19.6865 59.422 19.2439 60.0019 18.8716C60.6225 18.4492 61.3163 18.0534 62.0931 18.0071C62.1793 17.9943 62.2676 17.9988 62.3517 18.0204C62.4357 18.042 62.5135 18.08 62.5793 18.1319C62.7196 18.2709 62.6841 18.4884 62.6406 18.6666C62.4983 19.2638 62.3164 19.8324 62.1425 20.4242C61.9152 21.196 62.0358 21.982 61.933 22.7699C61.9208 22.9708 61.8528 23.1657 61.7353 23.3367C61.5957 23.4957 61.4074 23.614 61.1938 23.6772C60.6708 23.8498 60.094 23.8325 59.5849 23.6291C59.5082 23.6054 59.4329 23.5781 59.3595 23.5471C59.1301 23.4563 58.9216 23.3275 58.7448 23.1674C58.5393 22.982 58.4879 22.704 58.2566 22.5346Z" fill="#F0997A"/>
<path d="M58.954 22.2441C59.0588 22.4883 59.3375 22.6291 59.5984 22.7432C60.0648 22.9464 60.5439 23.1249 61.0333 23.2779C61.0626 23.2894 61.0943 23.2949 61.1262 23.294C61.1563 23.2889 61.1841 23.2758 61.2059 23.2564C61.2277 23.2371 61.2426 23.2123 61.2488 23.1852C61.2607 23.1311 61.2607 23.0754 61.2488 23.0213C61.0983 21.9337 61.2575 20.8295 61.7113 19.8128C61.8333 19.5708 61.9377 19.322 62.0236 19.0677C62.1027 18.795 61.9505 18.5579 61.6283 18.6666C61.2718 18.8051 60.9508 19.0084 60.6855 19.2638C60.1196 19.7568 59.6332 20.319 59.2406 20.934C58.9916 21.3315 58.7623 21.7949 58.954 22.2441Z" fill="#FFBDA7"/>
<path d="M60.0473 21.6861C60.1014 21.3032 60.2355 20.933 60.4426 20.5952C60.4979 20.5007 60.5552 20.408 60.6165 20.3153C60.6988 20.2093 60.7734 20.0986 60.8398 19.9838C60.8537 19.9571 60.83 19.8911 60.7865 19.9143C60.5392 20.0865 60.3368 20.3055 60.1935 20.556C60.0228 20.8156 59.8981 21.0976 59.8239 21.392C59.7542 21.6757 59.7395 21.9682 59.7804 22.2565C59.8219 22.5417 59.901 22.8839 60.1619 23.0693C60.1935 23.0924 60.2884 23.1156 60.2884 23.0497C60.2884 22.9818 60.2756 22.9151 60.2564 22.849C60.1778 22.5788 60.3598 22.3396 60.5513 22.1335C60.6232 22.0537 60.6763 21.9615 60.7074 21.8625C60.7207 21.8252 60.7313 21.7871 60.739 21.7485C60.7469 21.7081 60.7485 21.6671 60.744 21.6266C60.7386 21.5778 60.7118 21.4945 60.6738 21.5256C60.6628 21.5368 60.6522 21.5483 60.642 21.56C60.5265 21.6927 60.4743 21.8718 60.3516 21.998L60.3398 22.0087L60.318 22.0265C60.3012 22.041 60.2831 22.0542 60.264 22.0661C60.2606 22.0682 60.2566 22.0693 60.2526 22.0693C60.2488 22.0693 60.2452 22.0703 60.2419 22.0721L60.2212 22.0836L60.2042 22.0923C60.1972 22.0959 60.1894 22.0978 60.1815 22.0978C60.1764 22.0978 60.1713 22.0986 60.1664 22.1002L60.1461 22.1067C60.1277 22.1126 60.0864 22.1156 60.1057 22.1156C60.1065 22.1156 60.1075 22.1156 60.1085 22.1156H60.0809C60.0684 22.1156 60.0579 22.1064 60.0565 22.0941C60.041 21.9585 60.0379 21.8221 60.0473 21.6861Z" fill="#F0997A"/>
<path d="M66.1599 31.6875C66.1321 31.5736 66.2245 31.4743 66.3413 31.4633C66.4741 31.4507 66.5685 31.3266 66.5275 31.1997C66.3462 30.6382 65.9154 30.1554 65.5287 29.6753C65.1715 29.2358 64.8416 28.7788 64.5404 28.3063C64.2898 27.87 64.0987 27.408 63.9712 26.9303C63.9397 26.845 63.9194 26.7561 63.9045 26.6665C63.851 26.3429 63.7443 26.0281 63.5877 25.7324C63.1549 25.0194 62.5382 24.1086 61.4729 23.3902C60.4075 22.6719 59.7098 21.9643 56.9051 22.1639C54.5787 22.3261 52.2919 22.597 50.1196 24.4989C49.3526 25.1388 48.7146 25.8939 48.234 26.7306C48.0364 27.0996 47.7616 27.4436 47.6272 27.8411C47.4928 28.2386 47.4454 28.6753 47.2122 29.0461C46.7734 29.7412 45.7436 30.0656 45.4787 30.8286C45.467 30.8533 45.4609 30.88 45.4609 30.907C45.4609 30.9609 45.4927 31.0138 45.5436 31.0317C45.5911 31.0484 45.6508 31.0483 45.7041 31.046L46.0413 31.0266C46.2385 31.0152 46.3643 31.2839 46.2773 31.4613C46.2367 31.5488 46.2226 31.6444 46.2365 31.7384C46.2504 31.8323 46.2918 31.9213 46.3563 31.9961C46.5322 32.1743 46.8287 32.1654 47.0876 32.1494C46.8327 32.1654 47.0876 34.1101 47.1311 34.3151C47.2698 34.8464 47.5245 35.3476 47.8802 35.7892C48.1644 36.1845 48.5129 36.539 48.914 36.8409C49.9242 37.483 51.0051 38.0296 52.1397 38.4718C53.6914 39.0996 55.6168 39.2771 57.1957 39.2608C58.9295 39.2429 59.0932 36.8914 60.7593 36.4113C61.2179 36.2794 61.6843 36.3721 62.1429 36.2883C62.541 36.1966 62.912 36.0275 63.23 35.7928C63.3122 35.7346 63.4907 35.5235 63.6629 35.333C63.8905 35.0815 64.2168 34.9844 64.5123 34.8179C64.8208 34.644 65.1964 34.3081 65.3666 33.6698C65.3749 33.6384 65.3832 33.6072 65.3916 33.5762C65.4412 33.3942 65.5562 33.2168 65.7441 33.201C66.1395 33.1769 66.4852 33.0311 66.4399 32.6376C66.4112 32.3885 66.3463 32.1428 66.2462 31.907C66.2073 31.8371 66.1784 31.7633 66.1599 31.6875Z" fill="#F0997A"/>
<path d="M66.2354 31.9194C66.1935 31.8449 66.1629 31.7659 66.1443 31.6846C66.1182 31.5707 66.2108 31.4726 66.3271 31.4616C66.4607 31.449 66.5556 31.3242 66.5143 31.1966C66.3328 30.6357 65.9023 30.1532 65.5159 29.6735C65.2017 29.2891 64.7141 29.1276 64.222 29.1931C63.7899 29.2505 63.3091 29.2174 62.733 28.8714C62.1657 28.5292 61.9186 27.7645 61.7744 27.1941C61.6736 26.7984 61.6617 26.3902 61.5431 25.9962C61.4127 25.5578 61.0035 24.9517 60.3947 25.1371C60.1635 25.2084 59.9994 25.3991 59.8018 25.5132C59.4381 25.711 58.9776 25.6594 58.5605 25.5898C58.1435 25.5203 57.6908 25.4472 57.3094 25.6166C57.1485 25.6897 57.0128 25.801 56.917 25.9386C56.8212 26.0762 56.7689 26.2348 56.7658 26.3973C56.7868 26.7098 56.9264 27.0062 57.1611 27.2369C57.3785 27.4775 57.6375 27.6878 57.8351 27.9498C58.2621 28.4935 58.4083 29.3919 57.8509 29.9106C57.5694 30.1693 57.1892 30.3216 56.7876 30.3366C56.5876 30.3436 56.3894 30.3005 56.215 30.2121C56.0405 30.1236 55.8966 29.9934 55.7993 29.8357C55.6688 29.62 55.6155 29.3473 55.3882 29.2136C55.0225 28.9997 54.5659 29.3063 54.2576 29.5862C52.9249 30.7921 51.4388 31.8517 49.8302 32.7429C49.4665 32.9444 49.0554 33.1993 49.0395 33.5825C49.0277 33.8624 49.2372 34.1048 49.4566 34.2955C49.8338 34.6365 50.263 34.925 50.7299 35.1529C50.9186 35.245 50.9025 35.6763 50.7255 35.7892C49.6143 36.629 51.6844 37.1101 52.8819 37.2324C53.1999 37.2648 53.6466 37.6208 53.8998 37.8159C54.3841 38.1902 55.0186 38.5521 55.3901 39.0226C55.4757 39.1292 55.5954 39.208 55.7317 39.2176C57.7778 39.3622 59.6321 39.123 60.0884 38.9353C60.9442 38.6537 61.5589 38.3186 61.7368 37.7731C61.9483 37.1314 59.9737 36.6395 60.7624 36.4113C61.2209 36.2794 61.6874 36.3721 62.1459 36.2883C62.5441 36.1966 62.9151 36.0275 63.233 35.7928C63.3152 35.7346 63.4937 35.5235 63.666 35.333C63.8936 35.0815 64.2198 34.9844 64.5154 34.8179C64.8239 34.644 65.1994 34.3081 65.3697 33.6698C65.3779 33.6384 65.3863 33.6072 65.3947 33.5762C65.4442 33.3942 65.5593 33.2168 65.7472 33.201C66.1412 33.177 66.4841 33.0291 66.4339 32.6375C66.4025 32.3924 66.336 32.151 66.2354 31.9194Z" fill="#FAFAFA"/>
<path d="M66.3386 31.4672C66.4729 31.4524 66.5674 31.3263 66.5258 31.1978C66.3441 30.6371 65.9138 30.1548 65.5275 29.6751C65.2132 29.2907 64.7257 29.1293 64.2335 29.1947C63.8014 29.2522 63.3207 29.2191 62.7445 28.873C62.647 28.8122 62.5059 28.9024 62.5634 29.0019C62.6417 29.1377 62.7389 29.2645 62.8532 29.3792C63.2209 29.766 63.6438 30.1101 63.9957 30.5076C64.5723 31.1643 64.9409 31.9489 65.0635 32.7779C65.0732 32.8439 65.0318 32.9062 64.9678 32.9248C64.8609 32.9559 64.8312 33.101 64.8938 33.1931C64.9092 33.2158 64.9234 33.2392 64.9364 33.2633C64.9908 33.3641 65.0218 33.4739 65.0274 33.5859C65.0251 33.6232 65.016 33.6601 65.0013 33.6954C64.9105 33.9131 64.6674 34.3286 64.5096 34.5039C64.4443 34.5752 64.3455 34.618 64.2842 34.6928C64.2565 34.7322 64.239 34.7766 64.2328 34.8229C64.2226 34.8997 64.3075 34.9398 64.3781 34.9078C64.7029 34.7606 65.172 34.427 65.3674 33.6911C65.3756 33.6596 65.384 33.6284 65.3924 33.5974C65.4419 33.4155 65.557 33.238 65.7449 33.2223C66.1403 33.1981 66.4859 33.0524 66.4406 32.6589C66.4119 32.4097 66.3471 32.164 66.2469 31.9282C66.2051 31.8537 66.1745 31.7748 66.1559 31.6937C66.1296 31.5792 66.2219 31.4801 66.3386 31.4672Z" fill="#E0E0E0"/>
<path d="M59.4785 33.4489C59.4894 33.4688 59.4934 33.4913 59.4901 33.5133C59.4868 33.5353 59.4763 33.556 59.46 33.5727C59.4437 33.5893 59.4222 33.6012 59.3984 33.6069C59.3745 33.6125 59.3494 33.6117 59.3261 33.6044C59.3028 33.5972 59.2824 33.5838 59.2675 33.5661C59.2526 33.5484 59.2439 33.5271 59.2424 33.5049C59.241 33.4827 59.2468 33.4606 59.2593 33.4414C59.2718 33.4223 59.2903 33.4069 59.3125 33.3972C59.3421 33.3843 59.3762 33.3824 59.4073 33.3921C59.4385 33.4018 59.4641 33.4222 59.4785 33.4489Z" fill="#37474F"/>
<path d="M60.5757 33.274C60.5827 33.2871 60.5868 33.3013 60.5878 33.3158C60.5887 33.3304 60.5864 33.3449 60.5811 33.3587C60.5758 33.3724 60.5675 33.3851 60.5567 33.3959C60.5459 33.4068 60.5329 33.4156 60.5183 33.4219C60.5035 33.4302 60.4868 33.4356 60.4695 33.4378C60.4521 33.4399 60.4345 33.4387 60.4177 33.4343C60.4009 33.4299 60.3853 33.4223 60.372 33.412C60.3586 33.4018 60.3478 33.3892 60.3403 33.3749C60.3327 33.3607 60.3286 33.3452 60.3282 33.3294C60.3277 33.3136 60.331 33.2979 60.3377 33.2833C60.3444 33.2688 60.3545 33.2556 60.3672 33.2448C60.38 33.234 60.3951 33.2257 60.4116 33.2205C60.4262 33.2142 60.4421 33.2106 60.4583 33.2099C60.4746 33.2091 60.4908 33.2113 60.506 33.2163C60.5213 33.2213 60.5353 33.2289 60.5473 33.2388C60.5592 33.2487 60.5689 33.2607 60.5757 33.274Z" fill="#37474F"/>
<path d="M60.3124 34.1422C60.3225 34.1683 60.3216 34.1968 60.3098 34.2224C60.298 34.2479 60.2762 34.2686 60.2485 34.2805C60.2209 34.2924 60.1893 34.2947 60.1599 34.287C60.1304 34.2792 60.1052 34.2619 60.089 34.2384C60.0798 34.225 60.0738 34.21 60.0715 34.1944C60.0691 34.1787 60.0704 34.1628 60.0753 34.1477C60.0802 34.1325 60.0886 34.1185 60.1 34.1064C60.1113 34.0944 60.1253 34.0847 60.1411 34.0779C60.1569 34.0711 60.1741 34.0673 60.1916 34.0669C60.2091 34.0665 60.2265 34.0695 60.2427 34.0755C60.2589 34.0816 60.2734 34.0907 60.2854 34.1022C60.2974 34.1136 60.3066 34.1273 60.3124 34.1422Z" fill="#37474F"/>
<path d="M62.3388 34.4292C62.453 34.339 62.5799 34.2629 62.7163 34.2028C62.837 34.1398 62.952 34.0682 63.0602 33.9889C63.0907 33.9666 63.1279 33.9529 63.167 33.9497C63.2202 33.9524 63.2706 33.972 63.3093 34.005C63.5538 34.1804 63.7673 34.3884 63.9424 34.6218C63.9486 34.63 63.9569 34.6369 63.9611 34.6463C63.9651 34.6553 63.9613 34.6658 63.9541 34.6725C63.9515 34.6748 63.9487 34.6769 63.9457 34.6787C63.7032 34.8358 63.4227 34.9384 63.1274 34.978C62.8321 35.0177 62.5306 34.9933 62.2479 34.9069C62.1332 34.8695 61.9237 34.8035 62.0285 34.6823C62.1213 34.5879 62.2254 34.503 62.3388 34.4292Z" fill="black"/>
<path d="M61.3687 30.8107C61.2089 30.9515 61.0872 31.1235 61.0129 31.3134C60.9597 31.4504 60.9375 31.5956 60.9477 31.7404C60.9579 31.8852 61.0002 32.0267 61.0722 32.1565C61.2541 32.4756 61.5841 32.6039 61.9478 32.6913C61.9587 32.6948 61.9706 32.6948 61.9814 32.6913C61.9932 32.6862 62.0024 32.6773 62.0071 32.6663C62.0307 32.6239 62.0437 32.5774 62.0455 32.53C62.0459 32.5178 62.0456 32.5055 62.0445 32.4934C62.0383 32.4233 61.9925 32.3641 61.9613 32.3011C61.9262 32.2301 61.9084 32.1404 61.9616 32.0818C61.9622 32.0812 61.9627 32.0806 61.9632 32.0801C61.9919 32.0492 62.0321 32.0289 62.0763 32.0228C62.3385 31.9966 62.3664 32.2256 62.3638 32.4128C62.3625 32.5091 62.3316 32.6143 62.3807 32.6972C62.4325 32.7846 62.5421 32.8157 62.631 32.8649C62.7845 32.9497 62.9394 33.0356 63.1001 33.1226C63.1522 33.1552 63.2116 33.1772 63.2741 33.1868C63.3292 33.1887 63.384 33.179 63.4342 33.1583C63.622 33.1044 63.7909 33.0071 63.924 32.8761C64.0572 32.745 64.15 32.5848 64.1932 32.4114C64.2208 32.2759 64.205 32.1351 64.2327 31.9997C64.2349 31.9801 64.2414 31.9612 64.2519 31.9441C64.2625 31.9269 64.2768 31.9119 64.294 31.8998C64.379 31.8553 64.5035 31.9301 64.5391 31.9979C64.6284 32.1679 64.7089 32.0955 64.7499 31.9079C64.7614 31.8554 64.7683 31.8021 64.7703 31.7483C64.8494 31.2136 64.6241 30.5612 63.9955 30.3954C63.7582 30.3401 63.5125 30.3202 63.2682 30.3366C62.928 30.3475 62.5894 30.3845 62.2562 30.4471C62.0462 30.4781 61.8429 30.5383 61.6533 30.6254C61.5492 30.6747 61.4533 30.7371 61.3687 30.8107Z" fill="#263238"/>
<path d="M64.0295 34.3995C64.0044 34.3784 63.977 34.3603 63.9488 34.3436C63.9083 34.3196 63.8683 34.2949 63.8288 34.2697C63.6401 34.1489 63.4583 33.9931 63.4047 33.7755C63.3943 33.7332 63.3875 33.6901 63.3845 33.6465C63.3673 33.5082 63.3681 33.3698 63.3607 33.2315C63.3585 33.191 63.3644 33.1476 63.346 33.1115C63.327 33.074 63.2799 33.0541 63.2413 33.0707C63.2402 33.0712 63.2391 33.0717 63.238 33.0722C63.2178 33.0818 63.2024 33.0978 63.1948 33.1171C63.181 33.1569 63.1769 33.1988 63.1829 33.2401C63.192 33.4196 63.144 33.5977 63.0445 33.7535C62.9381 33.8814 62.7954 33.9812 62.6314 34.0422C61.9001 34.4112 61.4001 35.0173 60.5245 35.1581C60.093 35.213 59.6531 35.1587 59.2539 35.0013C58.8546 34.844 58.5117 34.5897 58.2633 34.2668C58.0874 34.0422 57.9431 33.7998 57.7751 33.5717C57.7593 33.5485 57.7296 33.5218 57.702 33.5342C57.6743 33.5467 57.6802 33.5681 57.6802 33.5895C57.6941 33.9014 57.9273 34.1902 58.1012 34.4469C58.3275 34.8167 58.6718 35.1166 59.0895 35.3078C59.6686 35.552 60.3466 35.7035 60.9455 35.5003C61.3087 35.3464 61.6423 35.1412 61.9337 34.8925C62.1432 34.7392 62.3626 34.5948 62.586 34.4593C62.7887 34.3689 62.9797 34.2583 63.1552 34.1296C63.1857 34.1011 63.2363 34.1031 63.2617 34.1363C63.3587 34.2633 63.4814 34.3729 63.6237 34.4593C63.7497 34.5391 63.8566 34.6409 63.9379 34.7588C63.9512 34.7808 63.9635 34.8032 63.9749 34.826C64.0223 34.9214 64.1231 34.991 64.2234 34.955C64.3214 34.9198 64.3577 34.8055 64.3033 34.7167C64.2311 34.5989 64.1388 34.4918 64.0295 34.3995Z" fill="#263238"/>
<path d="M55.4913 25.3704C54.9972 25.6128 54.4616 25.9996 54.258 26.4862C54.1987 26.6306 54.0979 26.8891 54.2995 26.9782C54.5011 27.0673 54.8312 26.8499 54.9952 26.7393C55.3427 26.5351 55.7016 26.3471 56.0705 26.1761C56.2356 26.1009 56.3847 26.0001 56.5112 25.8784C57.0152 25.333 56.1159 25.0959 55.6613 25.292C55.604 25.3241 55.5467 25.3419 55.4913 25.3704Z" fill="#FAFAFA"/>
<path d="M62.3234 24.4775C62.8689 24.5987 63.4975 24.8483 63.8315 25.2725C63.9303 25.3973 64.1023 25.629 63.9323 25.7573C63.7623 25.8857 63.3828 25.7573 63.1931 25.6878C62.7991 25.5705 62.3987 25.4717 61.9933 25.3919C61.8126 25.3594 61.6395 25.2991 61.4814 25.2137C60.839 24.8037 61.6395 24.367 62.1356 24.449L62.3234 24.4775Z" fill="#FAFAFA"/>
<path d="M57.465 28.6201C57.2837 28.412 57.0316 28.2636 56.7475 28.1976C56.4564 28.1421 56.1539 28.1606 55.8739 28.2511C55.6748 28.3093 55.4967 28.4146 55.358 28.5559C55.2453 28.67 55.0753 28.9017 55.105 29.0657C55.1564 29.3455 55.7236 28.9676 55.8521 28.9106C56.0713 28.8157 56.3107 28.7646 56.5538 28.7609C56.7995 28.7776 57.0429 28.8146 57.2811 28.8714C57.5124 28.9088 57.5994 28.793 57.465 28.6201Z" fill="#263238"/>
<path d="M63.9854 28.023C63.8269 27.8414 63.6068 27.7118 63.3588 27.654C63.104 27.605 62.8391 27.6211 62.5939 27.7003C62.4196 27.751 62.2633 27.8427 62.1413 27.9659C61.8915 28.1955 62.0635 28.5439 62.3653 28.3888C62.4572 28.3415 62.5372 28.2939 62.5741 28.2779C62.7661 28.1944 62.9758 28.1495 63.1888 28.1459C63.404 28.1602 63.6171 28.193 63.8253 28.244C64.0269 28.2761 64.104 28.1762 63.9854 28.023Z" fill="#263238"/>
<path d="M54.5196 35.6625C54.5453 36.019 54.9802 36.2097 55.3656 36.2543C55.7302 36.2953 56.0984 36.263 56.4444 36.1618C56.6536 36.1006 56.9009 36.2447 57.0465 36.4068C57.1513 36.5233 57.2933 36.608 57.4532 36.6493C57.6132 36.6906 57.7834 36.6865 57.9407 36.6375C58.1542 36.571 58.4879 36.5897 58.6987 36.6641C58.8154 36.7053 58.9441 36.7267 59.0676 36.732C59.71 36.757 60.3623 36.4343 60.9987 36.3612C61.6351 36.2882 62.2657 36.3773 62.8013 36.0636C62.8739 36.0199 62.9679 36.0615 62.9944 36.142C63.0022 36.1659 63.009 36.1854 63.0128 36.1937C63.0885 36.4174 63.1349 36.6483 63.1512 36.8817C63.173 37.0645 63.0869 37.2545 62.931 37.3525C62.8502 37.4032 62.7568 37.435 62.659 37.445C62.4617 37.4604 62.2633 37.4604 62.066 37.445C62.0559 37.4443 62.0458 37.4441 62.0357 37.4444C61.944 37.4466 61.8564 37.5011 61.8141 37.5826C61.7876 37.6337 61.776 37.69 61.751 37.7419C61.6898 37.8689 61.6028 37.9848 61.4943 38.0835C61.3635 38.2023 61.2048 38.2932 61.0298 38.3493C60.8549 38.4055 60.6682 38.4254 60.4835 38.4077C60.2989 38.39 60.121 38.3351 59.963 38.2471C59.9597 38.2447 59.9564 38.2423 59.953 38.2399C59.7796 38.1169 59.5287 38.1168 59.3681 38.256C59.1028 38.4388 58.7977 38.569 58.4727 38.6381C58.1478 38.7072 57.8103 38.7137 57.4824 38.6571C57.156 38.5955 56.8521 38.4604 56.5991 38.2643C56.3462 38.0683 56.1523 37.8177 56.0356 37.5359C56.0139 37.4771 55.9862 37.4093 55.921 37.3915C55.8711 37.3839 55.8199 37.3927 55.7767 37.4165C55.5458 37.5239 55.2894 37.579 55.0296 37.5769C54.8998 37.5736 54.7737 37.537 54.6662 37.4713C54.5587 37.4056 54.4743 37.3136 54.4228 37.2061C54.402 37.1509 54.3932 37.0941 54.3913 37.0364C54.3824 36.7668 54.1868 36.5797 53.9377 36.4761C53.7862 36.4131 53.6574 36.3128 53.5662 36.1868C53.475 36.0608 53.425 35.9142 53.422 35.7638C53.419 35.6134 53.4631 35.4652 53.5491 35.3363C53.6502 35.184 53.8129 35.0634 54.0023 34.9759C54.4658 34.7615 54.4857 35.153 54.5196 35.6625Z" fill="#E0E0E0"/>
<path d="M52.793 22.5488C52.4471 21.2066 50.7848 19.9981 49.4961 19.3903C49.222 19.2465 48.9202 19.1509 48.6067 19.1086C48.4864 19.0901 48.3627 19.1037 48.2509 19.1479C48.1317 19.2141 48.0362 19.3101 47.9761 19.4241C47.6858 19.9544 47.503 20.5273 47.4366 21.1157C47.2525 22.2547 47.1679 23.405 47.1836 24.5559C47.1622 24.9601 47.2294 25.3641 47.3812 25.7448C47.4813 25.9472 47.6259 26.1291 47.8062 26.2796C48.0295 26.4703 48.3062 26.6076 48.5157 26.8143C48.676 27.0126 48.8877 27.1723 49.1324 27.2796C49.8341 27.5505 50.6168 27.3206 51.2592 27.0211C52.0676 26.6432 53.3345 25.7555 53.3424 24.8251C53.3424 24.5256 53.0025 24.3848 52.8819 24.1335C52.6981 23.7502 52.8345 23.3278 52.8345 22.9303C52.836 22.8022 52.8221 22.6743 52.793 22.5488Z" fill="#F0997A"/>
<path d="M48.5923 25.3865C48.8473 25.8696 49.3454 26.1441 49.2209 26.7395C49.1537 27.0603 48.9758 27.3544 48.8888 27.6699C48.8019 27.9854 48.7663 28.4186 48.9185 28.7055C48.9309 28.7361 48.9509 28.7637 48.9769 28.7863C49.0029 28.8088 49.0343 28.8257 49.0687 28.8357C49.209 28.8606 49.2881 28.6948 49.3237 28.5683C49.4416 28.1543 49.6888 27.7813 50.0338 27.4924C50.1185 27.4215 50.2461 27.4619 50.3254 27.5387C50.3783 27.5899 50.442 27.6309 50.5129 27.6593C50.5837 27.6878 50.6602 27.7031 50.7377 27.7043C50.8153 27.7055 50.8923 27.6926 50.9642 27.6663C51.1059 27.6047 51.2282 27.5121 51.32 27.3969C51.4119 27.2817 51.4703 27.1476 51.4899 27.0068C51.5449 26.572 51.8533 26.1402 52.2764 26.2544C52.3405 26.2717 52.4039 26.2914 52.4663 26.3134C52.4818 26.3202 52.498 26.3251 52.5147 26.3281C52.5594 26.3361 52.608 26.3235 52.6378 26.2891C52.6525 26.2722 52.6628 26.2525 52.668 26.2314C52.7143 26.0987 52.7289 25.9585 52.7109 25.8203C52.6928 25.682 52.6425 25.5488 52.5632 25.4293C52.5507 25.4109 52.5378 25.3927 52.5245 25.3748C52.3866 25.1882 52.4864 24.8199 52.7183 24.8123C52.8576 24.8078 52.9639 24.6784 52.889 24.5608C52.8857 24.5557 52.8823 24.5506 52.8789 24.5455C52.874 24.5382 52.8689 24.531 52.8636 24.5238C52.7588 24.3813 52.5835 24.3138 52.4299 24.2261C52.272 24.136 52.1199 24.0111 52.0919 23.8315C52.068 23.6777 52.0969 23.5061 52.1007 23.3474C52.1185 22.711 51.6105 22.0765 51.1579 21.6273C50.7168 21.1849 50.2282 20.7831 49.6992 20.4277C49.4363 20.2494 48.9481 19.9678 48.6437 20.1746C48.3038 20.4045 48.369 21.0123 48.3235 21.3546C48.1825 22.1739 48.1349 23.0041 48.1812 23.8322C48.2171 24.3679 48.3562 24.8939 48.5923 25.3865Z" fill="#FFBDA7"/>
<path d="M50.8265 23.007C50.761 22.6159 50.6003 22.2428 50.3561 21.9143C50.2494 21.7727 50.1217 21.645 49.9766 21.5346C49.823 21.4018 49.6469 21.2922 49.455 21.2098C49.4276 21.198 49.3813 21.2063 49.4034 21.2262C49.5626 21.3606 49.7106 21.5054 49.8462 21.6594C49.9625 21.8056 50.0701 21.9573 50.1684 22.1139C50.3591 22.4317 50.4831 22.7786 50.534 23.1371C50.5775 23.4241 50.5933 23.7502 50.37 23.9784C50.3407 24.0119 50.306 24.0414 50.2672 24.0657C50.2223 24.0974 50.1739 24.1249 50.1229 24.1477C50.0167 24.1969 49.9015 24.2283 49.7829 24.2404C49.7303 24.244 49.6774 24.244 49.6248 24.2404C49.5353 24.222 49.4438 24.2131 49.3521 24.2137C49.2902 24.2137 49.3504 24.3114 49.4016 24.3461C49.4671 24.3905 49.5445 24.4194 49.6268 24.4294C49.718 24.449 49.8117 24.458 49.9055 24.4561C50.0962 24.4616 50.2843 24.415 50.4451 24.3224C50.473 24.3069 50.5073 24.3296 50.4996 24.3607C50.4262 24.6582 50.2726 24.9354 50.0517 25.1673C49.9687 25.2547 50.1525 25.3456 50.2356 25.3099C50.6309 25.1103 50.7831 24.6237 50.8483 24.2404C50.9149 23.8309 50.9076 23.4144 50.8265 23.007Z" fill="#F0997A"/>
<path d="M33.7634 47.6178C33.7133 47.3841 33.7282 47.1428 33.8069 46.9155C34.0599 46.1187 34.6865 45.4664 35.3368 44.8835C35.5991 44.6469 35.8911 44.4077 36.24 44.3135C36.323 44.2911 36.3964 44.365 36.3516 44.4384C36.2914 44.5371 36.189 44.6014 36.1047 44.6806C35.7122 45.0493 35.3486 45.4423 35.0166 45.8567C34.7043 46.2471 34.3268 46.6856 34.3129 47.1847C34.3092 47.2239 34.3101 47.263 34.3155 47.3015C34.3416 47.4878 34.4917 47.6413 34.6727 47.6927C34.9206 47.7758 35.1876 47.8016 35.4494 47.7675C35.5621 47.7515 35.7064 47.739 35.7558 47.8317C35.8052 47.9244 35.7261 48.01 35.6669 48.0741C35.5792 48.1636 35.5229 48.2746 35.5053 48.393C35.5013 48.4199 35.4994 48.4469 35.4994 48.4738C35.4997 48.6579 35.6186 48.8304 35.7882 48.9023C35.8755 48.9394 35.9717 48.9561 36.0681 48.9511C36.2607 48.9389 36.4484 48.891 36.6195 48.8103C36.6529 48.7893 36.6916 48.7763 36.7321 48.7726C36.8122 48.7652 36.9078 48.8114 36.8998 48.8915C36.8882 49.0072 36.7469 49.1654 36.6788 49.2203C36.4485 49.3673 36.17 49.4401 35.8882 49.427C35.733 49.4237 35.5807 49.3879 35.4434 49.3223C35.3062 49.2567 35.1878 49.1632 35.0976 49.0492C35.0115 48.9325 34.9674 48.7948 34.9713 48.6548C34.9758 48.4953 34.8553 48.2754 34.6971 48.2551C34.5539 48.2367 34.4131 48.2036 34.2773 48.1561C34.1499 48.1105 34.0366 48.0376 33.9471 47.9439C33.8576 47.8502 33.7946 47.7383 33.7634 47.6178Z" fill="#B16668"/>
<path d="M44.6309 37.5967C44.6215 37.5749 44.6094 37.5547 44.5975 37.5341C44.5523 37.4559 44.5269 37.3695 44.5234 37.281C44.5373 37.1028 44.6994 36.9673 44.7606 36.798C44.7694 36.7564 44.789 36.7173 44.8179 36.6839C44.8792 36.6287 44.9523 36.6839 44.982 36.7338C45.1796 37.0903 45.0887 37.486 44.9523 37.8479C44.9385 37.8871 44.9168 37.9317 44.8713 37.9441C44.8258 37.9566 44.7725 37.9192 44.7428 37.8817C44.6997 37.8144 44.6688 37.7415 44.6512 37.6655C44.6458 37.6423 44.6403 37.6186 44.6309 37.5967Z" fill="#E0E0E0"/>
<path d="M43.4232 57.4662C43.2427 57.3067 43.093 57.1212 42.9804 56.9172C41.7392 54.7354 40.8893 52.2952 40.9367 49.8193C40.9881 47.265 41.5178 44.8408 40.4505 42.3632C40.1145 41.5789 39.6401 40.8177 39.5808 39.9782C39.5551 39.6057 39.6144 39.2296 39.5808 38.857C39.5195 38.2331 39.1855 37.6574 38.9878 37.0585C38.8152 36.6106 38.7891 36.1273 38.9127 35.6664C38.9696 35.4788 39.0675 35.3034 39.2005 35.1503C39.4241 34.8932 39.5397 34.5177 39.5579 34.1775C39.5753 33.8511 39.7297 33.5424 39.9759 33.3234C40.3307 33.0079 40.7361 32.6416 41.081 32.3153C41.2663 32.1428 41.5094 32.03 41.7728 31.9944C42.3657 31.8911 43.0259 32.3224 43.1998 32.8251C43.2339 32.9521 43.3235 33.0606 43.4402 33.1214C43.4533 33.1282 43.4668 33.1346 43.4805 33.1406C44.3027 33.5933 45.0242 34.5095 44.7751 35.4061C44.7 35.6806 44.5419 35.9409 44.4885 36.2118C44.366 36.8571 44.8107 37.472 44.8997 38.1208C44.9787 38.6859 44.785 39.2492 44.6506 39.8053C43.8462 43.1617 45.212 46.6287 46.9375 49.6892C47.6451 50.9369 48.8923 52.5216 48.6155 54.0117C48.3388 55.5019 47.3308 56.9475 45.7693 57.6141C45.4074 57.7838 45.0071 57.8765 44.5992 57.8851C44.1615 57.8898 43.7392 57.7394 43.4232 57.4662Z" fill="#F0997A"/>
<path d="M48.6155 54.0222C48.8923 52.532 47.6451 50.9545 46.9375 49.6997C45.212 46.6392 43.8462 43.1722 44.6506 39.8158C44.785 39.2597 44.9787 38.6964 44.8997 38.1313C44.8107 37.4825 44.366 36.8676 44.4885 36.2223C44.5419 35.9442 44.7 35.6876 44.7751 35.4166C45.0242 34.5254 44.3027 33.6038 43.4805 33.1493C43.467 33.1437 43.4537 33.1376 43.4407 33.131C43.3232 33.0718 43.2339 32.9627 43.1998 32.8356C43.0259 32.3329 42.3717 31.9016 41.7728 32.0049C41.5094 32.0405 41.2663 32.1533 41.081 32.3258C40.7352 32.6509 40.3302 33.0186 39.9759 33.3344C39.7303 33.5532 39.5764 33.8616 39.5588 34.1877C39.5404 34.5281 39.4242 34.9035 39.2005 35.1608C39.0675 35.3139 38.9696 35.4893 38.9127 35.6769C38.7891 36.1378 38.8152 36.6211 38.9878 37.069C39.1855 37.6679 39.5136 38.2436 39.5808 38.8675C39.6184 39.2401 39.5591 39.6162 39.5808 39.9887C39.6345 40.7572 40.035 41.4602 40.3621 42.1743C40.3815 42.2166 40.4072 42.2556 40.4386 42.2899C41.332 43.199 42.4013 44.1579 42.4152 45.3736C42.4152 45.6927 42.3381 46.0099 42.3697 46.3272C42.4369 46.9903 42.9627 47.5357 43.2532 48.1454C43.2952 48.2335 43.3306 48.3272 43.3585 48.4239C43.5903 49.2291 43.44 50.618 43.5023 51.4536C43.5023 52.0187 43.2038 52.6105 42.6385 52.8547C42.4075 52.9476 42.1502 52.9733 41.9022 52.9282C41.6914 52.8899 41.3844 53.1074 41.4444 53.3131C41.81 54.5657 42.3303 55.7782 42.9963 56.9277C43.1088 57.1317 43.2585 57.3172 43.439 57.4767C43.751 57.7551 44.1722 57.9113 44.6111 57.9116C45.019 57.9031 45.4192 57.8104 45.7812 57.6407C47.3308 56.9633 48.3369 55.5355 48.6155 54.0222Z" fill="#F0F0F0"/>
<path d="M48.6118 54.0193C48.6159 54.021 48.6184 54.0253 48.6176 54.0297C48.4109 55.3092 47.6652 56.4678 46.5356 57.2645C45.7114 57.8331 44.4523 58.2859 43.5332 57.621C43.2478 57.4146 43.0197 57.1509 42.8671 56.851C42.2086 55.7177 41.6916 54.5221 41.3254 53.286C40.957 52.0447 40.7945 50.761 40.8432 49.4768C40.8807 48.1988 41.027 46.9296 41.0052 45.6641C41.0123 44.3977 40.7304 43.1436 40.1771 41.9797C39.9043 41.3968 39.596 40.8015 39.511 40.1473C39.426 39.4931 39.6059 38.8817 39.3706 38.2596C39.1829 37.6589 38.8449 37.0743 38.7777 36.4165C38.7241 36.0895 38.7795 35.7554 38.9368 35.4568C39.0895 35.1669 39.3316 34.923 39.6338 34.7542C39.6435 34.7488 39.6546 34.7583 39.651 34.7688C39.6474 34.779 39.6334 34.7799 39.6288 34.77C39.5034 34.5022 39.4787 34.2043 39.559 33.9222C39.6419 33.6308 39.8319 33.3734 40.098 33.192C40.2713 33.0773 40.4749 33.0058 40.6885 32.9846C40.6922 32.9843 40.694 32.9889 40.6911 32.9913C40.6884 32.9935 40.6844 32.991 40.6851 32.9876C40.7366 32.7416 40.8624 32.5132 41.0487 32.3275C41.2396 32.1418 41.4959 32.0215 41.7741 31.9871C41.4983 32.0279 41.2467 32.1539 41.0626 32.3436C41.0288 32.379 40.9973 32.4158 40.9681 32.454C40.7431 32.7472 40.4461 33.0266 40.1381 33.2309C39.9669 33.3444 39.8307 33.4955 39.7422 33.6697C39.6472 33.8439 39.5978 34.0353 39.5978 34.2294C39.5978 34.5521 39.4985 34.9041 39.2754 35.1372C38.4747 35.9739 39.1279 37.2188 39.511 38.2133C39.758 38.8229 39.6118 39.5002 39.6829 40.1205C39.9004 41.3683 40.7858 42.4609 40.9934 43.739C41.4124 45.632 41.1199 47.5785 41.0487 49.4768C40.9183 52.0204 41.7504 54.523 42.9956 56.785C43.4463 57.7386 44.5077 58.072 45.5473 57.6424C47.1898 57.0378 48.2894 55.5747 48.5988 54.0263C48.6 54.0204 48.6062 54.0171 48.6118 54.0193Z" fill="#B16668"/>
<path d="M43.3817 35.8409C42.7887 35.4951 42.85 34.8053 43.1149 34.2991C43.2572 34.021 43.5655 33.7804 43.9173 33.9069C44.1008 33.9837 44.2549 34.1077 44.3601 34.2634C44.5597 34.5068 44.6564 34.8064 44.6328 35.1083C44.6094 35.275 44.5489 35.4357 44.455 35.5807C44.4003 35.6758 44.3266 35.7611 44.2375 35.832C44.1127 35.9117 43.964 35.9552 43.8112 35.9568C43.6583 35.9584 43.5085 35.918 43.3817 35.8409Z" fill="#455A64"/>
<path d="M43.383 35.841C42.5548 35.4471 42.7446 33.6717 43.804 33.702C44.5788 33.825 44.9721 34.7323 44.6776 35.3384C44.4547 35.8419 43.9443 36.1447 43.3862 35.8392C43.3847 35.8384 43.383 35.8394 43.383 35.841ZM43.383 35.841C44.2309 36.2866 44.7389 35.2724 44.4048 34.6646C44.2467 34.3669 43.9107 33.8892 43.5075 34.0942C42.9501 34.4507 42.6932 35.4649 43.383 35.841Z" fill="#37474F"/>
<path d="M41.7124 32.9032C41.6691 32.9489 41.6332 32.9999 41.6057 33.0547C41.5295 33.2303 41.501 33.4198 41.5226 33.6073C41.5478 33.9858 41.6482 34.3571 41.8191 34.7035C41.8998 34.8885 42.0246 35.0553 42.1848 35.1919C42.7105 35.6037 43.4241 34.9744 43.4577 34.4682C43.4632 34.3303 43.4479 34.1924 43.4122 34.0583C43.2789 33.6092 42.9885 33.211 42.584 32.9228C42.4478 32.8027 42.2665 32.7333 42.0761 32.7285C42.0055 32.734 41.937 32.7524 41.8745 32.7824C41.812 32.8124 41.7568 32.8535 41.7124 32.9032Z" fill="#455A64"/>
<path d="M41.7095 32.9033C41.338 33.3685 41.6087 34.0387 41.8341 34.5075C42.3836 35.6123 43.5443 33.8696 42.6493 33.0202C42.6096 32.9825 42.569 32.9464 42.5278 32.9122C42.2935 32.7062 41.9374 32.6523 41.712 32.897C41.7104 32.8987 41.7095 32.901 41.7095 32.9033ZM41.7095 32.9033C41.9072 32.6502 42.3144 32.6929 42.5614 32.8765C43.0911 33.2152 43.5497 33.7179 43.6248 34.3221C43.7414 34.9781 42.8737 35.8034 42.1622 35.3684C41.5692 34.9995 41.253 33.381 41.7095 32.9033Z" fill="#37474F"/>
<path d="M40.2303 34.2152C40.159 34.5141 40.1631 34.8235 40.2421 35.1207C40.305 35.3998 40.4601 35.6552 40.6868 35.8533C40.8173 35.9603 40.9655 36.1064 41.1553 36.094C41.4292 36.0512 41.6735 35.9129 41.8352 35.7089C41.9225 35.625 41.994 35.5286 42.0467 35.4237C42.2266 35.0227 41.9577 34.4772 41.7779 34.1118C41.5802 33.7036 41.0288 33.2705 40.5505 33.6502C40.3791 33.8026 40.2668 34.0007 40.2303 34.2152Z" fill="#455A64"/>
<path d="M40.2235 34.2153C40.1029 34.75 40.2393 35.3846 40.6959 35.7446C40.906 35.9179 41.205 35.9945 41.4256 35.8347C41.5131 35.7713 41.5925 35.6935 41.6565 35.6252C41.8352 35.4617 41.9147 35.2116 41.8971 34.9701C41.8883 34.8504 41.8607 34.7319 41.8146 34.6181C41.7452 34.3564 41.6333 34.1053 41.4825 33.873C41.0254 33.2785 40.3559 33.5798 40.2263 34.2154C40.2259 34.217 40.2235 34.2169 40.2235 34.2153ZM40.2235 34.2153C40.348 33.5147 41.0319 33.201 41.6328 33.75C41.852 33.9732 42.0229 34.2313 42.1368 34.5112C42.1607 34.5559 42.1819 34.6015 42.2002 34.6479C42.3991 35.1523 42.1615 35.7459 41.7096 36.0453C41.2608 36.3426 40.6358 36.0861 40.377 35.6141C40.1467 35.194 40.1171 34.6763 40.2219 34.2293C40.2229 34.2247 40.2235 34.22 40.2235 34.2153Z" fill="#37474F"/>
<path d="M44.0027 35.9016C43.9218 35.7789 43.8234 35.6663 43.7102 35.5665C43.1172 35.046 42.299 35.2243 41.7594 35.7198C41.182 36.2733 40.8701 37.01 40.8917 37.7697C40.9095 38.1707 41.0676 38.6128 41.4649 38.791C41.5779 38.8416 41.7028 38.867 41.829 38.8651C41.9552 38.8633 42.0791 38.8342 42.1903 38.7803C42.5263 38.6181 42.7042 38.2456 43.054 38.1083C43.5264 37.9194 44.1786 38.0566 44.3783 37.4862C44.4468 37.2301 44.4358 36.9618 44.3467 36.7109C44.2777 36.4271 44.1618 36.1543 44.0027 35.9016Z" fill="#37474F"/>
<path d="M40.5966 37.5521C41.0117 37.5289 41.411 36.9443 41.407 36.6003C41.4053 36.5231 41.3927 36.4464 41.3695 36.3721C41.2587 35.9999 41.014 35.6713 40.6737 35.4381C40.5801 35.3749 40.4693 35.3359 40.353 35.3253C40.2367 35.3146 40.1194 35.3326 40.0136 35.3775C39.7566 35.5058 39.6716 35.7999 39.6578 36.0637C39.6341 36.5165 39.8811 37.5913 40.5966 37.5521Z" fill="#455A64"/>
<path d="M40.598 37.5521C41.0131 37.4968 41.2582 37.0904 41.3273 36.7518C41.3906 36.3043 40.8095 35.5771 40.3233 35.504C39.8271 35.4666 39.7639 36.0869 39.7876 36.4452C39.8153 36.885 39.9849 37.5543 40.5962 37.5539C40.5972 37.5539 40.598 37.5531 40.598 37.5521ZM40.598 37.5521C39.9892 37.5521 39.7342 36.9175 39.5919 36.4719C39.3943 35.9514 39.5564 35.0709 40.3648 35.1475C41.0052 35.2384 41.3688 35.8516 41.4736 36.3739C41.5685 36.8355 41.1178 37.4754 40.598 37.5521Z" fill="#37474F"/>
<path d="M41.9732 41.4645C41.9849 41.5061 42.0104 41.5434 42.0463 41.5715C42.0814 41.596 42.1218 41.6137 42.1649 41.6232C42.3733 41.6768 42.5914 41.6919 42.8064 41.6678C43.0214 41.6436 43.2287 41.5805 43.4161 41.4824C43.9655 41.19 43.5683 40.5287 43.0208 40.5555C42.5899 40.5751 41.819 41.01 41.9732 41.4645Z" fill="#455A64"/>
<path d="M39.8035 34.6039C39.7818 34.5296 39.7492 34.4583 39.7066 34.3918C39.6879 34.3602 39.6589 34.3345 39.6237 34.318C39.5884 34.3014 39.5485 34.2949 39.509 34.2991C39.4768 34.3058 39.4463 34.3182 39.4195 34.3356C39.3672 34.3696 39.3289 34.4215 39.29 34.4703C39.2426 34.5296 39.2049 34.5951 39.1784 34.6646C39.141 34.7624 39.1263 34.8662 39.1354 34.9693C39.1477 35.0291 39.1764 35.0851 39.2187 35.1324C39.2611 35.1796 39.3158 35.2166 39.3781 35.24C39.4403 35.2633 39.508 35.2723 39.575 35.2662C39.642 35.26 39.7063 35.2388 39.762 35.2046C39.9122 35.128 39.8747 34.8249 39.8035 34.6039Z" fill="#E0E0E0"/>
<path d="M40.5359 33.44C40.5871 33.4383 40.6371 33.4261 40.6822 33.4044C40.8798 33.2938 40.7138 32.9463 40.7197 32.7805C40.7248 32.7315 40.7208 32.6821 40.7079 32.6343C40.613 32.3616 40.2928 32.5791 40.1881 32.711C40.0594 32.8659 39.9857 33.0523 39.9766 33.2457C39.9825 33.4863 40.3501 33.4578 40.5359 33.44Z" fill="#E0E0E0"/>
<path d="M42.2101 32.3402C42.2396 32.3247 42.2641 32.3026 42.2813 32.276C42.2993 32.2397 42.3068 32.1998 42.303 32.1601C42.303 32.0657 42.2813 31.9712 42.2912 31.8767C42.309 31.7252 42.4394 31.3955 42.1429 31.4222C42.0382 31.4367 41.9432 31.4855 41.8761 31.5594C41.7778 31.677 41.6974 31.8059 41.6369 31.9427C41.5776 32.0532 41.5223 32.2992 41.6883 32.3651C41.8597 32.4152 42.0456 32.4063 42.2101 32.3402Z" fill="#E0E0E0"/>
<path d="M43.9889 32.8961C44.0137 32.9257 44.0293 32.9608 44.0344 32.9977C44.0546 33.0788 44.0698 33.1609 44.0798 33.2436C44.0953 33.3105 44.0885 33.38 44.06 33.4433C43.9276 33.6857 43.4671 33.6126 43.4849 33.3274C43.5066 33.167 43.7754 32.6661 43.9889 32.8961Z" fill="#E0E0E0"/>
<path d="M85.5284 50.4062V49.2727H92.2827V50.4062H89.5597V58H88.2472V50.4062H85.5284ZM95.9071 54.1136V58H94.6329V49.2727H95.89V52.5199H95.971C96.1244 52.1676 96.3588 51.8878 96.6741 51.6804C96.9895 51.473 97.4014 51.3693 97.9099 51.3693C98.3588 51.3693 98.7508 51.4616 99.0861 51.6463C99.4241 51.831 99.6855 52.1065 99.8702 52.473C100.058 52.8366 100.151 53.2912 100.151 53.8366V58H98.8773V53.9901C98.8773 53.5099 98.7537 53.1378 98.5065 52.8736C98.2594 52.6065 97.9156 52.473 97.4753 52.473C97.1741 52.473 96.9042 52.5369 96.6656 52.6648C96.4298 52.7926 96.2437 52.9801 96.1074 53.2273C95.9738 53.4716 95.9071 53.767 95.9071 54.1136ZM105.633 58.1321C104.988 58.1321 104.432 57.9943 103.967 57.7188C103.503 57.4403 103.145 57.0497 102.893 56.5469C102.643 56.0412 102.518 55.4489 102.518 54.7699C102.518 54.0994 102.643 53.5085 102.893 52.9972C103.145 52.4858 103.498 52.0866 103.949 51.7997C104.404 51.5128 104.935 51.3693 105.543 51.3693C105.913 51.3693 106.27 51.4304 106.617 51.5526C106.964 51.6747 107.275 51.8665 107.55 52.1278C107.826 52.3892 108.043 52.7287 108.202 53.1463C108.361 53.5611 108.441 54.0653 108.441 54.6591V55.1108H103.238V54.1562H107.192C107.192 53.821 107.124 53.5241 106.988 53.2656C106.851 53.0043 106.66 52.7983 106.413 52.6477C106.168 52.4972 105.881 52.4219 105.552 52.4219C105.194 52.4219 104.881 52.5099 104.614 52.6861C104.35 52.8594 104.145 53.0866 104.001 53.3679C103.859 53.6463 103.788 53.9489 103.788 54.2756V55.0213C103.788 55.4588 103.864 55.831 104.018 56.1378C104.174 56.4446 104.391 56.679 104.67 56.8409C104.948 57 105.273 57.0795 105.645 57.0795C105.887 57.0795 106.107 57.0455 106.306 56.9773C106.505 56.9062 106.677 56.8011 106.822 56.6619C106.967 56.5227 107.077 56.3509 107.154 56.1463L108.36 56.3636C108.263 56.7187 108.09 57.0298 107.84 57.2969C107.593 57.5611 107.282 57.767 106.907 57.9148C106.535 58.0597 106.11 58.1321 105.633 58.1321ZM115.053 58V49.2727H118.164C118.842 49.2727 119.405 49.3963 119.851 49.6435C120.297 49.8906 120.631 50.2287 120.852 50.6577C121.074 51.0838 121.185 51.5639 121.185 52.098C121.185 52.6349 121.073 53.1179 120.848 53.5469C120.627 53.973 120.291 54.3111 119.842 54.5611C119.396 54.8082 118.835 54.9318 118.159 54.9318H116.02V53.8153H118.04C118.469 53.8153 118.817 53.7415 119.084 53.5938C119.351 53.4432 119.547 53.2386 119.672 52.9801C119.797 52.7216 119.86 52.4276 119.86 52.098C119.86 51.7685 119.797 51.4759 119.672 51.2202C119.547 50.9645 119.35 50.7642 119.08 50.6193C118.813 50.4744 118.46 50.402 118.023 50.402H116.369V58H115.053ZM126.261 58.1321C125.648 58.1321 125.112 57.9915 124.655 57.7102C124.197 57.429 123.842 57.0355 123.589 56.5298C123.337 56.0241 123.21 55.4332 123.21 54.7571C123.21 54.0781 123.337 53.4844 123.589 52.9759C123.842 52.4673 124.197 52.0724 124.655 51.7912C125.112 51.5099 125.648 51.3693 126.261 51.3693C126.875 51.3693 127.41 51.5099 127.868 51.7912C128.325 52.0724 128.68 52.4673 128.933 52.9759C129.186 53.4844 129.312 54.0781 129.312 54.7571C129.312 55.4332 129.186 56.0241 128.933 56.5298C128.68 57.0355 128.325 57.429 127.868 57.7102C127.41 57.9915 126.875 58.1321 126.261 58.1321ZM126.266 57.0625C126.663 57.0625 126.993 56.9574 127.254 56.7472C127.516 56.5369 127.709 56.2571 127.834 55.9077C127.962 55.5582 128.025 55.1733 128.025 54.7528C128.025 54.3352 127.962 53.9517 127.834 53.6023C127.709 53.25 127.516 52.9673 127.254 52.7543C126.993 52.5412 126.663 52.4347 126.266 52.4347C125.865 52.4347 125.533 52.5412 125.268 52.7543C125.007 52.9673 124.812 53.25 124.685 53.6023C124.56 53.9517 124.497 54.3352 124.497 54.7528C124.497 55.1733 124.56 55.5582 124.685 55.9077C124.812 56.2571 125.007 56.5369 125.268 56.7472C125.533 56.9574 125.865 57.0625 126.266 57.0625ZM134.452 58.1321C133.838 58.1321 133.303 57.9915 132.845 57.7102C132.388 57.429 132.033 57.0355 131.78 56.5298C131.527 56.0241 131.401 55.4332 131.401 54.7571C131.401 54.0781 131.527 53.4844 131.78 52.9759C132.033 52.4673 132.388 52.0724 132.845 51.7912C133.303 51.5099 133.838 51.3693 134.452 51.3693C135.065 51.3693 135.601 51.5099 136.058 51.7912C136.516 52.0724 136.871 52.4673 137.124 52.9759C137.376 53.4844 137.503 54.0781 137.503 54.7571C137.503 55.4332 137.376 56.0241 137.124 56.5298C136.871 57.0355 136.516 57.429 136.058 57.7102C135.601 57.9915 135.065 58.1321 134.452 58.1321ZM134.456 57.0625C134.854 57.0625 135.183 56.9574 135.445 56.7472C135.706 56.5369 135.899 56.2571 136.024 55.9077C136.152 55.5582 136.216 55.1733 136.216 54.7528C136.216 54.3352 136.152 53.9517 136.024 53.6023C135.899 53.25 135.706 52.9673 135.445 52.7543C135.183 52.5412 134.854 52.4347 134.456 52.4347C134.055 52.4347 133.723 52.5412 133.459 52.7543C133.197 52.9673 133.003 53.25 132.875 53.6023C132.75 53.9517 132.688 54.3352 132.688 54.7528C132.688 55.1733 132.75 55.5582 132.875 55.9077C133.003 56.2571 133.197 56.5369 133.459 56.7472C133.723 56.9574 134.055 57.0625 134.456 57.0625ZM144.123 58V49.2727H147.234C147.913 49.2727 148.475 49.3963 148.921 49.6435C149.368 49.8906 149.701 50.2287 149.923 50.6577C150.144 51.0838 150.255 51.5639 150.255 52.098C150.255 52.6349 150.143 53.1179 149.919 53.5469C149.697 53.973 149.362 54.3111 148.913 54.5611C148.467 54.8082 147.906 54.9318 147.23 54.9318H145.091V53.8153H147.11C147.539 53.8153 147.887 53.7415 148.154 53.5938C148.421 53.4432 148.618 53.2386 148.743 52.9801C148.868 52.7216 148.93 52.4276 148.93 52.098C148.93 51.7685 148.868 51.4759 148.743 51.2202C148.618 50.9645 148.42 50.7642 148.15 50.6193C147.883 50.4744 147.531 50.402 147.093 50.402H145.44V58H144.123ZM155.712 51.4545V52.4773H152.137V51.4545H155.712ZM153.096 49.8864H154.37V56.0781C154.37 56.3253 154.407 56.5114 154.481 56.6364C154.554 56.7585 154.65 56.8423 154.766 56.8878C154.885 56.9304 155.015 56.9517 155.154 56.9517C155.256 56.9517 155.346 56.9446 155.422 56.9304C155.499 56.9162 155.559 56.9048 155.601 56.8963L155.831 57.9489C155.758 57.9773 155.652 58.0057 155.516 58.0341C155.38 58.0653 155.209 58.0824 155.005 58.0852C154.669 58.0909 154.357 58.0312 154.067 57.9062C153.777 57.7812 153.543 57.5881 153.364 57.3267C153.185 57.0653 153.096 56.7372 153.096 56.3423V49.8864ZM158.082 58V51.4545H159.313V52.4943H159.381C159.501 52.142 159.711 51.8651 160.012 51.6634C160.316 51.4588 160.66 51.3565 161.043 51.3565C161.123 51.3565 161.216 51.3594 161.324 51.3651C161.435 51.3707 161.522 51.3778 161.584 51.3864V52.6051C161.533 52.5909 161.442 52.5753 161.312 52.5582C161.181 52.5384 161.05 52.5284 160.92 52.5284C160.618 52.5284 160.35 52.5923 160.114 52.7202C159.881 52.8452 159.697 53.0199 159.56 53.2443C159.424 53.4659 159.356 53.7187 159.356 54.0028V58H158.082ZM166.17 58.1321C165.556 58.1321 165.021 57.9915 164.563 57.7102C164.106 57.429 163.751 57.0355 163.498 56.5298C163.245 56.0241 163.119 55.4332 163.119 54.7571C163.119 54.0781 163.245 53.4844 163.498 52.9759C163.751 52.4673 164.106 52.0724 164.563 51.7912C165.021 51.5099 165.556 51.3693 166.17 51.3693C166.783 51.3693 167.319 51.5099 167.776 51.7912C168.234 52.0724 168.589 52.4673 168.842 52.9759C169.094 53.4844 169.221 54.0781 169.221 54.7571C169.221 55.4332 169.094 56.0241 168.842 56.5298C168.589 57.0355 168.234 57.429 167.776 57.7102C167.319 57.9915 166.783 58.1321 166.17 58.1321ZM166.174 57.0625C166.572 57.0625 166.901 56.9574 167.163 56.7472C167.424 56.5369 167.617 56.2571 167.742 55.9077C167.87 55.5582 167.934 55.1733 167.934 54.7528C167.934 54.3352 167.87 53.9517 167.742 53.6023C167.617 53.25 167.424 52.9673 167.163 52.7543C166.901 52.5412 166.572 52.4347 166.174 52.4347C165.773 52.4347 165.441 52.5412 165.177 52.7543C164.915 52.9673 164.721 53.25 164.593 53.6023C164.468 53.9517 164.406 54.3352 164.406 54.7528C164.406 55.1733 164.468 55.5582 164.593 55.9077C164.721 56.2571 164.915 56.5369 165.177 56.7472C165.441 56.9574 165.773 57.0625 166.174 57.0625ZM172.877 49.2727V58H171.603V49.2727H172.877ZM180.961 49.2727V58H179.687V49.2727H180.961ZM186.393 58.1321C185.779 58.1321 185.243 57.9915 184.786 57.7102C184.329 57.429 183.974 57.0355 183.721 56.5298C183.468 56.0241 183.341 55.4332 183.341 54.7571C183.341 54.0781 183.468 53.4844 183.721 52.9759C183.974 52.4673 184.329 52.0724 184.786 51.7912C185.243 51.5099 185.779 51.3693 186.393 51.3693C187.006 51.3693 187.542 51.5099 187.999 51.7912C188.456 52.0724 188.812 52.4673 189.064 52.9759C189.317 53.4844 189.444 54.0781 189.444 54.7571C189.444 55.4332 189.317 56.0241 189.064 56.5298C188.812 57.0355 188.456 57.429 187.999 57.7102C187.542 57.9915 187.006 58.1321 186.393 58.1321ZM186.397 57.0625C186.795 57.0625 187.124 56.9574 187.385 56.7472C187.647 56.5369 187.84 56.2571 187.965 55.9077C188.093 55.5582 188.157 55.1733 188.157 54.7528C188.157 54.3352 188.093 53.9517 187.965 53.6023C187.84 53.25 187.647 52.9673 187.385 52.7543C187.124 52.5412 186.795 52.4347 186.397 52.4347C185.996 52.4347 185.664 52.5412 185.4 52.7543C185.138 52.9673 184.944 53.25 184.816 53.6023C184.691 53.9517 184.628 54.3352 184.628 54.7528C184.628 55.1733 184.691 55.5582 184.816 55.9077C184.944 56.2571 185.138 56.5369 185.4 56.7472C185.664 56.9574 185.996 57.0625 186.397 57.0625ZM194.57 60.5909C194.05 60.5909 193.603 60.5227 193.228 60.3864C192.856 60.25 192.552 60.0696 192.316 59.8452C192.08 59.6207 191.904 59.375 191.788 59.108L192.883 58.6562C192.959 58.7812 193.062 58.9134 193.19 59.0526C193.32 59.1946 193.496 59.3153 193.718 59.4148C193.942 59.5142 194.231 59.5639 194.583 59.5639C195.066 59.5639 195.465 59.446 195.78 59.2102C196.096 58.9773 196.253 58.6051 196.253 58.0938V56.8068H196.173C196.096 56.946 195.985 57.1009 195.84 57.2713C195.698 57.4418 195.502 57.5895 195.252 57.7145C195.002 57.8395 194.677 57.902 194.276 57.902C193.759 57.902 193.293 57.7812 192.878 57.5398C192.467 57.2955 192.14 56.9361 191.898 56.4616C191.66 55.9844 191.54 55.3977 191.54 54.7017C191.54 54.0057 191.658 53.4091 191.894 52.9119C192.133 52.4148 192.459 52.0341 192.874 51.7699C193.289 51.5028 193.759 51.3693 194.285 51.3693C194.691 51.3693 195.019 51.4375 195.269 51.5739C195.519 51.7074 195.714 51.8636 195.853 52.0426C195.995 52.2216 196.104 52.3793 196.181 52.5156H196.275V51.4545H197.523V58.1449C197.523 58.7074 197.393 59.169 197.131 59.5298C196.87 59.8906 196.516 60.1577 196.07 60.331C195.627 60.5043 195.127 60.5909 194.57 60.5909ZM194.557 56.8452C194.924 56.8452 195.234 56.7599 195.486 56.5895C195.742 56.4162 195.935 56.169 196.066 55.848C196.199 55.5241 196.266 55.1364 196.266 54.6847C196.266 54.2443 196.201 53.8565 196.07 53.5213C195.94 53.1861 195.748 52.9247 195.495 52.7372C195.242 52.5469 194.93 52.4517 194.557 52.4517C194.174 52.4517 193.854 52.5511 193.599 52.75C193.343 52.946 193.15 53.2131 193.019 53.5511C192.891 53.8892 192.827 54.267 192.827 54.6847C192.827 55.1136 192.893 55.4901 193.023 55.8139C193.154 56.1378 193.347 56.3906 193.603 56.5724C193.861 56.7543 194.18 56.8452 194.557 56.8452ZM202.949 58.1321C202.336 58.1321 201.8 57.9915 201.343 57.7102C200.885 57.429 200.53 57.0355 200.277 56.5298C200.025 56.0241 199.898 55.4332 199.898 54.7571C199.898 54.0781 200.025 53.4844 200.277 52.9759C200.53 52.4673 200.885 52.0724 201.343 51.7912C201.8 51.5099 202.336 51.3693 202.949 51.3693C203.563 51.3693 204.098 51.5099 204.556 51.7912C205.013 52.0724 205.368 52.4673 205.621 52.9759C205.874 53.4844 206 54.0781 206 54.7571C206 55.4332 205.874 56.0241 205.621 56.5298C205.368 57.0355 205.013 57.429 204.556 57.7102C204.098 57.9915 203.563 58.1321 202.949 58.1321ZM202.954 57.0625C203.351 57.0625 203.681 56.9574 203.942 56.7472C204.204 56.5369 204.397 56.2571 204.522 55.9077C204.65 55.5582 204.713 55.1733 204.713 54.7528C204.713 54.3352 204.65 53.9517 204.522 53.6023C204.397 53.25 204.204 52.9673 203.942 52.7543C203.681 52.5412 203.351 52.4347 202.954 52.4347C202.553 52.4347 202.221 52.5412 201.956 52.7543C201.695 52.9673 201.5 53.25 201.373 53.6023C201.248 53.9517 201.185 54.3352 201.185 54.7528C201.185 55.1733 201.248 55.5582 201.373 55.9077C201.5 56.2571 201.695 56.5369 201.956 56.7472C202.221 56.9574 202.553 57.0625 202.954 57.0625ZM210.04 56.8068L209.976 57.2713C209.934 57.6122 209.861 57.9673 209.759 58.3366C209.66 58.7088 209.556 59.054 209.448 59.3722C209.343 59.6903 209.256 59.9432 209.188 60.1307H208.285C208.322 59.9545 208.373 59.7159 208.438 59.4148C208.503 59.1165 208.567 58.7827 208.63 58.4134C208.692 58.044 208.739 57.6676 208.77 57.2841L208.813 56.8068H210.04ZM221.7 53.0526L220.545 53.2571C220.497 53.1094 220.42 52.9687 220.315 52.8352C220.212 52.7017 220.073 52.5923 219.897 52.5071C219.721 52.4219 219.501 52.3793 219.237 52.3793C218.876 52.3793 218.575 52.4602 218.333 52.6222C218.092 52.7812 217.971 52.9872 217.971 53.2401C217.971 53.4588 218.052 53.6349 218.214 53.7685C218.376 53.902 218.637 54.0114 218.998 54.0966L220.038 54.3352C220.64 54.4744 221.089 54.6889 221.384 54.9787C221.68 55.2685 221.827 55.6449 221.827 56.108C221.827 56.5 221.714 56.8494 221.487 57.1562C221.262 57.4602 220.948 57.6989 220.545 57.8722C220.144 58.0455 219.68 58.1321 219.151 58.1321C218.418 58.1321 217.82 57.9759 217.357 57.6634C216.894 57.348 216.61 56.9006 216.505 56.321L217.737 56.1335C217.813 56.4545 217.971 56.6974 218.21 56.8622C218.448 57.0241 218.759 57.1051 219.143 57.1051C219.56 57.1051 219.894 57.0185 220.144 56.8452C220.394 56.669 220.519 56.4545 220.519 56.2017C220.519 55.9972 220.443 55.8253 220.289 55.6861C220.139 55.5469 219.907 55.4418 219.595 55.3707L218.487 55.1278C217.876 54.9886 217.424 54.767 217.131 54.4631C216.842 54.1591 216.697 53.7741 216.697 53.3082C216.697 52.9219 216.805 52.5838 217.021 52.294C217.237 52.0043 217.535 51.7784 217.916 51.6165C218.296 51.4517 218.732 51.3693 219.224 51.3693C219.931 51.3693 220.488 51.5227 220.894 51.8295C221.3 52.1335 221.569 52.5412 221.7 53.0526ZM225.463 49.2727V58H224.188V49.2727H225.463ZM230.894 58.1321C230.28 58.1321 229.745 57.9915 229.287 57.7102C228.83 57.429 228.475 57.0355 228.222 56.5298C227.969 56.0241 227.843 55.4332 227.843 54.7571C227.843 54.0781 227.969 53.4844 228.222 52.9759C228.475 52.4673 228.83 52.0724 229.287 51.7912C229.745 51.5099 230.28 51.3693 230.894 51.3693C231.507 51.3693 232.043 51.5099 232.5 51.7912C232.958 52.0724 233.313 52.4673 233.566 52.9759C233.819 53.4844 233.945 54.0781 233.945 54.7571C233.945 55.4332 233.819 56.0241 233.566 56.5298C233.313 57.0355 232.958 57.429 232.5 57.7102C232.043 57.9915 231.507 58.1321 230.894 58.1321ZM230.898 57.0625C231.296 57.0625 231.625 56.9574 231.887 56.7472C232.148 56.5369 232.341 56.2571 232.466 55.9077C232.594 55.5582 232.658 55.1733 232.658 54.7528C232.658 54.3352 232.594 53.9517 232.466 53.6023C232.341 53.25 232.148 52.9673 231.887 52.7543C231.625 52.5412 231.296 52.4347 230.898 52.4347C230.497 52.4347 230.165 52.5412 229.901 52.7543C229.64 52.9673 229.445 53.25 229.317 53.6023C229.192 53.9517 229.13 54.3352 229.13 54.7528C229.13 55.1733 229.192 55.5582 229.317 55.9077C229.445 56.2571 229.64 56.5369 229.901 56.7472C230.165 56.9574 230.497 57.0625 230.898 57.0625ZM239.071 60.5909C238.552 60.5909 238.104 60.5227 237.729 60.3864C237.357 60.25 237.053 60.0696 236.817 59.8452C236.581 59.6207 236.405 59.375 236.289 59.108L237.384 58.6562C237.461 58.7812 237.563 58.9134 237.691 59.0526C237.821 59.1946 237.998 59.3153 238.219 59.4148C238.444 59.5142 238.732 59.5639 239.084 59.5639C239.567 59.5639 239.966 59.446 240.282 59.2102C240.597 58.9773 240.755 58.6051 240.755 58.0938V56.8068H240.674C240.597 56.946 240.486 57.1009 240.341 57.2713C240.199 57.4418 240.003 57.5895 239.753 57.7145C239.503 57.8395 239.178 57.902 238.777 57.902C238.26 57.902 237.794 57.7812 237.38 57.5398C236.968 57.2955 236.641 56.9361 236.4 56.4616C236.161 55.9844 236.042 55.3977 236.042 54.7017C236.042 54.0057 236.16 53.4091 236.395 52.9119C236.634 52.4148 236.961 52.0341 237.375 51.7699C237.79 51.5028 238.26 51.3693 238.786 51.3693C239.192 51.3693 239.52 51.4375 239.77 51.5739C240.02 51.7074 240.215 51.8636 240.354 52.0426C240.496 52.2216 240.606 52.3793 240.682 52.5156H240.776V51.4545H242.025V58.1449C242.025 58.7074 241.894 59.169 241.633 59.5298C241.371 59.8906 241.018 60.1577 240.571 60.331C240.128 60.5043 239.628 60.5909 239.071 60.5909ZM239.059 56.8452C239.425 56.8452 239.735 56.7599 239.988 56.5895C240.243 56.4162 240.437 56.169 240.567 55.848C240.701 55.5241 240.768 55.1364 240.768 54.6847C240.768 54.2443 240.702 53.8565 240.571 53.5213C240.441 53.1861 240.249 52.9247 239.996 52.7372C239.743 52.5469 239.431 52.4517 239.059 52.4517C238.675 52.4517 238.356 52.5511 238.1 52.75C237.844 52.946 237.651 53.2131 237.52 53.5511C237.393 53.8892 237.329 54.267 237.329 54.6847C237.329 55.1136 237.394 55.4901 237.525 55.8139C237.655 56.1378 237.848 56.3906 238.104 56.5724C238.363 56.7543 238.681 56.8452 239.059 56.8452ZM246.598 58.1449C246.183 58.1449 245.808 58.0682 245.473 57.9148C245.138 57.7585 244.872 57.5327 244.676 57.2372C244.483 56.9418 244.387 56.5795 244.387 56.1506C244.387 55.7812 244.458 55.4773 244.6 55.2386C244.742 55 244.933 54.8111 245.175 54.6719C245.416 54.5327 245.686 54.4276 245.985 54.3565C246.283 54.2855 246.587 54.2315 246.897 54.1946C247.289 54.1491 247.607 54.1122 247.851 54.0838C248.095 54.0526 248.273 54.0028 248.384 53.9347C248.495 53.8665 248.55 53.7557 248.55 53.6023V53.5724C248.55 53.2003 248.445 52.9119 248.235 52.7074C248.027 52.5028 247.718 52.4006 247.306 52.4006C246.877 52.4006 246.539 52.4957 246.291 52.6861C246.047 52.8736 245.878 53.0824 245.784 53.3125L244.587 53.0398C244.729 52.642 244.936 52.321 245.209 52.0767C245.485 51.8295 245.801 51.6506 246.159 51.5398C246.517 51.4261 246.894 51.3693 247.289 51.3693C247.55 51.3693 247.827 51.4006 248.12 51.4631C248.415 51.5227 248.691 51.6335 248.946 51.7955C249.205 51.9574 249.416 52.1889 249.581 52.4901C249.746 52.7884 249.828 53.1761 249.828 53.6534V58H248.584V57.1051H248.533C248.451 57.2699 248.327 57.4318 248.162 57.5909C247.997 57.75 247.786 57.8821 247.527 57.9872C247.269 58.0923 246.959 58.1449 246.598 58.1449ZM246.875 57.1222C247.227 57.1222 247.529 57.0526 247.779 56.9134C248.031 56.7741 248.223 56.5923 248.354 56.3679C248.487 56.1406 248.554 55.8977 248.554 55.6392V54.7955C248.509 54.8409 248.421 54.8835 248.29 54.9233C248.162 54.9602 248.016 54.9929 247.851 55.0213C247.686 55.0469 247.526 55.071 247.37 55.0938C247.213 55.1136 247.083 55.1307 246.977 55.1449C246.73 55.1761 246.504 55.2287 246.3 55.3026C246.098 55.3764 245.936 55.483 245.814 55.6222C245.695 55.7585 245.635 55.9403 245.635 56.1676C245.635 56.483 245.752 56.7216 245.985 56.8835C246.218 57.0426 246.514 57.1222 246.875 57.1222ZM253.76 54.1136V58H252.485V51.4545H253.708V52.5199H253.789C253.94 52.1733 254.176 51.8949 254.497 51.6847C254.821 51.4744 255.228 51.3693 255.72 51.3693C256.166 51.3693 256.556 51.4631 256.892 51.6506C257.227 51.8352 257.487 52.1108 257.672 52.4773C257.856 52.8437 257.949 53.2969 257.949 53.8366V58H256.674V53.9901C256.674 53.5156 256.551 53.1449 256.304 52.8778C256.056 52.608 255.717 52.473 255.285 52.473C254.99 52.473 254.727 52.5369 254.497 52.6648C254.27 52.7926 254.089 52.9801 253.956 53.2273C253.825 53.4716 253.76 53.767 253.76 54.1136ZM262.275 56.8068L262.211 57.2713C262.168 57.6122 262.096 57.9673 261.994 58.3366C261.894 58.7088 261.791 59.054 261.683 59.3722C261.578 59.6903 261.491 59.9432 261.423 60.1307H260.519C260.556 59.9545 260.607 59.7159 260.673 59.4148C260.738 59.1165 260.802 58.7827 260.864 58.4134C260.927 58.044 260.974 57.6676 261.005 57.2841L261.048 56.8068H262.275ZM273.934 53.0526L272.78 53.2571C272.731 53.1094 272.655 52.9687 272.549 52.8352C272.447 52.7017 272.308 52.5923 272.132 52.5071C271.956 52.4219 271.735 52.3793 271.471 52.3793C271.11 52.3793 270.809 52.4602 270.568 52.6222C270.326 52.7812 270.206 52.9872 270.206 53.2401C270.206 53.4588 270.287 53.6349 270.449 53.7685C270.61 53.902 270.872 54.0114 271.233 54.0966L272.272 54.3352C272.875 54.4744 273.324 54.6889 273.619 54.9787C273.914 55.2685 274.062 55.6449 274.062 56.108C274.062 56.5 273.949 56.8494 273.721 57.1562C273.497 57.4602 273.183 57.6989 272.78 57.8722C272.379 58.0455 271.914 58.1321 271.386 58.1321C270.653 58.1321 270.055 57.9759 269.592 57.6634C269.129 57.348 268.845 56.9006 268.74 56.321L269.971 56.1335C270.048 56.4545 270.206 56.6974 270.444 56.8622C270.683 57.0241 270.994 57.1051 271.378 57.1051C271.795 57.1051 272.129 57.0185 272.379 56.8452C272.629 56.669 272.754 56.4545 272.754 56.2017C272.754 55.9972 272.677 55.8253 272.524 55.6861C272.373 55.5469 272.142 55.4418 271.829 55.3707L270.721 55.1278C270.11 54.9886 269.659 54.767 269.366 54.4631C269.076 54.1591 268.931 53.7741 268.931 53.3082C268.931 52.9219 269.039 52.5838 269.255 52.294C269.471 52.0043 269.77 51.7784 270.15 51.6165C270.531 51.4517 270.967 51.3693 271.458 51.3693C272.166 51.3693 272.723 51.5227 273.129 51.8295C273.535 52.1335 273.804 52.5412 273.934 53.0526ZM277.697 54.1136V58H276.423V49.2727H277.68V52.5199H277.761C277.915 52.1676 278.149 51.8878 278.464 51.6804C278.78 51.473 279.192 51.3693 279.7 51.3693C280.149 51.3693 280.541 51.4616 280.876 51.6463C281.214 51.831 281.476 52.1065 281.66 52.473C281.848 52.8366 281.942 53.2912 281.942 53.8366V58H280.667V53.9901C280.667 53.5099 280.544 53.1378 280.297 52.8736C280.05 52.6065 279.706 52.473 279.265 52.473C278.964 52.473 278.694 52.5369 278.456 52.6648C278.22 52.7926 278.034 52.9801 277.898 53.2273C277.764 53.4716 277.697 53.767 277.697 54.1136ZM286.021 58L284.095 51.4545H285.412L286.694 56.2614H286.758L288.045 51.4545H289.362L290.64 56.2401H290.704L291.978 51.4545H293.295L291.373 58H290.073L288.744 53.2741H288.646L287.316 58H286.021ZM298.022 58.1321C297.408 58.1321 296.873 57.9915 296.416 57.7102C295.958 57.429 295.603 57.0355 295.35 56.5298C295.097 56.0241 294.971 55.4332 294.971 54.7571C294.971 54.0781 295.097 53.4844 295.35 52.9759C295.603 52.4673 295.958 52.0724 296.416 51.7912C296.873 51.5099 297.408 51.3693 298.022 51.3693C298.636 51.3693 299.171 51.5099 299.629 51.7912C300.086 52.0724 300.441 52.4673 300.694 52.9759C300.947 53.4844 301.073 54.0781 301.073 54.7571C301.073 55.4332 300.947 56.0241 300.694 56.5298C300.441 57.0355 300.086 57.429 299.629 57.7102C299.171 57.9915 298.636 58.1321 298.022 58.1321ZM298.026 57.0625C298.424 57.0625 298.754 56.9574 299.015 56.7472C299.276 56.5369 299.47 56.2571 299.595 55.9077C299.722 55.5582 299.786 55.1733 299.786 54.7528C299.786 54.3352 299.722 53.9517 299.595 53.6023C299.47 53.25 299.276 52.9673 299.015 52.7543C298.754 52.5412 298.424 52.4347 298.026 52.4347C297.626 52.4347 297.293 52.5412 297.029 52.7543C296.768 52.9673 296.573 53.25 296.445 53.6023C296.32 53.9517 296.258 54.3352 296.258 54.7528C296.258 55.1733 296.32 55.5582 296.445 55.9077C296.573 56.2571 296.768 56.5369 297.029 56.7472C297.293 56.9574 297.626 57.0625 298.026 57.0625ZM304.73 54.1136V58H303.455V51.4545H304.678V52.5199H304.759C304.91 52.1733 305.146 51.8949 305.467 51.6847C305.791 51.4744 306.198 51.3693 306.69 51.3693C307.136 51.3693 307.526 51.4631 307.862 51.6506C308.197 51.8352 308.457 52.1108 308.642 52.4773C308.826 52.8437 308.919 53.2969 308.919 53.8366V58H307.644V53.9901C307.644 53.5156 307.521 53.1449 307.274 52.8778C307.026 52.608 306.687 52.473 306.255 52.473C305.96 52.473 305.697 52.5369 305.467 52.6648C305.24 52.7926 305.059 52.9801 304.926 53.2273C304.795 53.4716 304.73 53.767 304.73 54.1136Z" fill="#F39200"/>
<path d="M96.5388 33.324C96.5388 33.996 96.3768 34.626 96.0528 35.214C95.7408 35.802 95.2428 36.276 94.5588 36.636C93.8868 36.996 93.0348 37.176 92.0028 37.176H89.8968V42H87.3768V29.436H92.0028C92.9748 29.436 93.8028 29.604 94.4868 29.94C95.1708 30.276 95.6808 30.738 96.0168 31.326C96.3648 31.914 96.5388 32.58 96.5388 33.324ZM91.8948 35.142C92.5908 35.142 93.1068 34.986 93.4428 34.674C93.7788 34.35 93.9468 33.9 93.9468 33.324C93.9468 32.1 93.2628 31.488 91.8948 31.488H89.8968V35.142H91.8948ZM107.598 36.798C107.598 37.158 107.574 37.482 107.526 37.77H100.236C100.296 38.49 100.548 39.054 100.992 39.462C101.436 39.87 101.982 40.074 102.63 40.074C103.566 40.074 104.232 39.672 104.628 38.868H107.346C107.058 39.828 106.506 40.62 105.69 41.244C104.874 41.856 103.872 42.162 102.684 42.162C101.724 42.162 100.86 41.952 100.092 41.532C99.3359 41.1 98.7419 40.494 98.3099 39.714C97.8899 38.934 97.6799 38.034 97.6799 37.014C97.6799 35.982 97.8899 35.076 98.3099 34.296C98.7299 33.516 99.3179 32.916 100.074 32.496C100.83 32.076 101.7 31.866 102.684 31.866C103.632 31.866 104.478 32.07 105.222 32.478C105.978 32.886 106.56 33.468 106.968 34.224C107.388 34.968 107.598 35.826 107.598 36.798ZM104.988 36.078C104.976 35.43 104.742 34.914 104.286 34.53C103.83 34.134 103.272 33.936 102.612 33.936C101.988 33.936 101.46 34.128 101.028 34.512C100.608 34.884 100.35 35.406 100.254 36.078H104.988ZM112.371 34.098V38.922C112.371 39.258 112.449 39.504 112.605 39.66C112.773 39.804 113.049 39.876 113.433 39.876H114.603V42H113.019C110.895 42 109.833 40.968 109.833 38.904V34.098H108.645V32.028H109.833V29.562H112.371V32.028H114.603V34.098H112.371ZM120.093 35.7C120.093 34.464 120.369 33.36 120.921 32.388C121.485 31.404 122.247 30.642 123.207 30.102C124.179 29.55 125.265 29.274 126.465 29.274C127.869 29.274 129.099 29.634 130.155 30.354C131.211 31.074 131.949 32.07 132.369 33.342H129.471C129.183 32.742 128.775 32.292 128.247 31.992C127.731 31.692 127.131 31.542 126.447 31.542C125.715 31.542 125.061 31.716 124.485 32.064C123.921 32.4 123.477 32.88 123.153 33.504C122.841 34.128 122.685 34.86 122.685 35.7C122.685 36.528 122.841 37.26 123.153 37.896C123.477 38.52 123.921 39.006 124.485 39.354C125.061 39.69 125.715 39.858 126.447 39.858C127.131 39.858 127.731 39.708 128.247 39.408C128.775 39.096 129.183 38.64 129.471 38.04H132.369C131.949 39.324 131.211 40.326 130.155 41.046C129.111 41.754 127.881 42.108 126.465 42.108C125.265 42.108 124.179 41.838 123.207 41.298C122.247 40.746 121.485 39.984 120.921 39.012C120.369 38.04 120.093 36.936 120.093 35.7ZM133.873 36.978C133.873 35.97 134.071 35.076 134.467 34.296C134.875 33.516 135.421 32.916 136.105 32.496C136.801 32.076 137.575 31.866 138.427 31.866C139.171 31.866 139.819 32.016 140.371 32.316C140.935 32.616 141.385 32.994 141.721 33.45V32.028H144.259V42H141.721V40.542C141.397 41.01 140.947 41.4 140.371 41.712C139.807 42.012 139.153 42.162 138.409 42.162C137.569 42.162 136.801 41.946 136.105 41.514C135.421 41.082 134.875 40.476 134.467 39.696C134.071 38.904 133.873 37.998 133.873 36.978ZM141.721 37.014C141.721 36.402 141.601 35.88 141.361 35.448C141.121 35.004 140.797 34.668 140.389 34.44C139.981 34.2 139.543 34.08 139.075 34.08C138.607 34.08 138.175 34.194 137.779 34.422C137.383 34.65 137.059 34.986 136.807 35.43C136.567 35.862 136.447 36.378 136.447 36.978C136.447 37.578 136.567 38.106 136.807 38.562C137.059 39.006 137.383 39.348 137.779 39.588C138.187 39.828 138.619 39.948 139.075 39.948C139.543 39.948 139.981 39.834 140.389 39.606C140.797 39.366 141.121 39.03 141.361 38.598C141.601 38.154 141.721 37.626 141.721 37.014ZM149.241 33.576C149.565 33.048 149.985 32.634 150.501 32.334C151.029 32.034 151.629 31.884 152.301 31.884V34.53H151.635C150.843 34.53 150.243 34.716 149.835 35.088C149.439 35.46 149.241 36.108 149.241 37.032V42H146.721V32.028H149.241V33.576ZM163.268 36.798C163.268 37.158 163.244 37.482 163.196 37.77H155.906C155.966 38.49 156.218 39.054 156.662 39.462C157.106 39.87 157.652 40.074 158.3 40.074C159.236 40.074 159.902 39.672 160.298 38.868H163.016C162.728 39.828 162.176 40.62 161.36 41.244C160.544 41.856 159.542 42.162 158.354 42.162C157.394 42.162 156.53 41.952 155.762 41.532C155.006 41.1 154.412 40.494 153.98 39.714C153.56 38.934 153.35 38.034 153.35 37.014C153.35 35.982 153.56 35.076 153.98 34.296C154.4 33.516 154.988 32.916 155.744 32.496C156.5 32.076 157.37 31.866 158.354 31.866C159.302 31.866 160.148 32.07 160.892 32.478C161.648 32.886 162.23 33.468 162.638 34.224C163.058 34.968 163.268 35.826 163.268 36.798ZM160.658 36.078C160.646 35.43 160.412 34.914 159.956 34.53C159.5 34.134 158.942 33.936 158.282 33.936C157.658 33.936 157.13 34.128 156.698 34.512C156.278 34.884 156.02 35.406 155.924 36.078H160.658Z" fill="#F39200"/>
</svg>
