<svg width="350" height="400" viewBox="0 0 350 400" fill="none" xmlns="http://www.w3.org/2000/svg">
<rect width="350" height="400" rx="32" fill="white"/>
<g clip-path="url(#clip0_807_6359)">
<path fill-rule="evenodd" clip-rule="evenodd" d="M154.228 227.708C210.636 232.563 225.677 169.821 272.387 165.476C297.956 163.098 350.332 165.757 333.292 76.9388C322.084 19.6373 266.482 15.3484 217.572 55.1494C202.726 64.4795 189.691 64.9487 174.752 61.3356C159.814 57.7226 136.826 33.2654 102.404 33.8919C-1.18328 35.7775 -57.0154 209.529 154.228 227.708Z" fill="#FFAD34"/>
<path d="M217.606 234.532C217.607 236.635 216.973 238.69 215.789 240.429C214.604 242.167 212.923 243.508 210.965 244.276C209.007 245.045 206.863 245.206 204.812 244.737C202.761 244.269 200.899 243.193 199.469 241.651L198.78 240.815C197.171 238.67 196.448 235.989 196.758 233.326C197.068 230.663 198.389 228.221 200.447 226.503C202.505 224.785 205.145 223.923 207.82 224.095C210.496 224.266 213.003 225.458 214.826 227.424L215.538 228.283C216.88 230.09 217.605 232.281 217.606 234.532Z" fill="#455A64"/>
<path d="M217.618 234.532C217.619 236.635 216.986 238.69 215.801 240.429C214.617 242.167 212.936 243.508 210.978 244.276C209.02 245.045 206.875 245.206 204.825 244.737C202.774 244.269 200.912 243.193 199.482 241.651L198.792 240.815L155.219 188.19L173.582 177.59L214.838 227.401L215.55 228.26C216.897 230.074 217.622 232.273 217.618 234.532Z" fill="#455A64"/>
<path d="M181.562 220.011C183.392 221.93 185.882 223.083 188.53 223.237C191.177 223.39 193.784 222.533 195.824 220.838C197.863 219.143 199.183 216.737 199.516 214.106C199.85 211.475 199.172 208.816 197.62 206.666L192.229 200.168C193.84 202.314 194.566 204.997 194.255 207.662C193.944 210.328 192.621 212.772 190.56 214.49C188.498 216.207 185.855 217.067 183.178 216.892C180.5 216.717 177.992 215.519 176.172 213.547L181.562 220.011Z" fill="#FFAC82"/>
<path d="M172.871 94.8619C176.161 95.228 179.341 96.2624 182.216 97.9016L168.961 90.1949C160.068 84.0815 147.265 84.4431 133.038 92.6471C106.177 108.162 84.3906 145.893 84.3906 176.924C84.3906 192.168 89.5774 203.061 98.1316 208.236L98.3124 208.349L112.46 216.497C109.951 214.864 107.764 212.785 106.008 210.361C109.494 210.742 113.019 210.54 116.438 209.762C117.681 209.491 118.935 209.163 120.212 208.756C120.045 208.706 119.883 208.642 119.726 208.564C119.046 208.246 118.396 207.868 117.783 207.434C116.67 206.659 115.68 205.722 114.845 204.654C113.702 203.192 112.774 201.575 112.087 199.852C111.167 199.985 110.238 200.053 109.308 200.055C107.108 200.099 104.926 199.663 102.912 198.778C102.441 198.563 101.984 198.317 101.544 198.044C101.149 197.795 100.753 197.501 100.414 197.207C99.5969 193.382 99.1991 189.48 99.2277 185.568C99.2277 154.549 121.014 116.807 147.898 101.292C151.33 99.2894 154.967 97.6605 158.746 96.4326C159.764 96.8487 160.722 97.3998 161.593 98.0711C162.516 98.7791 163.347 99.599 164.068 100.512C165.214 101.978 166.146 103.598 166.837 105.326C167.761 105.196 168.694 105.132 169.628 105.134C172.183 105.065 174.71 105.677 176.95 106.908C177.517 107.217 178.058 107.572 178.566 107.97C178.363 107.066 178.148 106.173 177.888 105.326C176.867 101.561 175.167 98.015 172.871 94.8619Z" fill="#263238"/>
<path d="M182.219 97.9018L181.451 97.4837C178.779 96.0846 175.871 95.1956 172.874 94.862C169.658 94.5034 166.405 94.6521 163.235 95.3027C161.708 95.5922 160.198 95.9695 158.715 96.4327C154.936 97.6606 151.299 99.2896 147.867 101.292C120.983 116.807 99.1968 154.549 99.1968 185.568C99.1681 189.48 99.566 193.383 100.383 197.208C100.53 197.897 100.7 198.552 100.869 199.208C101.876 203.207 103.624 206.983 106.022 210.338C107.093 211.815 108.325 213.168 109.695 214.373C110.568 215.141 111.497 215.843 112.474 216.474C121.345 222.204 133.945 221.706 147.844 213.661C174.727 198.146 196.514 160.414 196.514 129.384C196.502 113.869 191.044 102.964 182.219 97.9018ZM176.908 106.942C177.475 107.251 178.015 107.606 178.524 108.004C179.376 108.696 180.153 109.476 180.84 110.332C184.23 114.581 186.027 121.191 186.027 129.418C186.027 156.538 166.139 191.026 142.601 204.621C136.668 208.011 130.962 209.864 126.114 209.864C124.092 209.888 122.085 209.503 120.215 208.734C120.048 208.683 119.885 208.619 119.729 208.542C119.049 208.223 118.399 207.845 117.786 207.412C117.023 206.876 116.318 206.263 115.684 205.581C115.401 205.287 115.13 204.96 114.859 204.632C113.717 203.17 112.788 201.553 112.102 199.829C110.38 195.269 109.559 190.418 109.683 185.546C109.683 185.184 109.683 184.834 109.683 184.416C110.181 157.408 129.854 123.7 153.087 110.298C153.618 109.993 154.161 109.688 154.703 109.405C158.45 107.312 162.541 105.908 166.783 105.258C167.708 105.129 168.64 105.064 169.574 105.066C171.585 105.049 173.579 105.433 175.439 106.196C175.949 106.399 176.44 106.644 176.908 106.931V106.942Z" fill="#455A64"/>
<path d="M186.024 129.406C186.024 156.527 166.135 191.015 142.597 204.609C141.169 205.44 139.698 206.194 138.19 206.869C134.425 208.685 130.322 209.694 126.144 209.83C124.122 209.853 122.116 209.469 120.245 208.7C120.078 208.649 119.916 208.585 119.76 208.508C119.08 208.189 118.429 207.811 117.816 207.377C116.704 206.602 115.713 205.665 114.878 204.598C114.584 204.202 114.279 203.818 114.008 203.377C114.539 203.377 115.138 203.456 115.658 203.456C120.505 203.456 126.212 201.637 132.145 198.213C155.649 184.698 175.548 150.255 175.548 123.044C175.548 115.575 174.068 109.484 171.254 105.201C173.24 105.332 175.171 105.907 176.905 106.885C177.472 107.194 178.012 107.549 178.52 107.947C179.373 108.639 180.149 109.42 180.837 110.275C183.82 114.016 185.572 119.575 185.933 126.457C185.99 127.451 186.024 128.423 186.024 129.406Z" fill="#37474F"/>
<path opacity="0.6" d="M181.478 126.276C181.478 153.397 161.589 187.885 138.051 201.479C132.118 204.869 126.423 206.722 121.564 206.722C119.546 206.746 117.543 206.362 115.677 205.592C115.394 205.298 115.123 204.971 114.852 204.643C113.71 203.181 112.781 201.564 112.095 199.84C110.373 195.28 109.552 190.43 109.676 185.557C109.676 185.195 109.676 184.845 109.676 184.427C110.174 157.42 129.847 123.711 153.08 110.309C153.611 110.004 154.154 109.699 154.696 109.416C158.443 107.324 162.534 105.919 166.776 105.269C167.701 105.14 168.633 105.076 169.567 105.077C171.578 105.06 173.572 105.444 175.432 106.207C175.737 106.512 176.02 106.84 176.291 107.168C179.681 111.439 181.478 118.05 181.478 126.276Z" fill="white"/>
</g>
<g clip-path="url(#clip1_807_6359)">
<path d="M35.9402 272.542C35.4625 273.592 35.4926 274.802 35.1643 275.91C34.6676 277.574 33.3708 278.932 32.9159 280.592C32.6424 281.691 32.7026 282.846 33.0887 283.91C33.4747 284.975 34.1692 285.9 35.0835 286.567C36.015 287.208 37.0971 287.596 38.2236 287.693C39.3501 287.79 40.4824 287.592 41.5096 287.12C42.941 286.463 44.2082 285.509 45.644 284.851C46.9476 284.258 48.3471 284.057 49.5765 283.237C50.7224 282.481 51.5522 281.332 51.9095 280.007C52.1221 279.2 52.0819 278.348 51.7944 277.565C51.3356 276.255 50.4646 274.425 49.206 273.694C48.0483 273.022 46.7153 273.026 45.4535 272.708C44.1916 272.39 42.997 271.556 41.7666 270.97C39.6397 269.973 37.015 270.173 35.9402 272.542Z" fill="#FFAD34"/>
<path d="M31.9794 277.168C32.0762 276.777 32.139 276.378 32.1671 275.976C32.2756 274.78 31.7913 274.004 30.8362 273.298C30.035 272.756 29.1469 272.356 28.2104 272.115C27.5014 271.889 26.7598 271.782 26.0159 271.799C25.7762 271.804 25.5405 271.862 25.3258 271.969C25.1111 272.076 24.9226 272.228 24.7738 272.416C24.3721 272.968 24.4758 273.74 24.6612 274.4C24.9567 275.415 25.4165 276.374 26.0225 277.239C26.5075 277.96 27.1616 278.551 27.9276 278.962C28.3049 279.172 28.7253 279.294 29.1568 279.318C29.5883 279.341 30.0194 279.266 30.4174 279.097C31.118 278.738 31.6541 278.124 31.9151 277.381L31.9794 277.168Z" fill="#FFAD34"/>
<path d="M27.4766 267.439C26.7345 265.946 26.4284 264.291 27.492 262.917C28.7321 261.312 31.0746 262.312 32.2729 263.43C33.4712 264.548 34.7098 266.278 34.9124 268.023C35.162 270.304 33.3201 271.516 31.2407 270.902C29.5899 270.41 28.2517 268.933 27.4766 267.439Z" fill="#FFAD34"/>
<path d="M46.6131 270.146C46.2318 270.003 45.8635 269.828 45.5123 269.622C44.4622 269.045 44.0881 268.215 44.0426 267.019C44.038 266.051 44.1996 265.09 44.5202 264.178C44.7225 263.479 45.0353 262.817 45.4467 262.218C45.5831 262.021 45.7612 261.857 45.9683 261.737C46.1754 261.617 46.4065 261.544 46.645 261.523C47.3292 261.496 47.9021 261.997 48.3473 262.539C49.0242 263.352 49.565 264.268 49.9487 265.253C50.2938 266.052 50.4382 266.923 50.3693 267.791C50.333 268.221 50.1995 268.638 49.9787 269.009C49.758 269.38 49.4557 269.697 49.0948 269.934C48.4056 270.317 47.5961 270.42 46.8328 270.224L46.6131 270.146Z" fill="#FFAD34"/>
<path d="M41.2586 260.476C40.4416 259.02 39.2038 257.867 37.4723 257.997C35.4482 258.157 34.9956 260.661 35.271 262.277C35.5617 263.967 36.3071 265.876 37.655 267.007C39.409 268.481 41.4503 267.593 42.0778 265.518C42.5723 263.872 42.0755 261.943 41.2586 260.476Z" fill="#FFAD34"/>
<rect x="32" y="265" width="24" height="24" rx="12" fill="#FFAC82" fill-opacity="0.7"/>
<path d="M38.7192 279V268.76L39.8392 269.88H36.4792V267.8H41.3112V279H38.7192Z" fill="white"/>
</g>
<path d="M69.9347 280V266H76.4947C78.1747 266 79.4547 266.333 80.3347 267C81.2147 267.653 81.6547 268.533 81.6547 269.64C81.6547 270.387 81.4814 271.027 81.1347 271.56C80.788 272.08 80.3214 272.487 79.7347 272.78C79.1614 273.06 78.5347 273.2 77.8547 273.2L78.2147 272.48C79.0014 272.48 79.708 272.627 80.3347 272.92C80.9614 273.2 81.4547 273.613 81.8147 274.16C82.188 274.707 82.3747 275.387 82.3747 276.2C82.3747 277.4 81.9147 278.333 80.9947 279C80.0747 279.667 78.708 280 76.8947 280H69.9347ZM72.5347 277.96H76.7347C77.708 277.96 78.4547 277.8 78.9747 277.48C79.4947 277.16 79.7547 276.647 79.7547 275.94C79.7547 275.247 79.4947 274.74 78.9747 274.42C78.4547 274.087 77.708 273.92 76.7347 273.92H72.3347V271.9H76.2147C77.1214 271.9 77.8147 271.74 78.2947 271.42C78.788 271.1 79.0347 270.62 79.0347 269.98C79.0347 269.327 78.788 268.84 78.2947 268.52C77.8147 268.2 77.1214 268.04 76.2147 268.04H72.5347V277.96ZM89.4295 280.14C88.5229 280.14 87.7229 279.973 87.0295 279.64C86.3362 279.293 85.7962 278.773 85.4095 278.08C85.0229 277.373 84.8295 276.487 84.8295 275.42V269.32H87.3295V275.08C87.3295 276.04 87.5429 276.76 87.9695 277.24C88.4095 277.707 89.0295 277.94 89.8295 277.94C90.4162 277.94 90.9229 277.82 91.3495 277.58C91.7895 277.34 92.1295 276.98 92.3695 276.5C92.6229 276.02 92.7495 275.427 92.7495 274.72V269.32H95.2495V280H92.8695V277.12L93.2895 278C92.9295 278.693 92.4029 279.227 91.7095 279.6C91.0162 279.96 90.2562 280.14 89.4295 280.14ZM101.823 280.14C100.929 280.14 100.069 280.027 99.2428 279.8C98.4295 279.56 97.7828 279.273 97.3028 278.94L98.2628 277.04C98.7428 277.347 99.3161 277.6 99.9828 277.8C100.649 278 101.316 278.1 101.983 278.1C102.769 278.1 103.336 277.993 103.683 277.78C104.043 277.567 104.223 277.28 104.223 276.92C104.223 276.627 104.103 276.407 103.863 276.26C103.623 276.1 103.309 275.98 102.923 275.9C102.536 275.82 102.103 275.747 101.623 275.68C101.156 275.613 100.683 275.527 100.203 275.42C99.7361 275.3 99.3095 275.133 98.9228 274.92C98.5361 274.693 98.2228 274.393 97.9828 274.02C97.7428 273.647 97.6228 273.153 97.6228 272.54C97.6228 271.86 97.8161 271.273 98.2028 270.78C98.5895 270.273 99.1295 269.887 99.8228 269.62C100.529 269.34 101.363 269.2 102.323 269.2C103.043 269.2 103.769 269.28 104.503 269.44C105.236 269.6 105.843 269.827 106.323 270.12L105.363 272.02C104.856 271.713 104.343 271.507 103.823 271.4C103.316 271.28 102.809 271.22 102.303 271.22C101.543 271.22 100.976 271.333 100.603 271.56C100.243 271.787 100.063 272.073 100.063 272.42C100.063 272.74 100.183 272.98 100.423 273.14C100.663 273.3 100.976 273.427 101.363 273.52C101.749 273.613 102.176 273.693 102.643 273.76C103.123 273.813 103.596 273.9 104.063 274.02C104.529 274.14 104.956 274.307 105.343 274.52C105.743 274.72 106.063 275.007 106.303 275.38C106.543 275.753 106.663 276.24 106.663 276.84C106.663 277.507 106.463 278.087 106.063 278.58C105.676 279.073 105.123 279.46 104.403 279.74C103.683 280.007 102.823 280.14 101.823 280.14ZM113.716 280.14C112.596 280.14 111.596 279.907 110.716 279.44C109.849 278.96 109.169 278.307 108.676 277.48C108.182 276.653 107.936 275.713 107.936 274.66C107.936 273.593 108.182 272.653 108.676 271.84C109.169 271.013 109.849 270.367 110.716 269.9C111.596 269.433 112.596 269.2 113.716 269.2C114.756 269.2 115.669 269.413 116.456 269.84C117.256 270.253 117.862 270.867 118.276 271.68L116.356 272.8C116.036 272.293 115.642 271.92 115.176 271.68C114.722 271.44 114.229 271.32 113.696 271.32C113.082 271.32 112.529 271.453 112.036 271.72C111.542 271.987 111.156 272.373 110.876 272.88C110.596 273.373 110.456 273.967 110.456 274.66C110.456 275.353 110.596 275.953 110.876 276.46C111.156 276.953 111.542 277.333 112.036 277.6C112.529 277.867 113.082 278 113.696 278C114.229 278 114.722 277.88 115.176 277.64C115.642 277.4 116.036 277.027 116.356 276.52L118.276 277.64C117.862 278.44 117.256 279.06 116.456 279.5C115.669 279.927 114.756 280.14 113.716 280.14ZM127.017 280V277.84L126.877 277.38V273.6C126.877 272.867 126.657 272.3 126.217 271.9C125.777 271.487 125.11 271.28 124.217 271.28C123.617 271.28 123.024 271.373 122.437 271.56C121.864 271.747 121.377 272.007 120.977 272.34L119.997 270.52C120.57 270.08 121.25 269.753 122.037 269.54C122.837 269.313 123.664 269.2 124.517 269.2C126.064 269.2 127.257 269.573 128.097 270.32C128.95 271.053 129.377 272.193 129.377 273.74V280H127.017ZM123.657 280.14C122.857 280.14 122.157 280.007 121.557 279.74C120.957 279.46 120.49 279.08 120.157 278.6C119.837 278.107 119.677 277.553 119.677 276.94C119.677 276.34 119.817 275.8 120.097 275.32C120.39 274.84 120.864 274.46 121.517 274.18C122.17 273.9 123.037 273.76 124.117 273.76H127.217V275.42H124.297C123.444 275.42 122.87 275.56 122.577 275.84C122.284 276.107 122.137 276.44 122.137 276.84C122.137 277.293 122.317 277.653 122.677 277.92C123.037 278.187 123.537 278.32 124.177 278.32C124.79 278.32 125.337 278.18 125.817 277.9C126.31 277.62 126.664 277.207 126.877 276.66L127.297 278.16C127.057 278.787 126.624 279.273 125.997 279.62C125.384 279.967 124.604 280.14 123.657 280.14Z" fill="#48484A"/>
<path d="M25.5852 326V312.909H30.0085C31.0313 312.909 31.8707 313.084 32.527 313.433C33.1832 313.778 33.669 314.254 33.9844 314.859C34.2997 315.464 34.4574 316.152 34.4574 316.923C34.4574 317.695 34.2997 318.379 33.9844 318.975C33.669 319.572 33.1854 320.04 32.5334 320.381C31.8814 320.718 31.0483 320.886 30.0341 320.886H26.4545V319.455H29.983C30.6818 319.455 31.2443 319.352 31.6705 319.148C32.1009 318.943 32.4119 318.653 32.6037 318.278C32.7997 317.899 32.8977 317.447 32.8977 316.923C32.8977 316.399 32.7997 315.941 32.6037 315.549C32.4077 315.157 32.0945 314.854 31.6641 314.641C31.2337 314.424 30.6648 314.315 29.9574 314.315H27.1705V326H25.5852ZM31.7472 320.119L34.9688 326H33.1278L29.9574 320.119H31.7472ZM40.9054 326.205C39.9593 326.205 39.1433 325.996 38.4572 325.578C37.7754 325.156 37.2491 324.568 36.8784 323.814C36.5119 323.055 36.3287 322.173 36.3287 321.168C36.3287 320.162 36.5119 319.276 36.8784 318.509C37.2491 317.737 37.7647 317.136 38.4252 316.706C39.09 316.271 39.8656 316.054 40.752 316.054C41.2633 316.054 41.7683 316.139 42.2669 316.31C42.7654 316.48 43.2193 316.757 43.6284 317.141C44.0375 317.52 44.3635 318.023 44.6064 318.649C44.8493 319.276 44.9707 320.047 44.9707 320.963V321.602H37.4025V320.298H43.4366C43.4366 319.744 43.3258 319.25 43.1042 318.815C42.8869 318.381 42.5758 318.038 42.171 317.786C41.7704 317.535 41.2974 317.409 40.752 317.409C40.1511 317.409 39.6312 317.558 39.1923 317.857C38.7576 318.151 38.4231 318.534 38.1887 319.007C37.9544 319.48 37.8372 319.987 37.8372 320.528V321.398C37.8372 322.139 37.965 322.768 38.2207 323.283C38.4806 323.795 38.8407 324.185 39.301 324.453C39.7612 324.717 40.296 324.849 40.9054 324.849C41.3017 324.849 41.6596 324.794 41.9792 324.683C42.3031 324.568 42.5822 324.398 42.8166 324.172C43.051 323.942 43.2321 323.656 43.3599 323.315L44.8173 323.724C44.6639 324.219 44.4061 324.653 44.0439 325.028C43.6816 325.399 43.2342 325.689 42.7015 325.898C42.1689 326.102 41.5701 326.205 40.9054 326.205ZM51.2285 329.886C50.4998 329.886 49.8734 329.793 49.3493 329.605C48.8251 329.422 48.3883 329.179 48.0389 328.876C47.6937 328.578 47.4189 328.259 47.2143 327.918L48.416 327.074C48.5524 327.253 48.725 327.457 48.9338 327.688C49.1426 327.922 49.4281 328.124 49.7903 328.295C50.1568 328.469 50.6362 328.557 51.2285 328.557C52.0211 328.557 52.6752 328.365 53.1909 327.982C53.7065 327.598 53.9643 326.997 53.9643 326.179V324.185H53.8365C53.7257 324.364 53.568 324.585 53.3635 324.849C53.1632 325.109 52.8734 325.342 52.4941 325.546C52.1191 325.746 51.612 325.847 50.9728 325.847C50.1802 325.847 49.4686 325.659 48.8379 325.284C48.2115 324.909 47.715 324.364 47.3485 323.648C46.9863 322.932 46.8052 322.062 46.8052 321.04C46.8052 320.034 46.9821 319.158 47.3358 318.413C47.6895 317.663 48.1816 317.083 48.8123 316.674C49.443 316.261 50.1717 316.054 50.9984 316.054C51.6376 316.054 52.1447 316.161 52.5197 316.374C52.899 316.582 53.1887 316.821 53.389 317.089C53.5936 317.354 53.7512 317.571 53.862 317.741H54.0154V316.182H55.4728V326.281C55.4728 327.125 55.2811 327.811 54.8976 328.339C54.5183 328.872 54.0069 329.262 53.3635 329.509C52.7243 329.761 52.0126 329.886 51.2285 329.886ZM51.1774 324.491C51.7825 324.491 52.2939 324.353 52.7115 324.076C53.1291 323.799 53.4466 323.401 53.6639 322.881C53.8812 322.361 53.9899 321.739 53.9899 321.014C53.9899 320.307 53.8833 319.683 53.6703 319.141C53.4572 318.6 53.1419 318.176 52.7243 317.869C52.3066 317.562 51.791 317.409 51.1774 317.409C50.5382 317.409 50.0055 317.571 49.5794 317.895C49.1575 318.219 48.84 318.653 48.627 319.199C48.4181 319.744 48.3137 320.349 48.3137 321.014C48.3137 321.696 48.4203 322.299 48.6333 322.823C48.8507 323.343 49.1703 323.752 49.5922 324.05C50.0183 324.344 50.5467 324.491 51.1774 324.491ZM58.2342 326V316.182H59.7427V326H58.2342ZM59.0012 314.545C58.7072 314.545 58.4537 314.445 58.2406 314.245C58.0318 314.045 57.9274 313.804 57.9274 313.523C57.9274 313.241 58.0318 313.001 58.2406 312.8C58.4537 312.6 58.7072 312.5 59.0012 312.5C59.2953 312.5 59.5467 312.6 59.7555 312.8C59.9686 313.001 60.0751 313.241 60.0751 313.523C60.0751 313.804 59.9686 314.045 59.7555 314.245C59.5467 314.445 59.2953 314.545 59.0012 314.545ZM69.4602 318.381L68.1051 318.764C68.0199 318.538 67.8942 318.319 67.728 318.106C67.5661 317.888 67.3445 317.71 67.0632 317.569C66.782 317.428 66.4219 317.358 65.983 317.358C65.3821 317.358 64.8814 317.496 64.4808 317.773C64.0845 318.046 63.8864 318.393 63.8864 318.815C63.8864 319.19 64.0227 319.487 64.2955 319.704C64.5682 319.921 64.9943 320.102 65.5739 320.247L67.0312 320.605C67.9091 320.818 68.5632 321.144 68.9936 321.583C69.424 322.018 69.6392 322.578 69.6392 323.264C69.6392 323.827 69.4773 324.33 69.1534 324.773C68.8338 325.216 68.3864 325.565 67.8111 325.821C67.2358 326.077 66.5668 326.205 65.804 326.205C64.8026 326.205 63.9737 325.987 63.3175 325.553C62.6612 325.118 62.2457 324.483 62.071 323.648L63.5028 323.29C63.6392 323.818 63.897 324.214 64.2763 324.479C64.6598 324.743 65.1605 324.875 65.7784 324.875C66.4815 324.875 67.0398 324.726 67.4531 324.428C67.8707 324.125 68.0795 323.763 68.0795 323.341C68.0795 323 67.9602 322.714 67.7216 322.484C67.483 322.25 67.1165 322.075 66.6222 321.96L64.9858 321.577C64.0866 321.364 63.4261 321.033 63.0043 320.586C62.5866 320.134 62.3778 319.57 62.3778 318.892C62.3778 318.338 62.5334 317.848 62.8445 317.422C63.1598 316.996 63.5881 316.661 64.1293 316.418C64.6747 316.175 65.2926 316.054 65.983 316.054C66.9545 316.054 67.7173 316.267 68.2713 316.693C68.8295 317.119 69.2259 317.682 69.4602 318.381ZM76.1799 316.182V317.46H71.0918V316.182H76.1799ZM72.5748 313.83H74.0833V323.188C74.0833 323.614 74.1451 323.933 74.2686 324.146C74.3965 324.355 74.5584 324.496 74.7544 324.568C74.9547 324.636 75.1657 324.67 75.3873 324.67C75.5534 324.67 75.6898 324.662 75.7963 324.645C75.9029 324.624 75.9881 324.607 76.052 324.594L76.3588 325.949C76.2566 325.987 76.1138 326.026 75.9306 326.064C75.7473 326.107 75.5151 326.128 75.2338 326.128C74.8077 326.128 74.3901 326.036 73.981 325.853C73.5762 325.67 73.2395 325.391 72.9711 325.016C72.7069 324.641 72.5748 324.168 72.5748 323.597V313.83ZM78.449 326V316.182H79.9064V317.665H80.0087C80.1877 317.179 80.5115 316.785 80.9803 316.482C81.449 316.18 81.9775 316.028 82.5655 316.028C82.6763 316.028 82.8148 316.031 82.981 316.035C83.1472 316.039 83.2729 316.045 83.3581 316.054V317.588C83.307 317.575 83.1898 317.556 83.0066 317.531C82.8276 317.501 82.638 317.486 82.4377 317.486C81.9604 317.486 81.5343 317.586 81.1593 317.786C80.7885 317.982 80.4945 318.255 80.2772 318.604C80.0641 318.95 79.9576 319.344 79.9576 319.787V326H78.449ZM88.0355 326.23C87.4134 326.23 86.8487 326.113 86.3416 325.879C85.8345 325.64 85.4318 325.297 85.1335 324.849C84.8352 324.398 84.6861 323.852 84.6861 323.213C84.6861 322.651 84.7969 322.195 85.0185 321.845C85.2401 321.491 85.5362 321.214 85.907 321.014C86.2777 320.814 86.6868 320.665 87.1342 320.567C87.5859 320.464 88.0398 320.384 88.4957 320.324C89.0923 320.247 89.576 320.19 89.9467 320.151C90.3217 320.109 90.5945 320.038 90.7649 319.94C90.9396 319.842 91.027 319.672 91.027 319.429V319.378C91.027 318.747 90.8544 318.257 90.5092 317.908C90.1683 317.558 89.6506 317.384 88.956 317.384C88.2358 317.384 87.6712 317.541 87.2621 317.857C86.853 318.172 86.5653 318.509 86.3991 318.866L84.9673 318.355C85.223 317.759 85.5639 317.294 85.9901 316.962C86.4205 316.625 86.8892 316.391 87.3963 316.259C87.9077 316.122 88.4105 316.054 88.9048 316.054C89.2202 316.054 89.5824 316.092 89.9915 316.169C90.4048 316.241 90.8033 316.393 91.1868 316.623C91.5746 316.853 91.8963 317.2 92.152 317.665C92.4077 318.129 92.5355 318.751 92.5355 319.531V326H91.027V324.67H90.9503C90.848 324.884 90.6776 325.112 90.4389 325.354C90.2003 325.597 89.8828 325.804 89.4865 325.974C89.0902 326.145 88.6065 326.23 88.0355 326.23ZM88.2656 324.875C88.8622 324.875 89.3651 324.758 89.7741 324.523C90.1875 324.289 90.4986 323.987 90.7074 323.616C90.9205 323.245 91.027 322.855 91.027 322.446V321.065C90.9631 321.142 90.8224 321.212 90.6051 321.276C90.392 321.336 90.1449 321.389 89.8636 321.436C89.5866 321.479 89.3161 321.517 89.0518 321.551C88.7919 321.581 88.581 321.607 88.419 321.628C88.027 321.679 87.6605 321.762 87.3196 321.877C86.983 321.988 86.7102 322.156 86.5014 322.382C86.2969 322.604 86.1946 322.906 86.1946 323.29C86.1946 323.814 86.3885 324.21 86.7763 324.479C87.1683 324.743 87.6648 324.875 88.2656 324.875ZM103.241 326.23C102.618 326.23 102.054 326.113 101.547 325.879C101.04 325.64 100.637 325.297 100.339 324.849C100.04 324.398 99.8912 323.852 99.8912 323.213C99.8912 322.651 100.002 322.195 100.224 321.845C100.445 321.491 100.741 321.214 101.112 321.014C101.483 320.814 101.892 320.665 102.339 320.567C102.791 320.464 103.245 320.384 103.701 320.324C104.297 320.247 104.781 320.19 105.152 320.151C105.527 320.109 105.8 320.038 105.97 319.94C106.145 319.842 106.232 319.672 106.232 319.429V319.378C106.232 318.747 106.059 318.257 105.714 317.908C105.373 317.558 104.856 317.384 104.161 317.384C103.441 317.384 102.876 317.541 102.467 317.857C102.058 318.172 101.77 318.509 101.604 318.866L100.172 318.355C100.428 317.759 100.769 317.294 101.195 316.962C101.626 316.625 102.094 316.391 102.601 316.259C103.113 316.122 103.616 316.054 104.11 316.054C104.425 316.054 104.787 316.092 105.197 316.169C105.61 316.241 106.008 316.393 106.392 316.623C106.78 316.853 107.101 317.2 107.357 317.665C107.613 318.129 107.741 318.751 107.741 319.531V326H106.232V324.67H106.155C106.053 324.884 105.883 325.112 105.644 325.354C105.405 325.597 105.088 325.804 104.692 325.974C104.295 326.145 103.812 326.23 103.241 326.23ZM103.471 324.875C104.067 324.875 104.57 324.758 104.979 324.523C105.393 324.289 105.704 323.987 105.912 323.616C106.126 323.245 106.232 322.855 106.232 322.446V321.065C106.168 321.142 106.028 321.212 105.81 321.276C105.597 321.336 105.35 321.389 105.069 321.436C104.792 321.479 104.521 321.517 104.257 321.551C103.997 321.581 103.786 321.607 103.624 321.628C103.232 321.679 102.866 321.762 102.525 321.877C102.188 321.988 101.915 322.156 101.706 322.382C101.502 322.604 101.4 322.906 101.4 323.29C101.4 323.814 101.594 324.21 101.981 324.479C102.373 324.743 102.87 324.875 103.471 324.875ZM119.826 316.182V317.46H114.738V316.182H119.826ZM116.221 313.83H117.73V323.188C117.73 323.614 117.792 323.933 117.915 324.146C118.043 324.355 118.205 324.496 118.401 324.568C118.601 324.636 118.812 324.67 119.034 324.67C119.2 324.67 119.336 324.662 119.443 324.645C119.549 324.624 119.635 324.607 119.699 324.594L120.005 325.949C119.903 325.987 119.76 326.026 119.577 326.064C119.394 326.107 119.162 326.128 118.88 326.128C118.454 326.128 118.037 326.036 117.627 325.853C117.223 325.67 116.886 325.391 116.618 325.016C116.353 324.641 116.221 324.168 116.221 323.597V313.83ZM128.283 321.986V316.182H129.792V326H128.283V324.338H128.181C127.951 324.837 127.593 325.261 127.107 325.61C126.621 325.955 126.007 326.128 125.266 326.128C124.652 326.128 124.107 325.994 123.63 325.725C123.152 325.452 122.777 325.043 122.505 324.498C122.232 323.948 122.096 323.256 122.096 322.42V316.182H123.604V322.318C123.604 323.034 123.804 323.605 124.205 324.031C124.61 324.457 125.125 324.67 125.752 324.67C126.127 324.67 126.508 324.575 126.896 324.383C127.288 324.191 127.616 323.897 127.88 323.501C128.149 323.104 128.283 322.599 128.283 321.986ZM137.617 326V316.182H139.074V317.716H139.202C139.407 317.192 139.737 316.785 140.193 316.495C140.649 316.201 141.197 316.054 141.836 316.054C142.483 316.054 143.023 316.201 143.453 316.495C143.888 316.785 144.226 317.192 144.469 317.716H144.572C144.823 317.209 145.2 316.806 145.703 316.508C146.206 316.205 146.809 316.054 147.512 316.054C148.39 316.054 149.108 316.329 149.666 316.879C150.224 317.424 150.503 318.274 150.503 319.429V326H148.995V319.429C148.995 318.705 148.797 318.187 148.4 317.876C148.004 317.565 147.537 317.409 147.001 317.409C146.31 317.409 145.775 317.618 145.396 318.036C145.017 318.449 144.827 318.973 144.827 319.608V326H143.293V319.276C143.293 318.717 143.112 318.268 142.75 317.927C142.388 317.582 141.921 317.409 141.35 317.409C140.958 317.409 140.591 317.513 140.251 317.722C139.914 317.931 139.641 318.221 139.432 318.592C139.228 318.958 139.126 319.382 139.126 319.864V326H137.617ZM156.151 326.23C155.529 326.23 154.964 326.113 154.457 325.879C153.95 325.64 153.547 325.297 153.249 324.849C152.95 324.398 152.801 323.852 152.801 323.213C152.801 322.651 152.912 322.195 153.134 321.845C153.355 321.491 153.651 321.214 154.022 321.014C154.393 320.814 154.802 320.665 155.249 320.567C155.701 320.464 156.155 320.384 156.611 320.324C157.208 320.247 157.691 320.19 158.062 320.151C158.437 320.109 158.71 320.038 158.88 319.94C159.055 319.842 159.142 319.672 159.142 319.429V319.378C159.142 318.747 158.97 318.257 158.624 317.908C158.284 317.558 157.766 317.384 157.071 317.384C156.351 317.384 155.786 317.541 155.377 317.857C154.968 318.172 154.681 318.509 154.514 318.866L153.083 318.355C153.338 317.759 153.679 317.294 154.105 316.962C154.536 316.625 155.004 316.391 155.512 316.259C156.023 316.122 156.526 316.054 157.02 316.054C157.335 316.054 157.698 316.092 158.107 316.169C158.52 316.241 158.919 316.393 159.302 316.623C159.69 316.853 160.012 317.2 160.267 317.665C160.523 318.129 160.651 318.751 160.651 319.531V326H159.142V324.67H159.066C158.963 324.884 158.793 325.112 158.554 325.354C158.316 325.597 157.998 325.804 157.602 325.974C157.205 326.145 156.722 326.23 156.151 326.23ZM156.381 324.875C156.977 324.875 157.48 324.758 157.889 324.523C158.303 324.289 158.614 323.987 158.823 323.616C159.036 323.245 159.142 322.855 159.142 322.446V321.065C159.078 321.142 158.938 321.212 158.72 321.276C158.507 321.336 158.26 321.389 157.979 321.436C157.702 321.479 157.431 321.517 157.167 321.551C156.907 321.581 156.696 321.607 156.534 321.628C156.142 321.679 155.776 321.762 155.435 321.877C155.098 321.988 154.825 322.156 154.617 322.382C154.412 322.604 154.31 322.906 154.31 323.29C154.31 323.814 154.504 324.21 154.892 324.479C155.284 324.743 155.78 324.875 156.381 324.875ZM170.359 318.381L169.004 318.764C168.918 318.538 168.793 318.319 168.626 318.106C168.464 317.888 168.243 317.71 167.962 317.569C167.68 317.428 167.32 317.358 166.881 317.358C166.281 317.358 165.78 317.496 165.379 317.773C164.983 318.046 164.785 318.393 164.785 318.815C164.785 319.19 164.921 319.487 165.194 319.704C165.467 319.921 165.893 320.102 166.472 320.247L167.93 320.605C168.808 320.818 169.462 321.144 169.892 321.583C170.322 322.018 170.538 322.578 170.538 323.264C170.538 323.827 170.376 324.33 170.052 324.773C169.732 325.216 169.285 325.565 168.71 325.821C168.134 326.077 167.465 326.205 166.702 326.205C165.701 326.205 164.872 325.987 164.216 325.553C163.56 325.118 163.144 324.483 162.969 323.648L164.401 323.29C164.538 323.818 164.795 324.214 165.175 324.479C165.558 324.743 166.059 324.875 166.677 324.875C167.38 324.875 167.938 324.726 168.352 324.428C168.769 324.125 168.978 323.763 168.978 323.341C168.978 323 168.859 322.714 168.62 322.484C168.381 322.25 168.015 322.075 167.521 321.96L165.884 321.577C164.985 321.364 164.325 321.033 163.903 320.586C163.485 320.134 163.276 319.57 163.276 318.892C163.276 318.338 163.432 317.848 163.743 317.422C164.058 316.996 164.487 316.661 165.028 316.418C165.573 316.175 166.191 316.054 166.881 316.054C167.853 316.054 168.616 316.267 169.17 316.693C169.728 317.119 170.124 317.682 170.359 318.381ZM176.797 326.205C175.877 326.205 175.084 325.987 174.419 325.553C173.754 325.118 173.243 324.519 172.885 323.756C172.527 322.994 172.348 322.122 172.348 321.142C172.348 320.145 172.531 319.265 172.898 318.502C173.269 317.735 173.784 317.136 174.445 316.706C175.11 316.271 175.885 316.054 176.771 316.054C177.462 316.054 178.084 316.182 178.638 316.438C179.192 316.693 179.646 317.051 179.999 317.511C180.353 317.972 180.573 318.509 180.658 319.122H179.149C179.034 318.675 178.779 318.278 178.382 317.933C177.99 317.584 177.462 317.409 176.797 317.409C176.209 317.409 175.693 317.562 175.25 317.869C174.811 318.172 174.468 318.6 174.221 319.154C173.978 319.704 173.857 320.349 173.857 321.091C173.857 321.849 173.976 322.51 174.215 323.072C174.458 323.635 174.798 324.072 175.237 324.383C175.681 324.694 176.2 324.849 176.797 324.849C177.189 324.849 177.545 324.781 177.865 324.645C178.184 324.509 178.455 324.312 178.676 324.057C178.898 323.801 179.056 323.494 179.149 323.136H180.658C180.573 323.716 180.362 324.238 180.025 324.702C179.693 325.163 179.252 325.529 178.702 325.802C178.156 326.07 177.521 326.205 176.797 326.205ZM186.852 326.205C185.965 326.205 185.188 325.994 184.519 325.572C183.854 325.15 183.334 324.56 182.959 323.801C182.588 323.043 182.403 322.156 182.403 321.142C182.403 320.119 182.588 319.227 182.959 318.464C183.334 317.701 183.854 317.109 184.519 316.687C185.188 316.265 185.965 316.054 186.852 316.054C187.738 316.054 188.514 316.265 189.178 316.687C189.847 317.109 190.367 317.701 190.738 318.464C191.113 319.227 191.301 320.119 191.301 321.142C191.301 322.156 191.113 323.043 190.738 323.801C190.367 324.56 189.847 325.15 189.178 325.572C188.514 325.994 187.738 326.205 186.852 326.205ZM186.852 324.849C187.525 324.849 188.079 324.677 188.514 324.332C188.948 323.987 189.27 323.533 189.479 322.97C189.688 322.408 189.792 321.798 189.792 321.142C189.792 320.486 189.688 319.874 189.479 319.308C189.27 318.741 188.948 318.283 188.514 317.933C188.079 317.584 187.525 317.409 186.852 317.409C186.178 317.409 185.624 317.584 185.19 317.933C184.755 318.283 184.433 318.741 184.225 319.308C184.016 319.874 183.911 320.486 183.911 321.142C183.911 321.798 184.016 322.408 184.225 322.97C184.433 323.533 184.755 323.987 185.19 324.332C185.624 324.677 186.178 324.849 186.852 324.849ZM197.873 316.182V317.46H192.785V316.182H197.873ZM194.268 313.83H195.777V323.188C195.777 323.614 195.838 323.933 195.962 324.146C196.09 324.355 196.252 324.496 196.448 324.568C196.648 324.636 196.859 324.67 197.081 324.67C197.247 324.67 197.383 324.662 197.49 324.645C197.596 324.624 197.681 324.607 197.745 324.594L198.052 325.949C197.95 325.987 197.807 326.026 197.624 326.064C197.441 326.107 197.208 326.128 196.927 326.128C196.501 326.128 196.083 326.036 195.674 325.853C195.27 325.67 194.933 325.391 194.664 325.016C194.4 324.641 194.268 324.168 194.268 323.597V313.83ZM203.032 326.23C202.409 326.23 201.845 326.113 201.338 325.879C200.831 325.64 200.428 325.297 200.13 324.849C199.831 324.398 199.682 323.852 199.682 323.213C199.682 322.651 199.793 322.195 200.015 321.845C200.236 321.491 200.532 321.214 200.903 321.014C201.274 320.814 201.683 320.665 202.13 320.567C202.582 320.464 203.036 320.384 203.492 320.324C204.088 320.247 204.572 320.19 204.943 320.151C205.318 320.109 205.591 320.038 205.761 319.94C205.936 319.842 206.023 319.672 206.023 319.429V319.378C206.023 318.747 205.85 318.257 205.505 317.908C205.164 317.558 204.647 317.384 203.952 317.384C203.232 317.384 202.667 317.541 202.258 317.857C201.849 318.172 201.561 318.509 201.395 318.866L199.963 318.355C200.219 317.759 200.56 317.294 200.986 316.962C201.417 316.625 201.885 316.391 202.392 316.259C202.904 316.122 203.407 316.054 203.901 316.054C204.216 316.054 204.578 316.092 204.988 316.169C205.401 316.241 205.799 316.393 206.183 316.623C206.571 316.853 206.892 317.2 207.148 317.665C207.404 318.129 207.532 318.751 207.532 319.531V326H206.023V324.67H205.946C205.844 324.884 205.674 325.112 205.435 325.354C205.196 325.597 204.879 325.804 204.483 325.974C204.086 326.145 203.603 326.23 203.032 326.23ZM203.262 324.875C203.858 324.875 204.361 324.758 204.77 324.523C205.184 324.289 205.495 323.987 205.703 323.616C205.917 323.245 206.023 322.855 206.023 322.446V321.065C205.959 321.142 205.819 321.212 205.601 321.276C205.388 321.336 205.141 321.389 204.86 321.436C204.583 321.479 204.312 321.517 204.048 321.551C203.788 321.581 203.577 321.607 203.415 321.628C203.023 321.679 202.657 321.762 202.316 321.877C201.979 321.988 201.706 322.156 201.498 322.382C201.293 322.604 201.191 322.906 201.191 323.29C201.191 323.814 201.385 324.21 201.772 324.479C202.164 324.743 202.661 324.875 203.262 324.875ZM215.347 329.682V316.182H216.805V317.741H216.984C217.095 317.571 217.248 317.354 217.444 317.089C217.644 316.821 217.93 316.582 218.301 316.374C218.676 316.161 219.183 316.054 219.822 316.054C220.649 316.054 221.377 316.261 222.008 316.674C222.639 317.087 223.131 317.673 223.485 318.432C223.838 319.19 224.015 320.085 224.015 321.116C224.015 322.156 223.838 323.058 223.485 323.82C223.131 324.579 222.641 325.167 222.014 325.585C221.388 325.998 220.666 326.205 219.847 326.205C219.217 326.205 218.712 326.1 218.333 325.891C217.953 325.678 217.661 325.437 217.457 325.169C217.252 324.896 217.095 324.67 216.984 324.491H216.856V329.682H215.347ZM216.83 321.091C216.83 321.832 216.939 322.487 217.156 323.053C217.374 323.616 217.691 324.057 218.109 324.376C218.526 324.692 219.038 324.849 219.643 324.849C220.274 324.849 220.8 324.683 221.222 324.351C221.648 324.014 221.968 323.562 222.181 322.996C222.398 322.425 222.507 321.79 222.507 321.091C222.507 320.401 222.4 319.778 222.187 319.224C221.978 318.666 221.661 318.225 221.235 317.901C220.813 317.573 220.282 317.409 219.643 317.409C219.029 317.409 218.514 317.565 218.096 317.876C217.678 318.183 217.363 318.613 217.15 319.167C216.937 319.717 216.83 320.358 216.83 321.091ZM230.433 326.205C229.487 326.205 228.671 325.996 227.985 325.578C227.303 325.156 226.776 324.568 226.406 323.814C226.039 323.055 225.856 322.173 225.856 321.168C225.856 320.162 226.039 319.276 226.406 318.509C226.776 317.737 227.292 317.136 227.953 316.706C228.617 316.271 229.393 316.054 230.279 316.054C230.791 316.054 231.296 316.139 231.794 316.31C232.293 316.48 232.747 316.757 233.156 317.141C233.565 317.52 233.891 318.023 234.134 318.649C234.377 319.276 234.498 320.047 234.498 320.963V321.602H226.93V320.298H232.964C232.964 319.744 232.853 319.25 232.632 318.815C232.414 318.381 232.103 318.038 231.698 317.786C231.298 317.535 230.825 317.409 230.279 317.409C229.678 317.409 229.159 317.558 228.72 317.857C228.285 318.151 227.95 318.534 227.716 319.007C227.482 319.48 227.365 319.987 227.365 320.528V321.398C227.365 322.139 227.492 322.768 227.748 323.283C228.008 323.795 228.368 324.185 228.828 324.453C229.289 324.717 229.823 324.849 230.433 324.849C230.829 324.849 231.187 324.794 231.507 324.683C231.83 324.568 232.11 324.398 232.344 324.172C232.578 323.942 232.759 323.656 232.887 323.315L234.345 323.724C234.191 324.219 233.933 324.653 233.571 325.028C233.209 325.399 232.762 325.689 232.229 325.898C231.696 326.102 231.097 326.205 230.433 326.205ZM236.793 326V316.182H238.25V317.665H238.352C238.531 317.179 238.855 316.785 239.324 316.482C239.793 316.18 240.321 316.028 240.909 316.028C241.02 316.028 241.159 316.031 241.325 316.035C241.491 316.039 241.617 316.045 241.702 316.054V317.588C241.651 317.575 241.534 317.556 241.35 317.531C241.171 317.501 240.982 317.486 240.781 317.486C240.304 317.486 239.878 317.586 239.503 317.786C239.132 317.982 238.838 318.255 238.621 318.604C238.408 318.95 238.301 319.344 238.301 319.787V326H236.793ZM246.899 326.205C246.08 326.205 245.358 325.998 244.732 325.585C244.105 325.167 243.615 324.579 243.262 323.82C242.908 323.058 242.731 322.156 242.731 321.116C242.731 320.085 242.908 319.19 243.262 318.432C243.615 317.673 244.107 317.087 244.738 316.674C245.369 316.261 246.097 316.054 246.924 316.054C247.563 316.054 248.068 316.161 248.439 316.374C248.814 316.582 249.1 316.821 249.296 317.089C249.496 317.354 249.651 317.571 249.762 317.741H249.89V312.909H251.399V326H249.941V324.491H249.762C249.651 324.67 249.494 324.896 249.289 325.169C249.085 325.437 248.793 325.678 248.414 325.891C248.034 326.1 247.529 326.205 246.899 326.205ZM247.103 324.849C247.708 324.849 248.22 324.692 248.637 324.376C249.055 324.057 249.372 323.616 249.59 323.053C249.807 322.487 249.916 321.832 249.916 321.091C249.916 320.358 249.809 319.717 249.596 319.167C249.383 318.613 249.068 318.183 248.65 317.876C248.232 317.565 247.717 317.409 247.103 317.409C246.464 317.409 245.931 317.573 245.505 317.901C245.083 318.225 244.766 318.666 244.553 319.224C244.344 319.778 244.24 320.401 244.24 321.091C244.24 321.79 244.346 322.425 244.559 322.996C244.776 323.562 245.096 324.014 245.518 324.351C245.944 324.683 246.472 324.849 247.103 324.849ZM254.371 326V316.182H255.879V326H254.371ZM255.138 314.545C254.844 314.545 254.59 314.445 254.377 314.245C254.169 314.045 254.064 313.804 254.064 313.523C254.064 313.241 254.169 313.001 254.377 312.8C254.59 312.6 254.844 312.5 255.138 312.5C255.432 312.5 255.683 312.6 255.892 312.8C256.105 313.001 256.212 313.241 256.212 313.523C256.212 313.804 256.105 314.045 255.892 314.245C255.683 314.445 255.432 314.545 255.138 314.545ZM262.35 326.205C261.532 326.205 260.809 325.998 260.183 325.585C259.556 325.167 259.066 324.579 258.713 323.82C258.359 323.058 258.182 322.156 258.182 321.116C258.182 320.085 258.359 319.19 258.713 318.432C259.066 317.673 259.559 317.087 260.189 316.674C260.82 316.261 261.549 316.054 262.375 316.054C263.015 316.054 263.52 316.161 263.89 316.374C264.265 316.582 264.551 316.821 264.747 317.089C264.947 317.354 265.103 317.571 265.213 317.741H265.341V312.909H266.85V326H265.392V324.491H265.213C265.103 324.67 264.945 324.896 264.74 325.169C264.536 325.437 264.244 325.678 263.865 325.891C263.485 326.1 262.98 326.205 262.35 326.205ZM262.554 324.849C263.159 324.849 263.671 324.692 264.088 324.376C264.506 324.057 264.824 323.616 265.041 323.053C265.258 322.487 265.367 321.832 265.367 321.091C265.367 320.358 265.26 319.717 265.047 319.167C264.834 318.613 264.519 318.183 264.101 317.876C263.684 317.565 263.168 317.409 262.554 317.409C261.915 317.409 261.382 317.573 260.956 317.901C260.534 318.225 260.217 318.666 260.004 319.224C259.795 319.778 259.691 320.401 259.691 321.091C259.691 321.79 259.797 322.425 260.01 322.996C260.228 323.562 260.547 324.014 260.969 324.351C261.395 324.683 261.924 324.849 262.554 324.849ZM272.711 326.23C272.089 326.23 271.525 326.113 271.017 325.879C270.51 325.64 270.108 325.297 269.809 324.849C269.511 324.398 269.362 323.852 269.362 323.213C269.362 322.651 269.473 322.195 269.694 321.845C269.916 321.491 270.212 321.214 270.583 321.014C270.953 320.814 271.363 320.665 271.81 320.567C272.262 320.464 272.716 320.384 273.172 320.324C273.768 320.247 274.252 320.19 274.623 320.151C274.998 320.109 275.27 320.038 275.441 319.94C275.615 319.842 275.703 319.672 275.703 319.429V319.378C275.703 318.747 275.53 318.257 275.185 317.908C274.844 317.558 274.326 317.384 273.632 317.384C272.912 317.384 272.347 317.541 271.938 317.857C271.529 318.172 271.241 318.509 271.075 318.866L269.643 318.355C269.899 317.759 270.24 317.294 270.666 316.962C271.096 316.625 271.565 316.391 272.072 316.259C272.583 316.122 273.086 316.054 273.581 316.054C273.896 316.054 274.258 316.092 274.667 316.169C275.081 316.241 275.479 316.393 275.863 316.623C276.25 316.853 276.572 317.2 276.828 317.665C277.083 318.129 277.211 318.751 277.211 319.531V326H275.703V324.67H275.626C275.524 324.884 275.353 325.112 275.115 325.354C274.876 325.597 274.559 325.804 274.162 325.974C273.766 326.145 273.282 326.23 272.711 326.23ZM272.941 324.875C273.538 324.875 274.041 324.758 274.45 324.523C274.863 324.289 275.174 323.987 275.383 323.616C275.596 323.245 275.703 322.855 275.703 322.446V321.065C275.639 321.142 275.498 321.212 275.281 321.276C275.068 321.336 274.821 321.389 274.539 321.436C274.262 321.479 273.992 321.517 273.728 321.551C273.468 321.581 273.257 321.607 273.095 321.628C272.703 321.679 272.336 321.762 271.995 321.877C271.659 321.988 271.386 322.156 271.177 322.382C270.973 322.604 270.87 322.906 270.87 323.29C270.87 323.814 271.064 324.21 271.452 324.479C271.844 324.743 272.341 324.875 272.941 324.875ZM289.016 326.205C288.095 326.205 287.303 325.987 286.638 325.553C285.973 325.118 285.462 324.519 285.104 323.756C284.746 322.994 284.567 322.122 284.567 321.142C284.567 320.145 284.75 319.265 285.117 318.502C285.487 317.735 286.003 317.136 286.664 316.706C287.328 316.271 288.104 316.054 288.99 316.054C289.681 316.054 290.303 316.182 290.857 316.438C291.411 316.693 291.865 317.051 292.218 317.511C292.572 317.972 292.791 318.509 292.877 319.122H291.368C291.253 318.675 290.997 318.278 290.601 317.933C290.209 317.584 289.681 317.409 289.016 317.409C288.428 317.409 287.912 317.562 287.469 317.869C287.03 318.172 286.687 318.6 286.44 319.154C286.197 319.704 286.075 320.349 286.075 321.091C286.075 321.849 286.195 322.51 286.433 323.072C286.676 323.635 287.017 324.072 287.456 324.383C287.899 324.694 288.419 324.849 289.016 324.849C289.408 324.849 289.764 324.781 290.083 324.645C290.403 324.509 290.673 324.312 290.895 324.057C291.117 323.801 291.274 323.494 291.368 323.136H292.877C292.791 323.716 292.58 324.238 292.244 324.702C291.911 325.163 291.47 325.529 290.921 325.802C290.375 326.07 289.74 326.205 289.016 326.205ZM299.07 326.205C298.184 326.205 297.406 325.994 296.737 325.572C296.073 325.15 295.553 324.56 295.178 323.801C294.807 323.043 294.622 322.156 294.622 321.142C294.622 320.119 294.807 319.227 295.178 318.464C295.553 317.701 296.073 317.109 296.737 316.687C297.406 316.265 298.184 316.054 299.07 316.054C299.957 316.054 300.732 316.265 301.397 316.687C302.066 317.109 302.586 317.701 302.957 318.464C303.332 319.227 303.519 320.119 303.519 321.142C303.519 322.156 303.332 323.043 302.957 323.801C302.586 324.56 302.066 325.15 301.397 325.572C300.732 325.994 299.957 326.205 299.07 326.205ZM299.07 324.849C299.744 324.849 300.298 324.677 300.732 324.332C301.167 323.987 301.489 323.533 301.698 322.97C301.906 322.408 302.011 321.798 302.011 321.142C302.011 320.486 301.906 319.874 301.698 319.308C301.489 318.741 301.167 318.283 300.732 317.933C300.298 317.584 299.744 317.409 299.07 317.409C298.397 317.409 297.843 317.584 297.409 317.933C296.974 318.283 296.652 318.741 296.443 319.308C296.235 319.874 296.13 320.486 296.13 321.142C296.13 321.798 296.235 322.408 296.443 322.97C296.652 323.533 296.974 323.987 297.409 324.332C297.843 324.677 298.397 324.849 299.07 324.849ZM307.331 320.094V326H305.822V316.182H307.279V317.716H307.407C307.637 317.217 307.987 316.817 308.456 316.514C308.924 316.207 309.529 316.054 310.271 316.054C310.936 316.054 311.517 316.19 312.016 316.463C312.515 316.732 312.902 317.141 313.179 317.69C313.456 318.236 313.595 318.926 313.595 319.761V326H312.086V319.864C312.086 319.092 311.886 318.491 311.485 318.061C311.085 317.626 310.535 317.409 309.836 317.409C309.355 317.409 308.924 317.513 308.545 317.722C308.17 317.931 307.874 318.236 307.657 318.636C307.439 319.037 307.331 319.523 307.331 320.094ZM26.8892 334.909V348H25.3807V334.909H26.8892ZM32.5414 348.23C31.9192 348.23 31.3546 348.113 30.8475 347.879C30.3404 347.64 29.9377 347.297 29.6394 346.849C29.3411 346.398 29.1919 345.852 29.1919 345.213C29.1919 344.651 29.3027 344.195 29.5243 343.845C29.7459 343.491 30.0421 343.214 30.4128 343.014C30.7836 342.814 31.1926 342.665 31.6401 342.567C32.0918 342.464 32.5456 342.384 33.0016 342.324C33.5982 342.247 34.0819 342.19 34.4526 342.151C34.8276 342.109 35.1003 342.038 35.2708 341.94C35.4455 341.842 35.5328 341.672 35.5328 341.429V341.378C35.5328 340.747 35.3603 340.257 35.0151 339.908C34.6742 339.558 34.1564 339.384 33.4618 339.384C32.7417 339.384 32.177 339.541 31.7679 339.857C31.3588 340.172 31.0712 340.509 30.905 340.866L29.4732 340.355C29.7289 339.759 30.0698 339.294 30.4959 338.962C30.9263 338.625 31.3951 338.391 31.9022 338.259C32.4135 338.122 32.9164 338.054 33.4107 338.054C33.726 338.054 34.0882 338.092 34.4973 338.169C34.9107 338.241 35.3091 338.393 35.6926 338.623C36.0804 338.853 36.4022 339.2 36.6578 339.665C36.9135 340.129 37.0414 340.751 37.0414 341.531V348H35.5328V346.67H35.4561C35.3539 346.884 35.1834 347.112 34.9448 347.354C34.7061 347.597 34.3887 347.804 33.9924 347.974C33.5961 348.145 33.1124 348.23 32.5414 348.23ZM32.7715 346.875C33.3681 346.875 33.8709 346.758 34.28 346.523C34.6934 346.289 35.0044 345.987 35.2132 345.616C35.4263 345.245 35.5328 344.855 35.5328 344.446V343.065C35.4689 343.142 35.3283 343.212 35.111 343.276C34.8979 343.336 34.6507 343.389 34.3695 343.436C34.0925 343.479 33.8219 343.517 33.5577 343.551C33.2978 343.581 33.0868 343.607 32.9249 343.628C32.5328 343.679 32.1664 343.762 31.8255 343.877C31.4888 343.988 31.2161 344.156 31.0073 344.382C30.8027 344.604 30.7005 344.906 30.7005 345.29C30.7005 345.814 30.8944 346.21 31.2821 346.479C31.6742 346.743 32.1706 346.875 32.7715 346.875ZM47.7464 348.23C47.1243 348.23 46.5597 348.113 46.0526 347.879C45.5455 347.64 45.1428 347.297 44.8445 346.849C44.5462 346.398 44.397 345.852 44.397 345.213C44.397 344.651 44.5078 344.195 44.7294 343.845C44.951 343.491 45.2472 343.214 45.6179 343.014C45.9886 342.814 46.3977 342.665 46.8452 342.567C47.2969 342.464 47.7507 342.384 48.2067 342.324C48.8033 342.247 49.2869 342.19 49.6577 342.151C50.0327 342.109 50.3054 342.038 50.4759 341.94C50.6506 341.842 50.7379 341.672 50.7379 341.429V341.378C50.7379 340.747 50.5653 340.257 50.2202 339.908C49.8793 339.558 49.3615 339.384 48.6669 339.384C47.9467 339.384 47.3821 339.541 46.973 339.857C46.5639 340.172 46.2763 340.509 46.1101 340.866L44.6783 340.355C44.9339 339.759 45.2749 339.294 45.701 338.962C46.1314 338.625 46.6001 338.391 47.1072 338.259C47.6186 338.122 48.1214 338.054 48.6158 338.054C48.9311 338.054 49.2933 338.092 49.7024 338.169C50.1158 338.241 50.5142 338.393 50.8977 338.623C51.2855 338.853 51.6072 339.2 51.8629 339.665C52.1186 340.129 52.2464 340.751 52.2464 341.531V348H50.7379V346.67H50.6612C50.5589 346.884 50.3885 347.112 50.1499 347.354C49.9112 347.597 49.5938 347.804 49.1974 347.974C48.8011 348.145 48.3175 348.23 47.7464 348.23ZM47.9766 346.875C48.5732 346.875 49.076 346.758 49.4851 346.523C49.8984 346.289 50.2095 345.987 50.4183 345.616C50.6314 345.245 50.7379 344.855 50.7379 344.446V343.065C50.674 343.142 50.5334 343.212 50.3161 343.276C50.103 343.336 49.8558 343.389 49.5746 343.436C49.2976 343.479 49.027 343.517 48.7628 343.551C48.5028 343.581 48.2919 343.607 48.13 343.628C47.7379 343.679 47.3714 343.762 47.0305 343.877C46.6939 343.988 46.4212 344.156 46.2124 344.382C46.0078 344.604 45.9055 344.906 45.9055 345.29C45.9055 345.814 46.0994 346.21 46.4872 346.479C46.8793 346.743 47.3757 346.875 47.9766 346.875ZM55.6199 351.682C55.3642 351.682 55.1362 351.661 54.9359 351.618C54.7356 351.58 54.5971 351.541 54.5204 351.503L54.9039 350.173C55.2704 350.267 55.5943 350.301 55.8755 350.276C56.1568 350.25 56.4061 350.124 56.6234 349.898C56.845 349.677 57.0474 349.317 57.2306 348.818L57.5119 348.051L53.8812 338.182H55.5176L58.2278 346.006H58.3301L61.0403 338.182H62.6767L58.5091 349.432C58.3216 349.939 58.0893 350.359 57.8123 350.691C57.5353 351.028 57.2136 351.277 56.8471 351.439C56.4849 351.601 56.0758 351.682 55.6199 351.682ZM70.8553 343.986V338.182H72.3638V348H70.8553V346.338H70.753C70.5229 346.837 70.165 347.261 69.6792 347.61C69.1934 347.955 68.5797 348.128 67.8382 348.128C67.2246 348.128 66.6792 347.994 66.2019 347.725C65.7246 347.452 65.3496 347.043 65.0769 346.498C64.8042 345.948 64.6678 345.256 64.6678 344.42V338.182H66.1763V344.318C66.1763 345.034 66.3766 345.605 66.7772 346.031C67.182 346.457 67.6976 346.67 68.324 346.67C68.699 346.67 69.0804 346.575 69.4682 346.383C69.8603 346.191 70.1884 345.897 70.4526 345.501C70.7211 345.104 70.8553 344.599 70.8553 343.986ZM78.8342 348.205C78.016 348.205 77.2937 347.998 76.6673 347.585C76.0408 347.167 75.5508 346.579 75.1971 345.82C74.8434 345.058 74.6665 344.156 74.6665 343.116C74.6665 342.085 74.8434 341.19 75.1971 340.432C75.5508 339.673 76.043 339.087 76.6737 338.674C77.3043 338.261 78.033 338.054 78.8597 338.054C79.4989 338.054 80.0039 338.161 80.3746 338.374C80.7496 338.582 81.0352 338.821 81.2312 339.089C81.4315 339.354 81.587 339.571 81.6978 339.741H81.8256V334.909H83.3342V348H81.8768V346.491H81.6978C81.587 346.67 81.4293 346.896 81.2248 347.169C81.0202 347.437 80.7283 347.678 80.3491 347.891C79.9698 348.1 79.4648 348.205 78.8342 348.205ZM79.0387 346.849C79.6438 346.849 80.1552 346.692 80.5728 346.376C80.9904 346.057 81.3079 345.616 81.5252 345.053C81.7425 344.487 81.8512 343.832 81.8512 343.091C81.8512 342.358 81.7447 341.717 81.5316 341.167C81.3185 340.613 81.0032 340.183 80.5856 339.876C80.168 339.565 79.6523 339.409 79.0387 339.409C78.3995 339.409 77.8668 339.573 77.4407 339.901C77.0188 340.225 76.7013 340.666 76.4883 341.224C76.2795 341.778 76.1751 342.401 76.1751 343.091C76.1751 343.79 76.2816 344.425 76.4947 344.996C76.712 345.562 77.0316 346.014 77.4535 346.351C77.8796 346.683 78.408 346.849 79.0387 346.849ZM89.1957 348.23C88.5735 348.23 88.0089 348.113 87.5018 347.879C86.9947 347.64 86.592 347.297 86.2937 346.849C85.9954 346.398 85.8462 345.852 85.8462 345.213C85.8462 344.651 85.957 344.195 86.1786 343.845C86.4002 343.491 86.6964 343.214 87.0671 343.014C87.4379 342.814 87.8469 342.665 88.2944 342.567C88.7461 342.464 89.1999 342.384 89.6559 342.324C90.2525 342.247 90.7362 342.19 91.1069 342.151C91.4819 342.109 91.7546 342.038 91.9251 341.94C92.0998 341.842 92.1871 341.672 92.1871 341.429V341.378C92.1871 340.747 92.0146 340.257 91.6694 339.908C91.3285 339.558 90.8107 339.384 90.1161 339.384C89.396 339.384 88.8313 339.541 88.4222 339.857C88.0131 340.172 87.7255 340.509 87.5593 340.866L86.1275 340.355C86.3832 339.759 86.7241 339.294 87.1502 338.962C87.5806 338.625 88.0494 338.391 88.5565 338.259C89.0678 338.122 89.5707 338.054 90.065 338.054C90.3803 338.054 90.7425 338.092 91.1516 338.169C91.565 338.241 91.9634 338.393 92.3469 338.623C92.7347 338.853 93.0565 339.2 93.3121 339.665C93.5678 340.129 93.6957 340.751 93.6957 341.531V348H92.1871V346.67H92.1104C92.0082 346.884 91.8377 347.112 91.5991 347.354C91.3604 347.597 91.043 347.804 90.6467 347.974C90.2504 348.145 89.7667 348.23 89.1957 348.23ZM89.4258 346.875C90.0224 346.875 90.5252 346.758 90.9343 346.523C91.3477 346.289 91.6587 345.987 91.8675 345.616C92.0806 345.245 92.1871 344.855 92.1871 344.446V343.065C92.1232 343.142 91.9826 343.212 91.7653 343.276C91.5522 343.336 91.305 343.389 91.0238 343.436C90.7468 343.479 90.4762 343.517 90.212 343.551C89.9521 343.581 89.7411 343.607 89.5792 343.628C89.1871 343.679 88.8207 343.762 88.4798 343.877C88.1431 343.988 87.8704 344.156 87.6616 344.382C87.457 344.604 87.3548 344.906 87.3548 345.29C87.3548 345.814 87.5487 346.21 87.9364 346.479C88.3285 346.743 88.8249 346.875 89.4258 346.875ZM105.219 348.205C104.401 348.205 103.678 347.998 103.052 347.585C102.426 347.167 101.936 346.579 101.582 345.82C101.228 345.058 101.051 344.156 101.051 343.116C101.051 342.085 101.228 341.19 101.582 340.432C101.936 339.673 102.428 339.087 103.058 338.674C103.689 338.261 104.418 338.054 105.244 338.054C105.884 338.054 106.389 338.161 106.759 338.374C107.134 338.582 107.42 338.821 107.616 339.089C107.816 339.354 107.972 339.571 108.083 339.741H108.21V334.909H109.719V348H108.262V346.491H108.083C107.972 346.67 107.814 346.896 107.61 347.169C107.405 347.437 107.113 347.678 106.734 347.891C106.355 348.1 105.85 348.205 105.219 348.205ZM105.423 346.849C106.029 346.849 106.54 346.692 106.958 346.376C107.375 346.057 107.693 345.616 107.91 345.053C108.127 344.487 108.236 343.832 108.236 343.091C108.236 342.358 108.129 341.717 107.916 341.167C107.703 340.613 107.388 340.183 106.97 339.876C106.553 339.565 106.037 339.409 105.423 339.409C104.784 339.409 104.252 339.573 103.825 339.901C103.404 340.225 103.086 340.666 102.873 341.224C102.664 341.778 102.56 342.401 102.56 343.091C102.56 343.79 102.666 344.425 102.879 344.996C103.097 345.562 103.416 346.014 103.838 346.351C104.264 346.683 104.793 346.849 105.423 346.849ZM116.808 348.205C115.862 348.205 115.046 347.996 114.36 347.578C113.678 347.156 113.151 346.568 112.781 345.814C112.414 345.055 112.231 344.173 112.231 343.168C112.231 342.162 112.414 341.276 112.781 340.509C113.151 339.737 113.667 339.136 114.328 338.706C114.992 338.271 115.768 338.054 116.654 338.054C117.166 338.054 117.671 338.139 118.169 338.31C118.668 338.48 119.122 338.757 119.531 339.141C119.94 339.52 120.266 340.023 120.509 340.649C120.752 341.276 120.873 342.047 120.873 342.963V343.602H113.305V342.298H119.339C119.339 341.744 119.228 341.25 119.007 340.815C118.789 340.381 118.478 340.038 118.073 339.786C117.673 339.535 117.2 339.409 116.654 339.409C116.053 339.409 115.534 339.558 115.095 339.857C114.66 340.151 114.325 340.534 114.091 341.007C113.857 341.48 113.74 341.987 113.74 342.528V343.398C113.74 344.139 113.867 344.768 114.123 345.283C114.383 345.795 114.743 346.185 115.203 346.453C115.664 346.717 116.198 346.849 116.808 346.849C117.204 346.849 117.562 346.794 117.882 346.683C118.205 346.568 118.485 346.398 118.719 346.172C118.953 345.942 119.134 345.656 119.262 345.315L120.72 345.724C120.566 346.219 120.308 346.653 119.946 347.028C119.584 347.399 119.137 347.689 118.604 347.898C118.071 348.102 117.472 348.205 116.808 348.205ZM129.739 342.094V348H128.23V338.182H129.688V339.716H129.816C130.046 339.217 130.395 338.817 130.864 338.514C131.333 338.207 131.938 338.054 132.679 338.054C133.344 338.054 133.926 338.19 134.424 338.463C134.923 338.732 135.311 339.141 135.588 339.69C135.865 340.236 136.003 340.926 136.003 341.761V348H134.494V341.864C134.494 341.092 134.294 340.491 133.894 340.061C133.493 339.626 132.943 339.409 132.244 339.409C131.763 339.409 131.333 339.513 130.953 339.722C130.578 339.931 130.282 340.236 130.065 340.636C129.847 341.037 129.739 341.523 129.739 342.094ZM144.947 343.986V338.182H146.456V348H144.947V346.338H144.845C144.615 346.837 144.257 347.261 143.771 347.61C143.285 347.955 142.672 348.128 141.93 348.128C141.316 348.128 140.771 347.994 140.294 347.725C139.816 347.452 139.441 347.043 139.169 346.498C138.896 345.948 138.76 345.256 138.76 344.42V338.182H140.268V344.318C140.268 345.034 140.468 345.605 140.869 346.031C141.274 346.457 141.789 346.67 142.416 346.67C142.791 346.67 143.172 346.575 143.56 346.383C143.952 346.191 144.28 345.897 144.544 345.501C144.813 345.104 144.947 344.599 144.947 343.986ZM153.335 348.205C152.389 348.205 151.573 347.996 150.887 347.578C150.205 347.156 149.679 346.568 149.308 345.814C148.942 345.055 148.758 344.173 148.758 343.168C148.758 342.162 148.942 341.276 149.308 340.509C149.679 339.737 150.194 339.136 150.855 338.706C151.52 338.271 152.295 338.054 153.182 338.054C153.693 338.054 154.198 338.139 154.697 338.31C155.195 338.48 155.649 338.757 156.058 339.141C156.467 339.52 156.793 340.023 157.036 340.649C157.279 341.276 157.4 342.047 157.4 342.963V343.602H149.832V342.298H155.866C155.866 341.744 155.756 341.25 155.534 340.815C155.317 340.381 155.006 340.038 154.601 339.786C154.2 339.535 153.727 339.409 153.182 339.409C152.581 339.409 152.061 339.558 151.622 339.857C151.187 340.151 150.853 340.534 150.618 341.007C150.384 341.48 150.267 341.987 150.267 342.528V343.398C150.267 344.139 150.395 344.768 150.65 345.283C150.91 345.795 151.27 346.185 151.731 346.453C152.191 346.717 152.726 346.849 153.335 346.849C153.731 346.849 154.089 346.794 154.409 346.683C154.733 346.568 155.012 346.398 155.246 346.172C155.481 345.942 155.662 345.656 155.79 345.315L157.247 345.724C157.094 346.219 156.836 346.653 156.474 347.028C156.111 347.399 155.664 347.689 155.131 347.898C154.599 348.102 154 348.205 153.335 348.205ZM166.65 340.381L165.295 340.764C165.209 340.538 165.084 340.319 164.917 340.106C164.756 339.888 164.534 339.71 164.253 339.569C163.971 339.428 163.611 339.358 163.172 339.358C162.572 339.358 162.071 339.496 161.67 339.773C161.274 340.046 161.076 340.393 161.076 340.815C161.076 341.19 161.212 341.487 161.485 341.704C161.758 341.921 162.184 342.102 162.763 342.247L164.221 342.605C165.099 342.818 165.753 343.144 166.183 343.583C166.613 344.018 166.829 344.578 166.829 345.264C166.829 345.827 166.667 346.33 166.343 346.773C166.023 347.216 165.576 347.565 165.001 347.821C164.425 348.077 163.756 348.205 162.993 348.205C161.992 348.205 161.163 347.987 160.507 347.553C159.851 347.118 159.435 346.483 159.26 345.648L160.692 345.29C160.829 345.818 161.086 346.214 161.466 346.479C161.849 346.743 162.35 346.875 162.968 346.875C163.671 346.875 164.229 346.726 164.643 346.428C165.06 346.125 165.269 345.763 165.269 345.341C165.269 345 165.15 344.714 164.911 344.484C164.672 344.25 164.306 344.075 163.812 343.96L162.175 343.577C161.276 343.364 160.616 343.033 160.194 342.586C159.776 342.134 159.567 341.57 159.567 340.892C159.567 340.338 159.723 339.848 160.034 339.422C160.349 338.996 160.778 338.661 161.319 338.418C161.864 338.175 162.482 338.054 163.172 338.054C164.144 338.054 164.907 338.267 165.461 338.693C166.019 339.119 166.415 339.682 166.65 340.381ZM173.369 338.182V339.46H168.281V338.182H173.369ZM169.764 335.83H171.273V345.188C171.273 345.614 171.335 345.933 171.458 346.146C171.586 346.355 171.748 346.496 171.944 346.568C172.144 346.636 172.355 346.67 172.577 346.67C172.743 346.67 172.879 346.662 172.986 346.645C173.092 346.624 173.178 346.607 173.241 346.594L173.548 347.949C173.446 347.987 173.303 348.026 173.12 348.064C172.937 348.107 172.705 348.128 172.423 348.128C171.997 348.128 171.58 348.036 171.17 347.853C170.766 347.67 170.429 347.391 170.161 347.016C169.896 346.641 169.764 346.168 169.764 345.597V335.83ZM175.638 348V338.182H177.096V339.665H177.198C177.377 339.179 177.701 338.785 178.17 338.482C178.638 338.18 179.167 338.028 179.755 338.028C179.866 338.028 180.004 338.031 180.17 338.035C180.337 338.039 180.462 338.045 180.548 338.054V339.588C180.496 339.575 180.379 339.556 180.196 339.531C180.017 339.501 179.827 339.486 179.627 339.486C179.15 339.486 178.724 339.586 178.349 339.786C177.978 339.982 177.684 340.255 177.467 340.604C177.254 340.95 177.147 341.344 177.147 341.787V348H175.638ZM185.225 348.23C184.603 348.23 184.038 348.113 183.531 347.879C183.024 347.64 182.621 347.297 182.323 346.849C182.025 346.398 181.876 345.852 181.876 345.213C181.876 344.651 181.986 344.195 182.208 343.845C182.43 343.491 182.726 343.214 183.096 343.014C183.467 342.814 183.876 342.665 184.324 342.567C184.775 342.464 185.229 342.384 185.685 342.324C186.282 342.247 186.765 342.19 187.136 342.151C187.511 342.109 187.784 342.038 187.954 341.94C188.129 341.842 188.216 341.672 188.216 341.429V341.378C188.216 340.747 188.044 340.257 187.699 339.908C187.358 339.558 186.84 339.384 186.145 339.384C185.425 339.384 184.861 339.541 184.452 339.857C184.042 340.172 183.755 340.509 183.589 340.866L182.157 340.355C182.412 339.759 182.753 339.294 183.18 338.962C183.61 338.625 184.079 338.391 184.586 338.259C185.097 338.122 185.6 338.054 186.094 338.054C186.41 338.054 186.772 338.092 187.181 338.169C187.594 338.241 187.993 338.393 188.376 338.623C188.764 338.853 189.086 339.2 189.341 339.665C189.597 340.129 189.725 340.751 189.725 341.531V348H188.216V346.67H188.14C188.037 346.884 187.867 347.112 187.628 347.354C187.39 347.597 187.072 347.804 186.676 347.974C186.28 348.145 185.796 348.23 185.225 348.23ZM185.455 346.875C186.052 346.875 186.555 346.758 186.964 346.523C187.377 346.289 187.688 345.987 187.897 345.616C188.11 345.245 188.216 344.855 188.216 344.446V343.065C188.153 343.142 188.012 343.212 187.795 343.276C187.581 343.336 187.334 343.389 187.053 343.436C186.776 343.479 186.506 343.517 186.241 343.551C185.981 343.581 185.77 343.607 185.608 343.628C185.216 343.679 184.85 343.762 184.509 343.877C184.172 343.988 183.9 344.156 183.691 344.382C183.486 344.604 183.384 344.906 183.384 345.29C183.384 345.814 183.578 346.21 183.966 346.479C184.358 346.743 184.854 346.875 185.455 346.875ZM200.43 348.23C199.808 348.23 199.243 348.113 198.736 347.879C198.229 347.64 197.826 347.297 197.528 346.849C197.23 346.398 197.081 345.852 197.081 345.213C197.081 344.651 197.191 344.195 197.413 343.845C197.635 343.491 197.931 343.214 198.301 343.014C198.672 342.814 199.081 342.665 199.529 342.567C199.98 342.464 200.434 342.384 200.89 342.324C201.487 342.247 201.971 342.19 202.341 342.151C202.716 342.109 202.989 342.038 203.159 341.94C203.334 341.842 203.422 341.672 203.422 341.429V341.378C203.422 340.747 203.249 340.257 202.904 339.908C202.563 339.558 202.045 339.384 201.35 339.384C200.63 339.384 200.066 339.541 199.657 339.857C199.248 340.172 198.96 340.509 198.794 340.866L197.362 340.355C197.618 339.759 197.958 339.294 198.385 338.962C198.815 338.625 199.284 338.391 199.791 338.259C200.302 338.122 200.805 338.054 201.299 338.054C201.615 338.054 201.977 338.092 202.386 338.169C202.799 338.241 203.198 338.393 203.581 338.623C203.969 338.853 204.291 339.2 204.547 339.665C204.802 340.129 204.93 340.751 204.93 341.531V348H203.422V346.67H203.345C203.243 346.884 203.072 347.112 202.833 347.354C202.595 347.597 202.277 347.804 201.881 347.974C201.485 348.145 201.001 348.23 200.43 348.23ZM200.66 346.875C201.257 346.875 201.76 346.758 202.169 346.523C202.582 346.289 202.893 345.987 203.102 345.616C203.315 345.245 203.422 344.855 203.422 344.446V343.065C203.358 343.142 203.217 343.212 203 343.276C202.787 343.336 202.539 343.389 202.258 343.436C201.981 343.479 201.711 343.517 201.446 343.551C201.186 343.581 200.975 343.607 200.814 343.628C200.422 343.679 200.055 343.762 199.714 343.877C199.377 343.988 199.105 344.156 198.896 344.382C198.691 344.604 198.589 344.906 198.589 345.29C198.589 345.814 198.783 346.21 199.171 346.479C199.563 346.743 200.059 346.875 200.66 346.875ZM207.683 351.682V338.182H209.141V339.741H209.32C209.431 339.571 209.584 339.354 209.78 339.089C209.98 338.821 210.266 338.582 210.637 338.374C211.012 338.161 211.519 338.054 212.158 338.054C212.985 338.054 213.713 338.261 214.344 338.674C214.975 339.087 215.467 339.673 215.82 340.432C216.174 341.19 216.351 342.085 216.351 343.116C216.351 344.156 216.174 345.058 215.82 345.82C215.467 346.579 214.977 347.167 214.35 347.585C213.724 347.998 213.002 348.205 212.183 348.205C211.553 348.205 211.048 348.1 210.669 347.891C210.289 347.678 209.997 347.437 209.793 347.169C209.588 346.896 209.431 346.67 209.32 346.491H209.192V351.682H207.683ZM209.166 343.091C209.166 343.832 209.275 344.487 209.492 345.053C209.71 345.616 210.027 346.057 210.445 346.376C210.862 346.692 211.374 346.849 211.979 346.849C212.61 346.849 213.136 346.683 213.558 346.351C213.984 346.014 214.303 345.562 214.517 344.996C214.734 344.425 214.843 343.79 214.843 343.091C214.843 342.401 214.736 341.778 214.523 341.224C214.314 340.666 213.997 340.225 213.57 339.901C213.149 339.573 212.618 339.409 211.979 339.409C211.365 339.409 210.85 339.565 210.432 339.876C210.014 340.183 209.699 340.613 209.486 341.167C209.273 341.717 209.166 342.358 209.166 343.091ZM218.652 351.682V338.182H220.11V339.741H220.289C220.399 339.571 220.553 339.354 220.749 339.089C220.949 338.821 221.235 338.582 221.605 338.374C221.98 338.161 222.487 338.054 223.127 338.054C223.953 338.054 224.682 338.261 225.313 338.674C225.943 339.087 226.436 339.673 226.789 340.432C227.143 341.19 227.32 342.085 227.32 343.116C227.32 344.156 227.143 345.058 226.789 345.82C226.436 346.579 225.945 347.167 225.319 347.585C224.693 347.998 223.97 348.205 223.152 348.205C222.521 348.205 222.017 348.1 221.637 347.891C221.258 347.678 220.966 347.437 220.762 347.169C220.557 346.896 220.399 346.67 220.289 346.491H220.161V351.682H218.652ZM220.135 343.091C220.135 343.832 220.244 344.487 220.461 345.053C220.678 345.616 220.996 346.057 221.414 346.376C221.831 346.692 222.343 346.849 222.948 346.849C223.578 346.849 224.105 346.683 224.526 346.351C224.953 346.014 225.272 345.562 225.485 344.996C225.703 344.425 225.811 343.79 225.811 343.091C225.811 342.401 225.705 341.778 225.492 341.224C225.283 340.666 224.965 340.225 224.539 339.901C224.117 339.573 223.587 339.409 222.948 339.409C222.334 339.409 221.818 339.565 221.401 339.876C220.983 340.183 220.668 340.613 220.455 341.167C220.242 341.717 220.135 342.358 220.135 343.091ZM230.72 348.102C230.405 348.102 230.134 347.989 229.909 347.763C229.683 347.538 229.57 347.267 229.57 346.952C229.57 346.636 229.683 346.366 229.909 346.14C230.134 345.914 230.405 345.801 230.72 345.801C231.036 345.801 231.306 345.914 231.532 346.14C231.758 346.366 231.871 346.636 231.871 346.952C231.871 347.161 231.818 347.352 231.711 347.527C231.609 347.702 231.47 347.842 231.296 347.949C231.125 348.051 230.933 348.102 230.72 348.102Z" fill="#636366"/>
<defs>
<clipPath id="clip0_807_6359">
<rect width="350" height="245" fill="white"/>
</clipPath>
<clipPath id="clip1_807_6359">
<rect width="32" height="32" fill="white" transform="translate(24 257)"/>
</clipPath>
</defs>
</svg>
