<svg width="32" height="32" viewBox="0 0 32 32" fill="none" xmlns="http://www.w3.org/2000/svg">
<g clip-path="url(#clip0_807_6817)">
<path d="M11.9402 15.5421C11.4625 16.5924 11.4926 17.8023 11.1643 18.9102C10.6676 20.5741 9.37083 21.9326 8.91587 23.5923C8.64242 24.6909 8.70258 25.8461 9.08866 26.9104C9.47474 27.9746 10.1692 28.8997 11.0835 29.5675C12.015 30.2083 13.0971 30.596 14.2236 30.6929C15.3501 30.7897 16.4824 30.5922 17.5096 30.1198C18.941 29.4634 20.2082 28.5096 21.644 27.851C22.9476 27.258 24.3471 27.0568 25.5765 26.2371C26.7224 25.4813 27.5522 24.3324 27.9095 23.007C28.1221 22.2005 28.0819 21.3481 27.7944 20.5651C27.3356 19.2552 26.4646 17.4251 25.206 16.6939C24.0483 16.0224 22.7153 16.0258 21.4535 15.7082C20.1916 15.3906 18.997 14.5562 17.7666 13.9703C15.6397 12.973 13.015 13.1734 11.9402 15.5421Z" fill="#FFAD34"/>
<path d="M7.97943 20.1678C8.07619 19.7767 8.13898 19.3779 8.16709 18.976C8.27558 17.7796 7.79133 17.0042 6.83618 16.298C6.03503 15.7563 5.14689 15.3561 4.21041 15.1147C3.50138 14.889 2.75981 14.7824 2.01588 14.7993C1.77616 14.8043 1.54051 14.8623 1.32579 14.969C1.11107 15.0757 0.922567 15.2286 0.773757 15.4166C0.372075 15.9677 0.475785 16.7401 0.661157 17.4004C0.956653 18.4147 1.41653 19.3737 2.02248 20.2391C2.50753 20.9601 3.16159 21.5515 3.92763 21.9617C4.30491 22.1724 4.72531 22.2942 5.15679 22.3177C5.58826 22.3412 6.01941 22.2659 6.41736 22.0975C7.11802 21.7383 7.65412 21.1239 7.91512 20.381L7.97943 20.1678Z" fill="#FFAD34"/>
<path d="M3.47661 10.4393C2.73454 8.94606 2.42839 7.29114 3.49198 5.91672C4.73211 4.31175 7.07455 5.3117 8.27288 6.42985C9.4712 7.548 10.7098 9.27777 10.9124 11.0226C11.162 13.3043 9.32011 14.5163 7.24069 13.9019C5.58991 13.4096 4.25168 11.9325 3.47661 10.4393Z" fill="#FFAD34"/>
<path d="M22.6131 13.146C22.2318 13.0032 21.8635 12.8279 21.5123 12.622C20.4622 12.0453 20.0881 11.2151 20.0426 10.0184C20.038 9.05109 20.1996 8.09018 20.5202 7.17754C20.7225 6.47902 21.0353 5.81736 21.4467 5.21766C21.5831 5.02094 21.7612 4.85671 21.9683 4.73669C22.1754 4.61667 22.4065 4.5438 22.645 4.52327C23.3292 4.49633 23.9021 4.99705 24.3473 5.53926C25.0242 6.35142 25.565 7.26794 25.9487 8.25317C26.2938 9.05193 26.4382 9.92303 26.3693 10.7904C26.333 11.2209 26.1995 11.6376 25.9787 12.009C25.758 12.3804 25.4557 12.6967 25.0948 12.9342C24.4056 13.3166 23.5961 13.4202 22.8328 13.2235L22.6131 13.146Z" fill="#FFAD34"/>
<path d="M17.2586 3.47631C16.4416 2.02032 15.2038 0.866883 13.4723 0.996863C11.4482 1.15693 10.9956 3.66128 11.271 5.27653C11.5617 6.9666 12.3071 8.87554 13.655 10.0073C15.409 11.4809 17.4503 10.5928 18.0778 8.51779C18.5723 6.87142 18.0755 4.94328 17.2586 3.47631Z" fill="#FFAD34"/>
<rect x="8" y="8" width="24" height="24" rx="12" fill="#FFAC82" fill-opacity="0.7"/>
<mask id="path-7-outside-1_807_6817" maskUnits="userSpaceOnUse" x="7" y="7" width="15" height="17" fill="black">
<rect fill="white" x="7" y="7" width="15" height="17"/>
<path d="M9.76156 23V20.9L15.1616 15.8C15.5882 15.4133 15.9016 15.0667 16.1016 14.76C16.3016 14.4533 16.4349 14.1733 16.5016 13.92C16.5816 13.6667 16.6216 13.4333 16.6216 13.22C16.6216 12.66 16.4282 12.2333 16.0416 11.94C15.6682 11.6333 15.1149 11.48 14.3816 11.48C13.7949 11.48 13.2482 11.5933 12.7416 11.82C12.2482 12.0467 11.8282 12.4 11.4816 12.88L9.12156 11.36C9.6549 10.56 10.4016 9.92667 11.3616 9.46C12.3216 8.99333 13.4282 8.76 14.6816 8.76C15.7216 8.76 16.6282 8.93333 17.4016 9.28C18.1882 9.61333 18.7949 10.0867 19.2216 10.7C19.6616 11.3133 19.8816 12.0467 19.8816 12.9C19.8816 13.3533 19.8216 13.8067 19.7016 14.26C19.5949 14.7 19.3682 15.1667 19.0216 15.66C18.6882 16.1533 18.1949 16.7067 17.5416 17.32L13.0616 21.54L12.4416 20.36H20.3416V23H9.76156Z"/>
</mask>
<path d="M9.76156 23V20.9L15.1616 15.8C15.5882 15.4133 15.9016 15.0667 16.1016 14.76C16.3016 14.4533 16.4349 14.1733 16.5016 13.92C16.5816 13.6667 16.6216 13.4333 16.6216 13.22C16.6216 12.66 16.4282 12.2333 16.0416 11.94C15.6682 11.6333 15.1149 11.48 14.3816 11.48C13.7949 11.48 13.2482 11.5933 12.7416 11.82C12.2482 12.0467 11.8282 12.4 11.4816 12.88L9.12156 11.36C9.6549 10.56 10.4016 9.92667 11.3616 9.46C12.3216 8.99333 13.4282 8.76 14.6816 8.76C15.7216 8.76 16.6282 8.93333 17.4016 9.28C18.1882 9.61333 18.7949 10.0867 19.2216 10.7C19.6616 11.3133 19.8816 12.0467 19.8816 12.9C19.8816 13.3533 19.8216 13.8067 19.7016 14.26C19.5949 14.7 19.3682 15.1667 19.0216 15.66C18.6882 16.1533 18.1949 16.7067 17.5416 17.32L13.0616 21.54L12.4416 20.36H20.3416V23H9.76156Z" fill="#FFE9D5"/>
<path d="M9.76156 23H8.76156V24H9.76156V23ZM9.76156 20.9L9.07494 20.173L8.76156 20.469V20.9H9.76156ZM15.1616 15.8L14.49 15.059L14.4824 15.0659L14.4749 15.073L15.1616 15.8ZM16.1016 14.76L16.9392 15.3063L16.9392 15.3063L16.1016 14.76ZM16.5016 13.92L15.548 13.6189L15.5407 13.642L15.5345 13.6655L16.5016 13.92ZM16.0416 11.94L15.4068 12.7127L15.4218 12.725L15.4372 12.7367L16.0416 11.94ZM12.7416 11.82L12.3332 10.9071L12.3241 10.9113L12.7416 11.82ZM11.4816 12.88L10.9401 13.7207L11.7372 14.2341L12.2922 13.4655L11.4816 12.88ZM9.12156 11.36L8.28951 10.8053L7.72597 11.6506L8.58009 12.2007L9.12156 11.36ZM11.3616 9.46L10.9244 8.56063L10.9244 8.56063L11.3616 9.46ZM17.4016 9.28L16.9925 10.1925L17.0019 10.1967L17.0114 10.2008L17.4016 9.28ZM19.2216 10.7L18.4007 11.2711L18.4048 11.277L18.409 11.2829L19.2216 10.7ZM19.7016 14.26L18.7349 14.0041L18.7322 14.0142L18.7297 14.0244L19.7016 14.26ZM19.0216 15.66L18.2034 15.0851L18.1981 15.0926L18.193 15.1001L19.0216 15.66ZM17.5416 17.32L16.8571 16.5909L16.8559 16.5921L17.5416 17.32ZM13.0616 21.54L12.1763 22.0051L12.7888 23.1708L13.7472 22.2679L13.0616 21.54ZM12.4416 20.36V19.36H10.7865L11.5563 20.8251L12.4416 20.36ZM20.3416 20.36H21.3416V19.36H20.3416V20.36ZM20.3416 23V24H21.3416V23H20.3416ZM10.7616 23V20.9H8.76156V23H10.7616ZM10.4482 21.627L15.8482 16.527L14.4749 15.073L9.07494 20.173L10.4482 21.627ZM15.8331 16.541C16.2914 16.1256 16.6736 15.7134 16.9392 15.3063L15.264 14.2137C15.1295 14.4199 14.885 14.7011 14.49 15.059L15.8331 16.541ZM16.9392 15.3063C17.1763 14.9427 17.3663 14.5635 17.4686 14.1745L15.5345 13.6655C15.5035 13.7832 15.4269 13.9639 15.264 14.2137L16.9392 15.3063ZM17.4551 14.2211C17.5587 13.8932 17.6216 13.557 17.6216 13.22H15.6216C15.6216 13.3097 15.6044 13.4401 15.548 13.6189L17.4551 14.2211ZM17.6216 13.22C17.6216 12.4018 17.3224 11.6565 16.6459 11.1433L15.4372 12.7367C15.5341 12.8102 15.6216 12.9182 15.6216 13.22H17.6216ZM16.6763 11.1673C16.052 10.6544 15.2317 10.48 14.3816 10.48V12.48C14.9981 12.48 15.2845 12.6122 15.4068 12.7127L16.6763 11.1673ZM14.3816 10.48C13.6623 10.48 12.9756 10.6198 12.3332 10.9072L13.1499 12.7328C13.5209 12.5669 13.9275 12.48 14.3816 12.48V10.48ZM12.3241 10.9113C11.66 11.2164 11.1091 11.6877 10.6709 12.2945L12.2922 13.4655C12.5473 13.1123 12.8364 12.8769 13.1591 12.7287L12.3241 10.9113ZM12.023 12.0393L9.66304 10.5193L8.58009 12.2007L10.9401 13.7207L12.023 12.0393ZM9.95361 11.9147C10.3777 11.2785 10.9806 10.7571 11.7988 10.3594L10.9244 8.56063C9.82252 9.09625 8.93206 9.84148 8.28951 10.8053L9.95361 11.9147ZM11.7988 10.3594C12.6007 9.96951 13.5535 9.76 14.6816 9.76V7.76C13.303 7.76 12.0424 8.01716 10.9244 8.56063L11.7988 10.3594ZM14.6816 9.76C15.6118 9.76 16.3736 9.91506 16.9925 10.1925L17.8106 8.36749C16.8829 7.9516 15.8313 7.76 14.6816 7.76V9.76ZM17.0114 10.2008C17.6499 10.4713 18.0965 10.8339 18.4007 11.2711L20.0425 10.1289C19.4933 9.33946 18.7265 8.75536 17.7917 8.35925L17.0114 10.2008ZM18.409 11.2829C18.7115 11.7046 18.8816 12.2274 18.8816 12.9H20.8816C20.8816 11.866 20.6116 10.9221 20.0341 10.1171L18.409 11.2829ZM18.8816 12.9C18.8816 13.264 18.8335 13.6314 18.7349 14.0041L20.6683 14.5159C20.8096 13.9819 20.8816 13.4426 20.8816 12.9H18.8816ZM18.7297 14.0244C18.6606 14.3096 18.5006 14.6621 18.2034 15.0851L19.8398 16.2349C20.2359 15.6712 20.5292 15.0904 20.6734 14.4956L18.7297 14.0244ZM18.193 15.1001C17.9165 15.5094 17.4805 16.0057 16.8571 16.5909L18.226 18.0491C18.9092 17.4077 19.46 16.7973 19.8502 16.2199L18.193 15.1001ZM16.8559 16.5921L12.3759 20.8121L13.7472 22.2679L18.2272 18.0479L16.8559 16.5921ZM13.9468 21.0749L13.3268 19.8949L11.5563 20.8251L12.1763 22.0051L13.9468 21.0749ZM12.4416 21.36H20.3416V19.36H12.4416V21.36ZM19.3416 20.36V23H21.3416V20.36H19.3416ZM20.3416 22H9.76156V24H20.3416V22Z" fill="#F39200" mask="url(#path-7-outside-1_807_6817)"/>
</g>
<defs>
<clipPath id="clip0_807_6817">
<rect width="32" height="32" fill="white"/>
</clipPath>
</defs>
</svg>
