<svg width="406" height="58" viewBox="0 0 406 58" fill="none" xmlns="http://www.w3.org/2000/svg">
<path d="M0.92 46V6.8H12.008V37.208H30.712V46H0.92ZM53.5145 46V40.344L52.7865 38.944V28.528C52.7865 26.848 52.2638 25.56 51.2185 24.664C50.2105 23.7307 48.5865 23.264 46.3465 23.264C44.8905 23.264 43.4158 23.5067 41.9225 23.992C40.4292 24.44 39.1598 25.0747 38.1145 25.896L34.5305 18.672C36.2478 17.552 38.3012 16.6933 40.6905 16.096C43.1172 15.4613 45.5252 15.144 47.9145 15.144C52.8425 15.144 56.6505 16.2827 59.3385 18.56C62.0638 20.8 63.4265 24.328 63.4265 29.144V46H53.5145ZM44.5545 46.504C42.1278 46.504 40.0745 46.0933 38.3945 45.272C36.7145 44.4507 35.4265 43.3307 34.5305 41.912C33.6718 40.4933 33.2425 38.9067 33.2425 37.152C33.2425 35.2853 33.7092 33.68 34.6425 32.336C35.6132 30.9547 37.0878 29.9093 39.0665 29.2C41.0452 28.4533 43.6025 28.08 46.7385 28.08H53.9065V33.624H48.1945C46.4772 33.624 45.2638 33.904 44.5545 34.464C43.8825 35.024 43.5465 35.7707 43.5465 36.704C43.5465 37.6373 43.9012 38.384 44.6105 38.944C45.3198 39.504 46.2905 39.784 47.5225 39.784C48.6798 39.784 49.7252 39.504 50.6585 38.944C51.6292 38.3467 52.3385 37.4507 52.7865 36.256L54.2425 40.176C53.6825 42.2667 52.5812 43.8533 50.9385 44.936C49.3332 45.9813 47.2052 46.504 44.5545 46.504ZM89.9106 15.144C92.2626 15.144 94.3906 15.6293 96.2946 16.6C98.1986 17.5333 99.6919 18.9893 100.775 20.968C101.895 22.9467 102.455 25.504 102.455 28.64V46H91.8146V30.376C91.8146 28.2107 91.3666 26.6427 90.4706 25.672C89.6119 24.664 88.3986 24.16 86.8306 24.16C85.7106 24.16 84.6839 24.4213 83.7506 24.944C82.8172 25.4293 82.0892 26.1947 81.5666 27.24C81.0439 28.2853 80.7826 29.648 80.7826 31.328V46H70.1426V15.648H80.2786V24.272L78.3186 21.752C79.4759 19.5493 81.0626 17.9067 83.0786 16.824C85.0946 15.704 87.3719 15.144 89.9106 15.144ZM122.734 46.504C119.971 46.504 117.451 45.8693 115.174 44.6C112.934 43.2933 111.142 41.4827 109.798 39.168C108.454 36.816 107.782 34.016 107.782 30.768C107.782 27.5573 108.454 24.7947 109.798 22.48C111.142 20.128 112.934 18.3173 115.174 17.048C117.451 15.7787 119.971 15.144 122.734 15.144C125.347 15.144 127.55 15.704 129.342 16.824C131.171 17.944 132.552 19.6613 133.486 21.976C134.419 24.2907 134.886 27.2213 134.886 30.768C134.886 34.3893 134.438 37.3573 133.542 39.672C132.646 41.9867 131.302 43.704 129.51 44.824C127.718 45.944 125.459 46.504 122.734 46.504ZM124.974 38.048C126.168 38.048 127.232 37.768 128.166 37.208C129.136 36.648 129.902 35.8267 130.462 34.744C131.022 33.624 131.302 32.2987 131.302 30.768C131.302 29.2373 131.022 27.9493 130.462 26.904C129.902 25.8213 129.136 25 128.166 24.44C127.232 23.88 126.168 23.6 124.974 23.6C123.742 23.6 122.64 23.88 121.67 24.44C120.736 25 119.99 25.8213 119.43 26.904C118.87 27.9493 118.59 29.2373 118.59 30.768C118.59 32.2987 118.87 33.624 119.43 34.744C119.99 35.8267 120.736 36.648 121.67 37.208C122.64 37.768 123.742 38.048 124.974 38.048ZM131.638 46V40.792L131.694 30.768L131.134 20.744V4.448H141.774V46H131.638ZM148.619 46V15.648H159.259V46H148.619ZM153.939 12.288C151.998 12.288 150.43 11.7467 149.235 10.664C148.04 9.58133 147.443 8.23733 147.443 6.632C147.443 5.02666 148.04 3.68266 149.235 2.6C150.43 1.51733 151.998 0.975999 153.939 0.975999C155.88 0.975999 157.448 1.49867 158.643 2.544C159.838 3.552 160.435 4.85867 160.435 6.464C160.435 8.144 159.838 9.544 158.643 10.664C157.486 11.7467 155.918 12.288 153.939 12.288ZM185.942 15.144C188.294 15.144 190.422 15.6293 192.326 16.6C194.23 17.5333 195.723 18.9893 196.806 20.968C197.926 22.9467 198.486 25.504 198.486 28.64V46H187.846V30.376C187.846 28.2107 187.398 26.6427 186.502 25.672C185.643 24.664 184.43 24.16 182.862 24.16C181.742 24.16 180.715 24.4213 179.782 24.944C178.848 25.4293 178.12 26.1947 177.598 27.24C177.075 28.2853 176.814 29.648 176.814 31.328V46H166.174V15.648H176.31V24.272L174.35 21.752C175.507 19.5493 177.094 17.9067 179.11 16.824C181.126 15.704 183.403 15.144 185.942 15.144ZM220.389 57.368C217.477 57.368 214.695 57.032 212.045 56.36C209.431 55.688 207.191 54.6987 205.325 53.392L209.189 45.944C210.458 46.952 212.026 47.736 213.893 48.296C215.797 48.8933 217.645 49.192 219.437 49.192C222.311 49.192 224.383 48.5573 225.653 47.288C226.922 46.056 227.557 44.2453 227.557 41.856V38.272L228.117 29.76L228.061 21.192V15.648H238.197V40.456C238.197 46.2053 236.647 50.4613 233.549 53.224C230.45 55.9867 226.063 57.368 220.389 57.368ZM218.541 44.432C215.853 44.432 213.37 43.8347 211.093 42.64C208.853 41.408 207.042 39.7093 205.661 37.544C204.317 35.3413 203.645 32.7467 203.645 29.76C203.645 26.7733 204.317 24.1973 205.661 22.032C207.042 19.8293 208.853 18.1307 211.093 16.936C213.37 15.7413 215.853 15.144 218.541 15.144C221.117 15.144 223.319 15.6667 225.149 16.712C226.978 17.72 228.359 19.3067 229.293 21.472C230.263 23.6373 230.749 26.4 230.749 29.76C230.749 33.12 230.263 35.8827 229.293 38.048C228.359 40.2133 226.978 41.8187 225.149 42.864C223.319 43.9093 221.117 44.432 218.541 44.432ZM221.061 35.976C222.33 35.976 223.45 35.7147 224.421 35.192C225.429 34.6693 226.213 33.9413 226.773 33.008C227.37 32.0747 227.669 30.992 227.669 29.76C227.669 28.528 227.37 27.4453 226.773 26.512C226.213 25.5787 225.429 24.8693 224.421 24.384C223.45 23.8613 222.33 23.6 221.061 23.6C219.791 23.6 218.653 23.8613 217.645 24.384C216.637 24.8693 215.834 25.5787 215.237 26.512C214.677 27.4453 214.397 28.528 214.397 29.76C214.397 30.992 214.677 32.0747 215.237 33.008C215.834 33.9413 216.637 34.6693 217.645 35.192C218.653 35.7147 219.791 35.976 221.061 35.976ZM272.026 21.976H290.226V30.264H272.026V21.976ZM272.81 37.432H293.306V46H261.834V6.8H292.578V15.368H272.81V37.432ZM298.955 46V15.648H309.091V24.496L307.579 21.976C308.475 19.6987 309.931 18 311.947 16.88C313.963 15.7227 316.408 15.144 319.283 15.144V24.72C318.798 24.6453 318.368 24.608 317.995 24.608C317.659 24.5707 317.286 24.552 316.875 24.552C314.71 24.552 312.955 25.1493 311.611 26.344C310.267 27.5013 309.595 29.4053 309.595 32.056V46H298.955ZM323.674 46V15.648H333.81V24.496L332.298 21.976C333.194 19.6987 334.65 18 336.666 16.88C338.682 15.7227 341.127 15.144 344.002 15.144V24.72C343.516 24.6453 343.087 24.608 342.714 24.608C342.378 24.5707 342.004 24.552 341.594 24.552C339.428 24.552 337.674 25.1493 336.33 26.344C334.986 27.5013 334.314 29.4053 334.314 32.056V46H323.674ZM363.351 46.504C360.028 46.504 357.079 45.832 354.503 44.488C351.927 43.144 349.892 41.296 348.399 38.944C346.943 36.5547 346.215 33.8293 346.215 30.768C346.215 27.7067 346.943 25 348.399 22.648C349.892 20.296 351.927 18.4667 354.503 17.16C357.079 15.816 360.028 15.144 363.351 15.144C366.674 15.144 369.623 15.816 372.199 17.16C374.812 18.4667 376.847 20.296 378.303 22.648C379.759 25 380.487 27.7067 380.487 30.768C380.487 33.8293 379.759 36.5547 378.303 38.944C376.847 41.296 374.812 43.144 372.199 44.488C369.623 45.832 366.674 46.504 363.351 46.504ZM363.351 38.048C364.583 38.048 365.666 37.768 366.599 37.208C367.57 36.648 368.335 35.8267 368.895 34.744C369.455 33.624 369.735 32.2987 369.735 30.768C369.735 29.2373 369.455 27.9493 368.895 26.904C368.335 25.8213 367.57 25 366.599 24.44C365.666 23.88 364.583 23.6 363.351 23.6C362.156 23.6 361.074 23.88 360.103 24.44C359.17 25 358.404 25.8213 357.807 26.904C357.247 27.9493 356.967 29.2373 356.967 30.768C356.967 32.2987 357.247 33.624 357.807 34.744C358.404 35.8267 359.17 36.648 360.103 37.208C361.074 37.768 362.156 38.048 363.351 38.048ZM385.416 46V15.648H395.552V24.496L394.04 21.976C394.936 19.6987 396.392 18 398.408 16.88C400.424 15.7227 402.869 15.144 405.744 15.144V24.72C405.259 24.6453 404.829 24.608 404.456 24.608C404.12 24.5707 403.747 24.552 403.336 24.552C401.171 24.552 399.416 25.1493 398.072 26.344C396.728 27.5013 396.056 29.4053 396.056 32.056V46H385.416Z" fill="white"/>
</svg>
