<svg width="272" height="48" viewBox="0 0 272 48" fill="none" xmlns="http://www.w3.org/2000/svg">
<rect width="48" height="48" rx="24" fill="#F39200"/>
<path d="M22.473 24.1524L28.176 29.8554C28.4441 30.1235 28.5781 30.4647 28.5781 30.879C28.5781 31.2933 28.4441 31.6345 28.176 31.9026C27.9079 32.1707 27.5667 32.3047 27.1524 32.3047C26.7381 32.3047 26.3968 32.1707 26.1288 31.9026L19.4021 25.176C19.2559 25.0298 19.1523 24.8713 19.0914 24.7007C19.0305 24.5301 19 24.3473 19 24.1524C19 23.9574 19.0305 23.7746 19.0914 23.604C19.1523 23.4334 19.2559 23.275 19.4021 23.1288L26.1288 16.4021C26.3968 16.134 26.7381 16 27.1524 16C27.5667 16 27.9079 16.134 28.176 16.4021C28.4441 16.6702 28.5781 17.0114 28.5781 17.4258C28.5781 17.8401 28.4441 18.1813 28.176 18.4494L22.473 24.1524Z" fill="white"/>
<rect x="104" y="18" width="12" height="12" rx="6" fill="#FFE9D5"/>
<rect x="130" y="18" width="12" height="12" rx="6" fill="#FFAD34"/>
<rect x="156" y="18" width="12" height="12" rx="6" fill="#FFE9D5"/>
<rect width="48" height="48" rx="24" transform="matrix(-1 0 0 1 272 0)" fill="#F39200"/>
<path d="M249.527 24.1524L243.824 29.8554C243.556 30.1235 243.422 30.4647 243.422 30.879C243.422 31.2933 243.556 31.6345 243.824 31.9026C244.092 32.1707 244.433 32.3047 244.848 32.3047C245.262 32.3047 245.603 32.1707 245.871 31.9026L252.598 25.176C252.744 25.0298 252.848 24.8713 252.909 24.7007C252.97 24.5301 253 24.3473 253 24.1524C253 23.9574 252.97 23.7746 252.909 23.604C252.848 23.4334 252.744 23.275 252.598 23.1288L245.871 16.4021C245.603 16.134 245.262 16 244.848 16C244.433 16 244.092 16.134 243.824 16.4021C243.556 16.6702 243.422 17.0114 243.422 17.4258C243.422 17.8401 243.556 18.1813 243.824 18.4494L249.527 24.1524Z" fill="white"/>
</svg>
