<svg width="142" height="27" viewBox="0 0 142 27" fill="none" xmlns="http://www.w3.org/2000/svg">
<path d="M22.1332 0.818181V27H17.9144L5.57777 9.16619H5.36044V27H0.617543V0.818181H4.86186L17.1857 18.6648H17.4158V0.818181H22.1332ZM30.6634 27H25.6009L34.8182 0.818181H40.6733L49.9034 27H44.8409L37.848 6.1875H37.6435L30.6634 27ZM30.8295 16.7344H44.6364V20.544H30.8295V16.7344ZM68.2262 7.36364L61.2333 27H56.1197L49.1268 7.36364H54.0614L58.5742 21.9503H58.7788L63.3043 7.36364H68.2262ZM80.5629 27V0.818181H90.5856C92.4776 0.818181 94.0501 1.11648 95.3029 1.71307C96.5643 2.30114 97.506 3.10653 98.1282 4.12926C98.7589 5.15199 99.0742 6.31108 99.0742 7.60653C99.0742 8.67187 98.8697 9.58381 98.4606 10.3423C98.0515 11.0923 97.5018 11.7017 96.8114 12.1705C96.1211 12.6392 95.3498 12.9759 94.4975 13.1804V13.4361C95.4265 13.4872 96.3171 13.7727 97.1694 14.2926C98.0302 14.804 98.7333 15.5284 99.2788 16.4659C99.8242 17.4034 100.097 18.5369 100.097 19.8665C100.097 21.2216 99.7688 22.4403 99.1126 23.5227C98.4563 24.5966 97.4677 25.4446 96.1467 26.0668C94.8256 26.6889 93.1637 27 91.1609 27H80.5629ZM85.3058 23.0369H90.4066C92.1282 23.0369 93.3683 22.7088 94.1268 22.0526C94.8938 21.3878 95.2773 20.5355 95.2773 19.4957C95.2773 18.7202 95.0856 18.0213 94.7021 17.3991C94.3185 16.7685 93.7731 16.2741 93.0657 15.9162C92.3583 15.5497 91.5146 15.3665 90.5344 15.3665H85.3058V23.0369ZM85.3058 11.9531H89.9975C90.8157 11.9531 91.5529 11.804 92.2092 11.5057C92.8654 11.1989 93.381 10.7685 93.756 10.2145C94.1396 9.65199 94.3313 8.98722 94.3313 8.22017C94.3313 7.20596 93.9734 6.37074 93.2575 5.71449C92.5501 5.05824 91.4975 4.73011 90.0998 4.73011H85.3058V11.9531ZM107.585 27H102.523L111.74 0.818181H117.595L126.825 27H121.763L114.77 6.1875H114.565L107.585 27ZM107.751 16.7344H121.558V20.544H107.751V16.7344ZM130.069 27V7.36364H134.556V10.6364H134.761C135.119 9.50284 135.733 8.62926 136.602 8.01562C137.48 7.39347 138.481 7.08239 139.606 7.08239C139.862 7.08239 140.147 7.09517 140.463 7.12074C140.787 7.13778 141.055 7.16761 141.268 7.21023V11.4673C141.072 11.3991 140.761 11.3395 140.335 11.2884C139.917 11.2287 139.512 11.1989 139.12 11.1989C138.277 11.1989 137.518 11.3821 136.845 11.7486C136.18 12.1065 135.656 12.6051 135.272 13.2443C134.889 13.8835 134.697 14.6207 134.697 15.456V27H130.069Z" fill="white"/>
</svg>
