<svg width="211" height="36" viewBox="0 0 211 36" fill="none" xmlns="http://www.w3.org/2000/svg">
<path d="M0.73473 28V1.81818H10.5529C12.5643 1.81818 14.2518 2.19318 15.6154 2.94318C16.9876 3.69318 18.0231 4.72443 18.7219 6.03693C19.4293 7.34091 19.783 8.82386 19.783 10.4858C19.783 12.1648 19.4293 13.6562 18.7219 14.9602C18.0146 16.2642 16.9705 17.2912 15.5898 18.0412C14.2092 18.7827 12.5089 19.1534 10.489 19.1534H3.98189V15.2543H9.84979C11.0259 15.2543 11.989 15.0497 12.739 14.6406C13.489 14.2315 14.043 13.669 14.4009 12.9531C14.7674 12.2372 14.9506 11.4148 14.9506 10.4858C14.9506 9.55682 14.7674 8.73864 14.4009 8.03125C14.043 7.32386 13.4847 6.77415 12.7262 6.3821C11.9762 5.98153 11.0089 5.78125 9.82422 5.78125H5.47763V28H0.73473ZM28.9972 28.3963C27.7528 28.3963 26.6321 28.1747 25.6349 27.7315C24.6463 27.2798 23.8622 26.6151 23.2827 25.7372C22.7116 24.8594 22.4261 23.777 22.4261 22.4901C22.4261 21.3821 22.6307 20.4659 23.0398 19.7415C23.4489 19.017 24.0071 18.4375 24.7145 18.0028C25.4219 17.5682 26.2188 17.2401 27.1051 17.0185C28 16.7884 28.9247 16.6222 29.8793 16.5199C31.0298 16.4006 31.9631 16.294 32.679 16.2003C33.3949 16.098 33.9148 15.9446 34.2386 15.7401C34.571 15.527 34.7372 15.1989 34.7372 14.7557V14.679C34.7372 13.7159 34.4517 12.9702 33.8807 12.4418C33.3097 11.9134 32.4872 11.6491 31.4134 11.6491C30.2798 11.6491 29.3807 11.8963 28.7159 12.3906C28.0597 12.8849 27.6165 13.4687 27.3864 14.142L23.0653 13.5284C23.4063 12.3352 23.9688 11.3381 24.7528 10.5369C25.5369 9.72727 26.4957 9.12216 27.6293 8.72159C28.7628 8.3125 30.0156 8.10795 31.3878 8.10795C32.3338 8.10795 33.2756 8.21875 34.2131 8.44034C35.1506 8.66193 36.0071 9.02841 36.7827 9.53977C37.5582 10.0426 38.1804 10.7287 38.6491 11.598C39.1264 12.4673 39.3651 13.554 39.3651 14.858V28H34.9162V25.3026H34.7628C34.4815 25.848 34.0852 26.3594 33.5739 26.8366C33.071 27.3054 32.4361 27.6847 31.669 27.9744C30.9105 28.2557 30.0199 28.3963 28.9972 28.3963ZM30.1989 24.9957C31.1278 24.9957 31.9332 24.8125 32.6151 24.446C33.2969 24.071 33.821 23.5767 34.1875 22.9631C34.5625 22.3494 34.75 21.6804 34.75 20.956V18.642C34.6051 18.7614 34.358 18.8722 34.0085 18.9744C33.6676 19.0767 33.2841 19.1662 32.858 19.2429C32.4318 19.3196 32.0099 19.3878 31.5923 19.4474C31.1747 19.5071 30.8125 19.5582 30.5057 19.6009C29.8153 19.6946 29.1974 19.848 28.652 20.0611C28.1065 20.2741 27.6761 20.5724 27.3608 20.956C27.0455 21.331 26.8878 21.8168 26.8878 22.4134C26.8878 23.2656 27.1989 23.9091 27.821 24.3438C28.4432 24.7784 29.2358 24.9957 30.1989 24.9957ZM52.5582 35.7727C50.8963 35.7727 49.4688 35.5469 48.2756 35.0952C47.0824 34.652 46.1236 34.0554 45.3991 33.3054C44.6747 32.5554 44.1719 31.7244 43.8906 30.8125L48.0582 29.8026C48.2457 30.1861 48.5185 30.5653 48.8764 30.9403C49.2344 31.3239 49.7159 31.6392 50.321 31.8864C50.9347 32.142 51.706 32.2699 52.6349 32.2699C53.9474 32.2699 55.0341 31.9503 55.8949 31.3111C56.7557 30.6804 57.1861 29.6406 57.1861 28.1918V24.4716H56.956C56.7173 24.9489 56.3679 25.4389 55.9077 25.9418C55.456 26.4446 54.8551 26.8665 54.1051 27.2074C53.3636 27.5483 52.4304 27.7188 51.3054 27.7188C49.7969 27.7188 48.429 27.3651 47.2017 26.6577C45.983 25.9418 45.0114 24.8764 44.2869 23.4616C43.571 22.0384 43.2131 20.2571 43.2131 18.1179C43.2131 15.9616 43.571 14.142 44.2869 12.6591C45.0114 11.1676 45.9872 10.0384 47.2145 9.27131C48.4418 8.49574 49.8097 8.10795 51.3182 8.10795C52.4688 8.10795 53.4148 8.30398 54.1562 8.69602C54.9062 9.07954 55.5028 9.54403 55.946 10.0895C56.3892 10.6264 56.7259 11.1335 56.956 11.6108H57.2116V8.36364H61.7756V28.3196C61.7756 29.9986 61.375 31.3878 60.5739 32.4872C59.7727 33.5866 58.6776 34.4091 57.2884 34.9545C55.8991 35.5 54.3224 35.7727 52.5582 35.7727ZM52.5966 24.0881C53.5767 24.0881 54.4119 23.8494 55.1023 23.3722C55.7926 22.8949 56.3168 22.2088 56.6747 21.3139C57.0327 20.419 57.2116 19.3452 57.2116 18.0923C57.2116 16.8565 57.0327 15.7741 56.6747 14.8452C56.3253 13.9162 55.8054 13.196 55.1151 12.6847C54.4332 12.1648 53.5938 11.9048 52.5966 11.9048C51.5653 11.9048 50.7045 12.1733 50.0142 12.7102C49.3239 13.2472 48.804 13.9844 48.4545 14.9219C48.1051 15.8509 47.9304 16.9077 47.9304 18.0923C47.9304 19.294 48.1051 20.3466 48.4545 21.25C48.8125 22.1449 49.3366 22.8437 50.027 23.3466C50.7259 23.8409 51.5824 24.0881 52.5966 24.0881ZM66.5185 28V8.36364H71.1463V28H66.5185ZM68.8452 5.5767C68.1122 5.5767 67.4815 5.33381 66.9531 4.84801C66.4247 4.35369 66.1605 3.76136 66.1605 3.07102C66.1605 2.37216 66.4247 1.77983 66.9531 1.29403C67.4815 0.799715 68.1122 0.552556 68.8452 0.552556C69.5866 0.552556 70.2173 0.799715 70.7372 1.29403C71.2656 1.77983 71.5298 2.37216 71.5298 3.07102C71.5298 3.76136 71.2656 4.35369 70.7372 4.84801C70.2173 5.33381 69.5866 5.5767 68.8452 5.5767ZM80.533 16.4943V28H75.9052V8.36364H80.3285V11.7003H80.5586C81.0103 10.6009 81.7305 9.72727 82.7191 9.07955C83.7163 8.43182 84.9478 8.10795 86.4137 8.10795C87.7688 8.10795 88.9492 8.39773 89.9549 8.97727C90.9691 9.55682 91.7532 10.3963 92.3072 11.4957C92.8697 12.5952 93.1467 13.929 93.1381 15.4972V28H88.5103V16.2131C88.5103 14.9006 88.1694 13.8736 87.4876 13.1321C86.8143 12.3906 85.881 12.0199 84.6879 12.0199C83.8782 12.0199 83.158 12.1989 82.5273 12.5568C81.9052 12.9062 81.4151 13.4134 81.0572 14.0781C80.7077 14.7429 80.533 15.5483 80.533 16.4943ZM103.493 28.3963C102.249 28.3963 101.128 28.1747 100.131 27.7315C99.1424 27.2798 98.3583 26.6151 97.7788 25.7372C97.2077 24.8594 96.9222 23.777 96.9222 22.4901C96.9222 21.3821 97.1268 20.4659 97.5359 19.7415C97.945 19.017 98.5032 18.4375 99.2106 18.0028C99.918 17.5682 100.715 17.2401 101.601 17.0185C102.496 16.7884 103.421 16.6222 104.375 16.5199C105.526 16.4006 106.459 16.294 107.175 16.2003C107.891 16.098 108.411 15.9446 108.735 15.7401C109.067 15.527 109.233 15.1989 109.233 14.7557V14.679C109.233 13.7159 108.948 12.9702 108.377 12.4418C107.806 11.9134 106.983 11.6491 105.909 11.6491C104.776 11.6491 103.877 11.8963 103.212 12.3906C102.556 12.8849 102.113 13.4687 101.882 14.142L97.5614 13.5284C97.9023 12.3352 98.4648 11.3381 99.2489 10.5369C100.033 9.72727 100.992 9.12216 102.125 8.72159C103.259 8.3125 104.512 8.10795 105.884 8.10795C106.83 8.10795 107.772 8.21875 108.709 8.44034C109.647 8.66193 110.503 9.02841 111.279 9.53977C112.054 10.0426 112.676 10.7287 113.145 11.598C113.623 12.4673 113.861 13.554 113.861 14.858V28H109.412V25.3026H109.259C108.978 25.848 108.581 26.3594 108.07 26.8366C107.567 27.3054 106.932 27.6847 106.165 27.9744C105.407 28.2557 104.516 28.3963 103.493 28.3963ZM104.695 24.9957C105.624 24.9957 106.429 24.8125 107.111 24.446C107.793 24.071 108.317 23.5767 108.684 22.9631C109.059 22.3494 109.246 21.6804 109.246 20.956V18.642C109.101 18.7614 108.854 18.8722 108.505 18.9744C108.164 19.0767 107.78 19.1662 107.354 19.2429C106.928 19.3196 106.506 19.3878 106.088 19.4474C105.671 19.5071 105.309 19.5582 105.002 19.6009C104.311 19.6946 103.694 19.848 103.148 20.0611C102.603 20.2741 102.172 20.5724 101.857 20.956C101.542 21.331 101.384 21.8168 101.384 22.4134C101.384 23.2656 101.695 23.9091 102.317 24.3438C102.939 24.7784 103.732 24.9957 104.695 24.9957ZM127.649 28V1.81818H144.677V5.79403H132.392V12.902H143.795V16.8778H132.392V24.0241H144.779V28H127.649ZM149.311 28V8.36364H153.799V11.6364H154.003C154.361 10.5028 154.975 9.62926 155.844 9.01562C156.722 8.39347 157.723 8.08239 158.848 8.08239C159.104 8.08239 159.39 8.09517 159.705 8.12074C160.029 8.13778 160.297 8.16761 160.51 8.21023V12.4673C160.314 12.3991 160.003 12.3395 159.577 12.2884C159.159 12.2287 158.755 12.1989 158.363 12.1989C157.519 12.1989 156.76 12.3821 156.087 12.7486C155.422 13.1065 154.898 13.6051 154.515 14.2443C154.131 14.8835 153.939 15.6207 153.939 16.456V28H149.311ZM163.585 28V8.36364H168.072V11.6364H168.277C168.635 10.5028 169.248 9.62926 170.118 9.01562C170.995 8.39347 171.997 8.08239 173.122 8.08239C173.377 8.08239 173.663 8.09517 173.978 8.12074C174.302 8.13778 174.571 8.16761 174.784 8.21023V12.4673C174.588 12.3991 174.277 12.3395 173.85 12.2884C173.433 12.2287 173.028 12.1989 172.636 12.1989C171.792 12.1989 171.034 12.3821 170.36 12.7486C169.696 13.1065 169.172 13.6051 168.788 14.2443C168.404 14.8835 168.213 15.6207 168.213 16.456V28H163.585ZM185.615 28.3835C183.697 28.3835 182.036 27.9616 180.629 27.1179C179.223 26.2741 178.132 25.0937 177.357 23.5767C176.589 22.0597 176.206 20.2869 176.206 18.2585C176.206 16.2301 176.589 14.4531 177.357 12.9276C178.132 11.402 179.223 10.2173 180.629 9.37358C182.036 8.52983 183.697 8.10795 185.615 8.10795C187.533 8.10795 189.195 8.52983 190.601 9.37358C192.007 10.2173 193.094 11.402 193.861 12.9276C194.636 14.4531 195.024 16.2301 195.024 18.2585C195.024 20.2869 194.636 22.0597 193.861 23.5767C193.094 25.0937 192.007 26.2741 190.601 27.1179C189.195 27.9616 187.533 28.3835 185.615 28.3835ZM185.641 24.6761C186.68 24.6761 187.55 24.3906 188.249 23.8196C188.947 23.2401 189.467 22.4645 189.808 21.4929C190.158 20.5213 190.332 19.4389 190.332 18.2457C190.332 17.044 190.158 15.9574 189.808 14.9858C189.467 14.0057 188.947 13.2259 188.249 12.6463C187.55 12.0668 186.68 11.777 185.641 11.777C184.575 11.777 183.689 12.0668 182.982 12.6463C182.283 13.2259 181.759 14.0057 181.409 14.9858C181.068 15.9574 180.898 17.044 180.898 18.2457C180.898 19.4389 181.068 20.5213 181.409 21.4929C181.759 22.4645 182.283 23.2401 182.982 23.8196C183.689 24.3906 184.575 24.6761 185.641 24.6761ZM198.952 28V8.36364H203.439V11.6364H203.644C204.002 10.5028 204.615 9.62926 205.485 9.01562C206.363 8.39347 207.364 8.08239 208.489 8.08239C208.745 8.08239 209.03 8.09517 209.346 8.12074C209.669 8.13778 209.938 8.16761 210.151 8.21023V12.4673C209.955 12.3991 209.644 12.3395 209.218 12.2884C208.8 12.2287 208.395 12.1989 208.003 12.1989C207.159 12.1989 206.401 12.3821 205.728 12.7486C205.063 13.1065 204.539 13.6051 204.155 14.2443C203.772 14.8835 203.58 15.6207 203.58 16.456V28H198.952Z" fill="white"/>
</svg>
