<svg width="40" height="40" viewBox="0 0 40 40" fill="none" xmlns="http://www.w3.org/2000/svg">
<g clip-path="url(#clip0_894_4639)">
<path d="M20 39.9874C16.0896 39.9881 12.265 38.8401 9.00127 36.6862L1.31627 39.1412L3.80752 31.7162C1.32713 28.3138 -0.00636467 24.2105 2.28407e-05 20C2.28407e-05 8.97745 8.96627 0.0124512 19.9875 0.0124512C31.0088 0.0124512 39.975 8.97745 39.975 20C39.975 31.0225 31.0125 39.9874 19.9875 39.9874H20Z" fill="#FEFEFE"/>
<path d="M20.0037 0.0114746C8.98125 0.0114746 0.015625 8.97743 0.015625 19.9996C0.015625 24.3706 1.42577 28.4249 3.82288 31.7155L1.33125 39.1426L9.01309 36.6868C12.1736 38.7785 15.9461 39.9887 20.012 39.9887C31.0345 39.9887 40.0001 31.0224 40.0001 20.0006C40.0001 8.97875 31.0341 0.012469 20.012 0.012469H20.0004L20.0037 0.0114746Z" fill="#F39200"/>
<path d="M14.4194 10.1649C14.0444 9.23614 13.7381 9.20239 13.1506 9.16489L12.4806 9.13989C11.7181 9.13989 10.9181 9.36489 10.4356 9.85614C9.84812 10.4561 8.39062 11.8536 8.39062 14.7211C8.39062 17.5886 10.4819 20.3611 10.7656 20.7499C11.0594 21.1249 14.8431 27.1074 20.7194 29.5399C25.3144 31.4436 26.6769 31.2674 27.7231 31.0436C29.2506 30.7149 31.1656 29.5861 31.6481 28.2236C32.1306 26.8611 32.1306 25.6986 31.9881 25.4486C31.8456 25.1986 31.4594 25.0736 30.8719 24.7674C30.2844 24.4611 27.4294 23.0636 26.8881 22.8749C26.3594 22.6749 25.8544 22.7461 25.4544 23.3099C24.8919 24.0974 24.3381 24.8974 23.8919 25.3774C23.5394 25.7524 22.9631 25.8024 22.4819 25.6024C21.8356 25.3324 20.0256 24.6974 17.7944 22.7111C16.0669 21.1736 14.8919 19.2561 14.5506 18.6811C14.2094 18.0936 14.5156 17.7524 14.7856 17.4349C15.0794 17.0699 15.3606 16.8124 15.6556 16.4724C15.9506 16.1324 16.1144 15.9549 16.3019 15.5561C16.5019 15.1811 16.3606 14.7686 16.2194 14.4749C16.0781 14.1811 14.9031 11.3124 14.4219 10.1499L14.4194 10.1649Z" fill="#FEFEFE"/>
</g>
<defs>
<clipPath id="clip0_894_4639">
<rect width="40" height="40" fill="white"/>
</clipPath>
</defs>
</svg>
