<svg width="40" height="40" viewBox="0 0 40 40" fill="none" xmlns="http://www.w3.org/2000/svg">
<g clip-path="url(#clip0_894_4638)">
<path d="M40 20C40 31.05 31.05 40 20 40C8.95 40 0 31.05 0 20C0 8.95 8.95 0 20 0C31.05 0 40 8.95 40 20Z" fill="#F39200"/>
<path d="M16.3307 29.1667C15.6807 29.1667 15.7974 28.9167 15.5641 28.3001L13.6641 22.0334L25.4641 14.6667L26.8474 15.0334L25.6974 18.1667L16.3307 29.1667Z" fill="#C8DAEA"/>
<path d="M16.3359 29.1667C16.8359 29.1667 17.0526 28.9333 17.3359 28.6667C17.7693 28.25 23.3359 22.8333 23.3359 22.8333L19.9193 22L16.7526 24L16.3359 29V29.1667Z" fill="#A9C9DD"/>
<path d="M16.6685 24.0666L24.7352 30.0166C25.6518 30.5166 26.3185 30.2666 26.5519 29.1666L29.8352 13.6999C30.1685 12.3499 29.3185 11.7499 28.4352 12.1499L9.16852 19.5832C7.85185 20.1166 7.86852 20.8499 8.93518 21.1666L13.8852 22.7166L25.3352 15.4999C25.8685 15.1666 26.3685 15.3499 25.9685 15.7166L16.6685 24.0666Z" fill="url(#paint0_linear_894_4638)"/>
</g>
<defs>
<linearGradient id="paint0_linear_894_4638" x1="21.5003" y1="20.6257" x2="25.667" y2="27.2924" gradientUnits="userSpaceOnUse">
<stop stop-color="#EFF7FC"/>
<stop offset="1" stop-color="white"/>
</linearGradient>
<clipPath id="clip0_894_4638">
<rect width="40" height="40" fill="white"/>
</clipPath>
</defs>
</svg>
