<svg width="40" height="40" viewBox="0 0 40 40" fill="none" xmlns="http://www.w3.org/2000/svg">
<g clip-path="url(#clip0_894_4637)">
<path d="M20 40C31.0457 40 40 31.0457 40 20C40 8.9543 31.0457 0 20 0C8.9543 0 0 8.9543 0 20C0 31.0457 8.9543 40 20 40Z" fill="#F39200"/>
<path d="M26.5023 6.13892H22.0718C19.4426 6.13892 16.5182 7.24472 16.5182 11.0559C16.531 12.3838 16.5182 13.6556 16.5182 15.0869H13.4766V19.927H16.6123V33.861H22.3744V19.8351H26.1776L26.5217 15.0733H22.2751C22.2751 15.0733 22.2846 12.9551 22.2751 12.3399C22.2751 10.8339 23.8423 10.9201 23.9365 10.9201C24.6823 10.9201 26.1323 10.9223 26.5045 10.9201V6.13892H26.5023Z" fill="white"/>
</g>
<defs>
<clipPath id="clip0_894_4637">
<rect width="40" height="40" fill="white"/>
</clipPath>
</defs>
</svg>
