<svg width="280" height="40" viewBox="0 0 280 40" fill="none" xmlns="http://www.w3.org/2000/svg">
<g clip-path="url(#clip0_894_4626)">
<path d="M20 40C31.0457 40 40 31.0457 40 20C40 8.9543 31.0457 0 20 0C8.9543 0 0 8.9543 0 20C0 31.0457 8.9543 40 20 40Z" fill="#F39200"/>
<path d="M26.5023 6.13892H22.0718C19.4426 6.13892 16.5182 7.24472 16.5182 11.0559C16.531 12.3838 16.5182 13.6556 16.5182 15.0869H13.4766V19.927H16.6123V33.861H22.3744V19.8351H26.1776L26.5217 15.0733H22.2751C22.2751 15.0733 22.2846 12.9551 22.2751 12.3399C22.2751 10.8339 23.8423 10.9201 23.9365 10.9201C24.6823 10.9201 26.1323 10.9223 26.5045 10.9201V6.13892H26.5023Z" fill="white"/>
</g>
<g clip-path="url(#clip1_894_4626)">
<path d="M100 39.9874C96.0896 39.9881 92.265 38.8401 89.0013 36.6862L81.3163 39.1412L83.8075 31.7162C81.3271 28.3138 79.9936 24.2105 80 20C80 8.97745 88.9663 0.0124512 99.9875 0.0124512C111.009 0.0124512 119.975 8.97745 119.975 20C119.975 31.0225 111.013 39.9874 99.9875 39.9874H100Z" fill="#FEFEFE"/>
<path d="M100.004 0.0114746C88.9812 0.0114746 80.0156 8.97743 80.0156 19.9996C80.0156 24.3706 81.4258 28.4249 83.8229 31.7155L81.3313 39.1426L89.0131 36.6868C92.1736 38.7785 95.9461 39.9887 100.012 39.9887C111.034 39.9887 120 31.0224 120 20.0006C120 8.97875 111.034 0.012469 100.012 0.012469H100L100.004 0.0114746Z" fill="#F39200"/>
<path d="M94.4194 10.1649C94.0444 9.23614 93.7381 9.20239 93.1506 9.16489L92.4806 9.13989C91.7181 9.13989 90.9181 9.36489 90.4356 9.85614C89.8481 10.4561 88.3906 11.8536 88.3906 14.7211C88.3906 17.5886 90.4819 20.3611 90.7656 20.7499C91.0594 21.1249 94.8431 27.1074 100.719 29.5399C105.314 31.4436 106.677 31.2674 107.723 31.0436C109.251 30.7149 111.166 29.5861 111.648 28.2236C112.131 26.8611 112.131 25.6986 111.988 25.4486C111.846 25.1986 111.459 25.0736 110.872 24.7674C110.284 24.4611 107.429 23.0636 106.888 22.8749C106.359 22.6749 105.854 22.7461 105.454 23.3099C104.892 24.0974 104.338 24.8974 103.892 25.3774C103.539 25.7524 102.963 25.8024 102.482 25.6024C101.836 25.3324 100.026 24.6974 97.7944 22.7111C96.0669 21.1736 94.8919 19.2561 94.5506 18.6811C94.2094 18.0936 94.5156 17.7524 94.7856 17.4349C95.0794 17.0699 95.3606 16.8124 95.6556 16.4724C95.9506 16.1324 96.1144 15.9549 96.3019 15.5561C96.5019 15.1811 96.3606 14.7686 96.2194 14.4749C96.0781 14.1811 94.9031 11.3124 94.4219 10.1499L94.4194 10.1649Z" fill="#FEFEFE"/>
</g>
<g clip-path="url(#clip2_894_4626)">
<path d="M180.006 0C171.657 0 169.215 0.00859375 168.74 0.0476563C167.026 0.190625 165.96 0.460156 164.798 1.03906C163.903 1.48359 163.197 1.99922 162.501 2.72187C161.231 4.03906 160.462 5.66016 160.184 7.58672C160.049 8.52188 160.009 8.71328 160.001 13.4914C159.998 15.0844 160.001 17.1805 160.001 19.9922C160.001 28.3375 160.011 30.7773 160.051 31.2516C160.189 32.9195 160.451 33.9688 161.005 35.1164C162.063 37.3133 164.084 38.9625 166.465 39.5781C167.289 39.7906 168.2 39.907 169.369 39.9625C169.864 39.9844 174.912 39.9992 179.964 39.9992C185.015 39.9992 190.066 39.993 190.55 39.9688C191.904 39.9047 192.69 39.7992 193.558 39.575C195.955 38.9562 197.939 37.332 199.019 35.1039C199.562 33.9836 199.837 32.8945 199.962 31.3141C199.989 30.9695 200 25.4742 200 19.9867C200 14.4984 199.987 9.01328 199.961 8.66875C199.835 7.0625 199.559 5.98203 198.999 4.84062C198.539 3.90625 198.029 3.20781 197.287 2.49453C195.964 1.23047 194.346 0.460938 192.418 0.182812C191.483 0.0484375 191.297 0.00859375 186.516 0H180.006Z" fill="#F39200"/>
<path d="M180.006 0C171.657 0 169.215 0.00859375 168.74 0.0476563C167.026 0.190625 165.96 0.460156 164.798 1.03906C163.903 1.48359 163.197 1.99922 162.501 2.72187C161.231 4.03906 160.462 5.66016 160.184 7.58672C160.049 8.52188 160.009 8.71328 160.001 13.4914C159.998 15.0844 160.001 17.1805 160.001 19.9922C160.001 28.3375 160.011 30.7773 160.051 31.2516C160.189 32.9195 160.451 33.9688 161.005 35.1164C162.063 37.3133 164.084 38.9625 166.465 39.5781C167.289 39.7906 168.2 39.907 169.369 39.9625C169.864 39.9844 174.912 39.9992 179.964 39.9992C185.015 39.9992 190.066 39.993 190.55 39.9688C191.904 39.9047 192.69 39.7992 193.558 39.575C195.955 38.9562 197.939 37.332 199.019 35.1039C199.562 33.9836 199.837 32.8945 199.962 31.3141C199.989 30.9695 200 25.4742 200 19.9867C200 14.4984 199.987 9.01328 199.961 8.66875C199.835 7.0625 199.559 5.98203 198.999 4.84062C198.539 3.90625 198.029 3.20781 197.287 2.49453C195.964 1.23047 194.346 0.460938 192.418 0.182812C191.483 0.0484375 191.297 0.00859375 186.516 0H180.006Z" fill="url(#paint0_radial_894_4626)"/>
<path d="M180.006 0C171.657 0 169.215 0.00859375 168.74 0.0476563C167.026 0.190625 165.96 0.460156 164.798 1.03906C163.903 1.48359 163.197 1.99922 162.501 2.72187C161.231 4.03906 160.462 5.66016 160.184 7.58672C160.049 8.52188 160.009 8.71328 160.001 13.4914C159.998 15.0844 160.001 17.1805 160.001 19.9922C160.001 28.3375 160.011 30.7773 160.051 31.2516C160.189 32.9195 160.451 33.9688 161.005 35.1164C162.063 37.3133 164.084 38.9625 166.465 39.5781C167.289 39.7906 168.2 39.907 169.369 39.9625C169.864 39.9844 174.912 39.9992 179.964 39.9992C185.015 39.9992 190.066 39.993 190.55 39.9688C191.904 39.9047 192.69 39.7992 193.558 39.575C195.955 38.9562 197.939 37.332 199.019 35.1039C199.562 33.9836 199.837 32.8945 199.962 31.3141C199.989 30.9695 200 25.4742 200 19.9867C200 14.4984 199.987 9.01328 199.961 8.66875C199.835 7.0625 199.559 5.98203 198.999 4.84062C198.539 3.90625 198.029 3.20781 197.287 2.49453C195.964 1.23047 194.346 0.460938 192.418 0.182812C191.483 0.0484375 191.297 0.00859375 186.516 0H180.006Z" fill="#F39200"/>
<path d="M180.006 0C171.657 0 169.215 0.00859375 168.74 0.0476563C167.026 0.190625 165.96 0.460156 164.798 1.03906C163.903 1.48359 163.197 1.99922 162.501 2.72187C161.231 4.03906 160.462 5.66016 160.184 7.58672C160.049 8.52188 160.009 8.71328 160.001 13.4914C159.998 15.0844 160.001 17.1805 160.001 19.9922C160.001 28.3375 160.011 30.7773 160.051 31.2516C160.189 32.9195 160.451 33.9688 161.005 35.1164C162.063 37.3133 164.084 38.9625 166.465 39.5781C167.289 39.7906 168.2 39.907 169.369 39.9625C169.864 39.9844 174.912 39.9992 179.964 39.9992C185.015 39.9992 190.066 39.993 190.55 39.9688C191.904 39.9047 192.69 39.7992 193.558 39.575C195.955 38.9562 197.939 37.332 199.019 35.1039C199.562 33.9836 199.837 32.8945 199.962 31.3141C199.989 30.9695 200 25.4742 200 19.9867C200 14.4984 199.987 9.01328 199.961 8.66875C199.835 7.0625 199.559 5.98203 198.999 4.84062C198.539 3.90625 198.029 3.20781 197.287 2.49453C195.964 1.23047 194.346 0.460938 192.418 0.182812C191.483 0.0484375 191.297 0.00859375 186.516 0H180.006Z" fill="#F39200"/>
<path d="M180.005 5.13599C175.966 5.13599 175.459 5.15396 173.873 5.22583C172.29 5.29849 171.209 5.54849 170.264 5.91646C169.286 6.29614 168.456 6.80396 167.63 7.62974C166.802 8.45552 166.295 9.28521 165.913 10.2618C165.545 11.2071 165.294 12.2875 165.223 13.8688C165.152 15.454 165.133 15.961 165.133 19.9969C165.133 24.0329 165.151 24.5383 165.223 26.1235C165.295 27.7055 165.546 28.7852 165.913 29.7305C166.294 30.7079 166.802 31.5368 167.629 32.3633C168.455 33.1899 169.285 33.6993 170.262 34.079C171.209 34.4461 172.29 34.6969 173.873 34.7696C175.459 34.8415 175.966 34.8594 180.005 34.8594C184.044 34.8594 184.549 34.8415 186.136 34.7696C187.72 34.6969 188.802 34.4469 189.748 34.079C190.726 33.6993 191.554 33.1907 192.38 32.3641C193.208 31.5383 193.716 30.7086 194.097 29.7321C194.462 28.7868 194.713 27.7063 194.787 26.125C194.859 24.5399 194.877 24.0344 194.877 19.9985C194.877 15.9625 194.859 15.4555 194.787 13.8704C194.713 12.2883 194.462 11.2086 194.097 10.2633C193.716 9.28599 193.208 8.45708 192.38 7.63052C191.553 6.80396 190.726 6.29614 189.747 5.91646C188.798 5.54927 187.717 5.29849 186.134 5.22583C184.548 5.15396 184.043 5.13599 180.002 5.13599H180.005ZM178.672 7.81411C179.068 7.81333 179.509 7.81411 180.006 7.81411C183.977 7.81411 184.448 7.82817 186.016 7.89927C187.466 7.96567 188.252 8.20786 188.777 8.41099C189.47 8.68052 189.966 9.00239 190.486 9.52271C191.006 10.043 191.329 10.5383 191.599 11.2321C191.803 11.7555 192.045 12.5415 192.112 13.9907C192.183 15.5571 192.198 16.0282 192.198 19.9938C192.198 23.9602 192.183 24.4305 192.112 25.9969C192.045 27.4461 191.803 28.2321 191.599 28.7555C191.33 29.4493 191.007 29.943 190.486 30.4626C189.966 30.9829 189.471 31.3047 188.777 31.5743C188.253 31.779 187.466 32.0204 186.016 32.086C184.448 32.1571 183.977 32.1727 180.006 32.1727C176.035 32.1727 175.564 32.1571 173.997 32.086C172.547 32.0188 171.76 31.7774 171.235 31.5735C170.541 31.304 170.045 30.9821 169.525 30.4618C169.005 29.9415 168.682 29.4477 168.412 28.754C168.208 28.2305 167.966 27.4446 167.899 25.9954C167.828 24.429 167.814 23.9579 167.814 19.9899C167.814 16.0211 167.828 15.5532 167.899 13.9868C167.966 12.5375 168.208 11.7516 168.412 11.2274C168.681 10.5336 169.004 10.0383 169.525 9.51802C170.045 8.99771 170.541 8.67583 171.235 8.40552C171.759 8.20083 172.547 7.95942 173.997 7.89302C175.369 7.8313 175.901 7.81255 178.673 7.80942L178.672 7.81411ZM187.945 10.2821C186.959 10.2821 186.16 11.0797 186.16 12.0649C186.16 13.0493 186.959 13.8485 187.945 13.8485C188.93 13.8485 189.729 13.05 189.729 12.0649C189.729 11.0797 188.93 10.2813 187.945 10.2821ZM180.005 12.3657C175.787 12.3657 172.368 15.7829 172.368 19.9977C172.368 24.2125 175.787 27.6282 180.005 27.6282C184.223 27.6282 187.641 24.2125 187.641 19.9977C187.641 15.7829 184.223 12.3657 180.005 12.3657ZM180.005 15.0438C182.743 15.0438 184.963 17.2618 184.963 19.9977C184.963 22.7336 182.744 24.9516 180.005 24.9516C177.267 24.9516 175.048 22.7336 175.048 19.9977C175.048 17.261 177.268 15.0438 180.005 15.0438Z" fill="white"/>
</g>
<g clip-path="url(#clip3_894_4626)">
<path d="M280 20C280 31.05 271.05 40 260 40C248.95 40 240 31.05 240 20C240 8.95 248.95 0 260 0C271.05 0 280 8.95 280 20Z" fill="#F39200"/>
<path d="M256.331 29.1667C255.681 29.1667 255.797 28.9167 255.564 28.3001L253.664 22.0334L265.464 14.6667L266.847 15.0334L265.697 18.1667L256.331 29.1667Z" fill="#C8DAEA"/>
<path d="M256.336 29.1667C256.836 29.1667 257.053 28.9333 257.336 28.6667C257.769 28.25 263.336 22.8333 263.336 22.8333L259.919 22L256.753 24L256.336 29V29.1667Z" fill="#A9C9DD"/>
<path d="M256.669 24.0666L264.735 30.0166C265.652 30.5166 266.319 30.2666 266.552 29.1666L269.835 13.6999C270.169 12.3499 269.319 11.7499 268.435 12.1499L249.169 19.5832C247.852 20.1166 247.869 20.8499 248.935 21.1666L253.885 22.7166L265.335 15.4999C265.869 15.1666 266.369 15.3499 265.969 15.7166L256.669 24.0666Z" fill="url(#paint1_linear_894_4626)"/>
</g>
<defs>
<radialGradient id="paint0_radial_894_4626" cx="0" cy="0" r="1" gradientUnits="userSpaceOnUse" gradientTransform="translate(170.625 43.0809) rotate(-90) scale(31.9288 33.8759)">
<stop stop-color="#FFCC00"/>
<stop offset="0.1242" stop-color="#FFCC00"/>
<stop offset="0.5672" stop-color="#FE4A05"/>
<stop offset="0.6942" stop-color="#FF0F3F"/>
<stop offset="1" stop-color="#FE0657" stop-opacity="0"/>
</radialGradient>
<linearGradient id="paint1_linear_894_4626" x1="261.5" y1="20.6257" x2="265.667" y2="27.2924" gradientUnits="userSpaceOnUse">
<stop stop-color="#EFF7FC"/>
<stop offset="1" stop-color="white"/>
</linearGradient>
<clipPath id="clip0_894_4626">
<rect width="40" height="40" fill="white"/>
</clipPath>
<clipPath id="clip1_894_4626">
<rect width="40" height="40" fill="white" transform="translate(80)"/>
</clipPath>
<clipPath id="clip2_894_4626">
<rect width="40" height="40" fill="white" transform="translate(160)"/>
</clipPath>
<clipPath id="clip3_894_4626">
<rect width="40" height="40" fill="white" transform="translate(240)"/>
</clipPath>
</defs>
</svg>
