<svg width="40" height="40" viewBox="0 0 40 40" fill="none" xmlns="http://www.w3.org/2000/svg">
<g clip-path="url(#clip0_894_4640)">
<path d="M20.0061 0C11.6569 0 9.21467 0.00859375 8.73967 0.0476563C7.02639 0.190625 5.95998 0.460156 4.79826 1.03906C3.90295 1.48359 3.1967 1.99922 2.50061 2.72187C1.23108 4.03906 0.462326 5.66016 0.184201 7.58672C0.0490451 8.52188 0.00920139 8.71328 0.00138889 13.4914C-0.00173611 15.0844 0.00138889 17.1805 0.00138889 19.9922C0.00138889 28.3375 0.0107639 30.7773 0.0506076 31.2516C0.188889 32.9195 0.450608 33.9688 1.00451 35.1164C2.06311 37.3133 4.0842 38.9625 6.46467 39.5781C7.28889 39.7906 8.19983 39.907 9.36858 39.9625C9.86389 39.9844 14.9123 39.9992 19.9639 39.9992C25.0155 39.9992 30.0662 39.993 30.5498 39.9688C31.9037 39.9047 32.6897 39.7992 33.5584 39.575C35.9545 38.9562 37.9389 37.332 39.0186 35.1039C39.5615 33.9836 39.8365 32.8945 39.9615 31.3141C39.9889 30.9695 39.9998 25.4742 39.9998 19.9867C39.9998 14.4984 39.9873 9.01328 39.9608 8.66875C39.835 7.0625 39.5592 5.98203 38.999 4.84062C38.5389 3.90625 38.0287 3.20781 37.2873 2.49453C35.9639 1.23047 34.3459 0.460938 32.4178 0.182812C31.4826 0.0484375 31.2967 0.00859375 26.5162 0H20.0061Z" fill="#F39200"/>
<path d="M20.0061 0C11.6569 0 9.21467 0.00859375 8.73967 0.0476563C7.02639 0.190625 5.95998 0.460156 4.79826 1.03906C3.90295 1.48359 3.1967 1.99922 2.50061 2.72187C1.23108 4.03906 0.462326 5.66016 0.184201 7.58672C0.0490451 8.52188 0.00920139 8.71328 0.00138889 13.4914C-0.00173611 15.0844 0.00138889 17.1805 0.00138889 19.9922C0.00138889 28.3375 0.0107639 30.7773 0.0506076 31.2516C0.188889 32.9195 0.450608 33.9688 1.00451 35.1164C2.06311 37.3133 4.0842 38.9625 6.46467 39.5781C7.28889 39.7906 8.19983 39.907 9.36858 39.9625C9.86389 39.9844 14.9123 39.9992 19.9639 39.9992C25.0155 39.9992 30.0662 39.993 30.5498 39.9688C31.9037 39.9047 32.6897 39.7992 33.5584 39.575C35.9545 38.9562 37.9389 37.332 39.0186 35.1039C39.5615 33.9836 39.8365 32.8945 39.9615 31.3141C39.9889 30.9695 39.9998 25.4742 39.9998 19.9867C39.9998 14.4984 39.9873 9.01328 39.9608 8.66875C39.835 7.0625 39.5592 5.98203 38.999 4.84062C38.5389 3.90625 38.0287 3.20781 37.2873 2.49453C35.9639 1.23047 34.3459 0.460938 32.4178 0.182812C31.4826 0.0484375 31.2967 0.00859375 26.5162 0H20.0061Z" fill="url(#paint0_radial_894_4640)"/>
<path d="M20.0061 0C11.6569 0 9.21467 0.00859375 8.73967 0.0476563C7.02639 0.190625 5.95998 0.460156 4.79826 1.03906C3.90295 1.48359 3.1967 1.99922 2.50061 2.72187C1.23108 4.03906 0.462326 5.66016 0.184201 7.58672C0.0490451 8.52188 0.00920139 8.71328 0.00138889 13.4914C-0.00173611 15.0844 0.00138889 17.1805 0.00138889 19.9922C0.00138889 28.3375 0.0107639 30.7773 0.0506076 31.2516C0.188889 32.9195 0.450608 33.9688 1.00451 35.1164C2.06311 37.3133 4.0842 38.9625 6.46467 39.5781C7.28889 39.7906 8.19983 39.907 9.36858 39.9625C9.86389 39.9844 14.9123 39.9992 19.9639 39.9992C25.0155 39.9992 30.0662 39.993 30.5498 39.9688C31.9037 39.9047 32.6897 39.7992 33.5584 39.575C35.9545 38.9562 37.9389 37.332 39.0186 35.1039C39.5615 33.9836 39.8365 32.8945 39.9615 31.3141C39.9889 30.9695 39.9998 25.4742 39.9998 19.9867C39.9998 14.4984 39.9873 9.01328 39.9608 8.66875C39.835 7.0625 39.5592 5.98203 38.999 4.84062C38.5389 3.90625 38.0287 3.20781 37.2873 2.49453C35.9639 1.23047 34.3459 0.460938 32.4178 0.182812C31.4826 0.0484375 31.2967 0.00859375 26.5162 0H20.0061Z" fill="#F39200"/>
<path d="M20.0061 0C11.6569 0 9.21467 0.00859375 8.73967 0.0476563C7.02639 0.190625 5.95998 0.460156 4.79826 1.03906C3.90295 1.48359 3.1967 1.99922 2.50061 2.72187C1.23108 4.03906 0.462326 5.66016 0.184201 7.58672C0.0490451 8.52188 0.00920139 8.71328 0.00138889 13.4914C-0.00173611 15.0844 0.00138889 17.1805 0.00138889 19.9922C0.00138889 28.3375 0.0107639 30.7773 0.0506076 31.2516C0.188889 32.9195 0.450608 33.9688 1.00451 35.1164C2.06311 37.3133 4.0842 38.9625 6.46467 39.5781C7.28889 39.7906 8.19983 39.907 9.36858 39.9625C9.86389 39.9844 14.9123 39.9992 19.9639 39.9992C25.0155 39.9992 30.0662 39.993 30.5498 39.9688C31.9037 39.9047 32.6897 39.7992 33.5584 39.575C35.9545 38.9562 37.9389 37.332 39.0186 35.1039C39.5615 33.9836 39.8365 32.8945 39.9615 31.3141C39.9889 30.9695 39.9998 25.4742 39.9998 19.9867C39.9998 14.4984 39.9873 9.01328 39.9608 8.66875C39.835 7.0625 39.5592 5.98203 38.999 4.84062C38.5389 3.90625 38.0287 3.20781 37.2873 2.49453C35.9639 1.23047 34.3459 0.460938 32.4178 0.182812C31.4826 0.0484375 31.2967 0.00859375 26.5162 0H20.0061Z" fill="#F39200"/>
<path d="M20.0055 5.13599C15.9664 5.13599 15.4594 5.15396 13.8734 5.22583C12.2898 5.29849 11.2094 5.54849 10.2641 5.91646C9.28594 6.29614 8.45625 6.80396 7.62969 7.62974C6.80234 8.45552 6.29453 9.28521 5.91328 10.2618C5.54453 11.2071 5.29375 12.2875 5.22266 13.8688C5.15156 15.454 5.13281 15.961 5.13281 19.9969C5.13281 24.0329 5.15078 24.5383 5.22266 26.1235C5.29531 27.7055 5.54609 28.7852 5.91328 29.7305C6.29375 30.7079 6.80156 31.5368 7.62891 32.3633C8.45547 33.1899 9.28516 33.6993 10.2625 34.079C11.2086 34.4461 12.2898 34.6969 13.8727 34.7696C15.4594 34.8415 15.9656 34.8594 20.0047 34.8594C24.0437 34.8594 24.5492 34.8415 26.1359 34.7696C27.7195 34.6969 28.8016 34.4469 29.7477 34.079C30.7258 33.6993 31.5539 33.1907 32.3805 32.3641C33.2078 31.5383 33.7156 30.7086 34.0969 29.7321C34.4625 28.7868 34.7133 27.7063 34.7875 26.125C34.8586 24.5399 34.8773 24.0344 34.8773 19.9985C34.8773 15.9625 34.8586 15.4555 34.7875 13.8704C34.7133 12.2883 34.4625 11.2086 34.0969 10.2633C33.7156 9.28599 33.2078 8.45708 32.3805 7.63052C31.5531 6.80396 30.7258 6.29614 29.7469 5.91646C28.7984 5.54927 27.7172 5.29849 26.1344 5.22583C24.5477 5.15396 24.043 5.13599 20.0023 5.13599H20.0055ZM18.6719 7.81411C19.068 7.81333 19.5094 7.81411 20.0062 7.81411C23.9773 7.81411 24.4477 7.82817 26.0156 7.89927C27.4656 7.96567 28.2523 8.20786 28.7766 8.41099C29.4703 8.68052 29.9656 9.00239 30.4859 9.52271C31.0062 10.043 31.3289 10.5383 31.5992 11.2321C31.8031 11.7555 32.0453 12.5415 32.1117 13.9907C32.1828 15.5571 32.1984 16.0282 32.1984 19.9938C32.1984 23.9602 32.1828 24.4305 32.1117 25.9969C32.0453 27.4461 31.8031 28.2321 31.5992 28.7555C31.3297 29.4493 31.007 29.943 30.4859 30.4626C29.9656 30.9829 29.4711 31.3047 28.7766 31.5743C28.2531 31.779 27.4656 32.0204 26.0156 32.086C24.4477 32.1571 23.9766 32.1727 20.0062 32.1727C16.0352 32.1727 15.5641 32.1571 13.9969 32.086C12.5469 32.0188 11.7602 31.7774 11.2352 31.5735C10.5414 31.304 10.0453 30.9821 9.525 30.4618C9.00469 29.9415 8.68203 29.4477 8.41172 28.754C8.20781 28.2305 7.96562 27.4446 7.89922 25.9954C7.82812 24.429 7.81406 23.9579 7.81406 19.9899C7.81406 16.0211 7.82812 15.5532 7.89922 13.9868C7.96562 12.5375 8.20781 11.7516 8.41172 11.2274C8.68125 10.5336 9.00391 10.0383 9.525 9.51802C10.0453 8.99771 10.5414 8.67583 11.2352 8.40552C11.7594 8.20083 12.5469 7.95942 13.9969 7.89302C15.3687 7.8313 15.9008 7.81255 18.6727 7.80942L18.6719 7.81411ZM27.9445 10.2821C26.9594 10.2821 26.1602 11.0797 26.1602 12.0649C26.1602 13.0493 26.9594 13.8485 27.9445 13.8485C28.9297 13.8485 29.7289 13.05 29.7289 12.0649C29.7289 11.0797 28.9297 10.2813 27.9445 10.2821ZM20.0055 12.3657C15.7875 12.3657 12.368 15.7829 12.368 19.9977C12.368 24.2125 15.7875 27.6282 20.0055 27.6282C24.2234 27.6282 27.6414 24.2125 27.6414 19.9977C27.6414 15.7829 24.2234 12.3657 20.0055 12.3657ZM20.0055 15.0438C22.743 15.0438 24.9633 17.2618 24.9633 19.9977C24.9633 22.7336 22.7437 24.9516 20.0055 24.9516C17.2672 24.9516 15.0477 22.7336 15.0477 19.9977C15.0484 17.261 17.268 15.0438 20.0055 15.0438Z" fill="white"/>
</g>
<defs>
<radialGradient id="paint0_radial_894_4640" cx="0" cy="0" r="1" gradientUnits="userSpaceOnUse" gradientTransform="translate(10.6246 43.0809) rotate(-90) scale(31.9288 33.8759)">
<stop stop-color="#FFCC00"/>
<stop offset="0.1242" stop-color="#FFCC00"/>
<stop offset="0.5672" stop-color="#FE4A05"/>
<stop offset="0.6942" stop-color="#FF0F3F"/>
<stop offset="1" stop-color="#FE0657" stop-opacity="0"/>
</radialGradient>
<clipPath id="clip0_894_4640">
<rect width="40" height="40" fill="white"/>
</clipPath>
</defs>
</svg>
