<svg width="299" height="36" viewBox="0 0 299 36" fill="none" xmlns="http://www.w3.org/2000/svg">
<path d="M0.639027 28V1.81818H10.4572C12.4686 1.81818 14.1561 2.16761 15.5197 2.86648C16.8919 3.56534 17.9274 4.54545 18.6262 5.80682C19.3336 7.05966 19.6873 8.52131 19.6873 10.1918C19.6873 11.8707 19.3294 13.3281 18.6135 14.5639C17.9061 15.7912 16.862 16.7415 15.4814 17.4148C14.1007 18.0795 12.4047 18.4119 10.3933 18.4119H3.40039V14.4744H9.75408C10.9302 14.4744 11.8933 14.3125 12.6433 13.9886C13.3933 13.6562 13.9473 13.1747 14.3052 12.544C14.6717 11.9048 14.8549 11.1207 14.8549 10.1918C14.8549 9.26278 14.6717 8.47017 14.3052 7.81392C13.9387 7.14915 13.3805 6.64631 12.6305 6.3054C11.8805 5.95597 10.9132 5.78125 9.72852 5.78125H5.38193V28H0.639027ZM14.1646 16.1364L20.6461 28H15.3535L8.98704 16.1364H14.1646ZM32.2605 28.3835C30.2917 28.3835 28.5914 27.9744 27.1596 27.1562C25.7363 26.3295 24.6412 25.1619 23.8741 23.6534C23.1071 22.1364 22.7235 20.3509 22.7235 18.2969C22.7235 16.277 23.1071 14.5043 23.8741 12.9787C24.6497 11.4446 25.7321 10.2514 27.1213 9.39915C28.5105 8.53835 30.1426 8.10795 32.0176 8.10795C33.2278 8.10795 34.3699 8.30398 35.4437 8.69602C36.5261 9.07954 37.4806 9.67614 38.3074 10.4858C39.1426 11.2955 39.7988 12.3267 40.2761 13.5795C40.7534 14.8239 40.992 16.3068 40.992 18.0284V19.4474H24.8968V16.3281H36.5559C36.5474 15.4418 36.3556 14.6534 35.9806 13.9631C35.6056 13.2642 35.0815 12.7145 34.4082 12.3139C33.7434 11.9134 32.9679 11.7131 32.0815 11.7131C31.1355 11.7131 30.3045 11.9432 29.5886 12.4034C28.8727 12.8551 28.3145 13.4517 27.9139 14.1932C27.5218 14.9261 27.3216 15.7315 27.313 16.6094V19.3324C27.313 20.4744 27.5218 21.4545 27.9395 22.2727C28.3571 23.0824 28.9409 23.7045 29.6909 24.1392C30.4409 24.5653 31.3187 24.7784 32.3244 24.7784C32.9977 24.7784 33.6071 24.6847 34.1525 24.4972C34.698 24.3011 35.171 24.0156 35.5716 23.6406C35.9721 23.2656 36.2747 22.8011 36.4792 22.2472L40.8002 22.733C40.5275 23.875 40.0076 24.8722 39.2406 25.7244C38.4821 26.5682 37.5105 27.2244 36.3258 27.6932C35.1412 28.1534 33.786 28.3835 32.2605 28.3835ZM53.4469 35.7727C51.785 35.7727 50.3574 35.5469 49.1642 35.0952C47.9711 34.652 47.0123 34.0554 46.2878 33.3054C45.5634 32.5554 45.0605 31.7244 44.7793 30.8125L48.9469 29.8026C49.1344 30.1861 49.4071 30.5653 49.7651 30.9403C50.123 31.3239 50.6046 31.6392 51.2097 31.8864C51.8233 32.142 52.5946 32.2699 53.5236 32.2699C54.8361 32.2699 55.9228 31.9503 56.7836 31.3111C57.6444 30.6804 58.0748 29.6406 58.0748 28.1918V24.4716H57.8446C57.606 24.9489 57.2566 25.4389 56.7963 25.9418C56.3446 26.4446 55.7438 26.8665 54.9938 27.2074C54.2523 27.5483 53.3191 27.7188 52.1941 27.7188C50.6855 27.7188 49.3176 27.3651 48.0904 26.6577C46.8716 25.9418 45.9 24.8764 45.1756 23.4616C44.4597 22.0384 44.1017 20.2571 44.1017 18.1179C44.1017 15.9616 44.4597 14.142 45.1756 12.6591C45.9 11.1676 46.8759 10.0384 48.1032 9.27131C49.3304 8.49574 50.6983 8.10795 52.2069 8.10795C53.3574 8.10795 54.3034 8.30398 55.0449 8.69602C55.7949 9.07954 56.3915 9.54403 56.8347 10.0895C57.2779 10.6264 57.6145 11.1335 57.8446 11.6108H58.1003V8.36364H62.6642V28.3196C62.6642 29.9986 62.2637 31.3878 61.4625 32.4872C60.6614 33.5866 59.5662 34.4091 58.177 34.9545C56.7878 35.5 55.2111 35.7727 53.4469 35.7727ZM53.4853 24.0881C54.4654 24.0881 55.3006 23.8494 55.9909 23.3722C56.6813 22.8949 57.2054 22.2088 57.5634 21.3139C57.9213 20.419 58.1003 19.3452 58.1003 18.0923C58.1003 16.8565 57.9213 15.7741 57.5634 14.8452C57.214 13.9162 56.6941 13.196 56.0037 12.6847C55.3219 12.1648 54.4824 11.9048 53.4853 11.9048C52.454 11.9048 51.5932 12.1733 50.9029 12.7102C50.2125 13.2472 49.6926 13.9844 49.3432 14.9219C48.9938 15.8509 48.8191 16.9077 48.8191 18.0923C48.8191 19.294 48.9938 20.3466 49.3432 21.25C49.7012 22.1449 50.2253 22.8437 50.9157 23.3466C51.6145 23.8409 52.4711 24.0881 53.4853 24.0881ZM67.4071 28V8.36364H72.035V28H67.4071ZM69.7338 5.5767C69.0009 5.5767 68.3702 5.33381 67.8418 4.84801C67.3134 4.35369 67.0492 3.76136 67.0492 3.07102C67.0492 2.37216 67.3134 1.77983 67.8418 1.29403C68.3702 0.799715 69.0009 0.552556 69.7338 0.552556C70.4753 0.552556 71.106 0.799715 71.6259 1.29403C72.1543 1.77983 72.4185 2.37216 72.4185 3.07102C72.4185 3.76136 72.1543 4.35369 71.6259 4.84801C71.106 5.33381 70.4753 5.5767 69.7338 5.5767ZM92.3137 13.554L88.095 14.0142C87.9757 13.5881 87.7669 13.1875 87.4686 12.8125C87.1788 12.4375 86.7868 12.1349 86.2924 11.9048C85.7981 11.6747 85.193 11.5597 84.4771 11.5597C83.514 11.5597 82.7044 11.7685 82.0481 12.1861C81.4004 12.6037 81.0808 13.1449 81.0893 13.8097C81.0808 14.3807 81.2896 14.8452 81.7157 15.2031C82.1504 15.5611 82.8663 15.8551 83.8635 16.0852L87.2129 16.8011C89.0708 17.2017 90.4515 17.8366 91.3549 18.706C92.2669 19.5753 92.7271 20.7131 92.7356 22.1193C92.7271 23.3551 92.3649 24.446 91.649 25.392C90.9416 26.3295 89.9572 27.0625 88.6958 27.5909C87.4345 28.1193 85.9856 28.3835 84.3493 28.3835C81.9458 28.3835 80.0112 27.8807 78.5453 26.875C77.0794 25.8608 76.2058 24.4503 75.9245 22.6435L80.4373 22.2088C80.6419 23.0952 81.0765 23.7642 81.7413 24.2159C82.4061 24.6676 83.2711 24.8935 84.3365 24.8935C85.4359 24.8935 86.318 24.6676 86.9828 24.2159C87.6561 23.7642 87.9927 23.206 87.9927 22.5412C87.9927 21.9787 87.7754 21.5142 87.3407 21.1477C86.9146 20.7812 86.2498 20.5 85.3464 20.304L81.997 19.6009C80.1135 19.2088 78.72 18.5483 77.8166 17.6193C76.9132 16.6818 76.4657 15.4972 76.4743 14.0653C76.4657 12.8551 76.7939 11.8068 77.4586 10.9205C78.1319 10.0256 79.0652 9.33523 80.2583 8.84943C81.4601 8.35511 82.845 8.10795 84.4132 8.10795C86.7143 8.10795 88.5254 8.59801 89.8464 9.57812C91.176 10.5582 91.9984 11.8835 92.3137 13.554ZM106.357 8.36364V11.9432H95.0687V8.36364H106.357ZM97.8556 3.65909H102.483V22.0938C102.483 22.7159 102.577 23.1932 102.765 23.5256C102.961 23.8494 103.216 24.071 103.532 24.1903C103.847 24.3097 104.197 24.3693 104.58 24.3693C104.87 24.3693 105.134 24.348 105.373 24.3054C105.62 24.2628 105.807 24.2244 105.935 24.1903L106.715 27.8082C106.468 27.8935 106.114 27.9872 105.654 28.0895C105.202 28.1918 104.648 28.2514 103.992 28.2685C102.833 28.3026 101.789 28.1278 100.86 27.7443C99.9309 27.3523 99.1937 26.7472 98.6483 25.929C98.1113 25.1108 97.8471 24.0881 97.8556 22.8608V3.65909ZM110.227 28V8.36364H114.715V11.6364H114.919C115.277 10.5028 115.891 9.62926 116.76 9.01562C117.638 8.39347 118.639 8.08239 119.764 8.08239C120.02 8.08239 120.306 8.09517 120.621 8.12074C120.945 8.13778 121.213 8.16761 121.426 8.21023V12.4673C121.23 12.3991 120.919 12.3395 120.493 12.2884C120.075 12.2287 119.671 12.1989 119.279 12.1989C118.435 12.1989 117.676 12.3821 117.003 12.7486C116.338 13.1065 115.814 13.6051 115.431 14.2443C115.047 14.8835 114.855 15.6207 114.855 16.456V28H110.227ZM129.8 28.3963C128.556 28.3963 127.435 28.1747 126.438 27.7315C125.449 27.2798 124.665 26.6151 124.085 25.7372C123.514 24.8594 123.229 23.777 123.229 22.4901C123.229 21.3821 123.433 20.4659 123.843 19.7415C124.252 19.017 124.81 18.4375 125.517 18.0028C126.225 17.5682 127.021 17.2401 127.908 17.0185C128.803 16.7884 129.727 16.6222 130.682 16.5199C131.833 16.4006 132.766 16.294 133.482 16.2003C134.198 16.098 134.718 15.9446 135.041 15.7401C135.374 15.527 135.54 15.1989 135.54 14.7557V14.679C135.54 13.7159 135.254 12.9702 134.683 12.4418C134.112 11.9134 133.29 11.6491 132.216 11.6491C131.083 11.6491 130.183 11.8963 129.519 12.3906C128.862 12.8849 128.419 13.4687 128.189 14.142L123.868 13.5284C124.209 12.3352 124.771 11.3381 125.556 10.5369C126.34 9.72727 127.298 9.12216 128.432 8.72159C129.566 8.3125 130.818 8.10795 132.191 8.10795C133.137 8.10795 134.078 8.21875 135.016 8.44034C135.953 8.66193 136.81 9.02841 137.585 9.53977C138.361 10.0426 138.983 10.7287 139.452 11.598C139.929 12.4673 140.168 13.554 140.168 14.858V28H135.719V25.3026H135.566C135.284 25.848 134.888 26.3594 134.377 26.8366C133.874 27.3054 133.239 27.6847 132.472 27.9744C131.713 28.2557 130.823 28.3963 129.8 28.3963ZM131.002 24.9957C131.931 24.9957 132.736 24.8125 133.418 24.446C134.1 24.071 134.624 23.5767 134.99 22.9631C135.365 22.3494 135.553 21.6804 135.553 20.956V18.642C135.408 18.7614 135.161 18.8722 134.811 18.9744C134.47 19.0767 134.087 19.1662 133.661 19.2429C133.235 19.3196 132.813 19.3878 132.395 19.4474C131.977 19.5071 131.615 19.5582 131.308 19.6009C130.618 19.6946 130 19.848 129.455 20.0611C128.909 20.2741 128.479 20.5724 128.164 20.956C127.848 21.331 127.691 21.8168 127.691 22.4134C127.691 23.2656 128.002 23.9091 128.624 24.3438C129.246 24.7784 130.039 24.9957 131.002 24.9957ZM144.821 28V8.36364H149.308V11.6364H149.513C149.871 10.5028 150.485 9.62926 151.354 9.01562C152.232 8.39347 153.233 8.08239 154.358 8.08239C154.614 8.08239 154.899 8.09517 155.215 8.12074C155.539 8.13778 155.807 8.16761 156.02 8.21023V12.4673C155.824 12.3991 155.513 12.3395 155.087 12.2884C154.669 12.2287 154.264 12.1989 153.872 12.1989C153.029 12.1989 152.27 12.3821 151.597 12.7486C150.932 13.1065 150.408 13.6051 150.024 14.2443C149.641 14.8835 149.449 15.6207 149.449 16.456V28H144.821ZM184.733 1.81818H189.476V18.9233C189.476 20.7983 189.033 22.4474 188.146 23.8707C187.269 25.294 186.033 26.4062 184.439 27.2074C182.845 28 180.983 28.3963 178.852 28.3963C176.713 28.3963 174.847 28 173.253 27.2074C171.659 26.4062 170.423 25.294 169.546 23.8707C168.668 22.4474 168.229 20.7983 168.229 18.9233V1.81818H172.972V18.527C172.972 19.6179 173.21 20.5895 173.688 21.4418C174.173 22.294 174.855 22.9631 175.733 23.4489C176.611 23.9261 177.651 24.1648 178.852 24.1648C180.054 24.1648 181.094 23.9261 181.972 23.4489C182.858 22.9631 183.54 22.294 184.017 21.4418C184.494 20.5895 184.733 19.6179 184.733 18.527V1.81818ZM209.947 13.554L205.728 14.0142C205.608 13.5881 205.4 13.1875 205.101 12.8125C204.812 12.4375 204.42 12.1349 203.925 11.9048C203.431 11.6747 202.826 11.5597 202.11 11.5597C201.147 11.5597 200.337 11.7685 199.681 12.1861C199.033 12.6037 198.714 13.1449 198.722 13.8097C198.714 14.3807 198.922 14.8452 199.349 15.2031C199.783 15.5611 200.499 15.8551 201.496 16.0852L204.846 16.8011C206.704 17.2017 208.084 17.8366 208.988 18.706C209.9 19.5753 210.36 20.7131 210.368 22.1193C210.36 23.3551 209.998 24.446 209.282 25.392C208.574 26.3295 207.59 27.0625 206.329 27.5909C205.067 28.1193 203.618 28.3835 201.982 28.3835C199.579 28.3835 197.644 27.8807 196.178 26.875C194.712 25.8608 193.839 24.4503 193.557 22.6435L198.07 22.2088C198.275 23.0952 198.709 23.7642 199.374 24.2159C200.039 24.6676 200.904 24.8935 201.969 24.8935C203.069 24.8935 203.951 24.6676 204.616 24.2159C205.289 23.7642 205.626 23.206 205.626 22.5412C205.626 21.9787 205.408 21.5142 204.974 21.1477C204.547 20.7812 203.883 20.5 202.979 20.304L199.63 19.6009C197.746 19.2088 196.353 18.5483 195.449 17.6193C194.546 16.6818 194.099 15.4972 194.107 14.0653C194.099 12.8551 194.427 11.8068 195.091 10.9205C195.765 10.0256 196.698 9.33523 197.891 8.84943C199.093 8.35511 200.478 8.10795 202.046 8.10795C204.347 8.10795 206.158 8.59801 207.479 9.57812C208.809 10.5582 209.631 11.8835 209.947 13.554ZM226.7 19.7415V8.36364H231.328V28H226.841V24.5099H226.636C226.193 25.6094 225.464 26.5085 224.45 27.2074C223.444 27.9062 222.204 28.2557 220.73 28.2557C219.443 28.2557 218.305 27.9702 217.317 27.3991C216.336 26.8196 215.569 25.9801 215.015 24.8807C214.461 23.7727 214.184 22.4347 214.184 20.8665V8.36364H218.812V20.1506C218.812 21.3949 219.153 22.3835 219.835 23.1165C220.517 23.8494 221.412 24.2159 222.52 24.2159C223.202 24.2159 223.862 24.0497 224.501 23.7173C225.14 23.3849 225.665 22.8906 226.074 22.2344C226.491 21.5696 226.7 20.7386 226.7 19.7415ZM241.737 28.3963C240.493 28.3963 239.372 28.1747 238.375 27.7315C237.387 27.2798 236.602 26.6151 236.023 25.7372C235.452 24.8594 235.166 23.777 235.166 22.4901C235.166 21.3821 235.371 20.4659 235.78 19.7415C236.189 19.017 236.747 18.4375 237.455 18.0028C238.162 17.5682 238.959 17.2401 239.845 17.0185C240.74 16.7884 241.665 16.6222 242.619 16.5199C243.77 16.4006 244.703 16.294 245.419 16.2003C246.135 16.098 246.655 15.9446 246.979 15.7401C247.311 15.527 247.477 15.1989 247.477 14.7557V14.679C247.477 13.7159 247.192 12.9702 246.621 12.4418C246.05 11.9134 245.227 11.6491 244.154 11.6491C243.02 11.6491 242.121 11.8963 241.456 12.3906C240.8 12.8849 240.357 13.4687 240.127 14.142L235.806 13.5284C236.146 12.3352 236.709 11.3381 237.493 10.5369C238.277 9.72727 239.236 9.12216 240.369 8.72159C241.503 8.3125 242.756 8.10795 244.128 8.10795C245.074 8.10795 246.016 8.21875 246.953 8.44034C247.891 8.66193 248.747 9.02841 249.523 9.53977C250.298 10.0426 250.921 10.7287 251.389 11.598C251.867 12.4673 252.105 13.554 252.105 14.858V28H247.656V25.3026H247.503C247.222 25.848 246.825 26.3594 246.314 26.8366C245.811 27.3054 245.176 27.6847 244.409 27.9744C243.651 28.2557 242.76 28.3963 241.737 28.3963ZM242.939 24.9957C243.868 24.9957 244.673 24.8125 245.355 24.446C246.037 24.071 246.561 23.5767 246.928 22.9631C247.303 22.3494 247.49 21.6804 247.49 20.956V18.642C247.345 18.7614 247.098 18.8722 246.749 18.9744C246.408 19.0767 246.024 19.1662 245.598 19.2429C245.172 19.3196 244.75 19.3878 244.333 19.4474C243.915 19.5071 243.553 19.5582 243.246 19.6009C242.556 19.6946 241.938 19.848 241.392 20.0611C240.847 20.2741 240.416 20.5724 240.101 20.956C239.786 21.331 239.628 21.8168 239.628 22.4134C239.628 23.2656 239.939 23.9091 240.561 24.3438C241.183 24.7784 241.976 24.9957 242.939 24.9957ZM256.759 28V8.36364H261.246V11.6364H261.45C261.808 10.5028 262.422 9.62926 263.291 9.01562C264.169 8.39347 265.171 8.08239 266.296 8.08239C266.551 8.08239 266.837 8.09517 267.152 8.12074C267.476 8.13778 267.744 8.16761 267.958 8.21023V12.4673C267.762 12.3991 267.45 12.3395 267.024 12.2884C266.607 12.2287 266.202 12.1989 265.81 12.1989C264.966 12.1989 264.208 12.3821 263.534 12.7486C262.869 13.1065 262.345 13.6051 261.962 14.2443C261.578 14.8835 261.387 15.6207 261.387 16.456V28H256.759ZM271.032 28V8.36364H275.66V28H271.032ZM273.359 5.5767C272.626 5.5767 271.995 5.33381 271.467 4.84801C270.938 4.35369 270.674 3.76136 270.674 3.07102C270.674 2.37216 270.938 1.77983 271.467 1.29403C271.995 0.799715 272.626 0.552556 273.359 0.552556C274.1 0.552556 274.731 0.799715 275.251 1.29403C275.779 1.77983 276.044 2.37216 276.044 3.07102C276.044 3.76136 275.779 4.35369 275.251 4.84801C274.731 5.33381 274.1 5.5767 273.359 5.5767ZM288.984 28.3835C287.067 28.3835 285.405 27.9616 283.998 27.1179C282.592 26.2741 281.501 25.0937 280.726 23.5767C279.959 22.0597 279.575 20.2869 279.575 18.2585C279.575 16.2301 279.959 14.4531 280.726 12.9276C281.501 11.402 282.592 10.2173 283.998 9.37358C285.405 8.52983 287.067 8.10795 288.984 8.10795C290.902 8.10795 292.564 8.52983 293.97 9.37358C295.376 10.2173 296.463 11.402 297.23 12.9276C298.006 14.4531 298.393 16.2301 298.393 18.2585C298.393 20.2869 298.006 22.0597 297.23 23.5767C296.463 25.0937 295.376 26.2741 293.97 27.1179C292.564 27.9616 290.902 28.3835 288.984 28.3835ZM289.01 24.6761C290.05 24.6761 290.919 24.3906 291.618 23.8196C292.317 23.2401 292.836 22.4645 293.177 21.4929C293.527 20.5213 293.702 19.4389 293.702 18.2457C293.702 17.044 293.527 15.9574 293.177 14.9858C292.836 14.0057 292.317 13.2259 291.618 12.6463C290.919 12.0668 290.05 11.777 289.01 11.777C287.944 11.777 287.058 12.0668 286.351 12.6463C285.652 13.2259 285.128 14.0057 284.778 14.9858C284.437 15.9574 284.267 17.044 284.267 18.2457C284.267 19.4389 284.437 20.5213 284.778 21.4929C285.128 22.4645 285.652 23.2401 286.351 23.8196C287.058 24.3906 287.944 24.6761 289.01 24.6761Z" fill="white"/>
</svg>
