<svg width="282" height="40" viewBox="0 0 282 40" fill="none" xmlns="http://www.w3.org/2000/svg">
<rect width="282" height="40" rx="8" fill="#F39200"/>
<path d="M106.89 26V14.3636H111.254C112.147 14.3636 112.897 14.5189 113.504 14.8295C114.113 15.1402 114.574 15.5758 114.884 16.1364C115.199 16.6932 115.356 17.3428 115.356 18.0852C115.356 18.8314 115.197 19.4792 114.879 20.0284C114.564 20.5739 114.1 20.9962 113.487 21.2955C112.873 21.5909 112.119 21.7386 111.225 21.7386H108.117V19.9886H110.941C111.464 19.9886 111.892 19.9167 112.225 19.7727C112.558 19.625 112.805 19.411 112.964 19.1307C113.127 18.8466 113.208 18.4981 113.208 18.0852C113.208 17.6723 113.127 17.3201 112.964 17.0284C112.801 16.733 112.553 16.5095 112.219 16.358C111.886 16.2027 111.456 16.125 110.93 16.125H108.998V26H106.89ZM112.901 20.7273L115.782 26H113.43L110.6 20.7273H112.901ZM120.944 26.1705C120.069 26.1705 119.313 25.9886 118.677 25.625C118.044 25.2576 117.558 24.7386 117.217 24.0682C116.876 23.3939 116.705 22.6004 116.705 21.6875C116.705 20.7898 116.876 20.0019 117.217 19.3239C117.561 18.642 118.042 18.1117 118.66 17.733C119.277 17.3504 120.003 17.1591 120.836 17.1591C121.374 17.1591 121.881 17.2462 122.359 17.4205C122.84 17.5909 123.264 17.8561 123.631 18.2159C124.003 18.5758 124.294 19.0341 124.506 19.5909C124.719 20.1439 124.825 20.803 124.825 21.5682V22.1989H117.671V20.8125H122.853C122.849 20.4186 122.764 20.0682 122.597 19.7614C122.431 19.4508 122.198 19.2064 121.898 19.0284C121.603 18.8504 121.258 18.7614 120.864 18.7614C120.444 18.7614 120.075 18.8636 119.756 19.0682C119.438 19.2689 119.19 19.5341 119.012 19.8636C118.838 20.1894 118.749 20.5473 118.745 20.9375V22.1477C118.745 22.6553 118.838 23.0909 119.023 23.4545C119.209 23.8144 119.469 24.0909 119.802 24.2841C120.135 24.4735 120.525 24.5682 120.972 24.5682C121.272 24.5682 121.542 24.5265 121.785 24.4432C122.027 24.3561 122.237 24.2292 122.415 24.0625C122.594 23.8958 122.728 23.6894 122.819 23.4432L124.739 23.6591C124.618 24.1667 124.387 24.6098 124.046 24.9886C123.709 25.3636 123.277 25.6553 122.751 25.8636C122.224 26.0682 121.622 26.1705 120.944 26.1705ZM130.36 29.4545C129.621 29.4545 128.987 29.3542 128.457 29.1534C127.926 28.9564 127.5 28.6913 127.178 28.358C126.856 28.0246 126.633 27.6553 126.508 27.25L128.36 26.8011C128.443 26.9716 128.565 27.1402 128.724 27.3068C128.883 27.4773 129.097 27.6174 129.366 27.7273C129.638 27.8409 129.981 27.8977 130.394 27.8977C130.978 27.8977 131.46 27.7557 131.843 27.4716C132.226 27.1913 132.417 26.7292 132.417 26.0852V24.4318H132.315C132.209 24.6439 132.053 24.8617 131.849 25.0852C131.648 25.3087 131.381 25.4962 131.048 25.6477C130.718 25.7992 130.303 25.875 129.803 25.875C129.133 25.875 128.525 25.7178 127.979 25.4034C127.438 25.0852 127.006 24.6117 126.684 23.983C126.366 23.3504 126.207 22.5587 126.207 21.608C126.207 20.6496 126.366 19.8409 126.684 19.1818C127.006 18.5189 127.44 18.017 127.985 17.6761C128.531 17.3314 129.138 17.1591 129.809 17.1591C130.32 17.1591 130.741 17.2462 131.07 17.4205C131.404 17.5909 131.669 17.7973 131.866 18.0398C132.063 18.2784 132.212 18.5038 132.315 18.7159H132.428V17.2727H134.457V26.142C134.457 26.8883 134.279 27.5057 133.923 27.9943C133.567 28.483 133.08 28.8485 132.462 29.0909C131.845 29.3333 131.144 29.4545 130.36 29.4545ZM130.377 24.2614C130.813 24.2614 131.184 24.1553 131.491 23.9432C131.798 23.7311 132.031 23.4261 132.19 23.0284C132.349 22.6307 132.428 22.1534 132.428 21.5966C132.428 21.0473 132.349 20.5663 132.19 20.1534C132.034 19.7405 131.803 19.4205 131.496 19.1932C131.193 18.9621 130.82 18.8466 130.377 18.8466C129.919 18.8466 129.536 18.9659 129.229 19.2045C128.923 19.4432 128.692 19.7708 128.536 20.1875C128.381 20.6004 128.303 21.0701 128.303 21.5966C128.303 22.1307 128.381 22.5985 128.536 23C128.695 23.3977 128.928 23.7083 129.235 23.9318C129.546 24.1515 129.926 24.2614 130.377 24.2614ZM136.565 26V17.2727H138.621V26H136.565ZM137.599 16.0341C137.273 16.0341 136.993 15.9261 136.758 15.7102C136.523 15.4905 136.406 15.2273 136.406 14.9205C136.406 14.6098 136.523 14.3466 136.758 14.1307C136.993 13.911 137.273 13.8011 137.599 13.8011C137.928 13.8011 138.209 13.911 138.44 14.1307C138.674 14.3466 138.792 14.6098 138.792 14.9205C138.792 15.2273 138.674 15.4905 138.44 15.7102C138.209 15.9261 137.928 16.0341 137.599 16.0341ZM147.634 19.5795L145.759 19.7841C145.706 19.5947 145.613 19.4167 145.481 19.25C145.352 19.0833 145.178 18.9489 144.958 18.8466C144.738 18.7443 144.469 18.6932 144.151 18.6932C143.723 18.6932 143.363 18.786 143.072 18.9716C142.784 19.1572 142.642 19.3977 142.646 19.6932C142.642 19.947 142.735 20.1534 142.924 20.3125C143.117 20.4716 143.435 20.6023 143.879 20.7045L145.367 21.0227C146.193 21.2008 146.807 21.483 147.208 21.8693C147.613 22.2557 147.818 22.7614 147.822 23.3864C147.818 23.9356 147.657 24.4205 147.339 24.8409C147.024 25.2576 146.587 25.5833 146.026 25.8182C145.466 26.053 144.822 26.1705 144.094 26.1705C143.026 26.1705 142.166 25.947 141.515 25.5C140.863 25.0492 140.475 24.4223 140.35 23.6193L142.356 23.4261C142.447 23.8201 142.64 24.1174 142.935 24.3182C143.231 24.5189 143.615 24.6193 144.089 24.6193C144.577 24.6193 144.969 24.5189 145.265 24.3182C145.564 24.1174 145.714 23.8693 145.714 23.5739C145.714 23.3239 145.617 23.1174 145.424 22.9545C145.235 22.7917 144.939 22.6667 144.538 22.5795L143.049 22.267C142.212 22.0928 141.593 21.7992 141.191 21.3864C140.79 20.9697 140.591 20.4432 140.594 19.8068C140.591 19.2689 140.737 18.803 141.032 18.4091C141.331 18.0114 141.746 17.7045 142.276 17.4886C142.81 17.2689 143.426 17.1591 144.123 17.1591C145.146 17.1591 145.951 17.3769 146.538 17.8125C147.129 18.2481 147.494 18.8371 147.634 19.5795ZM153.876 17.2727V18.8636H148.859V17.2727H153.876ZM150.097 15.1818H152.154V23.375C152.154 23.6515 152.196 23.8636 152.279 24.0114C152.366 24.1553 152.48 24.2538 152.62 24.3068C152.76 24.3598 152.915 24.3864 153.086 24.3864C153.215 24.3864 153.332 24.3769 153.438 24.358C153.548 24.339 153.631 24.322 153.688 24.3068L154.035 25.9148C153.925 25.9527 153.768 25.9943 153.563 26.0398C153.362 26.0852 153.116 26.1117 152.825 26.1193C152.309 26.1345 151.845 26.0568 151.433 25.8864C151.02 25.7121 150.692 25.4432 150.45 25.0795C150.211 24.7159 150.094 24.2614 150.097 23.7159V15.1818ZM155.596 26V17.2727H157.59V18.7273H157.681C157.84 18.2235 158.113 17.8352 158.499 17.5625C158.889 17.286 159.335 17.1477 159.835 17.1477C159.948 17.1477 160.075 17.1534 160.215 17.1648C160.359 17.1723 160.478 17.1856 160.573 17.2045V19.0966C160.486 19.0663 160.348 19.0398 160.158 19.017C159.973 18.9905 159.793 18.9773 159.619 18.9773C159.244 18.9773 158.906 19.0587 158.607 19.2216C158.312 19.3807 158.079 19.6023 157.908 19.8864C157.738 20.1705 157.653 20.4981 157.653 20.8693V26H155.596ZM164.295 26.1761C163.742 26.1761 163.244 26.0777 162.8 25.8807C162.361 25.6799 162.013 25.3845 161.755 24.9943C161.501 24.6042 161.374 24.1231 161.374 23.5511C161.374 23.0587 161.465 22.6515 161.647 22.3295C161.829 22.0076 162.077 21.75 162.391 21.5568C162.706 21.3636 163.06 21.2178 163.454 21.1193C163.852 21.017 164.263 20.9432 164.687 20.8977C165.198 20.8447 165.613 20.7973 165.931 20.7557C166.249 20.7102 166.48 20.642 166.624 20.5511C166.772 20.4564 166.846 20.3106 166.846 20.1136V20.0795C166.846 19.6515 166.719 19.3201 166.465 19.0852C166.211 18.8504 165.846 18.733 165.369 18.733C164.865 18.733 164.465 18.8428 164.17 19.0625C163.878 19.2822 163.681 19.5417 163.579 19.8409L161.658 19.5682C161.81 19.0379 162.06 18.5947 162.408 18.2386C162.757 17.8788 163.183 17.6098 163.687 17.4318C164.191 17.25 164.747 17.1591 165.357 17.1591C165.778 17.1591 166.196 17.2083 166.613 17.3068C167.03 17.4053 167.41 17.5682 167.755 17.7955C168.1 18.0189 168.376 18.3239 168.585 18.7102C168.797 19.0966 168.903 19.5795 168.903 20.1591V26H166.925V24.8011H166.857C166.732 25.0436 166.556 25.2708 166.329 25.483C166.105 25.6913 165.823 25.8598 165.482 25.9886C165.145 26.1136 164.749 26.1761 164.295 26.1761ZM164.829 24.6648C165.242 24.6648 165.6 24.5833 165.903 24.4205C166.206 24.2538 166.439 24.0341 166.602 23.7614C166.768 23.4886 166.852 23.1913 166.852 22.8693V21.8409C166.787 21.8939 166.677 21.9432 166.522 21.9886C166.371 22.0341 166.2 22.0739 166.011 22.108C165.821 22.142 165.634 22.1723 165.448 22.1989C165.263 22.2254 165.102 22.2481 164.965 22.267C164.658 22.3087 164.384 22.3769 164.141 22.4716C163.899 22.5663 163.708 22.6989 163.567 22.8693C163.427 23.036 163.357 23.2519 163.357 23.517C163.357 23.8958 163.496 24.1818 163.772 24.375C164.049 24.5682 164.401 24.6648 164.829 24.6648ZM170.971 26V17.2727H172.965V18.7273H173.056C173.215 18.2235 173.488 17.8352 173.874 17.5625C174.264 17.286 174.71 17.1477 175.21 17.1477C175.323 17.1477 175.45 17.1534 175.59 17.1648C175.734 17.1723 175.853 17.1856 175.948 17.2045V19.0966C175.861 19.0663 175.723 19.0398 175.533 19.017C175.348 18.9905 175.168 18.9773 174.994 18.9773C174.619 18.9773 174.281 19.0587 173.982 19.2216C173.687 19.3807 173.454 19.6023 173.283 19.8864C173.113 20.1705 173.028 20.4981 173.028 20.8693V26H170.971Z" fill="white"/>
</svg>
