<svg width="274" height="40" viewBox="0 0 274 40" fill="none" xmlns="http://www.w3.org/2000/svg">
<rect width="274" height="40" rx="8" fill="#F39200"/>
<path d="M25.6321 26V14.3636H29.9957C30.8897 14.3636 31.6397 14.5189 32.2457 14.8295C32.8556 15.1402 33.3158 15.5758 33.6264 16.1364C33.9408 16.6932 34.098 17.3428 34.098 18.0852C34.098 18.8314 33.9389 19.4792 33.6207 20.0284C33.3063 20.5739 32.8423 20.9962 32.2287 21.2955C31.6151 21.5909 30.8613 21.7386 29.9673 21.7386H26.8594V19.9886H29.6832C30.206 19.9886 30.634 19.9167 30.9673 19.7727C31.3007 19.625 31.5469 19.411 31.706 19.1307C31.8688 18.8466 31.9503 18.4981 31.9503 18.0852C31.9503 17.6723 31.8688 17.3201 31.706 17.0284C31.5431 16.733 31.295 16.5095 30.9616 16.358C30.6283 16.2027 30.1984 16.125 29.6719 16.125H27.7401V26H25.6321ZM31.6435 20.7273L34.5241 26H32.1719L29.3423 20.7273H31.6435ZM39.6861 26.1705C38.8111 26.1705 38.0554 25.9886 37.419 25.625C36.7865 25.2576 36.2997 24.7386 35.9588 24.0682C35.6179 23.3939 35.4474 22.6004 35.4474 21.6875C35.4474 20.7898 35.6179 20.0019 35.9588 19.3239C36.3035 18.642 36.7846 18.1117 37.402 17.733C38.0194 17.3504 38.7448 17.1591 39.5781 17.1591C40.116 17.1591 40.6236 17.2462 41.1009 17.4205C41.5819 17.5909 42.0062 17.8561 42.3736 18.2159C42.7448 18.5758 43.0365 19.0341 43.2486 19.5909C43.4607 20.1439 43.5668 20.803 43.5668 21.5682V22.1989H36.4134V20.8125H41.5952C41.5914 20.4186 41.5062 20.0682 41.3395 19.7614C41.1728 19.4508 40.9399 19.2064 40.6406 19.0284C40.3452 18.8504 40.0005 18.7614 39.6065 18.7614C39.1861 18.7614 38.8168 18.8636 38.4986 19.0682C38.1804 19.2689 37.9323 19.5341 37.7543 19.8636C37.58 20.1894 37.491 20.5473 37.4872 20.9375V22.1477C37.4872 22.6553 37.58 23.0909 37.7656 23.4545C37.9512 23.8144 38.2107 24.0909 38.544 24.2841C38.8774 24.4735 39.2675 24.5682 39.7145 24.5682C40.0137 24.5682 40.2846 24.5265 40.527 24.4432C40.7694 24.3561 40.9796 24.2292 41.1577 24.0625C41.3357 23.8958 41.4702 23.6894 41.5611 23.4432L43.4815 23.6591C43.3603 24.1667 43.1293 24.6098 42.7884 24.9886C42.4512 25.3636 42.0194 25.6553 41.4929 25.8636C40.9664 26.0682 40.3641 26.1705 39.6861 26.1705ZM49.1023 29.4545C48.3636 29.4545 47.7292 29.3542 47.1989 29.1534C46.6686 28.9564 46.2424 28.6913 45.9205 28.358C45.5985 28.0246 45.375 27.6553 45.25 27.25L47.1023 26.8011C47.1856 26.9716 47.3068 27.1402 47.4659 27.3068C47.625 27.4773 47.839 27.6174 48.108 27.7273C48.3807 27.8409 48.7235 27.8977 49.1364 27.8977C49.7197 27.8977 50.2027 27.7557 50.5852 27.4716C50.9678 27.1913 51.1591 26.7292 51.1591 26.0852V24.4318H51.0568C50.9508 24.6439 50.7955 24.8617 50.5909 25.0852C50.3902 25.3087 50.1231 25.4962 49.7898 25.6477C49.4602 25.7992 49.0455 25.875 48.5455 25.875C47.875 25.875 47.267 25.7178 46.7216 25.4034C46.1799 25.0852 45.7481 24.6117 45.4261 23.983C45.108 23.3504 44.9489 22.5587 44.9489 21.608C44.9489 20.6496 45.108 19.8409 45.4261 19.1818C45.7481 18.5189 46.1818 18.017 46.7273 17.6761C47.2727 17.3314 47.8807 17.1591 48.5511 17.1591C49.0625 17.1591 49.483 17.2462 49.8125 17.4205C50.1458 17.5909 50.411 17.7973 50.608 18.0398C50.8049 18.2784 50.9545 18.5038 51.0568 18.7159H51.1705V17.2727H53.1989V26.142C53.1989 26.8883 53.0208 27.5057 52.6648 27.9943C52.3087 28.483 51.822 28.8485 51.2045 29.0909C50.5871 29.3333 49.8864 29.4545 49.1023 29.4545ZM49.1193 24.2614C49.5549 24.2614 49.9261 24.1553 50.233 23.9432C50.5398 23.7311 50.7727 23.4261 50.9318 23.0284C51.0909 22.6307 51.1705 22.1534 51.1705 21.5966C51.1705 21.0473 51.0909 20.5663 50.9318 20.1534C50.7765 19.7405 50.5455 19.4205 50.2386 19.1932C49.9356 18.9621 49.5625 18.8466 49.1193 18.8466C48.661 18.8466 48.2784 18.9659 47.9716 19.2045C47.6648 19.4432 47.4337 19.7708 47.2784 20.1875C47.1231 20.6004 47.0455 21.0701 47.0455 21.5966C47.0455 22.1307 47.1231 22.5985 47.2784 23C47.4375 23.3977 47.6705 23.7083 47.9773 23.9318C48.2879 24.1515 48.6686 24.2614 49.1193 24.2614ZM55.3068 26V17.2727H57.3011V18.7273H57.392C57.5511 18.2235 57.8239 17.8352 58.2102 17.5625C58.6004 17.286 59.0455 17.1477 59.5455 17.1477C59.6591 17.1477 59.786 17.1534 59.9261 17.1648C60.0701 17.1723 60.1894 17.1856 60.2841 17.2045V19.0966C60.197 19.0663 60.0587 19.0398 59.8693 19.017C59.6837 18.9905 59.5038 18.9773 59.3295 18.9773C58.9545 18.9773 58.6174 19.0587 58.3182 19.2216C58.0227 19.3807 57.7898 19.6023 57.6193 19.8864C57.4489 20.1705 57.3636 20.4981 57.3636 20.8693V26H55.3068ZM65.1548 26.1705C64.2798 26.1705 63.5241 25.9886 62.8878 25.625C62.2552 25.2576 61.7685 24.7386 61.4276 24.0682C61.0866 23.3939 60.9162 22.6004 60.9162 21.6875C60.9162 20.7898 61.0866 20.0019 61.4276 19.3239C61.7723 18.642 62.2533 18.1117 62.8707 17.733C63.4882 17.3504 64.2135 17.1591 65.0469 17.1591C65.5848 17.1591 66.0923 17.2462 66.5696 17.4205C67.0507 17.5909 67.4749 17.8561 67.8423 18.2159C68.2135 18.5758 68.5052 19.0341 68.7173 19.5909C68.9295 20.1439 69.0355 20.803 69.0355 21.5682V22.1989H61.8821V20.8125H67.0639C67.0601 20.4186 66.9749 20.0682 66.8082 19.7614C66.6416 19.4508 66.4086 19.2064 66.1094 19.0284C65.8139 18.8504 65.4692 18.7614 65.0753 18.7614C64.6548 18.7614 64.2855 18.8636 63.9673 19.0682C63.6491 19.2689 63.401 19.5341 63.223 19.8636C63.0488 20.1894 62.9598 20.5473 62.956 20.9375V22.1477C62.956 22.6553 63.0488 23.0909 63.2344 23.4545C63.42 23.8144 63.6795 24.0909 64.0128 24.2841C64.3461 24.4735 64.7363 24.5682 65.1832 24.5682C65.4825 24.5682 65.7533 24.5265 65.9957 24.4432C66.2382 24.3561 66.4484 24.2292 66.6264 24.0625C66.8045 23.8958 66.9389 23.6894 67.0298 23.4432L68.9503 23.6591C68.8291 24.1667 68.598 24.6098 68.2571 24.9886C67.92 25.3636 67.4882 25.6553 66.9616 25.8636C66.4351 26.0682 65.8329 26.1705 65.1548 26.1705ZM77.6733 19.5795L75.7983 19.7841C75.7453 19.5947 75.6525 19.4167 75.5199 19.25C75.3911 19.0833 75.2169 18.9489 74.9972 18.8466C74.7775 18.7443 74.5085 18.6932 74.1903 18.6932C73.7623 18.6932 73.4025 18.786 73.1108 18.9716C72.8229 19.1572 72.6809 19.3977 72.6847 19.6932C72.6809 19.947 72.7737 20.1534 72.9631 20.3125C73.1563 20.4716 73.4744 20.6023 73.9176 20.7045L75.4062 21.0227C76.232 21.2008 76.8456 21.483 77.2472 21.8693C77.6525 22.2557 77.857 22.7614 77.8608 23.3864C77.857 23.9356 77.696 24.4205 77.3778 24.8409C77.0634 25.2576 76.6259 25.5833 76.0653 25.8182C75.5047 26.053 74.8608 26.1705 74.1335 26.1705C73.0653 26.1705 72.2055 25.947 71.554 25.5C70.9025 25.0492 70.5142 24.4223 70.3892 23.6193L72.3949 23.4261C72.4858 23.8201 72.679 24.1174 72.9744 24.3182C73.2699 24.5189 73.6544 24.6193 74.1278 24.6193C74.6165 24.6193 75.0085 24.5189 75.304 24.3182C75.6032 24.1174 75.7528 23.8693 75.7528 23.5739C75.7528 23.3239 75.6563 23.1174 75.4631 22.9545C75.2737 22.7917 74.9782 22.6667 74.5767 22.5795L73.0881 22.267C72.2509 22.0928 71.6316 21.7992 71.2301 21.3864C70.8286 20.9697 70.6297 20.4432 70.6335 19.8068C70.6297 19.2689 70.7756 18.803 71.071 18.4091C71.3703 18.0114 71.785 17.7045 72.3153 17.4886C72.8494 17.2689 73.465 17.1591 74.1619 17.1591C75.1847 17.1591 75.9896 17.3769 76.5767 17.8125C77.1676 18.2481 77.5331 18.8371 77.6733 19.5795ZM82.0682 26.1761C81.5152 26.1761 81.017 26.0777 80.5739 25.8807C80.1345 25.6799 79.786 25.3845 79.5284 24.9943C79.2746 24.6042 79.1477 24.1231 79.1477 23.5511C79.1477 23.0587 79.2386 22.6515 79.4205 22.3295C79.6023 22.0076 79.8504 21.75 80.1648 21.5568C80.4792 21.3636 80.8333 21.2178 81.2273 21.1193C81.625 21.017 82.036 20.9432 82.4602 20.8977C82.9716 20.8447 83.3864 20.7973 83.7045 20.7557C84.0227 20.7102 84.2538 20.642 84.3977 20.5511C84.5455 20.4564 84.6193 20.3106 84.6193 20.1136V20.0795C84.6193 19.6515 84.4924 19.3201 84.2386 19.0852C83.9848 18.8504 83.6193 18.733 83.142 18.733C82.6383 18.733 82.2386 18.8428 81.9432 19.0625C81.6515 19.2822 81.4545 19.5417 81.3523 19.8409L79.4318 19.5682C79.5833 19.0379 79.8333 18.5947 80.1818 18.2386C80.5303 17.8788 80.9564 17.6098 81.4602 17.4318C81.964 17.25 82.5208 17.1591 83.1307 17.1591C83.5511 17.1591 83.9697 17.2083 84.3864 17.3068C84.803 17.4053 85.1837 17.5682 85.5284 17.7955C85.8731 18.0189 86.1496 18.3239 86.358 18.7102C86.5701 19.0966 86.6761 19.5795 86.6761 20.1591V26H84.6989V24.8011H84.6307C84.5057 25.0436 84.3295 25.2708 84.1023 25.483C83.8788 25.6913 83.5966 25.8598 83.2557 25.9886C82.9186 26.1136 82.5227 26.1761 82.0682 26.1761ZM82.6023 24.6648C83.0152 24.6648 83.3731 24.5833 83.6761 24.4205C83.9792 24.2538 84.2121 24.0341 84.375 23.7614C84.5417 23.4886 84.625 23.1913 84.625 22.8693V21.8409C84.5606 21.8939 84.4508 21.9432 84.2955 21.9886C84.1439 22.0341 83.9735 22.0739 83.7841 22.108C83.5947 22.142 83.4072 22.1723 83.2216 22.1989C83.036 22.2254 82.875 22.2481 82.7386 22.267C82.4318 22.3087 82.1572 22.3769 81.9148 22.4716C81.6723 22.5663 81.4811 22.6989 81.3409 22.8693C81.2008 23.036 81.1307 23.2519 81.1307 23.517C81.1307 23.8958 81.2689 24.1818 81.5455 24.375C81.822 24.5682 82.1742 24.6648 82.6023 24.6648ZM88.7443 26V17.2727H90.7386V18.7273H90.8295C90.9886 18.2235 91.2614 17.8352 91.6477 17.5625C92.0379 17.286 92.483 17.1477 92.983 17.1477C93.0966 17.1477 93.2235 17.1534 93.3636 17.1648C93.5076 17.1723 93.6269 17.1856 93.7216 17.2045V19.0966C93.6345 19.0663 93.4962 19.0398 93.3068 19.017C93.1212 18.9905 92.9413 18.9773 92.767 18.9773C92.392 18.9773 92.0549 19.0587 91.7557 19.2216C91.4602 19.3807 91.2273 19.6023 91.0568 19.8864C90.8864 20.1705 90.8011 20.4981 90.8011 20.8693V26H88.7443ZM101.568 26.1761C101.015 26.1761 100.517 26.0777 100.074 25.8807C99.6345 25.6799 99.286 25.3845 99.0284 24.9943C98.7746 24.6042 98.6477 24.1231 98.6477 23.5511C98.6477 23.0587 98.7386 22.6515 98.9205 22.3295C99.1023 22.0076 99.3504 21.75 99.6648 21.5568C99.9792 21.3636 100.333 21.2178 100.727 21.1193C101.125 21.017 101.536 20.9432 101.96 20.8977C102.472 20.8447 102.886 20.7973 103.205 20.7557C103.523 20.7102 103.754 20.642 103.898 20.5511C104.045 20.4564 104.119 20.3106 104.119 20.1136V20.0795C104.119 19.6515 103.992 19.3201 103.739 19.0852C103.485 18.8504 103.119 18.733 102.642 18.733C102.138 18.733 101.739 18.8428 101.443 19.0625C101.152 19.2822 100.955 19.5417 100.852 19.8409L98.9318 19.5682C99.0833 19.0379 99.3333 18.5947 99.6818 18.2386C100.03 17.8788 100.456 17.6098 100.96 17.4318C101.464 17.25 102.021 17.1591 102.631 17.1591C103.051 17.1591 103.47 17.2083 103.886 17.3068C104.303 17.4053 104.684 17.5682 105.028 17.7955C105.373 18.0189 105.65 18.3239 105.858 18.7102C106.07 19.0966 106.176 19.5795 106.176 20.1591V26H104.199V24.8011H104.131C104.006 25.0436 103.83 25.2708 103.602 25.483C103.379 25.6913 103.097 25.8598 102.756 25.9886C102.419 26.1136 102.023 26.1761 101.568 26.1761ZM102.102 24.6648C102.515 24.6648 102.873 24.5833 103.176 24.4205C103.479 24.2538 103.712 24.0341 103.875 23.7614C104.042 23.4886 104.125 23.1913 104.125 22.8693V21.8409C104.061 21.8939 103.951 21.9432 103.795 21.9886C103.644 22.0341 103.473 22.0739 103.284 22.108C103.095 22.142 102.907 22.1723 102.722 22.1989C102.536 22.2254 102.375 22.2481 102.239 22.267C101.932 22.3087 101.657 22.3769 101.415 22.4716C101.172 22.5663 100.981 22.6989 100.841 22.8693C100.701 23.036 100.631 23.2519 100.631 23.517C100.631 23.8958 100.769 24.1818 101.045 24.375C101.322 24.5682 101.674 24.6648 102.102 24.6648ZM114.27 14.3636V26H112.213V14.3636H114.27ZM118.896 26.1761C118.343 26.1761 117.845 26.0777 117.402 25.8807C116.963 25.6799 116.614 25.3845 116.357 24.9943C116.103 24.6042 115.976 24.1231 115.976 23.5511C115.976 23.0587 116.067 22.6515 116.249 22.3295C116.43 22.0076 116.679 21.75 116.993 21.5568C117.307 21.3636 117.661 21.2178 118.055 21.1193C118.453 21.017 118.864 20.9432 119.288 20.8977C119.8 20.8447 120.214 20.7973 120.533 20.7557C120.851 20.7102 121.082 20.642 121.226 20.5511C121.374 20.4564 121.447 20.3106 121.447 20.1136V20.0795C121.447 19.6515 121.321 19.3201 121.067 19.0852C120.813 18.8504 120.447 18.733 119.97 18.733C119.466 18.733 119.067 18.8428 118.771 19.0625C118.48 19.2822 118.283 19.5417 118.18 19.8409L116.26 19.5682C116.411 19.0379 116.661 18.5947 117.01 18.2386C117.358 17.8788 117.785 17.6098 118.288 17.4318C118.792 17.25 119.349 17.1591 119.959 17.1591C120.379 17.1591 120.798 17.2083 121.214 17.3068C121.631 17.4053 122.012 17.5682 122.357 17.7955C122.701 18.0189 122.978 18.3239 123.186 18.7102C123.398 19.0966 123.504 19.5795 123.504 20.1591V26H121.527V24.8011H121.459C121.334 25.0436 121.158 25.2708 120.93 25.483C120.707 25.6913 120.425 25.8598 120.084 25.9886C119.747 26.1136 119.351 26.1761 118.896 26.1761ZM119.43 24.6648C119.843 24.6648 120.201 24.5833 120.504 24.4205C120.807 24.2538 121.04 24.0341 121.203 23.7614C121.37 23.4886 121.453 23.1913 121.453 22.8693V21.8409C121.389 21.8939 121.279 21.9432 121.124 21.9886C120.972 22.0341 120.802 22.0739 120.612 22.108C120.423 22.142 120.235 22.1723 120.05 22.1989C119.864 22.2254 119.703 22.2481 119.567 22.267C119.26 22.3087 118.985 22.3769 118.743 22.4716C118.5 22.5663 118.309 22.6989 118.169 22.8693C118.029 23.036 117.959 23.2519 117.959 23.517C117.959 23.8958 118.097 24.1818 118.374 24.375C118.65 24.5682 119.002 24.6648 119.43 24.6648ZM129.541 29.2727V17.2727H131.564V18.7159H131.683C131.789 18.5038 131.939 18.2784 132.132 18.0398C132.325 17.7973 132.587 17.5909 132.916 17.4205C133.246 17.2462 133.666 17.1591 134.178 17.1591C134.852 17.1591 135.46 17.3314 136.001 17.6761C136.547 18.017 136.979 18.5227 137.297 19.1932C137.619 19.8598 137.78 20.678 137.78 21.6477C137.78 22.6061 137.623 23.4205 137.308 24.0909C136.994 24.7614 136.566 25.2727 136.024 25.625C135.482 25.9773 134.869 26.1534 134.183 26.1534C133.683 26.1534 133.268 26.0701 132.939 25.9034C132.609 25.7367 132.344 25.536 132.143 25.3011C131.946 25.0625 131.793 24.8371 131.683 24.625H131.598V29.2727H129.541ZM131.558 21.6364C131.558 22.2008 131.638 22.6951 131.797 23.1193C131.96 23.5436 132.193 23.875 132.496 24.1136C132.803 24.3485 133.174 24.4659 133.609 24.4659C134.064 24.4659 134.445 24.3447 134.751 24.1023C135.058 23.8561 135.289 23.5208 135.445 23.0966C135.604 22.6686 135.683 22.1818 135.683 21.6364C135.683 21.0947 135.606 20.6136 135.45 20.1932C135.295 19.7727 135.064 19.4432 134.757 19.2045C134.45 18.9659 134.068 18.8466 133.609 18.8466C133.17 18.8466 132.797 18.9621 132.49 19.1932C132.183 19.4242 131.95 19.7481 131.791 20.1648C131.636 20.5814 131.558 21.072 131.558 21.6364ZM142.053 26.1761C141.5 26.1761 141.001 26.0777 140.558 25.8807C140.119 25.6799 139.77 25.3845 139.513 24.9943C139.259 24.6042 139.132 24.1231 139.132 23.5511C139.132 23.0587 139.223 22.6515 139.405 22.3295C139.587 22.0076 139.835 21.75 140.149 21.5568C140.464 21.3636 140.818 21.2178 141.212 21.1193C141.609 21.017 142.02 20.9432 142.445 20.8977C142.956 20.8447 143.371 20.7973 143.689 20.7557C144.007 20.7102 144.238 20.642 144.382 20.5511C144.53 20.4564 144.604 20.3106 144.604 20.1136V20.0795C144.604 19.6515 144.477 19.3201 144.223 19.0852C143.969 18.8504 143.604 18.733 143.126 18.733C142.623 18.733 142.223 18.8428 141.928 19.0625C141.636 19.2822 141.439 19.5417 141.337 19.8409L139.416 19.5682C139.568 19.0379 139.818 18.5947 140.166 18.2386C140.515 17.8788 140.941 17.6098 141.445 17.4318C141.948 17.25 142.505 17.1591 143.115 17.1591C143.536 17.1591 143.954 17.2083 144.371 17.3068C144.787 17.4053 145.168 17.5682 145.513 17.7955C145.857 18.0189 146.134 18.3239 146.342 18.7102C146.554 19.0966 146.661 19.5795 146.661 20.1591V26H144.683V24.8011H144.615C144.49 25.0436 144.314 25.2708 144.087 25.483C143.863 25.6913 143.581 25.8598 143.24 25.9886C142.903 26.1136 142.507 26.1761 142.053 26.1761ZM142.587 24.6648C143 24.6648 143.357 24.5833 143.661 24.4205C143.964 24.2538 144.196 24.0341 144.359 23.7614C144.526 23.4886 144.609 23.1913 144.609 22.8693V21.8409C144.545 21.8939 144.435 21.9432 144.28 21.9886C144.128 22.0341 143.958 22.0739 143.768 22.108C143.579 22.142 143.392 22.1723 143.206 22.1989C143.02 22.2254 142.859 22.2481 142.723 22.267C142.416 22.3087 142.142 22.3769 141.899 22.4716C141.657 22.5663 141.465 22.6989 141.325 22.8693C141.185 23.036 141.115 23.2519 141.115 23.517C141.115 23.8958 141.253 24.1818 141.53 24.375C141.806 24.5682 142.159 24.6648 142.587 24.6648ZM142.416 16.125L143.689 13.5284H145.7L143.956 16.125H142.416ZM152.524 29.4545C151.786 29.4545 151.151 29.3542 150.621 29.1534C150.09 28.9564 149.664 28.6913 149.342 28.358C149.02 28.0246 148.797 27.6553 148.672 27.25L150.524 26.8011C150.607 26.9716 150.729 27.1402 150.888 27.3068C151.047 27.4773 151.261 27.6174 151.53 27.7273C151.803 27.8409 152.145 27.8977 152.558 27.8977C153.142 27.8977 153.625 27.7557 154.007 27.4716C154.39 27.1913 154.581 26.7292 154.581 26.0852V24.4318H154.479C154.373 24.6439 154.217 24.8617 154.013 25.0852C153.812 25.3087 153.545 25.4962 153.212 25.6477C152.882 25.7992 152.467 25.875 151.967 25.875C151.297 25.875 150.689 25.7178 150.143 25.4034C149.602 25.0852 149.17 24.6117 148.848 23.983C148.53 23.3504 148.371 22.5587 148.371 21.608C148.371 20.6496 148.53 19.8409 148.848 19.1818C149.17 18.5189 149.604 18.017 150.149 17.6761C150.695 17.3314 151.303 17.1591 151.973 17.1591C152.484 17.1591 152.905 17.2462 153.234 17.4205C153.568 17.5909 153.833 17.7973 154.03 18.0398C154.227 18.2784 154.376 18.5038 154.479 18.7159H154.592V17.2727H156.621V26.142C156.621 26.8883 156.443 27.5057 156.087 27.9943C155.731 28.483 155.244 28.8485 154.626 29.0909C154.009 29.3333 153.308 29.4545 152.524 29.4545ZM152.541 24.2614C152.977 24.2614 153.348 24.1553 153.655 23.9432C153.962 23.7311 154.195 23.4261 154.354 23.0284C154.513 22.6307 154.592 22.1534 154.592 21.5966C154.592 21.0473 154.513 20.5663 154.354 20.1534C154.198 19.7405 153.967 19.4205 153.661 19.1932C153.357 18.9621 152.984 18.8466 152.541 18.8466C152.083 18.8466 151.7 18.9659 151.393 19.2045C151.087 19.4432 150.856 19.7708 150.7 20.1875C150.545 20.6004 150.467 21.0701 150.467 21.5966C150.467 22.1307 150.545 22.5985 150.7 23C150.859 23.3977 151.092 23.7083 151.399 23.9318C151.71 24.1515 152.09 24.2614 152.541 24.2614ZM158.729 26V17.2727H160.786V26H158.729ZM159.763 16.0341C159.437 16.0341 159.157 15.9261 158.922 15.7102C158.687 15.4905 158.57 15.2273 158.57 14.9205C158.57 14.6098 158.687 14.3466 158.922 14.1307C159.157 13.911 159.437 13.8011 159.763 13.8011C160.092 13.8011 160.373 13.911 160.604 14.1307C160.839 14.3466 160.956 14.6098 160.956 14.9205C160.956 15.2273 160.839 15.4905 160.604 15.7102C160.373 15.9261 160.092 16.0341 159.763 16.0341ZM164.957 20.8864V26H162.901V17.2727H164.866V18.7557H164.969C165.17 18.267 165.49 17.8788 165.929 17.5909C166.372 17.303 166.92 17.1591 167.571 17.1591C168.173 17.1591 168.698 17.2879 169.145 17.5455C169.596 17.803 169.944 18.1761 170.19 18.6648C170.44 19.1534 170.563 19.7462 170.56 20.4432V26H168.503V20.7614C168.503 20.178 168.351 19.7216 168.048 19.392C167.749 19.0625 167.334 18.8977 166.804 18.8977C166.444 18.8977 166.124 18.9773 165.844 19.1364C165.567 19.2917 165.349 19.517 165.19 19.8125C165.035 20.108 164.957 20.4659 164.957 20.8864ZM175.162 26.1761C174.609 26.1761 174.111 26.0777 173.668 25.8807C173.228 25.6799 172.88 25.3845 172.622 24.9943C172.368 24.6042 172.241 24.1231 172.241 23.5511C172.241 23.0587 172.332 22.6515 172.514 22.3295C172.696 22.0076 172.944 21.75 173.259 21.5568C173.573 21.3636 173.927 21.2178 174.321 21.1193C174.719 21.017 175.13 20.9432 175.554 20.8977C176.065 20.8447 176.48 20.7973 176.798 20.7557C177.116 20.7102 177.348 20.642 177.491 20.5511C177.639 20.4564 177.713 20.3106 177.713 20.1136V20.0795C177.713 19.6515 177.586 19.3201 177.332 19.0852C177.079 18.8504 176.713 18.733 176.236 18.733C175.732 18.733 175.332 18.8428 175.037 19.0625C174.745 19.2822 174.548 19.5417 174.446 19.8409L172.526 19.5682C172.677 19.0379 172.927 18.5947 173.276 18.2386C173.624 17.8788 174.05 17.6098 174.554 17.4318C175.058 17.25 175.615 17.1591 176.224 17.1591C176.645 17.1591 177.063 17.2083 177.48 17.3068C177.897 17.4053 178.277 17.5682 178.622 17.7955C178.967 18.0189 179.243 18.3239 179.452 18.7102C179.664 19.0966 179.77 19.5795 179.77 20.1591V26H177.793V24.8011H177.724C177.599 25.0436 177.423 25.2708 177.196 25.483C176.973 25.6913 176.69 25.8598 176.349 25.9886C176.012 26.1136 175.616 26.1761 175.162 26.1761ZM175.696 24.6648C176.109 24.6648 176.467 24.5833 176.77 24.4205C177.073 24.2538 177.306 24.0341 177.469 23.7614C177.635 23.4886 177.719 23.1913 177.719 22.8693V21.8409C177.654 21.8939 177.545 21.9432 177.389 21.9886C177.238 22.0341 177.067 22.0739 176.878 22.108C176.688 22.142 176.501 22.1723 176.315 22.1989C176.13 22.2254 175.969 22.2481 175.832 22.267C175.526 22.3087 175.251 22.3769 175.009 22.4716C174.766 22.5663 174.575 22.6989 174.435 22.8693C174.295 23.036 174.224 23.2519 174.224 23.517C174.224 23.8958 174.363 24.1818 174.639 24.375C174.916 24.5682 175.268 24.6648 175.696 24.6648ZM189.045 26.1534C188.36 26.1534 187.746 25.9773 187.205 25.625C186.663 25.2727 186.235 24.7614 185.92 24.0909C185.606 23.4205 185.449 22.6061 185.449 21.6477C185.449 20.678 185.608 19.8598 185.926 19.1932C186.248 18.5227 186.682 18.017 187.227 17.6761C187.773 17.3314 188.381 17.1591 189.051 17.1591C189.563 17.1591 189.983 17.2462 190.312 17.4205C190.642 17.5909 190.903 17.7973 191.097 18.0398C191.29 18.2784 191.439 18.5038 191.545 18.7159H191.631V14.3636H193.693V26H191.67V24.625H191.545C191.439 24.8371 191.286 25.0625 191.085 25.3011C190.884 25.536 190.619 25.7367 190.29 25.9034C189.96 26.0701 189.545 26.1534 189.045 26.1534ZM189.619 24.4659C190.055 24.4659 190.426 24.3485 190.733 24.1136C191.04 23.875 191.273 23.5436 191.432 23.1193C191.591 22.6951 191.67 22.2008 191.67 21.6364C191.67 21.072 191.591 20.5814 191.432 20.1648C191.277 19.7481 191.045 19.4242 190.739 19.1932C190.436 18.9621 190.063 18.8466 189.619 18.8466C189.161 18.8466 188.778 18.9659 188.472 19.2045C188.165 19.4432 187.934 19.7727 187.778 20.1932C187.623 20.6136 187.545 21.0947 187.545 21.6364C187.545 22.1818 187.623 22.6686 187.778 23.0966C187.938 23.5208 188.17 23.8561 188.477 24.1023C188.788 24.3447 189.169 24.4659 189.619 24.4659ZM199.749 26.1705C198.874 26.1705 198.118 25.9886 197.482 25.625C196.849 25.2576 196.362 24.7386 196.021 24.0682C195.68 23.3939 195.51 22.6004 195.51 21.6875C195.51 20.7898 195.68 20.0019 196.021 19.3239C196.366 18.642 196.847 18.1117 197.464 17.733C198.082 17.3504 198.807 17.1591 199.641 17.1591C200.179 17.1591 200.686 17.2462 201.163 17.4205C201.644 17.5909 202.069 17.8561 202.436 18.2159C202.807 18.5758 203.099 19.0341 203.311 19.5909C203.523 20.1439 203.629 20.803 203.629 21.5682V22.1989H196.476V20.8125H201.658C201.654 20.4186 201.569 20.0682 201.402 19.7614C201.235 19.4508 201.002 19.2064 200.703 19.0284C200.408 18.8504 200.063 18.7614 199.669 18.7614C199.249 18.7614 198.879 18.8636 198.561 19.0682C198.243 19.2689 197.995 19.5341 197.817 19.8636C197.643 20.1894 197.554 20.5473 197.55 20.9375V22.1477C197.55 22.6553 197.643 23.0909 197.828 23.4545C198.014 23.8144 198.273 24.0909 198.607 24.2841C198.94 24.4735 199.33 24.5682 199.777 24.5682C200.076 24.5682 200.347 24.5265 200.589 24.4432C200.832 24.3561 201.042 24.2292 201.22 24.0625C201.398 23.8958 201.533 23.6894 201.624 23.4432L203.544 23.6591C203.423 24.1667 203.192 24.6098 202.851 24.9886C202.514 25.3636 202.082 25.6553 201.555 25.8636C201.029 26.0682 200.427 26.1705 199.749 26.1705ZM209.338 26V17.2727H211.395V26H209.338ZM210.372 16.0341C210.046 16.0341 209.766 15.9261 209.531 15.7102C209.296 15.4905 209.179 15.2273 209.179 14.9205C209.179 14.6098 209.296 14.3466 209.531 14.1307C209.766 13.911 210.046 13.8011 210.372 13.8011C210.702 13.8011 210.982 13.911 211.213 14.1307C211.448 14.3466 211.565 14.6098 211.565 14.9205C211.565 15.2273 211.448 15.4905 211.213 15.7102C210.982 15.9261 210.702 16.0341 210.372 16.0341ZM215.567 20.8864V26H213.51V17.2727H215.476V18.7557H215.578C215.779 18.267 216.099 17.8788 216.538 17.5909C216.982 17.303 217.529 17.1591 218.18 17.1591C218.783 17.1591 219.307 17.2879 219.754 17.5455C220.205 17.803 220.554 18.1761 220.8 18.6648C221.05 19.1534 221.173 19.7462 221.169 20.4432V26H219.112V20.7614C219.112 20.178 218.961 19.7216 218.658 19.392C218.358 19.0625 217.944 18.8977 217.413 18.8977C217.054 18.8977 216.733 18.9773 216.453 19.1364C216.177 19.2917 215.959 19.517 215.8 19.8125C215.644 20.108 215.567 20.4659 215.567 20.8864ZM223.26 26V17.2727H225.317V26H223.26ZM224.294 16.0341C223.968 16.0341 223.688 15.9261 223.453 15.7102C223.218 15.4905 223.101 15.2273 223.101 14.9205C223.101 14.6098 223.218 14.3466 223.453 14.1307C223.688 13.911 223.968 13.8011 224.294 13.8011C224.624 13.8011 224.904 13.911 225.135 14.1307C225.37 14.3466 225.487 14.6098 225.487 14.9205C225.487 15.2273 225.37 15.4905 225.135 15.7102C224.904 15.9261 224.624 16.0341 224.294 16.0341ZM231.239 26.1705C230.367 26.1705 229.619 25.9792 228.994 25.5966C228.373 25.214 227.894 24.6856 227.557 24.0114C227.223 23.3333 227.057 22.553 227.057 21.6705C227.057 20.7841 227.227 20.0019 227.568 19.3239C227.909 18.642 228.39 18.1117 229.011 17.733C229.636 17.3504 230.375 17.1591 231.227 17.1591C231.936 17.1591 232.563 17.2898 233.108 17.5511C233.657 17.8087 234.095 18.1742 234.42 18.6477C234.746 19.1174 234.932 19.6667 234.977 20.2955H233.011C232.932 19.875 232.742 19.5246 232.443 19.2443C232.148 18.9602 231.752 18.8182 231.256 18.8182C230.835 18.8182 230.466 18.9318 230.148 19.1591C229.83 19.3826 229.581 19.7045 229.403 20.125C229.229 20.5455 229.142 21.0492 229.142 21.6364C229.142 22.2311 229.229 22.7424 229.403 23.1705C229.578 23.5947 229.822 23.9223 230.136 24.1534C230.455 24.3807 230.828 24.4943 231.256 24.4943C231.559 24.4943 231.83 24.4375 232.068 24.3239C232.311 24.2064 232.513 24.0379 232.676 23.8182C232.839 23.5985 232.951 23.3314 233.011 23.017H234.977C234.928 23.6345 234.746 24.1818 234.432 24.6591C234.117 25.1326 233.689 25.5038 233.148 25.7727C232.606 26.0379 231.97 26.1705 231.239 26.1705ZM236.666 26V17.2727H238.723V26H236.666ZM237.7 16.0341C237.375 16.0341 237.094 15.9261 236.859 15.7102C236.625 15.4905 236.507 15.2273 236.507 14.9205C236.507 14.6098 236.625 14.3466 236.859 14.1307C237.094 13.911 237.375 13.8011 237.7 13.8011C238.03 13.8011 238.31 13.911 238.541 14.1307C238.776 14.3466 238.893 14.6098 238.893 14.9205C238.893 15.2273 238.776 15.4905 238.541 15.7102C238.31 15.9261 238.03 16.0341 237.7 16.0341ZM244.645 26.1705C243.793 26.1705 243.054 25.983 242.429 25.608C241.804 25.233 241.319 24.7083 240.974 24.0341C240.634 23.3598 240.463 22.572 240.463 21.6705C240.463 20.7689 240.634 19.9792 240.974 19.3011C241.319 18.6231 241.804 18.0966 242.429 17.7216C243.054 17.3466 243.793 17.1591 244.645 17.1591C245.497 17.1591 246.236 17.3466 246.861 17.7216C247.486 18.0966 247.969 18.6231 248.31 19.3011C248.654 19.9792 248.827 20.7689 248.827 21.6705C248.827 22.572 248.654 23.3598 248.31 24.0341C247.969 24.7083 247.486 25.233 246.861 25.608C246.236 25.983 245.497 26.1705 244.645 26.1705ZM244.656 24.5227C245.118 24.5227 245.505 24.3958 245.815 24.142C246.126 23.8845 246.357 23.5398 246.509 23.108C246.664 22.6761 246.741 22.1951 246.741 21.6648C246.741 21.1307 246.664 20.6477 246.509 20.2159C246.357 19.7803 246.126 19.4337 245.815 19.1761C245.505 18.9186 245.118 18.7898 244.656 18.7898C244.183 18.7898 243.789 18.9186 243.474 19.1761C243.164 19.4337 242.931 19.7803 242.776 20.2159C242.624 20.6477 242.548 21.1307 242.548 21.6648C242.548 22.1951 242.624 22.6761 242.776 23.108C242.931 23.5398 243.164 23.8845 243.474 24.142C243.789 24.3958 244.183 24.5227 244.656 24.5227Z" fill="white"/>
</svg>
