<svg width="364" height="40" viewBox="0 0 364 40" fill="none" xmlns="http://www.w3.org/2000/svg">
<rect width="363.495" height="40" rx="5" fill="url(#paint0_linear_862_5280)"/>
<path d="M84.4574 11.5455V29H80.767V11.5455H84.4574ZM102.093 11.5455V29H98.9055L91.3118 18.0142H91.1839V29H87.4936V11.5455H90.7322L98.2663 22.5227H98.4197V11.5455H102.093ZM116.716 17.1875C116.597 16.7727 116.429 16.4062 116.213 16.0881C115.997 15.7642 115.733 15.4915 115.42 15.2699C115.114 15.0426 114.761 14.8693 114.364 14.75C113.972 14.6307 113.537 14.571 113.06 14.571C112.168 14.571 111.384 14.7926 110.707 15.2358C110.037 15.679 109.514 16.3239 109.139 17.1705C108.764 18.0114 108.577 19.0398 108.577 20.2557C108.577 21.4716 108.761 22.5057 109.131 23.358C109.5 24.2102 110.023 24.8608 110.699 25.3097C111.375 25.7528 112.173 25.9744 113.094 25.9744C113.929 25.9744 114.642 25.8267 115.233 25.5312C115.83 25.2301 116.284 24.8068 116.597 24.2614C116.915 23.7159 117.074 23.071 117.074 22.3267L117.824 22.4375H113.324V19.6591H120.628V21.858C120.628 23.392 120.304 24.7102 119.656 25.8125C119.009 26.9091 118.116 27.7557 116.98 28.3523C115.844 28.9432 114.543 29.2386 113.077 29.2386C111.44 29.2386 110.003 28.8778 108.764 28.1562C107.526 27.429 106.56 26.3977 105.866 25.0625C105.179 23.7216 104.835 22.1307 104.835 20.2898C104.835 18.875 105.04 17.6136 105.449 16.5057C105.864 15.392 106.443 14.4489 107.188 13.6761C107.932 12.9034 108.798 12.3153 109.787 11.9119C110.776 11.5085 111.847 11.3068 113 11.3068C113.989 11.3068 114.909 11.4517 115.761 11.7415C116.614 12.0256 117.369 12.429 118.028 12.9517C118.693 13.4744 119.236 14.0966 119.656 14.8182C120.077 15.5341 120.347 16.3239 120.466 17.1875H116.716ZM123.4 29V11.5455H130.286C131.604 11.5455 132.729 11.7812 133.661 12.2528C134.599 12.7187 135.312 13.3807 135.8 14.2386C136.295 15.0909 136.542 16.0937 136.542 17.2472C136.542 18.4062 136.292 19.4034 135.792 20.2386C135.292 21.0682 134.567 21.7045 133.619 22.1477C132.675 22.5909 131.533 22.8125 130.192 22.8125H125.582V19.8466H129.596C130.3 19.8466 130.886 19.75 131.352 19.5568C131.817 19.3636 132.164 19.0739 132.391 18.6875C132.624 18.3011 132.741 17.821 132.741 17.2472C132.741 16.6676 132.624 16.179 132.391 15.7812C132.164 15.3835 131.815 15.0824 131.343 14.8778C130.877 14.6676 130.289 14.5625 129.579 14.5625H127.09V29H123.4ZM132.826 21.0568L137.164 29H133.09L128.846 21.0568H132.826ZM139.15 29V11.5455H150.911V14.5881H142.84V18.7472H150.306V21.7898H142.84V25.9574H150.945V29H139.15ZM163.314 16.5653C163.246 15.8778 162.953 15.3437 162.436 14.9631C161.919 14.5824 161.217 14.392 160.331 14.392C159.729 14.392 159.22 14.4773 158.805 14.6477C158.391 14.8125 158.072 15.0426 157.851 15.3381C157.635 15.6335 157.527 15.9688 157.527 16.3438C157.516 16.6562 157.581 16.929 157.723 17.1619C157.871 17.3949 158.072 17.5966 158.328 17.767C158.584 17.9318 158.879 18.0767 159.214 18.2017C159.55 18.321 159.908 18.4233 160.288 18.5085L161.857 18.8835C162.618 19.054 163.317 19.2812 163.953 19.5653C164.589 19.8494 165.141 20.1989 165.607 20.6136C166.072 21.0284 166.433 21.517 166.689 22.0795C166.95 22.642 167.084 23.2869 167.089 24.0142C167.084 25.0824 166.811 26.0085 166.271 26.7926C165.737 27.571 164.964 28.1761 163.953 28.608C162.947 29.0341 161.734 29.2472 160.314 29.2472C158.905 29.2472 157.678 29.0312 156.632 28.5994C155.592 28.1676 154.78 27.5284 154.195 26.6818C153.615 25.8295 153.311 24.7756 153.283 23.5199H156.854C156.893 24.1051 157.061 24.5937 157.357 24.9858C157.658 25.3722 158.058 25.6648 158.558 25.8636C159.064 26.0568 159.635 26.1534 160.271 26.1534C160.896 26.1534 161.439 26.0625 161.899 25.8807C162.365 25.6989 162.726 25.446 162.982 25.1222C163.237 24.7983 163.365 24.4261 163.365 24.0057C163.365 23.6136 163.249 23.2841 163.016 23.017C162.788 22.75 162.453 22.5227 162.01 22.3352C161.572 22.1477 161.036 21.9773 160.399 21.8239L158.499 21.3466C157.027 20.9886 155.865 20.429 155.013 19.6676C154.161 18.9062 153.737 17.8807 153.743 16.5909C153.737 15.5341 154.018 14.6108 154.587 13.821C155.161 13.0312 155.947 12.4148 156.947 11.9716C157.947 11.5284 159.084 11.3068 160.357 11.3068C161.652 11.3068 162.783 11.5284 163.749 11.9716C164.72 12.4148 165.476 13.0312 166.016 13.821C166.555 14.6108 166.834 15.5256 166.851 16.5653H163.314ZM172.182 29H168.227L174.253 11.5455H179.009L185.026 29H181.071L176.699 15.5341H176.562L172.182 29ZM171.935 22.1392H181.276V25.0199H171.935V22.1392ZM192.681 11.5455H197.232L202.039 23.2727H202.244L207.05 11.5455H211.602V29H208.022V17.6392H207.877L203.36 28.9148H200.923L196.406 17.5966H196.261V29H192.681V11.5455ZM230.682 20.2727C230.682 22.1761 230.321 23.7955 229.599 25.1307C228.884 26.4659 227.906 27.4858 226.668 28.1903C225.435 28.8892 224.048 29.2386 222.509 29.2386C220.957 29.2386 219.565 28.8864 218.332 28.1818C217.099 27.4773 216.125 26.4574 215.409 25.1222C214.693 23.7869 214.335 22.1705 214.335 20.2727C214.335 18.3693 214.693 16.75 215.409 15.4148C216.125 14.0795 217.099 13.0625 218.332 12.3636C219.565 11.6591 220.957 11.3068 222.509 11.3068C224.048 11.3068 225.435 11.6591 226.668 12.3636C227.906 13.0625 228.884 14.0795 229.599 15.4148C230.321 16.75 230.682 18.3693 230.682 20.2727ZM226.94 20.2727C226.94 19.0398 226.756 18 226.386 17.1534C226.023 16.3068 225.509 15.6648 224.844 15.2273C224.179 14.7898 223.401 14.571 222.509 14.571C221.616 14.571 220.838 14.7898 220.173 15.2273C219.509 15.6648 218.991 16.3068 218.622 17.1534C218.259 18 218.077 19.0398 218.077 20.2727C218.077 21.5057 218.259 22.5455 218.622 23.392C218.991 24.2386 219.509 24.8807 220.173 25.3182C220.838 25.7557 221.616 25.9744 222.509 25.9744C223.401 25.9744 224.179 25.7557 224.844 25.3182C225.509 24.8807 226.023 24.2386 226.386 23.392C226.756 22.5455 226.94 21.5057 226.94 20.2727ZM248.015 11.5455V29H244.827L237.234 18.0142H237.106V29H233.415V11.5455H236.654L244.188 22.5227H244.342V11.5455H248.015ZM250.399 14.5881V11.5455H264.734V14.5881H259.391V29H255.743V14.5881H250.399ZM282.338 20.2727C282.338 22.1761 281.977 23.7955 281.256 25.1307C280.54 26.4659 279.563 27.4858 278.324 28.1903C277.091 28.8892 275.705 29.2386 274.165 29.2386C272.614 29.2386 271.222 28.8864 269.989 28.1818C268.756 27.4773 267.781 26.4574 267.065 25.1222C266.349 23.7869 265.991 22.1705 265.991 20.2727C265.991 18.3693 266.349 16.75 267.065 15.4148C267.781 14.0795 268.756 13.0625 269.989 12.3636C271.222 11.6591 272.614 11.3068 274.165 11.3068C275.705 11.3068 277.091 11.6591 278.324 12.3636C279.563 13.0625 280.54 14.0795 281.256 15.4148C281.977 16.75 282.338 18.3693 282.338 20.2727ZM278.597 20.2727C278.597 19.0398 278.412 18 278.043 17.1534C277.679 16.3068 277.165 15.6648 276.5 15.2273C275.835 14.7898 275.057 14.571 274.165 14.571C273.273 14.571 272.494 14.7898 271.83 15.2273C271.165 15.6648 270.648 16.3068 270.278 17.1534C269.915 18 269.733 19.0398 269.733 20.2727C269.733 21.5057 269.915 22.5455 270.278 23.392C270.648 24.2386 271.165 24.8807 271.83 25.3182C272.494 25.7557 273.273 25.9744 274.165 25.9744C275.057 25.9744 275.835 25.7557 276.5 25.3182C277.165 24.8807 277.679 24.2386 278.043 23.392C278.412 22.5455 278.597 21.5057 278.597 20.2727Z" fill="#F39200"/>
<defs>
<linearGradient id="paint0_linear_862_5280" x1="181.748" y1="0" x2="181.748" y2="40" gradientUnits="userSpaceOnUse">
<stop offset="0.286458" stop-color="white"/>
<stop offset="0.401042" stop-color="white" stop-opacity="0.83"/>
</linearGradient>
</defs>
</svg>
