<svg width="32" height="20" viewBox="0 0 32 20" fill="none" xmlns="http://www.w3.org/2000/svg">
<g clip-path="url(#clip0_862_5559)">
<path d="M2.24063 0H30.2406C31.1243 0 31.8406 0.71636 31.8406 1.6V18.4C31.8406 19.2837 31.1243 20 30.2406 20H2.24063C1.35699 20 0.640625 19.2837 0.640625 18.4V1.6C0.640625 0.71636 1.35699 0 2.24063 0Z" fill="#0E4595"/>
<path d="M12.3692 13.9492L13.7036 6.11882H15.838L14.5026 13.9492H12.3692ZM22.2136 6.28762C21.7908 6.12898 21.1281 5.95874 20.3007 5.95874C18.1917 5.95874 16.7061 7.02074 16.6935 8.54286C16.6815 9.66806 17.7541 10.2957 18.5636 10.6703C19.3944 11.0541 19.6737 11.2989 19.6697 11.6416C19.6645 12.1665 19.0063 12.4063 18.3929 12.4063C17.5386 12.4063 17.0847 12.2876 16.3838 11.9952L16.1087 11.8708L15.8092 13.6237C16.3077 13.8423 17.2296 14.0317 18.1867 14.0415C20.4303 14.0415 21.8867 12.9916 21.9033 11.3662C21.9113 10.4754 21.3427 9.79754 20.1113 9.23866C19.3653 8.87646 18.9084 8.6347 18.9133 8.26794C18.9133 7.94246 19.3 7.59438 20.1355 7.59438C20.8335 7.58358 21.3391 7.73578 21.7331 7.89438L21.9243 7.98478L22.2136 6.28762ZM27.706 6.1187H26.0567C25.5458 6.1187 25.1634 6.25818 24.9391 6.76806L21.7693 13.9441H24.0105C24.0105 13.9441 24.3769 12.9791 24.4598 12.7673C24.7048 12.7673 26.882 12.7707 27.1933 12.7707C27.2572 13.0448 27.4529 13.9441 27.4529 13.9441H29.4335L27.706 6.11846V6.1187ZM25.0893 11.1751C25.2657 10.7239 25.9397 8.98618 25.9397 8.98618C25.927 9.00706 26.1148 8.53282 26.2226 8.23882L26.3668 8.91398C26.3668 8.91398 26.7756 10.7831 26.861 11.1751H25.0893ZM10.5573 6.1187L8.46766 11.4587L8.24498 10.3735C7.85598 9.12258 6.64398 7.7673 5.28906 7.08878L7.1997 13.9368L9.45794 13.9342L12.8181 6.11862H10.5573" fill="white"/>
<path d="M6.51576 6.11832H3.07411L3.04688 6.28124C5.7244 6.9294 7.49608 8.49576 8.23168 10.3776L7.48328 6.77924C7.35408 6.28344 6.9794 6.13548 6.51584 6.11816" fill="#F2AE14"/>
</g>
<defs>
<clipPath id="clip0_862_5559">
<rect width="31.2" height="20" fill="white" transform="translate(0.640625)"/>
</clipPath>
</defs>
</svg>
