<svg width="1264" height="70" viewBox="0 0 1264 70" fill="none" xmlns="http://www.w3.org/2000/svg">
<path d="M-0.00355124 61V2.81818H10.5362V52.1648H36.1612V61H-0.00355124ZM54.968 61H43.718L64.201 2.81818H77.2124L97.7237 61H86.4737L70.9339 14.75H70.4794L54.968 61ZM55.3374 38.1875H86.0192V46.6534H55.3374V38.1875ZM153.2 2.81818V61H143.825L116.41 21.3693H115.927V61H105.387V2.81818H114.819L142.205 42.4773H142.717V2.81818H153.2ZM184.4 61H164.684V2.81818H184.798C190.574 2.81818 195.536 3.98295 199.684 6.3125C203.851 8.6231 207.051 11.947 209.286 16.2841C211.521 20.6212 212.638 25.8106 212.638 31.8523C212.638 37.9129 211.512 43.1212 209.258 47.4773C207.023 51.8333 203.794 55.1761 199.57 57.5057C195.366 59.8352 190.309 61 184.4 61ZM175.224 51.8807H183.888C187.942 51.8807 191.322 51.142 194.031 49.6648C196.739 48.1686 198.775 45.9432 200.138 42.9886C201.502 40.0152 202.184 36.303 202.184 31.8523C202.184 27.4015 201.502 23.7083 200.138 20.7727C198.775 17.8182 196.758 15.6117 194.087 14.1534C191.436 12.6761 188.14 11.9375 184.201 11.9375H175.224V51.8807ZM233.192 2.81818V61H222.653V2.81818H233.192ZM292.418 2.81818V61H283.043L255.629 21.3693H255.146V61H244.606V2.81818H254.038L281.424 42.4773H281.935V2.81818H292.418ZM342.88 21.3977C342.406 19.8636 341.753 18.4905 340.92 17.2784C340.105 16.0473 339.121 14.9962 337.965 14.125C336.829 13.2538 335.522 12.6004 334.045 12.1648C332.567 11.7102 330.958 11.483 329.215 11.483C326.09 11.483 323.306 12.2689 320.863 13.8409C318.42 15.4129 316.497 17.7235 315.096 20.7727C313.713 23.803 313.022 27.4962 313.022 31.8523C313.022 36.2462 313.713 39.9678 315.096 43.017C316.478 46.0663 318.401 48.3864 320.863 49.9773C323.325 51.5492 326.185 52.3352 329.442 52.3352C332.397 52.3352 334.954 51.767 337.113 50.6307C339.291 49.4943 340.967 47.8845 342.141 45.8011C343.316 43.6989 343.903 41.2367 343.903 38.4148L346.289 38.7841H330.494V30.5455H354.102V37.5341C354.102 42.5152 353.041 46.8239 350.92 50.4602C348.799 54.0966 345.882 56.8996 342.17 58.8693C338.458 60.8201 334.196 61.7955 329.386 61.7955C324.026 61.7955 319.319 60.5928 315.266 58.1875C311.232 55.7633 308.079 52.3258 305.806 47.875C303.552 43.4053 302.425 38.1023 302.425 31.9659C302.425 27.2689 303.088 23.0739 304.414 19.3807C305.759 15.6875 307.634 12.553 310.039 9.97727C312.444 7.38257 315.266 5.41288 318.505 4.06818C321.744 2.70454 325.266 2.02273 329.073 2.02273C332.293 2.02273 335.295 2.49621 338.079 3.44318C340.863 4.37121 343.335 5.69697 345.494 7.42045C347.672 9.14394 349.461 11.1894 350.863 13.5568C352.264 15.9242 353.183 18.5379 353.619 21.3977H342.88ZM387.589 0.0909052L368.839 69.75H359.833L378.583 0.0909052H387.589ZM414.45 61V2.81818H452.29V11.6534H424.989V27.4489H450.33V36.2841H424.989V52.1648H452.518V61H414.45ZM463.043 61V2.81818H484.862C489.331 2.81818 493.081 3.5947 496.112 5.14773C499.161 6.70076 501.462 8.87879 503.015 11.6818C504.587 14.4659 505.373 17.714 505.373 21.4261C505.373 25.1572 504.577 28.3958 502.987 31.142C501.415 33.8693 499.094 35.9811 496.026 37.4773C492.958 38.9545 489.189 39.6932 484.719 39.6932H469.18V30.9432H483.299C485.913 30.9432 488.053 30.5833 489.719 29.8636C491.386 29.125 492.617 28.0549 493.413 26.6534C494.227 25.233 494.634 23.4905 494.634 21.4261C494.634 19.3617 494.227 17.6004 493.413 16.142C492.598 14.6648 491.358 13.5473 489.691 12.7898C488.024 12.0133 485.875 11.625 483.242 11.625H473.583V61H463.043ZM493.1 34.6364L507.504 61H495.742L481.594 34.6364H493.1ZM515.075 61V2.81818H536.893C541.362 2.81818 545.112 3.5947 548.143 5.14773C551.192 6.70076 553.493 8.87879 555.046 11.6818C556.618 14.4659 557.404 17.714 557.404 21.4261C557.404 25.1572 556.609 28.3958 555.018 31.142C553.446 33.8693 551.126 35.9811 548.058 37.4773C544.989 38.9545 541.22 39.6932 536.751 39.6932H521.211V30.9432H535.33C537.944 30.9432 540.084 30.5833 541.751 29.8636C543.417 29.125 544.648 28.0549 545.444 26.6534C546.258 25.233 546.665 23.4905 546.665 21.4261C546.665 19.3617 546.258 17.6004 545.444 16.142C544.629 14.6648 543.389 13.5473 541.722 12.7898C540.056 12.0133 537.906 11.625 535.273 11.625H525.614V61H515.075ZM545.131 34.6364L559.535 61H547.773L533.626 34.6364H545.131ZM619.094 31.9091C619.094 38.178 617.92 43.5473 615.572 48.017C613.242 52.4678 610.06 55.8769 606.026 58.2443C602.011 60.6117 597.456 61.7955 592.362 61.7955C587.267 61.7955 582.702 60.6117 578.668 58.2443C574.653 55.858 571.471 52.4394 569.123 47.9886C566.793 43.5189 565.629 38.1591 565.629 31.9091C565.629 25.6402 566.793 20.2803 569.123 15.8295C571.471 11.3598 574.653 7.94129 578.668 5.57386C582.702 3.20644 587.267 2.02273 592.362 2.02273C597.456 2.02273 602.011 3.20644 606.026 5.57386C610.06 7.94129 613.242 11.3598 615.572 15.8295C617.92 20.2803 619.094 25.6402 619.094 31.9091ZM608.498 31.9091C608.498 27.4962 607.807 23.7746 606.424 20.7443C605.06 17.6951 603.166 15.3939 600.742 13.8409C598.318 12.2689 595.524 11.483 592.362 11.483C589.199 11.483 586.405 12.2689 583.981 13.8409C581.557 15.3939 579.653 17.6951 578.271 20.7443C576.907 23.7746 576.225 27.4962 576.225 31.9091C576.225 36.322 576.907 40.053 578.271 43.1023C579.653 46.1326 581.557 48.4337 583.981 50.0057C586.405 51.5587 589.199 52.3352 592.362 52.3352C595.524 52.3352 598.318 51.5587 600.742 50.0057C603.166 48.4337 605.06 46.1326 606.424 43.1023C607.807 40.053 608.498 36.322 608.498 31.9091ZM629.059 61V2.81818H650.877C655.347 2.81818 659.097 3.5947 662.127 5.14773C665.176 6.70076 667.478 8.87879 669.031 11.6818C670.603 14.4659 671.388 17.714 671.388 21.4261C671.388 25.1572 670.593 28.3958 669.002 31.142C667.43 33.8693 665.11 35.9811 662.042 37.4773C658.974 38.9545 655.205 39.6932 650.735 39.6932H635.195V30.9432H649.315C651.928 30.9432 654.068 30.5833 655.735 29.8636C657.402 29.125 658.633 28.0549 659.428 26.6534C660.243 25.233 660.65 23.4905 660.65 21.4261C660.65 19.3617 660.243 17.6004 659.428 16.142C658.614 14.6648 657.373 13.5473 655.707 12.7898C654.04 12.0133 651.89 11.625 649.258 11.625H639.599V61H629.059ZM659.116 34.6364L673.519 61H661.758L647.61 34.6364H659.116ZM704.386 0.0909052L685.636 69.75H676.63L695.38 0.0909052H704.386ZM731.246 61V2.81818H768.519V11.6534H741.786V27.4489H765.962V36.2841H741.786V61H731.246ZM830.11 31.9091C830.11 38.178 828.936 43.5473 826.587 48.017C824.258 52.4678 821.076 55.8769 817.042 58.2443C813.027 60.6117 808.472 61.7955 803.377 61.7955C798.282 61.7955 793.718 60.6117 789.684 58.2443C785.669 55.858 782.487 52.4394 780.138 47.9886C777.809 43.5189 776.644 38.1591 776.644 31.9091C776.644 25.6402 777.809 20.2803 780.138 15.8295C782.487 11.3598 785.669 7.94129 789.684 5.57386C793.718 3.20644 798.282 2.02273 803.377 2.02273C808.472 2.02273 813.027 3.20644 817.042 5.57386C821.076 7.94129 824.258 11.3598 826.587 15.8295C828.936 20.2803 830.11 25.6402 830.11 31.9091ZM819.513 31.9091C819.513 27.4962 818.822 23.7746 817.44 20.7443C816.076 17.6951 814.182 15.3939 811.758 13.8409C809.334 12.2689 806.54 11.483 803.377 11.483C800.214 11.483 797.421 12.2689 794.996 13.8409C792.572 15.3939 790.669 17.6951 789.286 20.7443C787.923 23.7746 787.241 27.4962 787.241 31.9091C787.241 36.322 787.923 40.053 789.286 43.1023C790.669 46.1326 792.572 48.4337 794.996 50.0057C797.421 51.5587 800.214 52.3352 803.377 52.3352C806.54 52.3352 809.334 51.5587 811.758 50.0057C814.182 48.4337 816.076 46.1326 817.44 43.1023C818.822 40.053 819.513 36.322 819.513 31.9091ZM892.063 31.9091C892.063 38.178 890.889 43.5473 888.54 48.017C886.211 52.4678 883.029 55.8769 878.995 58.2443C874.98 60.6117 870.425 61.7955 865.33 61.7955C860.236 61.7955 855.671 60.6117 851.637 58.2443C847.622 55.858 844.44 52.4394 842.092 47.9886C839.762 43.5189 838.597 38.1591 838.597 31.9091C838.597 25.6402 839.762 20.2803 842.092 15.8295C844.44 11.3598 847.622 7.94129 851.637 5.57386C855.671 3.20644 860.236 2.02273 865.33 2.02273C870.425 2.02273 874.98 3.20644 878.995 5.57386C883.029 7.94129 886.211 11.3598 888.54 15.8295C890.889 20.2803 892.063 25.6402 892.063 31.9091ZM881.467 31.9091C881.467 27.4962 880.775 23.7746 879.393 20.7443C878.029 17.6951 876.135 15.3939 873.711 13.8409C871.287 12.2689 868.493 11.483 865.33 11.483C862.167 11.483 859.374 12.2689 856.95 13.8409C854.525 15.3939 852.622 17.6951 851.239 20.7443C849.876 23.7746 849.194 27.4962 849.194 31.9091C849.194 36.322 849.876 40.053 851.239 43.1023C852.622 46.1326 854.525 48.4337 856.95 50.0057C859.374 51.5587 862.167 52.3352 865.33 52.3352C868.493 52.3352 871.287 51.5587 873.711 50.0057C876.135 48.4337 878.029 46.1326 879.393 43.1023C880.775 40.053 881.467 36.322 881.467 31.9091ZM896.893 11.6534V2.81818H943.313V11.6534H925.33V61H914.876V11.6534H896.893ZM952.262 61V2.81818H990.103V11.6534H962.802V27.4489H988.143V36.2841H962.802V52.1648H990.33V61H952.262ZM1000.86 61V2.81818H1022.67C1027.14 2.81818 1030.89 3.5947 1033.92 5.14773C1036.97 6.70076 1039.27 8.87879 1040.83 11.6818C1042.4 14.4659 1043.19 17.714 1043.19 21.4261C1043.19 25.1572 1042.39 28.3958 1040.8 31.142C1039.23 33.8693 1036.91 35.9811 1033.84 37.4773C1030.77 38.9545 1027 39.6932 1022.53 39.6932H1006.99V30.9432H1021.11C1023.73 30.9432 1025.87 30.5833 1027.53 29.8636C1029.2 29.125 1030.43 28.0549 1031.23 26.6534C1032.04 25.233 1032.45 23.4905 1032.45 21.4261C1032.45 19.3617 1032.04 17.6004 1031.23 16.142C1030.41 14.6648 1029.17 13.5473 1027.5 12.7898C1025.84 12.0133 1023.69 11.625 1021.05 11.625H1011.4V61H1000.86ZM1030.91 34.6364L1045.32 61H1033.55L1019.41 34.6364H1030.91ZM1076.18 0.0909052L1057.43 69.75H1048.43L1067.18 0.0909052H1076.18ZM1150.86 2.81818V61H1141.48L1114.07 21.3693H1113.58V61H1103.04V2.81818H1112.48L1139.86 42.4773H1140.37V2.81818H1150.86ZM1169.81 61H1158.56L1179.04 2.81818H1192.06L1212.57 61H1201.32L1185.78 14.75H1185.32L1169.81 61ZM1170.18 38.1875H1200.86V46.6534H1170.18V38.1875ZM1221.37 2.81818L1236.52 48.6136H1237.11L1252.23 2.81818H1263.82L1243.31 61H1230.29L1209.81 2.81818H1221.37Z" fill="#D6DA1B"/>
</svg>
